<svg width="20" height="20" viewBox="0 0 20 20" fill="none" xmlns="http://www.w3.org/2000/svg">
<path d="M19.8248 5.81593L14.4081 0.190994C14.3217 0.101467 14.2105 0.0397664 14.0888 0.0137835C13.967 -0.0121993 13.8403 -0.00128284 13.7249 0.0451367C13.6092 0.0918029 13.5102 0.171941 13.4404 0.275278C13.3706 0.378614 13.3333 0.500438 13.3332 0.62513V3.33354H13.1249C8.64496 3.33354 5 6.97849 5 11.4584V12.7084C5 12.9983 5.20414 13.2401 5.4866 13.306C5.53253 13.3176 5.57831 13.3226 5.62409 13.3226C5.85999 13.3226 6.08581 13.1842 6.19491 12.9667C7.36661 10.6226 9.72237 9.16675 12.3432 9.16675H13.3332V11.875C13.3331 11.9996 13.3704 12.1214 13.4402 12.2246C13.5101 12.3279 13.6092 12.4078 13.7249 12.4542C13.9591 12.55 14.2315 12.4917 14.4081 12.3084L19.8248 6.68342C20.0581 6.44096 20.0581 6.05932 19.8248 5.81597V5.81593Z" fill="black"/>
<path d="M17.4998 20.0004H2.49997C1.12167 20.0004 0 18.8788 0 17.5004V5.83396C0 4.45565 1.12167 3.33398 2.49997 3.33398H4.99994C5.46076 3.33398 5.83321 3.70644 5.83321 4.16726C5.83321 4.62807 5.46076 5.00053 4.99994 5.00053H2.49997C2.03994 5.00053 1.66654 5.37392 1.66654 5.83396V17.5004C1.66654 17.9604 2.03994 18.3338 2.49997 18.3338H17.4998C17.9597 18.3338 18.3331 17.9604 18.3331 17.5004V10.8339C18.3331 10.3731 18.7055 10.0005 19.1663 10.0005C19.6273 10.0005 19.9998 10.3731 19.9998 10.8339V17.5004C19.9998 18.8788 18.8781 20.0004 17.4998 20.0004Z" fill="black"/>
</svg>
