<svg width="61" height="56" viewBox="0 0 61 56" fill="none" xmlns="http://www.w3.org/2000/svg">
<circle cx="27.5379" cy="27.9998" r="27.0769" fill="white"/>
<circle cx="33.6902" cy="27.9998" r="26.4615" stroke="white" stroke-width="1.23077"/>
<path d="M13.2443 26.2771L19.4694 28.6962L21.8962 36.8331C22.0017 37.3829 22.6347 37.4929 23.0568 37.163L26.5386 34.1941C26.8551 33.8642 27.3827 33.8642 27.8047 34.1941L34.0298 38.9223C34.4519 39.2522 35.0849 39.0323 35.1904 38.4825L39.8329 15.3912C39.9384 14.8414 39.4108 14.2916 38.8833 14.5116L13.2443 24.8476C12.6113 25.0676 12.6113 26.0572 13.2443 26.2771ZM21.5796 27.4866L33.8188 19.6796C34.0298 19.5696 34.2408 19.8995 34.0298 20.0095L24.0064 29.7958C23.6898 30.1256 23.3733 30.5655 23.3733 31.1153L23.0568 33.7543C23.0568 34.0841 22.5292 34.1941 22.4237 33.7543L21.1576 28.9161C20.841 28.3663 21.0521 27.7066 21.5796 27.4866Z" fill="#2197D3"/>
</svg>
