<svg width="32" height="32" viewBox="0 0 32 32" fill="none" xmlns="http://www.w3.org/2000/svg">
<circle cx="16" cy="16" r="16" fill="#55ACE3"/>
<path d="M24.4798 11.9199C23.9198 12.1599 23.2798 12.3199 22.6398 12.3999C23.2798 11.9999 23.8398 11.3599 24.0798 10.6399C23.4398 11.0399 22.7998 11.2799 21.9998 11.4399C21.4398 10.7999 20.5598 10.3999 19.6798 10.3999C17.9198 10.3999 16.4798 11.8399 16.4798 13.5999C16.4798 13.8399 16.4798 14.0799 16.5598 14.3199C13.9198 14.1599 11.5198 12.8799 9.9198 10.9599C9.6798 11.4399 9.5198 11.9999 9.5198 12.5599C9.5198 13.6799 10.0798 14.6399 10.9598 15.1999C10.3998 15.1999 9.9198 15.0399 9.5198 14.7999C9.5198 16.3199 10.6398 17.6799 12.0798 17.9199C11.8398 17.9999 11.5198 17.9999 11.1998 17.9999C10.9598 17.9999 10.7998 17.9999 10.5598 17.9199C10.9598 19.1999 12.1598 20.1599 13.5998 20.1599C12.4798 21.0399 11.1198 21.5199 9.5998 21.5199C9.3598 21.5199 9.1198 21.5199 8.7998 21.4399C10.2398 22.3199 11.9198 22.8799 13.7598 22.8799C19.6798 22.8799 22.8798 17.9999 22.8798 13.7599V13.3599C23.5198 13.1199 24.0798 12.5599 24.4798 11.9199Z" fill="white"/>
</svg>
