<svg width="25" height="13" viewBox="0 0 25 13" fill="none" xmlns="http://www.w3.org/2000/svg">
<path d="M23.8984 4.0375L12.303 0.0272191C12.1942 -0.00907304 12.0671 -0.00907304 11.9583 0.0272191L0.362921 4.0375C0.145169 4.11009 0 4.30969 0 4.54559C0 4.78149 0.145169 4.9811 0.362921 5.05368L5.93376 6.92273L5.91562 9.57205C5.91562 9.64464 5.91562 9.73537 6.00635 9.8261C6.35113 10.2798 8.83713 11.677 12.1034 11.677C15.2064 11.677 17.892 10.3886 18.2187 9.95312C18.2912 9.86239 18.3094 9.77166 18.2912 9.71722L18.3275 6.92273L20.9406 6.05172V8.41071L20.2147 9.57205C20.0333 9.86239 20.0333 10.2435 20.2147 10.5338L21.1946 12.1307L22.1745 10.5338C22.356 10.2435 22.356 9.86239 22.1745 9.57205L21.4487 8.39256V5.87026L23.9165 5.03554C24.1343 4.96295 24.2794 4.76334 24.2794 4.52745C24.2613 4.30969 24.1343 4.11009 23.8984 4.0375Z" fill="white"/>
</svg>
