<svg width="32" height="32" viewBox="0 0 32 32" fill="none" xmlns="http://www.w3.org/2000/svg">
<circle cx="16" cy="16" r="16" fill="#F4F2F0"/>
<path d="M12.4649 24.535C10.4428 24.535 8.6197 23.3169 7.84572 21.4488C7.07175 19.5806 7.49925 17.4301 8.92892 16L11.0509 13.878L12.4649 15.292L10.3439 17.413C9.58598 18.171 9.28997 19.2757 9.5674 20.311C9.84482 21.3464 10.6535 22.1551 11.6889 22.4325C12.7243 22.71 13.829 22.414 14.5869 21.656L16.7079 19.535L18.1219 20.95L16.0009 23.071C15.065 24.0116 13.7918 24.5387 12.4649 24.535ZM13.1719 20.242L11.7579 18.828L18.8289 11.757L20.2429 13.171L13.1729 20.241L13.1719 20.242ZM20.9509 18.121L19.5359 16.707L21.6569 14.586C22.4252 13.8303 22.7291 12.7207 22.4532 11.679C22.1772 10.6373 21.3637 9.82367 20.3221 9.54746C19.2805 9.27126 18.1708 9.57494 17.4149 10.343L15.2929 12.464L13.8789 11.05L16.0009 8.92802C17.956 6.98999 21.1099 6.99689 23.0565 8.94347C25.003 10.89 25.01 14.0439 23.0719 15.999L20.9509 18.12V18.121Z" fill="#2E3A59"/>
</svg>
