<svg width="52" height="52" viewBox="0 0 52 52" fill="none" xmlns="http://www.w3.org/2000/svg">
<circle cx="26" cy="26" r="26" fill="#7835FF"/>
<path d="M37.8984 24.0375L26.303 20.0272C26.1942 19.9909 26.0671 19.9909 25.9583 20.0272L14.3629 24.0375C14.1452 24.1101 14 24.3097 14 24.5456C14 24.7815 14.1452 24.9811 14.3629 25.0537L19.9338 26.9227L19.9156 29.5721C19.9156 29.6446 19.9156 29.7354 20.0064 29.8261C20.3511 30.2798 22.8371 31.677 26.1034 31.677C29.2064 31.677 31.892 30.3886 32.2187 29.9531C32.2912 29.8624 32.3094 29.7717 32.2912 29.7172L32.3275 26.9227L34.9406 26.0517V28.4107L34.2147 29.5721C34.0333 29.8624 34.0333 30.2435 34.2147 30.5338L35.1946 32.1307L36.1745 30.5338C36.356 30.2435 36.356 29.8624 36.1745 29.5721L35.4487 28.3926V25.8703L37.9165 25.0355C38.1343 24.963 38.2794 24.7633 38.2794 24.5274C38.2613 24.3097 38.1343 24.1101 37.8984 24.0375Z" fill="white"/>
</svg>
