<svg width="60" height="30" viewBox="0 0 60 30" fill="none" xmlns="http://www.w3.org/2000/svg">
<path d="M45.9375 0.93692C41.9836 0.93692 38.4117 2.56817 35.857 5.19434L32.4516 8.69473L36.1336 12.4787L39.6398 8.87403C41.2371 7.23223 43.4707 6.21036 45.9375 6.21036C50.7832 6.21036 54.7266 10.1537 54.7266 15.0006C54.7266 19.8463 50.7832 23.7897 45.9375 23.7897C43.4707 23.7897 41.2371 22.7678 39.6398 21.1248C34.4742 15.8147 29.3086 10.5045 24.143 5.19434C21.5883 2.56817 18.0164 0.93692 14.0625 0.93692C6.29648 0.93692 0 7.23341 0 15.0006C0 22.7666 6.29648 29.0631 14.0625 29.0631C18.0164 29.0631 21.5883 27.4318 24.143 24.8057L27.5484 21.3053L23.8664 17.5213L20.3602 21.1248C18.7629 22.7678 16.5293 23.7897 14.0625 23.7897C9.2168 23.7897 5.27344 19.8463 5.27344 15.0006C5.27344 10.1537 9.2168 6.21036 14.0625 6.21036C16.5293 6.21036 18.7629 7.23223 20.3602 8.87403L35.857 24.8057C38.4117 27.4318 41.9836 29.0631 45.9375 29.0631C53.7035 29.0631 60 22.7666 60 15.0006C60 7.23341 53.7035 0.93692 45.9375 0.93692Z" fill="#E7AD68"/>
</svg>
