<svg width="104" height="120" viewBox="0 0 104 120" fill="none" xmlns="http://www.w3.org/2000/svg">
<path d="M0.5 30.2888L52 0.577244L103.5 30.2888V89.7112L52 119.423L0.5 89.7112V30.2888Z" stroke="white"/>
<path d="M76.4829 70.0774L74.4262 60.9985C76.1429 60.5673 77.418 59.0113 77.418 57.1626C77.418 54.9818 75.6438 53.2076 73.4629 53.2076C71.4852 53.2076 69.8419 54.6667 69.553 56.5651L58.2641 60.0521C57.8387 58.8065 56.6575 57.9079 55.2697 57.9079C53.9162 57.9079 52.759 58.7624 52.3079 59.96L43.3187 56.1172C43.5063 55.7132 43.6118 55.2636 43.6118 54.7895C43.6118 53.0448 42.1924 51.6254 40.4477 51.6254C39.8451 51.6254 39.2813 51.7949 38.8013 52.0887L36.0973 49.7251L35.0562 50.9162L37.6987 53.226C37.4351 53.6876 37.2837 54.2211 37.2837 54.7896C37.2837 56.5343 38.7031 57.9537 40.4477 57.9537C41.1198 57.9537 41.7431 57.7424 42.2561 57.3837L52.1532 61.6145C52.3693 62.8598 53.3153 63.8571 54.5333 64.1487L55.2104 72.4767C53.437 72.8669 52.1057 74.4498 52.1057 76.3388C52.1057 78.5196 53.8799 80.294 56.0608 80.294C58.0214 80.294 59.6526 78.8596 59.9622 76.9852L64.199 76.0438L63.8558 74.4994L59.8974 75.3789C59.5257 73.8938 58.3124 72.7394 56.7957 72.4532L56.1181 64.1196C57.2627 63.8004 58.1476 62.853 58.3755 61.6735L69.6445 58.1927C70.0444 59.6733 71.2839 60.8121 72.8188 61.0645L74.8791 70.1588C73.8023 70.5012 72.9736 71.4051 72.7391 72.5252L68.4888 73.4698L68.832 75.0142L72.8189 74.1281C73.2243 75.4083 74.4234 76.3388 75.8359 76.3388C77.5805 76.3388 78.9999 74.9194 78.9999 73.1747C79 71.6517 77.9183 70.3768 76.4829 70.0774ZM40.4476 56.3716C39.5753 56.3716 38.8656 55.6619 38.8656 54.7896C38.8656 53.9173 39.5753 53.2076 40.4476 53.2076C41.3199 53.2076 42.0296 53.9173 42.0296 54.7896C42.0296 55.6619 41.3199 56.3716 40.4476 56.3716ZM58.4338 76.3387C58.4338 77.6472 57.3692 78.7118 56.0608 78.7118C54.7523 78.7118 53.6877 77.6472 53.6877 76.3387C53.6877 75.0302 54.7523 73.9656 56.0608 73.9656C57.3692 73.9656 58.4338 75.0302 58.4338 76.3387ZM55.2697 62.654C54.3973 62.654 53.6876 61.9443 53.6876 61.072C53.6876 60.1996 54.3973 59.4899 55.2697 59.4899C56.142 59.4899 56.8517 60.1996 56.8517 61.072C56.8517 61.9443 56.142 62.654 55.2697 62.654ZM71.0899 57.1626C71.0899 55.8542 72.1545 54.7896 73.4629 54.7896C74.7714 54.7896 75.836 55.8542 75.836 57.1626C75.836 58.4711 74.7714 59.5357 73.4629 59.5357C72.1545 59.5357 71.0899 58.4711 71.0899 57.1626ZM75.836 74.7567C74.9636 74.7567 74.2539 74.047 74.2539 73.1747C74.2539 72.3024 74.9636 71.5927 75.836 71.5927C76.7083 71.5927 77.418 72.3024 77.418 73.1747C77.418 74.047 76.7083 74.7567 75.836 74.7567Z" fill="white"/>
<path d="M32.9102 44.251C32.9102 42.0701 31.136 40.2959 28.9551 40.2959C26.7742 40.2959 25 42.0701 25 44.251C25 46.4319 26.7743 48.2061 28.9551 48.2061C29.777 48.2061 30.541 47.9539 31.1742 47.523L33.8649 49.8749L34.906 48.6838L32.2802 46.3885C32.6781 45.7716 32.9102 45.0381 32.9102 44.251ZM28.9551 46.624C27.6465 46.624 26.582 45.5594 26.582 44.251C26.582 42.9425 27.6466 41.8779 28.9551 41.8779C30.2635 41.8779 31.3281 42.9425 31.3281 44.251C31.3281 45.5594 30.2636 46.624 28.9551 46.624Z" fill="white"/>
<path d="M65.3933 74.1484L66.9374 73.8051L67.2807 75.3492L65.7366 75.6925L65.3933 74.1484Z" fill="white"/>
<path d="M52.8967 50.7809H54.4787C54.4787 48.1639 56.6078 46.0348 59.2248 46.0348V44.4527C56.6078 44.4527 54.4787 42.3235 54.4787 39.7065H52.8967C52.8967 42.3235 50.7676 44.4527 48.1506 44.4527V46.0348C50.7676 46.0348 52.8967 48.1638 52.8967 50.7809ZM53.6877 42.768C54.2643 43.8066 55.1248 44.6672 56.1635 45.2438C55.1248 45.8204 54.2643 46.6809 53.6877 47.7195C53.1111 46.6809 52.2506 45.8204 51.2119 45.2438C52.2506 44.6672 53.1111 43.8066 53.6877 42.768Z" fill="white"/>
<path d="M44.5359 69.2192H42.9539C42.9539 70.9639 41.5345 72.3833 39.7899 72.3833V73.9653C41.5345 73.9653 42.9539 75.3847 42.9539 77.1294H44.5359C44.5359 75.3847 45.9553 73.9653 47.7 73.9653V72.3833C45.9553 72.3833 44.5359 70.9639 44.5359 69.2192ZM43.7449 74.5085C43.3936 73.98 42.9393 73.5257 42.4109 73.1744C42.9393 72.8231 43.3936 72.3687 43.7449 71.8403C44.0963 72.3689 44.5506 72.8231 45.079 73.1744C44.5506 73.5256 44.0963 73.98 43.7449 74.5085Z" fill="white"/>
<path d="M66.3439 47.6167H67.9259V49.1987H66.3439V47.6167Z" fill="white"/>
<path d="M70.2988 42.0796H71.8809V43.6616H70.2988V42.0796Z" fill="white"/>
<path d="M62.3888 44.4526H63.9708V46.0347H62.3888V44.4526Z" fill="white"/>
<path d="M27.1337 70.0103H28.7158V71.5923H27.1337V70.0103Z" fill="white"/>
<path d="M35.0438 72.3833H36.6258V73.9653H35.0438V72.3833Z" fill="white"/>
<path d="M31.0887 66.8462H32.6707V68.4282H31.0887V66.8462Z" fill="white"/>
<path d="M28.1641 43.46H29.7461V45.042H28.1641V43.46Z" fill="white"/>
<path d="M72.6719 56.3716H74.2539V57.9536H72.6719V56.3716Z" fill="white"/>
<path d="M55.2697 75.5474H56.8517V77.1294H55.2697V75.5474Z" fill="white"/>
</svg>
