<svg width="104" height="120" viewBox="0 0 104 120" fill="none" xmlns="http://www.w3.org/2000/svg">
<path d="M0.5 30.2888L52 0.577244L103.5 30.2888V89.7112L52 119.423L0.5 89.7112V30.2888Z" stroke="white"/>
<path d="M68.445 41.1086C68.3693 40.8216 68.1099 40.6217 67.8131 40.6217H63.9405V38.6535C63.9405 38.2926 63.6479 38 63.287 38H58.6551C58.2943 38 58.0017 38.2926 58.0017 38.6535C58.0017 39.0143 58.2943 39.3069 58.6551 39.3069H62.6335V41.2709C62.6335 41.2722 62.6334 41.2736 62.6334 41.2751C62.6334 41.2765 62.6335 41.2778 62.6335 41.2793V43.3704H61.9756H42.0241H41.3661V39.3069H56.4767C56.8376 39.3069 57.1302 39.0143 57.1302 38.6535C57.1302 38.2926 56.8376 38 56.4767 38H40.7127C40.3518 38 40.0592 38.2926 40.0592 38.6535V40.6216H36.187C35.8903 40.6216 35.6309 40.8216 35.5552 41.1085C35.5209 41.2387 34.7215 44.3398 35.2985 48.02C35.8304 51.4117 37.674 55.9147 43.4121 58.2521C43.8418 59.2774 44.3371 60.2772 44.8969 61.2442C45.0778 61.5566 45.4775 61.6632 45.7899 61.4823C46.1023 61.3014 46.2088 60.9017 46.028 60.5894C43.8361 56.8036 42.6776 52.4903 42.6776 48.116V44.6773H61.3221V48.116C61.3221 51.3481 60.6982 54.5095 59.5111 57.4459C59.4924 57.4818 59.4771 57.5191 59.4654 57.5577C58.4094 60.1336 56.9192 62.5345 55.0341 64.6546H48.9659C48.3129 63.9199 47.699 63.1408 47.1384 62.3353C46.9323 62.0391 46.5251 61.966 46.2288 62.1722C45.9325 62.3783 45.8595 62.7856 46.0656 63.0818C46.6646 63.9426 47.3221 64.774 48.0212 65.5578V69.7514H46.2671C44.8163 69.7514 43.6359 70.9318 43.6359 72.3826V73.28H41.4143C41.0534 73.28 40.7608 73.5726 40.7608 73.9335V81.3465C40.7608 81.7074 41.0534 82 41.4143 82H62.5855C62.9463 82 63.239 81.7074 63.239 81.3465V73.9335C63.239 73.5726 62.9463 73.28 62.5855 73.28H60.3639V72.3826C60.3639 70.9318 59.1836 69.7514 57.7328 69.7514H55.9786V65.5565C57.9289 63.3708 59.4804 60.9012 60.5924 58.251C66.3265 55.9126 68.1694 51.411 68.7013 48.0201C69.2786 44.3399 68.4793 41.2387 68.445 41.1086ZM42.7544 56.514C39.3021 54.7459 37.2322 51.8414 36.5962 47.859C36.1804 45.2556 36.5233 42.9101 36.7134 41.9286H40.0592V44.024C40.0592 44.3848 40.3518 44.6774 40.7127 44.6774H41.3706V48.116C41.3706 50.9797 41.8427 53.8183 42.7544 56.514ZM49.3281 65.9616H54.6717V69.7514H49.3281V65.9616ZM59.7104 74.5869H61.9319V80.6931H42.0677V74.5869H44.2894H59.7104ZM57.7328 71.0583C58.4629 71.0583 59.0569 71.6524 59.0569 72.3826V73.28H44.9428V72.3826C44.9428 71.6524 45.5368 71.0583 46.267 71.0583H48.6746H55.3251H57.7328ZM67.4035 47.8591C66.7676 51.8394 64.6995 54.7431 61.2505 56.512C62.1562 53.8328 62.629 51.0012 62.629 48.116V44.6773H63.2869C63.6478 44.6773 63.9404 44.3847 63.9404 44.0239V41.9285H67.2866C67.4768 42.9106 67.8193 45.2559 67.4035 47.8591Z" fill="white"/>
</svg>
