<svg width="1325" height="148" viewBox="0 0 1325 148" fill="none" xmlns="http://www.w3.org/2000/svg">
<path d="M1324.4 0.553711H0.40332V147.664H1324.4V0.553711Z" fill="#B0DAEA"/>
<path d="M108.65 70.0518L108.626 69.8076L108.627 70.296L108.65 70.0518ZM14.6529 58.2221H14.4077V58.4673H14.6529V58.2221ZM51.2609 58.2221V58.4673H51.4717L51.5033 58.2584L51.2609 58.2221ZM57.0158 62.0588V61.8136H56.7706V62.0588H57.0158ZM57.0158 80.9223H56.7706V81.1674H57.0158V80.9223ZM51.2609 82.8406H51.506V82.5954H51.2609V82.8406ZM14.6529 82.8406V82.5954H14.4077V82.8406H14.6529ZM137.191 90.8336C137.191 85.3895 134.547 80.5653 129.66 76.8895C124.777 73.2176 117.656 70.6902 108.675 69.8076L108.627 70.296C117.549 71.1718 124.575 73.6795 129.365 77.2818C134.149 80.8801 136.7 85.567 136.7 90.8336H137.191ZM108.675 70.296C117.416 69.4133 123.546 67.0448 127.494 63.6642C131.449 60.2758 133.194 55.8889 133.194 51.0284H132.704C132.704 55.7595 131.012 60.0051 127.174 63.2915C123.33 66.5839 117.31 68.9318 108.626 69.8076L108.675 70.296ZM133.194 51.0284V49.4298H132.704V51.0284H133.194ZM133.194 49.4298C133.194 42.325 127.96 36.8667 118.612 33.1956C109.258 29.5226 95.7151 27.6035 78.9167 27.6035V28.0939C95.6888 28.0939 109.162 30.0114 118.432 33.652C127.708 37.2946 132.704 42.6268 132.704 49.4298H133.194ZM78.9167 27.6035H76.3589V28.0939H78.9167V27.6035ZM76.3589 27.6035C56.8427 27.6035 41.3746 30.002 30.7765 34.8595C20.1662 39.7225 14.4077 47.0688 14.4077 56.9432H14.8981C14.8981 47.3148 20.4896 40.1138 30.9809 35.3052C41.4843 30.4912 56.8692 28.0939 76.3589 28.0939V27.6035ZM14.4077 56.9432V58.2221H14.8981V56.9432H14.4077ZM14.6529 58.4673H51.2609V57.9769H14.6529V58.4673ZM51.5033 58.2584C51.8927 55.6889 53.1306 53.1625 56.6526 51.2642C60.1958 49.3548 66.0618 48.0764 75.7195 48.0764V47.586C66.0341 47.586 60.0703 48.8654 56.4199 50.8326C52.7481 52.8114 51.4284 55.48 51.0184 58.1858L51.5033 58.2584ZM75.7195 48.0764C82.0297 48.0764 87.1935 48.5166 90.7726 49.6437C92.5612 50.2069 93.9342 50.9358 94.8576 51.8493C95.7743 52.7565 96.2561 53.8539 96.2561 55.1848H96.7465C96.7465 53.7186 96.2092 52.4976 95.2025 51.501C94.2025 50.5115 92.7481 49.7517 90.9199 49.176C87.2653 48.0251 82.0382 47.586 75.7195 47.586V48.0764ZM96.2561 55.1848V55.6644H96.7465V55.1848H96.2561ZM96.2561 55.6644C96.2561 56.7039 96.0159 57.5974 95.546 58.3555C95.0758 59.1136 94.3668 59.7511 93.4081 60.264C91.4833 61.2948 88.5747 61.8136 84.6716 61.8136V62.3039C88.6017 62.3039 91.6079 61.7842 93.6396 60.6965C94.6593 60.1502 95.4389 59.4588 95.9628 58.6134C96.4871 57.768 96.7465 56.7824 96.7465 55.6644H96.2561ZM84.6716 61.8136H57.0158V62.3039H84.6716V61.8136ZM56.7706 62.0588V80.9223H57.261V62.0588H56.7706ZM57.0158 81.1674H83.073V80.6771H57.0158V81.1674ZM83.073 81.1674C87.5508 81.1674 91.8322 81.3685 94.9894 82.3551C96.5656 82.8474 97.8411 83.53 98.7213 84.4627C99.5951 85.3885 100.092 86.5762 100.092 88.116H100.583C100.583 86.4585 100.042 85.1483 99.0773 84.1263C98.1189 83.1103 96.7566 82.3934 95.1357 81.8873C91.8985 80.8752 87.5474 80.6771 83.073 80.6771V81.1674ZM100.092 88.116V88.7554H100.583V88.116H100.092ZM100.092 88.7554C100.092 91.4014 98.2149 93.4561 94.4376 94.8605C90.6619 96.2639 85.0614 96.9828 77.7976 96.9828V97.4732C85.0812 97.4732 90.7508 96.7533 94.6085 95.3195C98.4644 93.8866 100.583 91.7045 100.583 88.7554H100.092ZM77.7976 96.9828C68.7742 96.9828 62.1908 95.9432 57.87 93.6542C55.7148 92.5126 54.1279 91.0631 53.0783 89.2801C52.0282 87.4971 51.506 85.364 51.506 82.8406H51.0157C51.0157 85.4327 51.5525 87.656 52.6557 89.5292C53.759 91.4034 55.4194 92.9108 57.6404 94.0877C62.0719 96.4346 68.7569 97.4732 77.7976 97.4732V96.9828ZM51.2609 82.5954H14.6529V83.0858H51.2609V82.5954ZM14.4077 82.8406V83.6399H14.8981V82.8406H14.4077ZM14.4077 83.6399C14.4077 95.5009 20.9527 104.328 32.0633 110.174C43.1631 116.015 58.8344 118.894 77.1582 118.894V118.404C58.874 118.404 43.2927 115.529 32.2917 109.74C21.3018 103.957 14.8981 95.2783 14.8981 83.6399H14.4077ZM77.1582 118.894H80.835V118.404H77.1582V118.894ZM80.835 118.894C100.916 118.894 114.99 115.895 124.052 111.093C133.125 106.285 137.191 99.6573 137.191 92.4322H136.7C136.7 99.4346 132.774 105.915 123.822 110.659C114.861 115.409 100.879 118.404 80.835 118.404V118.894ZM137.191 92.4322V90.8336H136.7V92.4322H137.191ZM215.901 118.894C242.47 118.894 257.931 112.732 266.748 104.036C275.567 95.3391 277.692 84.1508 277.692 74.2081H277.202C277.202 84.0881 275.09 95.1204 266.404 103.688C257.716 112.257 242.405 118.404 215.901 118.404V118.894ZM277.692 74.2081V71.3306H277.202V74.2081H277.692ZM277.692 71.3306C277.692 61.5439 275.405 50.5955 266.506 42.0987C257.609 33.605 242.149 27.6035 215.901 27.6035V28.0939C242.085 28.0939 257.399 34.0819 266.167 42.4534C274.932 50.8219 277.202 61.6145 277.202 71.3306H277.692ZM215.901 27.6035H204.551V28.0939H215.901V27.6035ZM204.551 27.6035C179.577 27.6035 164.081 33.5265 154.828 41.9751C145.572 50.4265 142.599 61.3713 142.599 71.3306H143.09C143.09 61.4674 146.032 50.6711 155.159 42.3372C164.289 34.0006 179.648 28.0939 204.551 28.0939V27.6035ZM142.599 71.3306V74.2081H143.09V71.3306H142.599ZM142.599 74.2081C142.599 84.1675 145.612 95.3509 154.907 104.041C164.199 112.73 179.735 118.894 204.71 118.894V118.404C179.81 118.404 164.412 112.259 155.241 103.683C146.071 95.1086 143.09 84.0714 143.09 74.2081H142.599ZM204.71 118.894H215.901V118.404H204.71V118.894ZM210.306 95.2243C198.194 95.2243 190.508 92.1968 185.852 87.9551C181.197 83.7144 179.538 78.2301 179.538 73.249H179.048C179.048 78.339 180.745 83.9655 185.521 88.317C190.297 92.6676 198.117 95.7147 210.306 95.7147V95.2243ZM179.538 73.249V72.4497H179.048V73.249H179.538ZM179.538 72.4497C179.538 67.0664 181.198 61.7067 185.847 57.6886C190.502 53.6646 198.188 50.9539 210.306 50.9539V50.4635C198.124 50.4635 190.303 53.188 185.526 57.3169C180.743 61.4517 179.048 66.9624 179.048 72.4497H179.538ZM210.306 50.9539H210.465V50.4635H210.306V50.9539ZM210.465 50.9539C222.422 50.9539 230.067 53.7039 234.723 57.7474C239.374 61.7871 241.073 67.1478 241.073 72.4497H241.564C241.564 67.0409 239.826 61.5311 235.045 57.3777C230.268 53.2282 222.488 50.4635 210.465 50.4635V50.9539ZM241.073 72.4497V73.249H241.564V72.4497H241.073ZM241.073 73.249C241.073 78.2301 239.414 83.7144 234.758 87.9551C230.102 92.1968 222.416 95.2243 210.306 95.2243V95.7147C222.493 95.7147 230.314 92.6676 235.089 88.317C239.866 83.9655 241.564 78.339 241.564 73.249H241.073ZM343.679 116.251H343.434V116.497H343.679V116.251ZM379.328 116.251V116.497H379.573V116.251H379.328ZM379.328 77.2455L379.512 77.0837L379.083 76.5943V77.2455H379.328ZM413.538 116.251L413.353 116.413L413.427 116.497H413.538V116.251ZM455.421 116.251V116.497H455.976L455.603 116.087L455.421 116.251ZM412.579 69.2525L412.402 69.0818L412.242 69.2476L412.397 69.4172L412.579 69.2525ZM450.466 30.2466L450.641 30.4174L451.045 30.0014H450.466V30.2466ZM410.98 30.2466V30.0014H410.873L410.801 30.0797L410.98 30.2466ZM379.328 64.2968H379.083V64.9206L379.507 64.4635L379.328 64.2968ZM379.328 30.2466H379.573V30.0014H379.328V30.2466ZM343.679 30.2466V30.0014H343.434V30.2466H343.679ZM343.679 64.2968L343.499 64.4635L343.924 64.9206V64.2968H343.679ZM312.027 30.2466L312.206 30.0797L312.134 30.0014H312.027V30.2466ZM272.541 30.2466V30.0014H271.961L272.365 30.4174L272.541 30.2466ZM310.428 69.2525L310.609 69.4172L310.764 69.2476L310.604 69.0818L310.428 69.2525ZM267.586 116.251L267.404 116.087L267.03 116.497H267.586V116.251ZM309.469 116.251V116.497H309.58L309.653 116.413L309.469 116.251ZM343.679 77.2455H343.924V76.5943L343.495 77.0837L343.679 77.2455ZM343.679 116.497H379.328V116.006H343.679V116.497ZM379.573 116.251V77.2455H379.083V116.251H379.573ZM379.143 77.4073L413.353 116.413L413.722 116.09L379.512 77.0837L379.143 77.4073ZM413.538 116.497H455.421V116.006H413.538V116.497ZM455.603 116.087L412.76 69.0877L412.397 69.4172L455.24 116.416L455.603 116.087ZM412.754 69.4231L450.641 30.4174L450.289 30.0758L412.402 69.0818L412.754 69.4231ZM450.466 30.0014H410.98V30.4918H450.466V30.0014ZM410.801 30.0797L379.148 64.1301L379.507 64.4635L411.16 30.4135L410.801 30.0797ZM379.573 64.2968V30.2466H379.083V64.2968H379.573ZM379.328 30.0014H343.679V30.4918H379.328V30.0014ZM343.434 30.2466V64.2968H343.924V30.2466H343.434ZM343.858 64.1301L312.206 30.0797L311.847 30.4135L343.499 64.4635L343.858 64.1301ZM312.027 30.0014H272.541V30.4918H312.027V30.0014ZM272.365 30.4174L310.251 69.4231L310.604 69.0818L272.717 30.0758L272.365 30.4174ZM310.247 69.0877L267.404 116.087L267.767 116.416L310.609 69.4172L310.247 69.0877ZM267.586 116.497H309.469V116.006H267.586V116.497ZM309.653 116.413L343.863 77.4073L343.495 77.0837L309.285 116.09L309.653 116.413ZM343.434 77.2455V116.251H343.924V77.2455H343.434ZM539.523 70.0518L539.499 69.8076L539.5 70.296L539.523 70.0518ZM445.526 58.2221H445.28V58.4673H445.526V58.2221ZM482.133 58.2221V58.4673H482.344L482.377 58.2584L482.133 58.2221ZM487.888 62.0588V61.8136H487.643V62.0588H487.888ZM487.888 80.9223H487.643V81.1674H487.888V80.9223ZM482.133 82.8406H482.379V82.5954H482.133V82.8406ZM445.526 82.8406V82.5954H445.28V82.8406H445.526ZM568.064 90.8336C568.064 85.3895 565.42 80.5653 560.533 76.8895C555.65 73.2176 548.529 70.6902 539.548 69.8076L539.5 70.296C548.422 71.1718 555.448 73.6795 560.238 77.2818C565.022 80.8801 567.573 85.567 567.573 90.8336H568.064ZM539.548 70.296C548.289 69.4133 554.419 67.0448 558.367 63.6642C562.322 60.2758 564.067 55.8889 564.067 51.0284H563.577C563.577 55.7595 561.885 60.0051 558.047 63.2915C554.203 66.5839 548.183 68.9318 539.499 69.8076L539.548 70.296ZM564.067 51.0284V49.4298H563.577V51.0284H564.067ZM564.067 49.4298C564.067 42.325 558.833 36.8667 549.485 33.1956C540.131 29.5226 526.588 27.6035 509.789 27.6035V28.0939C526.562 28.0939 540.035 30.0114 549.305 33.652C558.581 37.2946 563.577 42.6268 563.577 49.4298H564.067ZM509.789 27.6035H507.232V28.0939H509.789V27.6035ZM507.232 27.6035C487.716 27.6035 472.248 30.002 461.65 34.8595C451.039 39.7225 445.28 47.0688 445.28 56.9432H445.771C445.771 47.3148 451.363 40.1138 461.854 35.3052C472.358 30.4912 487.742 28.0939 507.232 28.0939V27.6035ZM445.28 56.9432V58.2221H445.771V56.9432H445.28ZM445.526 58.4673H482.133V57.9769H445.526V58.4673ZM482.377 58.2584C482.766 55.6889 484.004 53.1625 487.526 51.2642C491.069 49.3548 496.935 48.0764 506.592 48.0764V47.586C496.907 47.586 490.943 48.8654 487.293 50.8326C483.621 52.8114 482.301 55.48 481.891 58.1858L482.377 58.2584ZM506.592 48.0764C512.903 48.0764 518.067 48.5166 521.645 49.6437C523.434 50.2069 524.807 50.9358 525.73 51.8493C526.647 52.7565 527.129 53.8539 527.129 55.1848H527.619C527.619 53.7186 527.083 52.4976 526.075 51.501C525.075 50.5115 523.621 49.7517 521.792 49.176C518.138 48.0251 512.911 47.586 506.592 47.586V48.0764ZM527.129 55.1848V55.6644H527.619V55.1848H527.129ZM527.129 55.6644C527.129 56.7039 526.888 57.5974 526.419 58.3555C525.949 59.1136 525.24 59.7511 524.281 60.264C522.356 61.2948 519.448 61.8136 515.544 61.8136V62.3039C519.475 62.3039 522.481 61.7842 524.512 60.6965C525.532 60.1502 526.312 59.4588 526.835 58.6134C527.36 57.768 527.619 56.7824 527.619 55.6644H527.129ZM515.544 61.8136H487.888V62.3039H515.544V61.8136ZM487.643 62.0588V80.9223H488.134V62.0588H487.643ZM487.888 81.1674H513.946V80.6771H487.888V81.1674ZM513.946 81.1674C518.424 81.1674 522.706 81.3685 525.863 82.3551C527.439 82.8474 528.714 83.53 529.593 84.4627C530.468 85.3885 530.965 86.5762 530.965 88.116H531.456C531.456 86.4585 530.915 85.1483 529.95 84.1263C528.992 83.1103 527.63 82.3934 526.009 81.8873C522.771 80.8752 518.421 80.6771 513.946 80.6771V81.1674ZM530.965 88.116V88.7554H531.456V88.116H530.965ZM530.965 88.7554C530.965 91.4014 529.088 93.4561 525.31 94.8605C521.535 96.2639 515.935 96.9828 508.67 96.9828V97.4732C515.954 97.4732 521.624 96.7533 525.481 95.3195C529.337 93.8866 531.456 91.7045 531.456 88.7554H530.965ZM508.67 96.9828C499.647 96.9828 493.064 95.9432 488.743 93.6542C486.588 92.5126 485.001 91.0631 483.951 89.2801C482.901 87.4971 482.379 85.364 482.379 82.8406H481.888C481.888 85.4327 482.426 87.656 483.529 89.5292C484.632 91.4034 486.293 92.9108 488.513 94.0877C492.945 96.4346 499.63 97.4732 508.67 97.4732V96.9828ZM482.133 82.5954H445.526V83.0858H482.133V82.5954ZM445.28 82.8406V83.6399H445.771V82.8406H445.28ZM445.28 83.6399C445.28 95.5009 451.826 104.328 462.937 110.174C474.037 116.015 489.708 118.894 508.031 118.894V118.404C489.747 118.404 474.166 115.529 463.165 109.74C452.175 103.957 445.771 95.2783 445.771 83.6399H445.28ZM508.031 118.894H511.708V118.404H508.031V118.894ZM511.708 118.894C531.789 118.894 545.863 115.895 554.925 111.093C563.998 106.285 568.064 99.6573 568.064 92.4322H567.573C567.573 99.4346 563.646 105.915 554.695 110.659C545.733 115.409 531.752 118.404 511.708 118.404V118.894ZM568.064 92.4322V90.8336H567.573V92.4322H568.064ZM646.774 118.894C673.343 118.894 688.804 112.732 697.621 104.036C706.44 95.3391 708.565 84.1508 708.565 74.2081H708.075C708.075 84.0881 705.963 95.1204 697.277 103.688C688.589 112.257 673.278 118.404 646.774 118.404V118.894ZM708.565 74.2081V71.3306H708.075V74.2081H708.565ZM708.565 71.3306C708.565 61.5439 706.278 50.5955 697.379 42.0987C688.482 33.605 673.022 27.6035 646.774 27.6035V28.0939C672.958 28.0939 688.272 34.0819 697.04 42.4534C705.805 50.8219 708.075 61.6145 708.075 71.3306H708.565ZM646.774 27.6035H635.424V28.0939H646.774V27.6035ZM635.424 27.6035C610.45 27.6035 594.954 33.5265 585.701 41.9751C576.445 50.4265 573.472 61.3713 573.472 71.3306H573.963C573.963 61.4674 576.905 50.6711 586.032 42.3372C595.162 34.0006 610.521 28.0939 635.424 28.0939V27.6035ZM573.472 71.3306V74.2081H573.963V71.3306H573.472ZM573.472 74.2081C573.472 84.1675 576.485 95.3509 585.78 104.041C595.072 112.73 610.607 118.894 635.583 118.894V118.404C610.683 118.404 595.285 112.259 586.114 103.683C576.944 95.1086 573.963 84.0714 573.963 74.2081H573.472ZM635.583 118.894H646.774V118.404H635.583V118.894ZM641.179 95.2243C629.067 95.2243 621.381 92.1968 616.725 87.9551C612.07 83.7144 610.411 78.2301 610.411 73.249H609.921C609.921 78.339 611.618 83.9655 616.394 88.317C621.17 92.6676 628.99 95.7147 641.179 95.7147V95.2243ZM610.411 73.249V72.4497H609.921V73.249H610.411ZM610.411 72.4497C610.411 67.0664 612.071 61.7067 616.72 57.6886C621.375 53.6646 629.061 50.9539 641.179 50.9539V50.4635C628.997 50.4635 621.176 53.188 616.399 57.3169C611.616 61.4517 609.921 66.9624 609.921 72.4497H610.411ZM641.179 50.9539H641.338V50.4635H641.179V50.9539ZM641.338 50.9539C653.294 50.9539 660.94 53.7039 665.596 57.7474C670.247 61.7871 671.946 67.1478 671.946 72.4497H672.437C672.437 67.0409 670.699 61.5311 665.918 57.3777C661.141 53.2282 653.361 50.4635 641.338 50.4635V50.9539ZM671.946 72.4497V73.249H672.437V72.4497H671.946ZM671.946 73.249C671.946 78.2301 670.287 83.7144 665.631 87.9551C660.975 92.1968 653.289 95.2243 641.179 95.2243V95.7147C653.366 95.7147 661.187 92.6676 665.962 88.317C670.739 83.9655 672.437 78.339 672.437 73.249H671.946ZM774.552 116.251H774.307V116.497H774.552V116.251ZM810.201 116.251V116.497H810.446V116.251H810.201ZM810.201 77.2455L810.385 77.0837L809.956 76.5943V77.2455H810.201ZM844.411 116.251L844.226 116.413L844.299 116.497H844.411V116.251ZM886.294 116.251V116.497H886.849L886.475 116.087L886.294 116.251ZM843.452 69.2525L843.275 69.0818L843.114 69.2476L843.27 69.4172L843.452 69.2525ZM881.338 30.2466L881.514 30.4174L881.918 30.0014H881.338V30.2466ZM841.853 30.2466V30.0014H841.746L841.674 30.0797L841.853 30.2466ZM810.201 64.2968H809.956V64.9206L810.38 64.4635L810.201 64.2968ZM810.201 30.2466H810.446V30.0014H810.201V30.2466ZM774.552 30.2466V30.0014H774.307V30.2466H774.552ZM774.552 64.2968L774.372 64.4635L774.797 64.9206V64.2968H774.552ZM742.9 30.2466L743.079 30.0797L743.007 30.0014H742.9V30.2466ZM703.414 30.2466V30.0014H702.834L703.238 30.4174L703.414 30.2466ZM741.301 69.2525L741.481 69.4172L741.637 69.2476L741.477 69.0818L741.301 69.2525ZM698.458 116.251L698.277 116.087L697.903 116.497H698.458V116.251ZM740.342 116.251V116.497H740.453L740.526 116.413L740.342 116.251ZM774.552 77.2455H774.797V76.5943L774.368 77.0837L774.552 77.2455ZM774.552 116.497H810.201V116.006H774.552V116.497ZM810.446 116.251V77.2455H809.956V116.251H810.446ZM810.016 77.4073L844.226 116.413L844.595 116.09L810.385 77.0837L810.016 77.4073ZM844.411 116.497H886.294V116.006H844.411V116.497ZM886.475 116.087L843.632 69.0877L843.27 69.4172L886.113 116.416L886.475 116.087ZM843.627 69.4231L881.514 30.4174L881.162 30.0758L843.275 69.0818L843.627 69.4231ZM881.338 30.0014H841.853V30.4918H881.338V30.0014ZM841.674 30.0797L810.021 64.1301L810.38 64.4635L842.032 30.4135L841.674 30.0797ZM810.446 64.2968V30.2466H809.956V64.2968H810.446ZM810.201 30.0014H774.552V30.4918H810.201V30.0014ZM774.307 30.2466V64.2968H774.797V30.2466H774.307ZM774.731 64.1301L743.079 30.0797L742.72 30.4135L774.372 64.4635L774.731 64.1301ZM742.9 30.0014H703.414V30.4918H742.9V30.0014ZM703.238 30.4174L741.125 69.4231L741.477 69.0818L703.59 30.0758L703.238 30.4174ZM741.12 69.0877L698.277 116.087L698.639 116.416L741.481 69.4172L741.12 69.0877ZM698.458 116.497H740.342V116.006H698.458V116.497ZM740.526 116.413L774.736 77.4073L774.368 77.0837L740.157 116.09L740.526 116.413ZM774.307 77.2455V116.251H774.797V77.2455H774.307ZM970.396 70.0518L970.372 69.8076L970.373 70.296L970.396 70.0518ZM876.398 58.2221H876.153V58.4673H876.398V58.2221ZM913.006 58.2221V58.4673H913.217L913.249 58.2584L913.006 58.2221ZM918.761 62.0588V61.8136H918.516V62.0588H918.761ZM918.761 80.9223H918.516V81.1674H918.761V80.9223ZM913.006 82.8406H913.252V82.5954H913.006V82.8406ZM876.398 82.8406V82.5954H876.153V82.8406H876.398ZM998.941 90.8336C998.941 85.3895 996.293 80.5653 991.409 76.8895C986.524 73.2176 979.402 70.6902 970.421 69.8076L970.373 70.296C979.295 71.1718 986.318 73.6795 991.114 77.2818C995.89 80.8801 998.45 85.567 998.45 90.8336H998.941ZM970.421 70.296C979.162 69.4133 985.289 67.0448 989.241 63.6642C993.193 60.2758 994.939 55.8889 994.939 51.0284H994.449C994.449 55.7595 992.762 60.0051 988.917 63.2915C985.073 66.5839 979.056 68.9318 970.372 69.8076L970.421 70.296ZM994.939 51.0284V49.4298H994.449V51.0284H994.939ZM994.939 49.4298C994.939 42.325 989.702 36.8667 980.358 33.1956C971.004 29.5226 957.461 27.6035 940.662 27.6035V28.0939C957.435 28.0939 970.907 30.0114 980.178 33.652C989.457 37.2946 994.449 42.6268 994.449 49.4298H994.939ZM940.662 27.6035H938.105V28.0939H940.662V27.6035ZM938.105 27.6035C918.589 27.6035 903.121 30.002 892.523 34.8595C881.912 39.7225 876.153 47.0688 876.153 56.9432H876.644C876.644 47.3148 882.236 40.1138 892.727 35.3052C903.23 30.4912 918.615 28.0939 938.105 28.0939V27.6035ZM876.153 56.9432V58.2221H876.644V56.9432H876.153ZM876.398 58.4673H913.006V57.9769H876.398V58.4673ZM913.249 58.2584C913.638 55.6889 914.877 53.1625 918.399 51.2642C921.942 49.3548 927.808 48.0764 937.465 48.0764V47.586C927.78 47.586 921.816 48.8654 918.166 50.8326C914.494 52.8114 913.174 55.48 912.764 58.1858L913.249 58.2584ZM937.465 48.0764C943.775 48.0764 948.94 48.5166 952.518 49.6437C954.307 50.2069 955.68 50.9358 956.603 51.8493C957.52 52.7565 958.002 53.8539 958.002 55.1848H958.492C958.492 53.7186 957.955 52.4976 956.948 51.501C955.948 50.5115 954.494 49.7517 952.666 49.176C949.011 48.0251 943.784 47.586 937.465 47.586V48.0764ZM958.002 55.1848V55.6644H958.492V55.1848H958.002ZM958.002 55.6644C958.002 56.7039 957.761 57.5974 957.292 58.3555C956.822 59.1136 956.113 59.7511 955.154 60.264C953.229 61.2948 950.321 61.8136 946.417 61.8136V62.3039C950.348 62.3039 953.354 61.7842 955.385 60.6965C956.405 60.1502 957.185 59.4588 957.708 58.6134C958.233 57.768 958.492 56.7824 958.492 55.6644H958.002ZM946.417 61.8136H918.761V62.3039H946.417V61.8136ZM918.516 62.0588V80.9223H919.007V62.0588H918.516ZM918.761 81.1674H944.819V80.6771H918.761V81.1674ZM944.819 81.1674C949.297 81.1674 953.578 81.3685 956.736 82.3551C958.312 82.8474 959.587 83.53 960.466 84.4627C961.341 85.3885 961.838 86.5762 961.838 88.116H962.329C962.329 86.4585 961.787 85.1483 960.823 84.1263C959.865 83.1103 958.503 82.3934 956.882 81.8873C953.644 80.8752 949.294 80.6771 944.819 80.6771V81.1674ZM961.838 88.116V88.7554H962.329V88.116H961.838ZM961.838 88.7554C961.838 91.4014 959.961 93.4561 956.183 94.8605C952.408 96.2639 946.808 96.9828 939.543 96.9828V97.4732C946.827 97.4732 952.497 96.7533 956.354 95.3195C960.21 93.8866 962.329 91.7045 962.329 88.7554H961.838ZM939.543 96.9828C930.52 96.9828 923.937 95.9432 919.616 93.6542C917.461 92.5126 915.874 91.0631 914.824 89.2801C913.774 87.4971 913.252 85.364 913.252 82.8406H912.761C912.761 85.4327 913.299 87.656 914.401 89.5292C915.505 91.4034 917.165 92.9108 919.386 94.0877C923.818 96.4346 930.503 97.4732 939.543 97.4732V96.9828ZM913.006 82.5954H876.398V83.0858H913.006V82.5954ZM876.153 82.8406V83.6399H876.644V82.8406H876.153ZM876.153 83.6399C876.153 95.5009 882.699 104.328 893.81 110.174C904.908 116.015 920.581 118.894 938.904 118.894V118.404C920.62 118.404 905.039 115.529 894.038 109.74C883.048 103.957 876.644 95.2783 876.644 83.6399H876.153ZM938.904 118.894H942.581V118.404H938.904V118.894ZM942.581 118.894C962.662 118.894 976.736 115.895 985.799 111.093C994.871 106.285 998.941 99.6573 998.941 92.4322H998.45C998.45 99.4346 994.517 105.915 985.573 110.659C976.606 115.409 962.625 118.404 942.581 118.404V118.894ZM998.941 92.4322V90.8336H998.45V92.4322H998.941ZM1077.64 118.894C1104.21 118.894 1119.68 112.732 1128.5 104.036C1137.31 95.3391 1139.44 84.1508 1139.44 74.2081H1138.95C1138.95 84.0881 1136.83 95.1204 1128.15 103.688C1119.46 112.257 1104.15 118.404 1077.64 118.404V118.894ZM1139.44 74.2081V71.3306H1138.95V74.2081H1139.44ZM1139.44 71.3306C1139.44 61.5439 1137.16 50.5955 1128.25 42.0987C1119.36 33.605 1103.9 27.6035 1077.64 27.6035V28.0939C1103.83 28.0939 1119.15 34.0819 1127.92 42.4534C1136.68 50.8219 1138.95 61.6145 1138.95 71.3306H1139.44ZM1077.64 27.6035H1066.3V28.0939H1077.64V27.6035ZM1066.3 27.6035C1041.32 27.6035 1025.83 33.5265 1016.57 41.9751C1007.32 50.4265 1004.34 61.3713 1004.34 71.3306H1004.83C1004.83 61.4674 1007.78 50.6711 1016.91 42.3372C1026.04 34.0006 1041.4 28.0939 1066.3 28.0939V27.6035ZM1004.34 71.3306V74.2081H1004.83V71.3306H1004.34ZM1004.34 74.2081C1004.34 84.1675 1007.36 95.3509 1016.65 104.041C1025.94 112.73 1041.48 118.894 1066.45 118.894V118.404C1041.55 118.404 1026.16 112.259 1016.99 103.683C1007.82 95.1086 1004.83 84.0714 1004.83 74.2081H1004.34ZM1066.45 118.894H1077.64V118.404H1066.45V118.894ZM1072.05 95.2243C1059.94 95.2243 1052.25 92.1968 1047.59 87.9551C1042.95 83.7144 1041.28 78.2301 1041.28 73.249H1040.79C1040.79 78.339 1042.5 83.9655 1047.27 88.317C1052.05 92.6676 1059.86 95.7147 1072.05 95.7147V95.2243ZM1041.28 73.249V72.4497H1040.79V73.249H1041.28ZM1041.28 72.4497C1041.28 67.0664 1042.95 61.7067 1047.59 57.6886C1052.24 53.6646 1059.93 50.9539 1072.05 50.9539V50.4635C1059.87 50.4635 1052.05 53.188 1047.27 57.3169C1042.49 61.4517 1040.79 66.9624 1040.79 72.4497H1041.28ZM1072.05 50.9539H1072.21V50.4635H1072.05V50.9539ZM1072.21 50.9539C1084.17 50.9539 1091.82 53.7039 1096.47 57.7474C1101.12 61.7871 1102.82 67.1478 1102.82 72.4497H1103.31C1103.31 67.0409 1101.57 61.5311 1096.79 57.3777C1092.01 53.2282 1084.24 50.4635 1072.21 50.4635V50.9539ZM1102.82 72.4497V73.249H1103.31V72.4497H1102.82ZM1102.82 73.249C1102.82 78.2301 1101.16 83.7144 1096.5 87.9551C1091.85 92.1968 1084.17 95.2243 1072.05 95.2243V95.7147C1084.24 95.7147 1092.06 92.6676 1096.84 88.317C1101.61 83.9655 1103.31 78.339 1103.31 73.249H1102.82ZM1205.42 116.251H1205.18V116.497H1205.42V116.251ZM1241.07 116.251V116.497H1241.32V116.251H1241.07ZM1241.07 77.2455L1241.26 77.0837L1240.83 76.5943V77.2455H1241.07ZM1275.28 116.251L1275.1 116.413L1275.17 116.497H1275.28V116.251ZM1317.17 116.251V116.497H1317.72L1317.35 116.087L1317.17 116.251ZM1274.32 69.2525L1274.15 69.0818L1273.99 69.2476L1274.15 69.4172L1274.32 69.2525ZM1312.21 30.2466L1312.38 30.4174L1312.79 30.0014H1312.21V30.2466ZM1272.72 30.2466V30.0014H1272.62L1272.55 30.0797L1272.72 30.2466ZM1241.07 64.2968H1240.83V64.9206L1241.25 64.4635L1241.07 64.2968ZM1241.07 30.2466H1241.32V30.0014H1241.07V30.2466ZM1205.42 30.2466V30.0014H1205.18V30.2466H1205.42ZM1205.42 64.2968L1205.25 64.4635L1205.67 64.9206V64.2968H1205.42ZM1173.78 30.2466L1173.95 30.0797L1173.87 30.0014H1173.78V30.2466ZM1134.28 30.2466V30.0014H1133.7L1134.12 30.4174L1134.28 30.2466ZM1172.18 69.2525L1172.35 69.4172L1172.51 69.2476L1172.34 69.0818L1172.18 69.2525ZM1129.33 116.251L1129.15 116.087L1128.78 116.497H1129.33V116.251ZM1171.22 116.251V116.497H1171.32L1171.4 116.413L1171.22 116.251ZM1205.42 77.2455H1205.67V76.5943L1205.24 77.0837L1205.42 77.2455ZM1205.42 116.497H1241.07V116.006H1205.42V116.497ZM1241.32 116.251V77.2455H1240.83V116.251H1241.32ZM1240.89 77.4073L1275.1 116.413L1275.47 116.09L1241.26 77.0837L1240.89 77.4073ZM1275.28 116.497H1317.17V116.006H1275.28V116.497ZM1317.35 116.087L1274.51 69.0877L1274.15 69.4172L1316.98 116.416L1317.35 116.087ZM1274.5 69.4231L1312.38 30.4174L1312.03 30.0758L1274.15 69.0818L1274.5 69.4231ZM1312.21 30.0014H1272.72V30.4918H1312.21V30.0014ZM1272.55 30.0797L1240.9 64.1301L1241.25 64.4635L1272.91 30.4135L1272.55 30.0797ZM1241.32 64.2968V30.2466H1240.83V64.2968H1241.32ZM1241.07 30.0014H1205.42V30.4918H1241.07V30.0014ZM1205.18 30.2466V64.2968H1205.67V30.2466H1205.18ZM1205.6 64.1301L1173.95 30.0797L1173.59 30.4135L1205.25 64.4635L1205.6 64.1301ZM1173.78 30.0014H1134.28V30.4918H1173.78V30.0014ZM1134.12 30.4174L1172 69.4231L1172.34 69.0818L1134.46 30.0758L1134.12 30.4174ZM1171.99 69.0877L1129.15 116.087L1129.52 116.416L1172.35 69.4172L1171.99 69.0877ZM1129.33 116.497H1171.22V116.006H1129.33V116.497ZM1171.4 116.413L1205.61 77.4073L1205.24 77.0837L1171.03 116.09L1171.4 116.413ZM1205.18 77.2455V116.251H1205.67V77.2455H1205.18Z" fill="black"/>
</svg>
