<?xml version="1.0" encoding="UTF-8"?> <svg xmlns="http://www.w3.org/2000/svg" xmlns:xlink="http://www.w3.org/1999/xlink" width="771px" height="326px" viewBox="0 0 771 326"> <title>Path 3 Copy</title> <g id="Faculty" stroke="none" stroke-width="1" fill="none" fill-rule="evenodd"> <path d="M142.930301,0.735649349 C143.174323,0.606390372 143.476927,0.69942417 143.606186,0.943446152 C143.735445,1.18746813 143.642411,1.49007214 143.398389,1.61933112 C85.5288732,32.27294 44.0646432,69.6064067 20.3777978,107.828188 C1.61953174,138.09707 -3.52143622,166.479529 5.34504237,176.812793 C18.5653675,192.220162 40.0468424,202.445659 68.9815992,205.006813 L69.426,205.044 L69.7144276,204.566305 C70.3915247,203.452828 71.1011134,202.337352 71.8426663,201.220425 L72.216104,200.661844 C81.9656794,186.178697 96.7023664,172.253043 111.659805,162.755395 C202.870659,104.838484 286.631603,68.5993223 351.699732,55.0418703 L353.575261,54.6565591 L355.434917,54.2854565 L357.278509,53.9285451 L359.105844,53.5858074 C359.409034,53.5298646 359.711539,53.4745117 360.013354,53.4197482 L361.815943,53.0982384 C362.414027,52.9934245 363.009321,52.8909656 363.601794,52.7908588 L365.370715,52.4975918 L367.122513,52.2184201 L368.856998,51.9533261 L370.573975,51.7022926 L372.273254,51.4653019 L373.954642,51.2423368 L375.617946,51.0333796 L377.262974,50.8384131 L378.889535,50.6574198 L380.497435,50.4903821 L382.086483,50.3372828 C382.349742,50.3129268 382.612208,50.2891508 382.873877,50.2659545 L384.434286,50.1337298 C384.692748,50.1128508 384.950405,50.0925506 385.207252,50.0728291 L386.738589,49.9614399 C387.245775,49.9266226 387.749691,49.8941167 388.250305,49.8639193 L389.742207,49.7802497 C389.989195,49.767458 390.23535,49.7552428 390.480667,49.7436036 L391.942488,49.6806779 C393.394194,49.6246589 394.815458,49.589351 396.205416,49.5746759 L397.584906,49.5668755 L398.943333,49.5728127 C400.740441,49.5898798 402.480867,49.6435343 404.162562,49.7335901 L405.412788,49.8079543 L406.640798,49.8959515 L407.846398,49.9975644 C409.04073,50.1059793 410.20116,50.2347914 411.326822,50.3839224 L412.440864,50.5398233 C413.543253,50.7024914 414.610586,50.8854521 415.641998,51.0886269 C416.543884,51.2662867 417.415152,51.4591837 418.255382,51.6669398 L419.085251,51.8796348 C420.587652,52.2786048 421.985259,52.7270937 423.275482,53.2227708 L423.968575,53.4978058 C432.271252,56.9006629 435.823812,62.3630815 433.868865,69.2038137 C426.559161,94.7818629 395.469326,120.888814 347.97039,145.968818 L346.939214,146.511656 L344.863692,147.594559 L342.771534,148.673463 L340.663854,149.748003 L338.541762,150.817814 L336.406373,151.882532 L334.258799,152.941792 L332.100152,153.995231 L329.931544,155.042483 L327.754089,156.083185 L325.568898,157.116972 C325.204117,157.288673 324.83906,157.460071 324.47375,157.631158 L322.279042,158.653889 L320.079381,159.668793 C319.71242,159.837272 319.345298,160.005409 318.97804,160.173197 L316.773034,161.175679 L314.565855,162.169423 L312.357616,163.154066 L310.149429,164.129243 L307.942407,165.094589 L305.737663,166.04974 L303.536309,166.994332 L301.339458,167.928 L299.148221,168.850379 L296.963712,169.761106 L294.787043,170.659816 L292.619327,171.546144 L290.461676,172.419726 L288.315203,173.280198 L286.18102,174.127194 L284.060239,174.960352 L281.953974,175.779306 L279.863337,176.583691 L277.78944,177.373144 L275.733396,178.1473 L272.685238,179.279055 L270.678694,180.013374 L268.693896,180.731121 L266.731958,181.431931 L264.793991,182.115439 L262.881109,182.781281 L260.994423,183.429094 L259.135047,184.058511 L257.304092,184.669169 L255.502672,185.260704 C255.204959,185.35768 254.908522,185.453843 254.613386,185.549187 L252.858353,186.111353 L251.135637,186.653485 L249.446348,187.175217 L247.791601,187.676186 L246.172506,188.156028 C213.60993,197.698757 173.861843,203.157913 131.518358,205.410193 L128.032322,205.588109 C121.048938,205.929569 113.998819,206.185023 106.902355,206.358363 L103.350355,206.438209 C99.2020703,206.523421 95.039171,206.580913 90.865705,206.611458 L87.285955,206.631057 L83.7015957,206.637567 C79.2951793,206.637567 75.0312909,206.478816 70.912266,206.168052 L69.966,206.093 L69.8903645,206.219711 C61.1958328,220.987698 58.3643948,235.304733 62.608338,247.851797 L62.7708048,248.321479 C69.499648,267.350604 93.4052896,276.911637 130.175561,279.57918 L132.196775,279.718197 L134.000945,279.830416 C134.301522,279.848197 134.602071,279.865518 134.902638,279.882385 L136.706624,279.978141 L138.513253,280.063122 L140.324741,280.137488 L142.1433,280.201399 L143.971145,280.255015 C144.276682,280.263102 144.582699,280.270767 144.88924,280.278013 L146.735163,280.316486 C147.352818,280.327653 147.972942,280.33717 148.595905,280.345065 L150.473681,280.363908 L152.370703,280.373176 L154.289185,280.373029 L156.231341,280.363627 L158.199386,280.345129 L160.195532,280.317697 L162.221993,280.281489 C162.562385,280.274732 162.904133,280.267616 163.247283,280.260145 L165.323367,280.211074 L167.435301,280.153629 L170.675262,280.052107 L172.886504,279.974424 L176.285803,279.843295 L194.115485,279.063793 L210.888205,278.400003 L214.230547,278.259124 L218.956879,278.04819 L223.372547,277.834929 L226.842513,277.653171 L230.787832,277.427497 L233.303218,277.271011 L235.739946,277.108611 L238.109334,276.939367 L240.4227,276.762351 L242.691359,276.576632 L244.370324,276.431073 L246.607357,276.226058 L248.289978,276.063394 L249.409846,275.951102 L250.024,275.887 L250.020447,275.597321 C249.994584,269.729705 251.083321,263.719868 252.991589,257.72346 L253.199168,257.081047 C253.769447,255.342381 254.374841,253.713668 255.018901,252.133863 C255.175672,251.749322 255.328357,251.383075 255.486496,251.010909 L256.19654,249.366933 C262.404376,234.750478 274.603411,220.301071 291.39275,206.402271 C304.76434,195.332803 320.468168,185.114674 336.152973,176.697815 L346.977768,170.905972 L356.092359,166.060521 L361.860619,163.012422 L368.298495,159.630686 L372.715287,157.324825 L377.827323,154.672579 L382.746249,152.139538 L385.924576,150.51392 L389.790585,148.54954 L393.544736,146.656874 L396.230983,145.312362 L399.965651,143.45774 L402.399603,142.258837 L404.791814,141.088491 L407.144788,139.945456 L409.461029,138.828487 L411.74304,137.73634 L413.993324,136.667768 L416.214386,135.621527 L418.408728,134.596372 L420.578854,133.591057 L422.727268,132.604337 L424.856473,131.634967 L426.968973,130.681702 L429.067272,129.743296 L431.153872,128.818505 C431.500803,128.665438 431.847351,128.512887 432.193567,128.360825 L435.301992,127.004784 C435.646692,126.855426 435.991218,126.706479 436.335622,126.557918 L438.708505,125.539588 C442.763397,123.808293 446.883445,122.094722 451.176112,120.352712 L454.67459,118.941852 L457.458588,117.830941 L462.058067,116.016904 L465.670426,114.608949 L470.774251,112.640829 L476.286872,110.537331 L485.514159,107.052955 L537.753458,87.5254362 L539.436396,86.8928032 C587.143697,68.9428655 629.729079,65.9807346 644.375139,79.2150383 C660.624328,93.8979436 640.318592,124.130689 582.798429,163.589799 C529.259419,200.317818 475.785831,226.200869 418.529354,244.195355 C415.589252,245.119366 412.642915,246.022354 409.687684,246.905093 L406.729389,247.781111 C406.235813,247.925999 405.741966,248.070331 405.247834,248.214112 L402.279538,249.070203 C401.288904,249.35338 400.297036,249.634378 399.303835,249.913226 L396.320135,250.743352 C393.332239,251.567087 390.331461,252.371735 387.315141,253.15807 L384.293543,253.93833 L381.260993,254.706554 C380.754623,254.833597 380.247771,254.960147 379.740426,255.086206 L376.690341,255.836697 C375.671607,256.084917 374.650802,256.331203 373.627827,256.575583 L370.552293,257.303035 L367.463149,258.019226 C366.4311,258.256098 365.396684,258.491122 364.359803,258.724326 L361.241665,259.41851 C359.678799,259.7629 358.110165,260.103262 356.535429,260.439691 L353.377725,261.107333 C351.267035,261.54897 349.145104,261.983731 347.011146,262.411845 L343.801088,263.049058 L340.572398,263.676473 L337.324484,264.294261 C336.78153,264.396434 336.237751,264.498212 335.693134,264.599599 L332.415276,265.20327 C330.223203,265.602633 328.017329,265.995865 325.796867,266.383196 L322.455135,266.959794 L319.090928,267.527713 C317.965715,267.715591 316.836658,267.902052 315.703658,268.087123 L312.292732,268.638198 L308.85756,269.181109 L305.397551,269.716029 L301.912114,270.243129 L298.400659,270.762583 C297.225772,270.934478 296.04645,271.105128 294.862594,271.274561 L291.297329,271.779235 L287.704272,272.27678 L284.082834,272.767365 C282.870892,272.929753 281.654121,273.091009 280.432422,273.251163 L276.752447,273.728347 L273.042317,274.199089 C272.421416,274.277019 271.799234,274.354687 271.175759,274.432098 L267.419289,274.893498 L263.631187,275.348887 C262.997168,275.424293 262.361806,275.499457 261.72509,275.57438 L257.888432,276.021073 L254.018665,276.462184 L252.886339,276.588388 L251.044,276.786 L251.059049,277.244303 C251.154436,279.543109 251.43082,281.814653 251.906781,284.048513 L252.04155,284.656805 C256.181032,302.647252 272.78437,314.857147 305.581924,318.669105 C351.134352,323.963522 434.459928,318.628946 481.547685,306.623723 L482.654,306.337 L482.508567,305.953913 C480.552233,300.623361 480.077057,294.400188 481.102041,287.547375 L481.196374,286.941088 C484.149375,268.66562 497.321672,250.225367 512.782051,243.47854 C520.538278,240.093765 531.911635,238.247218 540.893209,239.272318 C551.972665,240.536857 558.645604,245.817677 558.645604,255.256743 C558.645604,272.765442 539.838388,287.915961 496.132411,303.323464 C492.73128,304.522452 488.978899,305.671925 484.927248,306.769112 L484.009,307.014 L484.159005,307.35784 C488.089607,316.10653 496.495706,322.042167 509.317064,323.823819 L509.961811,323.909434 C514.68232,324.507414 519.582432,324.727304 525.46877,324.668156 L527.099193,324.64518 L529.550063,324.588674 L533.172652,324.468292 L540.056465,324.186872 L542.008981,324.094918 L543.570281,324.011487 L544.655893,323.949072 L546.931138,323.808156 L549.340089,323.646122 L551.876757,323.463365 L554.535156,323.260282 L557.309297,323.037268 L560.930616,322.731075 L564.711732,322.39513 L568.640952,322.030205 L572.70658,321.637075 L577.748929,321.129174 L581.200288,320.769285 L585.604977,320.296171 L591.007889,319.695349 L594.671556,319.275367 L599.310057,318.729223 L604.003105,318.16028 L608.739008,317.569312 L613.506069,316.957091 L618.292595,316.32439 L621.758246,315.854699 L625.22354,315.375001 L627.531356,315.049787 C630.990834,314.558771 634.438731,314.053474 637.855169,313.535211 C638.981275,313.364384 640.10342,313.192438 641.22155,313.019373 L644.563836,312.496819 C645.118857,312.409167 645.672861,312.321234 646.225841,312.233022 L649.531367,311.700383 L652.811974,311.161015 L656.067333,310.614912 C657.688645,310.340176 659.300365,310.062913 660.902307,309.783118 L664.093101,309.220155 C664.622708,309.125766 665.151216,309.031095 665.678617,308.936142 L668.829681,308.363047 L671.953848,307.783191 L675.050786,307.196569 L678.120166,306.603176 L681.161659,306.003005 L684.174934,305.396053 C685.174619,305.192605 686.169547,304.988025 687.159661,304.782314 L690.115511,304.161781 L693.042154,303.534452 C694.012797,303.324208 694.978517,303.112831 695.93926,302.900319 L698.806499,302.259378 C699.281864,302.151987 699.755972,302.044312 700.228815,301.936353 L703.050634,301.28519 C705.389408,300.739712 707.696212,300.187129 709.970186,299.627427 L712.683141,298.952366 C713.58217,298.726206 714.475892,298.498907 715.36425,298.270466 L718.013184,297.581721 C738.636276,292.159727 756.267465,286.107235 770.193247,279.412908 C770.442127,279.293268 770.74087,279.398038 770.86051,279.646917 C770.98015,279.895796 770.875381,280.19454 770.626502,280.31418 C758.134778,286.319134 742.690092,291.805378 724.798146,296.783195 L722.225561,297.490854 C715.752749,299.251361 708.970859,300.947079 701.902927,302.578478 L699.060553,303.227609 C698.584299,303.335226 698.106788,303.442557 697.628026,303.549603 L694.7405,304.188455 C693.773024,304.400264 692.8006,304.610933 691.823281,304.820463 L688.876698,305.445633 C688.383172,305.549258 687.888436,305.652599 687.392498,305.755656 L684.402482,306.370582 C683.901758,306.472501 683.399845,306.574136 682.896749,306.675487 L679.864039,307.280185 L676.803274,307.878072 L673.714783,308.469155 C673.197742,308.567102 672.67956,308.664766 672.160243,308.762147 L669.030777,309.343036 L665.874404,309.917138 L662.691451,310.484459 L659.482246,311.045006 L656.247117,311.598785 C655.705787,311.690518 655.16339,311.781969 654.619933,311.873139 L651.346532,312.416779 C650.798864,312.506823 650.25015,312.596586 649.700396,312.686067 L646.38946,313.219584 L643.05391,313.74636 C641.380036,314.008064 639.697055,314.267242 638.00515,314.523899 C636.105373,314.81209 634.195883,315.096274 632.280089,315.376227 L628.825588,315.875522 L626.517204,316.203164 C624.207212,316.52868 621.893051,316.847778 619.58061,317.160069 L614.429141,317.845034 L608.77039,318.573315 L605.021183,319.042294 L600.371029,319.609237 L595.771793,320.154063 L591.234753,320.676025 L585.88828,321.271151 L581.527764,321.740191 L578.109572,322.097281 L573.934081,322.520339 L569.081007,322.992846 L566.724593,323.214339 L562.909539,323.56107 L559.24464,323.879126 L556.428409,324.112424 L553.721267,324.326511 L551.128988,324.521005 L548.657345,324.695526 L546.886254,324.813079 L545.188704,324.919022 L543.567132,325.013193 L541.527432,325.120164 L540.092613,325.186242 L531.905391,325.515367 L529.322928,325.595177 L528.807236,325.6085 C528.233542,325.622893 527.669207,325.635114 527.11362,325.645085 L525.472492,325.668179 C519.546774,325.727566 514.605665,325.505695 509.836139,324.901506 C496.259473,323.181654 487.35471,316.949791 483.232339,307.735039 L483.032,307.272 L481.833209,307.582155 C435.130046,319.495589 352.995934,324.852037 307.003008,319.835451 L305.466474,319.662418 C272.280784,315.805349 255.311086,303.326036 251.067015,284.881039 C250.507832,282.450797 250.182406,279.979117 250.067509,277.478251 L250.045,276.891 L247.801091,277.116168 L245.511814,277.332278 L242.619578,277.586296 L239.670457,277.824283 L237.863501,277.960217 L235.399532,278.134361 L232.214053,278.342077 L228.888492,278.540599 L226.11074,278.694149 L221.719245,278.918109 L217.82662,279.101119 L212.839208,279.319391 L190.831867,280.200759 L179.834589,280.694157 L176.323428,280.842593 L174.041785,280.932098 L170.702464,281.051774 L168.528442,281.121602 L166.393582,281.183279 L164.295663,281.236642 L162.232466,281.281532 L160.20177,281.317787 L158.201354,281.345246 L156.228997,281.363749 L154.28248,281.373135 L152.359581,281.373242 L150.45808,281.363911 C150.142823,281.36156 149.828365,281.358809 149.51466,281.355655 L147.641092,281.331864 C147.019334,281.322302 146.400217,281.3111 145.783371,281.298231 L143.939277,281.254596 L142.106587,281.200799 C141.801966,281.190977 141.497728,281.180724 141.193826,281.170039 L139.374082,281.100695 C139.071341,281.088262 138.768843,281.075388 138.466544,281.062071 L136.654748,280.97682 C136.353054,280.961715 136.051465,280.94616 135.749935,280.930152 L133.941092,280.82863 L132.131441,280.716061 L131.225619,280.655584 C93.4520441,278.076247 68.8057713,268.387916 61.8280118,248.654858 C57.2920403,235.82716 60.0228197,221.238082 68.7232164,206.234955 L68.861,206 L67.8501958,205.906583 C39.5250664,203.202143 18.3268638,193.131635 5.05668952,178.006317 L4.58612684,177.463982 C-4.65164081,166.698007 0.564345881,137.901381 19.527789,107.301419 C43.3116317,68.9231205 84.9093238,31.4694877 142.930301,0.735649349 Z M540.779812,240.265868 C531.977457,239.261223 520.780514,241.079127 513.18202,244.395069 C498.047964,250.99949 485.084499,269.147394 482.18357,287.100602 C481.07164,293.982088 481.484993,300.207653 483.411799,305.51397 L483.626,306.082 L484.632371,305.813536 C488.166643,304.856889 491.471749,303.860422 494.512867,302.825995 L495.799939,302.380351 C539.141445,287.101334 557.645604,272.194948 557.645604,255.256743 C557.645604,246.414196 551.409493,241.479072 540.779812,240.265868 Z M643.704696,79.9569997 C629.576682,67.1908067 588.011776,69.944467 541.20841,87.2984019 L487.533302,107.362975 L479.579616,110.358652 L473.148119,112.802976 L466.652369,115.300829 L463.609854,116.483834 L459.527607,118.086902 L455.046949,119.869941 L453.400565,120.531747 C449.061761,122.280657 444.911014,123.994445 440.840891,125.719254 L438.311399,126.797047 L435.940579,127.81798 L433.564565,128.851775 L430.381911,130.253437 L427.174282,131.685796 L424.74676,132.7829 L422.296333,133.901676 L418.986911,135.430352 L417.31159,136.211794 L414.769681,137.406912 L412.189688,138.631252 L409.567815,139.886704 L407.794759,140.741888 L405.094653,142.053386 L403.265927,142.947683 L399.534643,144.786707 L395.69742,146.696702 L392.744567,148.178465 L389.723268,149.704554 L386.629728,151.276858 L382.386071,153.448414 L377.99824,155.70996 L373.45724,158.06597 L368.754075,160.520921 L365.114868,162.429755 L358.825262,165.745541 L354.910758,167.818727 L348.139833,171.419621 L342.490896,174.436396 L336.625818,177.57896 C320.995829,185.966404 305.346467,196.149094 292.030431,207.172571 C275.610179,220.765828 263.625914,234.870753 257.404374,249.091186 L256.646962,250.841836 C256.400554,251.412115 256.177204,251.941574 255.944904,252.511379 C255.309251,254.070565 254.71191,255.67761 254.149362,257.392708 C252.170911,263.42461 251.026002,269.470208 251.021017,275.357591 L251.021017,275.783 L252.776828,275.594402 L253.906582,275.468486 L257.772835,275.027776 C258.414435,274.953865 259.054655,274.879722 259.693508,274.805343 L263.510314,274.356214 L267.294894,273.901256 L271.047838,273.440299 L274.769736,272.973169 C275.387498,272.89479 276.003991,272.816147 276.619228,272.737236 L280.295665,272.260527 L283.942533,271.777216 C285.153293,271.614993 286.359223,271.451641 287.560421,271.287132 L291.149922,270.790102 L294.711624,270.285956 C295.302957,270.201329 295.893157,270.116399 296.482235,270.031161 L300.003347,269.516017 L303.498137,268.993327 C304.078441,268.905573 304.657673,268.817498 305.235845,268.729098 L308.692259,268.194766 C309.266241,268.105051 309.839188,268.015003 310.411112,267.92462 L313.830478,267.378259 C314.398359,267.286518 314.965242,267.194433 315.531139,267.102002 L318.914787,266.543226 L322.275359,265.975959 C323.39177,265.785435 324.504434,265.593468 325.613448,265.400028 L328.929643,264.815262 C330.582365,264.520642 332.227099,264.222644 333.864176,263.921172 L337.128219,263.313566 C339.297574,262.905369 341.45371,262.490881 343.597415,262.069873 L346.803749,261.433442 C348.402352,261.112753 349.994185,260.788332 351.579578,260.460082 L354.741879,259.798448 L357.8876,259.126433 C358.410538,259.013556 358.932809,258.900239 359.454427,258.786479 L362.576385,258.098569 C366.728796,257.174187 370.84093,256.220974 374.919085,255.237099 L377.971429,254.493414 C378.986819,254.243584 380.000184,253.991809 381.011622,253.73806 L384.040254,252.970863 C386.055619,252.455412 388.06367,251.931953 390.065195,251.400255 L393.062686,250.5965 L396.050978,249.780215 C397.045607,249.506013 398.038802,249.229694 399.03066,248.95123 L402.002325,248.109371 C404.475535,247.40241 406.941007,246.681861 409.400279,245.947276 L412.348529,245.059007 L415.291417,244.157093 L418.229534,243.24136 C475.39213,225.276378 528.776041,199.436734 582.232738,162.765182 C639.249713,123.651261 659.195422,93.9545513 643.704696,79.9569997 Z M415.448725,52.069772 C412.896608,51.567038 410.119216,51.1895201 407.130168,50.9385455 L405.923292,50.8449078 L404.694034,50.7647869 C404.487303,50.7525608 404.279647,50.7408988 404.071071,50.7298011 L402.808602,50.6699908 L401.524233,50.6237446 C401.308358,50.6171683 401.091578,50.6111579 400.873897,50.6057139 L399.557044,50.579849 L398.218775,50.5665093 C396.645046,50.5612467 395.02799,50.5827261 393.368993,50.6321684 L391.936756,50.6813987 L390.484169,50.7443441 C390.240386,50.755979 389.995764,50.7681861 389.750305,50.7809658 L388.267558,50.8645191 L386.764945,50.9618346 L385.242661,51.0729312 L383.700899,51.1978277 L382.139853,51.3365431 L380.559716,51.4890962 C380.29478,51.5156759 380.029056,51.5428329 379.762549,51.5705677 L378.15414,51.7439128 C377.884516,51.7739601 377.614116,51.8045861 377.342946,51.8357909 L375.7067,52.0299704 L374.052138,52.238063 C373.774862,52.2739056 373.496831,52.3103287 373.218049,52.3473327 L371.536377,52.5763306 L369.836873,52.8192888 L368.119732,53.0762264 C367.832082,53.1202153 367.543706,53.1647874 367.254607,53.2099433 L365.511372,53.4878851 L363.750983,53.7798534 L361.973634,54.085867 L360.179519,54.4059449 L358.368831,54.7401058 C358.065679,54.7969739 357.761845,54.8544296 357.457332,54.9124733 L355.622149,55.2677943 C355.314939,55.3281914 355.007058,55.3891774 354.698511,55.4507524 L352.839268,55.8272759 C352.528072,55.8912091 352.216218,55.9557324 351.903709,56.0208459 C286.961867,69.5519851 203.310611,105.74369 112.195847,163.599586 C97.3509589,173.025767 82.7151384,186.856106 73.0456572,201.220272 C72.3895132,202.194984 71.7580321,203.168393 71.1515565,204.140126 L70.539,205.136 L71.0123859,205.173032 C74.7576281,205.454854 78.6245,205.61034 82.6113112,205.634298 L83.7015957,205.637567 L87.280722,205.631067 L90.8552492,205.611496 C148.007864,205.193215 203.176341,199.714348 245.891276,187.196387 L247.506586,186.717663 C247.778807,186.636106 248.052513,186.55367 248.327681,186.470361 L249.996055,185.960106 L251.698415,185.429285 L253.433647,184.878263 L255.20064,184.307405 L256.998281,183.717075 L258.825457,183.107638 L260.681056,182.479458 L262.563965,181.8329 L264.473073,181.168327 L266.407265,180.486106 L268.365431,179.786599 L270.346457,179.070172 L272.349231,178.337189 L274.372641,177.588014 L276.415573,176.823012 L278.476916,176.042548 L280.555557,175.246986 L282.650384,174.43669 L284.760283,173.612025 L286.884143,172.773355 L289.020851,171.921045 L291.169294,171.05546 L293.328361,170.176964 L295.496938,169.28592 L297.673913,168.382695 L299.858174,167.467651 L302.048607,166.541155 L304.244102,165.60357 L306.443544,164.65526 L308.645822,163.696591 L310.849823,162.727926 L313.054435,161.74963 L315.258544,160.762068 L317.46104,159.765604 C317.827926,159.598805 318.194698,159.431651 318.561334,159.264148 L320.759322,158.255015 L322.952914,157.237891 L325.140999,156.21314 L327.322462,155.181128 L329.496193,154.142219 L331.661077,153.096777 L333.816004,152.045167 C334.174267,151.869405 334.532069,151.693401 334.889386,151.517162 L337.027289,150.456983 L339.152454,149.391546 L341.263767,148.321217 L343.360115,147.24636 L345.440387,146.167339 C346.131007,145.807012 346.818763,145.446052 347.503469,145.084519 C394.772705,120.1258 425.6976,94.1573527 432.907358,68.9290338 C435.225893,60.8160371 429.07984,54.7549247 415.448725,52.069772 Z" id="Path-3-Copy" fill="#B1FDEB" fill-rule="nonzero"></path> </g> </svg> 