<?xml version="1.0" encoding="UTF-8"?> <svg xmlns="http://www.w3.org/2000/svg" width="144" height="144" viewBox="0 0 144 144" fill="none"> <path d="M102.118 41.2574L101.841 42.1589L102.743 41.8821C105.669 40.9837 108.778 40.5 112 40.5C129.397 40.5 143.5 54.603 143.5 72C143.5 89.397 129.397 103.5 112 103.5C108.778 103.5 105.669 103.016 102.743 102.118L101.841 101.841L102.118 102.743C103.016 105.669 103.5 108.778 103.5 112C103.5 129.397 89.397 143.5 72 143.5C54.603 143.5 40.5 129.397 40.5 112C40.5 108.778 40.9837 105.669 41.8821 102.743L42.1589 101.841L41.2574 102.118C38.3309 103.016 35.2224 103.5 32 103.5C14.603 103.5 0.5 89.397 0.5 72C0.5 54.603 14.603 40.5 32 40.5C35.2224 40.5 38.3309 40.9837 41.2574 41.8821L42.1589 42.1589L41.8821 41.2574C40.9837 38.3309 40.5 35.2224 40.5 32C40.5 14.603 54.603 0.5 72 0.5C89.397 0.5 103.5 14.603 103.5 32C103.5 35.2224 103.016 38.3309 102.118 41.2574Z" stroke="#FFC400"></path> </svg> 