<?xml version="1.0" encoding="UTF-8"?> <svg xmlns="http://www.w3.org/2000/svg" width="144" height="144" viewBox="0 0 144 144" fill="none"> <circle cx="72" cy="72" r="71.5" stroke="#FFC400"></circle> <path fill-rule="evenodd" clip-rule="evenodd" d="M71.5419 88.9697C67.3816 86.4093 63.5113 83.3958 60.0003 79.9832C57.5319 77.5256 55.6527 74.5296 54.5067 71.2245C52.4445 64.8131 54.8533 57.4733 61.5946 55.3011C65.1375 54.1605 69.007 54.8124 71.9925 57.0528C74.9791 54.8151 78.8472 54.1635 82.3903 55.3011C89.1316 57.4733 91.5578 64.8131 89.4955 71.2245C88.3495 74.5296 86.4704 77.5256 84.002 79.9832C80.491 83.3958 76.6207 86.4093 72.4604 88.9697L72.0098 89.25L71.5419 88.9697Z" stroke="black" stroke-linecap="round" stroke-linejoin="round"></path> <path d="M79.167 62.5181C81.2088 63.1703 82.6596 65.0034 82.8409 67.1602" stroke="black" stroke-linecap="round" stroke-linejoin="round"></path> </svg> 