<?xml version="1.0" encoding="UTF-8"?> <svg xmlns="http://www.w3.org/2000/svg" width="144" height="144" viewBox="0 0 144 144" fill="none"> <mask id="path-1-inside-1_1_4738" fill="white"> <path fill-rule="evenodd" clip-rule="evenodd" d="M72 0C56.536 0 44 12.536 44 28V44H28C12.536 44 0 56.536 0 72C0 87.464 12.536 100 28 100H44V116C44 131.464 56.536 144 72 144C87.464 144 100 131.464 100 116V100H116C131.464 100 144 87.464 144 72C144 56.536 131.464 44 116 44H100V28C100 12.536 87.464 0 72 0Z"></path> </mask> <path d="M44 44V45H45V44H44ZM44 100H45V99H44V100ZM100 100V99H99V100H100ZM116 44V45V44ZM100 44H99V45H100V44ZM45 28C45 13.0883 57.0883 1 72 1V-1C55.9837 -1 43 11.9837 43 28H45ZM45 44V28H43V44H45ZM28 45H44V43H28V45ZM1 72C1 57.0883 13.0883 45 28 45V43C11.9837 43 -1 55.9837 -1 72H1ZM28 99C13.0883 99 1 86.9117 1 72H-1C-1 88.0163 11.9837 101 28 101V99ZM44 99H28V101H44V99ZM45 116V100H43V116H45ZM72 143C57.0883 143 45 130.912 45 116H43C43 132.016 55.9837 145 72 145V143ZM99 116C99 130.912 86.9117 143 72 143V145C88.0163 145 101 132.016 101 116H99ZM99 100V116H101V100H99ZM116 99H100V101H116V99ZM143 72C143 86.9117 130.912 99 116 99V101C132.016 101 145 88.0163 145 72H143ZM116 45C130.912 45 143 57.0883 143 72H145C145 55.9837 132.016 43 116 43V45ZM100 45H116V43H100V45ZM99 28V44H101V28H99ZM72 1C86.9117 1 99 13.0883 99 28H101C101 11.9837 88.0163 -1 72 -1V1Z" fill="#FFC400" mask="url(#path-1-inside-1_1_4738)"></path> <path d="M49.0382 86.0817C42.8532 86.0817 37.84 81.131 37.84 75.0217C37.84 68.9118 42.8531 63.96 49.0382 63.96H98.3191C92.1328 63.96 87.1173 68.9118 87.1173 75.0217C87.1179 81.131 92.1335 86.0817 98.32 86.0817H49.0382Z" stroke="black" stroke-miterlimit="10" stroke-linecap="round" stroke-linejoin="round"></path> <path d="M98.3191 79.4443C102.647 79.4443 106.16 75.9789 106.16 71.7011C106.16 67.4252 102.647 63.9585 98.3191 63.9585C102.647 63.9585 106.16 67.4245 106.16 71.7011C106.16 75.9789 102.647 79.4443 98.3191 79.4443Z" stroke="black" stroke-miterlimit="10" stroke-linecap="round" stroke-linejoin="round"></path> <path d="M71.9982 63.959C65.8157 63.959 60.7991 68.9108 60.7991 75.0207C60.7997 81.1306 65.816 86.0816 71.9982 86.0816C65.8157 86.0816 60.7991 81.131 60.7991 75.0216C60.7997 68.9117 65.816 63.959 71.9982 63.959V63.959Z" stroke="black" stroke-miterlimit="10" stroke-linecap="round" stroke-linejoin="round"></path> <path d="M71.9983 57.3207C71.9983 53.6547 68.9889 50.6837 65.2783 50.6855C61.5676 50.6855 58.562 53.6565 58.562 57.3207C58.562 60.9861 61.5683 63.9578 65.2783 63.9578H71.9983V57.3207Z" stroke="black" stroke-miterlimit="10" stroke-linecap="round" stroke-linejoin="round"></path> <path d="M78.7183 63.9577C82.432 63.9577 85.4383 60.986 85.4383 57.3206C85.4383 53.6546 82.4289 50.6836 78.7183 50.6836C75.0071 50.6836 71.9983 53.6546 71.9983 57.3206V63.9577H78.7183Z" stroke="black" stroke-miterlimit="10" stroke-linecap="round" stroke-linejoin="round"></path> </svg> 