<svg width="60" height="60" viewBox="0 0 60 60" fill="none" xmlns="http://www.w3.org/2000/svg">
<g clip-path="url(#clip0_895_1013)">
<path d="M45.9375 15.9369C41.9836 15.9369 38.4117 17.5681 35.857 20.1943L32.4516 23.6947L36.1336 27.4787L39.6398 23.874C41.2371 22.2322 43.4707 21.2103 45.9375 21.2103C50.7832 21.2103 54.7266 25.1537 54.7266 30.0006C54.7266 34.8463 50.7832 38.7896 45.9375 38.7896C43.4707 38.7896 41.2371 37.7678 39.6398 36.1248C34.4742 30.8147 29.3086 25.5045 24.143 20.1943C21.5883 17.5681 18.0164 15.9369 14.0625 15.9369C6.29648 15.9369 0 22.2334 0 30.0006C0 37.7666 6.29648 44.0631 14.0625 44.0631C18.0164 44.0631 21.5883 42.4318 24.143 39.8056L27.5484 36.3052L23.8664 32.5213L20.3602 36.1248C18.7629 37.7678 16.5293 38.7896 14.0625 38.7896C9.2168 38.7896 5.27344 34.8463 5.27344 30.0006C5.27344 25.1537 9.2168 21.2103 14.0625 21.2103C16.5293 21.2103 18.7629 22.2322 20.3602 23.874L35.857 39.8056C38.4117 42.4318 41.9836 44.0631 45.9375 44.0631C53.7035 44.0631 60 37.7666 60 30.0006C60 22.2334 53.7035 15.9369 45.9375 15.9369Z" fill="#E7AD68"/>
</g>
<defs>
<clipPath id="clip0_895_1013">
<rect width="60" height="60" fill="white"/>
</clipPath>
</defs>
</svg>
