<svg width="104" height="120" viewBox="0 0 104 120" fill="none" xmlns="http://www.w3.org/2000/svg">
<path d="M0.5 30.2888L52 0.577244L103.5 30.2888V89.7112L52 119.423L0.5 89.7112V30.2888Z" stroke="white"/>
<g clip-path="url(#clip0_895_1263)">
<path d="M64.6463 75.9523L64.0973 75.2638C68.5787 73.1982 72.5046 69.9567 75.4023 65.7855C75.5909 65.5141 75.5908 65.154 75.4022 64.8827C73.9882 62.8484 72.3086 61.0068 70.4103 59.4093C70.0762 59.128 69.5771 59.1709 69.2958 59.5051C69.0146 59.8394 69.0575 60.3383 69.3917 60.6197C71.0419 62.0085 72.517 63.5928 73.7824 65.3344C70.3875 70.0105 65.5998 73.3906 60.2076 75.0656C63.0519 72.773 64.8751 69.2623 64.8751 65.3331C64.8751 61.4019 63.0499 57.8896 60.2031 55.597C62.6006 56.3387 64.8903 57.423 67.008 58.8327C67.3718 59.0747 67.8627 58.9762 68.1048 58.6126C68.3468 58.2489 68.2482 57.7578 67.8847 57.5158C64.0848 54.9864 59.7639 53.4433 55.2492 52.9832L55.1723 51.8273C55.1434 51.3913 54.7632 51.0622 54.3306 51.0906C53.8947 51.1196 53.5648 51.4966 53.5939 51.9324L53.656 52.8662C53.2314 52.8471 52.8056 52.8364 52.3785 52.8364C52.3785 52.8364 52.3785 52.8364 52.3783 52.8364C52.3782 52.8364 52.3782 52.8364 52.3781 52.8364C47.4228 52.8364 42.633 54.1513 38.4491 56.549L32.6396 51.2932C32.316 51.0004 31.8155 51.0251 31.5223 51.3491C31.2292 51.6731 31.2542 52.1733 31.5782 52.4665L37.0431 57.4103C34.0648 59.3577 31.4428 61.8788 29.3546 64.8828C29.166 65.1542 29.1659 65.5141 29.3545 65.7856C34.5966 73.3319 43.2038 77.8372 52.3783 77.8372C55.9195 77.8372 59.3758 77.1655 62.5869 75.9073L63.4093 76.9387C63.5655 77.1346 63.7959 77.2367 64.0283 77.2367C64.2012 77.2367 64.3753 77.1802 64.521 77.064C64.8625 76.7916 64.9186 76.2939 64.6463 75.9523ZM30.9744 65.3344C34.3676 60.6639 39.1507 57.2869 44.5373 55.6113C42.1067 57.5717 40.4117 60.4279 39.986 63.7121C39.9299 64.1452 40.2354 64.542 40.6688 64.5982C41.1016 64.6536 41.4988 64.3487 41.5548 63.9154C42.2565 58.5013 46.9096 54.4185 52.3779 54.4184H52.3781C58.3965 54.4184 63.2929 59.3148 63.2929 65.3331C63.2929 71.3515 58.3965 76.2479 52.3781 76.2479C46.9242 76.2479 42.2729 72.1772 41.5588 66.7792C41.5016 66.3461 41.1027 66.0413 40.6709 66.0987C40.2378 66.156 39.9331 66.5536 39.9904 66.9867C40.424 70.2638 42.1246 73.1135 44.5571 75.0681C39.1617 73.394 34.3711 70.0128 30.9744 65.3344Z" fill="white"/>
<path d="M50.6837 49.275H50.9356C51.2959 49.275 51.589 49.5681 51.589 49.9284V50.1794C51.589 50.6162 51.943 50.9704 52.38 50.9704C52.8169 50.9704 53.171 50.6162 53.171 50.1794V49.9284C53.171 49.5681 53.464 49.275 53.8243 49.275H54.073C54.5099 49.275 54.864 48.9208 54.864 48.484C54.864 48.0471 54.5099 47.693 54.073 47.693H53.8243C53.464 47.693 53.171 47.3999 53.171 47.0397V46.79C53.171 46.3532 52.8169 45.999 52.38 45.999C51.943 45.999 51.589 46.3532 51.589 46.79V47.0397C51.589 47.4 51.2959 47.693 50.9356 47.693H50.6837C50.2468 47.693 49.8927 48.0471 49.8927 48.484C49.8927 48.9208 50.2468 49.275 50.6837 49.275Z" fill="white"/>
<path d="M37.2831 38.6018H37.5349C37.8952 38.6018 38.1882 38.8949 38.1882 39.255V39.506C38.1882 39.9429 38.5423 40.2971 38.9792 40.2971C39.4162 40.2971 39.7702 39.9429 39.7702 39.506V39.255C39.7702 38.8947 40.0633 38.6018 40.4236 38.6018H40.6723C41.1093 38.6018 41.4633 38.2476 41.4633 37.8107C41.4633 37.3739 41.1093 37.0197 40.6723 37.0197H40.4236C40.0633 37.0197 39.7702 36.7266 39.7702 36.3663V36.1167C39.7702 35.6798 39.4162 35.3257 38.9792 35.3257C38.5423 35.3257 38.1882 35.6798 38.1882 36.1167V36.3663C38.1882 36.7266 37.8952 37.0197 37.5349 37.0197H37.2831C36.8461 37.0197 36.4921 37.3739 36.4921 37.8107C36.4921 38.2476 36.8461 38.6018 37.2831 38.6018Z" fill="white"/>
<path d="M29.9478 52.1334V51.6353C29.9478 50.4912 30.8785 49.5604 32.0227 49.5604H32.5163C32.9533 49.5604 33.3074 49.2062 33.3074 48.7694C33.3074 48.3325 32.9533 47.9784 32.5163 47.9784H32.0227C30.8785 47.9784 29.9478 47.0476 29.9478 45.9035V45.4082C29.9478 44.9714 29.5937 44.6172 29.1567 44.6172C28.7198 44.6172 28.3657 44.9714 28.3657 45.4082V45.9035C28.3657 47.0476 27.435 47.9784 26.2908 47.9784H25.791C25.3541 47.9784 25 48.3325 25 48.7694C25 49.2062 25.3541 49.5604 25.791 49.5604H26.2908C27.435 49.5604 28.3657 50.4912 28.3657 51.6353V52.1334C28.3657 52.5703 28.7198 52.9244 29.1567 52.9244C29.5937 52.9244 29.9478 52.5703 29.9478 52.1334ZM28.5583 48.7694C28.7801 48.5936 28.9809 48.3927 29.1567 48.171C29.3326 48.3928 29.5335 48.5936 29.7552 48.7694C29.5334 48.9452 29.3326 49.1461 29.1567 49.3678C28.9809 49.1461 28.7801 48.9452 28.5583 48.7694Z" fill="white"/>
<path d="M78.2089 81.3967H77.9602C77.6 81.3967 77.307 81.1036 77.307 80.7433V80.4937C77.307 80.0568 76.9529 79.7026 76.516 79.7026C76.079 79.7026 75.7249 80.0568 75.7249 80.4937V80.7433C75.7249 81.1036 75.4318 81.3967 75.0716 81.3967H74.8197C74.3827 81.3967 74.0287 81.7508 74.0287 82.1877C74.0287 82.6245 74.3827 82.9787 74.8197 82.9787H75.0716C75.4318 82.9787 75.7249 83.2718 75.7249 83.632V83.883C75.7249 84.3198 76.079 84.674 76.516 84.674C76.9529 84.674 77.307 84.3198 77.307 83.883V83.632C77.307 83.2717 77.6 82.9787 77.9602 82.9787H78.2089C78.6459 82.9787 79 82.6245 79 82.1877C79 81.7508 78.6459 81.3967 78.2089 81.3967Z" fill="white"/>
<path d="M68.6763 78.191H68.4277C68.0674 78.191 67.7744 77.8979 67.7744 77.5377V77.2881C67.7744 76.8512 67.4203 76.4971 66.9834 76.4971C66.5464 76.4971 66.1923 76.8512 66.1923 77.2881V77.5377C66.1923 77.898 65.8994 78.191 65.5391 78.191H65.2871C64.8502 78.191 64.4961 78.5452 64.4961 78.982C64.4961 79.4189 64.8502 79.773 65.2871 79.773H65.5391C65.8994 79.773 66.1923 80.0661 66.1923 80.4264V80.6774C66.1923 81.1143 66.5464 81.4684 66.9834 81.4684C67.4203 81.4684 67.7744 81.1143 67.7744 80.6774V80.4264C67.7744 80.0661 68.0674 79.773 68.4277 79.773H68.6763C69.1133 79.773 69.4674 79.4189 69.4674 78.982C69.4674 78.5452 69.1133 78.191 68.6763 78.191Z" fill="white"/>
<path d="M73.3155 79.2776L71.6588 78.7732C71.2408 78.6461 70.7989 78.8816 70.6717 79.2996C70.5445 79.7175 70.7801 80.1595 71.198 80.2867L72.8547 80.791C72.9316 80.8145 73.0091 80.8255 73.0854 80.8255C73.4244 80.8255 73.7381 80.6058 73.8419 80.2647C73.969 79.8468 73.7332 79.4048 73.3155 79.2776Z" fill="white"/>
<path d="M41.0605 40.0795C40.8118 40.4386 40.9012 40.9315 41.2604 41.1802L48.7218 46.348C48.8592 46.4432 49.0162 46.4888 49.1715 46.4888C49.4223 46.4888 49.6689 46.3699 49.8226 46.1482C50.0713 45.789 49.9819 45.2962 49.6226 45.0475L42.1612 39.8796C41.802 39.6307 41.3094 39.7205 41.0605 40.0795Z" fill="white"/>
<path d="M67.6605 64.6958H67.6488C67.2118 64.6958 66.8578 65.05 66.8578 65.4868C66.8578 65.9237 67.2118 66.2778 67.6488 66.2778H67.6605C68.0975 66.2778 68.4515 65.9237 68.4515 65.4868C68.4515 65.05 68.0975 64.6958 67.6605 64.6958Z" fill="white"/>
<path d="M70.2908 66.2778C70.7277 66.2778 71.0818 65.9237 71.0818 65.4868C71.0818 65.05 70.7277 64.6958 70.2908 64.6958H70.2792C69.8422 64.6958 69.4882 65.05 69.4882 65.4868C69.4882 65.9237 69.8422 66.2778 70.2792 66.2778H70.2908Z" fill="white"/>
<path d="M34.4775 64.6958H34.4658C34.0289 64.6958 33.6748 65.05 33.6748 65.4868C33.6748 65.9237 34.0289 66.2778 34.4658 66.2778H34.4775C34.9145 66.2778 35.2685 65.9237 35.2685 65.4868C35.2685 65.05 34.9145 64.6958 34.4775 64.6958Z" fill="white"/>
<path d="M37.1078 64.6958H37.0962C36.6592 64.6958 36.3052 65.05 36.3052 65.4868C36.3052 65.9237 36.6592 66.2778 37.0962 66.2778H37.1078C37.5447 66.2778 37.8988 65.9237 37.8988 65.4868C37.8988 65.05 37.5446 64.6958 37.1078 64.6958Z" fill="white"/>
<path d="M49.7423 63.0986C49.3054 63.0986 48.9513 63.4528 48.9513 63.8896V64.0867C48.9513 64.2792 48.7947 64.436 48.602 64.436H48.4032C47.9662 64.436 47.6122 64.7901 47.6122 65.227C47.6122 65.6638 47.9662 66.018 48.4032 66.018H48.602C48.7946 66.018 48.9513 66.1746 48.9513 66.3672V66.5654C48.9513 67.0022 49.3054 67.3564 49.7423 67.3564C50.1793 67.3564 50.5333 67.0022 50.5333 66.5654V66.3672C50.5333 66.1746 50.69 66.018 50.8827 66.018H51.0789C51.5159 66.018 51.87 65.6638 51.87 65.227C51.87 64.7901 51.5159 64.436 51.0789 64.436H50.8827C50.6901 64.436 50.5333 64.2794 50.5333 64.0867V63.8896C50.5333 63.4528 50.1792 63.0986 49.7423 63.0986Z" fill="white"/>
<path d="M47.0653 61.0131H47.2642C47.4568 61.0131 47.6135 61.1697 47.6135 61.3624V61.5606C47.6135 61.9975 47.9676 62.3516 48.4045 62.3516C48.8415 62.3516 49.1956 61.9975 49.1956 61.5606V61.3624C49.1956 61.1699 49.3522 61.0131 49.5448 61.0131H49.7412C50.1781 61.0131 50.5322 60.659 50.5322 60.2221C50.5322 59.7853 50.1781 59.4311 49.7412 59.4311H49.5448C49.3523 59.4311 49.1956 59.2745 49.1956 59.0818V58.8848C49.1956 58.4479 48.8415 58.0938 48.4045 58.0938C47.9676 58.0938 47.6135 58.4479 47.6135 58.8848V59.0818C47.6135 59.2744 47.4569 59.4311 47.2642 59.4311H47.0653C46.6284 59.4311 46.2743 59.7853 46.2743 60.2221C46.2743 60.659 46.6284 61.0131 47.0653 61.0131Z" fill="white"/>
<path d="M48.3374 69.3654C48.095 69.3654 47.8602 69.3517 47.6395 69.3245C47.3154 69.2845 47.0023 69.4467 46.8475 69.7325C46.6925 70.0185 46.7282 70.3701 46.9376 70.6189C48.3911 72.3465 50.5192 73.3373 52.7759 73.3373C54.4019 73.3373 55.9549 72.8312 57.267 71.8739C57.6199 71.6164 57.6972 71.1216 57.4397 70.7687C57.1822 70.4158 56.6874 70.3383 56.3345 70.5959C55.2951 71.3543 54.0646 71.7552 52.776 71.7552C51.6329 71.7552 50.5315 71.4345 49.5845 70.8456C53.1994 70.2486 55.9652 67.1011 55.9652 63.3196C55.9652 62.2426 55.7365 61.1843 55.3045 60.2141C57.3973 61.1749 58.8218 63.29 58.8218 65.7093C58.8218 66.6946 58.5786 67.6734 58.1185 68.5398C57.9137 68.9256 58.0603 69.4045 58.4461 69.6095C58.832 69.8143 59.3107 69.6676 59.5158 69.2819C60.0968 68.1878 60.4038 66.9525 60.4038 65.7094C60.4038 61.8335 57.505 58.5765 53.6609 58.1336C53.3388 58.0966 53.0267 58.2597 52.8735 58.5453C52.7201 58.8309 52.7565 59.1811 52.9653 59.429C53.8795 60.5145 54.383 61.8962 54.383 63.3197C54.3832 66.6533 51.6711 69.3654 48.3374 69.3654Z" fill="white"/>
</g>
<defs>
<clipPath id="clip0_895_1263">
<rect width="54" height="54" fill="white" transform="translate(25 33)"/>
</clipPath>
</defs>
</svg>
