<svg width="163" height="150" viewBox="0 0 163 150" fill="none" xmlns="http://www.w3.org/2000/svg">
<g clip-path="url(#clip0_1260_155)">
<path d="M134.073 52.6514C133.179 52.6252 132.433 53.3285 132.406 54.223C132.38 55.1172 133.083 55.8634 133.978 55.8898C140.63 56.0855 146.199 56.8742 150.082 58.1702C152.589 59.007 155.679 60.4836 156.157 62.7652C156.923 66.419 151.099 71.7423 140.58 77.0054C138.569 78.0112 136.423 78.9984 134.161 79.9627C135.561 65.1541 128.918 50.065 115.626 41.3784C96.5351 28.9029 70.8542 34.2847 58.3788 53.3751C49.6921 66.6677 49.6658 83.1544 56.8943 96.1546C54.4358 96.1796 52.0733 96.1374 49.8279 96.0233C38.0802 95.4265 30.6096 92.889 29.8438 89.2352C29.3658 86.9541 31.6015 84.3619 33.5611 82.589C36.5961 79.8434 41.3783 76.886 47.3909 74.0358C48.1997 73.6526 48.5439 72.6867 48.161 71.8783C47.778 71.0699 46.8118 70.7253 46.0035 71.1082C28.51 79.4006 25.8359 85.904 26.6732 89.8996C28.107 96.7426 39.9668 98.7659 49.6633 99.2585C52.5598 99.4056 55.6414 99.4381 58.8733 99.3607C61.844 103.713 65.6968 107.565 70.3751 110.622C89.4655 123.097 115.147 117.716 127.622 98.6252C130.679 93.9469 132.662 88.8724 133.635 83.6938C136.626 82.4673 139.435 81.2001 142.029 79.9025C148.127 76.8515 154.899 72.6815 157.894 68.098C159.163 66.1554 159.755 64.1378 159.328 62.1009C158.49 58.1044 153.429 53.2211 134.073 52.6514ZM124.91 96.8531C113.412 114.448 89.7429 119.408 72.1476 107.91C68.4507 105.494 65.3138 102.539 62.768 99.2178C73.1603 98.7076 84.8769 97.1429 96.9031 94.623C108.93 92.1027 120.288 88.8315 130.011 85.1264C129.013 89.1905 127.326 93.1562 124.91 96.8531ZM96.2385 91.4523C83.5822 94.1045 71.2972 95.6821 60.597 96.0683C53.0717 83.8757 52.7479 67.9134 61.0905 55.1472C72.5888 37.5522 96.2581 32.5919 113.853 44.0903C126.619 52.4329 132.731 67.1821 130.735 81.3701C120.78 85.3125 108.895 88.7998 96.2385 91.4523Z" fill="white"/>
</g>
<path d="M30.4243 24.5755C31.9826 26.1331 34.138 26.9998 36.9623 27.4999C34.1376 28 31.9821 28.8667 30.4241 30.4247L30.424 30.4248C28.8669 31.9824 28.0002 34.1367 27.5001 36.9593C26.9999 34.1364 26.1332 31.9819 24.5759 30.4247L24.5758 30.4245C23.0174 28.8669 20.8619 28.0001 18.0375 27.5001C20.8622 27 23.018 26.1332 24.5759 24.5753L24.576 24.5752C26.1331 23.0175 26.9998 20.8632 27.5 18.0407C28.0001 20.8636 28.8669 23.0181 30.4241 24.5753L30.4243 24.5755Z" fill="white" stroke="white" stroke-width="2"/>
<path d="M146.406 14.5942C147.047 15.2352 147.838 15.6829 148.775 15.9999C147.838 16.317 147.047 16.7647 146.406 17.4059L146.405 17.4061C145.765 18.0471 145.317 18.8382 145 19.7741C144.683 18.838 144.235 18.0469 143.594 17.4059L143.594 17.4058C142.953 16.7648 142.162 16.3171 141.225 16.0001C142.162 15.683 142.953 15.2353 143.594 14.5941L143.595 14.5939C144.235 13.9529 144.683 13.1618 145 12.2259C145.317 13.162 145.765 13.9531 146.406 14.5941L146.406 14.5942Z" fill="white" stroke="white" stroke-width="2"/>
<path d="M37.4058 132.594C38.047 133.235 38.8385 133.683 39.7748 134C38.8383 134.317 38.0468 134.765 37.4056 135.406L37.4055 135.406C36.7647 136.047 36.3171 136.838 36.0001 137.774C35.683 136.838 35.2354 136.047 34.5944 135.406L34.5943 135.406C33.953 134.765 33.1615 134.317 32.2251 134C33.1617 133.683 33.9532 133.235 34.5944 132.594L34.5945 132.594C35.2354 131.953 35.6829 131.162 35.9999 130.226C36.317 131.162 36.7646 131.953 37.4056 132.594L37.4058 132.594Z" fill="white" stroke="white" stroke-width="2"/>
<defs>
<clipPath id="clip0_1260_155">
<rect width="100" height="100" fill="white" transform="translate(23.793 90.5029) rotate(-56.8356)"/>
</clipPath>
</defs>
</svg>
