<svg width="26" height="26" viewBox="0 0 26 26" fill="none" xmlns="http://www.w3.org/2000/svg">
<path d="M2.07104 10.3333C1.51155 11.1909 1 12.0835 1 13C1 14.6552 2.66845 16.2321 3.27455 17.6667C3.84769 19.0232 3.32981 20.2524 4.33333 21.3C5.45645 22.4724 6.81513 22.084 8.33333 22.7255C9.76785 23.3316 11.3448 25 13 25C14.6552 25 16.2321 23.3316 17.6667 22.7255C19.1849 22.084 20.5436 22.4724 21.6667 21.3C22.6701 20.2524 22.1523 19.0232 22.7255 17.6667C23.3316 16.2321 25 14.6552 25 13C25 11.3448 23.3316 9.76785 22.7255 8.33333C22.1523 6.9768 22.6701 5.74761 21.6667 4.70004C20.5436 3.52761 19.1849 3.916 17.6667 3.27455C16.2321 2.66845 14.6552 1 13 1C11.3448 1 9.76785 2.66845 8.33333 3.27455C6.81513 3.916 5.45645 3.52761 4.33333 4.70004C3.71332 5.34727 3.67407 6.06383 3.59944 6.83689" stroke="white" stroke-linecap="round" stroke-linejoin="round"/>
<path d="M8.63672 13.7731L11.364 17.6367L17.364 9.13672" stroke="white" stroke-linecap="round"/>
</svg>
