<?xml version="1.0" encoding="UTF-8"?> <svg xmlns="http://www.w3.org/2000/svg" width="143" height="176" viewBox="0 0 143 176" fill="none"> <path d="M113.662 96.2066C113.498 94.7286 112.514 93.5791 111.038 93.0864C110.874 93.0864 110.71 92.9222 110.546 92.9222C109.398 92.5938 108.414 92.2653 107.266 91.7727C107.266 91.7727 107.102 91.7727 106.938 91.7727C106.446 91.6084 105.954 91.4442 105.626 91.28C101.362 89.4736 88.8991 90.1304 86.4392 90.2947C86.2752 90.2947 73.8119 90.9516 59.8727 87.6671C54.625 86.5176 49.3773 84.7112 44.4576 82.4121C43.9656 82.0837 38.5539 78.9635 34.1261 81.7552C32.3223 82.9048 31.0103 84.8754 30.3544 87.3387C29.0424 93.0864 32.9782 100.148 39.0459 103.761C36.914 106.717 34.4541 109.673 31.8303 112.136C23.4667 120.347 13.1353 126.095 1 129.379L1.32798 130.364C13.4633 127.244 24.2867 121.168 32.6502 112.957C35.2741 110.33 37.7339 107.374 40.0298 104.418C41.0138 104.91 41.9977 105.403 42.9817 105.731C44.7856 106.224 46.5895 106.552 48.5573 106.388C50.6892 111.151 53.4771 115.42 56.9209 119.033C65.6124 128.558 75.4518 131.842 82.0115 133.977C82.5034 134.141 82.9954 134.306 83.3234 134.47C81.6835 137.097 80.0436 139.725 78.2397 142.352C74.9599 147.115 71.3521 151.713 67.4163 156.147L68.0723 156.804C70.2041 154.505 72.172 152.041 73.9759 149.742C78.5677 153.355 82.9954 157.297 87.0952 161.73C91.031 166 94.6388 170.434 97.9186 175.197L98.7385 174.704C95.4587 169.941 91.8509 165.343 87.9151 161.074C83.8154 156.804 79.3876 152.698 74.7959 149.086C76.2718 147.115 77.7477 145.144 79.2236 143.174C81.0275 140.546 82.8314 137.754 84.4713 135.127C89.719 136.933 93.4908 138.083 96.6067 138.083C98.4106 138.083 100.05 137.59 101.526 136.769C103.822 135.291 104.314 133.32 105.134 130.036C105.954 127.08 106.938 122.482 110.054 115.585C110.218 115.256 110.382 114.928 110.546 114.599C111.858 111.643 113.17 108.852 113.662 104.582C113.99 101.297 113.99 98.8341 113.662 96.2066ZM112.678 103.761C112.186 107.866 110.874 110.494 109.562 113.45C109.398 113.778 109.234 114.107 109.07 114.435C105.954 121.497 104.806 126.095 103.986 129.051C103.166 132.335 102.838 133.977 100.706 135.291C96.9346 137.754 92.0149 136.112 82.1755 132.828C75.7798 130.693 65.9404 127.408 57.5768 118.048C54.133 114.271 51.3452 110.001 49.2133 105.239C49.2133 105.074 48.8853 104.91 48.7213 104.91C46.7534 105.074 44.9495 104.746 43.1456 104.253C39.5378 103.104 36.258 100.641 33.7982 97.1919C31.5023 93.9075 30.5183 90.1305 31.1743 87.1745C31.6663 85.0396 32.8142 83.2332 34.4541 82.2479C38.5539 79.7846 43.8016 82.9048 43.8016 82.9048C48.7213 85.2038 53.969 87.0103 59.3807 88.1598C73.4839 91.4442 86.1112 90.7873 86.2752 90.7873C92.9989 90.4589 101.854 90.4589 104.97 91.7727C105.462 91.9369 105.954 92.1011 106.446 92.4295C107.266 93.7433 107.922 95.0571 107.922 96.535C107.922 97.8488 107.266 99.6552 105.954 100.148C104.806 100.641 103.494 100.148 102.346 99.8194C101.034 99.3268 99.5585 98.8341 98.0826 99.3268C97.4266 99.491 96.7706 99.9837 96.2787 100.312C95.9507 100.476 95.6227 100.641 95.2947 100.805C94.4748 101.133 93.4908 101.297 92.9989 100.805C92.6709 100.476 92.6709 99.9837 92.8349 99.3268C92.9989 98.8341 93.4908 98.1772 93.8188 97.6846C93.9828 97.5204 93.9828 97.1919 93.6548 97.0277C93.4908 96.8635 93.1628 96.8635 92.9989 97.1919C92.5069 97.6846 92.1789 98.3415 91.8509 98.9983C91.5229 99.8194 91.6869 100.805 92.1789 101.462C92.6709 101.954 93.1628 102.119 93.8188 102.119C94.4748 102.119 94.9667 101.954 95.4587 101.626C95.7867 101.462 96.1147 101.297 96.4427 100.969C96.9346 100.641 97.4266 100.312 97.9186 100.148C99.0665 99.8194 100.378 100.312 101.69 100.641C103.166 101.133 104.642 101.626 106.118 100.969C108.086 100.312 108.906 98.1772 108.742 96.3708C108.742 95.0571 108.25 93.9075 107.594 92.758C108.25 93.0864 109.07 93.2506 109.726 93.4149C109.89 93.4149 110.054 93.5791 110.218 93.5791C111.202 93.9075 112.022 94.7286 112.186 95.8782C113.006 98.8341 113.006 101.297 112.678 103.761Z" fill="#404040" stroke="#404040" stroke-width="0.5"></path> <path d="M105.954 111.479C104.478 109.18 101.034 109.508 100.051 109.673C97.2627 109.837 96.2788 111.315 92.8349 112.629C91.195 113.286 88.8992 113.942 86.1113 113.942C86.6033 114.928 87.7512 116.734 89.5551 118.376C94.3109 122.482 102.182 124.453 104.806 121.497C105.298 121.004 105.954 119.69 105.626 116.898C105.626 116.734 107.43 113.778 105.954 111.479Z" fill="#404040" stroke="#404040" stroke-width="0.5"></path> <path d="M48.5574 19.8442C41.1778 20.5011 35.2742 26.5773 35.2742 34.2956C35.2742 42.3424 41.6698 48.747 49.7054 48.747C53.1492 48.747 56.265 47.5974 58.7249 45.4626C58.3969 45.4626 57.9049 45.4626 57.5769 45.4626C49.5414 45.4626 43.1457 39.058 43.1457 31.0112C43.3097 26.5773 45.2776 22.4718 48.5574 19.8442Z" fill="#F1A17C" stroke="#F1A17C" stroke-width="0.5"></path> <path d="M94.1468 56.1369C87.9151 56.1369 82.8314 61.2277 82.8314 67.4681C82.8314 73.7085 87.9151 78.7993 94.1468 78.7993C100.378 78.7993 105.462 73.7085 105.462 67.4681C105.626 61.2277 100.542 56.1369 94.1468 56.1369ZM94.1468 56.6296C97.2626 56.6296 100.05 57.9433 102.018 60.0782C101.854 60.0782 101.526 60.0782 101.362 60.0782C101.034 60.0782 100.706 60.0782 100.214 60.2424C99.8865 60.2424 99.5585 60.2424 99.2305 60.4066C98.7385 60.4066 97.9186 60.4066 97.5906 59.914C97.4266 59.7497 97.2626 59.4213 97.0986 59.2571C96.9346 58.9286 96.7706 58.7644 96.6066 58.436C96.1147 57.9433 95.4587 57.6149 94.4748 57.6149C94.3108 57.6149 93.9828 57.6149 93.8188 57.6149C93.3268 57.6149 92.8349 57.6149 92.3429 57.6149C92.0149 57.4507 91.6869 57.2864 91.3589 57.1222C92.3429 56.7938 93.3268 56.6296 94.1468 56.6296ZM90.867 57.1222C91.3589 57.4507 91.8509 57.7791 92.3429 57.9433C92.8349 58.1075 93.4908 58.1075 93.9828 58.1075C94.1468 58.1075 94.4748 58.1075 94.6388 58.1075C95.4587 58.1075 96.1147 58.2718 96.4427 58.7644C96.6066 58.9286 96.7706 59.0929 96.9346 59.4213C97.0986 59.7497 97.2626 59.914 97.4266 60.2424C98.0826 60.8993 98.9025 60.8993 99.5585 60.8993C99.8865 60.8993 100.214 60.8993 100.542 60.7351C100.87 60.7351 101.198 60.5708 101.526 60.5708C101.854 60.5708 102.346 60.5708 102.674 60.7351C103.494 61.8846 104.314 63.0342 104.642 64.5121C104.642 64.3479 104.478 64.3479 104.478 64.1837C103.494 63.0342 101.854 62.3773 100.214 62.3773C99.8865 62.3773 99.3945 62.3773 99.0665 62.5415C98.7385 62.5415 98.4105 62.5415 98.0826 62.7057C97.2626 62.7057 96.6066 62.5415 96.2787 62.213C95.9507 62.0488 95.7867 61.7204 95.6227 61.5562C95.4587 61.3919 95.2947 61.0635 94.9667 60.8993C93.9828 60.0782 92.8349 60.0782 91.8509 60.0782C91.6869 60.0782 91.3589 60.0782 91.195 60.0782C90.375 60.0782 89.719 60.0782 88.8991 59.914C88.4071 59.7497 87.9151 59.5855 87.5872 59.2571C88.4071 58.1075 89.719 57.4507 90.867 57.1222ZM87.0952 59.2571C87.5872 59.5855 88.0791 59.914 88.7351 60.0782C89.555 60.2424 90.375 60.2424 91.195 60.2424C91.3589 60.2424 91.6869 60.2424 91.8509 60.2424C93.1628 60.2424 93.9828 60.4066 94.6388 60.8993C94.8027 61.0635 94.9667 61.2277 95.2947 61.5562C95.4587 61.8846 95.7867 62.213 96.1147 62.3773C96.6066 62.7057 97.4266 62.8699 98.2466 62.8699C98.5745 62.8699 98.9025 62.8699 99.2305 62.7057C99.5585 62.7057 100.05 62.5415 100.378 62.5415C101.854 62.5415 103.166 63.1984 104.15 64.1837C104.314 64.5121 104.642 64.6764 104.806 65.0048C104.806 65.169 104.97 65.169 104.97 65.3332C105.134 65.9901 105.134 66.647 105.134 67.3039C105.134 67.9608 105.134 68.6176 104.97 69.1103C104.478 68.4534 103.658 67.9608 103.002 67.7965C101.69 67.3039 100.05 67.4681 98.7385 67.3039C96.6066 67.3039 95.6227 66.9754 94.8027 66.3186C94.1468 65.8259 93.8188 65.3332 93.4908 65.0048C92.9989 64.3479 92.5069 63.8553 91.5229 63.3626C90.703 63.0342 90.047 62.8699 89.555 62.8699C88.4071 62.7057 87.5872 62.8699 86.9312 63.0342C86.2752 63.1984 85.7833 63.1984 85.2913 63.0342C85.1273 63.0342 84.7993 62.8699 84.6353 62.7057C84.9633 61.5562 85.9472 60.2424 87.0952 59.2571ZM94.1468 78.4708C90.211 78.4708 86.6032 76.336 84.7993 73.0516C85.1273 73.2158 85.6193 73.38 85.9472 73.5442C86.4392 73.8727 86.7672 74.2011 87.2592 74.6938C87.7511 75.0222 88.0791 75.5149 88.5711 75.8433C89.3911 76.336 90.375 76.6644 91.3589 76.8286C92.3429 76.9929 93.3268 77.3213 93.9828 77.814C94.1468 77.9782 94.4748 78.1424 94.6388 78.3066C94.4748 78.4708 94.3108 78.4708 94.1468 78.4708ZM95.2947 78.3066C95.1307 77.9782 94.8027 77.6497 94.4748 77.3213C93.6548 76.6644 92.6709 76.5002 91.6869 76.1718C90.703 76.0075 89.883 75.6791 89.0631 75.1864C88.5711 74.858 88.2431 74.5296 87.7511 74.0369C87.2592 73.5442 86.9312 73.2158 86.4392 72.8874C85.9472 72.5589 85.2913 72.3947 84.6353 72.2305C84.1433 71.4094 83.9794 70.5883 83.6514 69.603C85.4553 69.4387 87.0952 70.0956 88.4071 71.2452C88.7351 71.5736 88.8991 71.902 89.2271 72.0663C89.555 72.5589 90.047 73.0516 90.539 73.5442C91.6869 74.3653 93.1628 74.5296 94.4748 74.5296C94.6388 74.5296 94.8028 74.5296 95.1307 74.5296C96.2787 74.5296 97.4266 74.5296 98.4105 75.0222C99.0665 75.1864 99.7225 75.6791 100.05 76.336C98.7385 77.6497 97.0986 78.1424 95.2947 78.3066ZM100.542 76.336C100.05 75.6791 99.2305 75.1864 98.5745 74.858C97.4266 74.3653 96.2787 74.3653 95.1307 74.3653C94.9667 74.3653 94.8027 74.3653 94.4748 74.3653C93.1628 74.3653 91.8509 74.2011 90.703 73.38C90.211 73.0516 89.883 72.5589 89.3911 72.0663C89.0631 71.7378 88.8991 71.4094 88.5711 71.0809C87.2592 69.7672 85.2913 69.1103 83.3234 69.2745C83.1594 68.6176 83.1594 67.9608 83.1594 67.3039C83.1594 66.9754 83.1594 66.4828 83.1594 66.1543C83.8154 66.4828 84.6353 66.647 85.4553 66.647C85.9472 66.647 86.2752 66.647 86.7672 66.4828C87.0952 66.4828 87.2592 66.3186 87.5872 66.3186C88.4071 66.1543 89.0631 66.3186 89.3911 66.647C89.883 66.9754 90.211 67.6323 90.539 68.2892C90.867 68.7819 91.031 69.2745 91.3589 69.7672C92.1789 70.5883 93.3268 71.0809 94.9667 71.0809C95.4587 71.0809 95.9507 71.0809 96.4427 71.0809C97.2626 71.0809 97.9186 70.9167 98.7385 71.0809C100.378 71.2452 101.854 72.2305 102.838 73.7085C102.51 74.6938 101.526 75.6791 100.542 76.336ZM103.494 73.2158C102.51 71.7378 100.87 70.7525 99.0665 70.5883C98.2466 70.4241 97.4266 70.5883 96.6066 70.5883C96.1147 70.5883 95.6227 70.5883 95.2947 70.5883C94.3108 70.5883 92.9988 70.4241 92.0149 69.4387C91.6869 69.1103 91.3589 68.6176 91.195 68.125C90.867 67.4681 90.539 66.8112 89.883 66.3186C89.3911 65.9901 88.5711 65.8259 87.7511 65.9901C87.4232 65.9901 87.2592 65.9901 86.9312 66.1543C86.4392 66.1543 86.1112 66.3186 85.6193 66.3186C84.7993 66.3186 84.1433 66.1543 83.3234 65.6617C83.4874 64.8406 83.6514 64.0195 83.9794 63.3626C84.3073 63.5268 84.4713 63.5268 84.7993 63.691C85.4553 63.8553 86.1112 63.691 86.6032 63.691C87.2592 63.5268 88.0791 63.5268 89.0631 63.5268C89.719 63.5268 90.211 63.691 91.031 64.0195C92.0149 64.5121 92.3429 65.0048 92.8349 65.4975C93.1628 65.9901 93.6548 66.4828 94.3108 66.9754C95.2947 67.6323 96.2787 67.9608 98.5745 67.9608C99.8865 67.9608 101.362 67.9608 102.674 68.2892C103.494 68.6176 104.15 69.1103 104.642 69.7672C104.478 71.2452 104.15 72.2305 103.494 73.2158Z" fill="#F1A17C" stroke="#F1A17C" stroke-width="0.5"></path> <path d="M136.784 74.2011C135.964 74.2011 135.308 74.858 135.308 75.6791C135.308 76.5002 135.964 77.1571 136.784 77.1571C137.604 77.1571 138.26 76.5002 138.26 75.6791C138.096 74.6938 137.604 74.2011 136.784 74.2011Z" fill="#F1A17C" stroke="#F1A17C" stroke-width="0.5"></path> <path d="M142.36 51.0461C142.36 50.225 141.704 49.5681 140.884 49.5681C140.064 49.5681 139.408 50.225 139.408 51.0461C139.408 51.8672 140.064 52.5241 140.884 52.5241C141.704 52.3599 142.36 51.703 142.36 51.0461Z" fill="#F1A17C" stroke="#F1A17C" stroke-width="0.5"></path> <path d="M78.7317 37.2516C78.7317 38.0727 79.3876 38.7296 80.2076 38.7296C81.0276 38.7296 81.6835 38.0727 81.6835 37.2516C81.6835 36.4305 81.0276 35.7736 80.2076 35.7736C79.3876 35.7736 78.7317 36.4305 78.7317 37.2516Z" fill="#F1A17C" stroke="#F1A17C" stroke-width="0.5"></path> <path d="M62.0046 27.8911C62.0046 28.7122 62.6606 29.369 63.4806 29.369C64.3005 29.369 64.9565 28.7122 64.9565 27.8911C64.9565 27.07 64.3005 26.4131 63.4806 26.4131C62.6606 26.4131 62.0046 27.07 62.0046 27.8911Z" fill="#F1A17C" stroke="#F1A17C" stroke-width="0.5"></path> <path d="M12.4793 107.702C13.2945 107.702 13.9553 107.04 13.9553 106.224C13.9553 105.408 13.2945 104.746 12.4793 104.746C11.6642 104.746 11.0034 105.408 11.0034 106.224C11.0034 107.04 11.6642 107.702 12.4793 107.702Z" fill="#F1A17C" stroke="#F1A17C" stroke-width="0.5"></path> <path d="M103.822 156.804C103.002 156.804 102.346 157.461 102.346 158.282C102.346 159.103 103.002 159.76 103.822 159.76C104.642 159.76 105.298 159.103 105.298 158.282C105.298 157.461 104.642 156.804 103.822 156.804Z" fill="#F1A17C" stroke="#F1A17C" stroke-width="0.5"></path> <path d="M129.405 84.8754C129.405 84.2186 128.913 83.7259 128.257 83.7259C127.601 83.7259 127.109 84.2186 127.109 84.8754C127.109 85.5323 127.601 86.025 128.257 86.025C128.913 86.025 129.405 85.5323 129.405 84.8754Z" fill="#F1A17C" stroke="#F1A17C" stroke-width="0.5"></path> <path d="M62.6605 75.5149C62.6605 76.1718 63.1525 76.6644 63.8085 76.6644C64.4644 76.6644 64.9564 76.1718 64.9564 75.5149C64.9564 74.858 64.4644 74.3654 63.8085 74.3654C63.1525 74.5296 62.6605 75.0222 62.6605 75.5149Z" fill="#F1A17C" stroke="#F1A17C" stroke-width="0.5"></path> <path d="M124.977 56.958C125.611 56.958 126.125 56.4433 126.125 55.8085C126.125 55.1736 125.611 54.6589 124.977 54.6589C124.343 54.6589 123.829 55.1736 123.829 55.8085C123.829 56.4433 124.343 56.958 124.977 56.958Z" fill="#F1A17C" stroke="#F1A17C" stroke-width="0.5"></path> <path d="M28.0585 39.2222C28.7144 39.2222 29.2064 38.7296 29.2064 38.0727C29.2064 37.4158 28.7144 36.9232 28.0585 36.9232C27.4025 36.9232 26.9105 37.4158 26.9105 38.0727C26.9105 38.7296 27.5665 39.2222 28.0585 39.2222Z" fill="#F1A17C" stroke="#F1A17C" stroke-width="0.5"></path> <path d="M32.3223 62.3773C32.3223 63.0341 32.8142 63.5268 33.4702 63.5268C34.1262 63.5268 34.6181 63.0341 34.6181 62.3773C34.6181 61.7204 34.1262 61.2277 33.4702 61.2277C32.8142 61.2277 32.3223 61.7204 32.3223 62.3773Z" fill="#F1A17C" stroke="#F1A17C" stroke-width="0.5"></path> <path d="M26.9106 106.881C27.5666 106.881 28.0586 106.388 28.0586 105.731C28.0586 105.075 27.5666 104.582 26.9106 104.582C26.2547 104.582 25.7627 105.075 25.7627 105.731C25.7627 106.388 26.4187 106.881 26.9106 106.881Z" fill="#F1A17C" stroke="#F1A17C" stroke-width="0.5"></path> <path d="M88.571 145.144C88.571 145.801 89.063 146.294 89.719 146.294C90.3749 146.294 90.8669 145.801 90.8669 145.144C90.8669 144.487 90.3749 143.995 89.719 143.995C89.063 143.995 88.571 144.487 88.571 145.144Z" fill="#F1A17C" stroke="#F1A17C" stroke-width="0.5"></path> <path d="M124.813 135.619C124.157 135.619 123.665 136.112 123.665 136.769C123.665 137.426 124.157 137.919 124.813 137.919C125.469 137.919 125.961 137.426 125.961 136.769C125.797 136.112 125.305 135.619 124.813 135.619Z" fill="#F1A17C" stroke="#F1A17C" stroke-width="0.5"></path> <path d="M112.35 47.269C113.006 47.269 113.498 46.7763 113.498 46.1195C113.498 45.4626 113.006 44.9699 112.35 44.9699C111.694 44.9699 111.202 45.4626 111.202 46.1195C111.202 46.7763 111.858 47.269 112.35 47.269Z" fill="#F1A17C" stroke="#F1A17C" stroke-width="0.5"></path> <path d="M31.9943 6.70665C32.8142 6.87087 33.9622 7.19931 34.6181 8.02041C35.2741 8.67729 35.6021 10.3195 35.7661 11.469C35.7661 11.6333 35.93 11.6333 36.094 11.469C36.258 10.4837 36.586 8.67729 37.242 8.02041C37.8979 7.19931 39.3738 6.87087 40.0298 6.70665C40.1938 6.70665 40.1938 6.54243 40.0298 6.37821C39.2099 6.21399 38.0619 5.88555 37.406 5.22867C36.586 4.57179 36.258 2.27271 36.094 1.12317C36.094 0.958945 35.93 0.958945 35.7661 1.12317C35.7661 2.43693 35.4381 4.73601 34.4541 5.55711C33.7982 6.04977 32.8142 6.37821 31.9943 6.37821C31.9943 6.54243 31.9943 6.70665 31.9943 6.70665Z" fill="#F1A17C" stroke="#F1A17C" stroke-width="0.5"></path> <path d="M21.4988 51.3745C20.6788 51.2103 19.5309 50.8819 18.875 50.225C18.055 49.5681 17.727 47.269 17.563 46.1195C17.563 45.9553 17.399 45.9553 17.235 46.1195C17.0711 47.4333 16.5791 49.5681 15.7591 50.3892C15.1032 50.8819 14.1192 51.2103 13.2993 51.3745C13.1353 51.3745 13.1353 51.5388 13.2993 51.703C14.1192 51.8672 15.2672 52.1957 15.9231 53.0168C16.5791 53.6736 16.9071 55.3158 17.0711 56.4654C17.0711 56.6296 17.235 56.6296 17.399 56.4654C17.563 55.4801 17.891 53.6736 18.547 53.0168C19.2029 52.1957 20.6788 51.8672 21.3348 51.703C21.6628 51.5388 21.6628 51.3745 21.4988 51.3745Z" fill="#F1A17C" stroke="#F1A17C" stroke-width="0.5"></path> <path d="M65.1204 61.8846C65.6124 62.0488 66.4324 62.213 66.9243 62.7057C67.4163 63.1984 67.5803 64.3479 67.7443 65.0048C67.7443 65.169 67.9083 65.169 67.9083 65.0048C68.0723 64.3479 68.2363 63.1984 68.7282 62.7057C69.2202 62.213 70.0402 61.8846 70.6961 61.8846C70.8601 61.8846 70.8601 61.7204 70.6961 61.7204C70.2041 61.5562 69.3842 61.3919 68.8922 60.8993C68.4003 60.4066 68.0723 58.9286 67.9083 58.1075C67.9083 57.9433 67.7443 57.9433 67.7443 58.1075C67.5803 58.9286 67.4163 60.4066 66.7603 61.0635C66.2684 61.3919 65.6124 61.5562 65.1204 61.7204C64.9564 61.7204 64.9564 61.8846 65.1204 61.8846Z" fill="#F1A17C" stroke="#F1A17C" stroke-width="0.5"></path> <path d="M128.585 69.9314C128.093 69.7672 127.273 69.6029 126.781 69.1103C126.289 68.6176 125.961 67.1396 125.797 66.3185C125.797 66.1543 125.633 66.1543 125.633 66.3185C125.633 67.1396 125.305 68.7818 124.813 69.2745C124.321 69.6029 123.665 69.7672 123.173 69.9314C123.009 69.9314 123.009 70.0956 123.173 70.0956C123.665 70.2598 124.485 70.424 124.977 70.9167C125.469 71.4094 125.633 72.5589 125.797 73.2158C125.797 73.38 125.961 73.38 125.961 73.2158C126.125 72.5589 126.289 71.4094 126.781 70.9167C127.273 70.424 128.093 70.0956 128.749 70.0956C128.749 70.0956 128.749 69.9314 128.585 69.9314Z" fill="#F1A17C" stroke="#F1A17C" stroke-width="0.5"></path> <path d="M138.26 43.492C137.44 43.3277 136.292 42.9993 135.473 42.3424C134.653 41.5213 134.161 39.3865 133.997 38.0727C133.997 37.9085 133.669 37.9085 133.669 38.0727C133.505 39.3865 133.013 41.6855 132.193 42.5066C131.537 42.9993 130.389 43.3277 129.733 43.492C129.569 43.492 129.569 43.6562 129.733 43.8204C130.553 43.9846 131.865 44.3131 132.521 45.1342C133.177 45.791 133.505 47.5975 133.833 48.747C133.833 48.9112 134.161 48.9112 134.161 48.747C134.325 47.5975 134.653 45.9553 135.309 45.1342C136.129 44.3131 137.44 43.9846 138.26 43.8204C138.424 43.6562 138.424 43.492 138.26 43.492Z" fill="#F1A17C" stroke="#F1A17C" stroke-width="0.5"></path> <path d="M140.651 99.5424C139.831 99.3782 138.683 99.0498 137.863 98.3929C137.043 97.5718 136.551 95.4369 136.387 94.1232C136.387 93.9589 136.059 93.9589 136.059 94.1232C135.895 95.4369 135.403 97.736 134.583 98.5571C133.927 99.0498 132.779 99.3782 132.123 99.5424C131.959 99.5424 131.959 99.7067 132.123 99.8709C132.943 100.035 134.255 100.364 134.911 101.185C135.567 101.842 135.895 103.648 136.223 104.797C136.223 104.962 136.551 104.962 136.551 104.797C136.715 103.648 137.043 102.006 137.699 101.185C138.519 100.364 139.831 100.035 140.651 99.8709C140.815 99.7067 140.815 99.5424 140.651 99.5424Z" fill="#F1A17C" stroke="#F1A17C" stroke-width="0.5"></path> <path d="M120.549 120.019L121.861 117.884L119.565 119.197L118.909 116.734L118.253 119.197L116.122 117.884L117.433 120.019L114.974 120.675L117.433 121.332L116.122 123.467L118.253 122.153L118.909 124.617L119.565 122.153L121.861 123.467L120.549 121.332L123.009 120.675L120.549 120.019Z" fill="#F1A17C" stroke="#F1A17C" stroke-width="0.5"></path> <path d="M50.8533 76.9929L52.1652 74.858L50.0333 76.1718L49.3774 73.7085L48.7214 76.1718L46.5895 74.858L47.7375 76.9929L45.2776 77.6498L47.7375 78.3067L46.5895 80.4415L48.7214 79.1278L49.3774 81.5911L50.0333 79.1278L52.1652 80.4415L50.8533 78.3067L53.3131 77.6498L50.8533 76.9929Z" fill="#F1A17C" stroke="#F1A17C" stroke-width="0.5"></path> <path d="M14.9392 24.6066L17.7271 21.9791L20.3509 24.6066L18.875 21.158L21.9908 19.3516L18.383 19.8442L17.7271 16.2314L16.9071 19.8442L13.2993 19.3516L16.5791 21.158L14.9392 24.6066Z" fill="#F1A17C" stroke="#F1A17C" stroke-width="0.5"></path> <path d="M62.0046 38.5653L61.3486 35.6094L60.8567 38.5653L57.7408 38.2369L60.3647 39.7149L59.2168 42.5066L61.3486 40.3718L63.6445 42.5066L62.3326 39.7149L64.9564 38.2369L62.0046 38.5653Z" fill="#F1A17C" stroke="#F1A17C" stroke-width="0.5"></path> <path d="M91.195 40.0433L90.539 42.9993L87.5872 42.6709L90.211 44.1488L88.8991 46.9406L91.195 44.8057L93.3268 46.9406L92.0149 44.1488L94.6388 42.6709L91.6869 42.9993L91.195 40.0433Z" fill="#F1A17C" stroke="#F1A17C" stroke-width="0.5"></path> </svg> 