<svg width="49" height="34" viewBox="0 0 49 34" fill="none" xmlns="http://www.w3.org/2000/svg">
<g clip-path="url(#clip0_701_297)">
<mask id="path-1-inside-1_701_297" fill="white">
<path fill-rule="evenodd" clip-rule="evenodd" d="M16.7481 23.1023C16.7086 20.837 17.9118 18.7768 19.1544 16.8823C20.2317 15.2397 20.8438 13.2672 20.8069 11.155C20.7092 5.55941 16.0939 1.10243 10.4982 1.2001C4.90261 1.29777 0.445634 5.91311 0.543306 11.5087C0.580174 13.6209 1.26072 15.5708 2.3947 17.1748C3.70262 19.0248 4.97702 21.0418 5.01656 23.3071L5.09496 27.7985C5.14797 30.8356 7.65301 33.2546 10.6901 33.2016L11.4233 33.1888C14.4604 33.1358 16.8795 30.6308 16.8265 27.5937L16.7481 23.1023Z"/>
</mask>
<path d="M5.09496 27.7985L4.09511 27.8159L5.09496 27.7985ZM10.6901 33.2016L10.7076 34.2015L10.6901 33.2016ZM11.4233 33.1888L11.4059 32.189L11.4233 33.1888ZM16.8265 27.5937L17.8264 27.5762L16.8265 27.5937ZM16.7481 23.1023L15.7483 23.1198L16.7481 23.1023ZM19.807 11.1725C19.8403 13.0776 19.2888 14.8538 18.3182 16.3338L19.9905 17.4307C21.1745 15.6255 21.8472 13.4568 21.8067 11.1376L19.807 11.1725ZM10.5157 2.19995C15.5591 2.11192 19.719 6.12906 19.807 11.1725L21.8067 11.1376C21.6994 4.98975 16.6286 0.0929436 10.4808 0.200254L10.5157 2.19995ZM1.54315 11.4913C1.45512 6.44786 5.47226 2.28798 10.5157 2.19995L10.4808 0.200254C4.33296 0.307565 -0.563852 5.37836 -0.456542 11.5262L1.54315 11.4913ZM3.21125 16.5975C2.18952 15.1523 1.57641 13.3964 1.54315 11.4913L-0.456542 11.5262C-0.416059 13.8454 0.331929 15.9893 1.57816 17.7521L3.21125 16.5975ZM6.09481 27.781L6.01641 23.2896L4.01672 23.3245L4.09511 27.8159L6.09481 27.781ZM10.6727 32.2018C8.18775 32.2452 6.13818 30.2659 6.09481 27.781L4.09511 27.8159C4.15776 31.4052 7.11826 34.2641 10.7076 34.2015L10.6727 32.2018ZM11.4059 32.189L10.6727 32.2018L10.7076 34.2015L11.4408 34.1887L11.4059 32.189ZM15.8267 27.6111C15.87 30.096 13.8908 32.1456 11.4059 32.189L11.4408 34.1887C15.0301 34.126 17.889 31.1655 17.8264 27.5762L15.8267 27.6111ZM15.7483 23.1198L15.8267 27.6111L17.8264 27.5762L17.748 23.0849L15.7483 23.1198ZM1.57816 17.7521C2.89611 19.6163 3.98316 21.4023 4.01672 23.3245L6.01641 23.2896C5.97088 20.6813 4.50913 18.4333 3.21125 16.5975L1.57816 17.7521ZM18.3182 16.3338C17.0851 18.2138 15.7027 20.5114 15.7483 23.1198L17.748 23.0849C17.7144 21.1626 18.7385 19.3397 19.9905 17.4307L18.3182 16.3338Z" fill="#181E32" mask="url(#path-1-inside-1_701_297)"/>
<path d="M5.40869 24.7925L16.407 24.6005" stroke="#181E32"/>
<path d="M5.46094 27.792L16.4593 27.6" stroke="#181E32"/>
</g>
<defs>
<clipPath id="clip0_701_297">
<rect width="48" height="32" fill="white" transform="translate(-0.000732422 1.3833) rotate(-1)"/>
</clipPath>
</defs>
</svg>
