<svg width="50" height="34" viewBox="0 0 50 34" fill="none" xmlns="http://www.w3.org/2000/svg">
<g clip-path="url(#clip0_701_219)">
<path d="M21.7353 6.6896C19.7712 5.69631 17.5361 5.17025 15.1811 5.25249C7.72981 5.51269 1.90027 11.7641 2.16047 19.2154C2.42068 26.6667 8.67209 32.4962 16.1234 32.236C23.5747 31.9758 29.4042 25.7244 29.144 18.2731C29.0662 16.043 28.4516 13.9582 27.4289 12.1384" stroke="#181E32"/>
<path d="M19.0316 12.0469C17.9405 11.4951 16.6988 11.2028 15.3905 11.2485C11.2508 11.3931 8.01221 14.8661 8.15677 19.0057C8.30132 23.1453 11.7743 26.3839 15.9139 26.2394C20.0536 26.0948 23.2922 22.6218 23.1476 18.4822C23.1044 17.2433 22.763 16.085 22.1948 15.074" stroke="#181E32"/>
<path d="M15.1713 19.2612L24.8142 8.91865" stroke="#181E32"/>
<path d="M24.2117 5.93751L28.0697 1.80034L28.6722 4.78138L31.6878 5.17638L27.8298 9.31354L24.8142 8.91854L24.2117 5.93751Z" stroke="#181E32"/>
</g>
<defs>
<clipPath id="clip0_701_219">
<rect width="48" height="32" fill="white" transform="translate(0.550293 1.76074) rotate(-2)"/>
</clipPath>
</defs>
</svg>
