<svg width="49" height="34" viewBox="0 0 49 34" fill="none" xmlns="http://www.w3.org/2000/svg">
<rect x="2.82005" y="3.83934" width="43" height="27" rx="3.5" transform="rotate(-1 2.82005 3.83934)" stroke="#181E32"/>
<path d="M10.9857 9.81778C11.0697 10.043 11.4059 10.9706 11.9944 12.6006C12.5828 14.2172 13.0096 15.37 13.275 16.0588C15.8804 11.7593 17.2364 9.60866 17.343 9.6068C17.423 9.60541 17.5443 9.67663 17.7068 9.82049C17.8693 9.96434 17.9515 10.0896 17.9534 10.1962C17.9539 10.2229 17.6948 10.6608 17.1762 11.51C16.6574 12.3459 16.0542 13.3165 15.3668 14.422C14.6924 15.514 14.1668 16.3433 13.7899 16.9099C14.6766 18.8147 15.6166 21.0987 16.6099 23.7618C16.638 23.8413 16.6521 23.8877 16.6524 23.901C16.6538 23.981 16.5554 24.0761 16.3573 24.1862C16.1592 24.2964 15.9802 24.3528 15.8202 24.3556C15.1958 22.9663 14.2904 20.7551 13.104 17.722C12.4694 18.7999 11.6002 20.1886 10.4963 21.8882C9.39247 23.5877 8.78722 24.4384 8.68057 24.4402C8.58725 24.4419 8.46622 24.384 8.31749 24.2666C8.15542 24.1494 8.07345 24.0374 8.07159 23.9308C8.06996 23.8375 8.33522 23.3728 8.86738 22.5367C9.41263 21.687 10.1207 20.6145 10.9915 19.3191C11.8624 18.0237 12.4081 17.2008 12.6287 16.8502C11.9223 15.3423 11.0776 13.17 10.0946 10.3334C10.081 10.3203 10.0739 10.2938 10.0732 10.2538C10.0713 10.1471 10.1629 10.0455 10.3479 9.94894C10.5329 9.85236 10.7054 9.80267 10.8654 9.79988C10.9321 9.79872 10.9722 9.80469 10.9857 9.81778Z" fill="#181E32"/>
<path d="M26.1226 16.4546L25.6427 16.463C23.723 16.4965 21.5177 16.595 19.0268 16.7585C18.8669 16.7613 18.7534 16.7566 18.6865 16.7444C18.633 16.732 18.5448 16.6469 18.422 16.489C18.2993 16.3311 18.2375 16.2322 18.2368 16.1922C18.2352 16.0989 18.2744 16.0515 18.3544 16.0501C22.3645 15.8334 24.6962 15.7194 25.3495 15.708C25.4161 15.7068 25.5096 15.7119 25.6298 15.7231C25.7498 15.721 25.8297 15.7196 25.8697 15.7189L26.0108 15.7765C26.0379 15.8027 26.0793 15.882 26.1349 16.0143C26.2039 16.1465 26.239 16.2459 26.2402 16.3125C26.2418 16.4059 26.2026 16.4532 26.1226 16.4546ZM25.9023 19.879L25.2624 19.8902C23.3827 19.923 21.2041 20.021 18.7266 20.1843C18.6466 20.1857 18.5598 20.1805 18.4663 20.1688C18.3725 20.1438 18.2715 20.0855 18.1632 19.9941C18.0682 19.9024 18.0196 19.7899 18.0173 19.6566C18.0154 19.5499 18.0478 19.496 18.1145 19.4948C19.6852 19.3341 21.8704 19.2293 24.67 19.1804C24.6833 19.1802 24.7898 19.1716 24.9896 19.1548C25.1891 19.1247 25.3423 19.1153 25.4491 19.1268C25.5691 19.1247 25.69 19.1759 25.8119 19.2805C25.9335 19.3717 25.9962 19.524 25.9999 19.7373C26.0015 19.8306 25.969 19.8778 25.9023 19.879Z" fill="#181E32"/>
<path d="M30.7685 19.194C30.2435 18.1496 29.6979 16.6856 29.1316 14.8019C28.565 12.9048 28.1635 11.2915 27.9269 9.96214C27.9251 9.85549 28.0037 9.77411 28.1627 9.71799C28.3348 9.64831 28.5142 9.61184 28.7009 9.60858C28.8075 9.60672 28.8682 9.64567 28.8829 9.72542C29.7409 13.8044 30.6397 16.7825 31.5793 18.6597C33.2893 14.2559 34.6106 11.259 35.543 9.66918C35.5947 9.57493 35.6472 9.52734 35.7005 9.52641C35.8072 9.52455 35.9547 9.57531 36.1432 9.6787C36.3317 9.7821 36.4268 9.88045 36.4284 9.97377C36.4291 10.0138 36.3326 10.2155 36.1389 10.5789C35.2376 12.4216 34.2237 14.6863 33.097 17.373C31.9835 20.0462 31.1418 22.2479 30.5719 23.9781C30.5202 24.0724 30.4477 24.1203 30.3544 24.1219C30.2211 24.1243 30.0669 24.0736 29.8917 23.97C29.7165 23.8664 29.628 23.7612 29.6261 23.6546C29.6254 23.6146 29.6315 23.5811 29.6444 23.5542C29.7705 23.1386 29.9164 22.7094 30.082 22.2664C30.2476 21.8234 30.4454 21.3133 30.6754 20.7358C30.9053 20.1584 31.0842 19.7085 31.2119 19.3862C31.1988 19.3998 31.1523 19.4073 31.0723 19.4087C30.9256 19.4112 30.8244 19.3397 30.7685 19.194Z" fill="#181E32"/>
<path fill-rule="evenodd" clip-rule="evenodd" d="M11.0714 9.7617L11.0794 9.78296C11.1635 10.0088 11.5 10.9371 12.0884 12.5667C12.6254 14.0423 13.0276 15.1307 13.2952 15.8324C14.5459 13.7697 15.5014 12.2147 16.1614 11.168C16.5005 10.63 16.7622 10.2255 16.946 9.95499C17.0377 9.81997 17.1111 9.7169 17.1654 9.64695C17.1924 9.61228 17.2163 9.58358 17.2366 9.56274C17.2465 9.55251 17.2579 9.54178 17.2699 9.53287C17.2774 9.5274 17.3043 9.50756 17.3412 9.50691C17.4088 9.50573 17.4785 9.53426 17.5445 9.57305C17.6129 9.61318 17.6892 9.67153 17.773 9.7457C17.8582 9.82112 17.9263 9.89501 17.9739 9.96754C18.0213 10.0399 18.0519 10.1162 18.0533 10.1946C18.0536 10.2115 18.0495 10.225 18.0484 10.2287C18.0466 10.2346 18.0445 10.24 18.0429 10.2441C18.0396 10.2522 18.0353 10.2612 18.0309 10.2702C18.0218 10.2884 18.0088 10.3126 17.9924 10.3421C17.9594 10.4013 17.9103 10.486 17.8454 10.5957C17.7155 10.8153 17.5208 11.1375 17.2615 11.5622C16.7426 12.3981 16.1391 13.3694 15.4516 14.4748C14.7954 15.5374 14.2795 16.3522 13.9041 16.9187C14.7853 18.8162 15.7185 21.0858 16.7036 23.7269L16.7042 23.7286C16.7184 23.7689 16.7295 23.8019 16.7372 23.8272C16.741 23.8397 16.7443 23.8514 16.7467 23.8615C16.7486 23.8693 16.752 23.8841 16.7523 23.8994C16.7537 23.9814 16.7048 24.0504 16.6491 24.1043C16.5909 24.1606 16.5082 24.2168 16.4058 24.2737C16.199 24.3887 16.0036 24.4525 15.8219 24.4557L15.7559 24.4569L15.7289 24.3967C15.1167 23.0344 14.2355 20.885 13.0856 17.9496C12.4602 19.0028 11.625 20.334 10.5801 21.9427C10.028 22.7928 9.59978 23.4318 9.2959 23.8589C9.14415 24.0722 9.02223 24.2343 8.93073 24.3439C8.88522 24.3984 8.84534 24.4422 8.81179 24.4732C8.79514 24.4887 8.77774 24.5031 8.76018 24.5143C8.74562 24.5236 8.7175 24.5397 8.68224 24.5403C8.55216 24.5426 8.40771 24.4651 8.25712 24.3465C8.09136 24.2262 7.97426 24.0893 7.97153 23.9326C7.97099 23.902 7.98034 23.8703 7.98902 23.8455C7.99876 23.8176 8.01268 23.785 8.02992 23.7485C8.06448 23.6754 8.11558 23.5798 8.18239 23.4628C8.31622 23.2283 8.51659 22.9016 8.78294 22.4831C9.32873 21.6326 10.0374 20.5591 10.9085 19.2634C11.7434 18.0216 12.2785 17.2152 12.5149 16.8431C11.8123 15.3354 10.9758 13.1811 10.0055 10.3819C9.99364 10.3642 9.9867 10.3457 9.98242 10.3297C9.97601 10.3059 9.97357 10.2804 9.97314 10.2556C9.97165 10.1704 10.0083 10.0948 10.0661 10.0307C10.1229 9.9677 10.2035 9.91159 10.3016 9.86038C10.4963 9.75873 10.6841 9.70313 10.8636 9.69999C10.8994 9.69937 10.9323 9.70053 10.9601 9.70467C10.9818 9.70789 11.0238 9.71567 11.0551 9.74594L11.0714 9.7617ZM10.0945 10.3335C11.0775 13.1701 11.9222 15.3424 12.6286 16.8503C12.4081 17.2008 11.8623 18.0238 10.9915 19.3192C10.1206 20.6146 9.41256 21.6871 8.8673 22.5368C8.33515 23.3729 8.06988 23.8376 8.07151 23.9309C8.07337 24.0375 8.15534 24.1495 8.31741 24.2666C8.46615 24.3841 8.58718 24.442 8.6805 24.4403C8.78715 24.4385 9.39239 23.5878 10.4962 21.8883C11.5631 20.2457 12.4108 18.8934 13.0393 17.8315C13.0611 17.7947 13.0827 17.7582 13.1039 17.7221C13.1194 17.7617 13.1348 17.8011 13.1502 17.8404C14.314 20.8128 15.2039 22.9845 15.8201 24.3557C15.9801 24.3529 16.1591 24.2965 16.3572 24.1863C16.5553 24.0762 16.6537 23.9811 16.6523 23.9011C16.6521 23.8878 16.6379 23.8414 16.6099 23.7618C15.6166 21.0988 14.6766 18.8148 13.7899 16.91C14.1667 16.3434 14.6923 15.5141 15.3667 14.4221C16.0542 13.3166 16.6573 12.3459 17.1761 11.5101C17.6947 10.6609 17.9538 10.223 17.9533 10.1963C17.9515 10.0897 17.8693 9.96443 17.7067 9.82058C17.5442 9.67673 17.4229 9.6055 17.3429 9.6069C17.2372 9.60874 15.903 11.7234 13.3405 15.9507C13.3187 15.9866 13.2969 16.0227 13.2749 16.0589C13.2603 16.0209 13.2452 15.9815 13.2296 15.9408C12.962 15.2416 12.5503 14.1282 11.9944 12.6007C11.4058 10.9707 11.0696 10.0431 10.9857 9.81788C10.9721 9.80478 10.932 9.79881 10.8653 9.79998C10.7053 9.80277 10.5329 9.85245 10.3478 9.94903C10.1628 10.0456 10.0713 10.1472 10.0731 10.2539C10.0738 10.2939 10.0809 10.3204 10.0945 10.3335ZM19.0285 16.8586C18.8684 16.8614 18.7461 16.857 18.6686 16.8429L18.6639 16.8421C18.608 16.8291 18.5554 16.7865 18.5107 16.7433C18.4618 16.6961 18.4057 16.6312 18.343 16.5505C18.2808 16.4705 18.2323 16.4032 18.1987 16.3494C18.182 16.3227 18.1679 16.2974 18.1575 16.2743C18.1483 16.2538 18.1373 16.2249 18.1368 16.194C18.1357 16.1354 18.1469 16.0726 18.1879 16.0231C18.2308 15.9711 18.2914 15.9517 18.3505 15.9503C22.3585 15.7337 24.6922 15.6196 25.3476 15.6081C25.4187 15.6069 25.5146 15.6121 25.6335 15.6231L25.8884 15.6187L26.0663 15.6913L26.0802 15.7046C26.1065 15.7301 26.13 15.7697 26.1507 15.8094C26.1728 15.8517 26.1977 15.9062 26.2254 15.9719C26.2937 16.1033 26.3385 16.2196 26.3401 16.3109C26.3411 16.3695 26.3299 16.4324 26.289 16.4819C26.2455 16.5344 26.1841 16.5537 26.1243 16.5547L25.6444 16.5631C23.7266 16.5966 21.523 16.695 19.0333 16.8584L19.0285 16.8586ZM26.1349 16.0144C26.0792 15.8821 26.0378 15.8028 26.0107 15.7766L25.8697 15.719L25.6297 15.7232C25.5095 15.712 25.416 15.7069 25.3494 15.7081C24.6962 15.7195 22.3645 15.8335 18.3543 16.0502C18.2743 16.0516 18.2351 16.099 18.2368 16.1923C18.2375 16.2323 18.2992 16.3312 18.422 16.4891C18.5447 16.647 18.6329 16.7321 18.6865 16.7445C18.7533 16.7567 18.8668 16.7614 19.0268 16.7586C21.5176 16.5951 23.7229 16.4966 25.6426 16.4631L26.1225 16.4547C26.2025 16.4533 26.2417 16.406 26.2401 16.3126C26.2389 16.246 26.2038 16.1466 26.1349 16.0144ZM18.7282 20.2843C18.6428 20.2858 18.5512 20.2803 18.4538 20.2681L18.4402 20.2664C18.3271 20.2363 18.2133 20.1675 18.0986 20.0706L18.0935 20.0663C17.9792 19.9559 17.92 19.8179 17.9172 19.6584C17.9161 19.5979 17.9239 19.5354 17.9544 19.4847C17.9887 19.4276 18.0445 19.3976 18.1078 19.3951C19.6824 19.2341 21.8697 19.1293 24.6681 19.0805C24.6693 19.0804 24.6758 19.0801 24.6901 19.079L24.7518 19.0742C24.8043 19.07 24.8796 19.0638 24.9778 19.0555C25.1749 19.0259 25.335 19.015 25.4537 19.0268C25.6022 19.0261 25.743 19.0905 25.8745 19.2026C26.0278 19.3192 26.0958 19.506 26.0998 19.7356C26.1008 19.7912 26.0924 19.8509 26.059 19.8995C26.0213 19.9543 25.9636 19.978 25.904 19.9791L25.2641 19.9902C23.3864 20.023 21.2095 20.121 18.7331 20.2841L18.7282 20.2843ZM25.8118 19.2806C25.69 19.176 25.5691 19.1248 25.4491 19.1269C25.3422 19.1154 25.189 19.1247 24.9895 19.1549C24.7898 19.1717 24.6832 19.1803 24.6699 19.1805C21.8703 19.2294 19.6851 19.3342 18.1144 19.4949C18.0477 19.4961 18.0153 19.55 18.0172 19.6567C18.0195 19.79 18.0681 19.9025 18.1631 19.9942C18.2714 20.0856 18.3724 20.1439 18.4662 20.1689C18.5597 20.1806 18.6465 20.1858 18.7265 20.1844C21.204 20.0211 23.3827 19.9231 25.2624 19.8903L25.9023 19.8791C25.9689 19.8779 26.0014 19.8307 25.9998 19.7374C25.9961 19.5241 25.9334 19.3718 25.8118 19.2806ZM29.0357 14.8306C28.4685 12.9314 28.0659 11.3142 27.8284 9.97976L27.827 9.97193L27.8269 9.96398C27.8239 9.79165 27.9562 9.68538 28.1272 9.62456C28.3101 9.55079 28.5009 9.51215 28.699 9.50869C28.7632 9.50757 28.8272 9.51822 28.8803 9.55233C28.9365 9.58841 28.969 9.64326 28.9809 9.70602C29.8078 13.6369 30.6711 16.5365 31.5687 18.4109C33.2382 14.1244 34.5342 11.192 35.4559 9.61991C35.4845 9.56807 35.5166 9.52259 35.5539 9.4888C35.5921 9.45416 35.6408 9.42753 35.6987 9.42652C35.833 9.42417 36.0001 9.48626 36.1912 9.59112C36.2899 9.64522 36.3704 9.70131 36.4277 9.76061C36.4848 9.81963 36.5269 9.8905 36.5283 9.97212C36.5287 9.99322 36.5234 10.0131 36.52 10.0246C36.5159 10.0387 36.5102 10.0544 36.5036 10.071C36.4904 10.1044 36.4712 10.147 36.4467 10.1983C36.3977 10.3008 36.3246 10.4431 36.2279 10.6245C35.3279 12.4646 34.315 14.7269 33.1892 17.4118C32.0762 20.0837 31.2356 22.2827 30.6668 24.0095L30.664 24.0182L30.6595 24.0263C30.5937 24.1463 30.4914 24.2197 30.3561 24.222C30.197 24.2248 30.024 24.1646 29.8407 24.0561C29.6617 23.9503 29.5289 23.82 29.5261 23.6564C29.5253 23.6089 29.5318 23.5618 29.5506 23.519C29.6769 23.1031 29.8228 22.674 29.9882 22.2315C30.1542 21.7877 30.3522 21.2768 30.5824 20.6989C30.7766 20.2111 30.9344 19.8144 31.0557 19.5088C30.9721 19.5073 30.8948 19.4855 30.8285 19.4387C30.7593 19.3898 30.7101 19.3191 30.6769 19.2347C30.1488 18.1832 29.6019 16.7141 29.0357 14.8306ZM30.7684 19.1941C30.8243 19.3398 30.9255 19.4113 31.0722 19.4088C31.0803 19.4086 31.0881 19.4084 31.0956 19.4082C31.1613 19.4058 31.2001 19.3985 31.2118 19.3863C31.197 19.4236 31.1816 19.4626 31.1654 19.5033C31.042 19.8144 30.8786 20.2253 30.6753 20.7359C30.4453 21.3133 30.2475 21.8235 30.0819 22.2665C29.9163 22.7095 29.7704 23.1387 29.6443 23.5543C29.6315 23.5812 29.6254 23.6147 29.6261 23.6547C29.6279 23.7613 29.7164 23.8665 29.8916 23.9701C30.0668 24.0737 30.221 24.1244 30.3543 24.122C30.4477 24.1204 30.5202 24.0725 30.5719 23.9782C31.1418 22.248 31.9835 20.0463 33.097 17.3731C34.2236 14.6864 35.2375 12.4217 36.1389 10.579C36.3325 10.2156 36.429 10.0139 36.4283 9.97387C36.4267 9.88055 36.3317 9.78219 36.1432 9.6788C35.9547 9.57541 35.8071 9.52464 35.7004 9.5265C35.6471 9.52743 35.5946 9.57502 35.5429 9.66927C34.6194 11.2439 33.3145 14.1987 31.6282 18.5336C31.6119 18.5756 31.5956 18.6176 31.5792 18.6598C31.5592 18.6198 31.5391 18.5793 31.5192 18.5382C30.6013 16.6551 29.7226 13.7175 28.8829 9.72552C28.8681 9.64576 28.8074 9.60681 28.7008 9.60868C28.5142 9.61193 28.3348 9.6484 28.1626 9.71808C28.0036 9.7742 27.925 9.85559 27.9268 9.96224C28.1634 11.2916 28.565 12.9049 29.1315 14.802C29.6978 16.6857 30.2434 18.1497 30.7684 19.1941Z" fill="#181E32"/>
<path d="M41.788 12.0647C41.8311 12.0822 41.8904 12.1546 41.966 12.2816C42.0414 12.4025 42.0799 12.5057 42.0814 12.5913C42.0825 12.6524 42.0525 12.6865 41.9915 12.6937C41.9732 12.694 41.8782 12.6835 41.7067 12.662C41.5353 12.6467 41.3089 12.6323 41.0275 12.6189C40.746 12.5993 40.4617 12.5921 40.1745 12.5971C40.0707 12.5989 39.915 12.6108 39.7076 12.6327C39.5001 12.6486 39.3138 12.6579 39.1488 12.6608C39.0755 12.6621 39.0079 12.6388 38.9459 12.591L38.8994 12.5552C38.8746 12.5311 38.8435 12.5042 38.8063 12.4743C38.7753 12.4442 38.738 12.4082 38.6944 12.3662C38.657 12.3241 38.6197 12.285 38.5824 12.249C38.5511 12.2067 38.5228 12.1644 38.4977 12.1221C38.4786 12.0796 38.4688 12.0431 38.4682 12.0126C38.4671 11.9454 38.4903 11.8747 38.5379 11.8005C38.7286 11.5221 39.0038 11.1781 39.3633 10.7685C39.7289 10.3526 40.0466 9.99252 40.3163 9.68832C40.5921 9.38402 40.8428 9.04042 41.0684 8.65754C41.2939 8.26854 41.4191 7.91186 41.444 7.58749C41.4407 7.39807 41.3306 7.21969 41.1137 7.05233C40.8968 6.87887 40.6722 6.79417 40.44 6.79822C40.0307 6.80537 39.6298 6.95294 39.2376 7.24094C39.1771 7.27867 39.1218 7.2613 39.0716 7.18883L38.911 6.91659C38.8917 6.86192 38.9182 6.80339 38.9905 6.74101C39.4604 6.34775 39.9397 6.14685 40.4285 6.13832C40.8379 6.13118 41.2317 6.28016 41.6098 6.58527C41.9941 6.89028 42.1893 7.21692 42.1954 7.5652C42.2004 7.85238 42.0693 8.22445 41.8023 8.6814C41.5413 9.13825 41.2702 9.54026 40.989 9.88744C40.7077 10.2285 40.3483 10.6474 39.9108 11.144C39.4732 11.6344 39.2155 11.9293 39.1378 12.0284C39.266 12.0201 39.6784 12.0098 40.3749 11.9976C41.102 11.985 41.5731 12.0073 41.788 12.0647Z" fill="#181E32"/>
<path fill-rule="evenodd" clip-rule="evenodd" d="M41.8257 11.9722C41.8716 11.9909 41.9105 12.0303 41.942 12.0687C41.976 12.1101 42.0124 12.1644 42.0513 12.2297C42.1303 12.3565 42.1793 12.4779 42.1813 12.5896C42.1821 12.6363 42.1712 12.6874 42.1348 12.7288C42.0985 12.7701 42.0494 12.7877 42.0031 12.7931L41.9932 12.7943C41.9759 12.7946 41.9394 12.7904 41.8954 12.7855C41.8476 12.7802 41.7811 12.7722 41.696 12.7615C41.5268 12.7464 41.3025 12.7322 41.0227 12.7188L41.0205 12.7187C40.742 12.6994 40.4605 12.6922 40.1762 12.6972C40.0769 12.6989 39.9248 12.7104 39.718 12.7323L39.7151 12.7326C39.5061 12.7485 39.3179 12.758 39.1505 12.7609C39.0529 12.7626 38.9634 12.731 38.8847 12.6703L38.8295 12.6276C38.8074 12.6063 38.7793 12.581 38.7436 12.5523L38.7365 12.5466L38.7331 12.5427L38.7324 12.542L38.7241 12.534L38.7218 12.5318L38.7187 12.5288L38.7179 12.528L38.7171 12.5273L38.7163 12.5265L38.7155 12.5257L38.7147 12.525L38.7115 12.5219L38.7091 12.5195L38.7067 12.5172L38.7042 12.5148L38.7034 12.514L38.7025 12.5132L38.7017 12.5124L38.7009 12.5116L38.7001 12.5108L38.6992 12.51L38.6967 12.5076L38.6958 12.5067L38.6907 12.5018L38.6881 12.4993L38.6873 12.4984L38.6864 12.4976L38.6855 12.4968L38.6846 12.4959L38.6838 12.4951L38.6829 12.4942L38.6802 12.4917L38.6749 12.4865L38.674 12.4856L38.6712 12.483L38.6703 12.4821L38.6694 12.4812L38.6685 12.4803L38.6676 12.4794L38.6667 12.4785L38.6657 12.4777L38.6639 12.4759L38.663 12.475L38.6573 12.4695L38.6448 12.4575L38.6434 12.4561L38.6355 12.4485L38.629 12.4422L38.6194 12.4329C38.5835 12.3925 38.5482 12.3551 38.5128 12.321L38.5069 12.3153L38.502 12.3086C38.4688 12.2638 38.4387 12.2187 38.4116 12.1733L38.4058 12.1635C38.3838 12.1145 38.369 12.0637 38.3682 12.0144C38.3666 11.9222 38.3987 11.8323 38.4536 11.7466L38.4553 11.7441C38.6492 11.461 38.9273 11.1137 39.2881 10.7026C39.6537 10.2866 39.9715 9.92641 40.2414 9.62207L40.2421 9.62125C40.513 9.32245 40.7597 8.98454 40.982 8.60715C41.2014 8.22864 41.3195 7.8883 41.3438 7.58481C41.3396 7.43889 41.2544 7.28739 41.0526 7.13159L41.0512 7.13055C40.8487 6.96866 40.6462 6.89473 40.4417 6.8983C40.0567 6.90502 39.6755 7.04352 39.2967 7.32164L39.2906 7.32612C39.2418 7.35657 39.1825 7.37111 39.1207 7.35171C39.0633 7.33368 39.0208 7.29132 38.9893 7.24584L38.9852 7.23987L38.8199 6.95913L38.8167 6.94996C38.7759 6.83447 38.8442 6.73524 38.9251 6.66541L38.9262 6.66441C39.4091 6.26028 39.9097 6.04745 40.4267 6.03843C40.8636 6.0308 41.2795 6.1905 41.6722 6.50729C42.0697 6.82288 42.2885 7.1747 42.2953 7.56355C42.3008 7.87872 42.1583 8.2703 41.8888 8.73153C41.6257 9.19208 41.3517 9.59856 41.0667 9.95048C40.7844 10.2927 40.4237 10.7131 39.9858 11.2102C39.6992 11.5314 39.4906 11.7678 39.3597 11.9195C39.5733 11.9131 39.9116 11.9058 40.3731 11.8978C40.7378 11.8914 41.0397 11.8938 41.2782 11.9051C41.5147 11.9163 41.6953 11.9365 41.8137 11.9681L41.8257 11.9722ZM39.224 11.9242C39.185 11.9701 39.1562 12.0049 39.1377 12.0285C39.1673 12.0266 39.212 12.0246 39.2719 12.0224C39.4714 12.0153 39.8391 12.0071 40.3749 11.9977C41.102 11.9851 41.573 12.0074 41.7879 12.0648C41.831 12.0823 41.8903 12.1547 41.9659 12.2817C42.0413 12.4026 42.0798 12.5058 42.0813 12.5914C42.0824 12.6525 42.0524 12.6866 41.9914 12.6938C41.9731 12.6941 41.8782 12.6836 41.7067 12.6621C41.5353 12.6468 41.3089 12.6324 41.0275 12.6189C40.746 12.5994 40.4616 12.5922 40.1745 12.5972C40.0706 12.599 39.9149 12.6109 39.7075 12.6328C39.5 12.6487 39.3137 12.658 39.1487 12.6609C39.0754 12.6622 39.0078 12.6389 38.9458 12.5911L38.8994 12.5552C38.8745 12.5312 38.8435 12.5043 38.8063 12.4744L38.6944 12.3663C38.657 12.3242 38.6196 12.2851 38.5823 12.2491C38.551 12.2068 38.5228 12.1645 38.4976 12.1222C38.4785 12.0797 38.4687 12.0432 38.4682 12.0127C38.467 11.9455 38.4902 11.8748 38.5378 11.8006C38.7285 11.5222 39.0037 11.1782 39.3633 10.7685C39.7288 10.3527 40.0465 9.99261 40.3162 9.68842C40.5921 9.38411 40.8428 9.04052 41.0683 8.65763C41.2938 8.26864 41.419 7.91195 41.4439 7.58758C41.4406 7.39817 41.3305 7.21978 41.1137 7.05243C40.8967 6.87897 40.6721 6.79426 40.44 6.79832C40.0306 6.80546 39.6298 6.95303 39.2375 7.24104C39.177 7.27876 39.1217 7.26139 39.0716 7.18892L38.911 6.91668C38.8917 6.86201 38.9182 6.80349 38.9904 6.74111C39.4603 6.34784 39.9396 6.14695 40.4284 6.13842C40.8378 6.13127 41.2316 6.28025 41.6098 6.58537C41.994 6.89037 42.1892 7.21702 42.1953 7.5653C42.2003 7.85248 42.0693 8.22454 41.8022 8.68149C41.5412 9.13834 41.2702 9.54036 40.989 9.88754C40.7076 10.2286 40.3482 10.6474 39.9107 11.144C39.5775 11.5175 39.3486 11.7776 39.224 11.9242Z" fill="#181E32"/>
</svg>
