<svg width="50" height="34" viewBox="0 0 50 34" fill="none" xmlns="http://www.w3.org/2000/svg">
<g clip-path="url(#clip0_701_325)">
<path d="M19.2106 21.3507C19.0234 21.4245 18.8776 21.5659 18.7949 21.7392L16.9366 25.6592L15.2163 21.6767C15.1398 21.4955 14.9935 21.3542 14.8143 21.2739L10.7616 19.4711L14.8747 17.8159C15.0619 17.7421 15.2078 17.6007 15.2904 17.4274L17.1488 13.5022L18.869 17.4899C18.9455 17.6711 19.0918 17.8124 19.271 17.8927L23.3238 19.6904L19.2053 21.3506L19.2106 21.3507Z" stroke="#181E32" stroke-miterlimit="10" stroke-linejoin="round"/>
<path d="M29.2349 16.2059L29.2754 13.8839C29.2834 13.426 29.2592 12.9553 29.2071 12.4599C30.6357 12.124 31.5807 11.6298 31.8305 11.4882C31.8305 11.4882 31.8345 11.4883 31.8386 11.4884C31.8672 11.4726 31.8877 11.4608 31.8959 11.4529C31.941 11.4253 31.978 11.3935 32.011 11.3617C32.0193 11.3537 32.0276 11.3417 32.0358 11.3337C32.0606 11.3058 32.0815 11.2737 32.1023 11.2416C32.1066 11.2296 32.1148 11.2216 32.1191 11.2095C32.1401 11.1653 32.1612 11.1211 32.17 11.0766C32.1701 11.0726 32.1702 11.0685 32.1702 11.0645C32.1791 11.02 32.1839 10.9796 32.1847 10.935C32.1848 10.9269 32.1849 10.9228 32.185 10.9147C32.1852 10.9066 32.1853 10.8985 32.1814 10.8904C32.182 10.8539 32.1705 10.8172 32.163 10.7806C32.1633 10.7684 32.1594 10.7562 32.1556 10.744C32.1401 10.7032 32.1246 10.6624 32.101 10.6214C32.101 10.6214 32.101 10.6214 32.097 10.6173C32.0891 10.605 32.0811 10.5967 32.0732 10.5845C32.0535 10.5557 32.0296 10.531 32.0057 10.5063C31.9937 10.4939 31.9818 10.4815 31.9657 10.4731C31.9418 10.4524 31.9138 10.4317 31.8857 10.415C31.8736 10.4107 31.8697 10.4025 31.8577 10.3942C31.8296 10.3775 28.8729 8.84636 26.3762 5.80719L26.0778 5.4858C25.9107 5.30453 25.7395 5.13129 25.5562 4.94973C25.4326 4.83002 25.2929 4.70192 25.1413 4.56551C25.0735 4.50352 25.0137 4.44572 24.9736 4.4207C24.5704 4.06506 24.2223 3.79955 23.8974 3.60336L23.7409 3.51146C23.1518 3.12824 22.5815 2.82238 22.0102 2.57324C21.8333 2.49314 21.5392 2.38667 21.5352 2.3866C20.1864 1.86041 18.7806 1.5805 17.3664 1.55581C10.6802 1.431 5.147 6.77431 5.03029 13.4607L4.98941 15.8029C3.35143 16.054 2.08247 17.4587 2.05255 19.1729C2.01958 21.0613 3.50821 22.6317 5.38786 22.7009C6.82625 27.8457 11.4654 31.4574 16.8428 31.5512C22.2203 31.6451 26.9949 28.1856 28.6041 23.0819C30.4732 23.0618 32.0034 21.5522 32.0361 19.676C32.0659 17.9699 30.8548 16.526 29.2348 16.2099L29.2349 16.2059Z" stroke="#181E32" stroke-miterlimit="10"/>
<path d="M29.1259 12.4952C19.7772 13.9535 17.2104 10.0578 15.831 7.80421C15.4733 8.94648 12.906 12.8201 9.06685 12.1451" stroke="#181E32"/>
</g>
<defs>
<clipPath id="clip0_701_325">
<rect width="48" height="32" fill="white" transform="translate(1.3822 0.276855) rotate(1)"/>
</clipPath>
</defs>
</svg>
