<svg width="49" height="34" viewBox="0 0 49 34" fill="none" xmlns="http://www.w3.org/2000/svg">
<g clip-path="url(#clip0_703_1507)">
<path d="M6.25111 27.4434C7.53091 29.7076 9.4314 31.2725 11.7372 31.6776C14.1396 32.0998 16.5574 31.1885 18.5844 29.3503" stroke="#181E32"/>
<path d="M13.4201 25.6846C12.8328 25.7428 12.0648 25.8612 11.4788 25.8461C10.5717 25.8229 9.85747 25.6224 8.94043 25.4492" stroke="#181E32" stroke-linecap="round" stroke-linejoin="round"/>
<path d="M14.433 15.8504C14.433 15.8504 14.7365 15.036 16.037 15.107C17.3375 15.1779 18.6744 15.9244 18.6744 15.9244" stroke="#181E32"/>
<path d="M7.02233 15.1425C7.02233 15.1425 8.23401 14.778 9.29268 14.8929C10.3513 15.0078 10.6727 15.9294 10.6727 15.9294" stroke="#181E32"/>
<circle cx="16.2805" cy="17.5539" r="1" transform="rotate(1 16.2805 17.5539)" fill="#181E32"/>
<circle cx="8.28171" cy="17.4143" r="1" transform="rotate(1 8.28171 17.4143)" fill="#181E32"/>
<path d="M10.7901 16.9578C10.7552 18.9575 9.20302 21.9309 9.20302 21.9309C9.68549 22.9395 10.9783 23.3621 12.1851 22.9831" stroke="#181E32"/>
<path d="M6.66045 27.2187C5.87604 27.3925 2.68189 27.4157 4.66229 24.5269C2.58626 23.2224 4.16776 21.0988 5.21929 20.8965C2.03015 20.2891 1.84616 18.1899 1.92536 16.8123C0.22799 16.176 0.776068 13.2072 2.33831 12.1864C2.02065 11.3535 0.923979 7.80424 3.91857 6.97398C3.28395 5.41828 5.87339 2.42978 8.79203 2.70135C8.82186 0.992185 16.7263 0.0269944 18.9884 3.15534C23.4151 2.35003 24.3508 5.6207 24.3867 6.72449C27.1534 6.2212 28.8243 8.45669 27.4044 10.8037C29.7687 11.2311 30.3903 16.7026 27.286 17.5861C28.1984 19.0361 25.9 21.1472 24.15 20.2893C25.2249 21.9076 23.5312 24.1395 22.1013 23.8939C23.1782 25.402 20.5134 29.5475 18.5899 25.9838C19.1018 27.4829 19.1287 29.3215 18.0913 29.7131" stroke="#181E32" stroke-linejoin="round"/>
<path d="M5.0539 21.0036C6.88706 20.2634 4.48868 12.2236 7.89826 9.69067C11.1859 10.8515 12.1363 8.25567 13.15 7.05988C13.4973 12.246 22.262 5.00425 22.7047 11.3834C22.881 13.9237 21.464 16.1053 21.6566 17.7083C21.8493 19.3112 20.3145 22.854 22.2252 23.9905" stroke="#181E32" stroke-linejoin="round"/>
<path d="M29.5926 23.0486C29.67 23.0847 29.6897 23.1977 29.6517 23.3877C29.308 25.202 28.8555 28.0372 28.2941 31.8933C28.2921 32.006 28.2521 32.0616 28.1741 32.0603C27.8622 32.0548 27.6505 32.0164 27.5391 31.9452C27.5305 31.9363 27.5134 31.9274 27.4875 31.9182C27.4705 31.9006 27.4576 31.8917 27.449 31.8916C27.4405 31.8828 27.4276 31.8739 27.4104 31.8649C27.4021 31.8474 27.3936 31.8343 27.3851 31.8254C27.3853 31.8168 27.3812 31.8037 27.3728 31.7862C27.3646 31.7601 27.3606 31.7383 27.3609 31.721C27.3701 31.6952 27.3749 31.6649 27.3755 31.6303C27.4252 31.2671 27.7683 28.9934 28.4047 24.8092C28.2529 25.0666 28.027 25.3443 27.7271 25.6425C27.4272 25.9406 27.1415 26.1653 26.8702 26.3166C26.7391 26.375 26.6524 26.3778 26.61 26.3251C26.6015 26.3163 26.5504 26.2634 26.4567 26.1664C26.3719 26.0609 26.3126 25.9818 26.2789 25.9292C26.2618 25.9116 26.2581 25.8769 26.2677 25.825C26.2859 25.7733 26.3125 25.7391 26.3475 25.7224C27.3642 25.0814 28.1385 24.1718 28.6705 22.9935C28.7249 22.8558 28.8125 22.801 28.9334 22.8291C29.1497 22.8502 29.3695 22.9234 29.5926 23.0486Z" fill="#181E32"/>
<path d="M35.4762 23.6454C35.5356 23.7158 35.5247 23.8456 35.4434 24.0349C34.8418 25.2292 34.4016 26.1144 34.1228 26.6903C33.8529 27.2576 33.5142 28.0405 33.1067 29.0389C32.7079 30.0374 32.3746 31.0067 32.1068 31.9469C32.0613 32.0674 31.9913 32.1095 31.8965 32.0732C31.7156 32.0094 31.5096 31.8974 31.2783 31.7374C31.2097 31.6928 31.2069 31.6104 31.2696 31.4902C31.5313 30.4026 31.9917 29.1061 32.6507 27.6007C33.3184 26.0955 33.9522 24.7933 34.5522 23.6943C33.4686 23.7014 32.3539 23.7513 31.2081 23.844C31.0864 23.8592 31.0047 23.8231 30.9629 23.7357C30.8375 23.4734 30.7706 23.3292 30.7624 23.3031C30.7212 23.181 30.7616 23.1037 30.8835 23.0712C31.1707 23.0068 31.683 22.9551 32.4204 22.916C33.1667 22.8683 33.8821 22.8505 34.5667 22.8624C34.7747 22.866 34.8958 22.8812 34.93 22.9078C35.041 23.005 35.223 23.2509 35.4762 23.6454Z" fill="#181E32"/>
<path d="M36.741 31.5467C38.0092 30.3986 38.8559 29.3169 39.281 28.3015C38.7732 28.5874 38.2637 28.7258 37.7525 28.7169C37.2412 28.708 36.8146 28.5705 36.4725 28.3045C36.1306 28.0298 35.9017 27.7311 35.786 27.4084C35.6705 27.077 35.6156 26.7423 35.6215 26.4044C35.6377 25.4772 35.9295 24.6501 36.497 23.9233C37.0732 23.1879 37.734 22.8267 38.4792 22.8397C38.7045 22.8436 38.9549 22.9 39.2303 23.0088C39.5058 23.1177 39.7761 23.2741 40.0413 23.4781C40.3066 23.6734 40.5229 23.9415 40.6903 24.2825C40.8666 24.615 40.9512 24.9805 40.9442 25.3791C40.9324 26.055 40.8254 26.7249 40.6231 27.3888C40.4295 28.0529 40.1941 28.6295 39.9168 29.1187C39.6484 29.5995 39.3369 30.0621 38.9824 30.5066C38.6368 30.9427 38.3274 31.2883 38.0542 31.5436C37.781 31.7989 37.5259 32.0155 37.2887 32.1933C37.2711 32.2104 37.245 32.2186 37.2103 32.218C37.167 32.2172 37.0599 32.146 36.889 32.0043C36.7181 31.8627 36.6332 31.7615 36.6342 31.7008C36.6348 31.6662 36.6704 31.6148 36.741 31.5467ZM38.0388 27.9548C38.5676 27.9554 39.0825 27.752 39.5837 27.3447C39.8265 26.8462 39.9552 26.1766 39.9698 25.3361C39.9783 24.8508 39.8075 24.4535 39.4576 24.144C39.1164 23.826 38.8072 23.6645 38.5299 23.6597C38.0446 23.6512 37.6064 23.9253 37.2153 24.4819C36.833 25.03 36.6358 25.655 36.6235 26.3568C36.6155 26.8161 36.7216 27.195 36.9417 27.4936C37.1619 27.7921 37.5276 27.9459 38.0388 27.9548Z" fill="#181E32"/>
<path d="M42.948 31.655C44.2162 30.507 45.0629 29.4253 45.488 28.4099C44.9803 28.6957 44.4708 28.8342 43.9596 28.8253C43.4483 28.8163 43.0216 28.6789 42.6796 28.4129C42.3376 28.1382 42.1088 27.8395 41.9931 27.5167C41.8775 27.1853 41.8227 26.8507 41.8286 26.5127C41.8448 25.5855 42.1366 24.7585 42.704 24.0316C43.2803 23.2962 43.941 22.935 44.6862 22.948C44.9115 22.952 45.1619 23.0084 45.4374 23.1172C45.7129 23.226 45.9832 23.3824 46.2483 23.5864C46.5136 23.7817 46.73 24.0499 46.8974 24.3908C47.0736 24.7233 47.1583 25.0888 47.1513 25.4874C47.1395 26.1633 47.0325 26.8332 46.8302 27.4972C46.6366 28.1612 46.4011 28.7379 46.1239 29.2271C45.8554 29.7078 45.544 30.1704 45.1895 30.615C44.8438 31.051 44.5344 31.3967 44.2613 31.652C43.9881 31.9072 43.733 32.1238 43.4958 32.3017C43.4782 32.3187 43.452 32.3269 43.4174 32.3263C43.374 32.3256 43.2669 32.2544 43.096 32.1127C42.9252 31.971 42.8402 31.8698 42.8413 31.8092C42.8419 31.7745 42.8775 31.7231 42.948 31.655ZM44.2459 28.0631C44.7746 28.0637 45.2896 27.8603 45.7908 27.453C46.0335 26.9545 46.1622 26.285 46.1769 25.4444C46.1854 24.9592 46.0146 24.5618 45.6646 24.2523C45.3235 23.9343 45.0142 23.7729 44.7369 23.7681C44.2517 23.7596 43.8135 24.0336 43.4224 24.5902C43.0401 25.1383 42.8428 25.7633 42.8306 26.4652C42.8226 26.9245 42.9286 27.3034 43.1488 27.6019C43.3689 27.9005 43.7346 28.0542 44.2459 28.0631Z" fill="#181E32"/>
</g>
<defs>
<clipPath id="clip0_703_1507">
<rect width="48" height="32" fill="white" transform="translate(0.579651 0.276855) rotate(1)"/>
</clipPath>
</defs>
</svg>
