<svg width="48" height="32" viewBox="0 0 48 32" fill="none" xmlns="http://www.w3.org/2000/svg">
<path d="M2.50195 3L2.50195 29M45.5 3L45.5 29" stroke="#181E32"/>
<path d="M6 20.1429L8.32197 25.0795C8.68192 25.8447 9.77023 25.8455 10.1312 25.0807L12.0969 20.916C12.4576 20.1518 13.5449 20.1518 13.9056 20.916L15.8729 25.084C16.2336 25.8482 17.3208 25.8482 17.6816 25.084L19.6489 20.916C20.0096 20.1518 21.0968 20.1518 21.4575 20.916L23.4248 25.084C23.7855 25.8482 24.8728 25.8482 25.2335 25.084L27.2008 20.916C27.5615 20.1518 28.6487 20.1518 29.0094 20.916L30.9046 24.9313C31.277 25.7201 32.4103 25.6874 32.7364 24.8784L34.2574 21.1059C34.5826 20.2993 35.7113 20.2636 36.0868 21.048L38.0029 25.0505C38.3709 25.8192 39.4702 25.8047 39.8179 25.0266L42 20.1429" stroke="#181E32"/>
</svg>
