<svg width="36" height="36" viewBox="0 0 36 36" fill="none" xmlns="http://www.w3.org/2000/svg">
<path d="M14.3152 22.8506C14.2477 22.8859 14.182 22.9296 14.1181 22.9806H8.70297V28.5509L12.1253 32H23.6452L27.0007 28.6483V18.2402L23.5236 14.8799H19.178C19.1635 14.5611 19.2304 14.2797 19.2304 14.2797C19.6949 14.051 20.1693 14.6275 20.1693 14.6275C20.3912 14.6087 20.6716 14.7691 20.6716 14.7691C21.0012 14.6608 21.99 14.9163 22.035 14.844C22.0727 14.2536 21.8318 13.8934 21.6343 13.7007H27.0019V8.04893L23.1782 4.13721H12.6824L8.69458 8.09766V18.2863L12.1583 21.75H15.3089C15.2366 21.935 15.1617 22.088 15.1617 22.088L14.3152 22.8506ZM20.1297 12.763C20.0161 12.7106 19.8659 12.7094 19.8659 12.7094L19.658 12.4849C19.658 12.018 19.1497 12.145 19.1497 12.145L19.1922 11.8909C19.3314 11.8909 19.7177 11.9461 20.1311 12.0034V12.7628L20.1297 12.763ZM19.7387 23.5694L20.4385 23.5973V25.2855H18.7748L18.7736 24.9997L18.7918 23.4671C18.8203 23.0974 19.0957 23.3175 19.0957 23.3175C19.329 23.5524 19.7387 23.5694 19.7387 23.5694ZM20.1297 11.1088C20.1098 11.1016 20.0896 11.0912 20.0696 11.0826H20.1297V11.1088ZM12.3449 21.2988L9.15196 18.1062V8.30299L12.8632 4.60817H22.9805L26.586 8.30538V13.2473H21.0735C21.0339 13.1836 21.0078 13.1337 21.0078 13.1337C20.9105 12.9567 20.7395 12.891 20.5851 12.8686V12.0653C21.0211 12.1224 21.3974 12.1626 21.442 12.1176C21.6463 11.9121 21.1196 11.582 20.5851 11.3191V10.6344H19.0933C18.7224 10.385 18.6647 10.1699 18.6647 10.1699C18.5377 9.36415 19.4273 9.69311 19.4273 9.69311C19.8979 9.72906 19.9951 9.46142 19.9951 9.46142C19.8134 8.93533 19.1493 8.76636 19.0434 8.72122C18.9176 8.66889 18.8976 8.62136 18.9461 8.52489C18.9795 8.45857 19.3372 8.62036 19.4533 8.50611C19.7183 8.23967 18.7953 7.65047 18.7953 7.65047C19.3961 7.61711 18.7332 7.00294 18.7332 7.00294C18.3338 6.68677 18.473 6.40874 18.473 6.40874C18.895 6.45128 18.8938 6.00928 18.8281 5.9927C18.2065 5.8505 18.3124 5.60782 18.3124 5.60782C18.3124 5.39611 18.2089 5.1768 18.2089 5.1768C18.2934 4.79612 18.1215 4.87222 18.1215 4.87222C17.8678 4.87222 18.0144 5.09911 18.0144 5.09911C17.9227 5.48219 17.6587 5.74723 17.6587 5.74723C17.0853 5.73625 17.3845 6.27452 17.3845 6.27452L17.7408 6.24237L17.6575 6.5907C16.8304 6.95201 17.0567 7.5472 17.5281 7.60193C17.57 7.70899 17.5031 7.80506 17.5031 7.80506C17.0124 7.82623 17.1102 8.01437 16.6956 8.2163C16.3744 8.37549 16.3818 8.53967 16.4068 8.65591C16.4541 8.8876 16.7643 8.66689 16.7643 8.66689L16.4591 9.08153C15.4381 9.53572 16.3387 9.83252 16.3387 9.83252C17.142 9.35217 17.4558 9.53572 17.4558 9.53572C17.5828 10.0404 17.3309 10.398 17.0373 10.632H15.4581C15.4581 10.7762 15.4581 11.0267 15.4581 11.3417C14.9635 11.684 14.7832 12.1424 14.7832 12.1424C14.4444 12.4823 14.6134 12.6509 14.6134 12.6509C14.7818 12.7354 15.1387 12.5986 15.4569 12.441C15.4569 12.7578 15.4569 13.0879 15.4569 13.4067C15.4307 13.4189 15.4131 13.4279 15.4131 13.4279C15.2014 13.8511 14.3959 14.191 14.3959 14.191C13.4218 14.6129 13.8876 15.1663 13.8876 15.1663C14.0432 15.1925 14.8527 15.0251 15.4571 14.8945C15.4571 15.089 15.4571 15.246 15.4571 15.3493C15.6486 15.3493 16.1819 15.3493 16.8831 15.3493C16.7038 15.6539 16.3888 15.9706 16.3888 15.9706C16.2604 16.3939 15.7533 16.5648 15.7533 16.5648C14.3971 16.903 14.4806 17.3687 14.4806 17.3687L15.4978 17.2843C15.7946 17.0306 16.0073 17.2843 16.0073 17.2843L16.3461 17.3687C16.517 17.623 16.2652 18.3758 16.2652 18.3758H15.5877C15.5451 18.6312 15.0794 18.6289 15.0794 18.6289C14.8676 18.5462 14.6124 18.8002 14.6124 18.8002C14.5279 18.9694 14.1466 19.1396 14.1466 19.1396C13.8079 19.2223 14.0621 19.3926 14.0621 19.3926C14.3595 19.1809 14.3595 19.6457 14.3595 19.6457C14.275 19.8584 13.5854 19.8488 13.5964 20.0276C13.6177 20.3437 15.9278 19.3902 15.9278 19.3902C16.2238 19.1398 16.4355 19.2662 16.4355 19.2662C16.6476 19.6043 16.0123 20.0276 16.0123 20.0276C15.7582 20.3242 15.3446 20.4873 15.3446 20.4873C14.3661 20.6455 14.2561 21.2122 14.2463 21.2961C13.138 21.2988 12.3449 21.2988 12.3449 21.2988ZM16.055 12.1033C16.522 11.6361 16.8608 12.1033 16.8608 12.1033C17.6665 12.4005 17.1162 12.6955 17.1162 12.6955C17.0104 12.6955 16.3878 12.9759 15.9256 13.1888V12.1841C16.0063 12.1366 16.055 12.1033 16.055 12.1033ZM15.9254 11.1066V11.0828H15.9935C15.9698 11.0902 15.9478 11.0992 15.9254 11.1066ZM16.1345 14.7417C16.8977 14.4467 16.9403 14.8711 16.9403 14.8711C16.9426 14.8737 16.944 14.8749 16.9464 14.8785H15.9254V14.7914C16.055 14.7617 16.1345 14.7417 16.1345 14.7417ZM17.5594 23.5402C17.6974 23.8246 17.7236 24.6006 17.7236 24.6006V24.7588L17.7084 25.2879H16.1809V23.8989C16.5172 23.6545 16.7433 23.1947 16.7433 23.1947C17.1745 23.0149 17.4206 23.2556 17.5594 23.5402ZM14.3 21.2988L15.3386 21.0859C15.4219 21.0971 15.4431 21.181 15.4335 21.2988C15.0346 21.2988 14.6527 21.2988 14.3 21.2988ZM15.3324 24.2491C15.4594 24.034 15.6712 24.0375 15.6712 24.0375C15.6863 24.0399 15.6997 24.0387 15.7137 24.0411C15.7137 24.5958 15.7137 25.3935 15.7137 25.7596C16.0135 25.7596 16.8284 25.7596 17.7296 25.7596L17.6936 26.5611C17.6838 26.9213 17.6603 27.6896 17.6309 27.9085C17.5452 28.5592 17.3968 28.6505 17.305 28.7102C17.1755 28.7917 16.9852 28.8257 16.706 28.9449C16.0193 29.2343 16.0784 29.958 15.7471 30.1685C15.342 30.4263 15.4533 30.3436 15.0933 30.4237C14.732 30.504 14.5375 30.9041 14.5375 30.9041H21.8966C21.868 30.6766 21.9177 30.4711 21.0557 30.1853C20.2152 29.9066 20.6397 29.756 19.5567 29.2052C19.1668 29.008 18.9613 28.3076 18.8543 27.7833C18.7734 27.3844 18.8213 27.2021 18.8213 27.2021L18.7794 25.9943L18.7782 25.7596C19.7195 25.7596 20.5825 25.7596 20.8925 25.7596C20.8925 25.4227 20.8937 24.5313 20.8937 23.6215C21.3972 23.708 22.2389 24.3745 22.2389 24.3745C23.1291 24.8842 22.9601 24.3306 22.9601 24.3306C22.7059 22.5112 21.6459 22.341 21.6459 22.341C21.011 22.1705 21.4342 21.7886 21.4342 21.7886C22.198 21.1964 21.2962 21.0334 21.2962 21.0334C20.7034 21.1149 20.0744 20.7148 20.0744 20.7148C19.0145 19.9085 19.4019 19.3916 19.4019 19.3916C19.4864 18.8406 20.7459 19.6579 20.7459 19.6579C21.0847 19.9547 21.4234 19.698 21.4234 19.698C21.4653 19.529 21.8606 19.2213 21.8606 19.2213C22.5812 18.6702 20.8426 18.545 20.8426 18.545C20.0155 18.0281 19.5078 17.8529 19.2621 17.2048C19.1928 17.0228 19.1892 16.9018 19.1892 16.9018C19.1892 16.9018 20.4917 17.0228 20.5642 17.0392C20.6371 17.055 21.1066 17.1073 21.0944 16.9431C21.0861 16.8227 20.8568 16.4676 20.3247 16.2281C19.8589 16.02 19.4604 15.6109 19.3001 15.3463C21.3014 15.3463 23.3214 15.3463 23.3214 15.3463L26.587 18.4802V28.4081L23.3963 31.6005H12.362L9.15915 28.3611V23.4525H13.6785C13.158 24.169 12.8466 25.1722 12.8466 25.1722C12.804 25.6807 13.5143 25.2575 13.5143 25.2575C13.5143 25.2575 13.5854 25.1297 13.6085 25.0871C13.8604 24.6625 14.5427 24.6212 14.5427 24.6212C14.88 24.7029 15.3324 24.2491 15.3324 24.2491Z" fill="#181E32" stroke="#181E32" stroke-width="0.5"/>
<path d="M19.6193 19.5633L19.6266 19.5535V19.551L19.6193 19.5633Z" fill="#181E32"/>
<rect x="0.5" y="0.5" width="35" height="35" rx="17.5" stroke="#181E32"/>
</svg>
