<svg width="36" height="36" viewBox="0 0 36 36" fill="none" xmlns="http://www.w3.org/2000/svg">
<path d="M18.1071 32.6548L18.0428 32.6333C17.9358 32.5905 7.97796 28.2862 7.20703 15.1804V7H28.793V15.1804C28.793 18.414 27.7651 26.5516 18.1499 32.6333L18.1071 32.6548ZM7.48542 7.23556V15.159C8.21352 27.5795 17.2719 31.9909 18.1071 32.355C27.551 26.3374 28.5789 18.3284 28.5789 15.159V7.23556H7.48542Z" fill="#181E32" stroke="#181E32" stroke-width="0.8"/>
<path d="M23.547 17.4718C23.547 17.4718 23.3543 18.0714 22.5191 17.4504L19.6067 17.3862C19.6067 17.3862 19.2212 17.5147 19.1784 17.1078C19.1784 17.1078 19.2427 16.3154 19.2212 16.2512C19.2212 16.2512 19.2427 16.0156 18.8572 16.0156C18.8572 16.0156 18.2576 16.0799 18.2576 15.5659C18.2576 15.5659 18.1505 15.0091 18.9643 15.0306C18.9643 15.0306 19.2212 15.1591 19.2427 14.8164C19.2427 14.8164 19.1998 12.5679 19.2212 12.3966C19.2212 12.3966 19.2855 12.1824 18.9 12.161C18.9 12.161 18.3218 12.2895 18.2576 11.904C18.2576 11.904 18.2147 11.3258 18.6002 11.3044C18.6002 11.3044 19.0713 11.3472 19.157 11.2188C19.157 11.2188 19.2641 11.283 19.2427 10.8761L19.2641 10.1694C19.2641 10.1694 19.3069 9.9767 19.6067 9.99812C19.6067 9.99812 20.1421 10.0409 20.2063 9.9767C20.2063 9.9767 20.3348 9.8268 20.3562 9.76256C20.3562 9.76256 20.6346 9.74114 20.6774 9.80538C20.6774 9.80538 21.0843 10.0838 22.669 9.9767C22.669 9.9767 22.9046 9.9767 22.9688 10.0409C22.9688 10.0409 23.2686 10.2765 23.4399 10.0195C23.4399 10.0195 23.6969 9.9767 24.4678 9.9767C24.4678 9.9767 25.3244 10.1908 25.9026 9.71973L26.0953 9.76256C26.0953 9.76256 26.3309 10.1694 26.5022 10.0409C26.5022 10.0409 27.0162 9.99812 27.1018 10.0838C27.1018 10.0838 27.2732 10.3408 27.1875 11.026C27.1875 11.026 27.0804 11.3258 27.5944 11.3258C27.5944 11.3258 28.1726 11.2188 28.0869 11.7541C28.0869 11.7541 28.2368 12.3537 27.2946 12.2681C27.2946 12.2681 27.1661 12.4394 27.1875 12.5679C27.1875 12.5679 27.1661 14.538 27.1447 14.7522C27.1447 14.7522 27.1232 15.052 27.5515 15.052C27.5515 15.052 28.1083 15.0091 28.1297 15.5231C28.1297 15.5231 28.194 16.187 27.4016 16.0585C27.4016 16.0585 27.1661 16.1013 27.1232 16.2512L27.0804 17.1078C27.0804 17.1078 27.1018 17.5361 26.6093 17.429C26.545 17.429 23.911 17.4718 23.6969 17.4076C23.6969 17.4076 23.5684 17.4076 23.547 17.4718Z" fill="#F8F2FC"/>
<path d="M17.957 20.3628C17.957 20.3628 18.0855 20.32 18.1069 20.2343C18.1069 20.2343 18.471 20.1915 18.5138 20.1487L19.6488 20.2343C19.6488 20.2343 20.7624 20.32 21.2549 19.9774C21.2549 19.9774 21.4262 19.9774 21.5547 20.0202C21.5547 20.0202 21.7903 20.063 21.8545 20.1701L22.5184 20.1487C22.5184 20.1487 22.9038 20.2772 22.861 20.5127V20.8339C22.861 20.8339 22.7968 21.455 22.9681 21.4978H23.4606C23.4606 21.4978 23.8675 21.6905 23.8247 21.9261C23.8247 21.9261 23.8461 22.2687 23.482 22.333C23.482 22.333 23.118 22.44 22.9895 22.4186C22.9895 22.4186 22.861 22.5685 22.8396 22.7613L22.7968 25.0312C22.7968 25.0312 22.7539 25.2668 23.118 25.2454C23.118 25.2454 23.6533 25.2025 23.8032 25.4809C23.8032 25.4809 23.9317 25.9735 23.6748 26.0591L23.4606 26.1662L23.0109 26.2304C23.0109 26.2304 22.8182 26.2519 22.7968 26.5731V27.1727C22.7968 27.1727 22.8182 27.5796 22.497 27.5796L22.0044 27.6224C22.0044 27.6224 21.8759 27.7295 21.6404 27.6652C21.6404 27.6652 18.7066 27.708 18.5995 27.6866L18.2568 27.7509C18.2568 27.7509 17.8714 28.0935 17.5716 27.8365L17.336 27.6438C17.336 27.6438 17.1647 27.6866 17.1005 27.6652C17.0362 27.6438 13.8454 27.708 13.8454 27.708C13.8454 27.708 13.1602 27.7723 13.1173 27.5581C13.1173 27.5581 13.0317 26.6801 13.0745 26.5731C13.0745 26.5731 13.0745 26.3161 12.9246 26.2947C12.9246 26.2947 12.2393 26.2519 12.2393 26.1876C12.2393 26.1876 11.8753 25.9306 11.9824 25.6737C11.9824 25.6737 12.1108 25.331 12.4749 25.2882C12.4749 25.2882 13.0317 25.3738 13.0317 25.2239C13.0317 25.2239 13.0745 25.1169 13.0745 24.9456C13.0745 24.9456 13.1173 22.8898 13.0959 22.7398C13.0959 22.7398 13.1387 22.4829 12.9246 22.4829C12.9246 22.4829 12.689 22.5471 12.5177 22.44C12.5177 22.44 12.1108 22.4615 12.0252 22.1402C12.0252 22.1402 11.9609 21.9261 12.068 21.7548C12.068 21.7548 12.2607 21.3693 12.8175 21.4978C12.8175 21.4978 13.1173 21.5835 13.1602 21.3693L13.1387 20.5341C13.1387 20.5341 13.0745 20.2986 13.5028 20.1915C13.5028 20.1915 14.0596 20.3414 14.2309 20.063C14.2309 20.063 14.4236 19.6776 14.5735 19.9345C14.5735 19.9345 14.8947 20.2557 15.7942 20.2129C15.7942 20.2129 17.3574 20.0844 17.3789 20.1701C17.3789 20.1701 17.7643 20.2129 17.8714 20.3414L17.957 20.3628Z" fill="#F8F2FC"/>
<path d="M13.267 17.4718C13.267 17.4718 13.0742 18.0714 12.2391 17.4504L9.32667 17.3861C9.32667 17.3861 8.94121 17.5146 8.89838 17.1077C8.89838 17.1077 8.96262 16.3154 8.94121 16.2511C8.94121 16.2511 8.96262 16.0156 8.57716 16.0156C8.57716 16.0156 7.99896 16.0798 7.97755 15.5659C7.97755 15.5659 7.87047 15.0091 8.68423 15.0305C8.68423 15.0305 8.94121 15.159 8.96262 14.8163C8.96262 14.8163 8.91979 12.5678 8.94121 12.3965C8.94121 12.3965 9.00545 12.1823 8.61999 12.1609C8.61999 12.1609 8.04179 12.2894 7.97755 11.904C7.97755 11.904 7.93472 11.3258 8.32018 11.3043C8.32018 11.3043 8.79131 11.3472 8.87697 11.2187C8.87697 11.2187 8.98404 11.2829 8.96262 10.876L8.98404 10.1694C8.98404 10.1694 9.02687 9.97663 9.32667 9.99805C9.32667 9.99805 9.86204 10.0409 9.92628 9.97663C9.92628 9.97663 10.0548 9.82673 10.0762 9.74107C10.0762 9.74107 10.3546 9.71966 10.3974 9.7839C10.3974 9.7839 10.8043 10.0623 12.389 9.95522C12.389 9.95522 12.6245 9.95522 12.6888 10.0195C12.6888 10.0195 12.9886 10.2336 13.1599 9.99805C13.1599 9.99805 13.4169 9.95522 14.1878 9.95522C14.1878 9.95522 15.023 10.1694 15.6226 9.69824L15.8153 9.74107C15.8153 9.74107 16.0509 10.1479 16.2222 10.0195C16.2222 10.0195 16.7361 9.97664 16.8218 10.0623C16.8218 10.0623 16.9931 10.3193 16.9075 11.0045C16.9075 11.0045 16.8004 11.3043 17.3143 11.3043C17.3143 11.3043 17.8925 11.1973 17.8069 11.7326C17.8069 11.7326 17.9568 12.3322 17.0145 12.2466C17.0145 12.2466 16.886 12.4179 16.9075 12.5464C16.9075 12.5464 16.886 14.5165 16.8646 14.7307C16.8646 14.7307 16.8432 15.0305 17.2715 15.0305C17.2715 15.0305 17.8283 14.9877 17.8497 15.5016C17.8497 15.5016 17.914 16.1655 17.1216 16.037C17.1216 16.037 16.886 16.0798 16.8432 16.2297L16.8004 17.0863C16.8004 17.0863 16.8218 17.5146 16.3293 17.4075C16.265 17.4075 13.631 17.4503 13.4169 17.3861C13.4169 17.4075 13.2884 17.4075 13.267 17.4718Z" fill="#F8F2FC"/>
<path d="M23.547 17.4718C23.547 17.4718 23.3543 18.0714 22.5191 17.4504L19.6067 17.3862C19.6067 17.3862 19.2212 17.5147 19.1784 17.1078C19.1784 17.1078 19.2427 16.3154 19.2212 16.2512C19.2212 16.2512 19.2427 16.0156 18.8572 16.0156C18.8572 16.0156 18.2576 16.0799 18.2576 15.5659C18.2576 15.5659 18.1505 15.0091 18.9643 15.0306C18.9643 15.0306 19.2212 15.1591 19.2427 14.8164C19.2427 14.8164 19.1998 12.5679 19.2212 12.3966C19.2212 12.3966 19.2855 12.1824 18.9 12.161C18.9 12.161 18.3218 12.2895 18.2576 11.904C18.2576 11.904 18.2147 11.3258 18.6002 11.3044C18.6002 11.3044 19.0713 11.3472 19.157 11.2188C19.157 11.2188 19.2641 11.283 19.2427 10.8761L19.2641 10.1694C19.2641 10.1694 19.3069 9.9767 19.6067 9.99812C19.6067 9.99812 20.1421 10.0409 20.2063 9.9767C20.2063 9.9767 20.3348 9.8268 20.3562 9.76256C20.3562 9.76256 20.6346 9.74114 20.6774 9.80538C20.6774 9.80538 21.0843 10.0838 22.669 9.9767C22.669 9.9767 22.9046 9.9767 22.9688 10.0409C22.9688 10.0409 23.2686 10.2765 23.4399 10.0195C23.4399 10.0195 23.6969 9.9767 24.4678 9.9767C24.4678 9.9767 25.3244 10.1908 25.9026 9.71973L26.0953 9.76256C26.0953 9.76256 26.3309 10.1694 26.5022 10.0409C26.5022 10.0409 27.0162 9.99812 27.1018 10.0838C27.1018 10.0838 27.2732 10.3408 27.1875 11.026C27.1875 11.026 27.0804 11.3258 27.5944 11.3258C27.5944 11.3258 28.1726 11.2188 28.0869 11.7541C28.0869 11.7541 28.2368 12.3537 27.2946 12.2681C27.2946 12.2681 27.1661 12.4394 27.1875 12.5679C27.1875 12.5679 27.1661 14.538 27.1447 14.7522C27.1447 14.7522 27.1232 15.052 27.5515 15.052C27.5515 15.052 28.1083 15.0091 28.1297 15.5231C28.1297 15.5231 28.194 16.187 27.4016 16.0585C27.4016 16.0585 27.1661 16.1013 27.1232 16.2512L27.0804 17.1078C27.0804 17.1078 27.1018 17.5361 26.6093 17.429C26.545 17.429 23.911 17.4718 23.6969 17.4076C23.6969 17.4076 23.5684 17.4076 23.547 17.4718Z" fill="#181E32"/>
<path d="M23.547 17.4718C23.547 17.4718 23.3543 18.0714 22.5191 17.4504L19.6067 17.3862C19.6067 17.3862 19.2212 17.5147 19.1784 17.1078C19.1784 17.1078 19.2427 16.3154 19.2212 16.2512C19.2212 16.2512 19.2427 16.0156 18.8572 16.0156C18.8572 16.0156 18.2576 16.0799 18.2576 15.5659C18.2576 15.5659 18.1505 15.0091 18.9643 15.0306C18.9643 15.0306 19.2212 15.1591 19.2427 14.8164C19.2427 14.8164 19.1998 12.5679 19.2212 12.3966C19.2212 12.3966 19.2855 12.1824 18.9 12.161C18.9 12.161 18.3218 12.2895 18.2576 11.904C18.2576 11.904 18.2147 11.3258 18.6002 11.3044C18.6002 11.3044 19.0713 11.3472 19.157 11.2188C19.157 11.2188 19.2641 11.283 19.2427 10.8761L19.2641 10.1694C19.2641 10.1694 19.3069 9.9767 19.6067 9.99812C19.6067 9.99812 20.1421 10.0409 20.2063 9.9767C20.2063 9.9767 20.3348 9.8268 20.3562 9.76256C20.3562 9.76256 20.6346 9.74114 20.6774 9.80538C20.6774 9.80538 21.0843 10.0838 22.669 9.9767C22.669 9.9767 22.9046 9.9767 22.9688 10.0409C22.9688 10.0409 23.2686 10.2765 23.4399 10.0195C23.4399 10.0195 23.6969 9.9767 24.4678 9.9767C24.4678 9.9767 25.3244 10.1908 25.9026 9.71973L26.0953 9.76256C26.0953 9.76256 26.3309 10.1694 26.5022 10.0409C26.5022 10.0409 27.0162 9.99812 27.1018 10.0838C27.1018 10.0838 27.2732 10.3408 27.1875 11.026C27.1875 11.026 27.0804 11.3258 27.5944 11.3258C27.5944 11.3258 28.1726 11.2188 28.0869 11.7541C28.0869 11.7541 28.2368 12.3537 27.2946 12.2681C27.2946 12.2681 27.1661 12.4394 27.1875 12.5679C27.1875 12.5679 27.1661 14.538 27.1447 14.7522C27.1447 14.7522 27.1232 15.052 27.5515 15.052C27.5515 15.052 28.1083 15.0091 28.1297 15.5231C28.1297 15.5231 28.194 16.187 27.4016 16.0585C27.4016 16.0585 27.1661 16.1013 27.1232 16.2512L27.0804 17.1078C27.0804 17.1078 27.1018 17.5361 26.6093 17.429C26.545 17.429 23.911 17.4718 23.6969 17.4076C23.6969 17.4076 23.5684 17.4076 23.547 17.4718Z" stroke="#181E32" stroke-width="0.03512"/>
<path d="M20.27 10.3406C20.27 10.3406 20.3128 10.6833 20.3128 10.7689C20.3128 10.8546 20.27 15.7585 20.27 15.7585C20.27 15.7585 20.3128 16.144 19.9916 16.3367C19.9916 16.3367 19.9059 16.3796 19.8845 16.1226L19.9274 10.9402C19.9059 10.9402 19.9488 10.3192 20.27 10.3406Z" fill="#F8F2FC"/>
<path d="M20.27 10.3406C20.27 10.3406 20.3128 10.6833 20.3128 10.7689C20.3128 10.8546 20.27 15.7585 20.27 15.7585C20.27 15.7585 20.3128 16.144 19.9916 16.3367C19.9916 16.3367 19.9059 16.3796 19.8845 16.1226L19.9274 10.9402C19.9059 10.9402 19.9488 10.3192 20.27 10.3406Z" stroke="#181E32" stroke-width="0.036876"/>
<path d="M19.6918 16.4009C19.6918 16.4009 19.7346 11.5183 19.7132 11.4327C19.6918 11.347 19.7346 11.4969 19.7346 11.4969C19.7346 11.4969 19.6918 10.6403 19.9059 10.2977C19.9059 10.2977 19.8417 9.99791 19.4348 10.362L19.4134 11.0686C19.4134 11.0686 19.4134 11.4755 19.0494 11.4541C19.0494 11.4541 18.6425 11.4327 18.4497 11.6254C18.4497 11.6254 18.3427 12.0109 18.7495 11.9466C18.7495 11.9466 19.3706 11.9466 19.4134 12.2036L19.3706 14.8162C19.3706 14.8162 19.5205 15.2445 19.0279 15.2445C19.0279 15.2445 18.4283 15.2017 18.4497 15.5657C18.4497 15.5657 18.5782 15.8655 19.0708 15.7799C19.0708 15.7799 19.4348 15.8441 19.4134 16.1867V16.8506C19.4134 16.8506 19.3706 17.1076 19.7132 17.129H22.4115C22.4115 17.129 22.5399 17.1504 22.5399 16.9791C22.5399 16.9791 22.5185 16.8506 22.3258 16.8506L20.0773 16.8078C20.0987 16.8078 19.7346 16.9363 19.6918 16.4009Z" fill="#F8F2FC"/>
<path d="M20.2276 16.3796C20.2276 16.3796 20.1634 16.6152 20.4203 16.5723H22.1977L22.6903 16.6794C22.6903 16.6794 23.1828 16.5509 22.6903 16.2725C22.6903 16.2725 21.1056 16.2939 20.9557 16.2511C20.9557 16.2511 20.6345 16.1655 20.5488 16.144C20.5488 16.1655 20.3775 16.1012 20.2276 16.3796Z" fill="#F8F2FC"/>
<path d="M20.2276 16.3796C20.2276 16.3796 20.1634 16.6152 20.4203 16.5723H22.1977L22.6903 16.6794C22.6903 16.6794 23.1828 16.5509 22.6903 16.2725C22.6903 16.2725 21.1056 16.2939 20.9557 16.2511C20.9557 16.2511 20.6345 16.1655 20.5488 16.144C20.5488 16.1655 20.3775 16.1012 20.2276 16.3796Z" stroke="#181E32" stroke-width="0.036876"/>
<path d="M23.1829 16.6366C23.1829 16.6366 22.8617 16.6366 22.8831 17.0649C22.8831 17.0649 22.9259 17.3861 23.2686 17.3861C23.2686 17.3861 23.5684 17.3433 23.547 16.9792C23.5255 17.0006 23.3328 16.5509 23.1829 16.6366Z" fill="#F8F2FC"/>
<path d="M23.4172 16.4651C23.4172 16.4651 23.5671 16.2938 23.6742 16.2938C23.6742 16.2938 25.4088 16.4437 25.6872 16.251C25.6872 16.251 25.9442 16.2081 26.0084 16.251C26.0084 16.251 26.2654 16.4651 26.2654 16.5722C26.2654 16.5722 26.244 16.7221 25.9442 16.6364C25.9442 16.6364 23.9954 16.6578 23.8884 16.6578C23.9098 16.6578 23.3744 16.7649 23.4172 16.4651Z" fill="#F8F2FC"/>
<path d="M23.4172 16.4651C23.4172 16.4651 23.5671 16.2938 23.6742 16.2938C23.6742 16.2938 25.4088 16.4437 25.6872 16.251C25.6872 16.251 25.9442 16.2081 26.0084 16.251C26.0084 16.251 26.2654 16.4651 26.2654 16.5722C26.2654 16.5722 26.244 16.7221 25.9442 16.6364C25.9442 16.6364 23.9954 16.6578 23.8884 16.6578C23.9098 16.6578 23.3744 16.7649 23.4172 16.4651Z" stroke="#181E32" stroke-width="0.036876"/>
<path d="M23.6537 17.0219C23.6537 17.0219 23.6537 16.872 23.8892 16.872L26.3091 16.8506C26.3091 16.8506 26.5232 16.9791 26.5232 16.5508C26.5232 16.5508 26.6089 14.6663 26.6303 12.5891C26.6303 11.9681 26.6517 11.3256 26.6303 10.726C26.6303 10.726 26.5875 10.4691 26.5018 10.4048C26.5018 10.4048 26.5018 10.1264 26.8016 10.2335C26.8016 10.2335 27.0586 10.2549 26.9944 10.6404L27.0158 11.24C27.0158 11.24 26.973 11.497 27.4227 11.4327C27.4227 11.4327 27.8938 11.497 27.9152 11.6683C27.9152 11.6683 28.0437 12.0109 27.5083 11.9895H27.1014C27.1014 11.9895 26.9301 12.0966 26.973 12.2893L26.9301 14.7948C26.9301 14.7948 26.8873 15.2231 27.3156 15.2017C27.3156 15.2017 27.7439 15.1803 27.8295 15.3302C27.8295 15.3302 28.1293 15.7585 27.4869 15.7157C27.4869 15.7157 27.08 15.6942 26.9944 15.7585C26.9944 15.7585 26.9301 15.8441 26.8659 16.6579C26.8659 16.6579 26.9087 17.1504 26.5447 17.0862C26.5447 17.0862 24.1462 17.129 23.9107 17.0648C23.9321 17.129 23.6751 17.2147 23.6537 17.0219Z" fill="#F8F2FC"/>
<path d="M20.5263 10.1909L20.4835 15.7373C20.4835 15.7373 20.462 15.9942 20.8903 16.0371C20.8903 16.0371 21.3829 16.0799 21.5114 16.0371C21.5114 16.0371 21.8326 16.0157 22.6892 16.0585C22.6892 16.0585 22.9033 16.2726 22.9247 16.0157C22.9247 16.0157 23.0532 11.5186 22.989 10.5977C22.989 10.5977 22.9676 10.1909 22.6677 10.1909C22.6677 10.1909 21.3615 10.2979 21.233 10.1909L20.719 10.0624C20.719 10.041 20.5049 10.041 20.5263 10.1909Z" fill="#F8F2FC"/>
<path d="M23.2682 10.4691C23.2682 10.4691 23.2254 13.0817 23.2254 13.1673L23.1825 15.3516L23.1183 16.1225C23.1183 16.1225 23.2254 16.2724 23.311 16.1654C23.311 16.1654 23.8678 16.0155 24.2104 16.0797C24.2104 16.0797 25.324 16.1868 25.5381 16.0155C25.5381 16.0155 25.7095 16.1011 25.7737 15.8227C25.7737 15.8227 25.8379 10.983 25.8165 10.8974C25.8165 10.8974 25.8808 10.2121 25.8379 10.1264C25.8379 10.1264 25.8165 9.97653 25.5381 10.105C25.5381 10.105 25.581 10.2335 23.932 10.1907C23.932 10.2121 23.2896 10.1907 23.2682 10.4691Z" fill="#F8F2FC"/>
<path d="M26.0093 10.4049L25.9879 15.8656C25.9879 15.8656 26.1164 16.3582 26.352 16.2939C26.352 16.2939 26.3948 16.1869 26.3948 16.0155L26.459 10.8118C26.4805 10.8118 26.3091 9.97661 26.0093 10.4049Z" fill="#F8F2FC"/>
<path d="M26.0093 10.4049L25.9879 15.8656C25.9879 15.8656 26.1164 16.3582 26.352 16.2939C26.352 16.2939 26.3948 16.1869 26.3948 16.0155L26.459 10.8118C26.4805 10.8118 26.3091 9.97661 26.0093 10.4049Z" stroke="#181E32" stroke-width="0.036876"/>
<path d="M17.957 20.3628C17.957 20.3628 18.0855 20.32 18.1069 20.2343C18.1069 20.2343 18.471 20.1915 18.5138 20.1487L19.6488 20.2343C19.6488 20.2343 20.7624 20.32 21.2549 19.9774C21.2549 19.9774 21.4262 19.9774 21.5547 20.0202C21.5547 20.0202 21.7903 20.063 21.8545 20.1701L22.5184 20.1487C22.5184 20.1487 22.9038 20.2772 22.861 20.5127V20.8339C22.861 20.8339 22.7968 21.455 22.9681 21.4978H23.4606C23.4606 21.4978 23.8675 21.6905 23.8247 21.9261C23.8247 21.9261 23.8461 22.2687 23.482 22.333C23.482 22.333 23.118 22.44 22.9895 22.4186C22.9895 22.4186 22.861 22.5685 22.8396 22.7613L22.7968 25.0312C22.7968 25.0312 22.7539 25.2668 23.118 25.2454C23.118 25.2454 23.6533 25.2025 23.8032 25.4809C23.8032 25.4809 23.9317 25.9735 23.6748 26.0591L23.4606 26.1662L23.0109 26.2304C23.0109 26.2304 22.8182 26.2519 22.7968 26.5731V27.1727C22.7968 27.1727 22.8182 27.5796 22.497 27.5796L22.0044 27.6224C22.0044 27.6224 21.8759 27.7295 21.6404 27.6652C21.6404 27.6652 18.7066 27.708 18.5995 27.6866L18.2568 27.7509C18.2568 27.7509 17.8714 28.0935 17.5716 27.8365L17.336 27.6438C17.336 27.6438 17.1647 27.6866 17.1005 27.6652C17.0362 27.6438 13.8454 27.708 13.8454 27.708C13.8454 27.708 13.1602 27.7723 13.1173 27.5581C13.1173 27.5581 13.0317 26.6801 13.0745 26.5731C13.0745 26.5731 13.0745 26.3161 12.9246 26.2947C12.9246 26.2947 12.2393 26.2519 12.2393 26.1876C12.2393 26.1876 11.8753 25.9306 11.9824 25.6737C11.9824 25.6737 12.1108 25.331 12.4749 25.2882C12.4749 25.2882 13.0317 25.3738 13.0317 25.2239C13.0317 25.2239 13.0745 25.1169 13.0745 24.9456C13.0745 24.9456 13.1173 22.8898 13.0959 22.7398C13.0959 22.7398 13.1387 22.4829 12.9246 22.4829C12.9246 22.4829 12.689 22.5471 12.5177 22.44C12.5177 22.44 12.1108 22.4615 12.0252 22.1402C12.0252 22.1402 11.9609 21.9261 12.068 21.7548C12.068 21.7548 12.2607 21.3693 12.8175 21.4978C12.8175 21.4978 13.1173 21.5835 13.1602 21.3693L13.1387 20.5341C13.1387 20.5341 13.0745 20.2986 13.5028 20.1915C13.5028 20.1915 14.0596 20.3414 14.2309 20.063C14.2309 20.063 14.4236 19.6776 14.5735 19.9345C14.5735 19.9345 14.8947 20.2557 15.7942 20.2129C15.7942 20.2129 17.3574 20.0844 17.3789 20.1701C17.3789 20.1701 17.7643 20.2129 17.8714 20.3414L17.957 20.3628Z" fill="#181E32"/>
<path d="M17.9575 20.3414C17.9575 20.3414 18.086 20.2986 18.1074 20.213C18.1074 20.213 18.4714 20.1701 18.5142 20.1273L19.6492 20.213C19.6492 20.213 20.7628 20.2986 21.2553 19.956C21.2553 19.956 21.4266 19.956 21.5551 19.9988C21.5551 19.9988 21.7907 20.0416 21.8549 20.1487L22.5188 20.1273C22.5188 20.1273 22.9043 20.2558 22.8614 20.4913V20.7911C22.8614 20.7911 22.7972 21.4122 22.9685 21.455H23.461C23.461 21.455 23.8679 21.6477 23.8251 21.8833C23.8251 21.8833 23.8465 22.2259 23.4824 22.2902C23.4824 22.2902 23.1184 22.3973 22.9899 22.3758C22.9899 22.3758 22.8614 22.5257 22.84 22.7185L22.7972 24.9884C22.7972 24.9884 22.7544 25.224 23.1184 25.2026C23.1184 25.2026 23.6538 25.1597 23.8037 25.4381C23.8037 25.4381 23.9322 25.9307 23.6752 26.0163L23.461 26.1234L23.0113 26.1876C23.0113 26.1876 22.8186 26.2091 22.7972 26.5303V27.1299C22.7972 27.1299 22.8186 27.5368 22.476 27.5368L21.9834 27.5796C21.9834 27.5796 21.8549 27.6867 21.6194 27.6224C21.6194 27.6224 18.6856 27.6653 18.5785 27.6438L18.2359 27.7081C18.2359 27.7081 17.8504 28.0507 17.5506 27.7937L17.315 27.601C17.315 27.601 17.1437 27.6438 17.0795 27.6224C17.0152 27.601 13.8244 27.6653 13.8244 27.6653C13.8244 27.6653 13.1392 27.7295 13.0963 27.5154C13.0963 27.5154 13.0107 26.6374 13.0535 26.5303C13.0535 26.5303 13.0535 26.2733 12.9036 26.2519C12.9036 26.2519 12.2183 26.2091 12.2183 26.1448C12.2183 26.1448 11.8543 25.8878 11.9614 25.6309C11.9614 25.6309 12.0899 25.2882 12.4539 25.2454C12.4539 25.2454 13.0107 25.3311 13.0107 25.1812C13.0107 25.1812 13.0535 25.0741 13.0535 24.9028C13.0535 24.9028 13.0963 22.847 13.0749 22.6971C13.0749 22.6971 13.1178 22.4401 12.9036 22.4401C12.9036 22.4401 12.668 22.5043 12.4967 22.3972C12.4967 22.3972 12.0898 22.4187 12.0042 22.076C12.0042 22.076 11.9399 21.8619 12.047 21.6906C12.047 21.6906 12.2398 21.3051 12.7965 21.4336C12.7965 21.4336 13.1178 21.5192 13.1392 21.3051L13.1178 20.4699C13.1178 20.4699 13.0535 20.2344 13.4818 20.1273C13.4818 20.1273 14.0386 20.2772 14.2099 19.9988C14.2099 19.9988 14.4026 19.6133 14.5525 19.8703C14.5525 19.8703 14.8738 20.1915 15.7732 20.1487C15.7732 20.1487 17.3364 20.0202 17.3579 20.1059C17.3579 20.1059 17.7433 20.1487 17.8504 20.2772L17.9575 20.3414Z" stroke="#181E32" stroke-width="0.03512"/>
<path d="M18.406 27.1512C18.406 27.1512 18.6201 27.0442 18.7486 27.087C18.8771 27.1084 20.9115 27.0656 20.9115 27.0656C20.9115 27.0656 21.7895 27.1298 21.9394 27.0228L22.1535 26.9585C22.1535 26.9585 22.2392 26.8514 22.2392 26.7229C22.2392 26.5945 22.2606 26.1233 22.2606 26.1233L22.3034 25.952C22.3034 25.952 22.282 25.7807 22.3034 21.1551C22.3034 21.1551 22.3677 20.7911 22.1535 20.5769C22.1535 20.5769 22.1535 20.4485 22.2178 20.4485C22.282 20.4485 22.2606 20.4699 22.2606 20.4699C22.2606 20.4699 22.5604 20.3842 22.6247 20.5127C22.6247 20.5127 22.7531 20.9196 22.6461 21.1765C22.6461 21.1765 22.6032 21.6905 22.8816 21.6905C22.8816 21.6905 22.9887 21.7976 23.1814 21.7333C23.1814 21.7333 23.6311 21.7762 23.6311 21.9261C23.6311 21.9261 23.6311 22.2473 23.3313 22.183L22.9245 22.2259C22.9245 22.2259 22.6461 22.2687 22.6889 22.6113C22.7317 22.9326 22.6675 25.2882 22.6675 25.2882C22.6675 25.2882 22.6675 25.5666 23.0958 25.5451C23.0958 25.5451 23.6311 25.5237 23.6311 25.6736C23.6311 25.6736 23.7596 26.0163 23.3956 26.0377C23.3956 26.0377 22.6675 26.0163 22.7103 26.2304C22.7103 26.2304 22.6675 26.7229 22.6247 26.8086C22.6247 26.8086 22.6889 27.2155 22.6032 27.2797C22.6032 27.2797 22.5604 27.4939 22.0893 27.4725C22.0893 27.4725 19.1126 27.451 18.6415 27.4939C18.6201 27.4296 18.3417 27.3868 18.406 27.1512Z" fill="#F8F2FC"/>
<path d="M17.8715 26.8301C17.8715 26.8301 18.1713 26.8729 18.1713 27.1513C18.1713 27.4297 18.1927 27.5796 18.0214 27.6224C17.8501 27.6653 17.6574 27.601 17.6145 27.3869C17.5503 27.1513 17.6359 26.8729 17.8715 26.8301Z" fill="#F8F2FC"/>
<path d="M18.2146 26.6801C18.2146 26.6801 18.5144 26.466 18.6429 26.5088C18.6429 26.5088 20.2276 26.6159 20.6987 26.5302C21.1912 26.4446 20.8914 26.5088 20.8914 26.5088C20.8914 26.5088 21.2983 26.5088 21.4268 26.3589C21.4268 26.3589 21.5553 26.3161 21.6195 26.4446L21.8765 26.723C21.8765 26.723 21.8979 26.8943 21.5981 26.8729C21.5981 26.8729 18.7714 26.8729 18.6857 26.8943C18.7071 26.8943 18.1718 26.9799 18.2146 26.6801Z" fill="#F8F2FC"/>
<path d="M18.2146 26.6801C18.2146 26.6801 18.5144 26.466 18.6429 26.5088C18.6429 26.5088 20.2276 26.6159 20.6987 26.5302C21.1912 26.4446 20.8914 26.5088 20.8914 26.5088C20.8914 26.5088 21.2983 26.5088 21.4268 26.3589C21.4268 26.3589 21.5553 26.3161 21.6195 26.4446L21.8765 26.723C21.8765 26.723 21.8979 26.8943 21.5981 26.8729C21.5981 26.8729 18.7714 26.8729 18.6857 26.8943C18.7071 26.8943 18.1718 26.9799 18.2146 26.6801Z" stroke="#181E32" stroke-width="0.036876"/>
<path d="M14.1235 20.5554C14.1235 20.5554 14.252 20.5554 14.2305 20.7696L14.1877 25.9947C14.1877 25.9947 14.2305 26.3374 13.9521 26.5729C13.9521 26.5729 13.8022 26.7657 13.8022 26.4659L13.8665 21.1336C13.8665 21.1122 13.8665 20.7267 14.1235 20.5554Z" fill="#F8F2FC"/>
<path d="M14.1235 20.5554C14.1235 20.5554 14.252 20.5554 14.2305 20.7696L14.1877 25.9947C14.1877 25.9947 14.2305 26.3374 13.9521 26.5729C13.9521 26.5729 13.8022 26.7657 13.8022 26.4659L13.8665 21.1336C13.8665 21.1122 13.8665 20.7267 14.1235 20.5554Z" stroke="#181E32" stroke-width="0.036876"/>
<path d="M13.8449 20.577C13.8449 20.577 13.6308 20.9624 13.6522 21.0481L13.6308 22.2045C13.6308 22.2045 13.6094 22.954 13.6308 23.0397C13.6522 23.1253 13.6094 25.3096 13.6094 25.3096C13.6094 25.3096 13.588 25.7165 13.6094 25.8664V26.8086C13.6094 26.8086 13.5665 27.2155 13.8878 27.1084C13.8878 27.1084 16.9286 27.0442 17.1214 27.087C17.1214 27.087 17.3998 27.1299 17.2927 27.2798C17.2927 27.2798 17.2927 27.4082 17.1 27.3654C17.1 27.3654 15.6652 27.4939 14.3589 27.4511C14.3589 27.4511 13.5023 27.4939 13.4381 27.4083C13.4381 27.4083 13.3096 27.3868 13.3096 26.8943C13.3096 26.8943 13.3096 26.4232 13.2667 26.3375C13.2667 26.3375 13.3096 26.102 12.8599 26.0377C12.8599 26.0377 12.2603 26.1448 12.2388 25.7807C12.2388 25.7807 12.3245 25.5238 12.9241 25.5452C12.9241 25.5452 13.3524 25.6094 13.2667 25.2668L13.3096 22.7184C13.3096 22.7184 13.3524 22.2687 13.074 22.2473C13.074 22.2473 12.7956 22.2259 12.71 22.2687C12.71 22.2687 12.2174 22.2687 12.2388 21.9689C12.2388 21.9689 12.4102 21.6691 12.9241 21.7334C12.9241 21.7334 13.3096 21.7976 13.331 21.3693C13.331 21.3693 13.3096 20.4913 13.5237 20.4485C13.5237 20.4485 13.9734 20.4699 13.8449 20.577Z" fill="#F8F2FC"/>
<path d="M14.3596 26.2947C14.3596 26.2947 14.5952 26.5517 15.0021 26.5302L17.3577 26.5731C17.3577 26.5731 17.6147 26.5945 17.5933 26.723C17.5933 26.723 17.5504 26.9371 17.2506 26.8515L14.4239 26.8086L14.1241 26.83C14.1241 26.83 13.9099 26.7872 14.2526 26.4018L14.3596 26.2947Z" fill="#F8F2FC"/>
<path d="M14.3596 26.2947C14.3596 26.2947 14.5952 26.5517 15.0021 26.5302L17.3577 26.5731C17.3577 26.5731 17.6147 26.5945 17.5933 26.723C17.5933 26.723 17.5504 26.9371 17.2506 26.8515L14.4239 26.8086L14.1241 26.83C14.1241 26.83 13.9099 26.7872 14.2526 26.4018L14.3596 26.2947Z" stroke="#181E32" stroke-width="0.036876"/>
<path d="M21.6188 26.0805C21.6188 26.0805 21.8329 26.4874 21.9186 26.5302C21.9186 26.5302 22.1113 26.7443 22.0685 26.3589L22.1113 21.3693C22.1113 21.3693 22.0685 21.1979 22.1113 20.9195L21.8972 20.5341C21.8972 20.5341 21.683 20.3628 21.683 20.6412L21.6402 25.952L21.6188 26.0805Z" fill="#F8F2FC"/>
<path d="M21.6188 26.0805C21.6188 26.0805 21.8329 26.4874 21.9186 26.5302C21.9186 26.5302 22.1113 26.7443 22.0685 26.3589L22.1113 21.3693C22.1113 21.3693 22.0685 21.1979 22.1113 20.9195L21.8972 20.5341C21.8972 20.5341 21.683 20.3628 21.683 20.6412L21.6402 25.952L21.6188 26.0805Z" stroke="#181E32" stroke-width="0.036876"/>
<path d="M17.7862 23.7034C17.7862 23.7034 17.8076 24.1103 17.7433 24.5171C17.7219 24.7313 17.8076 25.7378 17.7219 26.2731C17.7219 26.2731 17.7005 26.4445 17.3364 26.2945C17.3364 26.2945 15.1307 26.3374 15.0451 26.2731C15.0451 26.2731 14.4455 26.2945 14.3812 25.9733C14.3812 25.9733 14.4669 23.5963 14.4241 23.5106C14.4241 23.5106 14.3812 22.2044 14.4241 22.0973C14.4241 22.0973 14.4669 20.8981 14.4455 20.7696C14.4455 20.7696 14.4669 20.4912 14.4026 20.3627C14.4026 20.3627 14.4026 20.1914 14.7024 20.2984C14.7024 20.2984 14.8095 20.4912 15.3663 20.4055C15.3663 20.4055 15.7732 20.4698 16.1801 20.4269C16.1801 20.4269 17.0581 20.3627 17.2936 20.4269C17.2936 20.4269 17.6363 20.3627 17.7433 20.7482L17.7219 21.8189L17.829 22.1615L17.9575 22.0759L18.0003 21.8189L18.0217 20.6839C18.0217 20.6839 18.086 20.4698 18.3644 20.4483C18.3644 20.4483 18.7926 20.4055 18.8783 20.4269C18.9425 20.4698 19.8848 20.5126 20.1418 20.4698C20.3987 20.4269 20.4416 20.6411 21.2339 20.2556C21.2339 20.2556 21.4481 20.277 21.4481 20.4055C21.4481 20.4055 21.3838 21.8831 21.4481 22.1615C21.4481 22.1615 21.4481 24.8598 21.4052 25.0525L21.4481 25.9091C21.4481 25.9091 21.4909 26.2945 20.8699 26.316C20.8699 26.316 21.2553 26.3588 18.8569 26.2945C18.8569 26.2945 18.4714 26.2731 18.0645 26.4659C18.0645 26.4659 17.9789 26.4445 17.9789 26.2303C17.9789 26.2303 18.0431 25.4165 17.9789 24.6242L17.9361 23.7462L17.7862 23.7034Z" fill="#F8F2FC"/>
<path d="M13.267 17.4718C13.267 17.4718 13.0742 18.0714 12.2391 17.4504L9.32667 17.3861C9.32667 17.3861 8.94121 17.5146 8.89838 17.1077C8.89838 17.1077 8.96262 16.3154 8.94121 16.2511C8.94121 16.2511 8.96262 16.0156 8.57716 16.0156C8.57716 16.0156 7.99896 16.0798 7.97755 15.5659C7.97755 15.5659 7.87047 15.0091 8.68423 15.0305C8.68423 15.0305 8.94121 15.159 8.96262 14.8163C8.96262 14.8163 8.91979 12.5678 8.94121 12.3965C8.94121 12.3965 9.00545 12.1823 8.61999 12.1609C8.61999 12.1609 8.04179 12.2894 7.97755 11.904C7.97755 11.904 7.93472 11.3258 8.32018 11.3043C8.32018 11.3043 8.79131 11.3472 8.87697 11.2187C8.87697 11.2187 8.98404 11.2829 8.96262 10.876L8.98404 10.1694C8.98404 10.1694 9.02687 9.97663 9.32667 9.99805C9.32667 9.99805 9.86204 10.0409 9.92628 9.97663C9.92628 9.97663 10.0548 9.82673 10.0762 9.74107C10.0762 9.74107 10.3546 9.71966 10.3974 9.7839C10.3974 9.7839 10.8043 10.0623 12.389 9.95522C12.389 9.95522 12.6245 9.95522 12.6888 10.0195C12.6888 10.0195 12.9886 10.2336 13.1599 9.99805C13.1599 9.99805 13.4169 9.95522 14.1878 9.95522C14.1878 9.95522 15.023 10.1694 15.6226 9.69824L15.8153 9.74107C15.8153 9.74107 16.0509 10.1479 16.2222 10.0195C16.2222 10.0195 16.7361 9.97664 16.8218 10.0623C16.8218 10.0623 16.9931 10.3193 16.9075 11.0045C16.9075 11.0045 16.8004 11.3043 17.3143 11.3043C17.3143 11.3043 17.8925 11.1973 17.8069 11.7326C17.8069 11.7326 17.9568 12.3322 17.0145 12.2466C17.0145 12.2466 16.886 12.4179 16.9075 12.5464C16.9075 12.5464 16.886 14.5165 16.8646 14.7307C16.8646 14.7307 16.8432 15.0305 17.2715 15.0305C17.2715 15.0305 17.8283 14.9877 17.8497 15.5016C17.8497 15.5016 17.914 16.1655 17.1216 16.037C17.1216 16.037 16.886 16.0798 16.8432 16.2297L16.8004 17.0863C16.8004 17.0863 16.8218 17.5146 16.3293 17.4075C16.265 17.4075 13.631 17.4503 13.4169 17.3861C13.4169 17.4075 13.2884 17.4075 13.267 17.4718Z" fill="#181E32"/>
<path d="M13.267 17.4718C13.267 17.4718 13.0742 18.0714 12.2391 17.4504L9.32667 17.3861C9.32667 17.3861 8.94121 17.5146 8.89838 17.1077C8.89838 17.1077 8.96262 16.3154 8.94121 16.2511C8.94121 16.2511 8.96262 16.0156 8.57716 16.0156C8.57716 16.0156 7.99896 16.0798 7.97755 15.5659C7.97755 15.5659 7.87047 15.0091 8.68423 15.0305C8.68423 15.0305 8.94121 15.159 8.96262 14.8163C8.96262 14.8163 8.91979 12.5678 8.94121 12.3965C8.94121 12.3965 9.00545 12.1823 8.61999 12.1609C8.61999 12.1609 8.04179 12.2894 7.97755 11.904C7.97755 11.904 7.93472 11.3258 8.32018 11.3043C8.32018 11.3043 8.79131 11.3472 8.87697 11.2187C8.87697 11.2187 8.98404 11.2829 8.96262 10.876L8.98404 10.1694C8.98404 10.1694 9.02687 9.97663 9.32667 9.99805C9.32667 9.99805 9.86204 10.0409 9.92628 9.97663C9.92628 9.97663 10.0548 9.82673 10.0762 9.74107C10.0762 9.74107 10.3546 9.71966 10.3974 9.7839C10.3974 9.7839 10.8043 10.0623 12.389 9.95522C12.389 9.95522 12.6245 9.95522 12.6888 10.0195C12.6888 10.0195 12.9886 10.2336 13.1599 9.99805C13.1599 9.99805 13.4169 9.95522 14.1878 9.95522C14.1878 9.95522 15.023 10.1694 15.6226 9.69824L15.8153 9.74107C15.8153 9.74107 16.0509 10.1479 16.2222 10.0195C16.2222 10.0195 16.7361 9.97664 16.8218 10.0623C16.8218 10.0623 16.9931 10.3193 16.9075 11.0045C16.9075 11.0045 16.8004 11.3043 17.3143 11.3043C17.3143 11.3043 17.8925 11.1973 17.8069 11.7326C17.8069 11.7326 17.9568 12.3322 17.0145 12.2466C17.0145 12.2466 16.886 12.4179 16.9075 12.5464C16.9075 12.5464 16.886 14.5165 16.8646 14.7307C16.8646 14.7307 16.8432 15.0305 17.2715 15.0305C17.2715 15.0305 17.8283 14.9877 17.8497 15.5016C17.8497 15.5016 17.914 16.1655 17.1216 16.037C17.1216 16.037 16.886 16.0798 16.8432 16.2297L16.8004 17.0863C16.8004 17.0863 16.8218 17.5146 16.3293 17.4075C16.265 17.4075 13.631 17.4503 13.4169 17.3861C13.4169 17.4075 13.2884 17.4075 13.267 17.4718Z" stroke="#181E32" stroke-width="0.03512"/>
<path d="M9.99142 10.3406C9.99142 10.3406 10.0343 10.6833 10.0343 10.7689C10.0343 10.8546 9.99142 15.7585 9.99142 15.7585C9.99142 15.7585 10.0343 16.144 9.71303 16.3367C9.71303 16.3367 9.62737 16.3796 9.60596 16.1226L9.64879 10.9402C9.62737 10.9402 9.6702 10.3192 9.99142 10.3406Z" fill="#F8F2FC"/>
<path d="M9.99142 10.3406C9.99142 10.3406 10.0343 10.6833 10.0343 10.7689C10.0343 10.8546 9.99142 15.7585 9.99142 15.7585C9.99142 15.7585 10.0343 16.144 9.71303 16.3367C9.71303 16.3367 9.62737 16.3796 9.60596 16.1226L9.64879 10.9402C9.62737 10.9402 9.6702 10.3192 9.99142 10.3406Z" stroke="#181E32" stroke-width="0.036876"/>
<path d="M9.41177 16.4009C9.41177 16.4009 9.45459 11.5183 9.43318 11.4327C9.41176 11.347 9.45459 11.4969 9.45459 11.4969C9.45459 11.4969 9.41177 10.6618 9.62591 10.2977C9.62591 10.2977 9.56167 9.99791 9.15479 10.362L9.13337 11.0686C9.13337 11.0686 9.13337 11.4755 8.76933 11.4541C8.76933 11.4541 8.36245 11.4327 8.16971 11.6254C8.16971 11.6254 8.06264 12.0109 8.46952 11.9252C8.46952 11.9252 9.09054 11.9252 9.13337 12.1822L9.09055 14.7948C9.09055 14.7948 9.24045 15.2231 8.74791 15.2231C8.74791 15.2231 8.16971 15.1803 8.16971 15.5443C8.16971 15.5443 8.2982 15.8441 8.79074 15.7585C8.79074 15.7585 9.15479 15.8227 9.13337 16.1653V16.8292C9.13337 16.8292 9.09054 17.0862 9.43318 17.1076H12.1314C12.1314 17.1076 12.2599 17.129 12.2599 16.9577C12.2599 16.9577 12.2385 16.8292 12.0458 16.8292L9.79723 16.7864C9.81864 16.8078 9.45459 16.9363 9.41177 16.4009Z" fill="#F8F2FC"/>
<path d="M9.88434 16.4223C9.88434 16.4223 9.82009 16.6579 10.0771 16.6151H11.8545L12.347 16.7221C12.347 16.7221 12.8396 16.5936 12.347 16.3153C12.347 16.3153 10.7623 16.3367 10.6124 16.2938C10.6124 16.2938 10.2912 16.2082 10.2056 16.1868C10.2056 16.2082 10.0342 16.1439 9.88434 16.4223Z" fill="#F8F2FC"/>
<path d="M9.88434 16.4223C9.88434 16.4223 9.82009 16.6579 10.0771 16.6151H11.8545L12.347 16.7221C12.347 16.7221 12.8396 16.5936 12.347 16.3153C12.347 16.3153 10.7623 16.3367 10.6124 16.2938C10.6124 16.2938 10.2912 16.2082 10.2056 16.1868C10.2056 16.2082 10.0342 16.1439 9.88434 16.4223Z" stroke="#181E32" stroke-width="0.036876"/>
<path d="M12.839 16.6793C12.839 16.6793 12.5178 16.6793 12.5178 17.1076C12.5178 17.1076 12.5606 17.4288 12.9033 17.4288C12.9033 17.4288 13.2245 17.386 13.1817 17.022C13.1817 17.0434 12.9889 16.5937 12.839 16.6793Z" fill="#F8F2FC"/>
<path d="M13.0753 16.5081C13.0753 16.5081 13.2252 16.3368 13.3323 16.3368C13.3323 16.3368 15.0669 16.4867 15.3453 16.2939C15.3453 16.2939 15.6022 16.2511 15.6665 16.2939C15.6665 16.2939 15.9235 16.5081 15.9235 16.6152C15.9235 16.6152 15.9021 16.7651 15.6022 16.6794C15.6022 16.6794 13.6535 16.7008 13.5464 16.7008C13.5679 16.7008 13.0325 16.8079 13.0753 16.5081Z" fill="#F8F2FC"/>
<path d="M13.0753 16.5081C13.0753 16.5081 13.2252 16.3368 13.3323 16.3368C13.3323 16.3368 15.0669 16.4867 15.3453 16.2939C15.3453 16.2939 15.6022 16.2511 15.6665 16.2939C15.6665 16.2939 15.9235 16.5081 15.9235 16.6152C15.9235 16.6152 15.9021 16.7651 15.6022 16.6794C15.6022 16.6794 13.6535 16.7008 13.5464 16.7008C13.5679 16.7008 13.0325 16.8079 13.0753 16.5081Z" stroke="#181E32" stroke-width="0.036876"/>
<path d="M13.3525 17.022C13.3525 17.022 13.3525 16.8935 13.5881 16.8935L16.008 16.8721C16.008 16.8721 16.2221 17.0006 16.2221 16.5723C16.2221 16.5723 16.3078 14.6878 16.3292 12.6106C16.3292 11.9896 16.3506 11.3471 16.3292 10.7475C16.3292 10.7475 16.2863 10.4905 16.2007 10.4263C16.2007 10.4263 16.2007 10.1479 16.5005 10.255C16.5005 10.255 16.7575 10.2764 16.6932 10.6619L16.7146 11.2615C16.7146 11.2615 16.6718 11.5184 17.1215 11.4542C17.1215 11.4542 17.5926 11.5184 17.6141 11.6898C17.6141 11.6898 17.764 12.0324 17.2072 11.9896H16.8003C16.8003 11.9896 16.629 12.0966 16.6718 12.2894L16.629 14.7949C16.629 14.7949 16.5862 15.2232 17.0144 15.2018C17.0144 15.2018 17.4427 15.1804 17.5284 15.3303C17.5284 15.3303 17.8282 15.7585 17.1858 15.7371C17.1858 15.7371 16.8003 15.7157 16.6932 15.78C16.6932 15.78 16.629 15.8656 16.5647 16.6794C16.5647 16.6794 16.6076 17.1719 16.2435 17.1077C16.2435 17.1077 13.8451 17.1505 13.6095 17.0863C13.6309 17.1291 13.3954 17.2147 13.3525 17.022Z" fill="#F8F2FC"/>
<path d="M10.2476 10.1907L10.2048 15.7371C10.2048 15.7371 10.1834 15.994 10.6116 16.0369C10.6116 16.0369 11.1042 16.0797 11.2327 16.0369C11.2327 16.0369 11.5539 16.0155 12.4105 16.0583C12.4105 16.0583 12.6246 16.2724 12.646 16.0155C12.646 16.0155 12.7745 11.5184 12.7103 10.5761C12.7103 10.5761 12.6889 10.1693 12.3891 10.1693C12.3891 10.1693 11.0828 10.2763 10.9543 10.1693L10.4403 10.0408C10.4403 10.0408 10.2262 10.0408 10.2476 10.1907Z" fill="#F8F2FC"/>
<path d="M15.7293 10.4049L15.7079 15.8656C15.7079 15.8656 15.8364 16.3582 16.0719 16.2939C16.0719 16.2939 16.1148 16.1869 16.1148 16.0155L16.179 10.8118C16.2004 10.8118 16.0291 9.97661 15.7293 10.4049Z" fill="#F8F2FC"/>
<path d="M15.7293 10.4049L15.7079 15.8656C15.7079 15.8656 15.8364 16.3582 16.0719 16.2939C16.0719 16.2939 16.1148 16.1869 16.1148 16.0155L16.179 10.8118C16.2004 10.8118 16.0291 9.97661 15.7293 10.4049Z" stroke="#181E32" stroke-width="0.036876"/>
<path d="M12.9892 10.4478C12.9892 10.4478 12.9464 13.0604 12.9464 13.1461L12.925 15.3304L12.8607 16.1013C12.8607 16.1013 12.9678 16.2512 13.0535 16.1441C13.0535 16.1441 13.6102 16.0156 13.9529 16.0585C13.9529 16.0585 15.0664 16.1655 15.2806 15.9942C15.2806 15.9942 15.4519 16.0799 15.5161 15.8015C15.5161 15.8015 15.5804 10.9618 15.559 10.8761C15.559 10.8761 15.6232 10.1909 15.6018 10.1052C15.6018 10.1052 15.5804 9.95529 15.302 10.0838C15.302 10.0838 15.3448 10.2123 13.6959 10.1694C13.6316 10.1909 13.0106 10.1694 12.9892 10.4478Z" fill="#F8F2FC"/>
<rect x="0.5" y="0.5" width="35" height="35" rx="17.5" stroke="#181E32"/>
</svg>
