<svg width="32" height="33" viewBox="0 0 32 33" fill="none" xmlns="http://www.w3.org/2000/svg">
<g clip-path="url(#clip0_703_73)">
<path d="M13.0547 26.414L13.2156 25.888L13.0547 26.414ZM29.45 14.5C29.45 21.0797 23.8965 26.45 17 26.45V27.55C24.4629 27.55 30.55 21.7274 30.55 14.5H29.45ZM17 2.55C23.8965 2.55 29.45 7.92033 29.45 14.5H30.55C30.55 7.27255 24.4629 1.45 17 1.45V2.55ZM4.55 14.5C4.55 7.92033 10.1035 2.55 17 2.55V1.45C9.53707 1.45 3.45 7.27255 3.45 14.5H4.55ZM5.57529 19.2567C4.91569 17.7993 4.55 16.1912 4.55 14.5H3.45C3.45 16.3516 3.8507 18.114 4.57315 19.7103L5.57529 19.2567ZM7.5 26.45C6.42304 26.45 5.55 25.577 5.55 24.5H4.45C4.45 26.1845 5.81553 27.55 7.5 27.55V26.45ZM17 26.45C15.6795 26.45 14.4082 26.2528 13.2156 25.888L12.8938 26.9399C14.1898 27.3364 15.5696 27.55 17 27.55V26.45ZM7.5 27.55C8.4047 27.55 9.48941 27.2589 10.4179 27.0633C11.4128 26.8537 12.254 26.7442 12.8938 26.9399L13.2156 25.888C12.2699 25.5988 11.1628 25.7822 10.1912 25.9869C9.15324 26.2056 8.25338 26.45 7.5 26.45V27.55ZM4.57315 19.7103C4.81785 20.2509 4.82032 20.9922 4.72413 21.8822C4.67653 22.3226 4.61164 22.7512 4.55376 23.2019C4.49762 23.6391 4.45 24.0847 4.45 24.5H5.55C5.55 24.1591 5.5896 23.7719 5.64481 23.342C5.69828 22.9255 5.76886 22.4529 5.81776 22.0004C5.91458 21.1046 5.95415 20.0938 5.57529 19.2567L4.57315 19.7103Z" fill="#181E32"/>
<circle cx="3" cy="30" r="2" stroke="#181E32" stroke-width="1.1"/>
</g>
<defs>
<clipPath id="clip0_703_73">
<rect width="32" height="32" fill="white" transform="translate(0 0.5)"/>
</clipPath>
</defs>
</svg>
