<svg width="32" height="33" viewBox="0 0 32 33" fill="none" xmlns="http://www.w3.org/2000/svg">
<g clip-path="url(#clip0_703_669)">
<path d="M29.315 11.5676C29.315 8.12542 27.1871 5.05873 23.9953 3.93219C21.9925 1.49136 18.8007 0.427406 15.6714 1.3036C12.5421 0.427406 9.35025 1.55395 7.34751 3.99478C4.15565 5.1839 2.02774 8.18801 2.02774 11.6302C2.02774 12.8193 2.27809 14.0085 2.77877 15.135C1.3393 17.6384 1.90257 20.8929 4.40599 22.7078C4.15565 25.8371 6.5339 28.6535 9.72576 28.9038C11.1026 30.7188 13.4183 31.5324 15.6714 30.9691C17.9245 31.595 20.2401 30.7188 21.617 28.9038C24.8089 28.716 27.1871 25.8371 26.9368 22.7078C29.3776 20.9554 30.0035 17.6384 28.564 15.135C29.0021 14.0085 29.315 12.8193 29.315 11.5676Z" stroke="#181E32"/>
<path d="M15.7693 1.31299V31.0411" stroke="#181E32"/>
<path d="M2.8689 14.9833C4.40701 12.433 8.75739 12.1706 10.595 14.9832" stroke="#181E32"/>
<path d="M28.4843 15.4709C26.947 18.3586 22.7466 18.9211 21.0215 16.1835" stroke="#181E32"/>
<path d="M6.76941 10.3329C9.46987 10.5954 11.6451 9.62029 11.6451 6.32007" stroke="#181E32"/>
<path d="M24.7675 10.3329C22.067 10.5954 19.8918 9.62029 19.8918 6.32007" stroke="#181E32"/>
<path d="M9.1698 28.9721C11.1197 27.922 13.4448 25.6718 11.7947 21.7715" stroke="#181E32"/>
<path d="M22.33 28.9721C20.3801 27.922 18.055 25.6718 19.705 21.7715" stroke="#181E32"/>
</g>
<defs>
<clipPath id="clip0_703_669">
<rect width="32" height="32" fill="white" transform="translate(0 0.5)"/>
</clipPath>
</defs>
</svg>
