<svg width="50" height="35" viewBox="0 0 50 35" fill="none" xmlns="http://www.w3.org/2000/svg">
<g clip-path="url(#clip0_703_701)">
<path d="M32.1928 20.3185C32.4819 28.5977 25.9 32.5456 17.6207 32.8347C9.34151 33.1238 2.50019 29.6447 2.21108 21.3655C1.92196 13.0863 8.29452 3.14209 16.5737 2.85297C24.853 2.56386 31.9037 12.0393 32.1928 20.3185Z" stroke="#181E32"/>
<path d="M14.3783 25.9435V25.9435C15.416 23.2681 19.1529 23.1376 20.3747 25.7341V25.7341" stroke="#181E32"/>
<path d="M26.1267 18.5291L25.0137 18.5679C23.4723 18.6217 21.9997 17.9278 21.0599 16.7048V16.7048" stroke="#181E32"/>
<path d="M8.13767 19.1572L9.25061 19.1184C10.7921 19.0645 12.2127 18.2696 13.0648 16.9839V16.9839" stroke="#181E32"/>
<path d="M10.3285 24.5841C10.3574 25.4121 9.70964 26.1067 8.88172 26.1356C8.0538 26.1645 7.3592 25.5168 7.33028 24.6888C7.29045 23.5482 8.72467 21.6383 8.72467 21.6383C8.72467 21.6383 10.2886 23.4435 10.3285 24.5841Z" stroke="#181E32"/>
</g>
<defs>
<clipPath id="clip0_703_701">
<rect width="48" height="32" fill="white" transform="translate(0.548584 2.41187) rotate(-2)"/>
</clipPath>
</defs>
</svg>
