<svg width="50" height="34" viewBox="0 0 50 34" fill="none" xmlns="http://www.w3.org/2000/svg">
<g clip-path="url(#clip0_703_401)">
<path d="M32.1928 19.6673C32.4819 27.9465 25.9 31.8943 17.6207 32.1835C9.34151 32.4726 2.50019 28.9935 2.21108 20.7143C1.92196 12.435 8.29452 2.49084 16.5737 2.20173C24.853 1.91261 31.9037 11.388 32.1928 19.6673Z" stroke="#181E32"/>
<path d="M13.3468 21.8263L21.1616 21.5534L21.1363 21.7464C20.973 22.9935 20.2228 24.0871 19.1181 24.6885C18.0313 25.2802 16.7294 25.3257 15.604 24.8112C14.4601 24.2884 13.6354 23.2497 13.3855 22.017L13.3468 21.8263Z" stroke="#181E32"/>
<circle cx="10.1363" cy="18.4363" r="1" transform="rotate(-2 10.1363 18.4363)" fill="#181E32"/>
<circle cx="24.1278" cy="17.9476" r="1" transform="rotate(-2 24.1278 17.9476)" fill="#181E32"/>
</g>
<defs>
<clipPath id="clip0_703_401">
<rect width="48" height="32" fill="white" transform="translate(0.548584 1.76074) rotate(-2)"/>
</clipPath>
</defs>
</svg>
