<svg width="89" height="66" viewBox="0 0 89 66" fill="none" xmlns="http://www.w3.org/2000/svg">
<path d="M0.646449 3.64642C0.451185 3.84169 0.451183 4.15827 0.646443 4.35353L3.82843 7.53551C4.02369 7.73077 4.34027 7.73077 4.53553 7.53551C4.7308 7.34025 4.7308 7.02366 4.53553 6.82841L1.70711 3.99998L4.53554 1.17155C4.7308 0.976291 4.7308 0.659704 4.53554 0.464445C4.34027 0.269179 4.02369 0.269178 3.82843 0.464446L0.646449 3.64642ZM89 64.5C63.5142 64.5 51.1452 49.4429 40.3454 34.2108C34.9582 26.6127 29.9368 18.9308 23.8838 13.1691C17.8069 7.38454 10.6579 3.49998 1 3.49998L1 4.49998C10.3421 4.49998 17.2556 8.24041 23.1943 13.8934C29.1569 19.5691 34.1043 27.1372 39.5296 34.7892C50.3548 50.0571 62.9858 65.5 89 65.5L89 64.5Z" fill="#181E32"/>
</svg>
