<svg width="92" height="49" viewBox="0 0 92 49" fill="none" xmlns="http://www.w3.org/2000/svg">
<path d="M91.8539 44.6462C92.0492 44.8415 92.0492 45.158 91.8539 45.3533L88.6719 48.5353C88.4767 48.7305 88.1601 48.7305 87.9648 48.5353C87.7696 48.34 87.7696 48.0234 87.9648 47.8282L90.7933 44.9997L87.9648 42.1713C87.7696 41.9761 87.7696 41.6595 87.9648 41.4642C88.1601 41.2689 88.4767 41.2689 88.6719 41.4642L91.8539 44.6462ZM0.959958 0.303882C13.8441 30.5307 44.082 44.4997 91.5004 44.4997L91.5004 45.4997C43.9188 45.4997 13.1572 31.4693 0.0400418 0.695996L0.959958 0.303882Z" fill="#181E32"/>
</svg>
