<svg width="125" height="144" viewBox="0 0 125 144" fill="none" xmlns="http://www.w3.org/2000/svg">
<path d="M0.5 36.2887L62.3538 0.57735L124.208 36.2887V107.711L62.3538 143.423L0.5 107.711V36.2887Z" stroke="#0C9F6A"/>
<g clip-path="url(#clip0_631_763)">
<path d="M66.3782 68.3509C67.8439 68.3509 69.2218 67.7801 70.2582 66.7437C71.2946 65.7073 71.8654 64.3294 71.8654 62.8637C71.8654 61.398 71.2946 60.02 70.2582 58.9836C69.2218 57.9472 67.8439 57.3765 66.3782 57.3765C64.9125 57.3765 63.5345 57.9472 62.4981 58.9836C61.4617 60.02 60.891 61.398 60.891 62.8637C60.891 64.3294 61.4617 65.7073 62.4981 66.7437C63.5345 67.7801 64.9125 68.3509 66.3782 68.3509ZM66.3782 58.2782C68.9066 58.2782 70.9637 60.3352 70.9637 62.8637C70.9637 65.3921 68.9066 67.4492 66.3782 67.4492C63.8497 67.4492 61.7927 65.3921 61.7927 62.8637C61.7927 60.3352 63.8497 58.2782 66.3782 58.2782Z" fill="white"/>
<path d="M87.9796 51.8875C87.9287 51.435 87.7876 51.0068 87.5603 50.6146C87.323 50.2051 87.0035 49.8564 86.6105 49.5781C85.9468 49.1079 85.1264 48.9148 84.3007 49.0347C83.4962 49.1514 82.7537 49.5531 82.2101 50.1659C78.275 54.6014 74.8623 61.6514 72.847 69.5085L72.8408 69.5325C72.5309 70.7416 71.4427 71.5861 70.1945 71.5861H62.1225C61.1582 71.5861 60.2224 71.775 59.3413 72.1477C58.4905 72.5076 57.7265 73.0227 57.0705 73.6787C56.4144 74.3347 55.8994 75.0987 55.5395 75.9495C55.1668 76.8307 54.9778 77.7664 54.9778 78.7307V82.6945C54.9778 82.9435 55.1797 83.1454 55.4287 83.1454C55.6777 83.1454 55.8796 82.9435 55.8796 82.6945V78.7307C55.8796 75.2883 58.6801 72.4878 62.1225 72.4878H70.1945C71.8547 72.4878 73.3021 71.3646 73.7143 69.7563L73.7205 69.7323C75.7013 62.0097 79.0415 55.0961 82.8846 50.7643C83.7157 49.8275 85.1234 49.6296 86.0893 50.3139C86.6539 50.7138 87.007 51.3085 87.0835 51.9884C87.159 52.6596 86.9441 53.3331 86.4938 53.8358C83.1066 57.6149 80.1236 63.838 78.3098 70.9093L78.2894 70.9888C77.3522 74.6636 76.877 78.5643 76.877 82.5826V82.694C76.877 82.943 77.0788 83.1449 77.3279 83.1449C77.5769 83.1449 77.7787 82.943 77.7787 82.694V82.5826C77.7787 78.6394 78.2445 74.8137 79.1632 71.2116L79.1832 71.1335C80.9622 64.1978 83.8716 58.1124 87.1654 54.4375C87.7871 53.7434 88.0838 52.8139 87.9796 51.8875Z" fill="white"/>
<path d="M36.4508 87.1602C36.4515 87.1602 36.4522 87.1602 36.4528 87.1602C37.6738 87.1549 38.2887 86.5127 38.8311 85.9461C39.3294 85.4256 39.7231 85.0145 40.56 85.0101C41.3969 85.0145 41.7906 85.4256 42.2889 85.9461C42.8314 86.5127 43.4462 87.1549 44.6672 87.1602C44.6685 87.1602 44.6699 87.1602 44.6712 87.1602C45.8922 87.1549 46.507 86.5127 47.0495 85.9461C47.5482 85.4252 47.9421 85.0138 48.7804 85.0101C49.0294 85.009 49.2304 84.8063 49.2293 84.5573C49.2282 84.309 49.0265 84.1084 48.7784 84.1084C48.7778 84.1084 48.7771 84.1084 48.7764 84.1084C47.5555 84.1138 46.9406 84.7559 46.3981 85.3225C45.8998 85.843 45.5061 86.2542 44.6692 86.2585C43.8323 86.2542 43.4386 85.843 42.9403 85.3225C42.3978 84.7559 41.783 84.1138 40.562 84.1084C40.5607 84.1084 40.5594 84.1084 40.5581 84.1084C39.3371 84.1138 38.7223 84.7559 38.1798 85.3225C37.6811 85.8434 37.2872 86.2548 36.4489 86.2585C36.1999 86.2596 35.9989 86.4623 36 86.7113C36.0011 86.9596 36.2027 87.1602 36.4508 87.1602Z" fill="white"/>
<path d="M81.6517 84.1084C81.6511 84.1084 81.6504 84.1084 81.6497 84.1084C80.4287 84.1138 79.8139 84.7559 79.2714 85.3225C78.7731 85.843 78.3794 86.2542 77.5425 86.2585C76.7056 86.2542 76.3119 85.843 75.8136 85.3225C75.2711 84.7559 74.6563 84.1138 73.4353 84.1084C73.434 84.1084 73.4327 84.1084 73.4314 84.1084C72.2104 84.1138 71.5956 84.7559 71.0531 85.3225C70.5548 85.843 70.1611 86.2542 69.3242 86.2585C68.4873 86.2542 68.0936 85.843 67.5953 85.3225C67.0528 84.7559 66.4379 84.1138 65.217 84.1084C65.2157 84.1084 65.2143 84.1084 65.213 84.1084C63.9921 84.1138 63.3772 84.7559 62.8348 85.3225C62.3364 85.843 61.9427 86.2542 61.1058 86.2585C60.2689 86.2542 59.8752 85.843 59.3769 85.3225C58.8344 84.7559 58.2196 84.1138 56.9986 84.1084C56.9973 84.1084 56.996 84.1084 56.9947 84.1084C55.7737 84.1138 55.1589 84.7559 54.6164 85.3225C54.1177 85.8434 53.7238 86.2548 52.8855 86.2585C52.6365 86.2596 52.4355 86.4623 52.4366 86.7113C52.4377 86.9596 52.6394 87.1602 52.8875 87.1602C52.8881 87.1602 52.8888 87.1602 52.8895 87.1602C54.1104 87.1549 54.7253 86.5127 55.2677 85.9461C55.7661 85.4257 56.1597 85.0145 56.9967 85.0102C57.8336 85.0145 58.2273 85.4257 58.7256 85.9461C59.268 86.5127 59.8829 87.1549 61.1039 87.1602C61.1052 87.1602 61.1065 87.1602 61.1078 87.1602C62.3288 87.1549 62.9437 86.5127 63.4861 85.9461C63.9844 85.4257 64.3781 85.0145 65.215 85.0102C66.0519 85.0145 66.4456 85.4257 66.9439 85.9461C67.4864 86.5127 68.1012 87.1549 69.3222 87.1602C69.3235 87.1602 69.3248 87.1602 69.3261 87.1602C70.5472 87.1549 71.162 86.5127 71.7045 85.9461C72.2027 85.4257 72.5965 85.0145 73.4334 85.0102C74.2703 85.0145 74.664 85.4257 75.1623 85.9461C75.7047 86.5127 76.3196 87.1549 77.5405 87.1602C77.5419 87.1602 77.5432 87.1602 77.5445 87.1602C78.7655 87.1549 79.3803 86.5127 79.9228 85.9461C80.4215 85.4253 80.8154 85.0138 81.6537 85.0101C81.9027 85.0091 82.1037 84.8063 82.1026 84.5573C82.1015 84.309 81.8998 84.1084 81.6517 84.1084Z" fill="white"/>
<path d="M65.2151 90.9946C65.2144 90.9946 65.2138 90.9946 65.2131 90.9946C63.9921 91 63.3773 91.6421 62.8348 92.2087C62.3365 92.7292 61.9428 93.1403 61.1059 93.1446C60.269 93.1403 59.8753 92.7292 59.377 92.2087C58.8345 91.6421 58.2197 91 56.9987 90.9946H56.9947C55.7738 91 55.1589 91.6421 54.6165 92.2087C54.1181 92.7292 53.7244 93.1403 52.8875 93.1447C52.0506 93.1403 51.6569 92.7292 51.1586 92.2087C50.6162 91.6421 50.0013 91 48.7803 90.9946H48.7764C47.5554 91 46.9406 91.6421 46.3981 92.2087C45.8998 92.7292 45.5061 93.1403 44.6692 93.1447C43.8323 93.1403 43.4386 92.7292 42.9403 92.2087C42.3978 91.6421 41.783 91 40.562 90.9946H40.5581C39.3371 91 38.7222 91.6421 38.1798 92.2087C37.6811 92.7296 37.2872 93.141 36.4489 93.1447C36.1999 93.1458 35.9989 93.3485 36 93.5975C36.0011 93.8458 36.2027 94.0464 36.4508 94.0464C36.4515 94.0464 36.4522 94.0464 36.4528 94.0464C37.6738 94.0411 38.2887 93.3989 38.8311 92.8323C39.3295 92.3119 39.7231 91.9007 40.56 91.8964C41.3969 91.9007 41.7906 92.3119 42.289 92.8323C42.8314 93.3989 43.4463 94.0411 44.6672 94.0464C44.6686 94.0464 44.6699 94.0464 44.6712 94.0464C45.8922 94.0411 46.507 93.3989 47.0495 92.8323C47.5478 92.3119 47.9415 91.9007 48.7784 91.8964C49.6153 91.9007 50.009 92.3119 50.5073 92.8323C51.0498 93.3989 51.6646 94.0411 52.8856 94.0464C52.8869 94.0464 52.8882 94.0464 52.8896 94.0464C54.1105 94.0411 54.7254 93.3989 55.2678 92.8323C55.7662 92.3119 56.1599 91.9007 56.9968 91.8964C57.8337 91.9007 58.2274 92.3119 58.7257 92.8323C59.2682 93.3989 59.883 94.0411 61.104 94.0464C61.1046 94.0464 61.1052 94.0464 61.1059 94.0464H61.1059H61.106H61.106C61.1066 94.0464 61.1073 94.0464 61.1079 94.0464C62.3289 94.0411 62.9438 93.3989 63.4862 92.8323C63.9849 92.3114 64.3788 91.9 65.2171 91.8964C65.4661 91.8953 65.6671 91.6925 65.666 91.4435C65.6648 91.1952 65.4632 90.9946 65.2151 90.9946Z" fill="white"/>
<path d="M81.652 90.9946C81.6513 90.9946 81.6507 90.9946 81.65 90.9947C80.429 91 79.8142 91.6421 79.2717 92.2087C78.7734 92.7292 78.3797 93.1404 77.5428 93.1447C76.7059 93.1404 76.3122 92.7292 75.8138 92.2087C75.2714 91.6421 74.6565 91 73.4356 90.9947C73.4343 90.9946 73.4329 90.9946 73.4316 90.9947C72.2106 91 71.5958 91.6421 71.0533 92.2087C70.5546 92.7296 70.1607 93.141 69.3225 93.1447C69.0735 93.1458 68.8725 93.3485 68.8736 93.5975C68.8747 93.8458 69.0763 94.0464 69.3244 94.0464C69.3251 94.0464 69.3257 94.0464 69.3264 94.0464C70.5474 94.0411 71.1622 93.3989 71.7047 92.8323C72.203 92.3119 72.5967 91.9007 73.4336 91.8964C74.2705 91.9007 74.6642 92.3119 75.1625 92.8323C75.705 93.3989 76.3198 94.0411 77.5408 94.0464C77.5421 94.0464 77.5434 94.0464 77.5447 94.0464C78.7657 94.0411 79.3806 93.3989 79.923 92.8323C80.4217 92.3114 80.8156 91.9 81.6539 91.8964C81.9029 91.8953 82.1039 91.6925 82.1028 91.4435C82.1017 91.1952 81.9001 90.9946 81.652 90.9946Z" fill="white"/>
<path d="M36.7506 83.1457C36.7517 83.1457 36.7528 83.1456 36.7539 83.1456C37.0029 83.1439 37.2033 82.9406 37.2015 82.6916C37.201 82.6145 37.2007 82.5373 37.2007 82.4601C37.2007 75.5941 39.3593 68.9938 43.4888 63.116V82.6943C43.4888 82.9433 43.6907 83.1452 43.9397 83.1452C44.1887 83.1452 44.3905 82.9433 44.3905 82.6943V61.8851C45.1543 60.8843 45.9769 59.9061 46.8573 58.953C46.9736 58.827 47.1321 58.7577 47.3035 58.7577C47.4752 58.7577 47.6339 58.8272 47.7505 58.9534C48.6307 59.9062 49.453 60.8844 50.2171 61.8864V82.6943C50.2171 82.9433 50.419 83.1452 50.668 83.1452C50.917 83.1452 51.1189 82.9433 51.1189 82.6943V63.1185C53.2525 66.1593 54.8646 69.4057 55.9307 72.8175C56.005 73.0552 56.2578 73.1877 56.4955 73.1134C56.7332 73.0391 56.8656 72.7862 56.7914 72.5485C55.9869 69.974 54.8588 67.4529 53.4385 65.0555C52.0428 62.6995 50.352 60.4406 48.4129 58.3415C48.1278 58.0329 47.7235 57.856 47.3035 57.856C47.3035 57.856 47.3036 57.856 47.3035 57.856C46.8838 57.856 46.4798 58.0328 46.195 58.3411C43.0459 61.75 40.5979 65.5132 38.9189 69.5261C37.1804 73.6813 36.299 78.0329 36.299 82.4601C36.299 82.5395 36.2992 82.6188 36.2998 82.698C36.3016 82.9459 36.5031 83.1457 36.7506 83.1457Z" fill="white"/>
</g>
<defs>
<clipPath id="clip0_631_763">
<rect width="52.0001" height="45.0465" fill="white" transform="translate(36 49)"/>
</clipPath>
</defs>
</svg>
