<svg width="104" height="120" viewBox="0 0 104 120" fill="none" xmlns="http://www.w3.org/2000/svg">
<path d="M0.5 30.2887L51.9615 0.57735L103.423 30.2887V89.7113L51.9615 119.423L0.5 89.7113V30.2887Z" stroke="white"/>
<path d="M69.5808 65.4286C68.2299 64.0778 66.032 64.0777 64.6807 65.429L58.7407 71.3826C58.3135 69.9536 56.9867 68.9092 55.4205 68.9092H47.4005C47.3485 68.9092 47.2967 68.9165 47.247 68.9309L42.3944 70.333V68.744C42.3944 68.4385 42.1467 68.1908 41.8412 68.1908H30.5532C30.2477 68.1908 30 68.4385 30 68.744V85.4467C30 85.7522 30.2477 85.9998 30.5532 85.9998H41.8413C42.1468 85.9998 42.3945 85.7522 42.3945 85.4467V81.765H55.8094C57.3251 81.765 58.7498 81.1743 59.821 80.1018L69.5809 70.3283C70.9316 68.9774 70.9316 66.7795 69.5808 65.4286ZM41.2881 71.0687V81.2119V84.8935H31.1064V69.2972H41.2881V71.0687ZM68.7982 69.5462L59.0379 79.32C58.1758 80.1834 57.0292 80.6588 55.8093 80.6588H42.3945V71.4846L47.4789 70.0155H55.4205C56.7208 70.0155 57.7787 71.0734 57.7787 72.3737C57.7787 73.674 56.7209 74.7318 55.4205 74.7318H47.4005V75.8382H55.4205C57.1745 75.8382 58.6282 74.5281 58.8545 72.8351L65.4636 66.2109C66.3832 65.2914 67.8791 65.2915 68.7985 66.2109C69.7179 67.1304 69.7179 68.6265 68.7982 69.5462Z" fill="white"/>
<path d="M73.959 44.7826L71.1933 42.3626C71.0523 41.0048 70.1191 38.7499 67.3494 38.5443C66.0604 38.4488 64.9689 38.7933 64.1061 39.569C63.6139 40.0115 63.2375 40.5607 62.9498 41.1538C62.388 40.3034 61.2945 39.1958 59.1612 38.1145C56.8029 36.9193 55.6445 35.7409 54.5399 34.2272C54.421 34.0642 54.2228 33.9789 54.0231 34.0045C53.8232 34.0299 53.6529 34.1621 53.5787 34.3495C52.2674 37.6607 53.0922 40.3972 53.7904 41.8572C52.0085 41.3715 50.3506 40.4044 48.9255 37.9889C48.8193 37.809 48.6213 37.7042 48.4125 37.718C48.2041 37.7318 48.0212 37.8618 47.9397 38.0542C46.9453 40.401 46.9943 42.9758 48.0812 45.5005C49.5385 48.8854 52.6462 51.6738 56.6071 53.1509C56.6868 53.1806 56.7315 53.2074 56.7549 53.2244C56.7147 53.3442 56.4805 53.7124 55.6911 54.2137C54.0829 55.2351 50.8358 56.2852 48.6525 55.4218C48.4797 55.3535 48.2839 55.3766 48.1317 55.4832C47.9794 55.5898 47.8909 55.7658 47.8961 55.9516C47.8981 56.0227 47.9524 57.7136 48.6505 59.6778C49.5909 62.3235 51.259 64.1903 53.4747 65.0767C53.5405 65.103 53.6101 65.116 53.6794 65.116C53.7703 65.116 53.861 65.0935 53.9428 65.0494C54.0872 64.9715 54.1897 64.8332 54.2224 64.6725C54.2248 64.6603 54.48 63.439 55.2768 62.1888C56.3108 60.5662 57.7379 59.6512 59.5181 59.4692C63.276 59.085 65.9957 57.8358 67.8324 55.6505C69.5828 53.5679 70.4846 50.6812 70.5848 46.8347L73.7771 45.7211C73.963 45.6563 74.1005 45.4974 74.1381 45.3041C74.1754 45.1111 74.1073 44.9123 73.959 44.7826ZM54.2888 35.7099C55.3165 36.9524 56.5674 38.0404 58.6611 39.1016C61.7533 40.6689 62.3235 42.2288 62.4205 42.6168C62.2797 43.1538 62.1881 43.6867 62.1306 44.1757C60.4418 42.8535 58.4889 42.5991 56.5909 42.3517C56.1292 42.2915 55.6718 42.2317 55.22 42.1582C54.7864 41.4956 53.3869 39.0099 54.2888 35.7099ZM69.8567 45.9171C69.6368 45.9939 69.4886 46.2001 69.4858 46.4329C69.4409 50.2082 68.6229 52.9905 66.9854 54.9389C65.3428 56.8933 62.8633 58.0153 59.4055 58.3688C57.2888 58.5852 55.5311 59.7123 54.3224 61.628C53.8023 62.4525 53.4906 63.253 53.3184 63.7906C50.1355 62.1484 49.2941 58.3437 49.076 56.7001C51.802 57.2867 55.3007 55.9949 56.8888 54.718C57.616 54.1333 57.9409 53.5654 57.8544 53.0302C57.8078 52.7414 57.6206 52.3481 56.9934 52.1144C53.3137 50.7424 50.4357 48.1723 49.0972 45.0632C48.2906 43.1897 48.1248 41.2926 48.6028 39.5158C50.9369 42.7306 53.8509 43.1104 56.4477 43.4488C58.58 43.7268 60.5942 43.9893 62.1879 45.7351C62.3397 45.9014 62.5771 45.959 62.7881 45.881C62.9993 45.8031 63.1421 45.605 63.1493 45.3799C63.2491 42.2771 64.2549 40.923 64.8455 40.392C65.4842 39.8178 66.276 39.574 67.2671 39.6479C69.9522 39.8471 70.1 42.5372 70.105 42.6496C70.1105 42.8019 70.1787 42.9453 70.2935 43.0457L72.5151 44.9896L69.8567 45.9171Z" fill="white"/>
</svg>
