<?xml version="1.0" encoding="UTF-8"?> <svg xmlns="http://www.w3.org/2000/svg" xmlns:xlink="http://www.w3.org/1999/xlink" width="1322px" height="654px" viewBox="0 0 1322 654"> <title>Group 24 Copy 2</title> <defs> <rect id="path-1" x="0" y="0.0295608108" width="1350" height="67"></rect> <rect id="path-3" x="0" y="0.0295608108" width="1350" height="64"></rect> <rect id="path-5" x="0" y="27.0295608" width="1350" height="94"></rect> <rect id="path-7" x="0" y="0.0295608108" width="1350" height="96"></rect> <rect id="path-9" x="0" y="4.02956081" width="1350" height="117"></rect> <rect id="path-11" x="0" y="0.0295608108" width="1350" height="120"></rect> <rect id="path-13" x="0" y="0.0295608108" width="1350" height="150"></rect> </defs> <g id="Faculty" stroke="none" stroke-width="1" fill="none" fill-rule="evenodd"> <g id="Group-24-Copy-2" transform="translate(-15.000000, -28.000000)"> <g id="Group-Copy-6"> <mask id="mask-2" fill="white"> <use xlink:href="#path-1"></use> </mask> <g id="Rectangle"></g> <path d="M53.1164054,121 L53.1164054,56.26 L99.9284054,56.26 L99.9284054,121 L136.946405,121 L136.946405,31.692 L16.0984054,31.692 L16.0984054,121 L53.1164054,121 Z M219.282405,123.49 C276.386405,123.49 282.196405,96.1 282.196405,83.65 L282.196405,83.318 L244.182405,83.318 C243.352405,86.804 239.700405,99.752 214.634405,99.752 L214.136405,99.752 C192.722405,99.752 185.750405,87.8 185.750405,75.848 L185.750405,74.686 C185.750405,63.398 192.556405,52.608 214.136405,52.608 L214.634405,52.608 C240.032405,52.608 243.352405,65.224 244.182405,68.71 L282.196405,68.71 L282.196405,68.212 C282.196405,56.26 275.224405,29.202 219.448405,29.202 L209.986405,29.202 C159.024405,29.202 147.902405,54.268 147.902405,74.188 L147.902405,77.508 C147.902405,97.428 159.190405,123.49 210.152405,123.49 L219.282405,123.49 Z M329.506405,121 L385.614405,64.726 L385.614405,121 L422.632405,121 L422.632405,31.692 L384.784405,31.692 L328.676405,87.966 L328.676405,31.692 L291.658405,31.692 L291.658405,121 L329.506405,121 Z M469.278405,121 L495.008405,95.436 L521.236405,121 L563.068405,121 L516.754405,75.018 L561.574405,31.692 L520.074405,31.692 L496.668405,55.098 L473.262405,31.692 L429.604405,31.692 L474.756405,75.682 L428.110405,121 L469.278405,121 Z M630.630405,123.49 C685.742405,123.49 694.540405,97.926 694.540405,77.342 L694.540405,74.354 C694.540405,54.102 685.078405,29.202 630.630405,29.202 L618.844405,29.202 C567.052405,29.202 554.768405,53.77 554.768405,74.354 L554.768405,77.342 C554.768405,97.926 567.218405,123.49 619.010405,123.49 L630.630405,123.49 Z M624.820405,99.42 C599.588405,99.42 592.616405,86.804 592.616405,76.346 L592.616405,75.516 C592.616405,64.228 599.588405,52.94 624.820405,52.94 L624.986405,52.94 C649.886405,52.94 657.024405,64.394 657.024405,75.516 L657.024405,76.346 C657.024405,86.804 650.052405,99.42 624.820405,99.42 Z M706.658405,121 C725.416405,121 735.044405,113.032 738.364405,102.242 C741.020405,93.444 742.016405,81.16 742.016405,56.26 L777.872405,56.26 L777.872405,121 L814.890405,121 L814.890405,31.692 L708.816405,31.692 C708.816405,74.354 707.986405,80.164 706.658405,87.136 C705.330405,94.274 702.342405,96.432 697.528405,96.432 L695.536405,96.432 L695.536405,121 L706.658405,121 Z M901.708405,123.49 C956.820405,123.49 965.618405,97.926 965.618405,77.342 L965.618405,74.354 C965.618405,54.102 956.156405,29.202 901.708405,29.202 L889.922405,29.202 C838.130405,29.202 825.846405,53.77 825.846405,74.354 L825.846405,77.342 C825.846405,97.926 838.296405,123.49 890.088405,123.49 L901.708405,123.49 Z M895.898405,99.42 C870.666405,99.42 863.694405,86.804 863.694405,76.346 L863.694405,75.516 C863.694405,64.228 870.666405,52.94 895.898405,52.94 L896.064405,52.94 C920.964405,52.94 928.102405,64.394 928.102405,75.516 L928.102405,76.346 C928.102405,86.804 921.130405,99.42 895.898405,99.42 Z M1012.59641,121 L1012.59641,56.26 L1060.57041,56.26 L1060.57041,31.692 L975.578405,31.692 L975.578405,121 L1012.59641,121 Z M1109.87241,121 L1165.98041,64.726 L1165.98041,121 L1202.99841,121 L1202.99841,31.692 L1165.15041,31.692 L1109.04241,87.966 L1109.04241,31.692 L1072.02441,31.692 L1072.02441,121 L1109.87241,121 Z M1255.95241,121 L1282.34641,95.436 L1299.44441,95.436 L1299.44441,121 L1336.46241,121 L1336.46241,31.692 L1257.11441,31.692 C1231.21841,31.692 1216.27841,42.98 1216.27841,62.402 L1216.27841,64.062 C1216.27841,79.168 1225.90641,89.128 1243.33641,92.614 L1213.62241,121 L1255.95241,121 Z M1299.44441,72.694 L1267.24041,72.694 C1255.78641,72.694 1253.29641,67.88 1253.29641,63.564 L1253.29641,62.9 C1253.29641,58.75 1255.78641,53.604 1267.07441,53.604 L1299.44441,53.604 L1299.44441,72.694 Z" id="психология" stroke="#000000" stroke-width="0.8" fill-opacity="0" fill="#000000" fill-rule="nonzero" mask="url(#mask-2)"></path> </g> <g id="Group-Copy-7" transform="translate(0.000000, 644.000000)"> <mask id="mask-4" fill="white"> <use xlink:href="#path-3"></use> </mask> <g id="Rectangle"></g> <path d="M53.1164054,35 L53.1164054,-29.74 L99.9284054,-29.74 L99.9284054,35 L136.946405,35 L136.946405,-54.308 L16.0984054,-54.308 L16.0984054,35 L53.1164054,35 Z M219.282405,37.49 C276.386405,37.49 282.196405,10.1 282.196405,-2.35 L282.196405,-2.682 L244.182405,-2.682 C243.352405,0.804 239.700405,13.752 214.634405,13.752 L214.136405,13.752 C192.722405,13.752 185.750405,1.8 185.750405,-10.152 L185.750405,-11.314 C185.750405,-22.602 192.556405,-33.392 214.136405,-33.392 L214.634405,-33.392 C240.032405,-33.392 243.352405,-20.776 244.182405,-17.29 L282.196405,-17.29 L282.196405,-17.788 C282.196405,-29.74 275.224405,-56.798 219.448405,-56.798 L209.986405,-56.798 C159.024405,-56.798 147.902405,-31.732 147.902405,-11.812 L147.902405,-8.492 C147.902405,11.428 159.190405,37.49 210.152405,37.49 L219.282405,37.49 Z M329.506405,35 L385.614405,-21.274 L385.614405,35 L422.632405,35 L422.632405,-54.308 L384.784405,-54.308 L328.676405,1.966 L328.676405,-54.308 L291.658405,-54.308 L291.658405,35 L329.506405,35 Z M469.278405,35 L495.008405,9.436 L521.236405,35 L563.068405,35 L516.754405,-10.982 L561.574405,-54.308 L520.074405,-54.308 L496.668405,-30.902 L473.262405,-54.308 L429.604405,-54.308 L474.756405,-10.318 L428.110405,35 L469.278405,35 Z M630.630405,37.49 C685.742405,37.49 694.540405,11.926 694.540405,-8.658 L694.540405,-11.646 C694.540405,-31.898 685.078405,-56.798 630.630405,-56.798 L618.844405,-56.798 C567.052405,-56.798 554.768405,-32.23 554.768405,-11.646 L554.768405,-8.658 C554.768405,11.926 567.218405,37.49 619.010405,37.49 L630.630405,37.49 Z M624.820405,13.42 C599.588405,13.42 592.616405,0.804 592.616405,-9.654 L592.616405,-10.484 C592.616405,-21.772 599.588405,-33.06 624.820405,-33.06 L624.986405,-33.06 C649.886405,-33.06 657.024405,-21.606 657.024405,-10.484 L657.024405,-9.654 C657.024405,0.804 650.052405,13.42 624.820405,13.42 Z M706.658405,35 C725.416405,35 735.044405,27.032 738.364405,16.242 C741.020405,7.444 742.016405,-4.84 742.016405,-29.74 L777.872405,-29.74 L777.872405,35 L814.890405,35 L814.890405,-54.308 L708.816405,-54.308 C708.816405,-11.646 707.986405,-5.836 706.658405,1.136 C705.330405,8.274 702.342405,10.432 697.528405,10.432 L695.536405,10.432 L695.536405,35 L706.658405,35 Z M901.708405,37.49 C956.820405,37.49 965.618405,11.926 965.618405,-8.658 L965.618405,-11.646 C965.618405,-31.898 956.156405,-56.798 901.708405,-56.798 L889.922405,-56.798 C838.130405,-56.798 825.846405,-32.23 825.846405,-11.646 L825.846405,-8.658 C825.846405,11.926 838.296405,37.49 890.088405,37.49 L901.708405,37.49 Z M895.898405,13.42 C870.666405,13.42 863.694405,0.804 863.694405,-9.654 L863.694405,-10.484 C863.694405,-21.772 870.666405,-33.06 895.898405,-33.06 L896.064405,-33.06 C920.964405,-33.06 928.102405,-21.606 928.102405,-10.484 L928.102405,-9.654 C928.102405,0.804 921.130405,13.42 895.898405,13.42 Z M1012.59641,35 L1012.59641,-29.74 L1060.57041,-29.74 L1060.57041,-54.308 L975.578405,-54.308 L975.578405,35 L1012.59641,35 Z M1109.87241,35 L1165.98041,-21.274 L1165.98041,35 L1202.99841,35 L1202.99841,-54.308 L1165.15041,-54.308 L1109.04241,1.966 L1109.04241,-54.308 L1072.02441,-54.308 L1072.02441,35 L1109.87241,35 Z M1255.95241,35 L1282.34641,9.436 L1299.44441,9.436 L1299.44441,35 L1336.46241,35 L1336.46241,-54.308 L1257.11441,-54.308 C1231.21841,-54.308 1216.27841,-43.02 1216.27841,-23.598 L1216.27841,-21.938 C1216.27841,-6.832 1225.90641,3.128 1243.33641,6.614 L1213.62241,35 L1255.95241,35 Z M1299.44441,-13.306 L1267.24041,-13.306 C1255.78641,-13.306 1253.29641,-18.12 1253.29641,-22.436 L1253.29641,-23.1 C1253.29641,-27.25 1255.78641,-32.396 1267.07441,-32.396 L1299.44441,-32.396 L1299.44441,-13.306 Z" id="психология" stroke="#000000" stroke-width="0.8" fill-opacity="0" fill="#000000" fill-rule="nonzero" mask="url(#mask-4)"></path> </g> <g id="Group-Copy-4" transform="translate(0.000000, 523.000000)"> <mask id="mask-6" fill="white"> <use xlink:href="#path-5"></use> </mask> <g id="Rectangle"></g> <path d="M53.1164054,92 L53.1164054,27.26 L99.9284054,27.26 L99.9284054,92 L136.946405,92 L136.946405,2.692 L16.0984054,2.692 L16.0984054,92 L53.1164054,92 Z M219.282405,94.49 C276.386405,94.49 282.196405,67.1 282.196405,54.65 L282.196405,54.318 L244.182405,54.318 C243.352405,57.804 239.700405,70.752 214.634405,70.752 L214.136405,70.752 C192.722405,70.752 185.750405,58.8 185.750405,46.848 L185.750405,45.686 C185.750405,34.398 192.556405,23.608 214.136405,23.608 L214.634405,23.608 C240.032405,23.608 243.352405,36.224 244.182405,39.71 L282.196405,39.71 L282.196405,39.212 C282.196405,27.26 275.224405,0.202 219.448405,0.202 L209.986405,0.202 C159.024405,0.202 147.902405,25.268 147.902405,45.188 L147.902405,48.508 C147.902405,68.428 159.190405,94.49 210.152405,94.49 L219.282405,94.49 Z M329.506405,92 L385.614405,35.726 L385.614405,92 L422.632405,92 L422.632405,2.692 L384.784405,2.692 L328.676405,58.966 L328.676405,2.692 L291.658405,2.692 L291.658405,92 L329.506405,92 Z M469.278405,92 L495.008405,66.436 L521.236405,92 L563.068405,92 L516.754405,46.018 L561.574405,2.692 L520.074405,2.692 L496.668405,26.098 L473.262405,2.692 L429.604405,2.692 L474.756405,46.682 L428.110405,92 L469.278405,92 Z M630.630405,94.49 C685.742405,94.49 694.540405,68.926 694.540405,48.342 L694.540405,45.354 C694.540405,25.102 685.078405,0.202 630.630405,0.202 L618.844405,0.202 C567.052405,0.202 554.768405,24.77 554.768405,45.354 L554.768405,48.342 C554.768405,68.926 567.218405,94.49 619.010405,94.49 L630.630405,94.49 Z M624.820405,70.42 C599.588405,70.42 592.616405,57.804 592.616405,47.346 L592.616405,46.516 C592.616405,35.228 599.588405,23.94 624.820405,23.94 L624.986405,23.94 C649.886405,23.94 657.024405,35.394 657.024405,46.516 L657.024405,47.346 C657.024405,57.804 650.052405,70.42 624.820405,70.42 Z M706.658405,92 C725.416405,92 735.044405,84.032 738.364405,73.242 C741.020405,64.444 742.016405,52.16 742.016405,27.26 L777.872405,27.26 L777.872405,92 L814.890405,92 L814.890405,2.692 L708.816405,2.692 C708.816405,45.354 707.986405,51.164 706.658405,58.136 C705.330405,65.274 702.342405,67.432 697.528405,67.432 L695.536405,67.432 L695.536405,92 L706.658405,92 Z M901.708405,94.49 C956.820405,94.49 965.618405,68.926 965.618405,48.342 L965.618405,45.354 C965.618405,25.102 956.156405,0.202 901.708405,0.202 L889.922405,0.202 C838.130405,0.202 825.846405,24.77 825.846405,45.354 L825.846405,48.342 C825.846405,68.926 838.296405,94.49 890.088405,94.49 L901.708405,94.49 Z M895.898405,70.42 C870.666405,70.42 863.694405,57.804 863.694405,47.346 L863.694405,46.516 C863.694405,35.228 870.666405,23.94 895.898405,23.94 L896.064405,23.94 C920.964405,23.94 928.102405,35.394 928.102405,46.516 L928.102405,47.346 C928.102405,57.804 921.130405,70.42 895.898405,70.42 Z M1012.59641,92 L1012.59641,27.26 L1060.57041,27.26 L1060.57041,2.692 L975.578405,2.692 L975.578405,92 L1012.59641,92 Z M1109.87241,92 L1165.98041,35.726 L1165.98041,92 L1202.99841,92 L1202.99841,2.692 L1165.15041,2.692 L1109.04241,58.966 L1109.04241,2.692 L1072.02441,2.692 L1072.02441,92 L1109.87241,92 Z M1255.95241,92 L1282.34641,66.436 L1299.44441,66.436 L1299.44441,92 L1336.46241,92 L1336.46241,2.692 L1257.11441,2.692 C1231.21841,2.692 1216.27841,13.98 1216.27841,33.402 L1216.27841,35.062 C1216.27841,50.168 1225.90641,60.128 1243.33641,63.614 L1213.62241,92 L1255.95241,92 Z M1299.44441,43.694 L1267.24041,43.694 C1255.78641,43.694 1253.29641,38.88 1253.29641,34.564 L1253.29641,33.9 C1253.29641,29.75 1255.78641,24.604 1267.07441,24.604 L1299.44441,24.604 L1299.44441,43.694 Z" id="психология" stroke="#000000" stroke-width="0.8" fill-opacity="0" fill="#000000" fill-rule="nonzero" mask="url(#mask-6)"></path> </g> <g id="Group-Copy-5" transform="translate(0.000000, 67.000000)"> <mask id="mask-8" fill="white"> <use xlink:href="#path-7"></use> </mask> <g id="Rectangle"></g> <path d="M53.1164054,121 L53.1164054,56.26 L99.9284054,56.26 L99.9284054,121 L136.946405,121 L136.946405,31.692 L16.0984054,31.692 L16.0984054,121 L53.1164054,121 Z M219.282405,123.49 C276.386405,123.49 282.196405,96.1 282.196405,83.65 L282.196405,83.318 L244.182405,83.318 C243.352405,86.804 239.700405,99.752 214.634405,99.752 L214.136405,99.752 C192.722405,99.752 185.750405,87.8 185.750405,75.848 L185.750405,74.686 C185.750405,63.398 192.556405,52.608 214.136405,52.608 L214.634405,52.608 C240.032405,52.608 243.352405,65.224 244.182405,68.71 L282.196405,68.71 L282.196405,68.212 C282.196405,56.26 275.224405,29.202 219.448405,29.202 L209.986405,29.202 C159.024405,29.202 147.902405,54.268 147.902405,74.188 L147.902405,77.508 C147.902405,97.428 159.190405,123.49 210.152405,123.49 L219.282405,123.49 Z M329.506405,121 L385.614405,64.726 L385.614405,121 L422.632405,121 L422.632405,31.692 L384.784405,31.692 L328.676405,87.966 L328.676405,31.692 L291.658405,31.692 L291.658405,121 L329.506405,121 Z M469.278405,121 L495.008405,95.436 L521.236405,121 L563.068405,121 L516.754405,75.018 L561.574405,31.692 L520.074405,31.692 L496.668405,55.098 L473.262405,31.692 L429.604405,31.692 L474.756405,75.682 L428.110405,121 L469.278405,121 Z M630.630405,123.49 C685.742405,123.49 694.540405,97.926 694.540405,77.342 L694.540405,74.354 C694.540405,54.102 685.078405,29.202 630.630405,29.202 L618.844405,29.202 C567.052405,29.202 554.768405,53.77 554.768405,74.354 L554.768405,77.342 C554.768405,97.926 567.218405,123.49 619.010405,123.49 L630.630405,123.49 Z M624.820405,99.42 C599.588405,99.42 592.616405,86.804 592.616405,76.346 L592.616405,75.516 C592.616405,64.228 599.588405,52.94 624.820405,52.94 L624.986405,52.94 C649.886405,52.94 657.024405,64.394 657.024405,75.516 L657.024405,76.346 C657.024405,86.804 650.052405,99.42 624.820405,99.42 Z M706.658405,121 C725.416405,121 735.044405,113.032 738.364405,102.242 C741.020405,93.444 742.016405,81.16 742.016405,56.26 L777.872405,56.26 L777.872405,121 L814.890405,121 L814.890405,31.692 L708.816405,31.692 C708.816405,74.354 707.986405,80.164 706.658405,87.136 C705.330405,94.274 702.342405,96.432 697.528405,96.432 L695.536405,96.432 L695.536405,121 L706.658405,121 Z M901.708405,123.49 C956.820405,123.49 965.618405,97.926 965.618405,77.342 L965.618405,74.354 C965.618405,54.102 956.156405,29.202 901.708405,29.202 L889.922405,29.202 C838.130405,29.202 825.846405,53.77 825.846405,74.354 L825.846405,77.342 C825.846405,97.926 838.296405,123.49 890.088405,123.49 L901.708405,123.49 Z M895.898405,99.42 C870.666405,99.42 863.694405,86.804 863.694405,76.346 L863.694405,75.516 C863.694405,64.228 870.666405,52.94 895.898405,52.94 L896.064405,52.94 C920.964405,52.94 928.102405,64.394 928.102405,75.516 L928.102405,76.346 C928.102405,86.804 921.130405,99.42 895.898405,99.42 Z M1012.59641,121 L1012.59641,56.26 L1060.57041,56.26 L1060.57041,31.692 L975.578405,31.692 L975.578405,121 L1012.59641,121 Z M1109.87241,121 L1165.98041,64.726 L1165.98041,121 L1202.99841,121 L1202.99841,31.692 L1165.15041,31.692 L1109.04241,87.966 L1109.04241,31.692 L1072.02441,31.692 L1072.02441,121 L1109.87241,121 Z M1255.95241,121 L1282.34641,95.436 L1299.44441,95.436 L1299.44441,121 L1336.46241,121 L1336.46241,31.692 L1257.11441,31.692 C1231.21841,31.692 1216.27841,42.98 1216.27841,62.402 L1216.27841,64.062 C1216.27841,79.168 1225.90641,89.128 1243.33641,92.614 L1213.62241,121 L1255.95241,121 Z M1299.44441,72.694 L1267.24041,72.694 C1255.78641,72.694 1253.29641,67.88 1253.29641,63.564 L1253.29641,62.9 C1253.29641,58.75 1255.78641,53.604 1267.07441,53.604 L1299.44441,53.604 L1299.44441,72.694 Z" id="психология" stroke="#000000" stroke-width="0.8" fill-opacity="0" fill="#000000" fill-rule="nonzero" mask="url(#mask-8)"></path> </g> <g id="Group-Copy-2" transform="translate(0.000000, 429.000000)"> <mask id="mask-10" fill="white"> <use xlink:href="#path-9"></use> </mask> <g id="Rectangle"></g> <path d="M53.1164054,92 L53.1164054,27.26 L99.9284054,27.26 L99.9284054,92 L136.946405,92 L136.946405,2.692 L16.0984054,2.692 L16.0984054,92 L53.1164054,92 Z M219.282405,94.49 C276.386405,94.49 282.196405,67.1 282.196405,54.65 L282.196405,54.318 L244.182405,54.318 C243.352405,57.804 239.700405,70.752 214.634405,70.752 L214.136405,70.752 C192.722405,70.752 185.750405,58.8 185.750405,46.848 L185.750405,45.686 C185.750405,34.398 192.556405,23.608 214.136405,23.608 L214.634405,23.608 C240.032405,23.608 243.352405,36.224 244.182405,39.71 L282.196405,39.71 L282.196405,39.212 C282.196405,27.26 275.224405,0.202 219.448405,0.202 L209.986405,0.202 C159.024405,0.202 147.902405,25.268 147.902405,45.188 L147.902405,48.508 C147.902405,68.428 159.190405,94.49 210.152405,94.49 L219.282405,94.49 Z M329.506405,92 L385.614405,35.726 L385.614405,92 L422.632405,92 L422.632405,2.692 L384.784405,2.692 L328.676405,58.966 L328.676405,2.692 L291.658405,2.692 L291.658405,92 L329.506405,92 Z M469.278405,92 L495.008405,66.436 L521.236405,92 L563.068405,92 L516.754405,46.018 L561.574405,2.692 L520.074405,2.692 L496.668405,26.098 L473.262405,2.692 L429.604405,2.692 L474.756405,46.682 L428.110405,92 L469.278405,92 Z M630.630405,94.49 C685.742405,94.49 694.540405,68.926 694.540405,48.342 L694.540405,45.354 C694.540405,25.102 685.078405,0.202 630.630405,0.202 L618.844405,0.202 C567.052405,0.202 554.768405,24.77 554.768405,45.354 L554.768405,48.342 C554.768405,68.926 567.218405,94.49 619.010405,94.49 L630.630405,94.49 Z M624.820405,70.42 C599.588405,70.42 592.616405,57.804 592.616405,47.346 L592.616405,46.516 C592.616405,35.228 599.588405,23.94 624.820405,23.94 L624.986405,23.94 C649.886405,23.94 657.024405,35.394 657.024405,46.516 L657.024405,47.346 C657.024405,57.804 650.052405,70.42 624.820405,70.42 Z M706.658405,92 C725.416405,92 735.044405,84.032 738.364405,73.242 C741.020405,64.444 742.016405,52.16 742.016405,27.26 L777.872405,27.26 L777.872405,92 L814.890405,92 L814.890405,2.692 L708.816405,2.692 C708.816405,45.354 707.986405,51.164 706.658405,58.136 C705.330405,65.274 702.342405,67.432 697.528405,67.432 L695.536405,67.432 L695.536405,92 L706.658405,92 Z M901.708405,94.49 C956.820405,94.49 965.618405,68.926 965.618405,48.342 L965.618405,45.354 C965.618405,25.102 956.156405,0.202 901.708405,0.202 L889.922405,0.202 C838.130405,0.202 825.846405,24.77 825.846405,45.354 L825.846405,48.342 C825.846405,68.926 838.296405,94.49 890.088405,94.49 L901.708405,94.49 Z M895.898405,70.42 C870.666405,70.42 863.694405,57.804 863.694405,47.346 L863.694405,46.516 C863.694405,35.228 870.666405,23.94 895.898405,23.94 L896.064405,23.94 C920.964405,23.94 928.102405,35.394 928.102405,46.516 L928.102405,47.346 C928.102405,57.804 921.130405,70.42 895.898405,70.42 Z M1012.59641,92 L1012.59641,27.26 L1060.57041,27.26 L1060.57041,2.692 L975.578405,2.692 L975.578405,92 L1012.59641,92 Z M1109.87241,92 L1165.98041,35.726 L1165.98041,92 L1202.99841,92 L1202.99841,2.692 L1165.15041,2.692 L1109.04241,58.966 L1109.04241,2.692 L1072.02441,2.692 L1072.02441,92 L1109.87241,92 Z M1255.95241,92 L1282.34641,66.436 L1299.44441,66.436 L1299.44441,92 L1336.46241,92 L1336.46241,2.692 L1257.11441,2.692 C1231.21841,2.692 1216.27841,13.98 1216.27841,33.402 L1216.27841,35.062 C1216.27841,50.168 1225.90641,60.128 1243.33641,63.614 L1213.62241,92 L1255.95241,92 Z M1299.44441,43.694 L1267.24041,43.694 C1255.78641,43.694 1253.29641,38.88 1253.29641,34.564 L1253.29641,33.9 C1253.29641,29.75 1255.78641,24.604 1267.07441,24.604 L1299.44441,24.604 L1299.44441,43.694 Z" id="психология" stroke="#000000" stroke-width="0.8" fill-opacity="0" fill="#000000" fill-rule="nonzero" mask="url(#mask-10)"></path> </g> <g id="Group-Copy-3" transform="translate(0.000000, 163.000000)"> <mask id="mask-12" fill="white"> <use xlink:href="#path-11"></use> </mask> <g id="Rectangle"></g> <path d="M53.1164054,121 L53.1164054,56.26 L99.9284054,56.26 L99.9284054,121 L136.946405,121 L136.946405,31.692 L16.0984054,31.692 L16.0984054,121 L53.1164054,121 Z M219.282405,123.49 C276.386405,123.49 282.196405,96.1 282.196405,83.65 L282.196405,83.318 L244.182405,83.318 C243.352405,86.804 239.700405,99.752 214.634405,99.752 L214.136405,99.752 C192.722405,99.752 185.750405,87.8 185.750405,75.848 L185.750405,74.686 C185.750405,63.398 192.556405,52.608 214.136405,52.608 L214.634405,52.608 C240.032405,52.608 243.352405,65.224 244.182405,68.71 L282.196405,68.71 L282.196405,68.212 C282.196405,56.26 275.224405,29.202 219.448405,29.202 L209.986405,29.202 C159.024405,29.202 147.902405,54.268 147.902405,74.188 L147.902405,77.508 C147.902405,97.428 159.190405,123.49 210.152405,123.49 L219.282405,123.49 Z M329.506405,121 L385.614405,64.726 L385.614405,121 L422.632405,121 L422.632405,31.692 L384.784405,31.692 L328.676405,87.966 L328.676405,31.692 L291.658405,31.692 L291.658405,121 L329.506405,121 Z M469.278405,121 L495.008405,95.436 L521.236405,121 L563.068405,121 L516.754405,75.018 L561.574405,31.692 L520.074405,31.692 L496.668405,55.098 L473.262405,31.692 L429.604405,31.692 L474.756405,75.682 L428.110405,121 L469.278405,121 Z M630.630405,123.49 C685.742405,123.49 694.540405,97.926 694.540405,77.342 L694.540405,74.354 C694.540405,54.102 685.078405,29.202 630.630405,29.202 L618.844405,29.202 C567.052405,29.202 554.768405,53.77 554.768405,74.354 L554.768405,77.342 C554.768405,97.926 567.218405,123.49 619.010405,123.49 L630.630405,123.49 Z M624.820405,99.42 C599.588405,99.42 592.616405,86.804 592.616405,76.346 L592.616405,75.516 C592.616405,64.228 599.588405,52.94 624.820405,52.94 L624.986405,52.94 C649.886405,52.94 657.024405,64.394 657.024405,75.516 L657.024405,76.346 C657.024405,86.804 650.052405,99.42 624.820405,99.42 Z M706.658405,121 C725.416405,121 735.044405,113.032 738.364405,102.242 C741.020405,93.444 742.016405,81.16 742.016405,56.26 L777.872405,56.26 L777.872405,121 L814.890405,121 L814.890405,31.692 L708.816405,31.692 C708.816405,74.354 707.986405,80.164 706.658405,87.136 C705.330405,94.274 702.342405,96.432 697.528405,96.432 L695.536405,96.432 L695.536405,121 L706.658405,121 Z M901.708405,123.49 C956.820405,123.49 965.618405,97.926 965.618405,77.342 L965.618405,74.354 C965.618405,54.102 956.156405,29.202 901.708405,29.202 L889.922405,29.202 C838.130405,29.202 825.846405,53.77 825.846405,74.354 L825.846405,77.342 C825.846405,97.926 838.296405,123.49 890.088405,123.49 L901.708405,123.49 Z M895.898405,99.42 C870.666405,99.42 863.694405,86.804 863.694405,76.346 L863.694405,75.516 C863.694405,64.228 870.666405,52.94 895.898405,52.94 L896.064405,52.94 C920.964405,52.94 928.102405,64.394 928.102405,75.516 L928.102405,76.346 C928.102405,86.804 921.130405,99.42 895.898405,99.42 Z M1012.59641,121 L1012.59641,56.26 L1060.57041,56.26 L1060.57041,31.692 L975.578405,31.692 L975.578405,121 L1012.59641,121 Z M1109.87241,121 L1165.98041,64.726 L1165.98041,121 L1202.99841,121 L1202.99841,31.692 L1165.15041,31.692 L1109.04241,87.966 L1109.04241,31.692 L1072.02441,31.692 L1072.02441,121 L1109.87241,121 Z M1255.95241,121 L1282.34641,95.436 L1299.44441,95.436 L1299.44441,121 L1336.46241,121 L1336.46241,31.692 L1257.11441,31.692 C1231.21841,31.692 1216.27841,42.98 1216.27841,62.402 L1216.27841,64.062 C1216.27841,79.168 1225.90641,89.128 1243.33641,92.614 L1213.62241,121 L1255.95241,121 Z M1299.44441,72.694 L1267.24041,72.694 C1255.78641,72.694 1253.29641,67.88 1253.29641,63.564 L1253.29641,62.9 C1253.29641,58.75 1255.78641,53.604 1267.07441,53.604 L1299.44441,53.604 L1299.44441,72.694 Z" id="психология" stroke="#000000" stroke-width="0.8" fill-opacity="0" fill="#000000" fill-rule="nonzero" mask="url(#mask-12)"></path> </g> <g id="Group" transform="translate(0.000000, 283.000000)"> <mask id="mask-14" fill="white"> <use xlink:href="#path-13"></use> </mask> <g id="Rectangle"></g> <path d="M53.1164054,121 L53.1164054,56.26 L99.9284054,56.26 L99.9284054,121 L136.946405,121 L136.946405,31.692 L16.0984054,31.692 L16.0984054,121 L53.1164054,121 Z M219.282405,123.49 C276.386405,123.49 282.196405,96.1 282.196405,83.65 L282.196405,83.318 L244.182405,83.318 C243.352405,86.804 239.700405,99.752 214.634405,99.752 L214.136405,99.752 C192.722405,99.752 185.750405,87.8 185.750405,75.848 L185.750405,74.686 C185.750405,63.398 192.556405,52.608 214.136405,52.608 L214.634405,52.608 C240.032405,52.608 243.352405,65.224 244.182405,68.71 L282.196405,68.71 L282.196405,68.212 C282.196405,56.26 275.224405,29.202 219.448405,29.202 L209.986405,29.202 C159.024405,29.202 147.902405,54.268 147.902405,74.188 L147.902405,77.508 C147.902405,97.428 159.190405,123.49 210.152405,123.49 L219.282405,123.49 Z M329.506405,121 L385.614405,64.726 L385.614405,121 L422.632405,121 L422.632405,31.692 L384.784405,31.692 L328.676405,87.966 L328.676405,31.692 L291.658405,31.692 L291.658405,121 L329.506405,121 Z M469.278405,121 L495.008405,95.436 L521.236405,121 L563.068405,121 L516.754405,75.018 L561.574405,31.692 L520.074405,31.692 L496.668405,55.098 L473.262405,31.692 L429.604405,31.692 L474.756405,75.682 L428.110405,121 L469.278405,121 Z M630.630405,123.49 C685.742405,123.49 694.540405,97.926 694.540405,77.342 L694.540405,74.354 C694.540405,54.102 685.078405,29.202 630.630405,29.202 L618.844405,29.202 C567.052405,29.202 554.768405,53.77 554.768405,74.354 L554.768405,77.342 C554.768405,97.926 567.218405,123.49 619.010405,123.49 L630.630405,123.49 Z M624.820405,99.42 C599.588405,99.42 592.616405,86.804 592.616405,76.346 L592.616405,75.516 C592.616405,64.228 599.588405,52.94 624.820405,52.94 L624.986405,52.94 C649.886405,52.94 657.024405,64.394 657.024405,75.516 L657.024405,76.346 C657.024405,86.804 650.052405,99.42 624.820405,99.42 Z M706.658405,121 C725.416405,121 735.044405,113.032 738.364405,102.242 C741.020405,93.444 742.016405,81.16 742.016405,56.26 L777.872405,56.26 L777.872405,121 L814.890405,121 L814.890405,31.692 L708.816405,31.692 C708.816405,74.354 707.986405,80.164 706.658405,87.136 C705.330405,94.274 702.342405,96.432 697.528405,96.432 L695.536405,96.432 L695.536405,121 L706.658405,121 Z M901.708405,123.49 C956.820405,123.49 965.618405,97.926 965.618405,77.342 L965.618405,74.354 C965.618405,54.102 956.156405,29.202 901.708405,29.202 L889.922405,29.202 C838.130405,29.202 825.846405,53.77 825.846405,74.354 L825.846405,77.342 C825.846405,97.926 838.296405,123.49 890.088405,123.49 L901.708405,123.49 Z M895.898405,99.42 C870.666405,99.42 863.694405,86.804 863.694405,76.346 L863.694405,75.516 C863.694405,64.228 870.666405,52.94 895.898405,52.94 L896.064405,52.94 C920.964405,52.94 928.102405,64.394 928.102405,75.516 L928.102405,76.346 C928.102405,86.804 921.130405,99.42 895.898405,99.42 Z M1012.59641,121 L1012.59641,56.26 L1060.57041,56.26 L1060.57041,31.692 L975.578405,31.692 L975.578405,121 L1012.59641,121 Z M1109.87241,121 L1165.98041,64.726 L1165.98041,121 L1202.99841,121 L1202.99841,31.692 L1165.15041,31.692 L1109.04241,87.966 L1109.04241,31.692 L1072.02441,31.692 L1072.02441,121 L1109.87241,121 Z M1255.95241,121 L1282.34641,95.436 L1299.44441,95.436 L1299.44441,121 L1336.46241,121 L1336.46241,31.692 L1257.11441,31.692 C1231.21841,31.692 1216.27841,42.98 1216.27841,62.402 L1216.27841,64.062 C1216.27841,79.168 1225.90641,89.128 1243.33641,92.614 L1213.62241,121 L1255.95241,121 Z M1299.44441,72.694 L1267.24041,72.694 C1255.78641,72.694 1253.29641,67.88 1253.29641,63.564 L1253.29641,62.9 C1253.29641,58.75 1255.78641,53.604 1267.07441,53.604 L1299.44441,53.604 L1299.44441,72.694 Z" id="психология" stroke="#000000" stroke-width="0.8" fill-opacity="0" fill="#000000" fill-rule="nonzero" mask="url(#mask-14)"></path> </g> </g> </g> </svg> 