<?xml version="1.0" encoding="UTF-8"?> <svg xmlns="http://www.w3.org/2000/svg" xmlns:xlink="http://www.w3.org/1999/xlink" width="81px" height="48px" viewBox="0 0 81 48"> <title>фаббинг</title> <g id="Faculty" stroke="none" stroke-width="1" fill="none" fill-rule="evenodd"> <g id="Group-5-Copy-2" transform="translate(-167.000000, 9.000000)" fill="#000000" fill-rule="nonzero"> <path d="M183.396701,37.2708134 L180.078389,34.3877092 C180.887916,33.2971602 181.461544,32.0016513 181.49454,30.7883863 C181.568268,28.8929498 180.753576,27.3847503 179.396963,26.150865 C177.956304,24.9819488 176.351162,24.4152826 174.543383,24.7488979 C173.303564,24.968816 172.114536,25.7020383 171.161407,26.6402206 L168.629425,24.4403165 L167.426993,25.8242572 L169.958975,28.0241613 C169.135784,29.1304368 168.57582,30.4102192 168.544887,31.6528747 C168.478635,33.4444129 169.285851,35.0565108 170.624674,36.2473414 C172.085185,37.4887029 173.788037,37.9746734 175.496043,37.6923632 C176.749526,37.4567185 177.922827,36.7098322 178.875957,35.7716499 L182.194269,38.6547541 L183.396701,37.2708134 Z M177.444836,34.5282258 C176.792315,35.1204229 176.041309,35.5718549 175.297005,35.6979276 C174.043523,35.9335723 172.950397,35.5081856 171.97741,34.6904082 C171.000299,33.8138495 170.467397,32.7436723 170.531846,31.5577353 C170.550664,30.7737279 170.908504,29.9806959 171.405822,29.2812494 L177.444836,34.5282258 Z M178.631542,33.1306211 L172.608254,27.8973087 C173.245049,27.2914476 173.996054,26.8400156 174.740358,26.7139429 C175.948724,26.4666968 177.089029,26.9330755 178.030563,27.7235249 C178.991948,28.5864196 179.552178,29.6251436 179.505518,30.8541352 C179.470973,31.6244786 179.128859,32.4311745 178.631542,33.1306211 Z M189.441564,24.214717 C189.748751,23.4847784 189.884154,22.4904858 189.664818,21.6905915 L191.061607,23.3195831 L192.421736,22.153332 L187.824537,16.7918938 C187.404144,16.3016148 186.818799,15.8430014 186.118237,15.5380685 C184.387173,14.7994592 182.631485,15.3443641 181.065755,16.686909 C179.737257,17.8260379 179.00763,19.2475212 179.116397,20.9106409 L179.179762,21.4326202 L181.170463,20.9057504 C181.136543,20.7701745 181.134254,20.6074765 181.129711,20.474155 C181.095652,19.5702811 181.540669,18.7770459 182.26818,18.1532372 C182.839791,17.6356626 183.547012,17.2762425 184.274627,17.2286573 C184.884736,17.1720546 185.488116,17.3956559 185.944649,17.8000598 L184.503258,19.4476417 C183.369123,20.7494339 182.553518,21.5585539 182.083736,22.8670052 C181.68398,24.0330828 181.885315,25.2600637 182.671856,26.1773599 C183.214299,26.8099779 183.797355,27.1058933 184.622186,27.3317143 C185.609716,27.5552463 186.859275,27.2522207 187.756247,26.5379934 C188.51088,25.9458156 189.089219,25.1480369 189.441564,24.214717 Z M186.770729,24.9405633 C185.891827,25.6118531 184.719021,25.4923008 184.124589,24.7670445 C183.204691,23.6622172 184.35915,22.2881109 185.448092,20.9976253 C186.198147,20.0800515 186.683883,19.5263372 187.106356,19.0268671 C187.567432,19.5645925 187.987825,20.0548715 188.204906,20.8841423 C188.713602,22.341557 187.886863,24.0658577 186.770729,24.9405633 Z M201.138158,14.8237946 C201.373805,13.4281024 201.003318,11.979206 200.202285,10.7853884 C199.458032,9.67890216 198.360072,8.67813726 197.029864,8.27566657 C195.630654,7.84350911 194.118868,8.15548638 192.907584,8.96787568 C191.807208,9.68330639 191.112997,10.7559019 190.872968,12.0301946 C190.31998,10.8739029 189.94079,9.67916165 190.3756,8.55157393 C190.79819,7.48163087 191.900294,6.61597827 193.046959,5.89530176 C193.669635,5.51530654 194.448643,5.10821787 195.204075,4.74130757 L194.193387,3.18680819 C193.496464,3.49082803 192.758499,3.84638229 192.024915,4.32333609 C190.610146,5.24317558 189.262649,6.34292372 188.661074,7.90198192 C188.035923,9.50121849 188.288527,11.1510067 188.987415,12.6845821 C189.539539,13.9159847 190.203435,14.9753179 191.2377,16.4896389 C192.062309,17.6432782 193.079913,18.59689 194.45641,18.9941149 C195.890551,19.4035603 197.437271,19.0688709 198.642445,18.2853039 C199.905263,17.5139574 200.855358,16.2998436 201.138158,14.8237946 Z M197.62213,16.5631164 C196.836147,17.0741383 195.914756,17.3004539 195.068417,17.0306797 C194.24479,16.795838 193.559105,16.1234156 193.014015,15.2850339 C192.502993,14.4990511 192.149167,13.6108638 192.286186,12.7514398 C192.383026,11.8684392 192.95238,11.1006688 193.749719,10.6071132 C194.524346,10.0786249 195.457093,9.86977564 196.303432,10.1395499 C197.127059,10.3743916 197.835456,11.0817465 198.346478,11.8677294 C198.8575,12.6537122 199.205215,13.5707217 199.085662,14.4187898 C198.988822,15.3017903 198.408112,16.0520945 197.62213,16.5631164 Z M212.240007,9.22077809 C212.659935,7.86905812 212.486265,6.38366275 211.851839,5.0935626 C211.262021,3.89759447 210.307546,2.75916379 209.043002,2.18265173 C207.714041,1.56750393 206.174132,1.67479066 204.865205,2.31813844 C203.679142,2.88020768 202.847907,3.85048488 202.439849,5.08130763 C202.046235,3.8615231 201.829997,2.62684391 202.411499,1.56742468 C202.973191,0.563501719 204.18103,-0.147212879 205.413668,-0.708299179 C206.081514,-1.00173346 206.90791,-1.30114067 207.705575,-1.56387801 L206.91154,-3.23942798 C206.180259,-3.03120398 205.401421,-2.77738838 204.610712,-2.40267556 C203.085773,-1.68001511 201.603477,-0.770073556 200.799083,0.694680145 C199.965957,2.19610372 199.995972,3.86484844 200.483794,5.47802158 C200.866521,6.77212879 201.382998,7.91063478 202.205764,9.54951488 C202.868921,10.8029452 203.750056,11.8839137 205.061174,12.4614087 C206.427789,13.058713 208.005351,12.9335828 209.304372,12.3179832 C210.658891,11.7221929 211.762617,10.6458378 212.240007,9.22077809 Z M208.523192,10.4749614 C207.676003,10.8764395 206.732642,10.977678 205.929912,10.5972934 C205.145025,10.2545617 204.555283,9.49659088 204.12704,8.59292347 C203.725562,7.74573529 203.493522,6.81825149 203.744087,5.98482441 C203.957983,5.12266626 204.62477,4.43780923 205.48088,4.05515761 C206.319147,3.63485318 207.27143,3.55244109 208.07416,3.93282561 C208.859047,4.27555733 209.466632,5.07118098 209.86811,5.91836917 C210.269588,6.76555736 210.491724,7.72078929 210.259985,8.54529464 C210.046089,9.40745279 209.37038,10.0734834 208.523192,10.4749614 Z M217.896647,8.38650446 L220.920786,-0.964449034 L223.338157,6.66160934 L225.284391,6.04467605 L221.884962,-4.67946854 L220.177043,-4.1380781 L217.108837,5.0738587 L214.735533,-2.41318298 L212.789299,-1.79624969 L216.188727,8.9278949 L217.896647,8.38650446 Z M230.093884,5.01920825 L229.26002,0.152613016 L234.886379,-0.81143188 L235.720243,4.05516335 L237.691522,3.71739579 L235.79158,-7.37104903 L233.820301,-7.03328148 L234.545093,-2.80324512 L228.918734,-1.83920022 L228.193942,-6.06923658 L226.202128,-5.72795061 L228.102071,5.36049421 L230.093884,5.01920825 Z M242.605005,3.30548448 L242.165115,-5.9132255 L248.012649,-6.19225251 L247.91633,-8.21079623 L240.050252,-7.83545028 L240.586461,3.40180341 L242.605005,3.30548448 Z" id="фаббинг"></path> </g> </g> </svg> 