<?xml version="1.0" encoding="UTF-8"?> <svg xmlns="http://www.w3.org/2000/svg" xmlns:xlink="http://www.w3.org/1999/xlink" width="86px" height="57px" viewBox="0 0 86 57"> <title>катарсис</title> <g id="Faculty" stroke="none" stroke-width="1" fill="none" fill-rule="evenodd"> <g id="Group-5-Copy-3" transform="translate(-115.000000, -175.000000)" fill="#000000" fill-rule="nonzero"> <path d="M118.197681,231.545052 L117.712608,226.777984 L119.909605,226.554429 L123.524361,231.003037 L125.804263,230.771046 L121.564152,225.527491 L124.47886,219.597781 L122.219685,219.827663 L119.742993,224.917045 L117.545997,225.1406 L117.058816,220.352806 L115.02763,220.559489 L116.166495,231.751735 L118.197681,231.545052 Z M134.454515,228.624039 C135.066415,228.121294 135.649484,227.304604 135.828098,226.494644 L136.305033,228.586811 L138.051892,228.188593 L136.482171,221.302721 C136.338627,220.67304 136.034376,219.994522 135.556574,219.398303 C134.369016,217.938224 132.561653,217.602359 130.550735,218.060773 C128.844501,218.44973 127.53661,219.367549 126.857968,220.889798 L126.670835,221.381182 L128.677739,221.842502 C128.710894,221.706737 128.784673,221.561711 128.84277,221.441628 C129.233767,220.625987 129.997115,220.131454 130.931481,219.918454 C131.678406,219.726815 132.471635,219.738299 133.137619,220.035205 C133.703832,220.269384 134.133538,220.74836 134.349071,221.318895 L132.306047,222.105146 C130.696004,222.72859 129.597348,223.064513 128.572039,224.003385 C127.675025,224.848907 127.281496,226.028379 127.550062,227.206492 C127.73528,228.018985 128.11331,228.552476 128.737928,229.136594 C129.507573,229.794492 130.754402,230.108562 131.88084,229.894512 C132.824467,229.722136 133.707898,229.2857 134.454515,228.624039 Z M131.753102,228.02189 C130.662659,228.206367 129.680631,227.55415 129.492573,226.635465 C129.225441,225.379948 130.521532,224.704963 131.916118,224.123114 L132.25196,223.985009 C132.307999,223.962207 132.364008,223.939491 132.419893,223.91683 C133.511078,223.454402 134.198857,223.190775 134.805386,222.94567 C134.962821,223.636288 135.106365,224.26597 134.91207,225.100873 C134.683138,226.627444 133.148231,227.767957 131.753102,228.02189 Z M146.927763,225.376024 L143.744433,216.491575 L147.392352,215.184512 L146.780984,213.478227 L137.582735,216.773993 L138.194103,218.480278 L141.842023,217.173215 L145.025353,226.057664 L146.927763,225.376024 Z M158.54925,219.894467 C159.024281,219.260812 159.396762,218.329034 159.377952,217.499827 L160.338009,219.418921 L161.94036,218.61732 L158.780559,212.301077 C158.49161,211.723486 158.034953,211.136613 157.42925,210.670893 C155.928974,209.53454 154.09355,209.637417 152.248984,210.560191 C150.683897,211.34315 149.631334,212.545265 149.333539,214.185117 L149.268431,214.706882 L151.327479,214.678493 C151.327449,214.538738 151.364683,214.380342 151.392606,214.249898 C151.578758,213.364745 152.202855,212.703106 153.059926,212.274343 C153.739989,211.910836 154.51326,211.733649 155.230696,211.863934 C155.83632,211.956975 156.367465,212.320224 156.7123,212.823268 L154.914388,214.072126 C153.498417,215.060028 152.510941,215.647207 151.737878,216.802678 C151.067275,217.837005 150.965052,219.076186 151.505666,220.156841 C151.878504,220.90212 152.372395,221.330596 153.117843,221.749702 C154.021688,222.206042 155.307433,222.215086 156.350834,221.739698 C157.226547,221.348198 157.981088,220.714483 158.54925,219.894467 Z M155.782118,219.950958 C154.76666,220.389072 153.657854,219.988678 153.257043,219.140917 C152.63253,217.84599 154.085755,216.792861 155.455142,215.80497 C156.405323,215.096677 157.010838,214.677284 157.541825,214.295175 C157.858737,214.928662 158.147686,215.506254 158.157185,216.363414 C158.297267,217.900687 157.077055,219.373029 155.782118,219.950958 Z M170.220966,219.510672 L166.883586,214.574694 C168.086885,214.792194 169.321271,214.460556 170.425825,213.71373 C171.702966,212.850212 172.514811,211.52169 172.637978,210.030092 C172.749476,208.521236 172.208773,207.126423 171.380262,205.901058 C170.540083,204.658434 169.389247,203.625855 168.00532,203.178403 C166.592466,202.725361 165.034285,203.024443 163.774402,203.876291 C162.618072,204.658125 161.816916,205.853677 161.582647,207.14376 L160.929174,206.177275 L159.444929,207.180823 L168.546876,220.64258 L170.220966,219.510672 Z M169.191835,212.334997 C168.34616,212.906786 167.393993,213.097904 166.49674,212.849515 C165.55889,212.578278 164.709983,211.769082 164.079848,210.837114 C163.438044,209.887888 163.015013,208.81589 163.112683,207.844503 C163.170246,206.925382 163.731252,206.118542 164.542409,205.570091 C165.422601,204.974964 166.409285,204.760508 167.359294,205.124118 C168.21644,205.424773 168.984154,206.188273 169.60262,207.102982 C170.209416,208.000432 170.649216,208.985647 170.608911,209.893098 C170.592435,210.910181 170.002992,211.786547 169.191835,212.334997 Z M183.391897,201.110419 C183.386384,200.72631 183.320222,200.36793 183.224654,200.007712 L181.265512,200.652795 C181.311458,200.862309 181.359242,201.042418 181.375782,201.250094 C181.448376,202.214043 180.991672,203.144911 180.241831,203.806535 C179.476368,204.481942 178.5115,204.805402 177.564091,204.613347 C176.616682,204.421292 175.786896,203.764262 175.082083,202.996962 C174.408514,202.202094 173.859918,201.296955 173.787323,200.333006 C173.700945,199.353434 174.142028,198.43635 174.921275,197.776565 C175.657332,197.099319 176.637822,196.762076 177.599014,196.969752 C177.803015,197.012023 178.005178,197.083699 178.207341,197.155375 L179.075723,195.305585 C178.74583,195.152125 178.369072,195.040016 177.974855,194.971097 C176.425552,194.726663 174.871654,195.264231 173.653163,196.33937 C172.450293,197.400724 171.695857,198.84435 171.757424,200.457059 C171.840126,201.967767 172.51002,203.293772 173.488671,204.402912 C174.453539,205.49643 175.699597,206.341839 177.174467,206.596381 C178.737553,206.856437 180.305235,206.33449 181.496159,205.228108 C182.726596,204.197997 183.455302,202.693722 183.391897,201.110419 Z M188.81018,197.8384 L186.573945,188.268395 L192.58056,193.552431 L193.92909,192.019493 L185.482288,184.588818 L184.298884,185.934049 L186.425624,195.407731 L180.528505,190.220019 L179.179975,191.752957 L187.626777,199.183632 L188.81018,197.8384 Z M200.558402,180.175342 C200.457019,179.804812 200.303348,179.47436 200.120745,179.149482 L198.385136,180.263945 C198.48201,180.455316 198.573311,180.617755 198.641255,180.814699 C198.952573,181.729876 198.743134,182.745371 198.182548,183.573471 C197.610283,184.418823 196.756944,184.973269 195.791608,185.024208 C194.826272,185.075148 193.858557,184.646473 192.984274,184.079781 C192.133349,183.478585 191.375854,182.739372 191.064535,181.824195 C190.735965,180.897339 190.933725,179.899097 191.523242,179.065423 C192.066576,178.225644 192.931594,177.653947 193.914182,177.614685 C194.122272,177.604604 194.335935,177.623453 194.549599,177.642303 L194.927866,175.634139 C194.570081,175.568041 194.177258,175.5537 193.778331,175.585542 C192.217123,175.736267 190.847002,176.645303 189.93605,177.990966 C189.036776,179.319377 188.667276,180.905788 189.130136,182.451873 C189.587956,183.893914 190.56813,185.010294 191.793028,185.839494 C193.000675,186.657016 194.418541,187.164 195.910207,187.041673 C197.488667,186.902627 198.87604,186.00527 199.752488,184.636249 C200.686266,183.331196 201.015689,181.692496 200.558402,180.175342 Z" id="катарсис"></path> </g> </g> </svg> 