<?xml version="1.0" encoding="UTF-8"?> <svg xmlns="http://www.w3.org/2000/svg" width="142" height="175" viewBox="0 0 142 175" fill="none"> <path d="M112.662 95.2066C112.498 93.7286 111.514 92.5791 110.038 92.0864C109.874 92.0864 109.71 91.9222 109.546 91.9222C108.398 91.5938 107.414 91.2653 106.266 90.7727C106.266 90.7727 106.102 90.7727 105.938 90.7727C105.446 90.6084 104.954 90.4442 104.626 90.28C100.362 88.4736 87.8991 89.1304 85.4392 89.2947C85.2752 89.2947 72.8119 89.9516 58.8727 86.6671C53.625 85.5176 48.3773 83.7112 43.4576 81.4121C42.9656 81.0837 37.5539 77.9635 33.1261 80.7552C31.3223 81.9048 30.0103 83.8754 29.3544 86.3387C28.0424 92.0864 31.9782 99.1479 38.0459 102.761C35.914 105.717 33.4541 108.673 30.8303 111.136C22.4667 119.347 12.1353 125.095 0 128.379L0.327982 129.364C12.4633 126.244 23.2867 120.168 31.6502 111.957C34.2741 109.33 36.7339 106.374 39.0298 103.418C40.0138 103.91 40.9977 104.403 41.9817 104.731C43.7856 105.224 45.5895 105.552 47.5573 105.388C49.6892 110.151 52.4771 114.42 55.9209 118.033C64.6124 127.558 74.4518 130.842 81.0115 132.977C81.5034 133.141 81.9954 133.306 82.3234 133.47C80.6835 136.097 79.0436 138.725 77.2397 141.352C73.9599 146.115 70.3521 150.713 66.4163 155.147L67.0723 155.804C69.2041 153.505 71.172 151.041 72.9759 148.742C77.5677 152.355 81.9954 156.297 86.0952 160.73C90.031 165 93.6388 169.434 96.9186 174.197L97.7385 173.704C94.4587 168.941 90.8509 164.343 86.9151 160.074C82.8154 155.804 78.3876 151.698 73.7959 148.086C75.2718 146.115 76.7477 144.144 78.2236 142.174C80.0275 139.546 81.8314 136.754 83.4713 134.127C88.719 135.933 92.4908 137.083 95.6067 137.083C97.4106 137.083 99.0505 136.59 100.526 135.769C102.822 134.291 103.314 132.32 104.134 129.036C104.954 126.08 105.938 121.482 109.054 114.585C109.218 114.256 109.382 113.928 109.546 113.599C110.858 110.643 112.17 107.852 112.662 103.582C112.99 100.297 112.99 97.8341 112.662 95.2066ZM111.678 102.761C111.186 106.866 109.874 109.494 108.562 112.45C108.398 112.778 108.234 113.107 108.07 113.435C104.954 120.497 103.806 125.095 102.986 128.051C102.166 131.335 101.838 132.977 99.7064 134.291C95.9346 136.754 91.0149 135.112 81.1755 131.828C74.7798 129.693 64.9404 126.408 56.5768 117.048C53.133 113.271 50.3452 109.001 48.2133 104.239C48.2133 104.074 47.8853 103.91 47.7213 103.91C45.7534 104.074 43.9495 103.746 42.1456 103.253C38.5378 102.104 35.258 99.6405 32.7982 96.1919C30.5023 92.9075 29.5183 89.1305 30.1743 86.1745C30.6663 84.0396 31.8142 82.2332 33.4541 81.2479C37.5539 78.7846 42.8016 81.9048 42.8016 81.9048C47.7213 84.2038 52.969 86.0103 58.3807 87.1598C72.4839 90.4442 85.1112 89.7873 85.2752 89.7873C91.9989 89.4589 100.854 89.4589 103.97 90.7727C104.462 90.9369 104.954 91.1011 105.446 91.4295C106.266 92.7433 106.922 94.0571 106.922 95.535C106.922 96.8488 106.266 98.6552 104.954 99.1479C103.806 99.6405 102.494 99.1479 101.346 98.8194C100.034 98.3268 98.5585 97.8341 97.0826 98.3268C96.4266 98.491 95.7706 98.9837 95.2787 99.3121C94.9507 99.4763 94.6227 99.6405 94.2947 99.8048C93.4748 100.133 92.4908 100.297 91.9989 99.8048C91.6709 99.4763 91.6709 98.9837 91.8349 98.3268C91.9989 97.8341 92.4908 97.1772 92.8188 96.6846C92.9828 96.5204 92.9828 96.1919 92.6548 96.0277C92.4908 95.8635 92.1628 95.8635 91.9989 96.1919C91.5069 96.6846 91.1789 97.3415 90.8509 97.9983C90.5229 98.8194 90.6869 99.8048 91.1789 100.462C91.6709 100.954 92.1628 101.119 92.8188 101.119C93.4748 101.119 93.9667 100.954 94.4587 100.626C94.7867 100.462 95.1147 100.297 95.4427 99.969C95.9346 99.6405 96.4266 99.3121 96.9186 99.1479C98.0665 98.8194 99.3784 99.3121 100.69 99.6405C102.166 100.133 103.642 100.626 105.118 99.969C107.086 99.3121 107.906 97.1772 107.742 95.3708C107.742 94.0571 107.25 92.9075 106.594 91.758C107.25 92.0864 108.07 92.2506 108.726 92.4149C108.89 92.4149 109.054 92.5791 109.218 92.5791C110.202 92.9075 111.022 93.7286 111.186 94.8782C112.006 97.8341 112.006 100.297 111.678 102.761Z" fill="#B4A3FD"></path> <path d="M104.954 110.479C103.478 108.18 100.034 108.508 99.0505 108.673C96.2627 108.837 95.2788 110.315 91.8349 111.629C90.195 112.286 87.8992 112.942 85.1113 112.942C85.6033 113.928 86.7512 115.734 88.5551 117.376C93.3109 121.482 101.182 123.453 103.806 120.497C104.298 120.004 104.954 118.69 104.626 115.898C104.626 115.734 106.43 112.778 104.954 110.479Z" fill="#B4A3FD"></path> <path d="M47.5574 18.8442C40.1778 19.5011 34.2742 25.5773 34.2742 33.2956C34.2742 41.3424 40.6698 47.747 48.7054 47.747C52.1492 47.747 55.265 46.5974 57.7249 44.4626C57.3969 44.4626 56.9049 44.4626 56.5769 44.4626C48.5414 44.4626 42.1457 38.058 42.1457 30.0112C42.3097 25.5773 44.2776 21.4718 47.5574 18.8442Z" fill="#F1A17C"></path> <path d="M93.1469 55.1369C86.9153 55.1369 81.8315 60.2277 81.8315 66.4681C81.8315 72.7085 86.9153 77.7993 93.1469 77.7993C99.3786 77.7993 104.462 72.7085 104.462 66.4681C104.626 60.2277 99.5425 55.1369 93.1469 55.1369ZM93.1469 55.6296C96.2627 55.6296 99.0506 56.9433 101.018 59.0782C100.854 59.0782 100.526 59.0782 100.363 59.0782C100.035 59.0782 99.7065 59.0782 99.2146 59.2424C98.8866 59.2424 98.5586 59.2424 98.2306 59.4066C97.7387 59.4066 96.9187 59.4066 96.5907 58.914C96.4267 58.7497 96.2627 58.4213 96.0987 58.2571C95.9347 57.9286 95.7708 57.7644 95.6068 57.436C95.1148 56.9433 94.4588 56.6149 93.4749 56.6149C93.3109 56.6149 92.9829 56.6149 92.8189 56.6149C92.327 56.6149 91.835 56.6149 91.343 56.6149C91.015 56.4507 90.687 56.2864 90.3591 56.1222C91.343 55.7938 92.327 55.6296 93.1469 55.6296ZM89.8671 56.1222C90.3591 56.4507 90.851 56.7791 91.343 56.9433C91.835 57.1075 92.4909 57.1075 92.9829 57.1075C93.1469 57.1075 93.4749 57.1075 93.6389 57.1075C94.4588 57.1075 95.1148 57.2718 95.4428 57.7644C95.6068 57.9286 95.7708 58.0929 95.9348 58.4213C96.0987 58.7497 96.2627 58.914 96.4267 59.2424C97.0827 59.8993 97.9026 59.8993 98.5586 59.8993C98.8866 59.8993 99.2146 59.8993 99.5426 59.7351C99.8705 59.7351 100.199 59.5708 100.526 59.5708C100.854 59.5708 101.346 59.5708 101.674 59.7351C102.494 60.8846 103.314 62.0342 103.642 63.5121C103.642 63.3479 103.478 63.3479 103.478 63.1837C102.494 62.0342 100.854 61.3773 99.2146 61.3773C98.8866 61.3773 98.3946 61.3773 98.0666 61.5415C97.7386 61.5415 97.4107 61.5415 97.0827 61.7057C96.2627 61.7057 95.6068 61.5415 95.2788 61.213C94.9508 61.0488 94.7868 60.7204 94.6228 60.5562C94.4588 60.3919 94.2948 60.0635 93.9669 59.8993C92.9829 59.0782 91.835 59.0782 90.851 59.0782C90.687 59.0782 90.3591 59.0782 90.1951 59.0782C89.3751 59.0782 88.7192 59.0782 87.8992 58.914C87.4072 58.7497 86.9153 58.5855 86.5873 58.2571C87.4072 57.1075 88.7192 56.4507 89.8671 56.1222ZM86.0953 58.2571C86.5873 58.5855 87.0792 58.914 87.7352 59.0782C88.5552 59.2424 89.3751 59.2424 90.1951 59.2424C90.3591 59.2424 90.687 59.2424 90.851 59.2424C92.163 59.2424 92.9829 59.4066 93.6389 59.8993C93.8029 60.0635 93.9669 60.2277 94.2948 60.5562C94.4588 60.8846 94.7868 61.213 95.1148 61.3773C95.6068 61.7057 96.4267 61.8699 97.2467 61.8699C97.5747 61.8699 97.9026 61.8699 98.2306 61.7057C98.5586 61.7057 99.0506 61.5415 99.3786 61.5415C100.854 61.5415 102.166 62.1984 103.15 63.1837C103.314 63.5121 103.642 63.6764 103.806 64.0048C103.806 64.169 103.97 64.169 103.97 64.3332C104.134 64.9901 104.134 65.647 104.134 66.3039C104.134 66.9608 104.134 67.6176 103.97 68.1103C103.478 67.4534 102.658 66.9608 102.002 66.7965C100.69 66.3039 99.0506 66.4681 97.7386 66.3039C95.6068 66.3039 94.6228 65.9754 93.8029 65.3186C93.1469 64.8259 92.8189 64.3332 92.4909 64.0048C91.999 63.3479 91.507 62.8553 90.5231 62.3626C89.7031 62.0342 89.0471 61.8699 88.5552 61.8699C87.4072 61.7057 86.5873 61.8699 85.9313 62.0342C85.2754 62.1984 84.7834 62.1984 84.2914 62.0342C84.1274 62.0342 83.7994 61.8699 83.6354 61.7057C83.9634 60.5562 84.9474 59.2424 86.0953 58.2571ZM93.1469 77.4708C89.2111 77.4708 85.6033 75.336 83.7994 72.0516C84.1274 72.2158 84.6194 72.38 84.9474 72.5442C85.4393 72.8727 85.7673 73.2011 86.2593 73.6938C86.7513 74.0222 87.0792 74.5149 87.5712 74.8433C88.3912 75.336 89.3751 75.6644 90.3591 75.8286C91.343 75.9929 92.327 76.3213 92.9829 76.814C93.1469 76.9782 93.4749 77.1424 93.6389 77.3066C93.4749 77.4708 93.3109 77.4708 93.1469 77.4708ZM94.2948 77.3066C94.1309 76.9782 93.8029 76.6497 93.4749 76.3213C92.6549 75.6644 91.671 75.5002 90.687 75.1718C89.7031 75.0075 88.8831 74.6791 88.0632 74.1864C87.5712 73.858 87.2432 73.5296 86.7513 73.0369C86.2593 72.5442 85.9313 72.2158 85.4393 71.8874C84.9474 71.5589 84.2914 71.3947 83.6354 71.2305C83.1435 70.4094 82.9795 69.5883 82.6515 68.603C84.4554 68.4387 86.0953 69.0956 87.4072 70.2452C87.7352 70.5736 87.8992 70.902 88.2272 71.0663C88.5552 71.5589 89.0471 72.0516 89.5391 72.5442C90.687 73.3653 92.163 73.5296 93.4749 73.5296C93.6389 73.5296 93.8029 73.5296 94.1309 73.5296C95.2788 73.5296 96.4267 73.5296 97.4107 74.0222C98.0666 74.1864 98.7226 74.6791 99.0506 75.336C97.7387 76.6497 96.0987 77.1424 94.2948 77.3066ZM99.5426 75.336C99.0506 74.6791 98.2306 74.1864 97.5747 73.858C96.4267 73.3653 95.2788 73.3653 94.1309 73.3653C93.9669 73.3653 93.8029 73.3653 93.4749 73.3653C92.163 73.3653 90.851 73.2011 89.7031 72.38C89.2111 72.0516 88.8831 71.5589 88.3912 71.0663C88.0632 70.7378 87.8992 70.4094 87.5712 70.0809C86.2593 68.7672 84.2914 68.1103 82.3235 68.2745C82.1595 67.6176 82.1595 66.9608 82.1595 66.3039C82.1595 65.9754 82.1595 65.4828 82.1595 65.1543C82.8155 65.4828 83.6354 65.647 84.4554 65.647C84.9474 65.647 85.2753 65.647 85.7673 65.4828C86.0953 65.4828 86.2593 65.3186 86.5873 65.3186C87.4072 65.1543 88.0632 65.3186 88.3912 65.647C88.8831 65.9754 89.2111 66.6323 89.5391 67.2892C89.8671 67.7819 90.0311 68.2745 90.3591 68.7672C91.179 69.5883 92.327 70.0809 93.9669 70.0809C94.4588 70.0809 94.9508 70.0809 95.4428 70.0809C96.2627 70.0809 96.9187 69.9167 97.7386 70.0809C99.3786 70.2452 100.854 71.2305 101.838 72.7085C101.51 73.6938 100.526 74.6791 99.5426 75.336ZM102.494 72.2158C101.51 70.7378 99.8705 69.7525 98.0666 69.5883C97.2467 69.4241 96.4267 69.5883 95.6068 69.5883C95.1148 69.5883 94.6228 69.5883 94.2948 69.5883C93.3109 69.5883 91.999 69.4241 91.015 68.4387C90.687 68.1103 90.3591 67.6176 90.1951 67.125C89.8671 66.4681 89.5391 65.8112 88.8831 65.3186C88.3912 64.9901 87.5712 64.8259 86.7513 64.9901C86.4233 64.9901 86.2593 64.9901 85.9313 65.1543C85.4393 65.1543 85.1114 65.3186 84.6194 65.3186C83.7994 65.3186 83.1435 65.1543 82.3235 64.6617C82.4875 63.8406 82.6515 63.0195 82.9795 62.3626C83.3075 62.5268 83.4714 62.5268 83.7994 62.691C84.4554 62.8553 85.1114 62.691 85.6033 62.691C86.2593 62.5268 87.0792 62.5268 88.0632 62.5268C88.7192 62.5268 89.2111 62.691 90.0311 63.0195C91.015 63.5121 91.343 64.0048 91.835 64.4975C92.163 64.9901 92.6549 65.4828 93.3109 65.9754C94.2948 66.6323 95.2788 66.9608 97.5747 66.9608C98.8866 66.9608 100.363 66.9608 101.674 67.2892C102.494 67.6176 103.15 68.1103 103.642 68.7672C103.478 70.2452 103.15 71.2305 102.494 72.2158Z" fill="#F1A17C"></path> <path d="M135.785 73.2011C134.965 73.2011 134.309 73.858 134.309 74.6791C134.309 75.5002 134.965 76.1571 135.785 76.1571C136.604 76.1571 137.26 75.5002 137.26 74.6791C137.096 73.6938 136.604 73.2011 135.785 73.2011Z" fill="#F1A17C"></path> <path d="M141.36 50.0461C141.36 49.225 140.704 48.5681 139.884 48.5681C139.064 48.5681 138.408 49.225 138.408 50.0461C138.408 50.8672 139.064 51.5241 139.884 51.5241C140.704 51.3599 141.36 50.703 141.36 50.0461Z" fill="#F1A17C"></path> <path d="M77.7317 36.2516C77.7317 37.0727 78.3876 37.7296 79.2076 37.7296C80.0276 37.7296 80.6835 37.0727 80.6835 36.2516C80.6835 35.4305 80.0276 34.7736 79.2076 34.7736C78.3876 34.7736 77.7317 35.4305 77.7317 36.2516Z" fill="#F1A17C"></path> <path d="M61.0046 26.8911C61.0046 27.7122 61.6606 28.369 62.4806 28.369C63.3005 28.369 63.9565 27.7122 63.9565 26.8911C63.9565 26.07 63.3005 25.4131 62.4806 25.4131C61.6606 25.4131 61.0046 26.07 61.0046 26.8911Z" fill="#F1A17C"></path> <path d="M11.4793 106.702C12.2945 106.702 12.9553 106.04 12.9553 105.224C12.9553 104.408 12.2945 103.746 11.4793 103.746C10.6642 103.746 10.0034 104.408 10.0034 105.224C10.0034 106.04 10.6642 106.702 11.4793 106.702Z" fill="#F1A17C"></path> <path d="M102.822 155.804C102.002 155.804 101.346 156.461 101.346 157.282C101.346 158.103 102.002 158.76 102.822 158.76C103.642 158.76 104.298 158.103 104.298 157.282C104.298 156.461 103.642 155.804 102.822 155.804Z" fill="#F1A17C"></path> <path d="M128.405 83.8754C128.405 83.2186 127.913 82.7259 127.257 82.7259C126.601 82.7259 126.109 83.2186 126.109 83.8754C126.109 84.5323 126.601 85.025 127.257 85.025C127.913 85.025 128.405 84.5323 128.405 83.8754Z" fill="#F1A17C"></path> <path d="M61.6606 74.5149C61.6606 75.1718 62.1526 75.6644 62.8086 75.6644C63.4645 75.6644 63.9565 75.1718 63.9565 74.5149C63.9565 73.858 63.4645 73.3654 62.8086 73.3654C62.1526 73.5296 61.6606 74.0222 61.6606 74.5149Z" fill="#F1A17C"></path> <path d="M123.977 55.958C124.611 55.958 125.125 55.4433 125.125 54.8085C125.125 54.1736 124.611 53.6589 123.977 53.6589C123.343 53.6589 122.829 54.1736 122.829 54.8085C122.829 55.4433 123.343 55.958 123.977 55.958Z" fill="#F1A17C"></path> <path d="M27.0586 38.2222C27.7145 38.2222 28.2065 37.7296 28.2065 37.0727C28.2065 36.4158 27.7145 35.9232 27.0586 35.9232C26.4026 35.9232 25.9106 36.4158 25.9106 37.0727C25.9106 37.7296 26.5666 38.2222 27.0586 38.2222Z" fill="#F1A17C"></path> <path d="M31.3223 61.3773C31.3223 62.0341 31.8142 62.5268 32.4702 62.5268C33.1262 62.5268 33.6181 62.0341 33.6181 61.3773C33.6181 60.7204 33.1262 60.2277 32.4702 60.2277C31.8142 60.2277 31.3223 60.7204 31.3223 61.3773Z" fill="#F1A17C"></path> <path d="M25.9106 105.881C26.5666 105.881 27.0586 105.388 27.0586 104.731C27.0586 104.075 26.5666 103.582 25.9106 103.582C25.2547 103.582 24.7627 104.075 24.7627 104.731C24.7627 105.388 25.4187 105.881 25.9106 105.881Z" fill="#F1A17C"></path> <path d="M87.571 144.144C87.571 144.801 88.063 145.294 88.719 145.294C89.3749 145.294 89.8669 144.801 89.8669 144.144C89.8669 143.487 89.3749 142.995 88.719 142.995C88.063 142.995 87.571 143.487 87.571 144.144Z" fill="#F1A17C"></path> <path d="M123.813 134.619C123.157 134.619 122.665 135.112 122.665 135.769C122.665 136.426 123.157 136.919 123.813 136.919C124.469 136.919 124.961 136.426 124.961 135.769C124.797 135.112 124.305 134.619 123.813 134.619Z" fill="#F1A17C"></path> <path d="M111.35 46.269C112.006 46.269 112.498 45.7763 112.498 45.1195C112.498 44.4626 112.006 43.9699 111.35 43.9699C110.694 43.9699 110.202 44.4626 110.202 45.1195C110.202 45.7763 110.858 46.269 111.35 46.269Z" fill="#F1A17C"></path> <path d="M30.9941 5.70665C31.8141 5.87087 32.962 6.19931 33.618 7.02041C34.274 7.67729 34.6019 9.3195 34.7659 10.469C34.7659 10.6333 34.9299 10.6333 35.0939 10.469C35.2579 9.48372 35.5859 7.67729 36.2418 7.02041C36.8978 6.19931 38.3737 5.87087 39.0297 5.70665C39.1937 5.70665 39.1937 5.54243 39.0297 5.37821C38.2097 5.21399 37.0618 4.88555 36.4058 4.22867C35.5859 3.57179 35.2579 1.27271 35.0939 0.123165C35.0939 -0.041055 34.9299 -0.041055 34.7659 0.123165C34.7659 1.43693 34.4379 3.73601 33.454 4.55711C32.798 5.04977 31.8141 5.37821 30.9941 5.37821C30.9941 5.54243 30.9941 5.70665 30.9941 5.70665Z" fill="#F1A17C"></path> <path d="M20.4988 50.3745C19.6788 50.2103 18.5309 49.8819 17.875 49.225C17.055 48.5681 16.727 46.269 16.563 45.1195C16.563 44.9553 16.399 44.9553 16.235 45.1195C16.0711 46.4333 15.5791 48.5681 14.7591 49.3892C14.1032 49.8819 13.1192 50.2103 12.2993 50.3745C12.1353 50.3745 12.1353 50.5388 12.2993 50.703C13.1192 50.8672 14.2672 51.1957 14.9231 52.0168C15.5791 52.6736 15.9071 54.3158 16.0711 55.4654C16.0711 55.6296 16.235 55.6296 16.399 55.4654C16.563 54.4801 16.891 52.6736 17.547 52.0168C18.2029 51.1957 19.6788 50.8672 20.3348 50.703C20.6628 50.5388 20.6628 50.3745 20.4988 50.3745Z" fill="#F1A17C"></path> <path d="M64.1206 60.8846C64.6125 61.0488 65.4325 61.213 65.9245 61.7057C66.4164 62.1984 66.5804 63.3479 66.7444 64.0048C66.7444 64.169 66.9084 64.169 66.9084 64.0048C67.0724 63.3479 67.2364 62.1984 67.7284 61.7057C68.2203 61.213 69.0403 60.8846 69.6962 60.8846C69.8602 60.8846 69.8602 60.7204 69.6962 60.7204C69.2043 60.5562 68.3843 60.3919 67.8923 59.8993C67.4004 59.4066 67.0724 57.9286 66.9084 57.1075C66.9084 56.9433 66.7444 56.9433 66.7444 57.1075C66.5804 57.9286 66.4164 59.4066 65.7605 60.0635C65.2685 60.3919 64.6125 60.5562 64.1206 60.7204C63.9566 60.7204 63.9566 60.8846 64.1206 60.8846Z" fill="#F1A17C"></path> <path d="M127.585 68.9314C127.093 68.7672 126.273 68.6029 125.781 68.1103C125.289 67.6176 124.961 66.1396 124.797 65.3185C124.797 65.1543 124.633 65.1543 124.633 65.3185C124.633 66.1396 124.305 67.7818 123.813 68.2745C123.321 68.6029 122.665 68.7672 122.173 68.9314C122.009 68.9314 122.009 69.0956 122.173 69.0956C122.665 69.2598 123.485 69.424 123.977 69.9167C124.469 70.4094 124.633 71.5589 124.797 72.2158C124.797 72.38 124.961 72.38 124.961 72.2158C125.125 71.5589 125.289 70.4094 125.781 69.9167C126.273 69.424 127.093 69.0956 127.749 69.0956C127.749 69.0956 127.749 68.9314 127.585 68.9314Z" fill="#F1A17C"></path> <path d="M137.26 42.492C136.44 42.3277 135.292 41.9993 134.473 41.3424C133.653 40.5213 133.161 38.3865 132.997 37.0727C132.997 36.9085 132.669 36.9085 132.669 37.0727C132.505 38.3865 132.013 40.6855 131.193 41.5066C130.537 41.9993 129.389 42.3277 128.733 42.492C128.569 42.492 128.569 42.6562 128.733 42.8204C129.553 42.9846 130.865 43.3131 131.521 44.1342C132.177 44.791 132.505 46.5975 132.833 47.747C132.833 47.9112 133.161 47.9112 133.161 47.747C133.325 46.5975 133.653 44.9553 134.309 44.1342C135.129 43.3131 136.44 42.9846 137.26 42.8204C137.424 42.6562 137.424 42.492 137.26 42.492Z" fill="#F1A17C"></path> <path d="M139.651 98.5424C138.831 98.3782 137.683 98.0498 136.863 97.3929C136.043 96.5718 135.551 94.4369 135.387 93.1232C135.387 92.9589 135.059 92.9589 135.059 93.1232C134.895 94.4369 134.403 96.736 133.583 97.5571C132.927 98.0498 131.779 98.3782 131.123 98.5424C130.959 98.5424 130.959 98.7067 131.123 98.8709C131.943 99.0351 133.255 99.3635 133.911 100.185C134.567 100.842 134.895 102.648 135.223 103.797C135.223 103.962 135.551 103.962 135.551 103.797C135.715 102.648 136.043 101.006 136.699 100.185C137.519 99.3635 138.831 99.0351 139.651 98.8709C139.815 98.7067 139.815 98.5424 139.651 98.5424Z" fill="#F1A17C"></path> <path d="M119.549 119.019L120.861 116.884L118.565 118.197L117.909 115.734L117.253 118.197L115.122 116.884L116.433 119.019L113.974 119.675L116.433 120.332L115.122 122.467L117.253 121.153L117.909 123.617L118.565 121.153L120.861 122.467L119.549 120.332L122.009 119.675L119.549 119.019Z" fill="#F1A17C"></path> <path d="M49.8533 75.9929L51.1652 73.858L49.0333 75.1718L48.3774 72.7085L47.7214 75.1718L45.5895 73.858L46.7375 75.9929L44.2776 76.6498L46.7375 77.3067L45.5895 79.4415L47.7214 78.1278L48.3774 80.5911L49.0333 78.1278L51.1652 79.4415L49.8533 77.3067L52.3131 76.6498L49.8533 75.9929Z" fill="#F1A17C"></path> <path d="M13.9392 23.6066L16.7271 20.9791L19.3509 23.6066L17.875 20.158L20.9908 18.3516L17.383 18.8442L16.7271 15.2314L15.9071 18.8442L12.2993 18.3516L15.5791 20.158L13.9392 23.6066Z" fill="#F1A17C"></path> <path d="M61.0045 37.5653L60.3485 34.6094L59.8566 37.5653L56.7407 37.2369L59.3646 38.7149L58.2166 41.5066L60.3485 39.3718L62.6444 41.5066L61.3325 38.7149L63.9563 37.2369L61.0045 37.5653Z" fill="#F1A17C"></path> <path d="M90.195 39.0433L89.539 41.9993L86.5872 41.6709L89.211 43.1488L87.8991 45.9406L90.195 43.8057L92.3268 45.9406L91.0149 43.1488L93.6388 41.6709L90.6869 41.9993L90.195 39.0433Z" fill="#F1A17C"></path> </svg> 