<?xml version="1.0" encoding="UTF-8"?> <svg xmlns="http://www.w3.org/2000/svg" xmlns:xlink="http://www.w3.org/1999/xlink" width="154px" height="154px" viewBox="0 0 154 154"> <title>illustration</title> <g id="Faculty" stroke="none" stroke-width="1" fill="none" fill-rule="evenodd"> <g id="Faculty-1200-(3)-2" transform="translate(-665.000000, -262.000000)"> <g id="1" transform="translate(570.000000, 237.000000)"> <g id="illustration" transform="translate(96.000000, 0.000000)"> <path d="M26.933777,164.124 C19.949777,166.2192 15.060977,162.378 15.060977,155.0448 C15.060977,150.479032 17.1930175,146.522418 10.9323745,142.890507 C10.8191052,142.824797 10.6777482,142.74672 10.5083034,142.656274 C9.9069944,142.335296 9.62515646,141.627192 9.84144572,140.980803 C9.89424634,140.823007 9.94022429,140.689873 9.97937958,140.581402 C10.3326235,139.602823 10.8624893,138.603956 11.568977,137.5848 L8.23057491,134.759998 L7.9795368,134.547581 C7.44268989,134.093347 7.32725531,133.310834 7.71006048,132.720924 C7.782942,132.608612 7.84585268,132.510086 7.89879254,132.425346 C9.4143822,129.999367 10.172177,127.994385 10.172177,126.4104 C10.172177,123.6168 6.68017702,121.8708 2.83897702,119.0772 C-1.00222298,116.2836 -0.653022975,114.8868 2.14057702,111.3948 C4.93417702,107.9028 15.410177,92.1888 15.410177,89.046 C15.410177,85.9032 9.47377702,82.4112 9.47377702,78.9192 C9.47377702,75.4272 12.616577,72.9828 13.664177,68.4432 C14.711777,63.9036 19.600577,48.5388 25.886177,42.6024 C32.171777,36.666 38.108177,32.1264 57.663377,28.6344 C77.218577,25.1424 90.138977,26.19 103.757777,31.7772 C117.376577,37.3644 131.344577,50.634 134.138177,64.9512 C136.931777,79.2684 137.280977,91.8396 129.598577,104.0616 C121.916177,116.2836 114.932177,124.3152 114.582977,137.2356 C114.233777,150.156 115.979777,162.378 125.058977,178.092 L60,178 L56.5,168 L48.5,157.5 C38.778518,160.5192 31.589777,162.7272 26.933777,164.124 Z" id="Path" fill="#FFFFFF"></path> <path d="M72.329777,140.7276 C72.329777,147.3624 68.837777,149.4576 61.155377,152.6004 C53.472977,155.7432 33.917777,162.0288 26.933777,164.124 C19.949777,166.2192 15.060977,162.378 15.060977,155.0448 C15.060977,150.479032 17.1930175,146.522418 10.9323745,142.890507 C10.8191052,142.824797 10.6777482,142.74672 10.5083034,142.656274 L10.5083085,142.656264 C9.9069944,142.335296 9.62515646,141.627192 9.84144572,140.980803 C9.89424634,140.823007 9.94022429,140.689873 9.97937958,140.581402 C10.3326235,139.602823 10.8624893,138.603956 11.568977,137.5848 L8.23057491,134.759998 L7.9795368,134.547581 C7.44268989,134.093347 7.32725531,133.310834 7.71006048,132.720924 C7.782942,132.608612 7.84585268,132.510086 7.89879254,132.425346 C9.4143822,129.999367 10.172177,127.994385 10.172177,126.4104 C10.172177,123.6168 6.68017702,121.8708 2.83897702,119.0772 C-1.00222298,116.2836 -0.653022975,114.8868 2.14057702,111.3948 C4.93417702,107.9028 15.410177,92.1888 15.410177,89.046 C15.410177,85.9032 9.47377702,82.4112 9.47377702,78.9192 C9.47377702,75.4272 12.616577,72.9828 13.664177,68.4432 C14.711777,63.9036 19.600577,48.5388 25.886177,42.6024 C32.171777,36.666 38.108177,32.1264 57.663377,28.6344 C77.218577,25.1424 90.138977,26.19 103.757777,31.7772 C117.376577,37.3644 131.344577,50.634 134.138177,64.9512 C136.931777,79.2684 137.280977,91.8396 129.598577,104.0616 C121.916177,116.2836 114.932177,124.3152 114.582977,137.2356 C114.233777,150.156 115.979777,162.378 125.058977,178.092 M60.107777,178.092 C57.546977,168.78 53.589377,161.9124 48.234977,157.4892" id="Shape" stroke="#000000" stroke-width="1.3" stroke-linecap="round" stroke-linejoin="round"></path> <g id="Group-3" transform="translate(99.365255, 64.533380) rotate(-45.000000) translate(-99.365255, -64.533380) translate(53.365255, 19.533380)" fill="#7835FF"> <path d="M50.9508494,48.1672358 L50.9436061,48.6990641 C50.9029088,61.1013827 57.4117535,67.4097636 70.2517636,67.4097636 L70.2517636,67.4097636 L70.2517636,66.1073343 L69.8542122,66.1052594 C57.5996397,65.9766063 51.8096532,59.8643599 52.2518703,47.5403236 L52.2518703,47.5403236 L52.2760867,46.8654441 L25.3727136,46.8654441 L25.1591948,46.860441 C22.7533022,46.7474542 20.8369598,44.7349561 20.8369598,42.2688705 C20.8369598,39.6037328 23.0625766,37.0121929 25.4535074,37.0121929 L25.4535074,37.0121929 L52.38,37.012 L52.38,37.0152 L65.475,37.0152 C79.9393376,37.0152 91.665,48.7408624 91.665,63.2052 C91.665,77.6695376 79.9393376,89.3952 65.475,89.3952 L54.3006,89.3952 L38.6867648,89.689281 C40.9432499,88.8648083 42.554,86.6991096 42.554,84.1572 L42.554,84.1572 L42.553,48.167 L50.9508494,48.1672358 Z M26.19,-4.54747351e-13 C40.6543376,-4.54747351e-13 52.38,11.7256624 52.38,26.19 L52.38,35.709 L25.4535074,35.7097636 L25.244539,35.714488 C22.1888035,35.8525757 19.5517636,38.9959149 19.5517636,42.2688705 L19.5517636,42.2688705 L19.5557786,42.4900224 C19.5910803,43.4606866 19.8578056,44.3714453 20.3016874,45.1673038 L20.301,84.179 L20.2970062,84.3731783 C20.1875472,86.7352071 18.2920071,88.6307472 15.9299783,88.7402062 L15.714,88.7452 C13.1801176,88.7452 11.126,86.6910824 11.126,84.1572 L11.126,84.1572 L11.126,39.4596 L9.826,39.4596 L9.826,84.1572 L9.83006122,84.3779394 C9.85129138,84.9539649 9.95526786,85.5088544 10.1304545,86.0310717 C9.37736611,87.9981102 7.47083696,89.3952 5.238,89.3952 C2.34513248,89.3952 6.82121026e-13,87.0500675 6.82121026e-13,84.1572 L6.82121026e-13,26.19 C6.82121026e-13,11.7256624 11.7256624,-4.54747351e-13 26.19,-4.54747351e-13 Z M21.6009322,46.7621097 C22.6168531,47.6387852 23.9338133,48.1678734 25.3727136,48.1678734 L25.3727136,48.1678734 L30.777,48.167 L30.778,84.1572 L30.7730062,84.3731783 C30.6602302,86.8067837 28.6514858,88.7452 26.19,88.7452 C23.6561176,88.7452 21.602,86.6910824 21.602,84.1572 L21.602,84.179 L21.602,84.1572 Z M32.077,48.167 L41.253,48.167 L41.254,84.1572 L41.2490062,84.3731783 C41.1362302,86.8067837 39.1274858,88.7452 36.666,88.7452 C34.1321176,88.7452 32.078,86.6910824 32.078,84.1572 L32.078,84.1572 L32.077,48.167 Z" id="Combined-Shape"></path> </g> </g> </g> </g> </g> </svg> 