<svg width="1920" height="502" viewBox="0 0 1920 502" fill="none" xmlns="http://www.w3.org/2000/svg">
<path d="M0 358.898C83.6995 122.959 454.192 -89.655 673.96 40.7193C739.179 79.41 701.712 163.102 673.96 200.01C587.895 314.467 503.097 385.117 350.707 428.692C323.9 436.357 240.768 445.998 201.773 385.117C162.779 324.237 239.415 245.961 328.341 188.456C523.277 62.3986 737.933 -8.24675 889.528 55.6461C1123.82 154.394 982.375 551.304 764.336 488.564C694.723 468.533 655.794 329.632 793.372 209.544C930.95 89.4567 1295.49 -62.7846 1481.72 75.9277C1540.83 119.955 1594.22 164.402 1578.33 258.684C1562.44 352.967 1509.07 454.741 1382.71 488.564C1148.45 551.265 1060.2 361.804 1308.86 256.412C1424 207.607 1552.73 193.782 1659.9 209.544C1767.07 225.307 1826.22 239.316 1920 358.898" stroke="black"/>
</svg>
