<svg width="630" height="320" viewBox="0 0 630 320" fill="none" xmlns="http://www.w3.org/2000/svg">
<g clip-path="url(#clip0_33_3686)">
<path d="M550.568 75.9782C501.95 91.4769 467.843 130.961 426.309 158.409C412.193 167.743 396.959 175.892 380.811 180.802C381.039 183.362 381.03 185.988 380.706 188.619C375.65 230.619 318.889 252.765 282.319 259.895C268.102 262.666 252.956 263.472 239.775 258.929C236.052 262.791 231.783 266.233 227.46 269.071C195.368 290.174 151.812 288.219 125.545 263.708C116.674 255.424 109.876 245.052 105.88 233.606C102.892 234.379 99.9029 234.941 96.9481 235.273C61.333 239.343 33.9321 211.689 38.1119 177.551C39.0501 169.846 41.7354 162.6 45.9309 155.793C46.7159 154.517 48.7365 155.438 47.9779 156.763C33.3396 182.411 41.2388 216.793 68.339 228.541C79.4953 233.371 92.6809 234.021 104.976 230.888C103.557 226.254 102.567 221.448 102.102 216.564C100.737 202.174 106.493 182.479 125.599 183.115C141.626 183.643 146.569 200.278 138.27 212.425C131.471 222.351 120.443 229.208 108.798 232.787C112.023 241.886 117.104 250.304 123.593 257.421C143.941 279.683 177.225 286.493 207.546 275.751C217.892 272.081 228.932 266.085 237.026 257.921C234.022 256.694 231.131 255.173 228.405 253.286C218.241 246.262 205.793 228.016 219.939 217.186C232.09 207.873 247.219 215.006 250.578 227.71C253.378 238.289 249.009 248.299 241.907 256.575C244.032 257.269 246.218 257.824 248.421 258.243C264.386 261.258 281.707 257.842 297.541 253.275C328.166 244.438 370.852 225.365 377.286 191.237C377.889 188.03 378.027 184.804 377.788 181.678C374.589 182.567 371.329 183.341 368.051 183.957C354.622 186.464 331.532 188.12 328.982 170.954C326.647 155.319 348.163 150.129 359.692 153.76C371.406 157.439 378.579 166.95 380.459 178.098C407.341 169.898 431.857 152.087 453.445 134.867C483.282 111.069 512.663 84.8779 549.813 73.2842C551.618 72.7164 552.391 75.4008 550.568 75.9782ZM109.892 229.438C122.604 225.061 144.484 210.938 139.001 195.614C135.396 185.561 122.496 183.592 113.632 189.831C105.398 195.64 104.397 205.409 104.944 214.053C105.288 219.51 106.315 224.888 107.912 230.059C108.578 229.863 109.235 229.65 109.892 229.438ZM244.954 247.353C249.145 239.407 249.849 229.802 244.964 222.544C239.595 214.601 226.354 213.22 219.507 221.631C213.166 229.425 218.816 239.983 224.336 245.856C228.394 250.162 233.554 253.399 239.202 255.606C241.438 253.026 243.411 250.293 244.954 247.353ZM355.629 155.779C346.29 153.969 330.543 158.235 332.085 170.351C333.438 181.027 346.111 183.121 355.433 182.635C362.922 182.246 370.259 180.947 377.454 178.965C375.599 167.74 368.146 158.213 355.629 155.779Z" fill="black"/>
<path d="M603.282 45.5214C603.205 45.5214 603.137 45.5214 603.059 45.5311C602.933 45.3555 602.72 45.2481 602.448 45.336C602.225 45.4043 602.012 45.4824 601.789 45.5604C583.498 46.0094 565.207 46.4095 546.925 47.0829C546.838 47.0829 546.761 47.1024 546.702 47.1414C546.47 46.7706 545.859 46.9755 545.956 47.4635C547.022 53.1239 548.661 58.794 550.32 64.308C550.349 64.4056 550.397 64.4837 550.456 64.5422C549.99 68.5923 549.699 72.6522 549.001 76.673C548.952 76.9756 549.098 77.2391 549.321 77.3659C549.399 77.4733 549.534 77.5513 549.709 77.5221C550.96 77.2878 552.279 77.1122 553.491 76.7023C553.569 76.9072 553.637 77.1122 553.705 77.3171C554.965 81.1428 556.226 84.9782 557.535 88.7843C557.797 89.5357 558.98 89.2234 558.728 88.4525C558.709 88.4037 558.689 88.3451 558.68 88.2963C558.883 88.6769 559.417 88.9112 559.824 88.5208C574.536 74.6528 589.142 60.6776 603.796 46.7511C604.242 46.3314 603.903 45.5116 603.282 45.5214Z" fill="black"/>
<path d="M547.09 48.2151C563.781 48.0004 580.471 47.5515 597.152 47.1318C590.063 49.5619 583.032 52.1579 576.03 54.8221C567.922 57.9061 558.834 60.5801 551.386 65.0987C551.153 65.2451 551.309 65.6159 551.57 65.5476C560.231 63.3322 568.669 58.921 577.048 55.7493C580.694 54.3635 584.37 53.0264 588.036 51.6992C576.049 57.262 564.207 63.2639 552.957 70.1442C552.705 70.3004 552.734 70.5736 552.88 70.7395C552.715 71.0616 552.618 71.3836 552.55 71.7155C552.531 71.7447 552.501 71.7643 552.482 71.8033C551.91 72.9354 551.25 73.9601 550.484 74.9165C550.979 71.53 551.299 68.1045 551.086 64.6888C551.347 64.6009 551.551 64.3472 551.464 63.9861C550.203 58.7161 548.855 53.3485 547.09 48.2151Z" fill="#F4F2F0"/>
<path d="M558.816 87.5157C558.602 87.7206 558.573 87.9548 558.631 88.1695C557.691 85.2808 556.731 82.4018 555.761 79.5326C554.985 77.2294 553.773 74.7505 553.55 72.2717C553.579 72.135 553.569 72.0082 553.52 71.9008C553.501 71.5104 553.511 71.1201 553.55 70.7297C569.135 62.6295 584.594 54.4415 600.664 47.327C600.761 47.2782 600.829 47.2196 600.887 47.1513C601.003 47.1122 601.129 47.0635 601.246 47.0244C601.304 47.0244 601.362 47.0244 601.42 47.0244C587.212 60.5117 572.966 73.96 558.816 87.5157Z" fill="#F4F2F0"/>
</g>
<defs>
<clipPath id="clip0_33_3686">
<rect width="630" height="320" fill="white"/>
</clipPath>
</defs>
</svg>
