<svg width="1920" height="502" viewBox="0 0 1920 502" fill="none" xmlns="http://www.w3.org/2000/svg">
<path d="M0 143.102C83.6995 379.041 454.192 591.655 673.96 461.281C739.179 422.59 701.712 338.898 673.96 301.99C587.895 187.533 503.097 116.883 350.707 73.308C323.9 65.6428 240.768 56.0019 201.773 116.883C162.779 177.763 239.415 256.039 328.341 313.544C523.277 439.601 737.933 510.247 889.528 446.354C1123.82 347.606 982.375 -49.3039 764.336 13.4362C694.723 33.4671 655.794 172.368 793.372 292.456C930.95 412.543 1295.49 564.785 1481.72 426.072C1540.83 382.045 1594.22 337.598 1578.33 243.316C1562.44 149.033 1509.07 47.2588 1382.71 13.4362C1148.45 -49.2647 1060.2 140.196 1308.86 245.588C1424 294.393 1552.73 308.218 1659.9 292.456C1767.07 276.693 1826.22 262.684 1920 143.102" stroke="black"/>
</svg>
