<svg width="70" height="70" viewBox="0 0 70 70" fill="none" xmlns="http://www.w3.org/2000/svg">
<path d="M4.875 17.7902L35 0.575876L65.125 17.7902V52.2098L35 69.4241L4.875 52.2098V17.7902Z" stroke="#2C8766"/>
<path d="M35.0479 30.7786V34.8474L37.6444 37.3126C37.7887 37.4496 37.8727 37.6382 37.8779 37.8371C37.8831 38.036 37.8091 38.2288 37.6721 38.3731C37.5352 38.5174 37.3465 38.6014 37.1476 38.6066C36.9487 38.6118 36.7559 38.5378 36.6116 38.4009L33.7819 35.7136C33.708 35.6436 33.6492 35.5593 33.609 35.4658C33.5687 35.3723 33.5479 35.2716 33.5479 35.1699V30.7779C33.5479 30.5789 33.6269 30.3882 33.7675 30.2475C33.9082 30.1069 34.099 30.0279 34.2979 30.0279C34.4968 30.0279 34.6875 30.1069 34.8282 30.2475C34.9689 30.3882 35.0479 30.5797 35.0479 30.7786ZM49.6249 32.9604L48.8156 33.8574C48.4204 26.7264 42.4384 20.9634 34.9991 20.8044C28.3594 20.6814 22.5979 24.9444 20.9854 31.2151C20.9608 31.3105 20.9554 31.4099 20.9692 31.5074C20.9831 31.605 21.016 31.6989 21.0662 31.7837C21.1674 31.955 21.3326 32.0791 21.5254 32.1286C21.7181 32.1781 21.9226 32.1491 22.094 32.0478C22.2653 31.9465 22.3893 31.7813 22.4389 31.5886C23.8751 25.9959 29.0036 22.1574 34.9669 22.3044C41.5744 22.4446 46.8994 27.5154 47.3156 33.8139L46.5551 32.8951C46.4926 32.8184 46.4154 32.7549 46.3282 32.7082C46.241 32.6614 46.1453 32.6324 46.0468 32.6228C45.9483 32.6132 45.8489 32.6232 45.7543 32.6522C45.6597 32.6812 45.5717 32.7286 45.4955 32.7918C45.4193 32.8549 45.3564 32.9325 45.3103 33.0201C45.2642 33.1077 45.2359 33.2035 45.2271 33.3021C45.2182 33.4006 45.2289 33.5 45.2586 33.5944C45.2883 33.6888 45.3364 33.7764 45.4001 33.8521L47.3569 36.2154C47.5219 36.4126 47.7619 36.5281 48.0161 36.5326H48.0319C48.2801 36.5326 48.5171 36.4276 48.6851 36.2409L50.7379 33.9654C50.8066 33.8927 50.86 33.8071 50.8952 33.7135C50.9303 33.62 50.9464 33.5203 50.9424 33.4204C50.9385 33.3206 50.9146 33.2225 50.8723 33.132C50.8299 33.0414 50.7698 32.9603 50.6956 32.8933C50.6215 32.8263 50.5346 32.7748 50.4403 32.7419C50.3459 32.7089 50.2459 32.6952 50.1461 32.7014C50.0464 32.7077 49.9489 32.7338 49.8594 32.7783C49.7698 32.8227 49.6901 32.8846 49.6249 32.9604ZM34.7051 49.7829C40.9369 49.7829 46.3654 45.8874 48.2149 40.0891C48.2661 39.9022 48.243 39.7027 48.1505 39.5324C48.058 39.3622 47.9033 39.2342 47.7186 39.1754C47.534 39.1166 47.3337 39.1315 47.1598 39.2169C46.9858 39.3024 46.8517 39.4518 46.7854 39.6339C45.1354 44.8066 40.2814 48.2829 34.7051 48.2829C28.0976 48.2829 22.6661 43.3269 22.1156 37.0389L22.8956 37.9411C22.96 38.0156 23.0384 38.0767 23.1264 38.1209C23.2144 38.1651 23.3103 38.1915 23.4085 38.1986C23.5067 38.2057 23.6054 38.1933 23.6988 38.1623C23.7923 38.1312 23.8787 38.0821 23.9531 38.0176C24.1035 37.8876 24.1962 37.7031 24.2107 37.5048C24.2251 37.3065 24.1603 37.1106 24.0304 36.9601L22.0279 34.6426C21.6904 34.2519 21.0281 34.2541 20.6944 34.6411L18.6896 36.9579C18.5594 37.1084 18.4944 37.3046 18.5088 37.5031C18.5232 37.7016 18.6159 37.8863 18.7665 38.0165C18.9171 38.1467 19.1132 38.2117 19.3117 38.1973C19.5103 38.1829 19.6949 38.0902 19.8251 37.9396L20.6149 37.0254C21.1624 44.1466 27.2644 49.7814 34.7051 49.7814V49.7829Z" fill="white"/>
</svg>
