<svg width="125" height="144" viewBox="0 0 125 144" fill="none" xmlns="http://www.w3.org/2000/svg">
<path d="M0.5 36.2887L62.3538 0.57735L124.208 36.2887V107.711L62.3538 143.423L0.5 107.711V36.2887Z" stroke="#3B8F71"/>
<path d="M81.8094 57.1035H42.1906C40.4313 57.1035 39 58.5349 39 60.2942V68.3589V75.6405V83.7053C39 85.4646 40.4313 86.8959 42.1906 86.8959H81.8094C83.5687 86.8959 85 85.4646 85 83.7053V75.6405V68.3589V60.2942C85 58.5349 83.5687 57.1035 81.8094 57.1035ZM84.0213 83.7053C84.0213 84.9249 83.0291 85.9172 81.8094 85.9172H42.1906C40.9709 85.9172 39.9787 84.9249 39.9787 83.7053V75.6405H84.0213V83.7053ZM84.0213 74.6618H39.9787V69.3376H84.0213V74.6618ZM84.0213 68.3589H39.9787V60.2942C39.9787 59.0746 40.9709 58.0823 42.1906 58.0823H81.8094C83.0291 58.0823 84.0213 59.0746 84.0213 60.2942V68.3589Z" fill="black"/>
<path d="M79.5971 76.9521H72.3154V84.2339H79.5971V76.9521ZM78.6184 83.2552H73.2942V77.931H78.6185V83.2552H78.6184Z" fill="black"/>
</svg>
