<svg width="125" height="144" viewBox="0 0 125 144" fill="none" xmlns="http://www.w3.org/2000/svg">
<path d="M0.5 36.2887L62.3538 0.57735L124.208 36.2887V107.711L62.3538 143.423L0.5 107.711V36.2887Z" stroke="#3B8F71"/>
<path d="M68.9005 55.392C69.1706 55.2402 69.2666 54.8983 69.1149 54.6282C69.053 54.5179 68.9555 54.4317 68.8384 54.3837L56.5432 49.3496C56.2565 49.2322 55.9289 49.3694 55.8115 49.6561C55.7838 49.7236 55.7696 49.7959 55.7696 49.8688V67.7664L40.3839 94.4662C40.2289 94.7345 40.3208 95.0775 40.5892 95.2325C40.6745 95.2817 40.7714 95.3077 40.87 95.3076H83.1296C83.4394 95.3078 83.6907 95.0569 83.6909 94.747C83.691 94.6484 83.665 94.5515 83.6157 94.4662L68.1546 67.6363C68 67.3678 67.6571 67.2754 67.3886 67.43C67.3028 67.4793 67.2316 67.5505 67.1822 67.6363L61.9996 76.6307L56.8915 67.7664V62.1354L68.9005 55.392ZM56.8915 50.7046L67.3388 54.9821L56.8915 60.8484V50.7046ZM52.2078 94.1857H41.8406L56.3306 69.0399L70.8207 94.1857H52.2078ZM67.6686 69.0399L82.1586 94.1857H72.1158L62.647 77.7541L67.6686 69.0399Z" fill="white"/>
</svg>
