<svg width="144" height="144" viewBox="0 0 144 144" fill="none" xmlns="http://www.w3.org/2000/svg">
<path d="M72 0.931261L99.5796 44.267L99.6393 44.3607L99.733 44.4204L143.069 72L99.733 99.5796L99.6393 99.6393L99.5796 99.733L72 143.069L44.4204 99.733L44.3607 99.6393L44.267 99.5796L0.931261 72L44.267 44.4204L44.3607 44.3607L44.4204 44.267L72 0.931261Z" stroke="#3B8F71"/>
<path d="M97 72.0873V71.8367C84.5851 71.8367 78.3537 71.8367 75.3011 68.7747C72.2497 65.7126 72.2497 59.4583 72.2497 47H72H71.7503C71.7503 59.4583 71.7503 65.7114 68.6989 68.7747C65.6475 71.8367 59.4149 71.8367 47 71.8367V72.3391C59.4149 72.3391 65.6463 72.3391 68.6989 75.4012C71.7503 78.4632 71.7503 84.7176 71.7503 97.1758H72.2497C72.2497 84.7176 72.2497 78.4645 75.3011 75.4012C78.3525 72.3391 84.5838 72.3391 97 72.3391V72.0873Z" fill="white"/>
</svg>
