<svg width="144" height="144" viewBox="0 0 144 144" fill="none" xmlns="http://www.w3.org/2000/svg">
<circle cx="72" cy="72" r="71.5" stroke="#3B8F71"/>
<rect x="71" y="51" width="1" height="41" fill="#D9D9D9"/>
<rect x="66" y="92" width="11" height="1" fill="#D9D9D9"/>
<mask id="path-4-inside-1_564_1195" fill="white">
<path d="M88 57H56.0001L56 58H88V57Z"/>
</mask>
<path d="M56.0001 57V56H55.0003L55.0001 56.9999L56.0001 57ZM88 57H89V56H88V57ZM88 58V59H89V58H88ZM56 58L55 57.9999L54.9999 59H56V58ZM56.0001 58H88V56H56.0001V58ZM87 57V58H89V57H87ZM88 57H56V59H88V57ZM55.0001 56.9999L55 57.9999L57 58.0001L57.0001 57.0001L55.0001 56.9999Z" fill="#D9D9D9" mask="url(#path-4-inside-1_564_1195)"/>
<path d="M87.4501 58.257L87.7545 57.9526L94.2634 80.5H81.717L87.4501 58.257Z" stroke="#D9D9D9"/>
<path d="M56.5505 58.2576L56.2473 57.9544L49.8064 80.5H62.3528L56.5505 58.2576Z" stroke="#D9D9D9"/>
</svg>
