<svg width="60" height="60" viewBox="0 0 60 60" fill="none" xmlns="http://www.w3.org/2000/svg">
<g clip-path="url(#clip0_564_904)">
<path d="M14.0253 0C13.6098 0 13.274 0.335312 13.274 0.75016V3.18661H6.66337C6.24791 3.18661 5.91211 3.52249 5.91211 3.93677V59.2501C5.91211 59.6643 6.24791 60.0002 6.66337 60.0002H53.2816C53.6971 60.0002 54.0329 59.6643 54.0329 59.2501V3.93677C54.0329 3.52249 53.6971 3.18661 53.2816 3.18661H46.6716V0.75016C46.6716 0.335312 46.3358 0 45.9203 0C45.5054 0 45.1696 0.335312 45.1696 0.75016V3.18661H36.0399V0.75016C36.0399 0.335312 35.7035 0 35.2886 0C34.8732 0 34.5374 0.335312 34.5374 0.75016V3.18661H25.4082V0.75016C25.4082 0.335312 25.0724 0 24.657 0C24.2421 0 23.9063 0.335312 23.9063 0.75016V3.18661H14.7765V0.75016C14.7765 0.335312 14.4402 0 14.0253 0ZM23.9063 4.68693V7.1228C23.9063 7.53708 24.2421 7.87296 24.657 7.87296C25.0724 7.87296 25.4082 7.53708 25.4082 7.1228V4.68693H34.5374V7.1228C34.5374 7.53708 34.8732 7.87296 35.2886 7.87296C35.7035 7.87296 36.0399 7.53708 36.0399 7.1228V4.68693H45.1696V7.1228C45.1696 7.53708 45.5054 7.87296 45.9203 7.87296C46.3358 7.87296 46.6716 7.53708 46.6716 7.1228V4.68693H52.531V58.4999H7.41406V4.68693H13.274V7.1228C13.274 7.53708 13.6098 7.87296 14.0253 7.87296C14.4402 7.87296 14.7765 7.53708 14.7765 7.1228V4.68693H23.9063Z" fill="#3B8F71"/>
<path d="M17.1736 19.7239H43.164C43.5795 19.7239 43.9153 19.3886 43.9153 18.9743C43.9153 18.5594 43.5795 18.2241 43.164 18.2241H17.1736C16.7582 18.2241 16.4224 18.5594 16.4224 18.9743C16.4224 19.3886 16.7582 19.7239 17.1736 19.7239Z" fill="black"/>
<path d="M17.1736 27.9075H43.164C43.5795 27.9075 43.9153 27.5722 43.9153 27.1574C43.9153 26.7431 43.5795 26.4072 43.164 26.4072H17.1736C16.7582 26.4072 16.4224 26.7431 16.4224 27.1574C16.4224 27.5722 16.7582 27.9075 17.1736 27.9075Z" fill="black"/>
<path d="M17.1736 36.0906H43.164C43.5795 36.0906 43.9153 35.7553 43.9153 35.341C43.9153 34.9261 43.5795 34.5908 43.164 34.5908H17.1736C16.7582 34.5908 16.4224 34.9261 16.4224 35.341C16.4224 35.7553 16.7582 36.0906 17.1736 36.0906Z" fill="black"/>
<path d="M17.1736 44.2742H43.164C43.5795 44.2742 43.9153 43.9384 43.9153 43.5241C43.9153 43.1098 43.5795 42.7739 43.164 42.7739H17.1736C16.7582 42.7739 16.4224 43.1098 16.4224 43.5241C16.4224 43.9384 16.7582 44.2742 17.1736 44.2742Z" fill="black"/>
</g>
<defs>
<clipPath id="clip0_564_904">
<rect width="60" height="60" fill="white"/>
</clipPath>
</defs>
</svg>
