<svg width="144" height="144" viewBox="0 0 144 144" fill="none" xmlns="http://www.w3.org/2000/svg">
<circle cx="72" cy="72" r="71.5" stroke="#0C9F6A"/>
<path d="M61.466 95.708L60.61 88.014L65.826 82.292L58.243 80.728L54.413 74L50.583 80.728L43 82.292L48.216 88.014L47.36 95.708L54.413 92.516M90.413 92.516L97.466 95.708L96.61 88.014L101.826 82.292L94.243 80.728L90.413 74L86.583 80.728L79 82.292L84.216 88.014L83.36 95.708M72.413 66.516L79.466 69.708L78.61 62.014L83.826 56.292L76.243 54.728L72.413 48L68.583 54.728L61 56.292L66.216 62.014L65.36 69.708" stroke="white" stroke-linecap="round"/>
</svg>
