<svg width="144" height="144" viewBox="0 0 144 144" fill="none" xmlns="http://www.w3.org/2000/svg">
<path d="M72 0.931261L99.5796 44.267L99.6393 44.3607L99.733 44.4204L143.069 72L99.733 99.5796L99.6393 99.6393L99.5796 99.733L72 143.069L44.4204 99.733L44.3607 99.6393L44.267 99.5796L0.931261 72L44.267 44.4204L44.3607 44.3607L44.4204 44.267L72 0.931261Z" stroke="#0C9F6A"/>
<path d="M72.5 78.5L78.717 73.837C78.9941 73.629 79.2174 73.3577 79.368 73.0456C79.5186 72.7336 79.5922 72.39 79.5826 72.0437C79.573 71.6973 79.4805 71.3583 79.3128 71.0551C79.1452 70.7519 78.9072 70.4933 78.619 70.301L71.535 65.579C70.095 64.619 68.167 65.651 68.167 67.382V80.667C68.167 81.8162 68.6235 82.9183 69.4361 83.7309C70.2487 84.5435 71.3508 85 72.5 85H83.333C85.6316 85 87.8361 84.0869 89.4615 82.4615C91.0869 80.8361 92 78.6316 92 76.333V67.667C92 65.3684 91.0869 63.1639 89.4615 61.5385C87.8361 59.9131 85.6316 59 83.333 59H61.667C59.3684 59 57.1639 59.9131 55.5385 61.5385C53.9131 63.1639 53 65.3684 53 67.667V76.333C53 78.6316 53.9131 80.8361 55.5385 82.4615C57.1639 84.0869 59.3684 85 61.667 85H63.833" stroke="white" stroke-linecap="round"/>
</svg>
