<svg width="1161" height="293" viewBox="0 0 1161 293" fill="none" xmlns="http://www.w3.org/2000/svg">
<g clip-path="url(#clip0_151_10)">
<path d="M8.5 267.5H0.5V275.5H8.5V267.5ZM200.5 267.5H192.5V275.5H200.5V267.5ZM392.5 267.5H384.5V275.5H392.5V267.5Z" fill="#2B144B" stroke="#FE846B"/>
<path d="M584.5 267.5H576.5V275.5H584.5V267.5Z" fill="#01321F" stroke="#FFDA6B"/>
<path d="M776.5 267.5H768.5V275.5H776.5V267.5ZM968.5 267.5H960.5V275.5H968.5V267.5Z" fill="#2B144B" stroke="#FE846B"/>
<path d="M560.287 250.787V292.213H601.713V250.787H560.287Z" fill="#2B144B" stroke="#FE846B"/>
<path d="M1160.5 267.5H1152.5V275.5H1160.5V267.5Z" fill="#2B144B" stroke="#FE846B"/>
<path d="M679 104.5H780.5C791.546 104.5 800.5 95.546 800.5 84.5V20.5C800.5 9.454 809.454 0.5 820.5 0.5H1139.5C1150.55 0.5 1159.5 9.454 1159.5 20.5V192.5C1159.5 203.546 1150.55 212.5 1139.5 212.5H820.5C809.454 212.5 800.5 203.546 800.5 192.5V119.5" stroke="#FE846B"/>
<path d="M800.5 126C801.428 126 802.318 125.631 802.975 124.975C803.631 124.318 804 123.428 804 122.5C804 121.572 803.631 120.682 802.975 120.025C802.318 119.369 801.428 119 800.5 119C799.572 119 798.682 119.369 798.025 120.025C797.369 120.682 797 121.572 797 122.5C797 123.428 797.369 124.318 798.025 124.975C798.682 125.631 799.572 126 800.5 126ZM679.5 108C680.428 108 681.318 107.631 681.975 106.975C682.631 106.318 683 105.428 683 104.5C683 103.572 682.631 102.682 681.975 102.025C681.318 101.369 680.428 101 679.5 101C678.572 101 677.682 101.369 677.025 102.025C676.369 102.682 676 103.572 676 104.5C676 105.428 676.369 106.318 677.025 106.975C677.682 107.631 678.572 108 679.5 108Z" fill="#FFDA6B"/>
<path d="M581 175H580V250H581V175Z" fill="#5B4971"/>
</g>
<defs>
<clipPath id="clip0_151_10">
<rect width="1161" height="293" fill="white"/>
</clipPath>
</defs>
</svg>
