<?xml version="1.0" encoding="UTF-8"?> <svg xmlns="http://www.w3.org/2000/svg" width="49" height="50" viewBox="0 0 49 50" fill="none"> <path d="M1 17.5487L10.6392 16.0876C12.3453 15.829 13.8298 14.7918 14.6481 13.2866L20.5494 2.43182C21.5874 0.522726 24.3522 0.522726 25.3902 2.43182L31.2754 13.2567C32.1028 14.7787 33.6106 15.8212 35.3382 16.0656L45.637 17.5228C48.0063 17.858 48.8414 20.824 46.989 22.3253L39.5361 28.3646C37.8257 29.7506 37.1195 32.0158 37.743 34.1155L41.1228 45.4969C41.8815 48.0515 38.8679 50.0545 36.7685 48.391L26.4043 40.1791C24.3965 38.5882 21.5431 38.5882 19.5353 40.1791L9.17116 48.391C7.07168 50.0545 4.05808 48.0515 4.81672 45.4969L8.20283 34.0943C8.82315 32.0055 8.12743 29.7514 6.43388 28.3629L1 23.9084" stroke="#FE846B" stroke-linecap="round" stroke-linejoin="round"></path> </svg> 