<?xml version="1.0" encoding="UTF-8"?> <svg xmlns="http://www.w3.org/2000/svg" width="125" height="144" viewBox="0 0 125 144" fill="none"> <path d="M0.5 36.2887L62.3538 0.57735L124.208 36.2887V107.711L62.3538 143.423L0.5 107.711V36.2887Z" stroke="#856BFF"></path> <path d="M72.1765 61.3334C69.8893 59.7335 67.1056 58.7949 64.1026 58.7949C56.3139 58.7949 50 65.1089 50 72.8975C50 80.6861 56.3139 87 64.1026 87C71.8912 87 78.2051 80.6861 78.2051 72.8975C78.2051 69.0539 76.6675 65.5694 74.1738 63.0257" stroke="black"></path> <path d="M63.8205 58.7949V43M63.8205 43L56.2051 50.6154M63.8205 43L71.4359 50.6154" stroke="black"></path> <path d="M78.2051 73.1792L86.1026 73.1792M94 73.1792L86.1026 73.1792M86.1026 73.1792L86.1026 66.1279L86.1026 80.2305" stroke="black"></path> </svg> 