<?xml version="1.0" encoding="UTF-8"?> <svg xmlns="http://www.w3.org/2000/svg" width="144" height="144" viewBox="0 0 144 144" fill="none"> <circle cx="72" cy="72" r="71.5" stroke="#856BFF"></circle> <path fill-rule="evenodd" clip-rule="evenodd" d="M71.6017 86.7563C67.984 84.5298 64.6185 81.9094 61.5655 78.9419C59.4191 76.8049 57.785 74.1996 56.7885 71.3256C54.9953 65.7505 57.0899 59.368 62.9519 57.4792C66.0327 56.4874 69.3974 57.0543 71.9935 59.0025C74.5906 57.0566 77.9541 56.49 81.0351 57.4792C86.8971 59.368 89.0068 65.7505 87.2136 71.3256C86.2171 74.1996 84.583 76.8049 82.4366 78.9419C79.3835 81.9094 76.0181 84.5298 72.4004 86.7563L72.0086 87L71.6017 86.7563Z" stroke="black" stroke-linecap="round" stroke-linejoin="round"></path> <path d="M78.2322 63.7549C80.0077 64.3221 81.2693 65.9161 81.4269 67.7915" stroke="black" stroke-linecap="round" stroke-linejoin="round"></path> </svg> 