<?xml version="1.0" encoding="UTF-8"?> <svg xmlns="http://www.w3.org/2000/svg" width="144" height="144" viewBox="0 0 144 144" fill="none"> <circle cx="72" cy="72" r="71.5" stroke="#5C467A"></circle> <path d="M61.0534 92.7082L60.1971 85.0136L65.4127 79.2918L57.83 77.7284L54 71L50.17 77.7284L42.5873 79.2918L47.8029 85.0136L46.9466 92.7082L54 89.516" stroke="#FE846B" stroke-linecap="round"></path> <path d="M90 89.516L97.0534 92.7082L96.1971 85.0136L101.413 79.2918L93.83 77.7284L90 71L86.17 77.7284L78.5873 79.2918L83.8029 85.0136L82.9466 92.7082" stroke="#FE846B" stroke-linecap="round"></path> <path d="M72 63.516L79.0534 66.7082L78.1971 59.0136L83.4127 53.2918L75.83 51.7284L72 45L68.17 51.7284L60.5873 53.2918L65.8029 59.0136L64.9466 66.7082" stroke="#FE846B" stroke-linecap="round"></path> </svg> 