<?xml version="1.0" encoding="UTF-8"?> <svg xmlns="http://www.w3.org/2000/svg" xmlns:xlink="http://www.w3.org/1999/xlink" width="1323px" height="650px" viewBox="0 0 1323 650"> <title>Group 28 Copy</title> <defs> <rect id="path-1" x="0" y="0.0295608108" width="1350" height="52"></rect> <rect id="path-3" x="0" y="12.0295608" width="1350" height="68"></rect> <rect id="path-5" x="0" y="12.0295608" width="1350" height="78"></rect> <rect id="path-7" x="0" y="12.0295608" width="1350" height="91"></rect> <rect id="path-9" x="0" y="93.0295608" width="1350" height="43"></rect> <rect id="path-11" x="0" y="71.0295608" width="1350" height="65"></rect> <rect id="path-13" x="0" y="62.0295608" width="1350" height="74"></rect> <rect id="path-15" x="0" y="52.0295608" width="1350" height="84"></rect> <rect id="path-17" x="0" y="12.0295608" width="1350" height="124"></rect> </defs> <g id="Faculty" stroke="none" stroke-width="1" fill="none" fill-rule="evenodd"> <g id="Group-28-Copy" transform="translate(-16.000000, -15.000000)"> <g id="Group-Copy-20"> <mask id="mask-2" fill="white"> <use xlink:href="#path-1"></use> </mask> <g id="Rectangle"></g> <path d="M38.5516554,104.3 L38.5516554,92 L88.2641554,92 L88.2641554,104.3 L110.096655,104.3 L110.096655,76.83 L98.8216554,76.83 L98.8216554,36.855 L29.6341554,36.855 C29.1216554,60.84 28.0966554,69.7575 25.1241554,76.83 L16.8216554,76.83 L16.8216554,104.3 L38.5516554,104.3 Z M75.9641554,76.83 L46.8541554,76.83 C49.2116554,70.5775 50.0316554,63.095 50.4416554,51.5125 L75.9641554,51.5125 L75.9641554,76.83 Z M138.489155,92 L173.134155,57.2525 L173.134155,92 L195.991655,92 L195.991655,36.855 L172.621655,36.855 L137.976655,71.6025 L137.976655,36.855 L115.119155,36.855 L115.119155,92 L138.489155,92 Z M244.576655,93.5375 C270.304155,93.5375 280.554155,85.85 280.554155,76.7275 L280.554155,75.7025 C280.554155,68.835 273.891655,63.505 262.411655,62.3775 C273.584155,61.25 277.991655,56.33 277.991655,50.18 L277.991655,49.155 C277.991655,40.2375 264.871655,35.3175 243.346655,35.3175 L241.706655,35.3175 C216.696655,35.3175 202.141655,41.4675 202.141655,53.9725 L202.141655,54.7925 L225.614155,54.7925 C226.126655,51.41 228.894155,48.13 241.296655,48.13 C249.394155,48.13 254.621655,49.2575 254.621655,52.845 L254.621655,53.1525 C254.621655,55.92 252.059155,57.2525 247.036655,57.2525 L229.304155,57.2525 L229.304155,69.3475 L246.011655,69.3475 C246.209586,69.3475 246.40703,69.3481094 246.603784,69.3494543 L247.191778,69.3558214 C252.461477,69.4352527 257.081655,70.1427586 257.081655,73.96 L257.081655,74.37 C257.081655,77.9575 251.956655,79.8025 242.629155,79.8025 C231.046655,79.8025 225.614155,77.1375 225.614155,70.5775 L202.141655,70.5775 L202.141655,71.09 C202.141655,86.1575 218.746655,93.5375 242.219155,93.5375 L244.576655,93.5375 Z M310.689155,93.025 C326.884155,93.025 333.854155,87.3875 336.211655,84.415 C337.031655,89.6425 340.516655,92 344.924155,92 L363.476655,92 L363.476655,77.035 L360.504155,77.035 C358.146655,77.035 357.634155,75.9075 357.634155,74.2675 L357.634155,53.1525 C357.634155,45.1575 355.584155,35.3175 323.604155,35.3175 L317.966655,35.3175 C287.216655,35.3175 285.064155,46.695 285.064155,53.9725 L285.064155,54.1775 L306.281655,54.1775 C306.589155,52.3325 307.101655,48.0275 320.734155,48.0275 L321.246655,48.0275 C334.382253,48.0275 335.550637,50.381706 335.595229,52.4032525 L335.596655,52.5375 L335.596655,52.5375 C335.596655,54.28 334.674155,55.1 332.111655,55.4075 L306.896655,57.765 C290.394155,59.3025 283.731655,64.12 283.731655,74.2675 L283.731655,74.985 C283.731655,84.415 290.804155,93.025 309.356655,93.025 L310.689155,93.025 Z M315.506655,80.6225 C307.716655,80.6225 305.461655,77.3425 305.461655,74.37 L305.461655,74.2675 C305.461655,71.09 307.921655,70.065 313.764155,69.1425 L335.596655,65.76 L335.596655,67.5025 C335.596655,74.0625 327.704155,80.6225 315.506655,80.6225 Z M410.421655,32.345 C427.334155,32.345 432.151655,21.1725 432.151655,15.945 L432.151655,15.74 L415.136655,15.74 C415.136655,16.97 414.111655,20.7625 408.884155,20.7625 C403.554155,20.7625 402.529155,16.97 402.529155,15.74 L385.104155,15.74 L385.104155,15.945 C385.104155,21.1725 388.486655,32.345 407.141655,32.345 L410.421655,32.345 Z M391.356655,92 L426.001655,57.2525 L426.001655,92 L448.859155,92 L448.859155,36.855 L425.489155,36.855 L390.844155,71.6025 L390.844155,36.855 L367.986655,36.855 L367.986655,92 L391.356655,92 Z M480.736655,92 L480.736655,72.115 L511.691655,72.115 L511.691655,92 L534.549155,92 L534.549155,36.855 L511.691655,36.855 L511.691655,56.945 L480.736655,56.945 L480.736655,36.855 L457.879155,36.855 L457.879155,92 L480.736655,92 Z M598.509155,92 L633.154155,57.2525 L633.154155,92 L656.011655,92 L656.011655,36.855 L632.641655,36.855 L597.996655,71.6025 L597.996655,36.855 L575.139155,36.855 L575.139155,92 L598.509155,92 Z M687.889155,92 L687.889155,72.115 L718.844155,72.115 L718.844155,92 L741.701655,92 L741.701655,36.855 L718.844155,36.855 L718.844155,56.945 L687.889155,56.945 L687.889155,36.855 L665.031655,36.855 L665.031655,92 L687.889155,92 Z M794.694155,92 L794.694155,52.025 L817.756655,52.025 L817.756655,36.855 L748.774155,36.855 L748.774155,52.025 L771.836655,52.025 L771.836655,92 L794.694155,92 Z M866.239155,93.5375 C899.141655,93.5375 904.061655,80.11 904.061655,72.6275 L904.061655,72.525 L881.511655,72.525 C881.204155,73.8575 878.744155,79.5975 863.574155,79.5975 L863.471655,79.5975 C850.864155,79.5975 845.329155,75.2925 843.996655,68.835 L904.369155,68.835 L904.369155,65.0425 C904.369155,51.615 898.424155,35.3175 866.034155,35.3175 L859.781655,35.3175 C829.954155,35.3175 821.549155,48.95 821.549155,63.095 L821.549155,65.35 C821.549155,79.8025 830.979155,93.5375 860.396655,93.5375 L866.239155,93.5375 Z M881.306655,57.4575 L844.406655,57.4575 C846.149155,51.615 851.274155,48.13 862.754155,48.13 L862.856655,48.13 C874.439155,48.13 879.769155,51.615 881.306655,57.4575 Z M933.581655,111.27 L933.581655,84.21 C935.426655,86.26 944.651655,93.3325 961.051655,93.3325 L962.691655,93.3325 C988.111655,93.3325 996.721655,79.5975 996.721655,65.145 L996.721655,63.1975 C996.721655,48.0275 988.419155,35.5225 963.409155,35.5225 L961.564155,35.5225 C944.856655,35.5225 936.041655,42.595 933.581655,44.7475 L933.581655,36.855 L910.724155,36.855 L910.724155,111.27 L933.581655,111.27 Z M954.491655,78.7775 L953.979155,78.7775 C940.039155,78.7775 933.581655,71.295 933.581655,64.4275 L933.581655,64.0175 C933.581655,56.945 939.731655,49.77 953.979155,49.77 L954.491655,49.77 C969.251655,49.77 973.351655,56.945 973.351655,64.0175 L973.351655,64.4275 C973.351655,71.09 969.251655,78.7775 954.491655,78.7775 Z M1050.43166,92 C1066.93416,92 1075.23666,82.0575 1075.23666,71.3975 L1075.23666,70.3725 C1075.23666,59.61 1066.83166,51.205 1050.43166,51.205 L1025.72916,51.205 L1025.72916,36.855 L1002.87166,36.855 L1002.87166,92 L1050.43166,92 Z M1044.69166,77.9575 L1025.72916,77.9575 L1025.72916,65.2475 L1044.69166,65.2475 C1049.61166,65.2475 1051.96916,68.015 1051.96916,71.295 L1051.96916,71.8075 C1051.96916,74.985 1049.61166,77.9575 1044.69166,77.9575 Z M1124.74416,93.5375 C1157.64666,93.5375 1162.56666,80.11 1162.56666,72.6275 L1162.56666,72.525 L1140.01666,72.525 C1139.70916,73.8575 1137.24916,79.5975 1122.07916,79.5975 L1121.97666,79.5975 C1109.36916,79.5975 1103.83416,75.2925 1102.50166,68.835 L1162.87416,68.835 L1162.87416,65.0425 C1162.87416,51.615 1156.92916,35.3175 1124.53916,35.3175 L1118.28666,35.3175 C1088.45916,35.3175 1080.05416,48.95 1080.05416,63.095 L1080.05416,65.35 C1080.05416,79.8025 1089.48416,93.5375 1118.90166,93.5375 L1124.74416,93.5375 Z M1139.81166,57.4575 L1102.91166,57.4575 C1104.65416,51.615 1109.77916,48.13 1121.25916,48.13 L1121.36166,48.13 C1132.94416,48.13 1138.27416,51.615 1139.81166,57.4575 Z M1192.08666,111.27 L1192.08666,84.21 C1193.93166,86.26 1203.15666,93.3325 1219.55666,93.3325 L1221.19666,93.3325 C1246.61666,93.3325 1255.22666,79.5975 1255.22666,65.145 L1255.22666,63.1975 C1255.22666,48.0275 1246.92416,35.5225 1221.91416,35.5225 L1220.06916,35.5225 C1203.36166,35.5225 1194.54666,42.595 1192.08666,44.7475 L1192.08666,36.855 L1169.22916,36.855 L1169.22916,111.27 L1192.08666,111.27 Z M1212.99666,78.7775 L1212.48416,78.7775 C1198.54416,78.7775 1192.08666,71.295 1192.08666,64.4275 L1192.08666,64.0175 C1192.08666,56.945 1198.23666,49.77 1212.48416,49.77 L1212.99666,49.77 C1227.75666,49.77 1231.85666,56.945 1231.85666,64.0175 L1231.85666,64.4275 C1231.85666,71.09 1227.75666,78.7775 1212.99666,78.7775 Z M1285.46416,93.025 C1301.65916,93.025 1308.62916,87.3875 1310.98666,84.415 C1311.80666,89.6425 1315.29166,92 1319.69916,92 L1338.25166,92 L1338.25166,77.035 L1335.27916,77.035 C1332.92166,77.035 1332.40916,75.9075 1332.40916,74.2675 L1332.40916,53.1525 C1332.40916,45.1575 1330.35916,35.3175 1298.37916,35.3175 L1292.74166,35.3175 C1261.99166,35.3175 1259.83916,46.695 1259.83916,53.9725 L1259.83916,54.1775 L1281.05666,54.1775 C1281.36416,52.3325 1281.87666,48.0275 1295.50916,48.0275 L1296.02166,48.0275 C1309.15725,48.0275 1310.32564,50.381706 1310.37023,52.4032525 L1310.37166,52.5375 L1310.37166,52.5375 C1310.37166,54.28 1309.44916,55.1 1306.88666,55.4075 L1281.67166,57.765 C1265.16916,59.3025 1258.50666,64.12 1258.50666,74.2675 L1258.50666,74.985 C1258.50666,84.415 1265.57916,93.025 1284.13166,93.025 L1285.46416,93.025 Z M1290.28166,80.6225 C1282.49166,80.6225 1280.23666,77.3425 1280.23666,74.37 L1280.23666,74.2675 C1280.23666,71.09 1282.69666,70.065 1288.53916,69.1425 L1310.37166,65.76 L1310.37166,67.5025 C1310.37166,74.0625 1302.47916,80.6225 1290.28166,80.6225 Z" id="дизайнинтерьера" stroke="#000000" stroke-width="0.8" fill-opacity="0" fill="#000000" fill-rule="nonzero" mask="url(#mask-2)"></path> </g> <g id="Group-Copy-24" transform="translate(0.000000, 39.000000)"> <mask id="mask-4" fill="white"> <use xlink:href="#path-3"></use> </mask> <g id="Rectangle"></g> <path d="M38.5516554,116.3 L38.5516554,104 L88.2641554,104 L88.2641554,116.3 L110.096655,116.3 L110.096655,88.83 L98.8216554,88.83 L98.8216554,48.855 L29.6341554,48.855 C29.1216554,72.84 28.0966554,81.7575 25.1241554,88.83 L16.8216554,88.83 L16.8216554,116.3 L38.5516554,116.3 Z M75.9641554,88.83 L46.8541554,88.83 C49.2116554,82.5775 50.0316554,75.095 50.4416554,63.5125 L75.9641554,63.5125 L75.9641554,88.83 Z M138.489155,104 L173.134155,69.2525 L173.134155,104 L195.991655,104 L195.991655,48.855 L172.621655,48.855 L137.976655,83.6025 L137.976655,48.855 L115.119155,48.855 L115.119155,104 L138.489155,104 Z M244.576655,105.5375 C270.304155,105.5375 280.554155,97.85 280.554155,88.7275 L280.554155,87.7025 C280.554155,80.835 273.891655,75.505 262.411655,74.3775 C273.584155,73.25 277.991655,68.33 277.991655,62.18 L277.991655,61.155 C277.991655,52.2375 264.871655,47.3175 243.346655,47.3175 L241.706655,47.3175 C216.696655,47.3175 202.141655,53.4675 202.141655,65.9725 L202.141655,66.7925 L225.614155,66.7925 C226.126655,63.41 228.894155,60.13 241.296655,60.13 C249.394155,60.13 254.621655,61.2575 254.621655,64.845 L254.621655,65.1525 C254.621655,67.92 252.059155,69.2525 247.036655,69.2525 L229.304155,69.2525 L229.304155,81.3475 L246.011655,81.3475 C246.209586,81.3475 246.40703,81.3481094 246.603784,81.3494543 L247.191778,81.3558214 C252.461477,81.4352527 257.081655,82.1427586 257.081655,85.96 L257.081655,86.37 C257.081655,89.9575 251.956655,91.8025 242.629155,91.8025 C231.046655,91.8025 225.614155,89.1375 225.614155,82.5775 L202.141655,82.5775 L202.141655,83.09 C202.141655,98.1575 218.746655,105.5375 242.219155,105.5375 L244.576655,105.5375 Z M310.689155,105.025 C326.884155,105.025 333.854155,99.3875 336.211655,96.415 C337.031655,101.6425 340.516655,104 344.924155,104 L363.476655,104 L363.476655,89.035 L360.504155,89.035 C358.146655,89.035 357.634155,87.9075 357.634155,86.2675 L357.634155,65.1525 C357.634155,57.1575 355.584155,47.3175 323.604155,47.3175 L317.966655,47.3175 C287.216655,47.3175 285.064155,58.695 285.064155,65.9725 L285.064155,66.1775 L306.281655,66.1775 C306.589155,64.3325 307.101655,60.0275 320.734155,60.0275 L321.246655,60.0275 C334.382253,60.0275 335.550637,62.381706 335.595229,64.4032525 L335.596655,64.5375 L335.596655,64.5375 C335.596655,66.28 334.674155,67.1 332.111655,67.4075 L306.896655,69.765 C290.394155,71.3025 283.731655,76.12 283.731655,86.2675 L283.731655,86.985 C283.731655,96.415 290.804155,105.025 309.356655,105.025 L310.689155,105.025 Z M315.506655,92.6225 C307.716655,92.6225 305.461655,89.3425 305.461655,86.37 L305.461655,86.2675 C305.461655,83.09 307.921655,82.065 313.764155,81.1425 L335.596655,77.76 L335.596655,79.5025 C335.596655,86.0625 327.704155,92.6225 315.506655,92.6225 Z M410.421655,44.345 C427.334155,44.345 432.151655,33.1725 432.151655,27.945 L432.151655,27.74 L415.136655,27.74 C415.136655,28.97 414.111655,32.7625 408.884155,32.7625 C403.554155,32.7625 402.529155,28.97 402.529155,27.74 L385.104155,27.74 L385.104155,27.945 C385.104155,33.1725 388.486655,44.345 407.141655,44.345 L410.421655,44.345 Z M391.356655,104 L426.001655,69.2525 L426.001655,104 L448.859155,104 L448.859155,48.855 L425.489155,48.855 L390.844155,83.6025 L390.844155,48.855 L367.986655,48.855 L367.986655,104 L391.356655,104 Z M480.736655,104 L480.736655,84.115 L511.691655,84.115 L511.691655,104 L534.549155,104 L534.549155,48.855 L511.691655,48.855 L511.691655,68.945 L480.736655,68.945 L480.736655,48.855 L457.879155,48.855 L457.879155,104 L480.736655,104 Z M598.509155,104 L633.154155,69.2525 L633.154155,104 L656.011655,104 L656.011655,48.855 L632.641655,48.855 L597.996655,83.6025 L597.996655,48.855 L575.139155,48.855 L575.139155,104 L598.509155,104 Z M687.889155,104 L687.889155,84.115 L718.844155,84.115 L718.844155,104 L741.701655,104 L741.701655,48.855 L718.844155,48.855 L718.844155,68.945 L687.889155,68.945 L687.889155,48.855 L665.031655,48.855 L665.031655,104 L687.889155,104 Z M794.694155,104 L794.694155,64.025 L817.756655,64.025 L817.756655,48.855 L748.774155,48.855 L748.774155,64.025 L771.836655,64.025 L771.836655,104 L794.694155,104 Z M866.239155,105.5375 C899.141655,105.5375 904.061655,92.11 904.061655,84.6275 L904.061655,84.525 L881.511655,84.525 C881.204155,85.8575 878.744155,91.5975 863.574155,91.5975 L863.471655,91.5975 C850.864155,91.5975 845.329155,87.2925 843.996655,80.835 L904.369155,80.835 L904.369155,77.0425 C904.369155,63.615 898.424155,47.3175 866.034155,47.3175 L859.781655,47.3175 C829.954155,47.3175 821.549155,60.95 821.549155,75.095 L821.549155,77.35 C821.549155,91.8025 830.979155,105.5375 860.396655,105.5375 L866.239155,105.5375 Z M881.306655,69.4575 L844.406655,69.4575 C846.149155,63.615 851.274155,60.13 862.754155,60.13 L862.856655,60.13 C874.439155,60.13 879.769155,63.615 881.306655,69.4575 Z M933.581655,123.27 L933.581655,96.21 C935.426655,98.26 944.651655,105.3325 961.051655,105.3325 L962.691655,105.3325 C988.111655,105.3325 996.721655,91.5975 996.721655,77.145 L996.721655,75.1975 C996.721655,60.0275 988.419155,47.5225 963.409155,47.5225 L961.564155,47.5225 C944.856655,47.5225 936.041655,54.595 933.581655,56.7475 L933.581655,48.855 L910.724155,48.855 L910.724155,123.27 L933.581655,123.27 Z M954.491655,90.7775 L953.979155,90.7775 C940.039155,90.7775 933.581655,83.295 933.581655,76.4275 L933.581655,76.0175 C933.581655,68.945 939.731655,61.77 953.979155,61.77 L954.491655,61.77 C969.251655,61.77 973.351655,68.945 973.351655,76.0175 L973.351655,76.4275 C973.351655,83.09 969.251655,90.7775 954.491655,90.7775 Z M1050.43166,104 C1066.93416,104 1075.23666,94.0575 1075.23666,83.3975 L1075.23666,82.3725 C1075.23666,71.61 1066.83166,63.205 1050.43166,63.205 L1025.72916,63.205 L1025.72916,48.855 L1002.87166,48.855 L1002.87166,104 L1050.43166,104 Z M1044.69166,89.9575 L1025.72916,89.9575 L1025.72916,77.2475 L1044.69166,77.2475 C1049.61166,77.2475 1051.96916,80.015 1051.96916,83.295 L1051.96916,83.8075 C1051.96916,86.985 1049.61166,89.9575 1044.69166,89.9575 Z M1124.74416,105.5375 C1157.64666,105.5375 1162.56666,92.11 1162.56666,84.6275 L1162.56666,84.525 L1140.01666,84.525 C1139.70916,85.8575 1137.24916,91.5975 1122.07916,91.5975 L1121.97666,91.5975 C1109.36916,91.5975 1103.83416,87.2925 1102.50166,80.835 L1162.87416,80.835 L1162.87416,77.0425 C1162.87416,63.615 1156.92916,47.3175 1124.53916,47.3175 L1118.28666,47.3175 C1088.45916,47.3175 1080.05416,60.95 1080.05416,75.095 L1080.05416,77.35 C1080.05416,91.8025 1089.48416,105.5375 1118.90166,105.5375 L1124.74416,105.5375 Z M1139.81166,69.4575 L1102.91166,69.4575 C1104.65416,63.615 1109.77916,60.13 1121.25916,60.13 L1121.36166,60.13 C1132.94416,60.13 1138.27416,63.615 1139.81166,69.4575 Z M1192.08666,123.27 L1192.08666,96.21 C1193.93166,98.26 1203.15666,105.3325 1219.55666,105.3325 L1221.19666,105.3325 C1246.61666,105.3325 1255.22666,91.5975 1255.22666,77.145 L1255.22666,75.1975 C1255.22666,60.0275 1246.92416,47.5225 1221.91416,47.5225 L1220.06916,47.5225 C1203.36166,47.5225 1194.54666,54.595 1192.08666,56.7475 L1192.08666,48.855 L1169.22916,48.855 L1169.22916,123.27 L1192.08666,123.27 Z M1212.99666,90.7775 L1212.48416,90.7775 C1198.54416,90.7775 1192.08666,83.295 1192.08666,76.4275 L1192.08666,76.0175 C1192.08666,68.945 1198.23666,61.77 1212.48416,61.77 L1212.99666,61.77 C1227.75666,61.77 1231.85666,68.945 1231.85666,76.0175 L1231.85666,76.4275 C1231.85666,83.09 1227.75666,90.7775 1212.99666,90.7775 Z M1285.46416,105.025 C1301.65916,105.025 1308.62916,99.3875 1310.98666,96.415 C1311.80666,101.6425 1315.29166,104 1319.69916,104 L1338.25166,104 L1338.25166,89.035 L1335.27916,89.035 C1332.92166,89.035 1332.40916,87.9075 1332.40916,86.2675 L1332.40916,65.1525 C1332.40916,57.1575 1330.35916,47.3175 1298.37916,47.3175 L1292.74166,47.3175 C1261.99166,47.3175 1259.83916,58.695 1259.83916,65.9725 L1259.83916,66.1775 L1281.05666,66.1775 C1281.36416,64.3325 1281.87666,60.0275 1295.50916,60.0275 L1296.02166,60.0275 C1309.15725,60.0275 1310.32564,62.381706 1310.37023,64.4032525 L1310.37166,64.5375 L1310.37166,64.5375 C1310.37166,66.28 1309.44916,67.1 1306.88666,67.4075 L1281.67166,69.765 C1265.16916,71.3025 1258.50666,76.12 1258.50666,86.2675 L1258.50666,86.985 C1258.50666,96.415 1265.57916,105.025 1284.13166,105.025 L1285.46416,105.025 Z M1290.28166,92.6225 C1282.49166,92.6225 1280.23666,89.3425 1280.23666,86.37 L1280.23666,86.2675 C1280.23666,83.09 1282.69666,82.065 1288.53916,81.1425 L1310.37166,77.76 L1310.37166,79.5025 C1310.37166,86.0625 1302.47916,92.6225 1290.28166,92.6225 Z" id="дизайнинтерьера" stroke="#000000" stroke-width="0.8" fill-opacity="0" fill="#000000" fill-rule="nonzero" mask="url(#mask-4)"></path> </g> <g id="Group-Copy-22" transform="translate(0.000000, 107.000000)"> <mask id="mask-6" fill="white"> <use xlink:href="#path-5"></use> </mask> <g id="Rectangle"></g> <path d="M38.5516554,116.3 L38.5516554,104 L88.2641554,104 L88.2641554,116.3 L110.096655,116.3 L110.096655,88.83 L98.8216554,88.83 L98.8216554,48.855 L29.6341554,48.855 C29.1216554,72.84 28.0966554,81.7575 25.1241554,88.83 L16.8216554,88.83 L16.8216554,116.3 L38.5516554,116.3 Z M75.9641554,88.83 L46.8541554,88.83 C49.2116554,82.5775 50.0316554,75.095 50.4416554,63.5125 L75.9641554,63.5125 L75.9641554,88.83 Z M138.489155,104 L173.134155,69.2525 L173.134155,104 L195.991655,104 L195.991655,48.855 L172.621655,48.855 L137.976655,83.6025 L137.976655,48.855 L115.119155,48.855 L115.119155,104 L138.489155,104 Z M244.576655,105.5375 C270.304155,105.5375 280.554155,97.85 280.554155,88.7275 L280.554155,87.7025 C280.554155,80.835 273.891655,75.505 262.411655,74.3775 C273.584155,73.25 277.991655,68.33 277.991655,62.18 L277.991655,61.155 C277.991655,52.2375 264.871655,47.3175 243.346655,47.3175 L241.706655,47.3175 C216.696655,47.3175 202.141655,53.4675 202.141655,65.9725 L202.141655,66.7925 L225.614155,66.7925 C226.126655,63.41 228.894155,60.13 241.296655,60.13 C249.394155,60.13 254.621655,61.2575 254.621655,64.845 L254.621655,65.1525 C254.621655,67.92 252.059155,69.2525 247.036655,69.2525 L229.304155,69.2525 L229.304155,81.3475 L246.011655,81.3475 C246.209586,81.3475 246.40703,81.3481094 246.603784,81.3494543 L247.191778,81.3558214 C252.461477,81.4352527 257.081655,82.1427586 257.081655,85.96 L257.081655,86.37 C257.081655,89.9575 251.956655,91.8025 242.629155,91.8025 C231.046655,91.8025 225.614155,89.1375 225.614155,82.5775 L202.141655,82.5775 L202.141655,83.09 C202.141655,98.1575 218.746655,105.5375 242.219155,105.5375 L244.576655,105.5375 Z M310.689155,105.025 C326.884155,105.025 333.854155,99.3875 336.211655,96.415 C337.031655,101.6425 340.516655,104 344.924155,104 L363.476655,104 L363.476655,89.035 L360.504155,89.035 C358.146655,89.035 357.634155,87.9075 357.634155,86.2675 L357.634155,65.1525 C357.634155,57.1575 355.584155,47.3175 323.604155,47.3175 L317.966655,47.3175 C287.216655,47.3175 285.064155,58.695 285.064155,65.9725 L285.064155,66.1775 L306.281655,66.1775 C306.589155,64.3325 307.101655,60.0275 320.734155,60.0275 L321.246655,60.0275 C334.382253,60.0275 335.550637,62.381706 335.595229,64.4032525 L335.596655,64.5375 L335.596655,64.5375 C335.596655,66.28 334.674155,67.1 332.111655,67.4075 L306.896655,69.765 C290.394155,71.3025 283.731655,76.12 283.731655,86.2675 L283.731655,86.985 C283.731655,96.415 290.804155,105.025 309.356655,105.025 L310.689155,105.025 Z M315.506655,92.6225 C307.716655,92.6225 305.461655,89.3425 305.461655,86.37 L305.461655,86.2675 C305.461655,83.09 307.921655,82.065 313.764155,81.1425 L335.596655,77.76 L335.596655,79.5025 C335.596655,86.0625 327.704155,92.6225 315.506655,92.6225 Z M410.421655,44.345 C427.334155,44.345 432.151655,33.1725 432.151655,27.945 L432.151655,27.74 L415.136655,27.74 C415.136655,28.97 414.111655,32.7625 408.884155,32.7625 C403.554155,32.7625 402.529155,28.97 402.529155,27.74 L385.104155,27.74 L385.104155,27.945 C385.104155,33.1725 388.486655,44.345 407.141655,44.345 L410.421655,44.345 Z M391.356655,104 L426.001655,69.2525 L426.001655,104 L448.859155,104 L448.859155,48.855 L425.489155,48.855 L390.844155,83.6025 L390.844155,48.855 L367.986655,48.855 L367.986655,104 L391.356655,104 Z M480.736655,104 L480.736655,84.115 L511.691655,84.115 L511.691655,104 L534.549155,104 L534.549155,48.855 L511.691655,48.855 L511.691655,68.945 L480.736655,68.945 L480.736655,48.855 L457.879155,48.855 L457.879155,104 L480.736655,104 Z M598.509155,104 L633.154155,69.2525 L633.154155,104 L656.011655,104 L656.011655,48.855 L632.641655,48.855 L597.996655,83.6025 L597.996655,48.855 L575.139155,48.855 L575.139155,104 L598.509155,104 Z M687.889155,104 L687.889155,84.115 L718.844155,84.115 L718.844155,104 L741.701655,104 L741.701655,48.855 L718.844155,48.855 L718.844155,68.945 L687.889155,68.945 L687.889155,48.855 L665.031655,48.855 L665.031655,104 L687.889155,104 Z M794.694155,104 L794.694155,64.025 L817.756655,64.025 L817.756655,48.855 L748.774155,48.855 L748.774155,64.025 L771.836655,64.025 L771.836655,104 L794.694155,104 Z M866.239155,105.5375 C899.141655,105.5375 904.061655,92.11 904.061655,84.6275 L904.061655,84.525 L881.511655,84.525 C881.204155,85.8575 878.744155,91.5975 863.574155,91.5975 L863.471655,91.5975 C850.864155,91.5975 845.329155,87.2925 843.996655,80.835 L904.369155,80.835 L904.369155,77.0425 C904.369155,63.615 898.424155,47.3175 866.034155,47.3175 L859.781655,47.3175 C829.954155,47.3175 821.549155,60.95 821.549155,75.095 L821.549155,77.35 C821.549155,91.8025 830.979155,105.5375 860.396655,105.5375 L866.239155,105.5375 Z M881.306655,69.4575 L844.406655,69.4575 C846.149155,63.615 851.274155,60.13 862.754155,60.13 L862.856655,60.13 C874.439155,60.13 879.769155,63.615 881.306655,69.4575 Z M933.581655,123.27 L933.581655,96.21 C935.426655,98.26 944.651655,105.3325 961.051655,105.3325 L962.691655,105.3325 C988.111655,105.3325 996.721655,91.5975 996.721655,77.145 L996.721655,75.1975 C996.721655,60.0275 988.419155,47.5225 963.409155,47.5225 L961.564155,47.5225 C944.856655,47.5225 936.041655,54.595 933.581655,56.7475 L933.581655,48.855 L910.724155,48.855 L910.724155,123.27 L933.581655,123.27 Z M954.491655,90.7775 L953.979155,90.7775 C940.039155,90.7775 933.581655,83.295 933.581655,76.4275 L933.581655,76.0175 C933.581655,68.945 939.731655,61.77 953.979155,61.77 L954.491655,61.77 C969.251655,61.77 973.351655,68.945 973.351655,76.0175 L973.351655,76.4275 C973.351655,83.09 969.251655,90.7775 954.491655,90.7775 Z M1050.43166,104 C1066.93416,104 1075.23666,94.0575 1075.23666,83.3975 L1075.23666,82.3725 C1075.23666,71.61 1066.83166,63.205 1050.43166,63.205 L1025.72916,63.205 L1025.72916,48.855 L1002.87166,48.855 L1002.87166,104 L1050.43166,104 Z M1044.69166,89.9575 L1025.72916,89.9575 L1025.72916,77.2475 L1044.69166,77.2475 C1049.61166,77.2475 1051.96916,80.015 1051.96916,83.295 L1051.96916,83.8075 C1051.96916,86.985 1049.61166,89.9575 1044.69166,89.9575 Z M1124.74416,105.5375 C1157.64666,105.5375 1162.56666,92.11 1162.56666,84.6275 L1162.56666,84.525 L1140.01666,84.525 C1139.70916,85.8575 1137.24916,91.5975 1122.07916,91.5975 L1121.97666,91.5975 C1109.36916,91.5975 1103.83416,87.2925 1102.50166,80.835 L1162.87416,80.835 L1162.87416,77.0425 C1162.87416,63.615 1156.92916,47.3175 1124.53916,47.3175 L1118.28666,47.3175 C1088.45916,47.3175 1080.05416,60.95 1080.05416,75.095 L1080.05416,77.35 C1080.05416,91.8025 1089.48416,105.5375 1118.90166,105.5375 L1124.74416,105.5375 Z M1139.81166,69.4575 L1102.91166,69.4575 C1104.65416,63.615 1109.77916,60.13 1121.25916,60.13 L1121.36166,60.13 C1132.94416,60.13 1138.27416,63.615 1139.81166,69.4575 Z M1192.08666,123.27 L1192.08666,96.21 C1193.93166,98.26 1203.15666,105.3325 1219.55666,105.3325 L1221.19666,105.3325 C1246.61666,105.3325 1255.22666,91.5975 1255.22666,77.145 L1255.22666,75.1975 C1255.22666,60.0275 1246.92416,47.5225 1221.91416,47.5225 L1220.06916,47.5225 C1203.36166,47.5225 1194.54666,54.595 1192.08666,56.7475 L1192.08666,48.855 L1169.22916,48.855 L1169.22916,123.27 L1192.08666,123.27 Z M1212.99666,90.7775 L1212.48416,90.7775 C1198.54416,90.7775 1192.08666,83.295 1192.08666,76.4275 L1192.08666,76.0175 C1192.08666,68.945 1198.23666,61.77 1212.48416,61.77 L1212.99666,61.77 C1227.75666,61.77 1231.85666,68.945 1231.85666,76.0175 L1231.85666,76.4275 C1231.85666,83.09 1227.75666,90.7775 1212.99666,90.7775 Z M1285.46416,105.025 C1301.65916,105.025 1308.62916,99.3875 1310.98666,96.415 C1311.80666,101.6425 1315.29166,104 1319.69916,104 L1338.25166,104 L1338.25166,89.035 L1335.27916,89.035 C1332.92166,89.035 1332.40916,87.9075 1332.40916,86.2675 L1332.40916,65.1525 C1332.40916,57.1575 1330.35916,47.3175 1298.37916,47.3175 L1292.74166,47.3175 C1261.99166,47.3175 1259.83916,58.695 1259.83916,65.9725 L1259.83916,66.1775 L1281.05666,66.1775 C1281.36416,64.3325 1281.87666,60.0275 1295.50916,60.0275 L1296.02166,60.0275 C1309.15725,60.0275 1310.32564,62.381706 1310.37023,64.4032525 L1310.37166,64.5375 L1310.37166,64.5375 C1310.37166,66.28 1309.44916,67.1 1306.88666,67.4075 L1281.67166,69.765 C1265.16916,71.3025 1258.50666,76.12 1258.50666,86.2675 L1258.50666,86.985 C1258.50666,96.415 1265.57916,105.025 1284.13166,105.025 L1285.46416,105.025 Z M1290.28166,92.6225 C1282.49166,92.6225 1280.23666,89.3425 1280.23666,86.37 L1280.23666,86.2675 C1280.23666,83.09 1282.69666,82.065 1288.53916,81.1425 L1310.37166,77.76 L1310.37166,79.5025 C1310.37166,86.0625 1302.47916,92.6225 1290.28166,92.6225 Z" id="дизайнинтерьера" stroke="#000000" stroke-width="0.8" fill-opacity="0" fill="#000000" fill-rule="nonzero" mask="url(#mask-6)"></path> </g> <g id="Group" transform="translate(0.000000, 185.000000)"> <mask id="mask-8" fill="white"> <use xlink:href="#path-7"></use> </mask> <g id="Rectangle"></g> <path d="M38.5516554,116.3 L38.5516554,104 L88.2641554,104 L88.2641554,116.3 L110.096655,116.3 L110.096655,88.83 L98.8216554,88.83 L98.8216554,48.855 L29.6341554,48.855 C29.1216554,72.84 28.0966554,81.7575 25.1241554,88.83 L16.8216554,88.83 L16.8216554,116.3 L38.5516554,116.3 Z M75.9641554,88.83 L46.8541554,88.83 C49.2116554,82.5775 50.0316554,75.095 50.4416554,63.5125 L75.9641554,63.5125 L75.9641554,88.83 Z M138.489155,104 L173.134155,69.2525 L173.134155,104 L195.991655,104 L195.991655,48.855 L172.621655,48.855 L137.976655,83.6025 L137.976655,48.855 L115.119155,48.855 L115.119155,104 L138.489155,104 Z M244.576655,105.5375 C270.304155,105.5375 280.554155,97.85 280.554155,88.7275 L280.554155,87.7025 C280.554155,80.835 273.891655,75.505 262.411655,74.3775 C273.584155,73.25 277.991655,68.33 277.991655,62.18 L277.991655,61.155 C277.991655,52.2375 264.871655,47.3175 243.346655,47.3175 L241.706655,47.3175 C216.696655,47.3175 202.141655,53.4675 202.141655,65.9725 L202.141655,66.7925 L225.614155,66.7925 C226.126655,63.41 228.894155,60.13 241.296655,60.13 C249.394155,60.13 254.621655,61.2575 254.621655,64.845 L254.621655,65.1525 C254.621655,67.92 252.059155,69.2525 247.036655,69.2525 L229.304155,69.2525 L229.304155,81.3475 L246.011655,81.3475 C246.209586,81.3475 246.40703,81.3481094 246.603784,81.3494543 L247.191778,81.3558214 C252.461477,81.4352527 257.081655,82.1427586 257.081655,85.96 L257.081655,86.37 C257.081655,89.9575 251.956655,91.8025 242.629155,91.8025 C231.046655,91.8025 225.614155,89.1375 225.614155,82.5775 L202.141655,82.5775 L202.141655,83.09 C202.141655,98.1575 218.746655,105.5375 242.219155,105.5375 L244.576655,105.5375 Z M310.689155,105.025 C326.884155,105.025 333.854155,99.3875 336.211655,96.415 C337.031655,101.6425 340.516655,104 344.924155,104 L363.476655,104 L363.476655,89.035 L360.504155,89.035 C358.146655,89.035 357.634155,87.9075 357.634155,86.2675 L357.634155,65.1525 C357.634155,57.1575 355.584155,47.3175 323.604155,47.3175 L317.966655,47.3175 C287.216655,47.3175 285.064155,58.695 285.064155,65.9725 L285.064155,66.1775 L306.281655,66.1775 C306.589155,64.3325 307.101655,60.0275 320.734155,60.0275 L321.246655,60.0275 C334.382253,60.0275 335.550637,62.381706 335.595229,64.4032525 L335.596655,64.5375 L335.596655,64.5375 C335.596655,66.28 334.674155,67.1 332.111655,67.4075 L306.896655,69.765 C290.394155,71.3025 283.731655,76.12 283.731655,86.2675 L283.731655,86.985 C283.731655,96.415 290.804155,105.025 309.356655,105.025 L310.689155,105.025 Z M315.506655,92.6225 C307.716655,92.6225 305.461655,89.3425 305.461655,86.37 L305.461655,86.2675 C305.461655,83.09 307.921655,82.065 313.764155,81.1425 L335.596655,77.76 L335.596655,79.5025 C335.596655,86.0625 327.704155,92.6225 315.506655,92.6225 Z M410.421655,44.345 C427.334155,44.345 432.151655,33.1725 432.151655,27.945 L432.151655,27.74 L415.136655,27.74 C415.136655,28.97 414.111655,32.7625 408.884155,32.7625 C403.554155,32.7625 402.529155,28.97 402.529155,27.74 L385.104155,27.74 L385.104155,27.945 C385.104155,33.1725 388.486655,44.345 407.141655,44.345 L410.421655,44.345 Z M391.356655,104 L426.001655,69.2525 L426.001655,104 L448.859155,104 L448.859155,48.855 L425.489155,48.855 L390.844155,83.6025 L390.844155,48.855 L367.986655,48.855 L367.986655,104 L391.356655,104 Z M480.736655,104 L480.736655,84.115 L511.691655,84.115 L511.691655,104 L534.549155,104 L534.549155,48.855 L511.691655,48.855 L511.691655,68.945 L480.736655,68.945 L480.736655,48.855 L457.879155,48.855 L457.879155,104 L480.736655,104 Z M598.509155,104 L633.154155,69.2525 L633.154155,104 L656.011655,104 L656.011655,48.855 L632.641655,48.855 L597.996655,83.6025 L597.996655,48.855 L575.139155,48.855 L575.139155,104 L598.509155,104 Z M687.889155,104 L687.889155,84.115 L718.844155,84.115 L718.844155,104 L741.701655,104 L741.701655,48.855 L718.844155,48.855 L718.844155,68.945 L687.889155,68.945 L687.889155,48.855 L665.031655,48.855 L665.031655,104 L687.889155,104 Z M794.694155,104 L794.694155,64.025 L817.756655,64.025 L817.756655,48.855 L748.774155,48.855 L748.774155,64.025 L771.836655,64.025 L771.836655,104 L794.694155,104 Z M866.239155,105.5375 C899.141655,105.5375 904.061655,92.11 904.061655,84.6275 L904.061655,84.525 L881.511655,84.525 C881.204155,85.8575 878.744155,91.5975 863.574155,91.5975 L863.471655,91.5975 C850.864155,91.5975 845.329155,87.2925 843.996655,80.835 L904.369155,80.835 L904.369155,77.0425 C904.369155,63.615 898.424155,47.3175 866.034155,47.3175 L859.781655,47.3175 C829.954155,47.3175 821.549155,60.95 821.549155,75.095 L821.549155,77.35 C821.549155,91.8025 830.979155,105.5375 860.396655,105.5375 L866.239155,105.5375 Z M881.306655,69.4575 L844.406655,69.4575 C846.149155,63.615 851.274155,60.13 862.754155,60.13 L862.856655,60.13 C874.439155,60.13 879.769155,63.615 881.306655,69.4575 Z M933.581655,123.27 L933.581655,96.21 C935.426655,98.26 944.651655,105.3325 961.051655,105.3325 L962.691655,105.3325 C988.111655,105.3325 996.721655,91.5975 996.721655,77.145 L996.721655,75.1975 C996.721655,60.0275 988.419155,47.5225 963.409155,47.5225 L961.564155,47.5225 C944.856655,47.5225 936.041655,54.595 933.581655,56.7475 L933.581655,48.855 L910.724155,48.855 L910.724155,123.27 L933.581655,123.27 Z M954.491655,90.7775 L953.979155,90.7775 C940.039155,90.7775 933.581655,83.295 933.581655,76.4275 L933.581655,76.0175 C933.581655,68.945 939.731655,61.77 953.979155,61.77 L954.491655,61.77 C969.251655,61.77 973.351655,68.945 973.351655,76.0175 L973.351655,76.4275 C973.351655,83.09 969.251655,90.7775 954.491655,90.7775 Z M1050.43166,104 C1066.93416,104 1075.23666,94.0575 1075.23666,83.3975 L1075.23666,82.3725 C1075.23666,71.61 1066.83166,63.205 1050.43166,63.205 L1025.72916,63.205 L1025.72916,48.855 L1002.87166,48.855 L1002.87166,104 L1050.43166,104 Z M1044.69166,89.9575 L1025.72916,89.9575 L1025.72916,77.2475 L1044.69166,77.2475 C1049.61166,77.2475 1051.96916,80.015 1051.96916,83.295 L1051.96916,83.8075 C1051.96916,86.985 1049.61166,89.9575 1044.69166,89.9575 Z M1124.74416,105.5375 C1157.64666,105.5375 1162.56666,92.11 1162.56666,84.6275 L1162.56666,84.525 L1140.01666,84.525 C1139.70916,85.8575 1137.24916,91.5975 1122.07916,91.5975 L1121.97666,91.5975 C1109.36916,91.5975 1103.83416,87.2925 1102.50166,80.835 L1162.87416,80.835 L1162.87416,77.0425 C1162.87416,63.615 1156.92916,47.3175 1124.53916,47.3175 L1118.28666,47.3175 C1088.45916,47.3175 1080.05416,60.95 1080.05416,75.095 L1080.05416,77.35 C1080.05416,91.8025 1089.48416,105.5375 1118.90166,105.5375 L1124.74416,105.5375 Z M1139.81166,69.4575 L1102.91166,69.4575 C1104.65416,63.615 1109.77916,60.13 1121.25916,60.13 L1121.36166,60.13 C1132.94416,60.13 1138.27416,63.615 1139.81166,69.4575 Z M1192.08666,123.27 L1192.08666,96.21 C1193.93166,98.26 1203.15666,105.3325 1219.55666,105.3325 L1221.19666,105.3325 C1246.61666,105.3325 1255.22666,91.5975 1255.22666,77.145 L1255.22666,75.1975 C1255.22666,60.0275 1246.92416,47.5225 1221.91416,47.5225 L1220.06916,47.5225 C1203.36166,47.5225 1194.54666,54.595 1192.08666,56.7475 L1192.08666,48.855 L1169.22916,48.855 L1169.22916,123.27 L1192.08666,123.27 Z M1212.99666,90.7775 L1212.48416,90.7775 C1198.54416,90.7775 1192.08666,83.295 1192.08666,76.4275 L1192.08666,76.0175 C1192.08666,68.945 1198.23666,61.77 1212.48416,61.77 L1212.99666,61.77 C1227.75666,61.77 1231.85666,68.945 1231.85666,76.0175 L1231.85666,76.4275 C1231.85666,83.09 1227.75666,90.7775 1212.99666,90.7775 Z M1285.46416,105.025 C1301.65916,105.025 1308.62916,99.3875 1310.98666,96.415 C1311.80666,101.6425 1315.29166,104 1319.69916,104 L1338.25166,104 L1338.25166,89.035 L1335.27916,89.035 C1332.92166,89.035 1332.40916,87.9075 1332.40916,86.2675 L1332.40916,65.1525 C1332.40916,57.1575 1330.35916,47.3175 1298.37916,47.3175 L1292.74166,47.3175 C1261.99166,47.3175 1259.83916,58.695 1259.83916,65.9725 L1259.83916,66.1775 L1281.05666,66.1775 C1281.36416,64.3325 1281.87666,60.0275 1295.50916,60.0275 L1296.02166,60.0275 C1309.15725,60.0275 1310.32564,62.381706 1310.37023,64.4032525 L1310.37166,64.5375 L1310.37166,64.5375 C1310.37166,66.28 1309.44916,67.1 1306.88666,67.4075 L1281.67166,69.765 C1265.16916,71.3025 1258.50666,76.12 1258.50666,86.2675 L1258.50666,86.985 C1258.50666,96.415 1265.57916,105.025 1284.13166,105.025 L1285.46416,105.025 Z M1290.28166,92.6225 C1282.49166,92.6225 1280.23666,89.3425 1280.23666,86.37 L1280.23666,86.2675 C1280.23666,83.09 1282.69666,82.065 1288.53916,81.1425 L1310.37166,77.76 L1310.37166,79.5025 C1310.37166,86.0625 1302.47916,92.6225 1290.28166,92.6225 Z" id="дизайнинтерьера" stroke="#000000" stroke-width="0.8" fill-opacity="0" fill="#000000" fill-rule="nonzero" mask="url(#mask-8)"></path> </g> <g id="Group-Copy-19" transform="translate(0.000000, 541.000000)"> <mask id="mask-10" fill="white"> <use xlink:href="#path-9"></use> </mask> <g id="Rectangle"></g> <path d="M38.5516554,116.3 L38.5516554,104 L88.2641554,104 L88.2641554,116.3 L110.096655,116.3 L110.096655,88.83 L98.8216554,88.83 L98.8216554,48.855 L29.6341554,48.855 C29.1216554,72.84 28.0966554,81.7575 25.1241554,88.83 L16.8216554,88.83 L16.8216554,116.3 L38.5516554,116.3 Z M75.9641554,88.83 L46.8541554,88.83 C49.2116554,82.5775 50.0316554,75.095 50.4416554,63.5125 L75.9641554,63.5125 L75.9641554,88.83 Z M138.489155,104 L173.134155,69.2525 L173.134155,104 L195.991655,104 L195.991655,48.855 L172.621655,48.855 L137.976655,83.6025 L137.976655,48.855 L115.119155,48.855 L115.119155,104 L138.489155,104 Z M244.576655,105.5375 C270.304155,105.5375 280.554155,97.85 280.554155,88.7275 L280.554155,87.7025 C280.554155,80.835 273.891655,75.505 262.411655,74.3775 C273.584155,73.25 277.991655,68.33 277.991655,62.18 L277.991655,61.155 C277.991655,52.2375 264.871655,47.3175 243.346655,47.3175 L241.706655,47.3175 C216.696655,47.3175 202.141655,53.4675 202.141655,65.9725 L202.141655,66.7925 L225.614155,66.7925 C226.126655,63.41 228.894155,60.13 241.296655,60.13 C249.394155,60.13 254.621655,61.2575 254.621655,64.845 L254.621655,65.1525 C254.621655,67.92 252.059155,69.2525 247.036655,69.2525 L229.304155,69.2525 L229.304155,81.3475 L246.011655,81.3475 C246.209586,81.3475 246.40703,81.3481094 246.603784,81.3494543 L247.191778,81.3558214 C252.461477,81.4352527 257.081655,82.1427586 257.081655,85.96 L257.081655,86.37 C257.081655,89.9575 251.956655,91.8025 242.629155,91.8025 C231.046655,91.8025 225.614155,89.1375 225.614155,82.5775 L202.141655,82.5775 L202.141655,83.09 C202.141655,98.1575 218.746655,105.5375 242.219155,105.5375 L244.576655,105.5375 Z M310.689155,105.025 C326.884155,105.025 333.854155,99.3875 336.211655,96.415 C337.031655,101.6425 340.516655,104 344.924155,104 L363.476655,104 L363.476655,89.035 L360.504155,89.035 C358.146655,89.035 357.634155,87.9075 357.634155,86.2675 L357.634155,65.1525 C357.634155,57.1575 355.584155,47.3175 323.604155,47.3175 L317.966655,47.3175 C287.216655,47.3175 285.064155,58.695 285.064155,65.9725 L285.064155,66.1775 L306.281655,66.1775 C306.589155,64.3325 307.101655,60.0275 320.734155,60.0275 L321.246655,60.0275 C334.382253,60.0275 335.550637,62.381706 335.595229,64.4032525 L335.596655,64.5375 L335.596655,64.5375 C335.596655,66.28 334.674155,67.1 332.111655,67.4075 L306.896655,69.765 C290.394155,71.3025 283.731655,76.12 283.731655,86.2675 L283.731655,86.985 C283.731655,96.415 290.804155,105.025 309.356655,105.025 L310.689155,105.025 Z M315.506655,92.6225 C307.716655,92.6225 305.461655,89.3425 305.461655,86.37 L305.461655,86.2675 C305.461655,83.09 307.921655,82.065 313.764155,81.1425 L335.596655,77.76 L335.596655,79.5025 C335.596655,86.0625 327.704155,92.6225 315.506655,92.6225 Z M410.421655,44.345 C427.334155,44.345 432.151655,33.1725 432.151655,27.945 L432.151655,27.74 L415.136655,27.74 C415.136655,28.97 414.111655,32.7625 408.884155,32.7625 C403.554155,32.7625 402.529155,28.97 402.529155,27.74 L385.104155,27.74 L385.104155,27.945 C385.104155,33.1725 388.486655,44.345 407.141655,44.345 L410.421655,44.345 Z M391.356655,104 L426.001655,69.2525 L426.001655,104 L448.859155,104 L448.859155,48.855 L425.489155,48.855 L390.844155,83.6025 L390.844155,48.855 L367.986655,48.855 L367.986655,104 L391.356655,104 Z M480.736655,104 L480.736655,84.115 L511.691655,84.115 L511.691655,104 L534.549155,104 L534.549155,48.855 L511.691655,48.855 L511.691655,68.945 L480.736655,68.945 L480.736655,48.855 L457.879155,48.855 L457.879155,104 L480.736655,104 Z M598.509155,104 L633.154155,69.2525 L633.154155,104 L656.011655,104 L656.011655,48.855 L632.641655,48.855 L597.996655,83.6025 L597.996655,48.855 L575.139155,48.855 L575.139155,104 L598.509155,104 Z M687.889155,104 L687.889155,84.115 L718.844155,84.115 L718.844155,104 L741.701655,104 L741.701655,48.855 L718.844155,48.855 L718.844155,68.945 L687.889155,68.945 L687.889155,48.855 L665.031655,48.855 L665.031655,104 L687.889155,104 Z M794.694155,104 L794.694155,64.025 L817.756655,64.025 L817.756655,48.855 L748.774155,48.855 L748.774155,64.025 L771.836655,64.025 L771.836655,104 L794.694155,104 Z M866.239155,105.5375 C899.141655,105.5375 904.061655,92.11 904.061655,84.6275 L904.061655,84.525 L881.511655,84.525 C881.204155,85.8575 878.744155,91.5975 863.574155,91.5975 L863.471655,91.5975 C850.864155,91.5975 845.329155,87.2925 843.996655,80.835 L904.369155,80.835 L904.369155,77.0425 C904.369155,63.615 898.424155,47.3175 866.034155,47.3175 L859.781655,47.3175 C829.954155,47.3175 821.549155,60.95 821.549155,75.095 L821.549155,77.35 C821.549155,91.8025 830.979155,105.5375 860.396655,105.5375 L866.239155,105.5375 Z M881.306655,69.4575 L844.406655,69.4575 C846.149155,63.615 851.274155,60.13 862.754155,60.13 L862.856655,60.13 C874.439155,60.13 879.769155,63.615 881.306655,69.4575 Z M933.581655,123.27 L933.581655,96.21 C935.426655,98.26 944.651655,105.3325 961.051655,105.3325 L962.691655,105.3325 C988.111655,105.3325 996.721655,91.5975 996.721655,77.145 L996.721655,75.1975 C996.721655,60.0275 988.419155,47.5225 963.409155,47.5225 L961.564155,47.5225 C944.856655,47.5225 936.041655,54.595 933.581655,56.7475 L933.581655,48.855 L910.724155,48.855 L910.724155,123.27 L933.581655,123.27 Z M954.491655,90.7775 L953.979155,90.7775 C940.039155,90.7775 933.581655,83.295 933.581655,76.4275 L933.581655,76.0175 C933.581655,68.945 939.731655,61.77 953.979155,61.77 L954.491655,61.77 C969.251655,61.77 973.351655,68.945 973.351655,76.0175 L973.351655,76.4275 C973.351655,83.09 969.251655,90.7775 954.491655,90.7775 Z M1050.43166,104 C1066.93416,104 1075.23666,94.0575 1075.23666,83.3975 L1075.23666,82.3725 C1075.23666,71.61 1066.83166,63.205 1050.43166,63.205 L1025.72916,63.205 L1025.72916,48.855 L1002.87166,48.855 L1002.87166,104 L1050.43166,104 Z M1044.69166,89.9575 L1025.72916,89.9575 L1025.72916,77.2475 L1044.69166,77.2475 C1049.61166,77.2475 1051.96916,80.015 1051.96916,83.295 L1051.96916,83.8075 C1051.96916,86.985 1049.61166,89.9575 1044.69166,89.9575 Z M1124.74416,105.5375 C1157.64666,105.5375 1162.56666,92.11 1162.56666,84.6275 L1162.56666,84.525 L1140.01666,84.525 C1139.70916,85.8575 1137.24916,91.5975 1122.07916,91.5975 L1121.97666,91.5975 C1109.36916,91.5975 1103.83416,87.2925 1102.50166,80.835 L1162.87416,80.835 L1162.87416,77.0425 C1162.87416,63.615 1156.92916,47.3175 1124.53916,47.3175 L1118.28666,47.3175 C1088.45916,47.3175 1080.05416,60.95 1080.05416,75.095 L1080.05416,77.35 C1080.05416,91.8025 1089.48416,105.5375 1118.90166,105.5375 L1124.74416,105.5375 Z M1139.81166,69.4575 L1102.91166,69.4575 C1104.65416,63.615 1109.77916,60.13 1121.25916,60.13 L1121.36166,60.13 C1132.94416,60.13 1138.27416,63.615 1139.81166,69.4575 Z M1192.08666,123.27 L1192.08666,96.21 C1193.93166,98.26 1203.15666,105.3325 1219.55666,105.3325 L1221.19666,105.3325 C1246.61666,105.3325 1255.22666,91.5975 1255.22666,77.145 L1255.22666,75.1975 C1255.22666,60.0275 1246.92416,47.5225 1221.91416,47.5225 L1220.06916,47.5225 C1203.36166,47.5225 1194.54666,54.595 1192.08666,56.7475 L1192.08666,48.855 L1169.22916,48.855 L1169.22916,123.27 L1192.08666,123.27 Z M1212.99666,90.7775 L1212.48416,90.7775 C1198.54416,90.7775 1192.08666,83.295 1192.08666,76.4275 L1192.08666,76.0175 C1192.08666,68.945 1198.23666,61.77 1212.48416,61.77 L1212.99666,61.77 C1227.75666,61.77 1231.85666,68.945 1231.85666,76.0175 L1231.85666,76.4275 C1231.85666,83.09 1227.75666,90.7775 1212.99666,90.7775 Z M1285.46416,105.025 C1301.65916,105.025 1308.62916,99.3875 1310.98666,96.415 C1311.80666,101.6425 1315.29166,104 1319.69916,104 L1338.25166,104 L1338.25166,89.035 L1335.27916,89.035 C1332.92166,89.035 1332.40916,87.9075 1332.40916,86.2675 L1332.40916,65.1525 C1332.40916,57.1575 1330.35916,47.3175 1298.37916,47.3175 L1292.74166,47.3175 C1261.99166,47.3175 1259.83916,58.695 1259.83916,65.9725 L1259.83916,66.1775 L1281.05666,66.1775 C1281.36416,64.3325 1281.87666,60.0275 1295.50916,60.0275 L1296.02166,60.0275 C1309.15725,60.0275 1310.32564,62.381706 1310.37023,64.4032525 L1310.37166,64.5375 L1310.37166,64.5375 C1310.37166,66.28 1309.44916,67.1 1306.88666,67.4075 L1281.67166,69.765 C1265.16916,71.3025 1258.50666,76.12 1258.50666,86.2675 L1258.50666,86.985 C1258.50666,96.415 1265.57916,105.025 1284.13166,105.025 L1285.46416,105.025 Z M1290.28166,92.6225 C1282.49166,92.6225 1280.23666,89.3425 1280.23666,86.37 L1280.23666,86.2675 C1280.23666,83.09 1282.69666,82.065 1288.53916,81.1425 L1310.37166,77.76 L1310.37166,79.5025 C1310.37166,86.0625 1302.47916,92.6225 1290.28166,92.6225 Z" id="дизайнинтерьера" stroke="#000000" stroke-width="0.8" fill-opacity="0" fill="#000000" fill-rule="nonzero" mask="url(#mask-10)"></path> </g> <g id="Group-Copy-25" transform="translate(0.000000, 498.000000)"> <mask id="mask-12" fill="white"> <use xlink:href="#path-11"></use> </mask> <g id="Rectangle"></g> <path d="M38.5516554,116.3 L38.5516554,104 L88.2641554,104 L88.2641554,116.3 L110.096655,116.3 L110.096655,88.83 L98.8216554,88.83 L98.8216554,48.855 L29.6341554,48.855 C29.1216554,72.84 28.0966554,81.7575 25.1241554,88.83 L16.8216554,88.83 L16.8216554,116.3 L38.5516554,116.3 Z M75.9641554,88.83 L46.8541554,88.83 C49.2116554,82.5775 50.0316554,75.095 50.4416554,63.5125 L75.9641554,63.5125 L75.9641554,88.83 Z M138.489155,104 L173.134155,69.2525 L173.134155,104 L195.991655,104 L195.991655,48.855 L172.621655,48.855 L137.976655,83.6025 L137.976655,48.855 L115.119155,48.855 L115.119155,104 L138.489155,104 Z M244.576655,105.5375 C270.304155,105.5375 280.554155,97.85 280.554155,88.7275 L280.554155,87.7025 C280.554155,80.835 273.891655,75.505 262.411655,74.3775 C273.584155,73.25 277.991655,68.33 277.991655,62.18 L277.991655,61.155 C277.991655,52.2375 264.871655,47.3175 243.346655,47.3175 L241.706655,47.3175 C216.696655,47.3175 202.141655,53.4675 202.141655,65.9725 L202.141655,66.7925 L225.614155,66.7925 C226.126655,63.41 228.894155,60.13 241.296655,60.13 C249.394155,60.13 254.621655,61.2575 254.621655,64.845 L254.621655,65.1525 C254.621655,67.92 252.059155,69.2525 247.036655,69.2525 L229.304155,69.2525 L229.304155,81.3475 L246.011655,81.3475 C246.209586,81.3475 246.40703,81.3481094 246.603784,81.3494543 L247.191778,81.3558214 C252.461477,81.4352527 257.081655,82.1427586 257.081655,85.96 L257.081655,86.37 C257.081655,89.9575 251.956655,91.8025 242.629155,91.8025 C231.046655,91.8025 225.614155,89.1375 225.614155,82.5775 L202.141655,82.5775 L202.141655,83.09 C202.141655,98.1575 218.746655,105.5375 242.219155,105.5375 L244.576655,105.5375 Z M310.689155,105.025 C326.884155,105.025 333.854155,99.3875 336.211655,96.415 C337.031655,101.6425 340.516655,104 344.924155,104 L363.476655,104 L363.476655,89.035 L360.504155,89.035 C358.146655,89.035 357.634155,87.9075 357.634155,86.2675 L357.634155,65.1525 C357.634155,57.1575 355.584155,47.3175 323.604155,47.3175 L317.966655,47.3175 C287.216655,47.3175 285.064155,58.695 285.064155,65.9725 L285.064155,66.1775 L306.281655,66.1775 C306.589155,64.3325 307.101655,60.0275 320.734155,60.0275 L321.246655,60.0275 C334.382253,60.0275 335.550637,62.381706 335.595229,64.4032525 L335.596655,64.5375 L335.596655,64.5375 C335.596655,66.28 334.674155,67.1 332.111655,67.4075 L306.896655,69.765 C290.394155,71.3025 283.731655,76.12 283.731655,86.2675 L283.731655,86.985 C283.731655,96.415 290.804155,105.025 309.356655,105.025 L310.689155,105.025 Z M315.506655,92.6225 C307.716655,92.6225 305.461655,89.3425 305.461655,86.37 L305.461655,86.2675 C305.461655,83.09 307.921655,82.065 313.764155,81.1425 L335.596655,77.76 L335.596655,79.5025 C335.596655,86.0625 327.704155,92.6225 315.506655,92.6225 Z M410.421655,44.345 C427.334155,44.345 432.151655,33.1725 432.151655,27.945 L432.151655,27.74 L415.136655,27.74 C415.136655,28.97 414.111655,32.7625 408.884155,32.7625 C403.554155,32.7625 402.529155,28.97 402.529155,27.74 L385.104155,27.74 L385.104155,27.945 C385.104155,33.1725 388.486655,44.345 407.141655,44.345 L410.421655,44.345 Z M391.356655,104 L426.001655,69.2525 L426.001655,104 L448.859155,104 L448.859155,48.855 L425.489155,48.855 L390.844155,83.6025 L390.844155,48.855 L367.986655,48.855 L367.986655,104 L391.356655,104 Z M480.736655,104 L480.736655,84.115 L511.691655,84.115 L511.691655,104 L534.549155,104 L534.549155,48.855 L511.691655,48.855 L511.691655,68.945 L480.736655,68.945 L480.736655,48.855 L457.879155,48.855 L457.879155,104 L480.736655,104 Z M598.509155,104 L633.154155,69.2525 L633.154155,104 L656.011655,104 L656.011655,48.855 L632.641655,48.855 L597.996655,83.6025 L597.996655,48.855 L575.139155,48.855 L575.139155,104 L598.509155,104 Z M687.889155,104 L687.889155,84.115 L718.844155,84.115 L718.844155,104 L741.701655,104 L741.701655,48.855 L718.844155,48.855 L718.844155,68.945 L687.889155,68.945 L687.889155,48.855 L665.031655,48.855 L665.031655,104 L687.889155,104 Z M794.694155,104 L794.694155,64.025 L817.756655,64.025 L817.756655,48.855 L748.774155,48.855 L748.774155,64.025 L771.836655,64.025 L771.836655,104 L794.694155,104 Z M866.239155,105.5375 C899.141655,105.5375 904.061655,92.11 904.061655,84.6275 L904.061655,84.525 L881.511655,84.525 C881.204155,85.8575 878.744155,91.5975 863.574155,91.5975 L863.471655,91.5975 C850.864155,91.5975 845.329155,87.2925 843.996655,80.835 L904.369155,80.835 L904.369155,77.0425 C904.369155,63.615 898.424155,47.3175 866.034155,47.3175 L859.781655,47.3175 C829.954155,47.3175 821.549155,60.95 821.549155,75.095 L821.549155,77.35 C821.549155,91.8025 830.979155,105.5375 860.396655,105.5375 L866.239155,105.5375 Z M881.306655,69.4575 L844.406655,69.4575 C846.149155,63.615 851.274155,60.13 862.754155,60.13 L862.856655,60.13 C874.439155,60.13 879.769155,63.615 881.306655,69.4575 Z M933.581655,123.27 L933.581655,96.21 C935.426655,98.26 944.651655,105.3325 961.051655,105.3325 L962.691655,105.3325 C988.111655,105.3325 996.721655,91.5975 996.721655,77.145 L996.721655,75.1975 C996.721655,60.0275 988.419155,47.5225 963.409155,47.5225 L961.564155,47.5225 C944.856655,47.5225 936.041655,54.595 933.581655,56.7475 L933.581655,48.855 L910.724155,48.855 L910.724155,123.27 L933.581655,123.27 Z M954.491655,90.7775 L953.979155,90.7775 C940.039155,90.7775 933.581655,83.295 933.581655,76.4275 L933.581655,76.0175 C933.581655,68.945 939.731655,61.77 953.979155,61.77 L954.491655,61.77 C969.251655,61.77 973.351655,68.945 973.351655,76.0175 L973.351655,76.4275 C973.351655,83.09 969.251655,90.7775 954.491655,90.7775 Z M1050.43166,104 C1066.93416,104 1075.23666,94.0575 1075.23666,83.3975 L1075.23666,82.3725 C1075.23666,71.61 1066.83166,63.205 1050.43166,63.205 L1025.72916,63.205 L1025.72916,48.855 L1002.87166,48.855 L1002.87166,104 L1050.43166,104 Z M1044.69166,89.9575 L1025.72916,89.9575 L1025.72916,77.2475 L1044.69166,77.2475 C1049.61166,77.2475 1051.96916,80.015 1051.96916,83.295 L1051.96916,83.8075 C1051.96916,86.985 1049.61166,89.9575 1044.69166,89.9575 Z M1124.74416,105.5375 C1157.64666,105.5375 1162.56666,92.11 1162.56666,84.6275 L1162.56666,84.525 L1140.01666,84.525 C1139.70916,85.8575 1137.24916,91.5975 1122.07916,91.5975 L1121.97666,91.5975 C1109.36916,91.5975 1103.83416,87.2925 1102.50166,80.835 L1162.87416,80.835 L1162.87416,77.0425 C1162.87416,63.615 1156.92916,47.3175 1124.53916,47.3175 L1118.28666,47.3175 C1088.45916,47.3175 1080.05416,60.95 1080.05416,75.095 L1080.05416,77.35 C1080.05416,91.8025 1089.48416,105.5375 1118.90166,105.5375 L1124.74416,105.5375 Z M1139.81166,69.4575 L1102.91166,69.4575 C1104.65416,63.615 1109.77916,60.13 1121.25916,60.13 L1121.36166,60.13 C1132.94416,60.13 1138.27416,63.615 1139.81166,69.4575 Z M1192.08666,123.27 L1192.08666,96.21 C1193.93166,98.26 1203.15666,105.3325 1219.55666,105.3325 L1221.19666,105.3325 C1246.61666,105.3325 1255.22666,91.5975 1255.22666,77.145 L1255.22666,75.1975 C1255.22666,60.0275 1246.92416,47.5225 1221.91416,47.5225 L1220.06916,47.5225 C1203.36166,47.5225 1194.54666,54.595 1192.08666,56.7475 L1192.08666,48.855 L1169.22916,48.855 L1169.22916,123.27 L1192.08666,123.27 Z M1212.99666,90.7775 L1212.48416,90.7775 C1198.54416,90.7775 1192.08666,83.295 1192.08666,76.4275 L1192.08666,76.0175 C1192.08666,68.945 1198.23666,61.77 1212.48416,61.77 L1212.99666,61.77 C1227.75666,61.77 1231.85666,68.945 1231.85666,76.0175 L1231.85666,76.4275 C1231.85666,83.09 1227.75666,90.7775 1212.99666,90.7775 Z M1285.46416,105.025 C1301.65916,105.025 1308.62916,99.3875 1310.98666,96.415 C1311.80666,101.6425 1315.29166,104 1319.69916,104 L1338.25166,104 L1338.25166,89.035 L1335.27916,89.035 C1332.92166,89.035 1332.40916,87.9075 1332.40916,86.2675 L1332.40916,65.1525 C1332.40916,57.1575 1330.35916,47.3175 1298.37916,47.3175 L1292.74166,47.3175 C1261.99166,47.3175 1259.83916,58.695 1259.83916,65.9725 L1259.83916,66.1775 L1281.05666,66.1775 C1281.36416,64.3325 1281.87666,60.0275 1295.50916,60.0275 L1296.02166,60.0275 C1309.15725,60.0275 1310.32564,62.381706 1310.37023,64.4032525 L1310.37166,64.5375 L1310.37166,64.5375 C1310.37166,66.28 1309.44916,67.1 1306.88666,67.4075 L1281.67166,69.765 C1265.16916,71.3025 1258.50666,76.12 1258.50666,86.2675 L1258.50666,86.985 C1258.50666,96.415 1265.57916,105.025 1284.13166,105.025 L1285.46416,105.025 Z M1290.28166,92.6225 C1282.49166,92.6225 1280.23666,89.3425 1280.23666,86.37 L1280.23666,86.2675 C1280.23666,83.09 1282.69666,82.065 1288.53916,81.1425 L1310.37166,77.76 L1310.37166,79.5025 C1310.37166,86.0625 1302.47916,92.6225 1290.28166,92.6225 Z" id="дизайнинтерьера" stroke="#000000" stroke-width="0.8" fill-opacity="0" fill="#000000" fill-rule="nonzero" mask="url(#mask-12)"></path> </g> <g id="Group-Copy-23" transform="translate(0.000000, 433.000000)"> <mask id="mask-14" fill="white"> <use xlink:href="#path-13"></use> </mask> <g id="Rectangle"></g> <path d="M38.5516554,116.3 L38.5516554,104 L88.2641554,104 L88.2641554,116.3 L110.096655,116.3 L110.096655,88.83 L98.8216554,88.83 L98.8216554,48.855 L29.6341554,48.855 C29.1216554,72.84 28.0966554,81.7575 25.1241554,88.83 L16.8216554,88.83 L16.8216554,116.3 L38.5516554,116.3 Z M75.9641554,88.83 L46.8541554,88.83 C49.2116554,82.5775 50.0316554,75.095 50.4416554,63.5125 L75.9641554,63.5125 L75.9641554,88.83 Z M138.489155,104 L173.134155,69.2525 L173.134155,104 L195.991655,104 L195.991655,48.855 L172.621655,48.855 L137.976655,83.6025 L137.976655,48.855 L115.119155,48.855 L115.119155,104 L138.489155,104 Z M244.576655,105.5375 C270.304155,105.5375 280.554155,97.85 280.554155,88.7275 L280.554155,87.7025 C280.554155,80.835 273.891655,75.505 262.411655,74.3775 C273.584155,73.25 277.991655,68.33 277.991655,62.18 L277.991655,61.155 C277.991655,52.2375 264.871655,47.3175 243.346655,47.3175 L241.706655,47.3175 C216.696655,47.3175 202.141655,53.4675 202.141655,65.9725 L202.141655,66.7925 L225.614155,66.7925 C226.126655,63.41 228.894155,60.13 241.296655,60.13 C249.394155,60.13 254.621655,61.2575 254.621655,64.845 L254.621655,65.1525 C254.621655,67.92 252.059155,69.2525 247.036655,69.2525 L229.304155,69.2525 L229.304155,81.3475 L246.011655,81.3475 C246.209586,81.3475 246.40703,81.3481094 246.603784,81.3494543 L247.191778,81.3558214 C252.461477,81.4352527 257.081655,82.1427586 257.081655,85.96 L257.081655,86.37 C257.081655,89.9575 251.956655,91.8025 242.629155,91.8025 C231.046655,91.8025 225.614155,89.1375 225.614155,82.5775 L202.141655,82.5775 L202.141655,83.09 C202.141655,98.1575 218.746655,105.5375 242.219155,105.5375 L244.576655,105.5375 Z M310.689155,105.025 C326.884155,105.025 333.854155,99.3875 336.211655,96.415 C337.031655,101.6425 340.516655,104 344.924155,104 L363.476655,104 L363.476655,89.035 L360.504155,89.035 C358.146655,89.035 357.634155,87.9075 357.634155,86.2675 L357.634155,65.1525 C357.634155,57.1575 355.584155,47.3175 323.604155,47.3175 L317.966655,47.3175 C287.216655,47.3175 285.064155,58.695 285.064155,65.9725 L285.064155,66.1775 L306.281655,66.1775 C306.589155,64.3325 307.101655,60.0275 320.734155,60.0275 L321.246655,60.0275 C334.382253,60.0275 335.550637,62.381706 335.595229,64.4032525 L335.596655,64.5375 L335.596655,64.5375 C335.596655,66.28 334.674155,67.1 332.111655,67.4075 L306.896655,69.765 C290.394155,71.3025 283.731655,76.12 283.731655,86.2675 L283.731655,86.985 C283.731655,96.415 290.804155,105.025 309.356655,105.025 L310.689155,105.025 Z M315.506655,92.6225 C307.716655,92.6225 305.461655,89.3425 305.461655,86.37 L305.461655,86.2675 C305.461655,83.09 307.921655,82.065 313.764155,81.1425 L335.596655,77.76 L335.596655,79.5025 C335.596655,86.0625 327.704155,92.6225 315.506655,92.6225 Z M410.421655,44.345 C427.334155,44.345 432.151655,33.1725 432.151655,27.945 L432.151655,27.74 L415.136655,27.74 C415.136655,28.97 414.111655,32.7625 408.884155,32.7625 C403.554155,32.7625 402.529155,28.97 402.529155,27.74 L385.104155,27.74 L385.104155,27.945 C385.104155,33.1725 388.486655,44.345 407.141655,44.345 L410.421655,44.345 Z M391.356655,104 L426.001655,69.2525 L426.001655,104 L448.859155,104 L448.859155,48.855 L425.489155,48.855 L390.844155,83.6025 L390.844155,48.855 L367.986655,48.855 L367.986655,104 L391.356655,104 Z M480.736655,104 L480.736655,84.115 L511.691655,84.115 L511.691655,104 L534.549155,104 L534.549155,48.855 L511.691655,48.855 L511.691655,68.945 L480.736655,68.945 L480.736655,48.855 L457.879155,48.855 L457.879155,104 L480.736655,104 Z M598.509155,104 L633.154155,69.2525 L633.154155,104 L656.011655,104 L656.011655,48.855 L632.641655,48.855 L597.996655,83.6025 L597.996655,48.855 L575.139155,48.855 L575.139155,104 L598.509155,104 Z M687.889155,104 L687.889155,84.115 L718.844155,84.115 L718.844155,104 L741.701655,104 L741.701655,48.855 L718.844155,48.855 L718.844155,68.945 L687.889155,68.945 L687.889155,48.855 L665.031655,48.855 L665.031655,104 L687.889155,104 Z M794.694155,104 L794.694155,64.025 L817.756655,64.025 L817.756655,48.855 L748.774155,48.855 L748.774155,64.025 L771.836655,64.025 L771.836655,104 L794.694155,104 Z M866.239155,105.5375 C899.141655,105.5375 904.061655,92.11 904.061655,84.6275 L904.061655,84.525 L881.511655,84.525 C881.204155,85.8575 878.744155,91.5975 863.574155,91.5975 L863.471655,91.5975 C850.864155,91.5975 845.329155,87.2925 843.996655,80.835 L904.369155,80.835 L904.369155,77.0425 C904.369155,63.615 898.424155,47.3175 866.034155,47.3175 L859.781655,47.3175 C829.954155,47.3175 821.549155,60.95 821.549155,75.095 L821.549155,77.35 C821.549155,91.8025 830.979155,105.5375 860.396655,105.5375 L866.239155,105.5375 Z M881.306655,69.4575 L844.406655,69.4575 C846.149155,63.615 851.274155,60.13 862.754155,60.13 L862.856655,60.13 C874.439155,60.13 879.769155,63.615 881.306655,69.4575 Z M933.581655,123.27 L933.581655,96.21 C935.426655,98.26 944.651655,105.3325 961.051655,105.3325 L962.691655,105.3325 C988.111655,105.3325 996.721655,91.5975 996.721655,77.145 L996.721655,75.1975 C996.721655,60.0275 988.419155,47.5225 963.409155,47.5225 L961.564155,47.5225 C944.856655,47.5225 936.041655,54.595 933.581655,56.7475 L933.581655,48.855 L910.724155,48.855 L910.724155,123.27 L933.581655,123.27 Z M954.491655,90.7775 L953.979155,90.7775 C940.039155,90.7775 933.581655,83.295 933.581655,76.4275 L933.581655,76.0175 C933.581655,68.945 939.731655,61.77 953.979155,61.77 L954.491655,61.77 C969.251655,61.77 973.351655,68.945 973.351655,76.0175 L973.351655,76.4275 C973.351655,83.09 969.251655,90.7775 954.491655,90.7775 Z M1050.43166,104 C1066.93416,104 1075.23666,94.0575 1075.23666,83.3975 L1075.23666,82.3725 C1075.23666,71.61 1066.83166,63.205 1050.43166,63.205 L1025.72916,63.205 L1025.72916,48.855 L1002.87166,48.855 L1002.87166,104 L1050.43166,104 Z M1044.69166,89.9575 L1025.72916,89.9575 L1025.72916,77.2475 L1044.69166,77.2475 C1049.61166,77.2475 1051.96916,80.015 1051.96916,83.295 L1051.96916,83.8075 C1051.96916,86.985 1049.61166,89.9575 1044.69166,89.9575 Z M1124.74416,105.5375 C1157.64666,105.5375 1162.56666,92.11 1162.56666,84.6275 L1162.56666,84.525 L1140.01666,84.525 C1139.70916,85.8575 1137.24916,91.5975 1122.07916,91.5975 L1121.97666,91.5975 C1109.36916,91.5975 1103.83416,87.2925 1102.50166,80.835 L1162.87416,80.835 L1162.87416,77.0425 C1162.87416,63.615 1156.92916,47.3175 1124.53916,47.3175 L1118.28666,47.3175 C1088.45916,47.3175 1080.05416,60.95 1080.05416,75.095 L1080.05416,77.35 C1080.05416,91.8025 1089.48416,105.5375 1118.90166,105.5375 L1124.74416,105.5375 Z M1139.81166,69.4575 L1102.91166,69.4575 C1104.65416,63.615 1109.77916,60.13 1121.25916,60.13 L1121.36166,60.13 C1132.94416,60.13 1138.27416,63.615 1139.81166,69.4575 Z M1192.08666,123.27 L1192.08666,96.21 C1193.93166,98.26 1203.15666,105.3325 1219.55666,105.3325 L1221.19666,105.3325 C1246.61666,105.3325 1255.22666,91.5975 1255.22666,77.145 L1255.22666,75.1975 C1255.22666,60.0275 1246.92416,47.5225 1221.91416,47.5225 L1220.06916,47.5225 C1203.36166,47.5225 1194.54666,54.595 1192.08666,56.7475 L1192.08666,48.855 L1169.22916,48.855 L1169.22916,123.27 L1192.08666,123.27 Z M1212.99666,90.7775 L1212.48416,90.7775 C1198.54416,90.7775 1192.08666,83.295 1192.08666,76.4275 L1192.08666,76.0175 C1192.08666,68.945 1198.23666,61.77 1212.48416,61.77 L1212.99666,61.77 C1227.75666,61.77 1231.85666,68.945 1231.85666,76.0175 L1231.85666,76.4275 C1231.85666,83.09 1227.75666,90.7775 1212.99666,90.7775 Z M1285.46416,105.025 C1301.65916,105.025 1308.62916,99.3875 1310.98666,96.415 C1311.80666,101.6425 1315.29166,104 1319.69916,104 L1338.25166,104 L1338.25166,89.035 L1335.27916,89.035 C1332.92166,89.035 1332.40916,87.9075 1332.40916,86.2675 L1332.40916,65.1525 C1332.40916,57.1575 1330.35916,47.3175 1298.37916,47.3175 L1292.74166,47.3175 C1261.99166,47.3175 1259.83916,58.695 1259.83916,65.9725 L1259.83916,66.1775 L1281.05666,66.1775 C1281.36416,64.3325 1281.87666,60.0275 1295.50916,60.0275 L1296.02166,60.0275 C1309.15725,60.0275 1310.32564,62.381706 1310.37023,64.4032525 L1310.37166,64.5375 L1310.37166,64.5375 C1310.37166,66.28 1309.44916,67.1 1306.88666,67.4075 L1281.67166,69.765 C1265.16916,71.3025 1258.50666,76.12 1258.50666,86.2675 L1258.50666,86.985 C1258.50666,96.415 1265.57916,105.025 1284.13166,105.025 L1285.46416,105.025 Z M1290.28166,92.6225 C1282.49166,92.6225 1280.23666,89.3425 1280.23666,86.37 L1280.23666,86.2675 C1280.23666,83.09 1282.69666,82.065 1288.53916,81.1425 L1310.37166,77.76 L1310.37166,79.5025 C1310.37166,86.0625 1302.47916,92.6225 1290.28166,92.6225 Z" id="дизайнинтерьера" stroke="#000000" stroke-width="0.8" fill-opacity="0" fill="#000000" fill-rule="nonzero" mask="url(#mask-14)"></path> </g> <g id="Group-Copy-21" transform="translate(0.000000, 360.000000)"> <mask id="mask-16" fill="white"> <use xlink:href="#path-15"></use> </mask> <g id="Rectangle"></g> <path d="M38.5516554,116.3 L38.5516554,104 L88.2641554,104 L88.2641554,116.3 L110.096655,116.3 L110.096655,88.83 L98.8216554,88.83 L98.8216554,48.855 L29.6341554,48.855 C29.1216554,72.84 28.0966554,81.7575 25.1241554,88.83 L16.8216554,88.83 L16.8216554,116.3 L38.5516554,116.3 Z M75.9641554,88.83 L46.8541554,88.83 C49.2116554,82.5775 50.0316554,75.095 50.4416554,63.5125 L75.9641554,63.5125 L75.9641554,88.83 Z M138.489155,104 L173.134155,69.2525 L173.134155,104 L195.991655,104 L195.991655,48.855 L172.621655,48.855 L137.976655,83.6025 L137.976655,48.855 L115.119155,48.855 L115.119155,104 L138.489155,104 Z M244.576655,105.5375 C270.304155,105.5375 280.554155,97.85 280.554155,88.7275 L280.554155,87.7025 C280.554155,80.835 273.891655,75.505 262.411655,74.3775 C273.584155,73.25 277.991655,68.33 277.991655,62.18 L277.991655,61.155 C277.991655,52.2375 264.871655,47.3175 243.346655,47.3175 L241.706655,47.3175 C216.696655,47.3175 202.141655,53.4675 202.141655,65.9725 L202.141655,66.7925 L225.614155,66.7925 C226.126655,63.41 228.894155,60.13 241.296655,60.13 C249.394155,60.13 254.621655,61.2575 254.621655,64.845 L254.621655,65.1525 C254.621655,67.92 252.059155,69.2525 247.036655,69.2525 L229.304155,69.2525 L229.304155,81.3475 L246.011655,81.3475 C246.209586,81.3475 246.40703,81.3481094 246.603784,81.3494543 L247.191778,81.3558214 C252.461477,81.4352527 257.081655,82.1427586 257.081655,85.96 L257.081655,86.37 C257.081655,89.9575 251.956655,91.8025 242.629155,91.8025 C231.046655,91.8025 225.614155,89.1375 225.614155,82.5775 L202.141655,82.5775 L202.141655,83.09 C202.141655,98.1575 218.746655,105.5375 242.219155,105.5375 L244.576655,105.5375 Z M310.689155,105.025 C326.884155,105.025 333.854155,99.3875 336.211655,96.415 C337.031655,101.6425 340.516655,104 344.924155,104 L363.476655,104 L363.476655,89.035 L360.504155,89.035 C358.146655,89.035 357.634155,87.9075 357.634155,86.2675 L357.634155,65.1525 C357.634155,57.1575 355.584155,47.3175 323.604155,47.3175 L317.966655,47.3175 C287.216655,47.3175 285.064155,58.695 285.064155,65.9725 L285.064155,66.1775 L306.281655,66.1775 C306.589155,64.3325 307.101655,60.0275 320.734155,60.0275 L321.246655,60.0275 C334.382253,60.0275 335.550637,62.381706 335.595229,64.4032525 L335.596655,64.5375 L335.596655,64.5375 C335.596655,66.28 334.674155,67.1 332.111655,67.4075 L306.896655,69.765 C290.394155,71.3025 283.731655,76.12 283.731655,86.2675 L283.731655,86.985 C283.731655,96.415 290.804155,105.025 309.356655,105.025 L310.689155,105.025 Z M315.506655,92.6225 C307.716655,92.6225 305.461655,89.3425 305.461655,86.37 L305.461655,86.2675 C305.461655,83.09 307.921655,82.065 313.764155,81.1425 L335.596655,77.76 L335.596655,79.5025 C335.596655,86.0625 327.704155,92.6225 315.506655,92.6225 Z M410.421655,44.345 C427.334155,44.345 432.151655,33.1725 432.151655,27.945 L432.151655,27.74 L415.136655,27.74 C415.136655,28.97 414.111655,32.7625 408.884155,32.7625 C403.554155,32.7625 402.529155,28.97 402.529155,27.74 L385.104155,27.74 L385.104155,27.945 C385.104155,33.1725 388.486655,44.345 407.141655,44.345 L410.421655,44.345 Z M391.356655,104 L426.001655,69.2525 L426.001655,104 L448.859155,104 L448.859155,48.855 L425.489155,48.855 L390.844155,83.6025 L390.844155,48.855 L367.986655,48.855 L367.986655,104 L391.356655,104 Z M480.736655,104 L480.736655,84.115 L511.691655,84.115 L511.691655,104 L534.549155,104 L534.549155,48.855 L511.691655,48.855 L511.691655,68.945 L480.736655,68.945 L480.736655,48.855 L457.879155,48.855 L457.879155,104 L480.736655,104 Z M598.509155,104 L633.154155,69.2525 L633.154155,104 L656.011655,104 L656.011655,48.855 L632.641655,48.855 L597.996655,83.6025 L597.996655,48.855 L575.139155,48.855 L575.139155,104 L598.509155,104 Z M687.889155,104 L687.889155,84.115 L718.844155,84.115 L718.844155,104 L741.701655,104 L741.701655,48.855 L718.844155,48.855 L718.844155,68.945 L687.889155,68.945 L687.889155,48.855 L665.031655,48.855 L665.031655,104 L687.889155,104 Z M794.694155,104 L794.694155,64.025 L817.756655,64.025 L817.756655,48.855 L748.774155,48.855 L748.774155,64.025 L771.836655,64.025 L771.836655,104 L794.694155,104 Z M866.239155,105.5375 C899.141655,105.5375 904.061655,92.11 904.061655,84.6275 L904.061655,84.525 L881.511655,84.525 C881.204155,85.8575 878.744155,91.5975 863.574155,91.5975 L863.471655,91.5975 C850.864155,91.5975 845.329155,87.2925 843.996655,80.835 L904.369155,80.835 L904.369155,77.0425 C904.369155,63.615 898.424155,47.3175 866.034155,47.3175 L859.781655,47.3175 C829.954155,47.3175 821.549155,60.95 821.549155,75.095 L821.549155,77.35 C821.549155,91.8025 830.979155,105.5375 860.396655,105.5375 L866.239155,105.5375 Z M881.306655,69.4575 L844.406655,69.4575 C846.149155,63.615 851.274155,60.13 862.754155,60.13 L862.856655,60.13 C874.439155,60.13 879.769155,63.615 881.306655,69.4575 Z M933.581655,123.27 L933.581655,96.21 C935.426655,98.26 944.651655,105.3325 961.051655,105.3325 L962.691655,105.3325 C988.111655,105.3325 996.721655,91.5975 996.721655,77.145 L996.721655,75.1975 C996.721655,60.0275 988.419155,47.5225 963.409155,47.5225 L961.564155,47.5225 C944.856655,47.5225 936.041655,54.595 933.581655,56.7475 L933.581655,48.855 L910.724155,48.855 L910.724155,123.27 L933.581655,123.27 Z M954.491655,90.7775 L953.979155,90.7775 C940.039155,90.7775 933.581655,83.295 933.581655,76.4275 L933.581655,76.0175 C933.581655,68.945 939.731655,61.77 953.979155,61.77 L954.491655,61.77 C969.251655,61.77 973.351655,68.945 973.351655,76.0175 L973.351655,76.4275 C973.351655,83.09 969.251655,90.7775 954.491655,90.7775 Z M1050.43166,104 C1066.93416,104 1075.23666,94.0575 1075.23666,83.3975 L1075.23666,82.3725 C1075.23666,71.61 1066.83166,63.205 1050.43166,63.205 L1025.72916,63.205 L1025.72916,48.855 L1002.87166,48.855 L1002.87166,104 L1050.43166,104 Z M1044.69166,89.9575 L1025.72916,89.9575 L1025.72916,77.2475 L1044.69166,77.2475 C1049.61166,77.2475 1051.96916,80.015 1051.96916,83.295 L1051.96916,83.8075 C1051.96916,86.985 1049.61166,89.9575 1044.69166,89.9575 Z M1124.74416,105.5375 C1157.64666,105.5375 1162.56666,92.11 1162.56666,84.6275 L1162.56666,84.525 L1140.01666,84.525 C1139.70916,85.8575 1137.24916,91.5975 1122.07916,91.5975 L1121.97666,91.5975 C1109.36916,91.5975 1103.83416,87.2925 1102.50166,80.835 L1162.87416,80.835 L1162.87416,77.0425 C1162.87416,63.615 1156.92916,47.3175 1124.53916,47.3175 L1118.28666,47.3175 C1088.45916,47.3175 1080.05416,60.95 1080.05416,75.095 L1080.05416,77.35 C1080.05416,91.8025 1089.48416,105.5375 1118.90166,105.5375 L1124.74416,105.5375 Z M1139.81166,69.4575 L1102.91166,69.4575 C1104.65416,63.615 1109.77916,60.13 1121.25916,60.13 L1121.36166,60.13 C1132.94416,60.13 1138.27416,63.615 1139.81166,69.4575 Z M1192.08666,123.27 L1192.08666,96.21 C1193.93166,98.26 1203.15666,105.3325 1219.55666,105.3325 L1221.19666,105.3325 C1246.61666,105.3325 1255.22666,91.5975 1255.22666,77.145 L1255.22666,75.1975 C1255.22666,60.0275 1246.92416,47.5225 1221.91416,47.5225 L1220.06916,47.5225 C1203.36166,47.5225 1194.54666,54.595 1192.08666,56.7475 L1192.08666,48.855 L1169.22916,48.855 L1169.22916,123.27 L1192.08666,123.27 Z M1212.99666,90.7775 L1212.48416,90.7775 C1198.54416,90.7775 1192.08666,83.295 1192.08666,76.4275 L1192.08666,76.0175 C1192.08666,68.945 1198.23666,61.77 1212.48416,61.77 L1212.99666,61.77 C1227.75666,61.77 1231.85666,68.945 1231.85666,76.0175 L1231.85666,76.4275 C1231.85666,83.09 1227.75666,90.7775 1212.99666,90.7775 Z M1285.46416,105.025 C1301.65916,105.025 1308.62916,99.3875 1310.98666,96.415 C1311.80666,101.6425 1315.29166,104 1319.69916,104 L1338.25166,104 L1338.25166,89.035 L1335.27916,89.035 C1332.92166,89.035 1332.40916,87.9075 1332.40916,86.2675 L1332.40916,65.1525 C1332.40916,57.1575 1330.35916,47.3175 1298.37916,47.3175 L1292.74166,47.3175 C1261.99166,47.3175 1259.83916,58.695 1259.83916,65.9725 L1259.83916,66.1775 L1281.05666,66.1775 C1281.36416,64.3325 1281.87666,60.0275 1295.50916,60.0275 L1296.02166,60.0275 C1309.15725,60.0275 1310.32564,62.381706 1310.37023,64.4032525 L1310.37166,64.5375 L1310.37166,64.5375 C1310.37166,66.28 1309.44916,67.1 1306.88666,67.4075 L1281.67166,69.765 C1265.16916,71.3025 1258.50666,76.12 1258.50666,86.2675 L1258.50666,86.985 C1258.50666,96.415 1265.57916,105.025 1284.13166,105.025 L1285.46416,105.025 Z M1290.28166,92.6225 C1282.49166,92.6225 1280.23666,89.3425 1280.23666,86.37 L1280.23666,86.2675 C1280.23666,83.09 1282.69666,82.065 1288.53916,81.1425 L1310.37166,77.76 L1310.37166,79.5025 C1310.37166,86.0625 1302.47916,92.6225 1290.28166,92.6225 Z" id="дизайнинтерьера" stroke="#000000" stroke-width="0.8" fill-opacity="0" fill="#000000" fill-rule="nonzero" mask="url(#mask-16)"></path> </g> <g id="Group-Copy-18" transform="translate(0.000000, 276.000000)"> <mask id="mask-18" fill="white"> <use xlink:href="#path-17"></use> </mask> <g id="Rectangle"></g> <path d="M38.5516554,116.3 L38.5516554,104 L88.2641554,104 L88.2641554,116.3 L110.096655,116.3 L110.096655,88.83 L98.8216554,88.83 L98.8216554,48.855 L29.6341554,48.855 C29.1216554,72.84 28.0966554,81.7575 25.1241554,88.83 L16.8216554,88.83 L16.8216554,116.3 L38.5516554,116.3 Z M75.9641554,88.83 L46.8541554,88.83 C49.2116554,82.5775 50.0316554,75.095 50.4416554,63.5125 L75.9641554,63.5125 L75.9641554,88.83 Z M138.489155,104 L173.134155,69.2525 L173.134155,104 L195.991655,104 L195.991655,48.855 L172.621655,48.855 L137.976655,83.6025 L137.976655,48.855 L115.119155,48.855 L115.119155,104 L138.489155,104 Z M244.576655,105.5375 C270.304155,105.5375 280.554155,97.85 280.554155,88.7275 L280.554155,87.7025 C280.554155,80.835 273.891655,75.505 262.411655,74.3775 C273.584155,73.25 277.991655,68.33 277.991655,62.18 L277.991655,61.155 C277.991655,52.2375 264.871655,47.3175 243.346655,47.3175 L241.706655,47.3175 C216.696655,47.3175 202.141655,53.4675 202.141655,65.9725 L202.141655,66.7925 L225.614155,66.7925 C226.126655,63.41 228.894155,60.13 241.296655,60.13 C249.394155,60.13 254.621655,61.2575 254.621655,64.845 L254.621655,65.1525 C254.621655,67.92 252.059155,69.2525 247.036655,69.2525 L229.304155,69.2525 L229.304155,81.3475 L246.011655,81.3475 C246.209586,81.3475 246.40703,81.3481094 246.603784,81.3494543 L247.191778,81.3558214 C252.461477,81.4352527 257.081655,82.1427586 257.081655,85.96 L257.081655,86.37 C257.081655,89.9575 251.956655,91.8025 242.629155,91.8025 C231.046655,91.8025 225.614155,89.1375 225.614155,82.5775 L202.141655,82.5775 L202.141655,83.09 C202.141655,98.1575 218.746655,105.5375 242.219155,105.5375 L244.576655,105.5375 Z M310.689155,105.025 C326.884155,105.025 333.854155,99.3875 336.211655,96.415 C337.031655,101.6425 340.516655,104 344.924155,104 L363.476655,104 L363.476655,89.035 L360.504155,89.035 C358.146655,89.035 357.634155,87.9075 357.634155,86.2675 L357.634155,65.1525 C357.634155,57.1575 355.584155,47.3175 323.604155,47.3175 L317.966655,47.3175 C287.216655,47.3175 285.064155,58.695 285.064155,65.9725 L285.064155,66.1775 L306.281655,66.1775 C306.589155,64.3325 307.101655,60.0275 320.734155,60.0275 L321.246655,60.0275 C334.382253,60.0275 335.550637,62.381706 335.595229,64.4032525 L335.596655,64.5375 L335.596655,64.5375 C335.596655,66.28 334.674155,67.1 332.111655,67.4075 L306.896655,69.765 C290.394155,71.3025 283.731655,76.12 283.731655,86.2675 L283.731655,86.985 C283.731655,96.415 290.804155,105.025 309.356655,105.025 L310.689155,105.025 Z M315.506655,92.6225 C307.716655,92.6225 305.461655,89.3425 305.461655,86.37 L305.461655,86.2675 C305.461655,83.09 307.921655,82.065 313.764155,81.1425 L335.596655,77.76 L335.596655,79.5025 C335.596655,86.0625 327.704155,92.6225 315.506655,92.6225 Z M410.421655,44.345 C427.334155,44.345 432.151655,33.1725 432.151655,27.945 L432.151655,27.74 L415.136655,27.74 C415.136655,28.97 414.111655,32.7625 408.884155,32.7625 C403.554155,32.7625 402.529155,28.97 402.529155,27.74 L385.104155,27.74 L385.104155,27.945 C385.104155,33.1725 388.486655,44.345 407.141655,44.345 L410.421655,44.345 Z M391.356655,104 L426.001655,69.2525 L426.001655,104 L448.859155,104 L448.859155,48.855 L425.489155,48.855 L390.844155,83.6025 L390.844155,48.855 L367.986655,48.855 L367.986655,104 L391.356655,104 Z M480.736655,104 L480.736655,84.115 L511.691655,84.115 L511.691655,104 L534.549155,104 L534.549155,48.855 L511.691655,48.855 L511.691655,68.945 L480.736655,68.945 L480.736655,48.855 L457.879155,48.855 L457.879155,104 L480.736655,104 Z M598.509155,104 L633.154155,69.2525 L633.154155,104 L656.011655,104 L656.011655,48.855 L632.641655,48.855 L597.996655,83.6025 L597.996655,48.855 L575.139155,48.855 L575.139155,104 L598.509155,104 Z M687.889155,104 L687.889155,84.115 L718.844155,84.115 L718.844155,104 L741.701655,104 L741.701655,48.855 L718.844155,48.855 L718.844155,68.945 L687.889155,68.945 L687.889155,48.855 L665.031655,48.855 L665.031655,104 L687.889155,104 Z M794.694155,104 L794.694155,64.025 L817.756655,64.025 L817.756655,48.855 L748.774155,48.855 L748.774155,64.025 L771.836655,64.025 L771.836655,104 L794.694155,104 Z M866.239155,105.5375 C899.141655,105.5375 904.061655,92.11 904.061655,84.6275 L904.061655,84.525 L881.511655,84.525 C881.204155,85.8575 878.744155,91.5975 863.574155,91.5975 L863.471655,91.5975 C850.864155,91.5975 845.329155,87.2925 843.996655,80.835 L904.369155,80.835 L904.369155,77.0425 C904.369155,63.615 898.424155,47.3175 866.034155,47.3175 L859.781655,47.3175 C829.954155,47.3175 821.549155,60.95 821.549155,75.095 L821.549155,77.35 C821.549155,91.8025 830.979155,105.5375 860.396655,105.5375 L866.239155,105.5375 Z M881.306655,69.4575 L844.406655,69.4575 C846.149155,63.615 851.274155,60.13 862.754155,60.13 L862.856655,60.13 C874.439155,60.13 879.769155,63.615 881.306655,69.4575 Z M933.581655,123.27 L933.581655,96.21 C935.426655,98.26 944.651655,105.3325 961.051655,105.3325 L962.691655,105.3325 C988.111655,105.3325 996.721655,91.5975 996.721655,77.145 L996.721655,75.1975 C996.721655,60.0275 988.419155,47.5225 963.409155,47.5225 L961.564155,47.5225 C944.856655,47.5225 936.041655,54.595 933.581655,56.7475 L933.581655,48.855 L910.724155,48.855 L910.724155,123.27 L933.581655,123.27 Z M954.491655,90.7775 L953.979155,90.7775 C940.039155,90.7775 933.581655,83.295 933.581655,76.4275 L933.581655,76.0175 C933.581655,68.945 939.731655,61.77 953.979155,61.77 L954.491655,61.77 C969.251655,61.77 973.351655,68.945 973.351655,76.0175 L973.351655,76.4275 C973.351655,83.09 969.251655,90.7775 954.491655,90.7775 Z M1050.43166,104 C1066.93416,104 1075.23666,94.0575 1075.23666,83.3975 L1075.23666,82.3725 C1075.23666,71.61 1066.83166,63.205 1050.43166,63.205 L1025.72916,63.205 L1025.72916,48.855 L1002.87166,48.855 L1002.87166,104 L1050.43166,104 Z M1044.69166,89.9575 L1025.72916,89.9575 L1025.72916,77.2475 L1044.69166,77.2475 C1049.61166,77.2475 1051.96916,80.015 1051.96916,83.295 L1051.96916,83.8075 C1051.96916,86.985 1049.61166,89.9575 1044.69166,89.9575 Z M1124.74416,105.5375 C1157.64666,105.5375 1162.56666,92.11 1162.56666,84.6275 L1162.56666,84.525 L1140.01666,84.525 C1139.70916,85.8575 1137.24916,91.5975 1122.07916,91.5975 L1121.97666,91.5975 C1109.36916,91.5975 1103.83416,87.2925 1102.50166,80.835 L1162.87416,80.835 L1162.87416,77.0425 C1162.87416,63.615 1156.92916,47.3175 1124.53916,47.3175 L1118.28666,47.3175 C1088.45916,47.3175 1080.05416,60.95 1080.05416,75.095 L1080.05416,77.35 C1080.05416,91.8025 1089.48416,105.5375 1118.90166,105.5375 L1124.74416,105.5375 Z M1139.81166,69.4575 L1102.91166,69.4575 C1104.65416,63.615 1109.77916,60.13 1121.25916,60.13 L1121.36166,60.13 C1132.94416,60.13 1138.27416,63.615 1139.81166,69.4575 Z M1192.08666,123.27 L1192.08666,96.21 C1193.93166,98.26 1203.15666,105.3325 1219.55666,105.3325 L1221.19666,105.3325 C1246.61666,105.3325 1255.22666,91.5975 1255.22666,77.145 L1255.22666,75.1975 C1255.22666,60.0275 1246.92416,47.5225 1221.91416,47.5225 L1220.06916,47.5225 C1203.36166,47.5225 1194.54666,54.595 1192.08666,56.7475 L1192.08666,48.855 L1169.22916,48.855 L1169.22916,123.27 L1192.08666,123.27 Z M1212.99666,90.7775 L1212.48416,90.7775 C1198.54416,90.7775 1192.08666,83.295 1192.08666,76.4275 L1192.08666,76.0175 C1192.08666,68.945 1198.23666,61.77 1212.48416,61.77 L1212.99666,61.77 C1227.75666,61.77 1231.85666,68.945 1231.85666,76.0175 L1231.85666,76.4275 C1231.85666,83.09 1227.75666,90.7775 1212.99666,90.7775 Z M1285.46416,105.025 C1301.65916,105.025 1308.62916,99.3875 1310.98666,96.415 C1311.80666,101.6425 1315.29166,104 1319.69916,104 L1338.25166,104 L1338.25166,89.035 L1335.27916,89.035 C1332.92166,89.035 1332.40916,87.9075 1332.40916,86.2675 L1332.40916,65.1525 C1332.40916,57.1575 1330.35916,47.3175 1298.37916,47.3175 L1292.74166,47.3175 C1261.99166,47.3175 1259.83916,58.695 1259.83916,65.9725 L1259.83916,66.1775 L1281.05666,66.1775 C1281.36416,64.3325 1281.87666,60.0275 1295.50916,60.0275 L1296.02166,60.0275 C1309.15725,60.0275 1310.32564,62.381706 1310.37023,64.4032525 L1310.37166,64.5375 L1310.37166,64.5375 C1310.37166,66.28 1309.44916,67.1 1306.88666,67.4075 L1281.67166,69.765 C1265.16916,71.3025 1258.50666,76.12 1258.50666,86.2675 L1258.50666,86.985 C1258.50666,96.415 1265.57916,105.025 1284.13166,105.025 L1285.46416,105.025 Z M1290.28166,92.6225 C1282.49166,92.6225 1280.23666,89.3425 1280.23666,86.37 L1280.23666,86.2675 C1280.23666,83.09 1282.69666,82.065 1288.53916,81.1425 L1310.37166,77.76 L1310.37166,79.5025 C1310.37166,86.0625 1302.47916,92.6225 1290.28166,92.6225 Z" id="дизайнинтерьера" stroke="#000000" stroke-width="0.8" fill-opacity="0" fill="#000000" fill-rule="nonzero" mask="url(#mask-18)"></path> </g> </g> </g> </svg> 