<?xml version="1.0" encoding="UTF-8"?> <svg xmlns="http://www.w3.org/2000/svg" xmlns:xlink="http://www.w3.org/1999/xlink" width="106px" height="92px" viewBox="0 0 106 92"> <title>зонирование</title> <g id="Faculty" stroke="none" stroke-width="1" fill="none" fill-rule="evenodd"> <path d="M5.3483233,91.9458413 C6.3672784,91.8838855 7.43976768,91.6725715 8.34519708,91.1165933 C9.39113388,90.4685842 10.0960643,89.3612562 10.0359375,88.0291116 C9.99351229,86.9880971 9.58309907,86.0738169 8.69510067,85.5433974 C9.32513743,84.9206764 9.55248272,84.1972091 9.49432013,83.240639 C9.35733529,82.0175271 8.69358883,81.0560347 7.5144604,80.5433168 C6.71975724,80.1741998 5.58544749,80.0553226 4.6288774,80.1134851 C3.6931023,80.1703833 2.60108242,80.4037568 1.79583482,80.891028 C0.969792219,81.3795636 0.369401295,82.1465852 0.223407072,83.1781843 L2.26960357,83.5338222 C2.3274955,83.1128645 2.51900827,82.8298854 2.91973546,82.5550573 C3.35952385,82.2361104 4.0589675,82.0683507 4.74520257,82.0266253 C5.43143764,81.9849 6.10446413,82.0692091 6.62124584,82.3299934 C7.09390873,82.5517166 7.43365065,82.9902405 7.46273194,83.4685256 C7.49813526,84.0507856 7.31547332,84.4793297 6.54043609,84.7769171 C6.07100187,84.9515634 5.51080121,85.0064973 4.97013116,85.0393718 L3.90958605,85.1038564 L4.00947397,86.7466616 L5.07001908,86.682177 C5.67307414,86.6455093 6.2565986,86.630901 6.78532448,86.7448559 C7.54405979,86.8656974 7.94618672,87.3004281 7.99296967,88.0698432 C8.02837298,88.6521033 7.74300043,89.1077644 7.22129644,89.4525639 C6.69959245,89.7973634 5.9806182,89.9871826 5.23199812,90.0327011 C4.48337805,90.0782197 3.70511214,89.9794376 3.16627103,89.6991227 C2.71313873,89.4553402 2.41878003,89.0766724 2.28572372,88.6047093 L0.319749217,89.2251722 C0.629980636,90.2081594 1.20043185,91.0083494 2.27305646,91.4857993 C3.17552784,91.9109793 4.28777819,92.0103259 5.3483233,91.9458413 Z M18.9647992,90.341018 C20.6024895,90.0315543 21.943759,89.1632425 22.7147465,87.7454282 C23.4154544,86.4045005 23.5286272,84.9837767 23.2462415,83.4893843 C22.9715924,82.0359342 22.3605391,80.7096584 21.194506,79.7002746 C19.9836623,78.6781563 18.3566181,78.3707475 16.7598701,78.6724746 C15.1631221,78.9742018 13.7477046,79.898929 13.0265256,81.243725 C12.3385522,82.5398421 12.2165133,84.0258477 12.4988989,85.52024 C12.773548,86.9736902 13.3846014,88.2999659 14.5467662,89.2888786 C15.7576099,90.3109969 17.3680512,90.6427451 18.9647992,90.341018 Z M18.6089159,88.4576742 C17.6058306,88.6472207 16.590661,88.4362109 15.8948136,87.7832232 C15.178495,87.1341037 14.80084,86.1453619 14.6074252,85.1218055 C14.4140104,84.0982491 14.4009674,83.0194068 14.831032,82.1536628 C15.2406255,81.291787 16.1126681,80.745365 17.1157534,80.5558185 C18.1188387,80.3662719 19.13014,80.5568106 19.8464585,81.2059301 C20.5627771,81.8550495 20.9443004,82.8642624 21.1377152,83.8878189 C21.3311301,84.9113753 21.3403048,85.9697464 20.9102401,86.8354905 C20.4801755,87.7012345 19.6120012,88.2681276 18.6089159,88.4576742 Z M30.0409645,87.4604268 L28.4908438,82.7725485 L33.910585,80.9804257 L35.4607057,85.6683041 L37.3595931,85.0404071 L33.8276724,74.3591653 L31.928785,74.9870623 L33.2761474,79.0617582 L27.8564061,80.8538809 L26.5090438,76.779185 L24.5903763,77.4136226 L28.122297,88.0948644 L30.0409645,87.4604268 Z M43.2264368,82.6493576 L44.8741155,72.9606578 L48.3632592,80.1597082 L50.2005168,79.2692496 L45.2939085,69.1455851 L43.6816211,69.9270079 L41.9703383,79.484475 L38.5447987,72.4166573 L36.7075411,73.3071159 L41.6141495,83.4307805 L43.2264368,82.6493576 Z M58.6673787,80.1645933 L55.3839591,75.1925574 C56.5848182,75.4231513 57.822743,75.1049778 58.9353664,74.3702265 C60.2218372,73.5206704 61.0481045,72.2010702 61.1875105,70.7109028 C61.315436,69.2033505 60.7899577,67.8027309 59.974843,66.5684142 C59.1482479,65.3167129 58.0087274,64.2716603 56.6297567,63.8091606 C55.2219207,63.3407565 53.6605742,63.6228485 52.3914881,64.4609241 C51.2267105,65.2301168 50.4125797,66.4168713 50.1642731,67.7043262 L49.5213658,66.7307807 L48.026278,67.7181027 L56.9810588,81.2782007 L58.6673787,80.1645933 Z M57.7164665,72.9781352 C56.8646142,73.5406791 55.9104216,73.7214147 55.0159275,73.4632677 C54.0810877,73.1818317 53.2410439,72.3634368 52.6210976,71.4246607 C51.9896707,70.4685 51.5783412,69.3919581 51.6865859,68.4216928 C51.7541568,67.5032537 52.3239171,66.7025716 53.141,66.1629887 C54.0276218,65.5774838 55.0165839,65.3737871 55.9625762,65.7477231 C56.8163965,66.0576963 57.5757488,66.8295133 58.1842147,67.7509045 C58.7812001,68.6549111 59.2102423,69.6448573 59.1600561,70.5518159 C59.1325029,71.5686592 58.5335494,72.4385522 57.7164665,72.9781352 Z M70.1006906,65.9983801 C71.3580028,64.9043219 72.0772713,63.4775695 72.0268314,61.8644747 C71.954553,60.3532321 71.3348502,59.0697864 70.3365221,57.922489 C69.3655455,56.8066244 68.1684172,55.9703964 66.6522705,55.6879285 C65.0910152,55.4170957 63.5314053,55.9733239 62.3055259,57.0400306 C61.0796465,58.1067374 60.3248639,59.6196254 60.3814259,61.1445438 C60.4420692,62.610678 61.0870827,63.9549485 62.0854108,65.1022459 C63.0563875,66.2181105 64.2535158,67.0543385 65.7559868,67.32109 C67.317242,67.5919228 68.8748112,67.0650868 70.1006906,65.9983801 Z M68.8425237,64.552471 C68.07242,65.2225817 67.0896266,65.5530535 66.1592818,65.3407912 C65.2132206,65.1422047 64.3879866,64.4794661 63.7042003,63.693646 C63.0204139,62.9078259 62.4643994,61.9832078 62.3984568,61.0187805 C62.3167977,60.068029 62.7935892,59.1560503 63.5636929,58.4859396 C64.3337966,57.815829 65.3029142,57.4696408 66.2489754,57.6682273 C67.1950366,57.8668138 68.0339463,58.5452688 68.7177327,59.3310889 C69.4015191,60.1169091 69.9438578,61.0258107 70.0098005,61.990238 C70.0757431,62.9546653 69.6126274,63.8823604 68.8425237,64.552471 Z M81.1114145,54.6856089 C81.5683912,54.1719632 81.9338047,53.3537762 81.963547,52.5994568 C81.9829858,51.6686605 81.5872109,50.70308 80.8867849,50.0799301 C80.4198343,49.6644968 79.769428,49.3925831 79.1483248,49.3698197 C78.7313939,49.3056227 78.3351797,49.3435119 77.9129872,49.4419439 C77.9165315,49.2499021 77.8906631,49.0595776 77.8647946,48.869253 C77.7127985,48.287866 77.3860428,47.7461953 76.9190922,47.3307619 C76.2186662,46.707612 75.3329576,46.4494363 74.4245953,46.5614965 C73.5594936,46.6562744 72.7893895,47.1144192 72.1523917,47.8304102 L68.4982958,51.9689887 L76.8878425,59.4329406 L81.1114145,54.6856089 Z M75.7479117,51.0292467 L73.435333,53.6286053 L71.0694497,51.5237432 L73.3820284,48.9243846 C73.7420706,48.519694 74.1037203,48.3952837 74.5933246,48.4404811 C74.9791254,48.4769825 75.2835569,48.6362869 75.5481623,48.8716991 C75.8266154,49.0915463 76.0375469,49.4186314 76.1031317,49.7837155 C76.203281,50.2353208 76.0802584,50.6556862 75.7479117,51.0292467 Z M79.6619306,53.8700877 L77.030853,56.8274418 L74.6649697,54.7225797 L77.2129607,51.8586157 C77.6006984,51.4227951 77.8983707,51.2135808 78.4727789,51.194801 C78.8724276,51.2157374 79.2512496,51.385455 79.515855,51.6208672 C79.8115904,51.883975 80.0086741,52.2266251 80.0759761,52.621122 C80.1484299,53.1038573 79.9942773,53.4965272 79.6619306,53.8700877 Z M88.7397536,44.1844787 C88.8485574,43.400045 88.7232802,42.404426 88.3053085,41.6880193 L90.0745623,42.9022575 L91.0883922,41.4250165 L85.2653144,37.4286404 C84.7328205,37.0631901 84.0490967,36.7708255 83.2936289,36.6566332 C81.4307253,36.3888357 79.8746362,37.3675854 78.7075529,39.0681303 C77.7173005,40.5110168 77.3784407,42.0724724 77.9119243,43.651457 L78.1076039,44.1395013 L79.8954204,43.1176436 C79.8277233,42.9953796 79.7836035,42.8387612 79.7448723,42.7111087 C79.4791423,41.8465072 79.7048215,40.9654104 80.2471026,40.1752582 C80.666108,39.5279124 81.2568856,38.9984537 81.9476914,38.7650546 C82.5226335,38.5532095 83.1632492,38.6138467 83.7085435,38.8870107 L82.7401749,40.8502724 C81.9796265,42.4002692 81.3999558,43.3921712 81.2830583,44.7774777 C81.1971502,46.0071776 81.7077382,47.1408962 82.704017,47.8246419 C83.3911058,48.2961907 84.0307099,48.431937 84.8858759,48.4376774 C85.8976604,48.399298 87.0270022,47.7846351 87.7097362,46.8634654 C88.2863718,46.0968906 88.6397035,45.1770626 88.7397536,44.1844787 Z M86.3460057,45.5737882 C85.6696718,46.4488147 84.5056457,46.6353888 83.7444595,46.0877192 C82.57102,45.2571203 83.3325801,43.6320145 84.0523738,42.1045834 C84.5407699,41.0247719 84.867489,40.3646256 85.1470533,39.7731881 C85.7310788,40.1740046 86.2635726,40.5394549 86.6869328,41.2848275 C87.5538656,42.5620342 87.1991703,44.4411033 86.3460057,45.5737882 Z M94.3172348,35.9265526 L89.9196494,33.6814868 L92.5152108,28.5973585 L96.9127961,30.8424243 L97.8221899,29.0611239 L87.8023751,23.9457841 L86.8929813,25.7270845 L90.7153551,27.6784919 L88.1197938,32.7626202 L84.29742,30.8112128 L83.3785534,32.6110684 L93.3983682,37.7264082 L94.3172348,35.9265526 Z M100.323265,23.2199978 L94.6864529,15.1694015 L102.22799,17.8387971 L102.909242,15.9141341 L92.3039556,12.1602965 L91.7061222,13.8492865 L97.2054581,21.851222 L89.8013972,19.2304872 L89.1201452,21.1551502 L99.7254313,24.9089878 L100.323265,23.2199978 Z M104.656773,2.37835687 C104.418857,2.09378052 104.156246,1.82527412 103.868941,1.57283767 L102.619291,3.35272794 C102.760788,3.48913728 102.906596,3.60516439 103.064163,3.76626823 C103.697561,4.49652477 103.890771,5.49565815 103.67947,6.49438719 C103.47248,7.47273399 102.886853,8.32838309 102.011967,8.73953116 C101.301318,9.07895404 100.463289,9.11459751 99.6146806,8.99894084 L101.421524,0.458788514 C101.238084,0.419978025 101.058957,0.36078531 100.875517,0.321974821 C99.4487609,0.0201154597 97.924002,0.0808238743 96.5928572,0.736154291 C95.1790044,1.480459 94.2774359,2.82292319 93.9367661,4.43311898 C93.6004085,6.02293254 93.897079,7.64020327 94.8722588,8.86866212 C95.819611,10.0273497 97.1569881,10.6510124 98.6158838,11.0022608 C100.017945,11.3201901 101.522322,11.2551694 102.882473,10.5633868 C104.287702,9.85984655 105.177512,8.47230564 105.554634,6.89111663 C105.931756,5.30992762 105.64371,3.65189244 104.656773,2.37835687 Z M99.3542274,2.27863453 L98.0174216,8.59712432 C97.407134,8.36153262 96.8387901,8.02834207 96.4272376,7.55796738 C95.7734568,6.82339856 95.5845593,5.80388295 95.8119308,4.82984842 C96.0028501,3.82680711 96.5841648,2.99154024 97.4794331,2.58470445 C98.0462275,2.32131903 98.700817,2.24686508 99.3542274,2.27863453 Z" id="зонирование" fill="#000000" fill-rule="nonzero"></path> </g> </svg> 