<svg width="45" height="45" viewBox="0 0 45 45" fill="none" xmlns="http://www.w3.org/2000/svg">
<rect x="0.405762" y="0.136719" width="44" height="44" rx="22" fill="black"/>
<path d="M22.174 15.2744L22.706 15.9082L23.2062 16.4944L23.6743 17.0328L24.3161 17.7508L24.7036 18.1696L25.0587 18.5402L25.224 18.7075C25.8798 19.3633 26.9958 20.1576 28.5599 21.071L30.4213 22.1368L28.9019 23.0051C27.1576 24.0018 25.9267 24.8634 25.224 25.5661L25.0587 25.7334L24.7036 26.1041L24.3161 26.5228L23.8963 26.9895L23.4442 27.5041L22.9601 28.0664L22.444 28.6764L22.174 28.9992L20.6375 27.7189L21.4467 26.7588L21.9467 26.1783L22.4153 25.6452L22.8526 25.1596L23.2587 24.7211L23.4501 24.5196L23.8098 24.1519C24.1333 23.8284 24.5299 23.4905 25.0007 23.1369L15.4058 23.1368V21.1368L24.9997 21.136C24.6121 20.8448 24.2747 20.5642 23.9871 20.2936L23.8098 20.1217L23.4501 19.754L23.0595 19.3392L22.8526 19.1141L22.4153 18.6284L21.9467 18.0953L21.4467 17.5148L20.6375 16.5548L22.174 15.2744Z" fill="white"/>
</svg>
