<?xml version="1.0" encoding="UTF-8"?> <svg xmlns="http://www.w3.org/2000/svg" xmlns:xlink="http://www.w3.org/1999/xlink" width="163px" height="162px" viewBox="0 0 163 162"> <title>illustration</title> <g id="Faculty" stroke="none" stroke-width="1" fill="none" fill-rule="evenodd"> <g id="Faculty-1200-(3)-5" transform="translate(-597.000000, -270.000000)"> <g id="1" transform="translate(570.000000, 270.000000)"> <g id="illustration" transform="translate(28.000000, 0.000000)"> <path d="M0,90 L0,75 L17,75 L17,70 C17,66.6862915 19.6862915,64 23,64 L37,64 C40.3137085,64 43,66.6862915 43,70 L43,75 L113.467278,75 C109.262619,75 105.775525,71.7451121 105.486236,67.5504167 L104.147421,48.1376042 C104.071424,47.0356522 104.903125,46.080736 106.005077,46.0047393 L106.142682,46 L106.142682,46 L123.857318,46 C124.961888,46 125.857318,46.8954305 125.857318,48 L125.856133,48.0688429 L125.856133,48.0688429 L124.513764,67.5504167 C124.224475,71.7451121 120.737381,75 116.532722,75 L139.543241,75 C135.30743,75 131.805781,71.6982772 131.557046,67.4697762 L130.124556,43.117444 C130.059693,42.0147806 130.900997,41.0683138 132.00366,41.0034513 L132.062357,41 L152.878896,41 C153.933258,41 154.797061,41.8158778 154.87341,42.8507377 L154.878033,43.0587474 L154.878033,43.0587474 L153.442954,67.4697762 C153.194219,71.6982772 149.69257,75 145.456759,75 L161,75 L161,90 L155,90 L155,146 L5,146 L5,90 L0,90 Z M33,146 L30,161 L15,161 L12.5,146 L33,146 Z M149,146 L146,161 L131,161 L128.5,146 L149,146 Z M21.4017852,46.1168808 C20.784949,43.4252318 22.466917,40.7431746 25.158566,40.1263384 C25.5249277,40.0423805 25.899588,40 26.2754468,40 L33.7245532,40 C34.100412,40 34.4750723,40.0423805 34.841434,40.1263384 C37.4622501,40.7269421 39.1258272,43.2855011 38.64216,45.9044396 L38.5982148,46.1168808 L34.5,64 L25.5,64 L21.4017852,46.1168808 Z M48.3516533,0 C49.8646232,0 51.1408262,1.12660933 51.328487,2.6278958 L54.578487,28.6278958 C54.7839945,30.2719556 53.6178174,31.7713262 51.9737575,31.9768336 C51.8503231,31.9922629 51.7260484,32 51.6016533,32 L8.39834666,32 C6.74149241,32 5.39834666,30.6568542 5.39834666,29 C5.39834666,28.8756049 5.40608372,28.7513303 5.42151303,28.6278958 L8.67151303,2.6278958 C8.85917383,1.12660933 10.1353768,0 11.6483467,0 L48.3516533,0 Z" id="Shape" fill="#FFFFFF"></path> <g id="Group"> <path d="M106.142682,46 L123.857318,46 C124.961888,46 125.857318,46.8954305 125.857318,48 C125.857318,48.0459089 125.855738,48.0918041 125.852579,48.1376042 L124.513764,67.5504167 C124.224475,71.7451121 120.737381,75 116.532722,75 L113.467278,75 C109.262619,75 105.775525,71.7451121 105.486236,67.5504167 L104.147421,48.1376042 C104.071424,47.0356522 104.903125,46.080736 106.005077,46.0047393 C106.050878,46.0015807 106.096773,46 106.142682,46 Z" id="Rectangle" stroke="#000000" stroke-width="1.3"></path> <path d="M132.121104,41 L152.878896,41 C153.983465,41 154.878896,41.8954305 154.878896,43 C154.878896,43.0391734 154.877745,43.0783383 154.875444,43.117444 L153.442954,67.4697762 C153.194219,71.6982772 149.69257,75 145.456759,75 L139.543241,75 C135.30743,75 131.805781,71.6982772 131.557046,67.4697762 L130.124556,43.117444 C130.059693,42.0147806 130.900997,41.0683138 132.00366,41.0034513 C132.042766,41.0011509 132.081931,41 132.121104,41 Z" id="Rectangle-Copy-3" fill="#FFC27C"></path> <path d="M17,75 L17,70 C17,66.6862915 19.6862915,64 23,64 L37,64 C40.3137085,64 43,66.6862915 43,70 L43,75" id="Path" stroke="#000000" stroke-width="1.3"></path> <polygon id="Path-90" stroke="#000000" stroke-width="1.3" points="0 75 0 90 161 90 161 75"></polygon> <polyline id="Path-91" stroke="#000000" stroke-width="1.3" points="5 90 5 146 155 146 155 90"></polyline> <line x1="5" y1="118" x2="155" y2="118" id="Path-92" stroke="#000000" stroke-width="1.3"></line> <line x1="55" y1="118" x2="55" y2="146" id="Path-93" stroke="#000000" stroke-width="1.3"></line> <line x1="106" y1="118" x2="106" y2="146" id="Path-94" stroke="#000000" stroke-width="1.3"></line> <path d="M35,130.65 C35.3727922,130.65 35.7102922,130.801104 35.9545942,131.045406 C36.1988961,131.289708 36.35,131.627208 36.35,132 L36.35,132 L36.35,133 L24,133.35 L23.65,132 C23.65,131.627208 23.8011039,131.289708 24.0454058,131.045406 C24.2897078,130.801104 24.6272078,130.65 25,130.65 L25,130.65 Z" id="Rectangle" stroke="#000000" stroke-width="1.3"></path> <path d="M86,130.65 C86.3727922,130.65 86.7102922,130.801104 86.9545942,131.045406 C87.1988961,131.289708 87.35,131.627208 87.35,132 L87.35,132 L87.35,133 L75,133.35 L74.65,132 C74.65,131.627208 74.8011039,131.289708 75.0454058,131.045406 C75.2897078,130.801104 75.6272078,130.65 76,130.65 L76,130.65 L86,130.65 Z" id="Rectangle-Copy" stroke="#000000" stroke-width="1.3"></path> <path d="M86,95.65 C86.3727922,95.65 86.7102922,95.8011039 86.9545942,96.0454058 C87.1988961,96.2897078 87.35,96.6272078 87.35,97 L87.35,97 L87.35,98 L75,98.35 L74.65,97 C74.65,96.6272078 74.8011039,96.2897078 75.0454058,96.0454058 C75.2897078,95.8011039 75.6272078,95.65 76,95.65 L76,95.65 Z" id="Rectangle-Copy-4" stroke="#000000" stroke-width="1.3"></path> <path d="M135,130.65 C135.372792,130.65 135.710292,130.801104 135.954594,131.045406 C136.198896,131.289708 136.35,131.627208 136.35,132 L136.35,132 L136.35,133 L124,133.35 L123.65,132 C123.65,131.627208 123.801104,131.289708 124.045406,131.045406 C124.289708,130.801104 124.627208,130.65 125,130.65 L125,130.65 Z" id="Rectangle-Copy-2" stroke="#000000" stroke-width="1.3"></path> <path d="M12.5,146 L14.7214663,159.328798 C14.8821957,160.293174 15.7165759,161 16.6942542,161 L28.3603922,161 C29.3137542,161 30.1345839,160.327081 30.3215535,159.392232 L33,146 L33,146" id="Path-95" stroke="#000000" stroke-width="1.3"></path> <path d="M128.5,146 L130.721466,159.328798 C130.882196,160.293174 131.716576,161 132.694254,161 L144.360392,161 C145.313754,161 146.134584,160.327081 146.321554,159.392232 L149,146 L149,146" id="Path-95-Copy" stroke="#000000" stroke-width="1.3"></path> <path d="M25.5,64 L21.4017852,46.1168808 C20.784949,43.4252318 22.466917,40.7431746 25.158566,40.1263384 C25.5249277,40.0423805 25.899588,40 26.2754468,40 L30,40 L30,40" id="Path-96" stroke="#000000" stroke-width="1.3"></path> <path d="M35.5,64 L31.4017852,46.1168808 C30.784949,43.4252318 32.466917,40.7431746 35.158566,40.1263384 C35.5249277,40.0423805 35.899588,40 36.2754468,40 L40,40 L40,40" id="Path-96" stroke="#000000" stroke-width="1.3" transform="translate(35.000000, 52.000000) scale(-1, 1) translate(-35.000000, -52.000000) "></path> <line x1="30" y1="40" x2="30" y2="32" id="Path-97" stroke="#000000" stroke-width="1.3"></line> <path d="M11.6483467,0 L48.3516533,0 C49.8646232,1.49842879e-15 51.1408262,1.12660933 51.328487,2.6278958 L54.578487,28.6278958 C54.7839945,30.2719556 53.6178174,31.7713262 51.9737575,31.9768336 C51.8503231,31.9922629 51.7260484,32 51.6016533,32 L8.39834666,32 C6.74149241,32 5.39834666,30.6568542 5.39834666,29 C5.39834666,28.8756049 5.40608372,28.7513303 5.42151303,28.6278958 L8.67151303,2.6278958 C8.85917383,1.12660933 10.1353768,2.05428488e-15 11.6483467,0 Z" id="Rectangle" fill="#FFC27C"></path> </g> </g> </g> </g> </g> </svg> 