<svg width="229" height="229" viewBox="0 0 229 229" fill="none" xmlns="http://www.w3.org/2000/svg">
<path d="M205 84H9C4.02944 84 0 88.0294 0 93V220C0 224.971 4.02944 229 9 229H205C209.971 229 214 224.971 214 220V93C214 88.0294 209.971 84 205 84Z" fill="#7835FF"/>
<path d="M11 111H214" stroke="black" stroke-width="1.3"/>
<path d="M15.0004 100.85C16.8505 100.85 18.3504 99.3502 18.3504 97.5C18.3504 95.6499 16.8505 94.15 15.0004 94.15C13.1502 94.15 11.6504 95.6499 11.6504 97.5C11.6504 99.3502 13.1502 100.85 15.0004 100.85Z" fill="white" stroke="black" stroke-width="1.3"/>
<path d="M29.0004 100.85C30.8505 100.85 32.3504 99.3502 32.3504 97.5C32.3504 95.6499 30.8505 94.15 29.0004 94.15C27.1502 94.15 25.6504 95.6499 25.6504 97.5C25.6504 99.3502 27.1502 100.85 29.0004 100.85Z" fill="white" stroke="black" stroke-width="1.3"/>
<path d="M43.0004 100.85C44.8505 100.85 46.3504 99.3502 46.3504 97.5C46.3504 95.6499 44.8505 94.15 43.0004 94.15C41.1502 94.15 39.6504 95.6499 39.6504 97.5C39.6504 99.3502 41.1502 100.85 43.0004 100.85Z" fill="white" stroke="black" stroke-width="1.3"/>
<path d="M126.5 87.675C126.5 87.675 138.215 71.945 124.57 64.985C124.57 64.985 119.215 55.74 102.11 57.155C86.725 58.43 70.805 72.565 77.215 95.1C88.325 134.175 141.435 110.915 126.5 87.675Z" fill="black"/>
<path d="M78.2802 70.64C70.7525 70.64 64.6501 64.5376 64.6501 57.01C64.6501 49.4824 70.7525 43.38 78.2802 43.38C85.8078 43.38 91.9102 49.4824 91.9102 57.01C91.9102 64.5376 85.8078 70.64 78.2802 70.64Z" fill="black"/>
<path fill-rule="evenodd" clip-rule="evenodd" d="M159.025 167.77C159.025 167.77 172.517 160.036 188.575 152.649C205.278 144.948 212.145 142.65 218.63 140.138C224.533 137.879 231.669 138.52 225.085 146.239C215.989 156.931 214.955 148.652 208.353 156.901C201.252 165.763 181.711 182.184 170.679 184.698" fill="white"/>
<path d="M159.025 167.77C159.025 167.77 172.517 160.036 188.575 152.649C205.278 144.948 212.145 142.65 218.63 140.138C224.533 137.879 231.669 138.52 225.085 146.239C215.989 156.931 214.955 148.652 208.353 156.901C201.252 165.763 181.711 182.184 170.679 184.698" stroke="black" stroke-width="1.3" stroke-linecap="round" stroke-linejoin="round"/>
<path d="M163 165.535C163 165.535 143.685 129.88 140.71 126.14C139.628 124.778 137.254 122.832 135 122.5C127.511 121.397 116.816 127.445 120.71 141.235C124.615 155.075 141.62 184.49 146.795 189.13C151.97 193.77 161.795 194.51 170.075 189.535C175.595 186.218 184.006 180.518 195.31 172.435L183.78 153.14L163 165.535Z" fill="white" stroke="black" stroke-width="1.3"/>
<path d="M88.7652 121.57C91.3752 120.88 93.1752 118.945 93.3202 116.265L94.5002 94.59L114.96 96.045L115 114.385C115 117.48 117.43 119.47 120.5 119.885L126.075 120.725" fill="white"/>
<path d="M88.7652 121.57C91.3752 120.88 93.1752 118.945 93.3202 116.265L94.5002 94.59L114.96 96.045L115 114.385C115 117.48 117.43 119.47 120.5 119.885L126.075 120.725" stroke="black" stroke-width="1.3" stroke-linecap="round" stroke-linejoin="round"/>
<path fill-rule="evenodd" clip-rule="evenodd" d="M160 159.75C153.333 148.083 148.333 139.167 145 133C140 123.75 136.5 122.75 133.25 121.75C130 120.75 120.5 119.6 120.5 119.6C120.267 119.6 120.067 119.567 119.9 119.5C119.1 123.05 113 125.8 105.6 125.8C98.55 125.8 92.7 123.3 91.45 119.95C91.35 120 76.75 123 72.75 124.75C68.75 126.5 63.5 129 60.75 135" fill="white"/>
<path d="M160 159.75C153.333 148.083 148.333 139.167 145 133C140 123.75 136.5 122.75 133.25 121.75C130 120.75 120.5 119.6 120.5 119.6C120.267 119.6 120.067 119.567 119.9 119.5C119.1 123.05 113 125.8 105.6 125.8C98.55 125.8 92.7 123.3 91.45 119.95C91.35 120 76.75 123 72.75 124.75C68.75 126.5 63.5 129 60.75 135" stroke="black" stroke-width="1.3" stroke-linecap="round" stroke-linejoin="round"/>
<path d="M145.445 206.115L118.31 194.44L130.65 148.385L157.79 160.06L145.445 206.115Z" fill="white" stroke="black" stroke-width="1.3"/>
<path d="M145.445 206.115L159.71 199.155L172.05 153.1L157.79 160.06L145.445 206.115Z" fill="white" stroke="black" stroke-width="1.3"/>
<path fill-rule="evenodd" clip-rule="evenodd" d="M102.5 175.25C109.267 175.236 115.972 175.1 118.325 174.7C124.175 173.75 137.975 164.05 141.075 171.7C142.475 175.15 140.675 182.05 137.025 184.8C132.425 188.3 119.575 187.8 119.575 187.8C119.575 187.8 114.531 191.697 107.25 196.25" fill="white"/>
<path d="M102.5 175.25C109.267 175.236 115.972 175.1 118.325 174.7C124.175 173.75 137.975 164.05 141.075 171.7C142.475 175.15 140.675 182.05 137.025 184.8C132.425 188.3 119.575 187.8 119.575 187.8C119.575 187.8 114.531 191.697 107.25 196.25" stroke="black" stroke-width="1.3" stroke-linejoin="round"/>
<path d="M82.255 155.56C81.1716 161.147 79.8998 167.931 78.4395 175.913C78.1414 177.543 79.2209 179.106 80.8507 179.404C81.2322 179.474 81.6235 179.469 82.0031 179.39L102.45 175.125L107.335 196.335C89.335 201.668 76.5116 204.335 68.865 204.335C57.395 204.335 50.735 199.915 50.865 188.42C50.9651 179.566 52.133 148.423 60.9482 134.577" fill="white"/>
<path d="M82.255 155.56C81.1716 161.147 79.8998 167.931 78.4395 175.913C78.1414 177.543 79.2209 179.106 80.8507 179.404C81.2322 179.474 81.6235 179.469 82.0031 179.39L102.45 175.125L107.335 196.335C89.335 201.668 76.5116 204.335 68.865 204.335C57.395 204.335 50.735 199.915 50.865 188.42C50.9651 179.566 52.133 148.423 60.9482 134.577" stroke="black" stroke-width="1.3"/>
<path d="M127.645 94.5C127.645 94.5 131.795 93.805 132.33 87.56C132.83 81.965 128.285 81.74 125.83 83.72L127.645 94.5Z" fill="white" stroke="black" stroke-width="1.3"/>
<path d="M94.9043 88.09C94.9043 88.09 87.4593 79.88 84.5093 86.305C82.5943 90.48 85.1493 98.255 91.6793 97.12C92.1393 102.51 94.9293 108.685 101.899 113.405C112.014 120.26 127.284 118.57 128.929 97.835C130.039 83.9 125.764 71.645 125.764 71.645C125.764 71.645 114.829 88.675 94.9043 88.09Z" fill="white" stroke="black" stroke-width="1.3"/>
<path d="M122.522 93.1523C122.522 95.105 123.213 96.6509 124.058 96.6509C124.902 96.6509 125.593 95.0237 125.517 93.1523C125.517 91.1997 124.826 89.6538 123.981 89.6538C123.137 89.5724 122.522 91.1997 122.522 93.1523Z" fill="black"/>
<path d="M109.022 95.1523C109.022 97.105 109.713 98.6509 110.558 98.6509C111.402 98.6509 112.093 97.0237 112.017 95.1523C112.017 93.1997 111.326 91.6538 110.481 91.6538C109.637 91.5724 109.022 93.1997 109.022 95.1523Z" fill="black"/>
<path d="M95.5449 90C95.5449 90 94.7449 87.74 93.2349 86.625" stroke="black" stroke-width="1.3" stroke-linecap="round" stroke-linejoin="round"/>
<path d="M92.4422 1C83.3609 1.00169 76 8.38019 76 17.4814C76 26.5822 83.3614 33.9598 92.4422 33.9598H104.447L110.173 41.4L115.697 33.9598H181.955C186.316 33.9606 190.499 32.2249 193.583 29.1345C196.667 26.0441 198.4 21.8523 198.4 17.4814C198.4 8.37899 191.037 1 181.955 1H92.4422Z" fill="white" stroke="black" stroke-width="1.3" stroke-linecap="round" stroke-linejoin="round"/>
<path fill-rule="evenodd" clip-rule="evenodd" d="M93.8044 22.488L88.3968 25.3309L89.4295 19.3095L85.0547 15.045L91.1006 14.1665L93.8044 8.68799L96.5082 14.1665L102.554 15.045L98.1793 19.3095L99.212 25.3309L93.8044 22.488Z" fill="#7835FF"/>
<path fill-rule="evenodd" clip-rule="evenodd" d="M115.404 22.488L109.996 25.3309L111.029 19.3095L106.654 15.045L112.7 14.1665L115.404 8.68799L118.108 14.1665L124.154 15.045L119.779 19.3095L120.812 25.3309L115.404 22.488Z" fill="#7835FF"/>
<path fill-rule="evenodd" clip-rule="evenodd" d="M137.004 22.488L131.596 25.3309L132.629 19.3095L128.254 15.045L134.3 14.1665L137.004 8.68799L139.707 14.1665L145.753 15.045L141.378 19.3095L142.411 25.3309L137.004 22.488Z" fill="#7835FF"/>
<path fill-rule="evenodd" clip-rule="evenodd" d="M158.604 22.488L153.197 25.3309L154.229 19.3095L149.854 15.045L155.9 14.1665L158.604 8.68799L161.308 14.1665L167.354 15.045L162.979 19.3095L164.012 25.3309L158.604 22.488Z" fill="#7835FF"/>
<path fill-rule="evenodd" clip-rule="evenodd" d="M180.204 22.488L174.796 25.3309L175.829 19.3095L171.454 15.045L177.5 14.1665L180.204 8.68799L182.908 14.1665L188.954 15.045L184.579 19.3095L185.611 25.3309L180.204 22.488Z" fill="#7835FF"/>
</svg>
