<?xml version="1.0" encoding="UTF-8"?> <svg xmlns="http://www.w3.org/2000/svg" xmlns:xlink="http://www.w3.org/1999/xlink" width="300px" height="187px" viewBox="0 0 300 187"> <title>1</title> <defs> <rect id="path-1" x="0" y="0" width="300" height="187" rx="19"></rect> <rect id="path-3" x="0" y="0" width="96.3" height="65.25" rx="4.05"></rect> </defs> <g id="Main" stroke="none" stroke-width="1" fill="none" fill-rule="evenodd"> <g id="1"> <mask id="mask-2" fill="white"> <use xlink:href="#path-1"></use> </mask> <use id="Rectangle" fill="#B1FDEB" xlink:href="#path-1"></use> <g id="illustration-1" mask="url(#mask-2)"> <g transform="translate(216.000000, -1.000000)"> <g id="Group-11" transform="translate(0.000000, 37.350000)"> <g id="Group-6"> <mask id="mask-4" fill="white"> <use xlink:href="#path-3"></use> </mask> <use id="Rectangle" fill="#7835FF" xlink:href="#path-3"></use> <g id="Group-7" mask="url(#mask-4)" fill-rule="nonzero"> <g transform="translate(26.775000, 16.316318)"> <path d="M2.72025,10.1549325 C-2.10375,25.6529325 10.7415,21.6771825 0.99675,50.6549325 C0.671192772,51.6238219 0.225,53.2086825 -1.27897692e-14,54.1086825 C0.45,54.1086825 3.02959002,54.0861825 4.176,54.0861825 L34.956,54.0861825 C37.1917966,54.0861825 37.8,54.1086825 39.15,54.1086825 C39.356668,53.4985418 38.620053,51.128482 38.4255,50.4524325 C30.474,22.7504325 40.30875,22.0574325 41.445,9.9254325 C42.201,1.8366825 29.664,0.662182499 29.664,0.662182499 L13.1535,0.0005764965 C11.0855718,-0.00659433518 9.03343235,0.360839246 7.0965,1.0851825" id="Path" stroke="none" fill="#FFFFFF" transform="translate(20.738933, 27.054341) scale(-1, 1) translate(-20.738933, -27.054341) "></path> <path d="M4.97025,10.1549325 C0.14625,25.6529325 11.99475,25.1309325 2.25,54.1086825 M41.4,54.1086825 C39.9439519,49.0359989 38.3598039,41.2127183 37.9339353,37.7152636" id="Shape" stroke="#000000" stroke-width="0.585" fill="none" transform="translate(21.825000, 32.131807) scale(-1, 1) translate(-21.825000, -32.131807) "></path> </g> </g> </g> <line x1="4.95" y1="12.15" x2="96.3" y2="12.15" id="Path-8" stroke="#000000" stroke-width="0.585"></line> <g id="Group-10" transform="translate(4.950000, 4.275000)" fill="#FFFFFF" stroke="#000000" stroke-width="0.585"> <circle id="Oval" cx="1.8" cy="1.8" r="1.5075"></circle> <circle id="Oval-Copy-3" cx="8.1" cy="1.8" r="1.5075"></circle> <circle id="Oval-Copy-4" cx="14.4" cy="1.8" r="1.5075"></circle> </g> </g> <g id="Group-4" transform="translate(62.825000, 55.900000) scale(-1, 1) translate(-62.825000, -55.900000) translate(22.825000, 18.900000)"> <path d="M45.9,20.10375 C45.9,20.10375 40.62825,13.02525 46.7685,9.89325 C46.7685,9.89325 49.17825,5.733 56.8755,6.36975 C63.79875,6.9435 70.96275,13.30425 68.07825,23.445 C63.07875,41.02875 39.17925,30.56175 45.9,20.10375 Z" id="Path" fill="#000000" fill-rule="nonzero"></path> <circle id="Oval" fill="#000000" fill-rule="nonzero" cx="67.599" cy="6.3045" r="6.1335"></circle> <path d="M3.85172236,60.7335814 C3.85172236,60.7335814 8.45890949,55.4663449 14.2091011,49.9708615 C20.1878935,44.2471312 22.772842,42.2631388 25.164359,40.2440314 C27.3448598,38.4180561 30.4749335,37.6455281 28.8043885,41.8944322 C26.500795,47.7761796 24.8478347,44.4051483 23.2476285,48.8822993 C21.5243295,53.693042 15.6158757,63.5427742 11.2900436,66.2290648" id="Path" stroke="#000000" stroke-width="0.585" fill="#FFFFFF" stroke-linecap="round" stroke-linejoin="round" transform="translate(16.564222, 52.504065) scale(-1, 1) rotate(19.000000) translate(-16.564222, -52.504065) "></path> <path d="M29.475,55.14075 C29.475,55.14075 38.16675,39.096 39.5055,37.413 C39.9922073,36.8003214 41.0606892,35.9244538 42.075,35.775 C45.4449598,35.2784528 50.2574404,38.0004566 48.5055,44.20575 C46.74825,50.43375 39.096,63.6705 36.76725,65.7585 C34.4385,67.8465 30.01725,68.1795 26.29125,65.94075 C23.80725,64.44825 20.022,61.88325 14.9355,58.24575 L20.124,49.563 L29.475,55.14075 Z" id="Path" stroke="#000000" stroke-width="0.585" fill="#FFFFFF" fill-rule="nonzero"></path> <path d="M62.88075,35.3565 C61.70625,35.046 60.89625,34.17525 60.831,32.96925 L60.3,23.2155 L51.093,23.87025 L51.075,32.12325 C51.075,33.516 49.9815,34.4115 48.6,34.59825 L46.09125,34.97625" id="Path" stroke="#000000" stroke-width="0.585" fill="#FFFFFF" fill-rule="nonzero" stroke-linecap="round" stroke-linejoin="round"></path> <path d="M30.825,52.5375 C33.825,47.2875 36.075,43.275 37.575,40.5 C39.825,36.3375 41.4,35.8875 42.8625,35.4375 C44.325,34.9875 48.6,34.47 48.6,34.47 C48.705,34.47 48.795,34.455 48.87,34.425 C49.23,36.0225 51.975,37.26 55.305,37.26 C58.4775,37.26 61.11,36.135 61.6725,34.6275 C61.7175,34.65 68.2875,36 70.0875,36.7875 C71.8875,37.575 74.25,38.7 75.4875,41.4" id="Path" stroke="#000000" stroke-width="0.585" fill="#FFFFFF" stroke-linecap="round" stroke-linejoin="round"></path> <polygon id="Path" stroke="#000000" stroke-width="0.585" fill="#FFFFFF" fill-rule="nonzero" points="37.37475 73.40175 49.5855 68.148 44.0325 47.42325 31.8195 52.677"></polygon> <polygon id="Path" stroke="#000000" stroke-width="0.585" fill="#FFFFFF" fill-rule="nonzero" points="37.37475 73.40175 30.9555 70.26975 25.4025 49.545 31.8195 52.677"></polygon> <path d="M39.1275,59.5125 C42.1726476,59.5062367 45.1899723,59.4448241 46.2489365,59.265 C48.8814365,58.8375 55.0914365,54.4725 56.4864365,57.915 C57.1164365,59.4675 56.3064365,62.5725 54.6639365,63.81 C52.5939365,65.385 46.8114365,65.16 46.8114365,65.16 C46.8114365,65.16 44.5414987,66.9137083 41.265,68.9625" id="Path" stroke="#000000" stroke-width="0.585" fill="#FFFFFF" stroke-linejoin="round" transform="translate(47.913750, 62.782142) scale(-1, 1) translate(-47.913750, -62.782142) "></path> <path d="M65.81025,50.652 C66.2977705,53.1659762 66.8700852,56.2189632 67.5271942,59.810961 C67.6613701,60.5443767 67.1755837,61.2476942 66.4421666,61.3818633 C66.2705129,61.4132651 66.0943992,61.4110899 65.9235733,61.3754582 L56.7225,59.45625 L56.7225,59.45625 L54.52425,69.00075 C62.62425,71.40075 68.39475,72.60075 71.83575,72.60075 C76.99725,72.60075 79.99425,70.61175 79.93575,65.439 C79.8906927,61.4548948 79.3651241,47.4401159 75.3982861,41.2095852" id="Path" stroke="#000000" stroke-width="0.585" fill="#FFFFFF" fill-rule="nonzero"></path> <path d="M45.38475,23.175 C45.38475,23.175 43.51725,22.86225 43.2765,20.052 C43.0515,17.53425 45.09675,17.433 46.2015,18.324 L45.38475,23.175 Z" id="Path" stroke="#000000" stroke-width="0.585" fill="#FFFFFF" fill-rule="nonzero"></path> <path d="M60.11775,20.2905 C60.11775,20.2905 63.468,16.596 64.7955,19.48725 C65.65725,21.366 64.5075,24.86475 61.569,24.354 C61.362,26.7795 60.1065,29.55825 56.97,31.68225 C52.41825,34.767 45.54675,34.0065 44.8065,24.67575 C44.307,18.405 46.23075,12.89025 46.23075,12.89025 C46.23075,12.89025 51.1515,20.55375 60.11775,20.2905 Z" id="Path" stroke="#000000" stroke-width="0.585" fill="#FFFFFF" fill-rule="nonzero"></path> <path d="M47.6896054,22.5685625 C47.6896054,23.4472649 47.3786731,24.1429044 46.9986447,24.1429044 C46.6186163,24.1429044 46.307684,23.4106523 46.3422321,22.5685625 C46.3422321,21.68986 46.6531644,20.9942205 47.0331927,20.9942205 C47.4132211,20.9576079 47.6896054,21.68986 47.6896054,22.5685625 L47.6896054,22.5685625 Z" id="Path" fill="#000000" fill-rule="nonzero"></path> <path d="M53.7646054,23.4685625 C53.7646054,24.3472649 53.4536731,25.0429044 53.0736447,25.0429044 C52.6936163,25.0429044 52.382684,24.3106523 52.4172321,23.4685625 C52.4172321,22.58986 52.7281644,21.8942205 53.1081927,21.8942205 C53.4882211,21.8576079 53.7646054,22.58986 53.7646054,23.4685625 L53.7646054,23.4685625 Z" id="Path-Copy" fill="#000000" fill-rule="nonzero"></path> <path d="M59.82975,21.15 C59.82975,21.15 60.18975,20.133 60.86925,19.63125" id="Path" stroke="#000000" stroke-width="0.585" stroke-linecap="round" stroke-linejoin="round"></path> </g> <g id="Group-5" transform="translate(34.200000, 0.000000)"> <path d="M7.39898514,0 C3.31241657,0.000759281551 0,3.32108332 0,7.41664801 C0,11.5119902 3.31263848,14.831921 7.39898514,14.831921 L12.8012527,14.831921 L15.3777953,18.18 L17.8637884,14.831921 L47.6796429,14.831921 C49.6422135,14.8322858 51.5245268,14.051197 52.9124024,12.660524 C54.300278,11.2698511 55.08,9.38353895 55.08,7.41664801 C55.08,3.32054642 51.7667473,0 47.6796429,0 L7.39898514,0 Z" id="Path" stroke="#000000" stroke-width="0.585" fill="#FFFFFF" fill-rule="nonzero" stroke-linecap="round" stroke-linejoin="round"></path> <polygon id="Star" fill="#7835FF" points="8.0118 9.6696 5.57836906 10.9489304 6.04311301 8.23926518 4.07442602 6.32026964 6.79508453 5.92493482 8.0118 3.4596 9.22851547 5.92493482 11.949174 6.32026964 9.98048699 8.23926518 10.4452309 10.9489304"></polygon> <polygon id="Star-Copy" fill="#7835FF" points="17.7318 9.6696 15.2983691 10.9489304 15.763113 8.23926518 13.794426 6.32026964 16.5150845 5.92493482 17.7318 3.4596 18.9485155 5.92493482 21.669174 6.32026964 19.700487 8.23926518 20.1652309 10.9489304"></polygon> <polygon id="Star-Copy-2" fill="#7835FF" points="27.4518 9.6696 25.0183691 10.9489304 25.483113 8.23926518 23.514426 6.32026964 26.2350845 5.92493482 27.4518 3.4596 28.6685155 5.92493482 31.389174 6.32026964 29.420487 8.23926518 29.8852309 10.9489304"></polygon> <polygon id="Star-Copy-3" fill="#7835FF" points="37.1718 9.6696 34.7383691 10.9489304 35.203113 8.23926518 33.234426 6.32026964 35.9550845 5.92493482 37.1718 3.4596 38.3885155 5.92493482 41.109174 6.32026964 39.140487 8.23926518 39.6052309 10.9489304"></polygon> <polygon id="Star-Copy-4" fill="#7835FF" points="46.8918 9.6696 44.4583691 10.9489304 44.923113 8.23926518 42.954426 6.32026964 45.6750845 5.92493482 46.8918 3.4596 48.1085155 5.92493482 50.829174 6.32026964 48.860487 8.23926518 49.3252309 10.9489304"></polygon> </g> </g> </g> </g> </g> </svg> 