<?xml version="1.0" encoding="UTF-8"?> <svg xmlns="http://www.w3.org/2000/svg" xmlns:xlink="http://www.w3.org/1999/xlink" width="300px" height="217px" viewBox="0 0 300 217"> <title>2</title> <defs> <rect id="path-1" x="0" y="0" width="300" height="217" rx="19"></rect> </defs> <g id="Main" stroke="none" stroke-width="1" fill="none" fill-rule="evenodd"> <g id="Group-2-Copy" transform="translate(0.000000, -203.000000)"> <g id="2" transform="translate(0.000000, 203.000000)"> <mask id="mask-2" fill="white"> <use xlink:href="#path-1"></use> </mask> <use id="Rectangle" fill="#B1FDEB" xlink:href="#path-1"></use> <g id="illustration-2" mask="url(#mask-2)"> <g transform="translate(207.000000, 11.000000)" id="Group"> <g transform="translate(35.856000, 40.410000)"> <g fill-rule="nonzero" id="Path"> <path d="M84.98736,54.27648 L12.84336,54.27648 C10.73088,54.27648 8.7156,52.5636 8.34192,50.45112 L0.1512,3.98952 C-0.22248,1.87704 1.188,0.16416 3.30264,0.16416 L75.44664,0.16416 C77.56128,0.16416 79.57656,1.87704 79.94808,3.98952 L88.14096,50.45112 C88.51248,52.5636 87.09984,54.27648 84.98736,54.27648 Z" fill="#7835FF"></path> <g transform="translate(33.696000, 34.344000)"> <path d="M16.2648,31.32 L22.08168,0.05616 L7.70688,0.05616 L1.95912,31.212 C1.66910684,32.7817909 2.09199332,34.3992644 3.11321614,35.6262342 C4.13443897,36.853204 5.6482845,37.5624001 7.24464,37.5624001 L27.5832,37.5624001 L27.5832,35.89272 L20.07504,35.89272 C18.9254596,35.8922822 17.8354148,35.3814485 17.0995123,34.4982821 C16.3636099,33.6151158 16.0578242,32.4507945 16.2648,31.32 L16.2648,31.32 Z" fill="#7835FF"></path> <g fill="#FFFFFF"> <path d="M5.51016,37.3464001 C3.97753467,37.3464001 2.52403984,36.6658672 1.54304118,35.488335 C0.562042523,34.3108028 0.15497314,32.7582607 0.432,31.25088 L6.14952,0.26136 L7.71552,0.26136 L1.944,31.27032 C1.72189444,32.4656637 2.04296293,33.6978667 2.82015107,34.6328299 C3.59733921,35.5677931 4.75011675,36.108638 5.96592,36.10872 L13.26024,36.10872 L13.26024,37.3464001 L5.51016,37.3464001 Z"></path> <path d="M7.9704,0.054 L5.96376,0.054 L0.216,31.212 C-0.0732754524,32.7820403 0.350181381,34.3994358 1.37172198,35.626286 C2.39326258,36.8531363 3.90721307,37.5624 5.50368,37.5624 L27.423,37.521 L27.423,35.85132 L5.97024,35.89272 C4.82039383,35.8930514 3.72985223,35.3824298 2.99377966,34.4990593 C2.25770709,33.6156887 1.9522196,32.4509172 2.16,31.32 L7.97688,0.05616 L7.9704,0.054 Z" stroke="#000000" stroke-width="0.585"></path> </g> </g> <path d="M87.33744,54.27648 L15.19344,54.27648 C13.08096,54.27648 11.06568,52.5636 10.69416,50.45112 L2.5056,3.98952 C2.13192,1.87704 3.5424,0.16416 5.65704,0.16416 L77.80104,0.16416 C79.91352,0.16416 81.9288,1.87704 82.30032,3.98952 L90.4932,50.45112 C90.86256,52.5636 89.44992,54.27648 87.33744,54.27648 Z" stroke="#000000" stroke-width="0.585" fill="#FFFFFF" stroke-linecap="round" stroke-linejoin="round"></path> </g> <g transform="translate(9.072000, 7.128000)" fill-rule="nonzero" id="Path"> <path d="M40.5324,25.78824 L6.16248,25.78824 C5.11209913,25.7504724 4.22528912,24.9959687 4.01976,23.9652 L0.11664,1.82952 C0.0122671057,1.37871335 0.123523968,0.90500646 0.417670829,0.547797898 C0.711817689,0.190589336 1.15538374,-0.00947432852 1.61784,0.00648 L35.9856,0.00648 C37.036497,0.0440483707 37.9240394,0.798414662 38.13048,1.82952 L42.0336,23.976 C42.134066,24.4252382 42.0209866,24.8956828 41.7273275,25.2501863 C41.4336685,25.6046898 40.9924872,25.8033456 40.5324,25.78824 L40.5324,25.78824 Z" fill="#7835FF"></path> <path d="M18.12888,16.25184 L16.77888,9.5796 C16.67952,9.0936 17.22168,8.7696 17.76168,8.99424 L25.35408,12.15216 C25.90704,12.38112 26.03448,13.01616 25.58088,13.26456 L19.33632,16.78104 C19.1081994,16.8925727 18.8425653,16.8981089 18.6099958,16.7961777 C18.3774263,16.6942466 18.2014707,16.4951692 18.12888,16.25184 L18.12888,16.25184 Z" fill="#FFFFFF"></path> </g> <g transform="translate(14.040000, 36.072000)"> <g fill-rule="nonzero"> <ellipse id="Oval" stroke="#000000" stroke-width="0.585" fill="#FFFFFF" stroke-linecap="round" stroke-linejoin="round" transform="translate(5.254316, 5.360140) rotate(-47.520000) translate(-5.254316, -5.360140) " cx="5.25431619" cy="5.3601399" rx="3.34152" ry="3.9852"></ellipse> <ellipse id="Oval" fill="#000000" transform="translate(5.171177, 4.898989) rotate(-47.520000) translate(-5.171177, -4.898989) " cx="5.17117681" cy="4.89898914" rx="1.35" ry="1.6092"></ellipse> <path d="M5.8968,9.01152 C6.84790983,9.03650082 7.75531735,8.61240383 8.34624,7.86672 C7.64889349,6.95625736 6.57873469,6.40808854 5.4324,6.37416 C4.40628762,6.33821567 3.46108021,6.92875664 3.04344,7.86672 C3.82351787,8.58289596 4.83804431,8.98993534 5.8968,9.01152 Z" id="Path" fill="#000000"></path> </g> <g transform="translate(11.448000, 3.672000)" id="Path" stroke="#000000" stroke-linecap="round" stroke-linejoin="round" stroke-width="0.585"> <line x1="0.16632" y1="0.216" x2="25.96104" y2="0.216"></line> <line x1="0.68688" y1="3.1644" x2="15.22152" y2="3.1644"></line> </g> </g> </g> <g transform="translate(87.480000, 47.538000)" fill-rule="nonzero" id="Path"> <path d="M12.3444,7.83432 L1.90944,7.83432 C1.59142436,7.82236906 1.32326234,7.59353747 1.26144,7.28136 L0.0756,0.55944 C0.0439330476,0.422630018 0.0777345196,0.278874708 0.167049542,0.170511458 C0.256364564,0.0621482085 0.391020567,0.00151909411 0.53136,0.00648 L10.96632,0.00648 C11.2837307,0.0199757021 11.5510673,0.24810287 11.61432,0.55944 L12.798,7.28136 C12.8295555,7.41778973 12.7960134,7.56113895 12.7072021,7.66940421 C12.6183907,7.77766947 12.4843663,7.83859178 12.3444,7.83432 L12.3444,7.83432 Z" fill="#000000"></path> <path d="M5.54256,4.93992 L5.13216,2.91384 C5.10192,2.7648 5.26824,2.6676 5.43024,2.73456 L7.73712,3.6936 C7.9056,3.76488 7.94232,3.95496 7.80408,4.03272 L5.90976,5.09976 C5.84049822,5.1334355 5.759971,5.13512659 5.68935652,5.10438853 C5.61874205,5.07365046 5.56510806,5.01355979 5.54256,4.93992 L5.54256,4.93992 Z" fill="#FFFFFF"></path> </g> <g transform="translate(89.424000, 58.338000)" fill="#000000" fill-rule="nonzero" id="Path"> <path d="M12.28824,7.83 L1.85112,7.83 C1.53340776,7.81727283 1.26566119,7.58879575 1.20312,7.27704 L0.01728,0.55512 C-0.0143869524,0.418310018 0.0194145196,0.274554708 0.108729542,0.166191458 C0.198044564,0.0578282085 0.332700567,-0.00280090589 0.47304,0.00216 L10.908,0.00216 C11.2260156,0.0141109412 11.4941777,0.24294253 11.556,0.55512 L12.744,7.27704 C12.775667,7.41384998 12.7418655,7.55760529 12.6525505,7.66596854 C12.5632354,7.77433179 12.4285794,7.83496091 12.28824,7.83 Z"></path> </g> <g transform="translate(91.152000, 68.922000)" fill="#000000" fill-rule="nonzero" id="Path"> <path d="M12.44592,8.04168 L2.01096,8.04168 C1.69258936,8.02872581 1.42462544,7.79917006 1.36296,7.48656 L0.17712,0.7668 C0.145589991,0.629789587 0.179373539,0.485903139 0.268585511,0.377242112 C0.357797482,0.268581085 0.492352684,0.207429341 0.63288,0.21168 L11.07,0.21168 C11.3883706,0.224634186 11.6563346,0.454189939 11.718,0.7668 L12.90384,7.48656 C12.9354808,7.62395065 12.9014376,7.76824269 12.8117222,7.87700148 C12.7220068,7.98576027 12.5868204,8.04661906 12.44592,8.04168 Z"></path> </g> <g transform="translate(27.450000, 0.000000)"> <path d="M88.15176,17.064 L5.12136,17.064 C3.78884828,17.0168066 2.66334953,16.0602668 2.40192,14.7528 L0.216,2.33712 C5.55111512e-17,1.06056 0.8424,0.02592 2.11896,0.02592 L85.14936,0.02592 C86.4818717,0.0731134032 87.6073705,1.02965325 87.8688,2.33712 L90.05688,14.74848 C90.288,16.02504 89.424,17.064 88.15176,17.064 Z" id="Path" fill="#7835FF" fill-rule="nonzero"></path> <path d="M18.22608,13.608 L7.70688,13.608 C7.03147438,13.5849122 6.46075805,13.1000717 6.3288,12.43728 L4.9572,4.66128 C4.88978155,4.3718492 4.96098502,4.06752949 5.1498149,3.83805462 C5.33864477,3.60857975 5.62356423,3.48012226 5.92056,3.49056 L16.44192,3.49056 C17.1162033,3.51540966 17.6853488,3.9996747 17.81784,4.66128 L19.1916,12.43728 C19.2591332,12.7270921 19.1876711,13.0318206 18.9983363,13.2613943 C18.8090015,13.4909681 18.5234483,13.6191307 18.22608,13.608 L18.22608,13.608 Z" id="Path" stroke="#000000" stroke-width="0.585" fill="#FFFFFF" fill-rule="nonzero"></path> <g transform="translate(8.424000, 6.048000)" fill="#000000" fill-rule="nonzero"> <path d="M3.51216,2.9052 C3.62448,3.546 3.5784,4.03632 3.37392,4.37616 C3.16944,4.716 2.80944,4.8852 2.29392,4.88376 C1.82696822,4.8991359 1.37493429,4.71816564 1.0476,4.3848 C0.688984633,3.98430588 0.458743602,3.48545032 0.38664,2.95272 L0.23544,2.10168 C0.12024,1.45368 0.16776,0.96264 0.378,0.62856 C0.58824,0.29448 0.94824,0.12672 1.458,0.12528 C1.92430333,0.109980234 2.37564141,0.29098561 2.70216,0.62424 C3.06105837,1.02394928 3.29202122,1.52198644 3.36528,2.05416 L3.51216,2.9052 Z M2.43216,1.96776 C2.39560589,1.66855984 2.2906551,1.38179289 2.12544,1.12968 C1.99994438,0.959287555 1.79915415,0.860908408 1.5876,0.86616 C1.40502166,0.849552954 1.23184575,0.949994981 1.1556,1.11672 C1.07717151,1.37034896 1.06822041,1.64037387 1.12968,1.89864 L1.3284,3.02616 C1.36633256,3.32570759 1.46956219,3.61327584 1.6308,3.86856 C1.75522385,4.04495416 1.95931478,4.14780951 2.17512,4.14288 C2.36188965,4.16171686 2.53839928,4.05404598 2.60712,3.87936 C2.67938588,3.61481065 2.68458247,3.33642204 2.62224,3.06936 L2.43216,1.96776 Z" id="Shape"></path> <polygon id="Path" points="6.696 4.82112 5.77584 4.82112 5.1516 1.27656 4.1148 1.61784 3.98304 0.87048 5.78016 0.1836 5.87736 0.1836"></polygon> </g> <line x1="23.52672" y1="6.15816" x2="74.25432" y2="6.15816" id="Path" stroke="#000000" stroke-width="0.585" stroke-linecap="round" stroke-linejoin="round"></line> <line x1="24.35832" y1="10.86912" x2="48.1896" y2="10.86912" id="Path" stroke="#000000" stroke-width="0.585" stroke-linecap="round" stroke-linejoin="round"></line> </g> <g transform="translate(0.000000, 20.106000)"> <path d="M88.128,17.0856 L5.09112,17.0856 C3.76019433,17.0346668 2.63761174,16.0781943 2.376,14.77224 L0.18792,2.36304 C-0.02808,1.08648 0.81648,0.05184 2.09304,0.05184 L85.12344,0.05184 C86.4559517,0.0990334032 87.5814505,1.05557325 87.84288,2.36304 L90.03096,14.77224 C90.25128,16.0488 89.40024,17.0856 88.128,17.0856 Z" id="Path" stroke="#000000" stroke-width="0.585" fill="#FFFFFF" fill-rule="nonzero" stroke-linecap="round" stroke-linejoin="round"></path> <path d="M18.198,13.63176 L7.67664,13.63176 C7.00205352,13.6076905 6.43248966,13.1230695 6.30072,12.46104 L4.92696,4.67424 C4.85939972,4.38500876 4.9306197,4.08081653 5.11955433,3.85163798 C5.30848895,3.62245944 5.59351248,3.4945267 5.89032,3.50568 L16.416,3.50568 C17.0904447,3.52932443 17.6605223,4.01272882 17.79408,4.67424 L19.16568,12.46104 C19.23333,12.7512342 19.1616096,13.056373 18.971769,13.2860461 C18.7819285,13.5157193 18.4957404,13.6435859 18.198,13.63176 Z" id="Path" fill="#7B4CFF" fill-rule="nonzero"></path> <g transform="translate(8.424000, 6.048000)" fill="#FFFFFF" fill-rule="nonzero"> <path d="M3.48192,2.93112 C3.59424,3.57048 3.54816,4.06008 3.34368,4.39992 C3.1392,4.73976 2.7792,4.90968 2.26368,4.90968 C1.79672822,4.9250559 1.34469429,4.74408564 1.01736,4.41072 C0.658852089,4.00990796 0.427979389,3.51131318 0.35424,2.97864 L0.20304,2.11464 C0.09072,1.46952 0.13824,0.9792 0.3456,0.64368 C0.5616,0.30672 0.91152,0.1404 1.4256,0.1404 C1.89208891,0.125255577 2.3437674,0.305300726 2.67192,0.6372 C3.03014618,1.0371042 3.26036142,1.53515156 3.33288,2.06712 L3.48192,2.93112 Z M2.40192,1.99368 C2.36670729,1.69449565 2.26244468,1.40758861 2.09736,1.1556 C1.97186438,0.985207555 1.77107415,0.886828408 1.55952,0.89208 C1.37694166,0.875472954 1.20376575,0.975914981 1.12752,1.14264 C1.04898628,1.39625126 1.04003423,1.66630456 1.1016,1.92456 L1.30032,3.04992 C1.33825256,3.34946759 1.44148219,3.63703584 1.60272,3.89232 C1.72665946,4.06953275 1.93083261,4.17323975 2.14704,4.1688 C2.33334183,4.18297856 2.50764513,4.07578203 2.57904,3.90312 C2.64934055,3.63894925 2.65379049,3.36156986 2.592,3.09528 L2.40192,1.99368 Z" id="Shape"></path> <path d="M7.614,4.84488 L4.4388,4.84488 L4.32864,4.21632 L5.54472,2.62008 C5.68595777,2.43839424 5.80488762,2.24041955 5.89896,2.0304 C5.96464748,1.88042911 5.98637098,1.714881 5.9616,1.55304 C5.93650056,1.36950169 5.85145099,1.19940254 5.71968,1.0692 C5.5919199,0.948054537 5.42036452,0.884111167 5.24448,0.89208 C5.0656684,0.878515501 4.89305683,0.960711486 4.79088,1.10808 C4.69187369,1.27922311 4.66321848,1.48213296 4.71096,1.674 L3.78864,1.674 C3.73680985,1.41529108 3.75927602,1.14719478 3.85344,0.90072 C3.94380339,0.668495334 4.11168995,0.474662671 4.32864,0.35208 C4.57273565,0.21424146 4.84978404,0.145539433 5.13,0.15336 C5.54741634,0.13576237 5.95896214,0.256492595 6.30072,0.4968 C6.60992219,0.733086324 6.81393269,1.08137801 6.8688,1.46664 C6.90908551,1.70093742 6.88977268,1.94160502 6.81264,2.16648 C6.70287264,2.46542654 6.54689738,2.74530737 6.3504,2.99592 L5.4864,4.10616 L7.47792,4.10616 L7.614,4.84488 Z" id="Path"></path> </g> <line x1="23.49864" y1="6.18408" x2="74.22624" y2="6.18408" id="Path" stroke="#000000" stroke-width="0.585" stroke-linecap="round" stroke-linejoin="round"></line> <line x1="24.32808" y1="10.89288" x2="48.15936" y2="10.89288" id="Path" stroke="#000000" stroke-width="0.585" stroke-linecap="round" stroke-linejoin="round"></line> </g> </g> </g> </g> </g> </g> </svg> 