<svg width="283" height="251" viewBox="0 0 283 251" fill="none" xmlns="http://www.w3.org/2000/svg">
<path d="M269.541 210.414H109.221C104.527 210.414 100.048 206.608 99.2177 201.914L81.0161 98.6656C80.1857 93.9712 83.3201 90.1648 88.0194 90.1648H248.339C253.039 90.1648 257.517 93.9712 258.343 98.6656L276.549 201.914C277.375 206.608 274.235 210.414 269.541 210.414Z" fill="#7835FF"/>
<path d="M191.704 235.72L204.63 166.245H172.686L159.914 235.48C159.269 238.968 160.209 242.563 162.478 245.289C164.748 248.016 168.112 249.592 171.659 249.592H216.856V245.882H200.171C197.617 245.881 195.194 244.745 193.559 242.783C191.924 240.82 191.244 238.233 191.704 235.72Z" fill="#7835FF"/>
<path d="M167.805 249.112C164.399 249.112 161.169 247.6 158.989 244.983C156.809 242.366 155.904 238.916 156.52 235.566L169.226 166.701H172.706L159.88 235.61C159.387 238.266 160.1 241.004 161.827 243.082C163.554 245.16 166.116 246.361 168.818 246.362H185.027V249.112H167.805Z" fill="white"/>
<path d="M173.272 166.24H168.812L156.04 235.48C155.397 238.969 156.338 242.563 158.608 245.29C160.878 248.016 164.242 249.592 167.79 249.592L216.5 249.5V245.79L168.827 245.882C166.272 245.882 163.848 244.748 162.213 242.785C160.577 240.822 159.898 238.233 160.36 235.72L173.286 166.245L173.272 166.24Z" fill="white" stroke="black" stroke-width="1.3"/>
<path d="M274.764 210.414H114.444C109.749 210.414 105.271 206.608 104.445 201.914L86.2486 98.6656C85.4182 93.9712 88.5526 90.1648 93.2518 90.1648H253.572C258.266 90.1648 262.745 93.9712 263.57 98.6656L281.777 201.914C282.597 206.608 279.458 210.414 274.764 210.414Z" fill="white" stroke="black" stroke-width="1.3" stroke-linecap="round" stroke-linejoin="round"/>
<path d="M190.912 162.947H114.534C112.2 162.863 110.229 161.187 109.773 158.896L101.099 109.706C100.867 108.704 101.114 107.651 101.768 106.857C102.422 106.064 103.407 105.619 104.435 105.654H180.808C183.143 105.738 185.115 107.414 185.574 109.706L194.248 158.92C194.471 159.918 194.22 160.964 193.567 161.752C192.915 162.539 191.934 162.981 190.912 162.947Z" fill="#7835FF"/>
<path d="M141.126 141.755L138.126 126.928C137.905 125.848 139.11 125.128 140.31 125.627L157.182 132.645C158.411 133.154 158.694 134.565 157.686 135.117L143.809 142.931C143.302 143.179 142.712 143.191 142.195 142.965C141.678 142.738 141.287 142.296 141.126 141.755Z" fill="white"/>
<path d="M130.087 187.852C132.857 184.828 132.178 179.698 128.571 176.395C124.963 173.092 119.794 172.866 117.025 175.891C114.255 178.915 114.934 184.045 118.541 187.348C122.148 190.651 127.318 190.877 130.087 187.852Z" fill="white" stroke="black" stroke-width="1.3" stroke-linecap="round" stroke-linejoin="round"/>
<path d="M126.009 183.262C127.128 182.04 126.854 179.968 125.397 178.634C123.941 177.3 121.853 177.21 120.734 178.432C119.615 179.654 119.889 181.725 121.345 183.059C122.802 184.393 124.89 184.484 126.009 183.262Z" fill="black"/>
<path d="M124.983 189.986C127.097 190.041 129.113 189.099 130.427 187.442C128.877 185.418 126.499 184.2 123.951 184.125C121.671 184.045 119.571 185.357 118.643 187.442C120.376 189.033 122.631 189.938 124.983 189.986Z" fill="black"/>
<path d="M137.689 178.6H195.011" stroke="black" stroke-width="1.3" stroke-linecap="round" stroke-linejoin="round"/>
<path d="M138.847 185.152H171.146" stroke="black" stroke-width="1.3" stroke-linecap="round" stroke-linejoin="round"/>
<path d="M222.832 123.05H199.643C198.936 123.023 198.34 122.515 198.203 121.821L195.568 106.883C195.497 106.579 195.573 106.26 195.771 106.019C195.97 105.778 196.269 105.643 196.581 105.654H219.769C220.475 105.684 221.069 106.191 221.209 106.883L223.84 121.821C223.91 122.124 223.835 122.443 223.638 122.683C223.441 122.924 223.143 123.059 222.832 123.05Z" fill="black"/>
<path d="M207.717 116.618L206.805 112.115C206.738 111.784 207.107 111.568 207.467 111.717L212.594 113.848C212.968 114.006 213.05 114.429 212.742 114.602L208.533 116.973C208.379 117.048 208.2 117.051 208.043 116.983C207.886 116.915 207.767 116.781 207.717 116.618Z" fill="white"/>
<path d="M226.619 111.669H251.987" stroke="black" stroke-width="1.3" stroke-linecap="round" stroke-linejoin="round"/>
<path d="M227.569 117.035H238.326" stroke="black" stroke-width="1.3" stroke-linecap="round" stroke-linejoin="round"/>
<path d="M227.027 147.04H203.833C203.127 147.012 202.532 146.504 202.393 145.811L199.758 130.874C199.688 130.57 199.763 130.25 199.961 130.009C200.16 129.768 200.459 129.634 200.771 129.645H223.96C224.667 129.671 225.262 130.18 225.4 130.874L228.04 145.811C228.11 146.115 228.035 146.435 227.837 146.675C227.638 146.916 227.339 147.051 227.027 147.04Z" fill="black"/>
<path d="M211.907 140.608L210.995 136.101C210.933 135.774 211.298 135.558 211.662 135.707L216.784 137.838C217.158 137.992 217.264 138.419 216.938 138.592L212.723 140.963C212.569 141.038 212.39 141.042 212.234 140.974C212.077 140.905 211.957 140.772 211.907 140.608Z" fill="white"/>
<path d="M230.814 135.659H256.182" stroke="black" stroke-width="1.3" stroke-linecap="round" stroke-linejoin="round"/>
<path d="M231.76 141.026H242.517" stroke="black" stroke-width="1.3" stroke-linecap="round" stroke-linejoin="round"/>
<path d="M231.217 171.03H208.029C207.321 171.002 206.726 170.492 206.589 169.797L203.953 154.864C203.883 154.56 203.958 154.24 204.157 153.998C204.355 153.757 204.654 153.621 204.966 153.63H228.16C228.867 153.659 229.463 154.169 229.6 154.864L232.235 169.797C232.305 170.102 232.23 170.423 232.03 170.665C231.831 170.906 231.531 171.041 231.217 171.03Z" fill="black"/>
<path d="M216.103 164.594L215.191 160.091C215.123 159.765 215.488 159.544 215.853 159.698L220.975 161.829C221.349 161.983 221.455 162.405 221.128 162.578L216.914 164.978C216.757 165.052 216.575 165.052 216.418 164.977C216.26 164.903 216.145 164.762 216.103 164.594Z" fill="white"/>
<path d="M235.005 159.65H260.373" stroke="black" stroke-width="1.3" stroke-linecap="round" stroke-linejoin="round"/>
<path d="M235.955 165.011H246.712" stroke="black" stroke-width="1.3" stroke-linecap="round" stroke-linejoin="round"/>
<path d="M235.408 195.016H212.2C211.493 194.99 210.897 194.481 210.76 193.787L208.129 178.85C208.059 178.546 208.134 178.226 208.333 177.985C208.531 177.745 208.83 177.61 209.142 177.621H232.36C233.065 177.651 233.659 178.158 233.8 178.85L236.43 193.787C236.503 194.093 236.428 194.416 236.227 194.658C236.025 194.899 235.722 195.032 235.408 195.016Z" fill="black"/>
<path d="M220.292 188.584L219.38 184.082C219.313 183.755 219.678 183.534 220.043 183.688L225.159 185.8C225.529 185.954 225.639 186.376 225.308 186.549L221.099 188.92C220.948 188.992 220.774 188.997 220.62 188.933C220.466 188.868 220.347 188.742 220.292 188.584Z" fill="white"/>
<path d="M239.195 183.635H264.563" stroke="black" stroke-width="1.3" stroke-linecap="round" stroke-linejoin="round"/>
<path d="M240.146 189.002H250.902" stroke="black" stroke-width="1.3" stroke-linecap="round" stroke-linejoin="round"/>
<path d="M257.893 37.92H73.3811C70.42 37.8151 67.9188 35.6895 67.3379 32.784L62.4803 5.19362C62.0003 2.35682 63.8723 0.0576172 66.7091 0.0576172H251.221C254.182 0.162491 256.683 2.28814 257.264 5.19362L262.127 32.7744C262.64 35.6112 260.72 37.92 257.893 37.92Z" fill="#7835FF"/>
<path d="M102.503 30.24H79.1267C77.6258 30.1887 76.3575 29.1113 76.0643 27.6384L73.0163 10.3584C72.8665 9.71523 73.0247 9.03896 73.4443 8.52901C73.8639 8.01907 74.4971 7.73361 75.1571 7.7568H98.5379C100.036 7.81203 101.301 8.88817 101.595 10.3584L104.648 27.6384C104.798 28.2824 104.64 28.9596 104.219 29.4698C103.798 29.9799 103.163 30.2647 102.503 30.24Z" fill="white" stroke="black" stroke-width="1.3"/>
<path d="M88.525 19.896C88.7746 21.32 88.6722 22.4096 88.2178 23.1648C87.7634 23.92 86.9634 24.296 85.8178 24.2928C84.7801 24.327 83.7756 23.9248 83.0482 23.184C82.2512 22.294 81.7396 21.1855 81.5794 20.0016L81.2434 18.1104C80.9874 16.6704 81.093 15.5792 81.5602 14.8368C82.0274 14.0944 82.8274 13.7216 83.9602 13.7184C84.9964 13.6844 85.9994 14.0867 86.725 14.8272C87.5225 15.7155 88.0358 16.8222 88.1986 18.0048L88.525 19.896ZM86.125 17.8128C86.0437 17.1479 85.8105 16.5107 85.4434 15.9504C85.1645 15.5718 84.7183 15.3532 84.2482 15.3648C83.8424 15.3279 83.4576 15.5511 83.2882 15.9216C83.1139 16.4852 83.094 17.0853 83.2306 17.6592L83.6722 20.1648C83.7564 20.8305 83.9858 21.4695 84.3442 22.0368C84.6206 22.4288 85.0742 22.6574 85.5538 22.6464C85.9688 22.6883 86.361 22.449 86.5138 22.0608C86.6743 21.4729 86.6859 20.8543 86.5474 20.2608L86.125 17.8128Z" fill="black"/>
<path d="M95.6001 24.1536H93.5553L92.1681 16.2768L89.8641 17.0352L89.5713 15.3744L93.5649 13.848H93.7809L95.6001 24.1536Z" fill="black"/>
<path d="M114.282 13.6848H227.01" stroke="black" stroke-width="1.3" stroke-linecap="round" stroke-linejoin="round"/>
<path d="M116.13 24.1536H169.088" stroke="black" stroke-width="1.3" stroke-linecap="round" stroke-linejoin="round"/>
<path d="M196.84 82.648H12.3136C9.35603 82.5348 6.8614 80.4093 6.28004 77.5072L1.41764 49.9312C0.937639 47.0944 2.81444 44.7952 5.65124 44.7952H190.163C193.124 44.9 195.625 47.0257 196.206 49.9312L201.069 77.5072C201.558 80.344 199.667 82.648 196.84 82.648Z" fill="white" stroke="black" stroke-width="1.3" stroke-linecap="round" stroke-linejoin="round"/>
<path d="M41.4403 74.9728H18.0595C16.5604 74.9193 15.2947 73.8423 15.0019 72.3712L11.9491 55.0672C11.7989 54.4244 11.9572 53.7484 12.3771 53.2392C12.7969 52.7299 13.4303 52.4456 14.0899 52.4704H37.4803C38.979 52.5229 40.2459 53.5971 40.5427 55.0672L43.5907 72.3712C43.741 73.016 43.5816 73.6941 43.1597 74.2045C42.7379 74.7149 42.1019 74.999 41.4403 74.9728Z" fill="#7B4CFF"/>
<path d="M27.458 64.6336C27.7076 66.0544 27.6052 67.1424 27.1508 67.8976C26.6964 68.6528 25.8964 69.0304 24.7508 69.0304C23.7131 69.0646 22.7086 68.6624 21.9812 67.9216C21.1845 67.0309 20.6715 65.9229 20.5076 64.7392L20.1716 62.8192C19.922 61.3856 20.0276 60.296 20.4884 59.5504C20.9684 58.8016 21.746 58.432 22.8884 58.432C23.925 58.3984 24.9288 58.7985 25.658 59.536C26.454 60.4247 26.9656 61.5315 27.1268 62.7136L27.458 64.6336ZM25.058 62.5504C24.9797 61.8856 24.748 61.248 24.3812 60.688C24.1023 60.3094 23.6561 60.0907 23.186 60.1024C22.7803 60.0655 22.3954 60.2887 22.226 60.6592C22.0515 61.2228 22.0316 61.8229 22.1684 62.3968L22.61 64.8976C22.6943 65.5633 22.9237 66.2023 23.282 66.7696C23.5574 67.1634 24.0111 67.3939 24.4916 67.384C24.9056 67.4155 25.2929 67.1773 25.4516 66.7936C25.6078 66.2066 25.6177 65.5902 25.4804 64.9984L25.058 62.5504Z" fill="white"/>
<path d="M36.6404 68.8864H29.5844L29.3396 67.4896L32.042 63.9424C32.3559 63.5386 32.6202 63.0987 32.8292 62.632C32.9752 62.2987 33.0235 61.9308 32.9684 61.5712C32.9126 61.1633 32.7236 60.7853 32.4308 60.496C32.1469 60.2268 31.7657 60.0847 31.3748 60.1024C30.9775 60.0722 30.5939 60.2549 30.3668 60.5824C30.1468 60.9627 30.0831 61.4136 30.1892 61.84H28.1396C28.0244 61.2651 28.0744 60.6693 28.2836 60.1216C28.4844 59.6055 28.8575 59.1748 29.3396 58.9024C29.882 58.5961 30.4977 58.4434 31.1204 58.4608C32.048 58.4217 32.9625 58.69 33.722 59.224C34.4091 59.7491 34.8625 60.523 34.9844 61.3792C35.0739 61.8998 35.031 62.4347 34.8596 62.9344C34.6157 63.5987 34.2691 64.2207 33.8324 64.7776L31.9124 67.2448H36.338L36.6404 68.8864Z" fill="white"/>
<path d="M53.2188 58.4224H165.947" stroke="black" stroke-width="1.3" stroke-linecap="round" stroke-linejoin="round"/>
<path d="M55.0625 68.8864H108.021" stroke="black" stroke-width="1.3" stroke-linecap="round" stroke-linejoin="round"/>
</svg>
