<?xml version="1.0" encoding="UTF-8"?> <svg xmlns="http://www.w3.org/2000/svg" xmlns:xlink="http://www.w3.org/1999/xlink" width="300px" height="196px" viewBox="0 0 300 196"> <title>3</title> <defs> <rect id="path-1" x="0" y="0" width="300" height="196" rx="19"></rect> </defs> <g id="Main" stroke="none" stroke-width="1" fill="none" fill-rule="evenodd"> <g id="Group-2-Copy" transform="translate(0.000000, -436.000000)"> <g id="3" transform="translate(0.000000, 436.000000)"> <mask id="mask-2" fill="white"> <use xlink:href="#path-1"></use> </mask> <use id="Rectangle" fill="#B1FDEB" xlink:href="#path-1"></use> <g id="illustration-2" mask="url(#mask-2)"> <g transform="translate(197.000000, 17.000000)" id="Path"> <polygon stroke="#000000" stroke-width="0.585" fill="#FFFFFF" fill-rule="evenodd" stroke-linecap="round" stroke-linejoin="round" points="25.7205375 13.8343275 22.30011 22.964445 30.8915775 21.1599675 29.94894 14.2113825"></polygon> <polygon stroke="#000000" stroke-width="0.585" fill="none" stroke-linecap="round" stroke-linejoin="round" points="33.07311 10.09071 34.90452 12.3799725 33.557895 13.3495425"></polygon> <path d="M27.0671625,6.1854975 C28.9524375,5.24286 31.618755,6.7241475 33.0461775,9.5251275 C34.4466675,12.3261075 34.0696125,15.36948 32.21127,16.3121175 C30.325995,17.254755 27.6596775,15.7734675 26.232255,12.9724875 C24.8048325,10.1715075 25.1818875,7.128135 27.0671625,6.1854975 L27.0671625,6.1854975 Z" stroke="#000000" stroke-width="0.585" fill="#FFFFFF" fill-rule="evenodd" stroke-linecap="round" stroke-linejoin="round"></path> <path d="M33.988815,2.2533525 C35.5239675,4.3540875 35.2546425,7.128135 33.4232325,8.47476 C31.5918225,9.821385 28.8447075,9.2019375 27.3364875,7.1012025 C25.801335,5.0004675 26.07066,2.22642 27.90207,0.879795 C29.7604125,-0.4398975 32.480595,0.17955 33.988815,2.2533525 L33.988815,2.2533525 Z" stroke="none" fill="#000000" fill-rule="nonzero"></path> <path d="M32.3997975,10.7640225 C32.588325,11.16801 32.6152575,11.545065 32.42673,11.6258625 C32.2382025,11.70666 31.941945,11.4642675 31.7534175,11.0872125 C31.56489,10.683225 31.5379575,10.30617 31.726485,10.2253725 C31.88808,10.144575 32.21127,10.3869675 32.3997975,10.7640225 L32.3997975,10.7640225 Z" stroke="none" fill="#000000" fill-rule="nonzero"></path> <path d="M22.4886375,7.1550675 C23.8352625,5.9700375 25.693605,5.8623075 26.6362425,6.9396075 C27.57888,8.0169075 27.2826225,9.8483175 25.9359975,11.0333475 C24.5893725,12.2183775 22.73103,12.3261075 21.7883925,11.2488075 C20.8188225,10.1715075 21.1420125,8.3400975 22.4886375,7.1550675 L22.4886375,7.1550675 Z" stroke="none" fill="#000000" fill-rule="nonzero"></path> <path d="M25.8282675,4.91967 C27.36342,3.84237 29.464155,4.16556 30.541455,5.67378 C31.618755,7.182 31.2147675,9.282735 29.679615,10.360035 C28.1444625,11.437335 26.0437275,11.114145 24.9664275,9.605925 C23.91606,8.097705 24.293115,5.99697 25.8282675,4.91967 L25.8282675,4.91967 Z" stroke="none" fill="#000000" fill-rule="nonzero"></path> <path d="M24.67017,4.650345 C25.3973475,4.0308975 26.7978375,4.5156825 27.79434,5.7007125 C28.7908425,6.8857425 29.033235,8.3400975 28.3060575,8.959545 C27.57888,9.5789925 26.17839,9.0942075 25.1818875,7.9091775 C24.185385,6.7241475 23.9429925,5.24286 24.67017,4.650345 L24.67017,4.650345 Z" stroke="none" fill="#000000" fill-rule="nonzero"></path> <path d="M26.28612,8.2862325 C27.6596775,8.47476 28.602315,9.98298 28.386855,11.652795 C28.171395,13.32261 26.8517025,14.5345725 25.478145,14.346045 C24.1045875,14.1575175 23.16195,12.6492975 23.37741,10.9794825 C23.59287,9.3096675 24.9125625,8.097705 26.28612,8.2862325 L26.28612,8.2862325 Z" stroke="none" fill="#000000" fill-rule="nonzero"></path> <path d="M26.07066,11.329605 C26.9055675,10.9256175 27.9828675,11.4104025 28.494585,12.406905 C29.0063025,13.43034 28.76391,14.5884375 27.9290025,14.992425 C27.094095,15.3964125 26.016795,14.93856 25.5050775,13.915125 C24.99336,12.89169 25.2357525,11.7335925 26.07066,11.329605 L26.07066,11.329605 Z" stroke="#000000" stroke-width="0.585" fill="#FFFFFF" fill-rule="evenodd" stroke-linecap="round" stroke-linejoin="round"></path> <path d="M28.279125,58.623075 C28.279125,58.623075 45.2196675,66.056445 58.71285,61.9896375 C74.65689,57.16872 76.0843125,54.04455 84.837375,55.5797025 C103.824787,58.8924 110.692575,61.639515 110.692575,61.639515 L120.846127,44.9682975 C120.846127,44.9682975 108.645705,35.9189775 82.3326525,29.535975 C67.9506975,26.088615 40.3718175,52.159275 40.3718175,52.159275 L28.279125,58.623075 L28.279125,58.623075 Z" stroke="#000000" stroke-width="0.585" fill="#FFFFFF" fill-rule="evenodd" stroke-linecap="round" stroke-linejoin="round"></path> <polygon stroke="#000000" stroke-width="0.585" fill="#FFFFFF" fill-rule="evenodd" stroke-linecap="round" stroke-linejoin="round" points="102.047242 51.9707475 115.80975 64.117305 131.672992 44.618175 122.866065 45.21069 108.995828 38.9354175"></polygon> <path d="M16.37496,42.7059675 C16.37496,42.7059675 13.2238575,55.4719725 22.8118275,70.95816 C25.8552,75.8868075 29.62575,74.29779 31.4302275,74.4324525 C33.234705,74.567115 28.710045,42.8675625 28.710045,42.8675625 C28.710045,42.8675625 16.37496,43.0291575 16.37496,42.7059675 L16.37496,42.7059675 Z" stroke="#000000" stroke-width="0.585" fill="#FFFFFF" fill-rule="evenodd" stroke-linecap="round" stroke-linejoin="round"></path> <path d="M34.2850725,29.58984 C36.19728,24.3918675 26.124525,16.0966575 20.7110925,24.7689225 C15.9171075,32.39082 15.4861875,44.4296475 15.4861875,44.4296475 C15.4861875,44.4296475 25.585875,44.2141875 27.955935,41.7902625 C31.2147675,38.477565 32.10354,35.51499 34.2850725,29.58984 L34.2850725,29.58984 Z" stroke="#000000" stroke-width="0.585" fill="#FFFFFF" fill-rule="evenodd" stroke-linecap="round" stroke-linejoin="round"></path> <path d="M28.279125,56.037555 C28.279125,56.037555 45.2196675,63.470925 58.71285,59.4041175 C74.65689,54.5832 76.111245,46.8535725 84.5411175,49.62762 C108.05319,57.4111125 108.968895,59.0270625 108.968895,59.0270625 L119.122448,42.355845 C119.122448,42.355845 108.618773,33.3334575 82.30572,26.9773875 C67.97763,23.503095 40.39875,49.573755 40.39875,49.573755 L28.279125,56.037555 L28.279125,56.037555 Z" stroke="#000000" stroke-width="0.585" fill="#FFFFFF" fill-rule="evenodd" stroke-linecap="round" stroke-linejoin="round"></path> <polygon stroke="#000000" stroke-width="0.585" fill="#7835FF" fill-rule="evenodd" stroke-linecap="round" stroke-linejoin="round" points="74.926215 0.6912675 70.7516775 3.1151925 69.0818625 27.165915 73.2564 24.7150575"></polygon> <polygon stroke="#000000" stroke-width="0.585" fill="#FFFFFF" fill-rule="evenodd" stroke-linecap="round" stroke-linejoin="round" points="74.172105 26.14248 73.417995 24.84972 52.5991725 36.969345 53.3532825 38.2890375"></polygon> <path d="M21.7345275,21.4831575 C21.7345275,21.4831575 14.2472925,39.501 27.68661,57.16872 L52.14132,42.786765 C52.14132,42.786765 36.9244575,25.1998425 32.265135,20.21733 L21.7345275,21.4831575 L21.7345275,21.4831575 Z" stroke="#000000" stroke-width="0.585" fill="#FFFFFF" fill-rule="evenodd" stroke-linecap="round" stroke-linejoin="round"></path> <path d="M30.6222525,26.0078175 C25.370415,24.257205 21.599865,30.182355 25.6128075,39.554865 C30.0297375,49.896945 35.2007775,54.8255925 40.991265,57.1417875 C44.06157,58.3806825 49.34034,56.63007 54.18819,47.0421 C56.612115,42.248115 56.55825,38.585295 58.3627275,35.030205 C58.7397825,34.276095 62.4834,33.46812 63.506835,29.428245 C64.1262825,26.950455 60.274935,28.2162825 55.965735,29.428245 C47.6974575,31.74444 46.8356175,43.70247 44.330895,41.4132075 C42.4186875,39.662595 41.5568475,35.62272 38.45961,32.121495 C35.98182,29.4013125 33.28857,26.89659 30.6222525,26.0078175 L30.6222525,26.0078175 Z" stroke="#000000" stroke-width="0.585" fill="#FFFFFF" fill-rule="evenodd" stroke-linecap="round" stroke-linejoin="round"></path> <path d="M31.2147675,24.9305175 C25.8282675,23.66469 19.71459,26.2232775 21.86919,36.215235 C23.1350175,42.140385 28.0905975,47.2306275 28.0905975,47.2306275 L41.0181975,33.9259725 C40.991265,33.952905 35.6855625,25.980885 31.2147675,24.9305175 L31.2147675,24.9305175 Z" stroke="#000000" stroke-width="0.585" fill="#FFFFFF" fill-rule="evenodd" stroke-linecap="round" stroke-linejoin="round"></path> <path d="M20.630295,65.9756475 C21.22281,64.92528 20.8726875,63.6055875 19.82232,63.0130725 C18.7719525,62.4205575 17.45226,62.77068 16.859745,63.8210475 L0.43092,92.2887 C-0.161595,93.3390675 0.1885275,94.65876 1.238895,95.251275 C2.2892625,95.84379 3.608955,95.4936675 4.20147,94.4433 L20.630295,65.9756475 L20.630295,65.9756475 Z" stroke="#000000" stroke-width="0.585" fill="#FFFFFF" fill-rule="evenodd" stroke-linecap="round" stroke-linejoin="round"></path> <path d="M110.611777,63.363195 C111.204293,62.3128275 110.85417,60.993135 109.803802,60.40062 C108.753435,59.808105 107.433743,60.1582275 106.841227,61.208595 L88.9041825,92.2887 C88.3116675,93.3390675 88.66179,94.65876 89.7121575,95.251275 C90.762525,95.84379 92.0822175,95.4936675 92.6747325,94.4433 L110.611777,63.363195 L110.611777,63.363195 Z" stroke="#000000" stroke-width="0.585" fill="#FFFFFF" fill-rule="evenodd" stroke-linecap="round" stroke-linejoin="round"></path> <path d="M56.66598,66.7836225 C56.073465,65.733255 56.4235875,64.4135625 57.473955,63.8210475 C58.5243225,63.2285325 59.844015,63.578655 60.43653,64.6290225 L76.4075025,92.2887 C77.0000175,93.3390675 76.649895,94.65876 75.5995275,95.251275 C74.54916,95.84379 73.2294675,95.4936675 72.6369525,94.4433 L56.66598,66.7836225 L56.66598,66.7836225 Z" stroke="#000000" stroke-width="0.585" fill="#FFFFFF" fill-rule="evenodd" stroke-linecap="round" stroke-linejoin="round"></path> <path d="M2.58552,40.5513675 C2.423925,54.3946725 10.3690125,66.271905 23.0272875,73.22049 C42.33789,83.8049625 63.5337675,80.815455 72.3676275,75.7790775 C83.38302,69.5307375 80.959095,55.2026475 63.2105775,58.946265 C33.50403,65.1676725 20.4687,49.896945 19.60686,37.1040075 C18.7719525,24.3380025 2.7201825,28.997325 2.58552,40.5513675 L2.58552,40.5513675 Z" stroke="none" fill="#7835FF" fill-rule="evenodd"></path> <path d="M134.473972,68.69583 C134.473972,63.363195 130.13784,59.053995 124.832137,59.053995 L96.795405,59.053995 C91.46277,59.053995 87.15357,63.3901275 87.15357,68.69583 C87.15357,74.028465 91.4897025,78.337665 96.795405,78.337665 L124.832137,78.337665 C130.164772,78.337665 134.473972,74.028465 134.473972,68.69583 L134.473972,68.69583 Z" stroke="none" fill="#7835FF" fill-rule="evenodd"></path> </g> </g> </g> </g> </g> </svg> 