<svg width="301" height="213" viewBox="0 0 301 213" fill="none" xmlns="http://www.w3.org/2000/svg">
<path fill-rule="evenodd" clip-rule="evenodd" d="M58.1566 30.7429L50.5557 51.0321L69.6478 47.0221L67.5531 31.5808L58.1566 30.7429Z" fill="white" stroke="black" stroke-width="1.3" stroke-linecap="round" stroke-linejoin="round"/>
<path fill-rule="evenodd" clip-rule="evenodd" d="M74.4961 22.4238L78.5659 27.5111L75.5734 29.6657L74.4961 22.4238Z" stroke="black" stroke-width="1.3" stroke-linecap="round" stroke-linejoin="round"/>
<path fill-rule="evenodd" clip-rule="evenodd" d="M61.1493 13.7456C65.3388 11.6508 71.2639 14.9426 74.436 21.167C77.5482 27.3914 76.7103 34.1544 72.5806 36.2492C68.3911 38.3439 62.466 35.0522 59.2939 28.8278C56.1219 22.6034 56.9598 15.8403 61.1493 13.7456Z" fill="white" stroke="black" stroke-width="1.3" stroke-linecap="round" stroke-linejoin="round"/>
<path d="M76.5313 5.00748C79.9428 9.67578 79.3443 15.8403 75.2745 18.8328C71.2047 21.8253 65.1 20.4488 61.7484 15.7805C58.3369 11.1122 58.9354 4.94763 63.0052 1.95513C67.1349 -0.977525 73.1797 0.399025 76.5313 5.00748Z" fill="black"/>
<path d="M72.9999 23.9201C73.4189 24.8179 73.4787 25.6558 73.0598 25.8353C72.6408 26.0149 71.9825 25.4762 71.5635 24.6383C71.1446 23.7406 71.0847 22.9027 71.5037 22.7231C71.8628 22.5436 72.581 23.0822 72.9999 23.9201Z" fill="black"/>
<path d="M50.9755 15.9002C53.968 13.2668 58.0976 13.0274 60.1924 15.4214C62.2871 17.8154 61.6288 21.8852 58.6363 24.5186C55.6438 27.152 51.5141 27.3914 49.4194 24.9974C47.2648 22.6034 47.983 18.5336 50.9755 15.9002Z" fill="black"/>
<path d="M58.396 10.9326C61.8074 8.53863 66.4758 9.25683 68.8698 12.6084C71.2638 15.96 70.366 20.6283 66.9545 23.0223C63.5431 25.4163 58.8748 24.6981 56.4808 21.3465C54.1466 17.9949 54.9845 13.3266 58.396 10.9326Z" fill="black"/>
<path d="M55.8227 10.3341C57.4386 8.95752 60.5508 10.0348 62.7653 12.6682C64.9797 15.3016 65.5184 18.5335 63.9024 19.9101C62.2865 21.2866 59.1743 20.2093 56.9598 17.5759C54.7454 14.9425 54.2067 11.6508 55.8227 10.3341Z" fill="black"/>
<path d="M59.4138 18.4139C62.4662 18.8329 64.5609 22.1845 64.0821 25.8952C63.6033 29.6059 60.6707 32.2991 57.6183 31.8802C54.566 31.4612 52.4712 28.1096 52.95 24.3989C53.4288 20.6882 56.3615 17.995 59.4138 18.4139Z" fill="black"/>
<path fill-rule="evenodd" clip-rule="evenodd" d="M58.9354 25.1769C60.7907 24.2792 63.1847 25.3565 64.3219 27.5709C65.459 29.8452 64.9204 32.4188 63.065 33.3165C61.2097 34.2143 58.8157 33.1968 57.6785 30.9225C56.5414 28.6482 57.08 26.0747 58.9354 25.1769Z" fill="white" stroke="black" stroke-width="1.3" stroke-linecap="round" stroke-linejoin="round"/>
<path fill-rule="evenodd" clip-rule="evenodd" d="M63.8428 130.274C63.8428 130.274 101.488 146.792 131.473 137.755C166.904 127.042 170.077 120.099 189.528 123.51C231.722 130.872 246.984 136.977 246.984 136.977L269.547 99.9296C269.547 99.9296 242.435 79.82 183.962 65.6355C152.002 57.9747 90.7154 115.91 90.7154 115.91L63.8428 130.274Z" fill="white" stroke="black" stroke-width="1.3" stroke-linecap="round" stroke-linejoin="round"/>
<path fill-rule="evenodd" clip-rule="evenodd" d="M227.771 115.491L258.355 142.483L293.606 99.1515L274.036 100.468L243.213 86.5232L227.771 115.491Z" fill="white" stroke="black" stroke-width="1.3" stroke-linecap="round" stroke-linejoin="round"/>
<path fill-rule="evenodd" clip-rule="evenodd" d="M37.3896 94.9022C37.3896 94.9022 30.3871 123.271 51.6937 157.685C58.4568 168.637 66.8358 165.106 70.8457 165.406C74.8557 165.705 64.8009 95.2613 64.8009 95.2613C64.8009 95.2613 37.3896 95.6204 37.3896 94.9022Z" fill="white" stroke="black" stroke-width="1.3" stroke-linecap="round" stroke-linejoin="round"/>
<path fill-rule="evenodd" clip-rule="evenodd" d="M77.1894 65.7552C81.4387 54.2041 59.0548 35.7703 47.025 55.042C36.3717 71.9796 35.4141 98.7325 35.4141 98.7325C35.4141 98.7325 57.8578 98.2537 63.1246 92.8672C70.3665 85.5057 72.3415 78.9222 77.1894 65.7552Z" fill="white" stroke="black" stroke-width="1.3" stroke-linecap="round" stroke-linejoin="round"/>
<path fill-rule="evenodd" clip-rule="evenodd" d="M63.8428 124.528C63.8428 124.528 101.488 141.046 131.473 132.009C166.904 121.296 170.136 104.119 188.869 110.284C241.118 127.58 243.153 131.171 243.153 131.171L265.717 94.1241C265.717 94.1241 242.375 74.0743 183.902 59.9497C152.062 52.2291 90.7753 110.164 90.7753 110.164L63.8428 124.528Z" fill="white" stroke="black" stroke-width="1.3" stroke-linecap="round" stroke-linejoin="round"/>
<path fill-rule="evenodd" clip-rule="evenodd" d="M167.503 1.53613L158.226 6.92263L154.516 60.3687L163.792 54.9223L167.503 1.53613Z" fill="#7835FF" stroke="black" stroke-width="1.3" stroke-linecap="round" stroke-linejoin="round"/>
<path fill-rule="evenodd" clip-rule="evenodd" d="M165.828 58.0945L164.152 55.2217L117.888 82.1542L119.563 85.0868L165.828 58.0945Z" fill="white" stroke="black" stroke-width="1.3" stroke-linecap="round" stroke-linejoin="round"/>
<path fill-rule="evenodd" clip-rule="evenodd" d="M49.2989 47.7403C49.2989 47.7403 32.6606 87.78 62.5258 127.042L116.87 95.0817C116.87 95.0817 83.0543 55.9996 72.7003 44.9274L49.2989 47.7403Z" fill="white" stroke="black" stroke-width="1.3" stroke-linecap="round" stroke-linejoin="round"/>
<path fill-rule="evenodd" clip-rule="evenodd" d="M69.0499 57.7952C57.3792 53.9049 49.0002 67.0719 57.9178 87.8997C67.7332 110.882 79.2244 121.835 92.0922 126.982C98.9151 129.735 110.646 125.845 121.419 104.538C126.805 93.8847 126.685 85.7451 130.695 77.8449C131.533 76.1691 139.852 74.3736 142.127 65.3961C143.503 59.8899 134.945 62.7029 125.369 65.3961C106.995 70.5432 105.08 97.1166 99.5136 92.0294C95.2642 88.1391 93.349 79.1616 86.4663 71.3811C80.9601 65.3363 74.9751 59.7702 69.0499 57.7952Z" fill="white" stroke="black" stroke-width="1.3" stroke-linecap="round" stroke-linejoin="round"/>
<path fill-rule="evenodd" clip-rule="evenodd" d="M70.3667 55.4012C58.3967 52.5883 44.8108 58.274 49.5988 80.4784C52.4117 93.6454 63.4241 104.957 63.4241 104.957L92.1521 75.3911C92.0923 75.451 80.3018 57.7354 70.3667 55.4012Z" fill="white" stroke="black" stroke-width="1.3" stroke-linecap="round" stroke-linejoin="round"/>
<path fill-rule="evenodd" clip-rule="evenodd" d="M46.8454 146.613C48.1621 144.279 47.384 141.346 45.0499 140.029C42.7157 138.712 39.7831 139.491 38.4664 141.825L1.95789 205.086C0.641192 207.42 1.41924 210.353 3.75339 211.67C6.08754 212.986 9.02019 212.208 10.3369 209.874L46.8454 146.613Z" fill="white" stroke="black" stroke-width="1.3" stroke-linecap="round" stroke-linejoin="round"/>
<path fill-rule="evenodd" clip-rule="evenodd" d="M246.804 140.807C248.121 138.473 247.343 135.54 245.009 134.224C242.675 132.907 239.742 133.685 238.425 136.019L198.565 205.086C197.249 207.42 198.027 210.353 200.361 211.669C202.695 212.986 205.628 212.208 206.944 209.874L246.804 140.807Z" fill="white" stroke="black" stroke-width="1.3" stroke-linecap="round" stroke-linejoin="round"/>
<path fill-rule="evenodd" clip-rule="evenodd" d="M126.925 148.408C125.608 146.074 126.386 143.141 128.72 141.825C131.054 140.508 133.987 141.286 135.304 143.62L170.795 205.086C172.111 207.42 171.333 210.353 168.999 211.67C166.665 212.986 163.732 212.208 162.416 209.874L126.925 148.408Z" fill="white" stroke="black" stroke-width="1.3" stroke-linecap="round" stroke-linejoin="round"/>
<path fill-rule="evenodd" clip-rule="evenodd" d="M251.293 141.585C249.976 139.251 250.754 136.318 253.088 135.002C255.423 133.685 258.355 134.463 259.672 136.797L299.113 205.086C300.43 207.42 299.652 210.353 297.318 211.669C294.983 212.986 292.051 212.208 290.734 209.874L251.293 141.585Z" fill="white" stroke="black" stroke-width="1.3" stroke-linecap="round" stroke-linejoin="round"/>
<path fill-rule="evenodd" clip-rule="evenodd" d="M6.74561 90.1141C6.38651 120.877 24.0423 147.271 52.1718 162.712C95.0842 186.233 142.186 179.59 161.817 168.398C186.296 154.513 180.909 122.673 141.468 130.992C75.4534 144.817 46.486 110.882 44.5708 82.4533C42.7155 54.0844 7.04486 64.4385 6.74561 90.1141Z" fill="#7835FF"/>
<path fill-rule="evenodd" clip-rule="evenodd" d="M299.831 152.658C299.831 140.807 290.195 131.231 278.405 131.231H216.101C204.251 131.231 194.675 140.867 194.675 152.658C194.675 164.508 204.311 174.084 216.101 174.084H278.405C290.255 174.084 299.831 164.508 299.831 152.658Z" fill="#7835FF"/>
</svg>
