<?xml version="1.0" encoding="UTF-8"?> <svg xmlns="http://www.w3.org/2000/svg" xmlns:xlink="http://www.w3.org/1999/xlink" width="300px" height="217px" viewBox="0 0 300 217"> <title>4</title> <defs> <rect id="path-1" x="0" y="0" width="300" height="217" rx="19"></rect> </defs> <g id="Main" stroke="none" stroke-width="1" fill="none" fill-rule="evenodd"> <g id="Group-2-Copy" transform="translate(0.000000, -648.000000)"> <g id="4" transform="translate(0.000000, 648.000000)"> <mask id="mask-2" fill="white"> <use xlink:href="#path-1"></use> </mask> <use id="Rectangle" fill="#B1FDEB" xlink:href="#path-1"></use> <g id="illustration-4" mask="url(#mask-2)"> <g transform="translate(185.000000, 11.000000)" id="Group"> <g transform="translate(0.000000, 0.196192)"> <polygon id="Path" fill="#7835FF" points="0.0975882028 107.078655 32.6432538 82.0472815 51.965718 86.6583241 92.8551749 44.8905733 109.957507 57.6746278 111.909272 0 52.478056 15.5897154 70.0439325 29.4716372 42.2312947 67.9701832 27.1295204 64.993743"></polygon> <path d="M19.0540966,102.248039 L6.39202728,106.273553 C6.39202728,106.273553 11.6617902,119.252784 13.955113,122.009651 C15.2725537,123.595459 20.1275668,122.765959 20.1275668,122.765959 L17.8342441,120.228666 L25.7876826,111.348139 L19.0540966,102.248039 L19.0540966,102.248039 Z" id="Path" fill="#FFFFFF"></path> <path d="M19.0540966,102.248039 L6.39202728,106.273553 C6.39202728,106.273553 11.6617902,119.252784 13.955113,122.009651 C15.2725537,123.595459 20.1275668,122.765959 20.1275668,122.765959 L17.8342441,120.228666 L25.7876826,111.348139 L19.0540966,102.248039 L19.0540966,102.248039 Z" id="Path" stroke="#000000" stroke-width="0.585" stroke-linecap="round" stroke-linejoin="round"></path> <path d="M73.0447698,71.5565497 C73.0447698,71.5565497 78.7536796,92.1964546 59.1384509,105.590435 C47.3790724,113.592668 23.2503893,115.202873 23.2503893,115.202873 L15.394539,102.711583 C15.394539,102.711583 48.3305574,92.7819838 53.3319528,83.8038691 C58.3333482,74.8257545 66.6771395,69.2144328 66.6771395,69.2144328 L73.0447698,71.5565497 L73.0447698,71.5565497 Z" id="Path" stroke="#000000" stroke-width="0.585" fill="#FFFFFF" stroke-linecap="round" stroke-linejoin="round"></path> <polygon id="Path" fill="#FFFFFF" points="82.3644431 111.982463 77.6070182 124.180988 98.3445113 124.400561 95.1241006 120.472636 95.1728947 112.885154"></polygon> <polygon id="Path" stroke="#000000" stroke-width="0.585" stroke-linecap="round" stroke-linejoin="round" points="82.3644431 111.982463 77.6070182 124.180988 98.3445113 124.400561 95.1241006 120.472636 95.1728947 112.885154"></polygon> <path d="M74.2158282,73.3619314 C74.2158282,73.3619314 100.442658,70.6294618 108.176523,79.6807676 C112.446007,84.6577659 110.396654,95.0753065 97.6369969,115.349256 L79.4855912,114.080609 C79.4855912,114.080609 92.5624103,97.9297615 89.049235,92.6356015 C86.8778975,89.3419996 76.509151,92.2940428 69.9219473,88.1221471 C60.6754651,82.2668549 60.626671,75.4356807 60.626671,75.4356807" id="Path" stroke="#000000" stroke-width="0.585" fill="#FFFFFF" stroke-linecap="round" stroke-linejoin="round"></path> <polygon id="Path" stroke="#000000" stroke-width="0.585" fill="#FFFFFF" stroke-linecap="round" stroke-linejoin="round" points="56.4303782 45.0857497 57.4550544 52.8440118 62.8468026 48.3061604 59.5532007 43.7439119"></polygon> <polygon id="Path" stroke="#000000" stroke-width="0.585" fill="#FFFFFF" stroke-linecap="round" stroke-linejoin="round" points="60.1875241 39.6452074 62.3588616 40.5722953 61.7733324 41.7677508"></polygon> <path d="M54.4786142,39.1572664 C55.4544962,37.7666345 57.9185983,37.8154286 59.9679506,39.2548546 C62.0173029,40.6942806 62.8955967,42.9876033 61.9441117,44.3782352 C60.9682297,45.7688671 58.5041276,45.720073 56.4547753,44.280647 C54.381026,42.841221 53.5027322,40.5478982 54.4786142,39.1572664 L54.4786142,39.1572664 Z" id="Path" stroke="#000000" stroke-width="0.585" fill="#FFFFFF" stroke-linecap="round" stroke-linejoin="round"></path> <path d="M57.8942013,33.7655182 C59.7727742,34.668209 60.626671,36.7419583 59.8459653,38.3765607 C59.0408627,40.0111631 56.8939222,40.6210894 55.0153493,39.7183985 C53.1367764,38.8157076 52.2828796,36.7419583 53.0635853,35.1073559 C53.8686879,33.4727535 56.0400254,32.8628273 57.8942013,33.7655182 L57.8942013,33.7655182 Z" id="Path" fill="#000000" fill-rule="nonzero"></path> <path d="M59.9923476,40.4015159 C60.2851123,40.5966924 60.4314946,40.889457 60.3339064,41.0114422 C60.2363182,41.1334275 59.9435535,41.0846334 59.6507889,40.889457 C59.3580243,40.6942806 59.211642,40.4015159 59.3092302,40.2795307 C59.3824214,40.1331484 59.699583,40.1819425 59.9923476,40.4015159 L59.9923476,40.4015159 Z" id="Path" fill="#000000" fill-rule="nonzero"></path> <path d="M51.5997622,41.5725744 C52.0877032,40.2307366 53.3807469,39.450031 54.4542171,39.8647808 C55.5276874,40.2551336 56.0156284,41.6945596 55.5032903,43.0363974 C55.0153493,44.3782352 53.7223056,45.1589408 52.6488354,44.744191 C51.5753652,44.3538382 51.0874241,42.9144122 51.5997622,41.5725744 L51.5997622,41.5725744 Z" id="Path" fill="#000000" fill-rule="nonzero"></path> <path d="M53.1123794,38.7425165 C53.7954968,37.4006787 55.4057021,36.8395465 56.7231429,37.4982669 C58.0405836,38.1569873 58.5773187,39.7915897 57.8942013,41.1334275 C57.2110839,42.4752653 55.6008785,43.0363974 54.2834378,42.3776771 C52.9659971,41.7189567 52.4292619,40.0843543 53.1123794,38.7425165 L53.1123794,38.7425165 Z" id="Path" fill="#000000" fill-rule="nonzero"></path> <path d="M52.1852914,38.986487 C52.453659,38.2789725 53.6247174,38.0837961 54.7957759,38.5473401 C55.9668343,39.0108841 56.6743488,39.962369 56.4059812,40.6454865 C56.1376136,41.3530009 54.9665552,41.5481773 53.7954968,41.0846334 C52.6244383,40.6454865 51.9169239,39.6940015 52.1852914,38.986487 L52.1852914,38.986487 Z" id="Path" fill="#000000" fill-rule="nonzero"></path> <path d="M54.7225847,40.9382511 C55.7716579,40.5478982 57.0159075,41.2554127 57.4794514,42.5240594 C57.9429954,43.792706 57.4794514,45.1345438 56.4303782,45.5248966 C55.3813051,45.9152494 54.1370555,45.2077349 53.6735115,43.9390883 C53.2099676,42.6948387 53.6735115,41.3286039 54.7225847,40.9382511 L54.7225847,40.9382511 Z" id="Path" fill="#000000" fill-rule="nonzero"></path> <path d="M58.4065394,45.0857497 C57.9917895,45.6956759 57.0403045,45.7688671 56.2839959,45.232132 C55.5520844,44.7197939 55.2837169,43.792706 55.6984667,43.1827797 C56.1132166,42.5728535 57.0159075,42.4264712 57.747819,42.9632063" id="Path" stroke="#000000" stroke-width="0.585" fill="#FFFFFF" stroke-linecap="round" stroke-linejoin="round"></path> <path d="M66.92111,44.4758234 C66.92111,44.4758234 73.3131373,37.1567082 81.2909729,29.5204313 C89.5859701,21.5669928 93.1723366,18.8101261 96.4903355,16.0044653 C99.5155698,13.467172 103.858245,12.3937018 101.540525,18.297788 C98.3445113,26.4708 96.0511886,21.7865663 93.831057,28.0078142 C91.440146,34.6926061 83.242737,48.3793515 77.2410625,52.1121003" id="Path" stroke="#000000" stroke-width="0.585" fill="#FFFFFF" stroke-linecap="round" stroke-linejoin="round"></path> <path d="M62.2612734,55.1373346 C67.9701832,62.6516262 82.6328107,51.5997622 82.6328107,51.5997622 L70.6538588,38.96209 C70.6538588,38.96209 58.23576,49.8187775 62.2612734,55.1373346 L62.2612734,55.1373346 Z" id="Path" stroke="#000000" stroke-width="0.585" fill="#FFFFFF" stroke-linecap="round" stroke-linejoin="round"></path> <path d="M54.9909523,49.2088512 C54.9909523,49.2088512 58.6261128,62.9199937 54.7225847,77.8265917 L81.6325316,72.9959757 C81.6325316,72.9959757 79.4367971,54.5762024 63.9446699,47.4034695 L54.9909523,49.2088512 L54.9909523,49.2088512 Z" id="Path" stroke="#000000" stroke-width="0.585" fill="#FFFFFF" stroke-linecap="round" stroke-linejoin="round"></path> <path d="M44.9881615,58.0405836 C44.9881615,58.0405836 36.7663554,66.6283454 41.3286039,70.9466234 C46.9887196,76.2895775 52.8440118,70.8978293 52.8440118,70.8978293" id="Path" stroke="#000000" stroke-width="0.585" fill="#FFFFFF" stroke-linecap="round" stroke-linejoin="round"></path> <path d="M59.3092302,50.9654389 C66.4575661,57.1378927 54.0150702,70.0927266 54.0150702,70.0927266 L42.6460446,58.3577453 C42.6460446,58.3577453 44.5978087,56.3815841 47.2570872,54.3566289 C51.0630271,51.4289829 56.33279,48.4037486 59.3092302,50.9654389 L59.3092302,50.9654389 Z" id="Path" stroke="#000000" stroke-width="0.585" fill="#FFFFFF" stroke-linecap="round" stroke-linejoin="round"></path> <path d="M43.7195148,61.2609943 C49.7211893,56.1864077 58.5529217,49.7455864 62.2368763,47.1107049 C64.3594197,45.5980877 65.7744487,44.6709998 66.0428162,44.5002205 C69.4584033,42.5240594 73.5571078,41.4993832 70.8734323,47.2570872 C66.6039484,56.3571871 65.3109047,50.4043067 62.7736114,56.5035694 C59.3336273,64.8229637 54.0638643,72.5568288 47.6230429,73.2399462" id="Path" stroke="#000000" stroke-width="0.585" fill="#FFFFFF" stroke-linecap="round" stroke-linejoin="round"></path> </g> </g> </g> </g> </g> </g> </svg> 