<svg width="249" height="278" viewBox="0 0 249 278" fill="none" xmlns="http://www.w3.org/2000/svg">
<path fill-rule="evenodd" clip-rule="evenodd" d="M0.216797 238.389L72.5405 182.763L115.479 193.01L206.345 100.193L244.35 128.602L248.687 0.436035L116.618 35.0798L155.653 65.9286L93.8473 151.481L60.2878 144.867L0.216797 238.389Z" fill="#7835FF"/>
<path fill-rule="evenodd" clip-rule="evenodd" d="M42.342 227.654L14.2041 236.599C14.2041 236.599 25.9147 265.442 31.011 271.569C33.9386 275.093 44.7275 273.249 44.7275 273.249L39.6312 267.611L57.3056 247.876L42.342 227.654Z" fill="white"/>
<path fill-rule="evenodd" clip-rule="evenodd" d="M42.342 227.654L14.2041 236.599C14.2041 236.599 25.9147 265.442 31.011 271.569C33.9386 275.093 44.7275 273.249 44.7275 273.249L39.6312 267.611L57.3056 247.876L42.342 227.654Z" stroke="black" stroke-width="1.3" stroke-linecap="round" stroke-linejoin="round"/>
<path fill-rule="evenodd" clip-rule="evenodd" d="M162.322 159.451C162.322 159.451 175.008 205.317 131.419 235.081C105.287 252.864 51.6674 256.442 51.6674 256.442L34.21 228.684C34.21 228.684 107.401 206.618 118.515 186.667C129.63 166.715 148.171 154.246 148.171 154.246L162.322 159.451Z" fill="white" stroke="black" stroke-width="1.3" stroke-linecap="round" stroke-linejoin="round"/>
<path fill-rule="evenodd" clip-rule="evenodd" d="M183.032 249.286L172.46 276.394L218.543 276.882L211.387 268.153L211.495 251.292L183.032 249.286Z" fill="white"/>
<path fill-rule="evenodd" clip-rule="evenodd" d="M183.032 249.286L172.46 276.394L218.543 276.882L211.387 268.153L211.495 251.292L183.032 249.286Z" stroke="black" stroke-width="1.3" stroke-linecap="round" stroke-linejoin="round"/>
<path fill-rule="evenodd" clip-rule="evenodd" d="M164.924 163.463C164.924 163.463 223.206 157.391 240.392 177.505C249.88 188.565 245.326 211.715 216.971 256.768L176.634 253.949C176.634 253.949 205.694 218.058 197.887 206.293C193.062 198.974 170.02 205.534 155.382 196.263C134.834 183.251 134.726 168.071 134.726 168.071" fill="white"/>
<path d="M164.924 163.463C164.924 163.463 223.206 157.391 240.392 177.505C249.88 188.565 245.326 211.715 216.971 256.768L176.634 253.949C176.634 253.949 205.694 218.058 197.887 206.293C193.062 198.974 170.02 205.534 155.382 196.263C134.834 183.251 134.726 168.071 134.726 168.071" stroke="black" stroke-width="1.3" stroke-linecap="round" stroke-linejoin="round"/>
<path fill-rule="evenodd" clip-rule="evenodd" d="M125.4 100.627L127.677 117.867L139.659 107.783L132.34 97.6448L125.4 100.627Z" fill="white" stroke="black" stroke-width="1.3" stroke-linecap="round" stroke-linejoin="round"/>
<path fill-rule="evenodd" clip-rule="evenodd" d="M133.75 88.5366L138.575 90.5968L137.274 93.2534L133.75 88.5366Z" fill="white" stroke="black" stroke-width="1.3" stroke-linecap="round" stroke-linejoin="round"/>
<path fill-rule="evenodd" clip-rule="evenodd" d="M121.063 87.4522C123.232 84.3619 128.708 84.4704 133.262 87.6691C137.816 90.8678 139.768 95.9641 137.653 99.0544C135.485 102.145 130.009 102.036 125.455 98.8375C120.847 95.6388 118.895 90.5425 121.063 87.4522Z" fill="white" stroke="black" stroke-width="1.3" stroke-linecap="round" stroke-linejoin="round"/>
<path d="M128.653 75.4705C132.828 77.4764 134.725 82.0848 132.991 85.7172C131.201 89.3497 126.43 90.7051 122.256 88.6991C118.081 86.6931 116.184 82.0848 117.919 78.4523C119.708 74.8199 124.533 73.4645 128.653 75.4705Z" fill="black"/>
<path d="M133.316 90.2173C133.967 90.651 134.292 91.3016 134.075 91.5727C133.859 91.8437 133.208 91.7353 132.557 91.3016C131.907 90.8679 131.581 90.2173 131.798 89.9462C131.961 89.6209 132.666 89.7293 133.316 90.2173Z" fill="black"/>
<path d="M114.666 92.8194C115.75 89.8376 118.624 88.1027 121.009 89.0244C123.395 89.8918 124.479 93.0905 123.341 96.0724C122.256 99.0542 119.383 100.789 116.997 99.8675C114.612 99 113.528 95.8013 114.666 92.8194Z" fill="black"/>
<path d="M118.027 86.5305C119.545 83.5486 123.123 82.3016 126.051 83.7655C128.979 85.2293 130.171 88.8617 128.653 91.8436C127.135 94.8255 123.557 96.0724 120.629 94.6086C117.702 93.1448 116.509 89.5123 118.027 86.5305Z" fill="black"/>
<path d="M115.967 87.0727C116.563 85.5004 119.166 85.0667 121.768 86.0968C124.37 87.1269 125.943 89.2413 125.346 90.7594C124.75 92.3316 122.148 92.7653 119.545 91.7353C116.943 90.7594 115.371 88.645 115.967 87.0727Z" fill="black"/>
<path d="M121.605 91.4099C123.937 90.5424 126.702 92.1147 127.732 94.9339C128.762 97.7531 127.732 100.735 125.4 101.602C123.069 102.47 120.304 100.898 119.274 98.0784C118.244 95.3134 119.274 92.2773 121.605 91.4099Z" fill="black"/>
<path fill-rule="evenodd" clip-rule="evenodd" d="M129.792 100.627C128.871 101.982 126.756 102.145 125.075 100.952C123.449 99.8133 122.853 97.7531 123.774 96.3977C124.696 95.0423 126.702 94.717 128.328 95.9097" fill="white"/>
<path d="M129.792 100.627C128.871 101.982 126.756 102.145 125.075 100.952C123.449 99.8133 122.853 97.7531 123.774 96.3977C124.696 95.0423 126.702 94.717 128.328 95.9097" stroke="black" stroke-width="1.3" stroke-linecap="round" stroke-linejoin="round"/>
<path fill-rule="evenodd" clip-rule="evenodd" d="M148.714 99.2711C148.714 99.2711 162.918 83.0064 180.647 66.0369C199.08 48.3626 207.05 42.2363 214.423 36.0015C221.146 30.363 230.796 27.9775 225.646 41.0977C218.544 59.26 213.447 48.8506 208.514 62.6756C203.201 77.5307 184.984 107.946 171.647 116.241" fill="white"/>
<path d="M148.714 99.2711C148.714 99.2711 162.918 83.0064 180.647 66.0369C199.08 48.3626 207.05 42.2363 214.423 36.0015C221.146 30.363 230.796 27.9775 225.646 41.0977C218.544 59.26 213.447 48.8506 208.514 62.6756C203.201 77.5307 184.984 107.946 171.647 116.241" stroke="black" stroke-width="1.3" stroke-linecap="round" stroke-linejoin="round"/>
<path fill-rule="evenodd" clip-rule="evenodd" d="M138.359 122.964C151.045 139.662 183.629 115.102 183.629 115.102L157.009 87.0186C157.009 87.0186 129.413 111.145 138.359 122.964Z" fill="white" stroke="black" stroke-width="1.3" stroke-linecap="round" stroke-linejoin="round"/>
<path fill-rule="evenodd" clip-rule="evenodd" d="M122.202 109.789C122.202 109.789 130.28 140.258 121.605 173.384L181.405 162.649C181.405 162.649 176.526 121.717 142.099 105.777L122.202 109.789Z" fill="white" stroke="black" stroke-width="1.3" stroke-linecap="round" stroke-linejoin="round"/>
<path fill-rule="evenodd" clip-rule="evenodd" d="M99.9735 129.415C99.9735 129.415 81.7028 148.499 91.8411 158.095C104.419 169.968 117.431 157.987 117.431 157.987" fill="white"/>
<path d="M99.9735 129.415C99.9735 129.415 81.7028 148.499 91.8411 158.095C104.419 169.968 117.431 157.987 117.431 157.987" stroke="black" stroke-width="1.3" stroke-linecap="round" stroke-linejoin="round"/>
<path fill-rule="evenodd" clip-rule="evenodd" d="M131.798 113.692C147.683 127.409 120.033 156.198 120.033 156.198L94.7686 130.12C94.7686 130.12 99.1058 125.728 105.015 121.228C113.473 114.723 125.184 108 131.798 113.692Z" fill="white" stroke="black" stroke-width="1.3" stroke-linecap="round" stroke-linejoin="round"/>
<path fill-rule="evenodd" clip-rule="evenodd" d="M97.1543 136.571C110.491 125.295 130.117 110.982 138.304 105.126C143.021 101.765 146.165 99.7048 146.762 99.3253C154.352 94.9338 163.46 92.6568 157.496 105.452C148.009 125.674 145.135 112.445 139.497 125.999C131.852 144.487 120.142 161.673 105.829 163.191" fill="white"/>
<path d="M97.1543 136.571C110.491 125.295 130.117 110.982 138.304 105.126C143.021 101.765 146.165 99.7048 146.762 99.3253C154.352 94.9338 163.46 92.6568 157.496 105.452C148.009 125.674 145.135 112.445 139.497 125.999C131.852 144.487 120.142 161.673 105.829 163.191" stroke="black" stroke-width="1.3" stroke-linecap="round" stroke-linejoin="round"/>
</svg>
