<?xml version="1.0" encoding="UTF-8"?> <svg xmlns="http://www.w3.org/2000/svg" xmlns:xlink="http://www.w3.org/1999/xlink" width="952px" height="245px" viewBox="0 0 952 245"> <title>3</title> <g id="Main" stroke="none" stroke-width="1" fill="none" fill-rule="evenodd"> <path d="M541.002319,0.496164072 L586.291939,0.678457534 L666.271371,0.919228888 L812.805474,1.24985759 L952.000826,1.50000068 L952.000826,2.49999932 L745.46634,2.10964843 L640.627501,1.84902545 L569.791701,1.6182147 L540.997702,1.49769489 C518.09462,1.39245333 497.032777,12.1494814 475.772566,33.1947229 L475.267882,33.6959434 L474.261645,34.7051576 L473.259159,35.7238955 L472.259917,36.7527478 L471.263412,37.7923054 L470.269138,38.8431594 L469.276587,39.9059005 C469.111277,40.0840474 468.946018,40.2627143 468.780799,40.4419134 L467.789883,41.5235932 L466.799423,42.6186375 L465.808913,43.7276371 L464.817844,44.851183 L463.825711,45.989866 L462.832007,47.144277 C462.66623,47.3380224 462.500367,47.5324477 462.334407,47.7275653 L461.337394,48.9066764 L460.337543,50.1029928 L459.334346,51.3171055 L458.327297,52.5496053 L457.315887,53.8010831 L456.299612,55.0721299 L455.277963,56.3633365 C455.107212,56.5802504 454.936216,56.798029 454.764965,57.0166844 L453.734305,58.3392388 C453.561989,58.5614512 453.389397,58.7845651 453.216517,59.0085929 L452.175706,60.3638246 L451.127494,61.7415796 L450.071374,63.1424491 L449.006839,64.5670238 L447.933382,66.0158947 L446.850496,67.4896527 L445.757675,68.9888887 L444.098705,71.2868066 L442.978826,72.8523228 L441.276894,75.2524308 L440.126791,76.8879203 L438.96371,78.5524333 L437.193647,81.1049143 L435.995906,82.8445711 L434.171476,85.5125376 L432.935905,87.3310313 L431.052355,90.120023 L429.775787,92.0210468 L427.828365,94.9366036 L425.840338,97.9307585 L423.809997,101.005506 L421.735629,104.16284 L407.956205,125.324351 L405.516009,129.058976 L403.138519,132.682138 L401.587071,135.037215 L399.308282,138.481629 L397.085228,141.823009 L394.915295,145.064516 L392.795869,148.209311 L390.724336,151.260557 L388.698082,154.221413 L387.37111,156.146662 L386.062325,158.034079 L384.131556,160.796321 L382.864852,162.593258 L381.613624,164.355643 L380.377099,166.08441 L379.154502,167.780498 L377.945057,169.444843 C377.744536,169.719641 377.544531,169.993155 377.345025,170.265405 L375.562529,172.68205 L374.387897,174.256785 L373.223319,175.803524 L372.068022,177.323203 L370.921231,178.816759 L369.782171,180.285128 L368.650068,181.729247 L367.524147,183.150053 C367.336966,183.384963 367.15001,183.618941 366.963263,183.852006 L365.845163,185.239598 L364.73131,186.606218 L363.620927,187.952804 L362.513242,189.280291 C362.328809,189.499999 362.144457,189.71895 361.960168,189.937165 L360.855076,191.23776 L359.750744,192.521599 L358.646397,193.789618 L357.541263,195.042753 C357.356965,195.25042 357.172602,195.457507 356.988158,195.664032 L355.880388,196.896598 C355.695554,197.100954 355.510606,197.304788 355.325529,197.508119 L354.213382,198.722223 L353.097347,199.925191 L351.976652,201.117958 L350.85052,202.301462 C350.662335,202.497992 350.473892,202.694176 350.285174,202.890032 L349.149436,204.061397 L348.006327,205.225839 L346.85507,206.384296 C321.755581,231.487883 296.348102,244.5 268.101872,244.5 L218.751864,244.480082 L167.195921,244.420122 L98.2887437,244.285238 L51.5176992,244.162048 L3.30066923,244.011052 L0.0347877421,243.999997 L0.0347877421,243.000003 L57.8401289,243.180084 L113.55984,243.320124 L158.40234,243.406237 L207.475794,243.470218 L249.233507,243.497012 L268.101872,243.5 C296.049061,243.5 321.220407,230.608816 346.147906,205.677247 L347.295267,204.522698 L348.434571,203.362099 L349.566589,202.194516 L350.692095,201.019015 L351.811859,199.834661 L352.926655,198.640519 L354.037255,197.435656 L355.14443,196.219137 L356.248954,194.990028 L357.351597,193.747394 L358.453133,192.490302 L359.554334,191.217816 C359.737882,191.0044 359.921449,190.790304 360.10505,190.575509 L361.207195,189.278181 L362.310936,187.963125 L363.417044,186.629405 L364.526291,185.276088 L365.63945,183.902239 L366.757294,182.506923 L367.880593,181.089207 L369.010121,179.648155 L370.14665,178.182835 L371.290951,176.69231 C371.482359,176.441737 371.674122,176.190075 371.866258,175.937305 L373.023667,174.407223 L374.190779,172.849602 C374.386149,172.587652 374.581955,172.324515 374.778215,172.060172 L375.96133,170.45949 C376.159463,170.190246 376.358082,169.919757 376.557201,169.648004 L377.758057,168.002158 L378.971704,166.325036 L380.198916,164.615702 L381.440465,162.873223 L382.697122,161.096665 L383.96966,159.285092 L385.909934,156.500037 L387.225554,154.596841 L388.559757,152.655361 L389.913316,150.674662 L391.287003,148.65381 L393.386964,145.545201 L394.814351,143.41988 L396.998479,140.150186 L399.995064,135.633164 L402.309191,132.123237 L404.683374,128.505096 L407.120221,124.775588 L419.209923,106.196702 L422.290854,101.494862 L424.338985,98.3878132 L427.003382,94.3712409 L428.954072,91.4508385 L430.232817,89.5466144 L432.119633,86.7528628 L433.970414,84.0324344 L435.786878,81.3833286 L436.979637,79.6558938 L438.742722,77.1212135 L439.901485,75.46821 L441.04754,73.8439418 L442.181397,72.2478161 L443.303564,70.67924 L444.41455,69.137621 L445.514863,67.6223662 L446.605014,66.1328829 L447.68551,64.6685783 L448.75686,63.2288598 L449.819574,61.8131345 L450.874161,60.4208097 L452.441914,58.3749019 C452.61522,58.1503557 452.788241,57.9267228 452.960986,57.7039908 L453.994243,56.3783111 L455.021408,55.0736609 L456.042989,53.7894475 C456.212816,53.5770821 456.382431,53.3655435 456.551846,53.1548194 L458.071439,51.2799601 L459.079324,50.0535007 L460.083662,48.845107 L461.084961,47.6541864 L462.08373,46.4801461 L463.080478,45.3223934 L464.075714,44.1803355 L465.069948,43.0533797 L466.063686,41.9409332 L467.05744,40.8424033 L468.051717,39.7571973 L469.047026,38.6847224 L470.043877,37.6243858 L471.042778,36.5755948 L472.044238,35.5377568 L473.048766,34.5102788 L474.056871,33.4925682 L475.069061,32.4840322 C496.501589,11.2682159 517.798594,0.391082513 541.002319,0.496164072 Z" id="3" fill="#000000" fill-rule="nonzero"></path> </g> </svg> 