<?xml version="1.0" encoding="UTF-8"?> <svg xmlns="http://www.w3.org/2000/svg" xmlns:xlink="http://www.w3.org/1999/xlink" width="952px" height="122px" viewBox="0 0 952 122"> <title>2</title> <g id="Main" stroke="none" stroke-width="1" fill="none" fill-rule="evenodd"> <path d="M267.747314,0 C296.834778,0 320.18051,6.54823234 339.231932,18.9086721 C354.537096,28.8385634 366.520869,41.9546652 377.913969,59.5948926 L378.65814,60.7555715 L379.425551,61.9830301 L380.066494,63.0279631 L380.998336,64.5687525 L382.536488,67.1499126 L384.49404,70.4791143 L387.166758,75.0748723 L389.538266,79.1842344 L398.369919,94.577092 L399.116914,95.8486682 L399.499487,96.4732209 L400.168329,97.5499829 C400.279396,97.7272288 400.390265,97.9033691 400.500941,98.0784067 L401.16274,99.1154205 L401.820232,100.126096 L402.473727,101.110563 C402.582327,101.272464 402.690774,101.433278 402.799073,101.593008 L403.447154,102.538403 C403.55489,102.693808 403.662493,102.848135 403.769967,103.001385 L404.413332,103.907998 C404.627311,104.205912 404.84083,104.499545 405.053941,104.788917 L405.692105,105.64427 C413.336635,115.755643 420.519916,120.372805 429.654735,120.497406 L430.036488,120.5 L952,120.5 L952,121.5 L430.036488,121.5 C420.600588,121.5 413.230962,116.993561 405.530081,107.077168 L404.887522,106.238259 C404.673046,105.954436 404.458263,105.666419 404.243122,105.374188 L403.596572,104.484839 L402.947563,103.570095 L402.295787,102.62984 C402.18691,102.470999 402.077904,102.31109 401.968765,102.15011 L401.31226,101.171371 C401.202557,101.006101 401.092706,100.839756 400.982701,100.672333 L400.320774,99.6548488 L399.654847,98.6113886 L398.984612,97.5418366 L398.143816,96.1701117 L396.982665,94.1753362 L388.678088,79.6947103 L387.099012,76.9557093 L385.075027,73.4617264 L382.48221,69.0256352 L380.883251,66.3241444 L379.665037,64.2936858 L378.576188,62.5107749 L378.182225,61.8767593 L377.640608,61.0193197 C366.147552,43.0419545 354.11271,29.7552534 338.687656,19.7475779 C320.017252,7.63434098 297.172044,1.14835956 268.730285,1.0025151 L267.747314,1 L0.0364880274,1 L0.0364880274,0 L267.747314,0 Z" id="2" fill="#000000" fill-rule="nonzero"></path> </g> </svg> 