<?xml version="1.0" encoding="UTF-8"?> <svg xmlns="http://www.w3.org/2000/svg" xmlns:xlink="http://www.w3.org/1999/xlink" width="952px" height="124px" viewBox="0 0 952 124"> <title>1</title> <g id="Main" stroke="none" stroke-width="1" fill="none" fill-rule="evenodd"> <path d="M78.2220443,0.763954147 L107.332883,0.750099974 L133.024471,0.763953462 L157.178882,0.796674315 L184.724027,0.854815184 L210.651698,0.927804977 L232.001812,1.00000328 C263.002763,1.11232557 288.373907,7.19302079 311.316626,18.9268774 L312.400744,19.4853688 L314.006017,20.327708 L315.063483,20.893133 L316.111753,21.4622886 L317.151663,22.0357214 L318.184048,22.6139786 L319.209747,23.1976068 L320.229596,23.787153 L321.24443,24.3831641 C321.413198,24.4830684 321.581792,24.5832649 321.750229,24.6837649 L322.759111,25.2904987 L323.765071,25.9050645 C323.932534,26.0081752 324.09991,26.111635 324.267216,26.2154554 L325.270361,26.8427947 L326.272674,27.4793333 L327.274993,28.125618 L328.278154,28.7821957 L329.282993,29.4496133 L330.290347,30.1284177 L331.301053,30.8191556 L332.825226,31.8788345 L333.847971,32.6017992 L334.876996,33.3386115 L335.913137,34.0898185 L336.95723,34.8559669 L338.010113,35.6376036 L339.072621,36.4352755 L340.145592,37.2495296 L341.229861,38.0809126 L342.326267,38.9299714 L343.995458,40.2378981 L345.69666,41.5886717 L346.849973,42.5139027 L348.019604,43.4595438 L349.806476,44.9174711 L351.634771,46.4243975 L353.50731,47.9821688 L354.781645,49.0498416 L356.7342,50.696456 L358.738529,52.3988371 L360.797456,54.1588308 L363.632501,56.5982985 L371.235468,63.1877586 L374.192521,65.7352893 L376.34249,67.5750605 L378.437507,69.3561202 L380.480433,71.0803042 L381.814857,72.1990692 L383.777325,73.8325402 L385.695333,75.4140313 L387.571745,76.9453783 L388.800989,77.9393251 L390.013866,78.9123457 L391.804347,80.3338296 L393.56277,81.7112891 L394.718655,82.6060442 L395.862412,83.4825928 L396.994889,84.3414789 L398.116935,85.1832465 L399.229396,86.0084396 L400.881972,87.216342 L402.517754,88.3900115 L403.600358,89.1543462 L404.677618,89.9048262 C404.856763,90.0287819 405.035721,90.152183 405.214509,90.2750408 L406.285342,91.0057588 L407.352951,91.723982 L408.418183,92.4302545 L409.481887,93.1251202 L410.54491,93.8091231 L411.6081,94.4828072 L412.672306,95.1467164 L413.738375,95.8013947 L414.807156,96.447386 L415.879495,97.0852344 L416.956242,97.7154838 L418.038244,98.3386782 L419.126349,98.9553616 L420.221405,99.5660779 L421.32426,100.171371 C421.508766,100.271832 421.693632,100.372089 421.878877,100.472154 L422.99502,101.070333 L424.121082,101.664448 L425.257911,102.255044 L426.406355,102.842665 L427.567262,103.427855 C452.473735,115.890588 480.472177,122.384104 515.001678,122.500003 L582.560016,122.664035 L665.907828,122.744071 L685.747312,122.7491 L759.502428,122.732204 L865.996115,122.631044 L952.000868,122.500001 L952.000868,123.499999 L838.816123,123.664034 L733.205193,123.744071 L711.96668,123.7491 L642.910185,123.732204 L564.552799,123.631043 L514.998322,123.499997 C480.316529,123.383587 452.165966,116.854791 427.119775,104.322145 L425.953057,103.734031 L424.798907,103.143507 L423.656477,102.550027 L422.524914,101.953047 L421.403369,101.352022 L420.29099,100.746406 L419.186928,100.135654 L418.090332,99.5192217 L417.000351,98.8965637 L415.916134,98.2671348 L414.836832,97.6303901 C414.65731,97.523626 414.477958,97.4165344 414.298758,97.3091039 L413.225232,96.6603634 L412.154493,96.0029443 L411.085692,95.3363015 L410.017977,94.6598901 L408.950498,93.9731649 L407.882405,93.2755809 L406.812846,92.566593 L405.740972,91.8456561 L404.665931,91.1122251 L403.586874,90.3657551 L402.502949,89.6057008 L401.413306,88.8315173 L400.317095,88.0426595 L399.213464,87.2385823 L398.101564,86.4187406 L396.980543,85.5825894 L395.849552,84.7295836 L394.707739,83.8591781 L392.97287,82.5197531 L391.208867,81.1381128 L389.412862,79.7124176 L387.581983,78.2408279 L386.340604,77.2333627 L385.0816,76.2041373 L383.158185,74.6183064 L381.190327,72.9804489 L379.175156,71.2887252 L377.1098,69.5412958 L374.272968,67.1215569 L370.583924,63.9463768 L363.706353,57.9837267 L360.154681,54.924969 L358.101033,53.1694491 L355.447248,50.9179604 L353.516569,49.2938601 L352.256296,48.2408255 L350.404073,46.7044578 L348.59517,45.2182744 L346.826774,43.7804338 L345.668957,42.847821 L344.527059,41.9353298 L343.400246,41.0424146 L341.736487,39.738553 L340.101978,38.475668 L339.027166,37.6556002 L337.435155,36.4569173 L336.386069,35.6779458 L335.345815,34.9144579 L334.313559,34.165908 L333.288466,33.4317505 L332.269703,32.7114397 L331.256437,32.0044301 L329.745018,30.9676617 L328.741845,30.2915177 L327.741249,29.6267651 L326.742397,28.9728583 L325.744456,28.3292515 L324.746591,27.6953993 C324.580241,27.5905398 324.413859,27.4860641 324.247427,27.3819606 L323.248114,26.761717 L322.246793,26.1498639 L321.242631,25.5458554 L320.234793,24.9491461 L319.222446,24.3591903 L318.204755,23.7754423 L317.180888,23.1973566 L316.150011,22.6243874 L315.111289,22.0559892 L314.063889,21.4916162 L313.006977,20.930723 L311.939719,20.3727637 L310.861281,19.8171929 C288.059344,8.15533776 262.843042,2.11175343 231.998188,1.99999672 L202.782008,1.90389091 L162.109691,1.80551871 L137.78724,1.76896359 L112.00785,1.75090007 L89.1762817,1.75478373 L67.4823196,1.77791577 L42.5642054,1.8309851 L24.6736017,1.88890737 L3.73617748,1.9807936 L0.0338274578,1.99999292 L0.0338274578,1.00000708 L20.7865323,0.903897287 L42.5609652,0.83099025 L63.2425287,0.784845723 L78.2220443,0.763954147 Z" id="1" fill="#000000" fill-rule="nonzero"></path> </g> </svg> 