<?xml version="1.0" encoding="UTF-8"?> <svg xmlns="http://www.w3.org/2000/svg" xmlns:xlink="http://www.w3.org/1999/xlink" width="952px" height="137px" viewBox="0 0 952 137"> <title>4</title> <g id="Main" stroke="none" stroke-width="1" fill="none" fill-rule="evenodd"> <path d="M32.197524,0.764863855 L71.1014775,0.764863855 L112.228662,0.849901708 L158.079458,0.99492016 L159.501792,1.00000321 C189.561022,1.10774239 212.862815,7.32715277 232.588596,19.3817382 L233.603234,20.0075533 L234.605522,20.6374471 L235.596257,21.2720593 L236.576234,21.9120296 L237.546249,22.557998 L238.507096,23.210604 L239.459572,23.8704874 L240.404472,24.538288 L241.342591,25.2146456 L242.274726,25.9001999 C242.584528,26.1303219 242.893466,26.3620833 243.201671,26.5955907 L244.124223,27.3014576 C244.431096,27.5385637 244.73737,27.7775225 245.043176,28.0184406 L245.959327,28.7471792 L246.873471,29.4883133 C247.025705,29.6129042 247.177889,29.7380382 247.330039,29.8637286 L248.242664,30.6246555 L249.155271,31.3995772 L250.068655,32.1891336 L250.983612,32.9939643 L251.900938,33.8147091 L252.821428,34.6520078 C252.97515,34.7929727 253.129038,34.9346539 253.283108,35.0770648 L254.209835,35.9403939 C254.364697,36.085777 254.519774,36.2319166 254.675081,36.3788259 L255.609837,37.2696247 L256.550938,38.1795365 C256.708361,38.3328167 256.866082,38.48692 257.024117,38.6418596 L257.97623,39.5816402 L258.936678,40.5421331 L259.906256,41.523978 L260.885761,42.5278146 L261.875988,43.5542829 L263.383171,45.1378188 L264.403683,46.2236647 L265.960024,47.8992661 L267.549438,49.6329857 L269.174612,51.4269826 L270.279253,52.6575342 L271.969992,54.5567915 L273.70365,56.522084 L276.086598,59.2489272 L284.026238,68.4212827 L285.394182,69.9901326 L286.742361,71.5261845 L288.071662,73.0300797 L289.38297,74.5024592 L290.677173,75.9439644 L291.955157,77.3552364 L293.217807,78.7369165 L294.466009,80.0896458 C294.879768,80.5358016 295.291266,80.9772392 295.700651,81.4140655 L296.922619,82.7108168 L298.132798,83.980541 C298.333561,84.1899451 298.53387,84.3982497 298.733743,84.6054683 L299.927901,85.835854 L301.112487,87.0408156 L302.288385,88.2209942 L303.456484,89.377031 C303.650566,89.5677277 303.84436,89.7574451 304.037885,89.9461967 L305.195944,91.0672232 C305.388464,91.2521649 305.580751,91.4361675 305.772824,91.6192444 L306.922839,92.7067032 C307.305419,93.0655577 307.68729,93.4208161 308.068599,93.7725851 L309.210989,94.8175313 L310.350897,95.842183 C310.730551,96.1804224 311.109938,96.5153862 311.489208,96.8471813 L312.626808,97.8331675 C318.124922,102.553855 323.629199,106.630794 329.589941,110.389784 L330.829858,111.163076 C332.699948,112.31653 334.616993,113.441525 336.594452,114.547799 C360.994511,128.19822 390.873045,135.35606 429.817099,135.497851 L431,135.5 L952,135.5 L952,136.5 L431,136.5 C391.313247,136.5 360.909195,129.296342 336.10622,115.420513 C334.779341,114.678201 333.47956,113.927581 332.202871,113.165761 L330.933732,112.400102 C330.723442,112.271834 330.513757,112.143229 330.304658,112.014272 L329.056943,111.236209 L327.822399,110.449075 C327.41298,110.185113 327.005609,109.919533 326.600136,109.652226 L325.389264,108.845021 C324.786528,108.438722 324.187729,108.028299 323.592368,107.61339 L322.406082,106.777483 C320.239082,105.233629 318.113811,103.626227 316.005597,101.937465 L314.857205,101.008146 C313.901374,100.226812 312.94814,99.427998 311.995186,98.6100326 L310.851628,97.6191742 C309.326667,96.2854871 307.800051,94.9010587 306.262287,93.4590374 L305.106725,92.3666157 C304.913734,92.1827099 304.720531,91.9978775 304.527099,91.8121051 L303.363599,90.686083 C302.780322,90.1173247 302.194643,89.5398653 301.606062,88.9533433 L300.424882,87.768109 L299.235073,86.5580657 L298.035745,85.322571 C297.835014,85.1144986 297.633849,84.905339 297.432233,84.6950787 L296.216958,83.4202027 L294.98994,82.1182696 L293.750288,80.788637 C293.542577,80.5646875 293.334303,80.3395572 293.125447,80.1132326 L291.865177,78.7408464 L290.59005,77.3391548 C290.376241,77.1030618 290.161776,76.8657209 289.946636,76.6271188 L288.647554,75.1802649 L287.331389,73.7024999 L285.997253,72.1931814 L284.644255,70.651667 L275.334818,59.908356 L273.546086,57.858875 L272.379589,56.5309162 L270.66685,54.5949259 L268.996145,52.7241598 L267.904374,51.5121551 L266.829306,50.3275443 L265.770149,49.1696896 L264.726111,48.0379531 L263.696401,46.9316972 L262.680226,45.8502838 L261.676796,44.7930753 L260.685318,43.7594337 L259.705001,42.7487212 L258.735054,41.7603 L257.774684,40.7935323 L256.8231,39.8477801 L255.87951,38.9224058 L254.943123,38.0167715 L254.013147,37.1302393 C253.858641,36.9840403 253.70437,36.8386107 253.550316,36.6939371 L252.628472,35.8348621 C252.475223,35.6931597 252.322158,35.5521867 252.169261,35.4119299 L251.253769,34.578877 C251.101479,34.4414318 250.949324,34.3046763 250.797288,34.168597 L249.886365,33.3601312 C249.734738,33.2267041 249.583196,33.0939268 249.431724,32.9617859 L248.523589,32.176472 L247.616324,31.4057954 L246.709137,30.6491182 C246.25543,30.2741732 245.801456,29.9042388 245.346769,29.5389562 L244.436313,28.8144872 C243.980477,28.4552476 243.523631,28.1004207 243.065331,27.7496476 L242.146657,27.0534003 L241.223311,26.3673254 C241.068987,26.2537919 240.914435,26.1406557 240.759639,26.0279034 L239.827801,25.3558913 L238.889311,24.6924572 L237.943378,24.0369631 L236.989211,23.3887712 L236.026018,22.7472437 L235.053006,22.1117428 L234.069385,21.4816307 L233.074363,20.8562694 L232.067147,20.2350212 C212.502066,8.2786404 189.379619,2.10709862 159.498215,1.99999679 L101.679104,1.82296947 L62.6902726,1.75577965 L54.7753552,1.75090316 L32.2113787,1.76486386 L11.4148601,1.84983794 L4.08788904,1.92482709 L0.0232208442,1.99984366 L-0.00178473916,1.00015634 L2.35356232,0.95165264 L7.41941097,0.884909454 L15.0270745,0.825803584 L25.8502708,0.779974268 L32.197524,0.764863855 Z" id="4" fill="#000000" fill-rule="nonzero"></path> </g> </svg> 