<?xml version="1.0" encoding="UTF-8"?> <svg xmlns="http://www.w3.org/2000/svg" xmlns:xlink="http://www.w3.org/1999/xlink" width="952px" height="71px" viewBox="0 0 952 71"> <title>5</title> <g id="Main" stroke="none" stroke-width="1" fill="none" fill-rule="evenodd"> <path d="M150,0 C165.013473,0 179.504747,2.82668375 194.608829,8.31650273 C195.05295,8.47792554 195.496405,8.64102813 195.939451,8.80591528 L197.267621,9.30603518 C197.488864,9.39031571 197.710069,9.47506857 197.931269,9.56030686 L199.25866,10.0776666 C199.479966,10.164899 199.701331,10.2526431 199.922788,10.3409118 L201.252876,10.876926 C201.474826,10.9673461 201.696931,11.0583171 201.919223,11.1498521 L203.255488,11.7059353 L204.597801,12.2761836 C204.82211,12.3724404 205.046736,12.4693136 205.27171,12.5668163 L206.625996,13.1594913 L207.990195,13.7679033 L209.365854,14.3926809 L210.754517,15.034453 C210.98713,15.1428661 211.22035,15.2520136 211.454208,15.3619084 L212.865277,16.0303508 L214.293214,16.7173594 L215.739566,17.4235628 L217.205878,18.1495898 L218.693696,18.896069 L220.204566,19.6636292 L221.740032,20.452899 L223.301642,21.2645072 C223.564174,21.4016717 223.827861,21.5397931 224.092733,21.6788846 L225.696455,22.5251791 L227.330183,23.3953838 L229.84042,24.7468975 L232.426867,26.1557455 L234.19608,27.1278776 L239.047252,29.8208529 L249.13273,35.4710922 L252.262532,37.2151914 L254.52076,38.466149 L256.706987,39.6701419 L259.51678,41.2055088 L262.214954,42.6648214 L264.810873,44.0523303 L267.313898,45.372286 L269.135838,46.320478 L271.49883,47.5324436 L272.654561,48.1172117 L274.359243,48.96934 L276.03274,49.7930334 L277.679,50.5900852 L279.301973,51.3622886 L280.37297,51.8641717 L281.436542,52.3563395 L282.493862,52.8393231 L284.070676,53.5477407 L285.117483,54.0100887 L286.684014,54.6900433 L287.727623,55.1350764 L289.294843,55.7915492 L290.867743,56.436324 L292.450273,57.0711938 L294.046382,57.697952 L295.11995,58.1121699 C313.559293,65.1773981 331.418089,68.8846271 350.347164,69 L363.347533,69.0649496 L377.636419,69.1170187 L401.205183,69.1812834 L442.041102,69.2600171 L482.711607,69.3161415 L552.992082,69.3840317 L687.733166,69.4580661 L863.934612,69.496128 L952,69.5 L952,70.5 L734.44504,70.4730879 L590.02398,70.4101113 L508.126015,70.3440931 L463.825474,70.292114 L414.921025,70.211196 L377.631335,70.1170063 L357.286235,70.0376545 L350.341069,70 C331.65847,69.8861109 314.013931,66.2971698 295.852475,59.4600906 L294.222128,58.8383354 L293.148281,58.4211087 L291.550829,57.7893759 L289.965838,57.1489748 L288.389347,56.4981082 L287.341119,56.0574956 L285.769994,55.3851934 L284.196806,54.6976338 L282.617597,53.9930199 L281.028405,53.2695546 L279.425268,52.5254411 L278.346809,52.0170067 L276.711632,51.2344861 L275.05195,50.4265252 L273.363801,49.5913272 L271.643226,48.7270949 L269.886264,47.8320315 L268.088953,46.9043399 L266.247334,45.9422232 L264.357445,44.9438845 L263.068747,44.2573145 L260.417016,42.8313527 L257.65835,41.3314122 L254.78336,39.7532335 L251.782657,38.0925571 L247.840694,35.8942101 L236.520311,29.5578556 L233.714449,28.004253 L231.081146,26.5597483 L228.527536,25.1739404 L226.048422,23.8447122 L224.4345,22.988948 L222.849838,22.1567621 L221.292896,21.3475275 L219.762133,20.5606169 L218.256011,19.7954031 L216.772989,19.0512587 C216.527658,18.9289556 216.283225,18.8075043 216.039659,18.6868916 L214.5884,17.9731755 L213.156391,17.2789607 L211.742093,16.6036201 C211.507767,16.4926014 211.274115,16.3823429 211.041104,16.2728317 L209.650485,15.6246263 L208.273726,14.9937269 L206.909288,14.3795064 C206.682823,14.2784914 206.456807,14.1781452 206.231208,14.0784547 L204.882365,13.4880764 C204.658306,13.3909566 204.4346,13.2944665 204.211216,13.1985929 L202.874501,12.6306454 L201.543948,12.0768678 L200.218017,11.5366329 L198.895167,11.0093133 L197.573859,10.4942818 L196.252552,9.99091129 L194.929708,9.49857441 C194.70902,9.41740289 194.488204,9.33666497 194.267227,9.25634759 C179.608389,3.92835938 165.544017,1.1288426 151.014458,1.0043439 L150,1 L0.0364880274,1 L0.0364880274,0 L150,0 Z" id="5" fill="#000000" fill-rule="nonzero"></path> </g> </svg> 