<?xml version="1.0" encoding="UTF-8"?> <svg xmlns="http://www.w3.org/2000/svg" xmlns:xlink="http://www.w3.org/1999/xlink" width="427px" height="982px" viewBox="0 0 427 982"> <title>Illustration</title> <g id="Main" stroke="none" stroke-width="1" fill="none" fill-rule="evenodd"> <g id="Main-1200-(4)-1-Copy-3" transform="translate(-54.000000, -171.000000)" stroke="#000000"> <g id="Illustration" transform="translate(55.000000, 171.750000)"> <path d="M90.5,566 C89.0544472,575.474678 89.7869377,581.270329 92.6974716,583.386951 C97.0632725,586.561886 103.123817,575.635309 107.272209,577.365677 C111.420601,579.096045 109.880409,589.65365 113.584473,591.923798 C117.288536,594.193945 125.780945,590.304699 129.104401,588.308678" id="Path-12"></path> <g id="Group-14" transform="translate(313.250000, 623.750000)"> <path d="M26.5747978,49.495334 C51.8298599,89.2793687 107.038151,46.0939219 80.1500389,14.3331102 C53.098382,-17.6208837 10.8514862,8.62629393 25.2772781,46.3145431" id="Path"></path> <path d="M23.122533,22.6540865 C17.0191471,23.6970237 11.5665502,24.7808263 6.32036895,27.2743181 C-5.86476491,33.06587 0.36226005,41.2672931 18.1989586,41.2672931 C40.7226475,41.2672931 57.4810898,39.9039091 73.2621605,36.7586435 C82.1668048,34.9838925 128.449192,20.9867301 86.0760986,18.3742765" id="Path-16"></path> </g> <path d="M306.775583,91.0315368 C314.427028,81.0174372 322.65558,72.597058 331.088192,60.1499613 C331.957875,58.8662516 311.154979,59.0034602 294.294823,59.0034602 C315.461113,36.0658425 318.978957,31.5235725 329.100305,23.0092114 C340.140134,13.7221989 352.628281,0.182324568 348.333045,0.182324568 C345.469554,0.182324568 331.001642,0.703269558 304.929307,1.74515954 C280.34822,33.3954215 280.34822,33.3954215 254.088377,65.9509981 C252.349407,68.1068815 247.629772,73.2805292 250.394876,73.4795518 C265.070591,74.5358586 276.991073,74.5358586 291.203707,75.1726741 C292.498991,75.230711 290.001797,78.0177769 289.240401,79.0668327 C284.875498,85.0808242 278.034409,96.8146516 274.369992,103.279013 C267.485902,115.42317 243.108524,154.999913 239.799278,168.489472 C239.150741,171.13312 241.789268,168.971404 244.811706,166.003755 C247.094435,163.762406 249.596154,161.061336 251.066141,159.623561 C255.759395,155.033152 282.561706,121.94445 298.823994,101.259947" id="Path"></path> <path d="M175.866513,239.466444 C167.885825,238.361179 158.350195,240.622365 147.259622,246.25 C145.318536,228.243245 141.731996,211.950272 136.5,197.371081 C140.707506,199.644259 149.306812,217.778439 151.433893,217.778439 C153.560974,217.778439 166.91038,181.456046 174.54088,175 C174.54088,186.27206 171.477097,209.451013 174.54088,212.058564 C177.604663,214.666115 191.469325,197.207606 199.5,193.780408 C196.640341,202.004792 183.125428,231.507736 181.652559,237.808547" id="Path-10" stroke-linecap="round" stroke-linejoin="round"></path> <g id="Group-16" transform="translate(71.603727, 852.009460) scale(-1, 1) translate(-71.603727, -852.009460) translate(46.603727, 787.509460)"> <path d="M3.81564573,23.6671379 C2.10207693,30.8592333 -2.93662242,43.5444443 2.35409788,51.2929695 C11.5385788,64.7441023 31.704066,54.7171465 39.0910974,45.907769 C43.7213314,40.3860001 48.6024514,31.7537904 49.5163904,24.0314148 C51.5577856,6.78253859 41.4913306,-8.52025555 19.100329,7.13546063 C16.2041124,9.16048588 14.2043939,12.2330101 11.7564264,14.7817848" id="Path-13"></path> <path d="M39.1306482,12.1409919 C41.5289403,16.0923075 42.2095632,20.404756 41.172517,25.0783374 C40.4979242,28.1184757 38.8653055,31.7329757 36.2746606,35.9218376" id="Path-14"></path> <path d="M26.0402357,73.1020381 C21.5571133,78.8529753 15.3459291,87.6024667 19.0549488,95.5819856 C23.2668128,104.643315 35.4495183,100.182467 42.0821875,93.8692886 C47.0234081,89.1660831 50.1413098,81.7771515 49.2797602,75.8563684 C48.2621106,68.862827 42.084841,63.9897823 32.4545467,69.0494753" id="Path-19"></path> <path d="M9.46643901,115.003857 C7.40173003,117.847737 6.11985719,120.479288 6.80117723,123.898558 C7.35865455,126.696311 10.2460037,128.654576 12.8188389,128.084501 C16.4658356,127.276419 18.3812391,125.382039 19.6907866,121.91807 C21.9349567,115.98187 14.7564368,111.891746 11.2753963,115.003857" id="Path-22"></path> </g> <path d="M292.353786,456.171433 C316.632288,461.414197 298.804003,439.927975 293.504464,443.336301 C286.451337,447.872423 305.964781,457.286556 315.455406,451.1852 C331.60312,440.804119 305.09998,425.632152 295.719483,429.138344 C294.253486,429.686297 294.202569,430.996726 294.253486,432.096347 C294.830068,444.548308 327.096587,450.169499 330.956003,435.819223 C333.912486,424.826281 316.606302,414.987911 305.342993,412.476962 C302.614152,411.868617 299.454001,411.385824 298.042055,412.476962 C296.630108,413.5681 295.976781,415.987132 299.454001,418.927857 C302.931221,421.868582 306.738934,423.980927 310.730924,426.157103 C320.5,431.482576 326.493019,431.611656 332.743301,430.375 C338.993584,429.138344 346.279306,421.682896 347.493566,418.499016 C349.245493,413.905328 349.493051,408.533498 348.111731,403.75" id="Path-17"></path> <path d="M5.91977384,414.75 C9.18292013,409.265865 24.6009948,384.976714 11.7529871,378.824234 C-2.28281409,372.102959 -6.25433639,402.903986 13.9288805,400.254464 C60.4586802,394.146334 82.7614061,311.210092 42.0265202,298.97967 C38.022586,297.777511 31.7979654,298.97967 28.21072,300.981661 C-1.66713242,317.656066 26.3518392,361.65909 62.6528782,359.028894 C75.7295549,358.081422 90.8050697,348.118398 93.6117976,334.492433 C94.2516109,331.386299 93.6117976,321.101713 87.0644425,321.101713 C74.2758591,321.101713 83.3252763,350.734351 95.9565783,350.078755 C111.179011,349.288674 120.894889,334.509416 130.5,325.564352" id="Path-15"></path> <g id="Group-13" transform="translate(371.397130, 929.632869) rotate(35.000000) translate(-371.397130, -929.632869) translate(326.397130, 900.132869)"> <path d="M7.38860748,40.7491071 C7.13610643,40.9026575 5.228968,42.4708441 5.03201506,42.6911712 L4.45649605,43.3349922 C3.84383804,44.0203598 2.86423339,44.7837171 2.98292424,45.6279402 C3.07815418,46.3052908 4.14388281,47.0794348 4.69377791,47.5709923 C4.8016412,47.6674126 4.91633807,47.7559039 5.03697058,47.8357734 L17.8523271,56.3206924 L9.91713186,43.2719118 L9.8319094,43.1317704" id="Path" transform="translate(10.412693, 48.534900) rotate(-22.000000) translate(-10.412693, -48.534900) "></path> <path d="M20.8733776,15.9981587 C20.6198713,15.2094724 19.7750073,14.7756233 18.986321,15.0291296 C18.8824564,15.0625147 18.7825439,15.1071315 18.6883569,15.1621881 L13.9045494,17.9585437 C12.1165491,19.0037121 10.7467288,20.214788 11.7918972,22.0027883 C11.880634,22.1545929 12.7475742,23.3856294 12.8567106,23.5234994 L30.4265671,45.7191925 L22.6006446,21.371878" id="Path"></path> <path d="M43.440428,2.04416673 L35.4967107,4.16880585 C34.516076,4.6554164 34.0279944,5.77720946 34.3404104,6.82641416 C37.6738776,18.021389 41.0073448,29.2163639 44.340812,40.4113388 C44.3216029,28.9153062 44.3023939,17.4192737 44.2831848,5.9232411 C44.283038,5.83539337 44.2828913,5.74754565 44.2827445,5.65969792" id="Path" transform="translate(39.293674, 21.227753) rotate(4.000000) translate(-39.293674, -21.227753) "></path> <path d="M61.3193725,3.99255055 L61.2051193,7.13828015 L58.1765671,36.7191925 L69.4194088,3.65201097 C69.8833241,2.28755422 69.153291,0.805365832 67.7888343,0.341450538 C67.329763,0.185366311 61.5760476,1.62796121 61.1035133,1.73668095" id="Path"></path> <path d="M81.5786018,23.0845659 L73.1765671,37.4691925 L73.1765671,37.4691925 L87.2641533,24.1633585 C88.0011666,23.4672438 88.0343214,22.3054639 87.3382066,21.5684507 C87.1012725,21.317596 86.7984296,21.1386036 86.4644142,21.0520038 C84.5644342,20.5593981 82.568567,21.3897051 81.5786018,23.0845659 Z" id="Path-21"></path> </g> </g> </g> </g> </svg> 