<?xml version="1.0" encoding="UTF-8"?> <svg xmlns="http://www.w3.org/2000/svg" xmlns:xlink="http://www.w3.org/1999/xlink" width="1231px" height="905px" viewBox="0 0 1231 905"> <title>Group 23</title> <g id="Main" stroke="none" stroke-width="1" fill="none" fill-rule="evenodd"> <g id="Group-23" transform="translate(0.498523, 0.499039)" fill="#000000" fill-rule="nonzero"> <path d="M262.007197,592.425549 L262.995757,592.576374 C262.937275,592.959685 262.881499,593.338372 262.828425,593.712436 L262.677302,594.820753 L262.542363,595.901322 C262.521221,596.079105 262.500752,596.255731 262.480955,596.4312 L262.370247,597.470141 C262.35314,597.640985 262.336705,597.810673 262.320941,597.979203 L262.234407,598.976508 C262.195164,599.468221 262.161953,599.949523 262.134759,600.420412 L262.088393,601.348307 C261.781586,608.660394 263.013018,613.306584 265.725513,615.279187 C267.468885,616.547016 269.421647,616.089606 272.435566,613.949089 L272.947857,613.576759 L273.480676,613.173304 L274.034898,612.738767 L274.782197,612.134148 L276.401474,610.80423 L276.969364,610.346861 L277.7699,609.716938 L278.271514,609.333851 L278.749164,608.979802 L279.204305,608.654409 L279.638394,608.357285 C279.709068,608.310099 279.778926,608.264075 279.847998,608.219205 L280.253235,607.963765 C282.23467,606.755158 283.563037,606.570613 285.056907,607.193733 C286.604419,607.839228 287.563403,608.970172 288.348583,611.160901 L288.50869,611.629466 L288.664654,612.129404 L288.81729,612.661847 C288.842497,612.753359 288.8676,612.846272 288.892615,612.940611 L289.04179,613.523929 L289.189679,614.142578 L289.337096,614.797687 L289.48486,615.490387 L289.633785,616.221808 L289.784688,616.993081 L290.031188,618.281252 L290.176122,619.010502 L290.318356,619.69759 L290.528347,620.65229 L290.667235,621.240218 L290.806145,621.790979 L290.945854,622.306001 C290.992644,622.471876 291.039696,622.632034 291.087141,622.78671 L291.230782,623.234535 C291.254962,623.306511 291.279272,623.377176 291.303728,623.446561 L291.452359,623.847734 C292.004744,625.264083 292.643813,626.089209 293.542048,626.63972 C296.548215,628.48214 302.902613,627.089122 308.946711,624.326343 L309.700342,623.973996 L310.449153,623.608191 C310.822089,623.422059 311.192622,623.231183 311.559859,623.03602 L312.289673,622.640111 C312.531302,622.506325 312.771202,622.370769 313.009108,622.233577 L313.716578,621.817229 L314.231444,622.6745 C312.428221,623.757491 310.506305,624.751903 308.568101,625.600083 L307.792194,625.931419 C301.970013,628.355897 296.124127,629.395095 293.0195,627.49233 C291.660672,626.659531 290.841929,625.43536 290.129845,623.097955 L289.983896,622.598233 L289.840139,622.065321 L289.697719,621.497799 L289.555784,620.894246 L289.413481,620.253242 L289.197469,619.218405 L288.655909,616.432881 L288.438136,615.377438 L288.294461,614.722788 C288.270565,614.616866 288.246685,614.512521 288.222804,614.409729 L288.079397,613.811431 L287.935264,613.249273 C287.887019,613.067784 287.838531,612.892128 287.789681,612.722115 L287.641922,612.228817 C287.617074,612.149359 287.592105,612.071264 287.567,611.994509 L287.414621,611.54986 C286.720486,609.619564 285.905273,608.631108 284.671937,608.116662 C283.656683,607.693181 282.650981,607.79674 281.216067,608.578086 L280.863222,608.7787 C280.802967,608.81433 280.741968,608.851064 280.680198,608.888912 L280.300104,609.129434 C280.235138,609.171774 280.169345,609.215246 280.102696,609.259861 L279.692319,609.541334 L279.260069,609.850687 L278.804598,610.188382 L278.324557,610.554883 L277.8186,610.950653 L277.285378,611.376154 L276.431475,612.071166 L274.948623,613.287817 L274.374976,613.744628 C274.280972,613.818363 274.187758,613.890894 274.095318,613.962216 L273.549836,614.375615 C273.460426,614.442085 273.371756,614.507338 273.28381,614.571369 L272.76469,614.940848 C269.530259,617.187509 267.293018,617.655592 265.137365,616.08794 C261.598279,613.514216 260.376443,607.262496 261.37975,597.320392 L261.491474,596.278734 C261.531359,595.927126 261.573885,595.57113 261.61905,595.210744 L261.762456,594.11642 C261.787675,593.931838 261.813553,593.746158 261.840088,593.559381 L262.007197,592.425549 Z" id="Path-12"></path> <path d="M1108.73755,487.432423 C1089.11234,436.160369 1146.65927,401.657797 1182.74981,444.288709 C1199.39041,463.944939 1193.6227,489.389522 1173.01517,504.231406 C1163.47717,511.100826 1152.09592,514.365649 1141.28086,512.999004 C1129.41079,511.499043 1118.8433,504.597046 1110.86779,492.316193 L1110.51241,491.762709 L1111.35667,491.226771 C1119.21634,503.608027 1129.66192,510.522825 1141.40623,512.006893 C1151.95892,513.340383 1163.08998,510.147329 1172.43075,503.419955 C1192.59854,488.894778 1198.21737,464.10699 1181.98658,444.934841 C1146.98018,403.584528 1091.56844,436.183547 1109.11726,485.573211 L1109.67148,487.074948 L1108.73755,487.432423 Z" id="Path"></path> <path d="M1190.23884,450.499049 L1190.30038,449.500944 L1191.48936,449.577603 L1193.21319,449.701477 L1194.32281,449.78998 L1195.4009,449.883218 L1196.44756,449.981189 L1197.46293,450.083892 L1198.44712,450.191324 C1198.60856,450.209623 1198.76871,450.22812 1198.92756,450.246813 L1199.8652,450.361337 L1200.77197,450.480586 L1201.64797,450.60456 L1202.49332,450.733255 L1203.30815,450.866671 L1204.09258,451.004806 L1204.84672,451.147658 C1204.96989,451.17186 1205.09181,451.196258 1205.21247,451.220852 L1205.9214,451.370777 C1206.03706,451.396158 1206.15146,451.421734 1206.26462,451.447507 L1206.92861,451.604501 C1207.03679,451.631059 1207.14373,451.657814 1207.24942,451.684764 L1207.86875,451.848823 C1208.171,451.93203 1208.46213,452.017002 1208.74222,452.103739 L1209.28769,452.279565 C1211.32237,452.962581 1212.7105,453.749278 1213.48227,454.639232 C1215.33083,456.77087 1213.87289,459.184113 1209.83607,461.793146 L1209.31809,462.120288 L1208.77356,462.449433 L1208.2028,462.780543 L1207.60612,463.113581 C1205.15402,464.457196 1201.91934,465.893375 1198.35068,467.29523 L1196.99765,467.819069 L1195.61857,468.338204 L1194.2187,468.851147 L1192.80328,469.356411 L1191.37758,469.85251 C1191.1394,469.934347 1190.90101,470.01574 1190.66252,470.096658 L1189.23126,470.576221 C1188.99281,470.655116 1188.75447,470.733474 1188.51637,470.811264 L1187.09137,471.270945 C1186.85461,471.34634 1186.61831,471.421106 1186.38257,471.495211 L1184.97565,471.931665 C1184.74257,472.003003 1184.51027,472.073619 1184.27885,472.143481 L1182.90186,472.553361 C1182.67442,472.620085 1182.44809,472.685993 1182.22298,472.751054 L1180.88773,473.131016 L1179.58688,473.489174 L1178.32569,473.824041 C1177.70589,473.985403 1177.10293,474.137474 1176.51977,474.279416 L1175.38073,474.549549 C1174.64014,474.720305 1173.93826,474.872063 1173.28209,475.002842 C1171.14776,475.428227 1168.99983,475.829273 1166.83158,476.206538 L1164.96795,476.524098 L1163.09342,476.830089 L1161.20707,477.124589 C1160.89164,477.172719 1160.57567,477.220374 1160.25916,477.267555 L1158.35329,477.544967 L1156.43324,477.811085 L1154.49806,478.065987 C1154.17422,478.10754 1153.84971,478.14863 1153.52451,478.189257 L1151.56488,478.427482 C1151.23685,478.466266 1150.90809,478.50459 1150.57858,478.542457 L1148.59238,478.764183 L1146.58731,478.975006 L1144.5624,479.175006 C1143.88402,479.239877 1143.20219,479.302958 1142.51673,479.36426 L1140.44935,479.542848 C1140.10293,479.571729 1139.75556,479.600168 1139.40723,479.628167 L1137.30552,479.790902 C1136.601,479.843398 1135.89246,479.894148 1135.17976,479.943167 L1133.029,480.085039 C1132.6684,480.107823 1132.30673,480.130177 1131.94395,480.152103 L1129.75392,480.278534 L1127.53655,480.39477 C1127.16466,480.413297 1126.79158,480.431403 1126.41731,480.449089 L1124.15715,480.550178 C1123.77801,480.56619 1123.39763,480.581786 1123.01599,480.596967 L1120.71092,480.683085 L1118.37474,480.759322 L1116.00651,480.825754 C1115.60908,480.836014 1115.21027,480.845868 1114.81008,480.855319 L1112.392,480.907193 L1109.93952,480.949459 C1109.52785,480.955707 1109.11472,480.961559 1108.70009,480.967014 L1106.19424,480.995017 L1103.65163,481.013607 C1103.22475,481.015926 1102.7963,481.017856 1102.36625,481.019398 L1099.76675,481.024019 C1097.5198,481.024019 1095.38332,480.925823 1093.37546,480.737009 L1092.38233,480.635086 C1084.68811,479.778083 1079.01344,477.550353 1076.44934,474.407204 C1073.01738,470.200205 1075.68934,465.229224 1083.714,461.415132 L1084.47442,461.060385 L1085.23415,460.719529 L1085.99539,460.391811 C1086.24964,460.284678 1086.5045,460.17961 1086.76036,460.076481 L1087.53126,459.772786 L1088.31031,459.479975 C1088.70224,459.336165 1089.09806,459.196155 1089.49901,459.059521 L1090.3081,458.79063 C1090.44421,458.746524 1090.58099,458.702761 1090.71847,458.659327 L1091.55222,458.402534 C1091.83322,458.318165 1092.11742,458.234984 1092.40518,458.152866 L1093.27956,457.909571 L1094.17756,457.671899 C1094.32932,457.632713 1094.48215,457.593731 1094.63611,457.554936 L1095.5737,457.324286 L1096.54044,457.097379 L1097.53854,456.873464 L1098.57023,456.651787 L1099.6377,456.431598 L1100.74317,456.212144 L1101.88885,455.992675 L1103.6876,455.661796 L1105.58926,455.326654 L1106.2473,455.213554 L1106.41574,456.199266 L1105.12239,456.422887 L1103.87688,456.643808 L1102.67702,456.862767 L1101.52061,457.080505 L1100.40547,457.297762 L1099.32941,457.515277 L1098.29023,457.733791 L1097.28573,457.954044 L1096.31374,458.176775 L1095.37206,458.402725 L1094.45848,458.632633 L1093.57084,458.867239 C1093.42493,458.906773 1093.28002,458.946533 1093.13605,458.986535 L1092.28318,459.229576 C1092.1428,459.270608 1092.00327,459.311913 1091.86454,459.353506 L1091.04151,459.606646 L1090.23564,459.867444 C1090.10264,459.91159 1089.97026,459.956086 1089.83845,460.000944 L1089.05421,460.274619 L1088.28164,460.557799 C1088.02581,460.653859 1087.77157,460.751628 1087.51855,460.851227 L1086.76276,461.155642 L1086.01207,461.471785 L1085.26428,461.800395 C1085.13977,461.856244 1085.0153,461.912643 1084.8908,461.969607 L1084.14327,462.318306 C1076.62098,465.893623 1074.30685,470.198896 1077.22421,473.775085 C1079.50566,476.571747 1084.6205,478.642909 1091.62341,479.537014 L1092.56824,479.649213 C1094.79855,479.894551 1097.20755,480.024019 1099.76675,480.024019 L1102.36093,480.019411 L1104.91693,480.005537 C1105.3398,480.002448 1105.76111,479.998969 1106.1809,479.9951 L1108.68139,479.967179 L1111.14605,479.929796 C1111.5539,479.922772 1111.96028,479.915352 1112.36524,479.907532 L1114.77792,479.85581 C1115.17722,479.846387 1115.57512,479.836562 1115.97164,479.826333 L1118.33446,479.760097 L1120.6652,479.684088 L1122.96481,479.598227 L1125.23423,479.502437 L1127.4744,479.39664 C1127.84538,479.378169 1128.21517,479.359278 1128.58381,479.339965 L1130.78186,479.219011 L1132.95302,479.087855 C1133.67236,479.042428 1134.38737,478.995287 1135.09821,478.946419 L1137.21838,478.794626 L1139.31447,478.632397 C1139.66187,478.604485 1140.0083,478.576134 1140.35378,478.547344 L1142.41551,478.369316 C1142.75729,478.33876 1143.09817,478.307762 1143.43817,478.27632 L1145.46765,478.082316 C1145.80418,478.049089 1146.13986,478.015413 1146.47471,477.981289 L1148.47406,477.771135 C1149.13731,477.699277 1149.7974,477.625609 1150.4545,477.550117 L1152.41696,477.318156 C1153.06823,477.239004 1153.71665,477.158015 1154.3624,477.075176 L1156.29173,476.821098 L1158.20592,476.555844 C1158.84156,476.465554 1159.47483,476.373389 1160.10589,476.279336 L1161.99258,475.991496 C1163.24616,475.795809 1164.49152,475.592515 1165.72991,475.38151 L1167.58242,475.059208 L1169.42542,474.725263 L1171.25984,474.379596 C1171.86999,474.262412 1172.47887,474.143261 1173.08663,474.02213 C1173.73601,473.892704 1174.4311,473.742363 1175.1649,473.573094 L1176.29374,473.305244 C1176.67911,473.211395 1177.07328,473.113062 1177.47537,473.010495 L1178.70453,472.690336 C1179.12159,472.579548 1179.54569,472.464773 1179.97596,472.346261 L1181.2844,471.979759 C1181.947,471.79115 1182.6215,471.59469 1183.30495,471.391219 L1184.68291,470.975175 L1186.07947,470.541925 C1186.31349,470.468365 1186.54806,470.394151 1186.78308,470.319313 L1188.19768,469.863047 L1189.61774,469.393302 L1191.03798,468.911569 C1191.51084,468.749159 1191.98286,468.585 1192.45316,468.419339 L1193.85801,467.918104 L1195.24728,467.409354 L1196.6157,466.89458 C1197.29382,466.635936 1197.96216,466.375592 1198.61774,466.114388 L1199.91104,465.591079 C1202.67255,464.455834 1205.15765,463.314926 1207.12558,462.236605 L1207.43171,462.067288 L1208.0207,461.731971 C1208.30742,461.565427 1208.58248,461.400564 1208.84583,461.23742 L1209.35689,460.913438 C1212.82484,458.661784 1213.99121,456.752453 1212.72678,455.294393 C1212.00085,454.457299 1210.56987,453.702221 1208.40965,453.041177 L1207.85439,452.877882 L1207.26866,452.718547 L1206.65237,452.563213 L1206.00545,452.411923 L1205.32781,452.264718 L1204.61936,452.121639 L1203.88002,451.982729 C1203.75422,451.959927 1203.62712,451.937301 1203.49874,451.91485 L1202.71291,451.782271 C1202.57935,451.76053 1202.44449,451.738966 1202.30834,451.717582 L1201.47583,451.591427 L1200.61209,451.469609 L1199.71704,451.352167 L1198.79061,451.239144 L1197.83269,451.130582 L1196.84321,451.026522 L1195.82209,450.927006 L1194.76923,450.832076 L1193.68456,450.741774 L1192.568,450.656141 L1191.41945,450.575219 L1190.23884,450.499049 Z" id="Path-16"></path> <path d="M879.612203,116.244061 C881.521259,116.244061 881.707069,117.746438 880.534551,119.98994 C880.025717,120.963546 879.250446,122.140295 878.235702,123.490159 L877.750453,124.125355 C877.583101,124.341112 877.410179,124.560857 877.231785,124.784481 L876.680288,125.466878 L876.096551,126.171892 C875.996607,126.291243 875.895345,126.411508 875.792776,126.532675 L875.161782,127.270383 C875.054036,127.395101 874.945008,127.520692 874.834711,127.647144 C869.693897,133.540886 862.172057,140.864284 855.028001,146.938707 L853.572161,148.168812 L852.188133,149.34973 C851.73765,149.73705 851.297489,150.118526 850.866039,150.495583 L849.596207,151.614923 C848.972745,152.16939 848.365255,152.717121 847.768298,153.262927 C846.695261,154.244021 845.647326,155.227093 844.597146,156.237693 L843.75473,157.05355 L842.620132,158.168909 L841.459437,159.329158 L840.258357,160.548923 L839.32245,161.511602 L838.016317,162.87071 L836.985213,163.954693 L835.530274,165.497934 L833.147133,168.052358 L808.701477,194.671961 L817.770006,194.666955 L825.014888,194.670901 L833.135768,194.702776 L837.508431,194.742826 L841.360353,194.800759 L844.073421,194.859572 L845.692974,194.903641 L847.644191,194.968809 L848.985313,195.023695 L850.221394,195.083884 L851.352238,195.149513 L852.377647,195.22072 L853.297424,195.297641 L853.851827,195.352163 C854.907514,195.463201 855.687718,195.590098 856.197832,195.738994 C856.984983,195.968753 857.452331,196.362411 857.033014,196.98135 L855.314219,199.507011 L854.374683,200.871065 L853.772866,201.734978 L853.169064,202.592068 L852.146988,204.017152 L851.235009,205.259155 L850.284576,206.524439 L849.120809,208.038178 L848.007989,209.456232 L846.407697,211.459024 L843.427787,215.11945 L835.721053,224.434093 L832.512091,228.297296 L830.778281,230.40177 L829.182098,232.361795 L828.058085,233.759201 L826.983353,235.111649 L825.945842,236.434696 L824.933496,237.743897 L824.599555,238.179909 L823.804952,237.572779 L824.815328,236.259872 L826.197204,234.493598 L827.275312,233.136877 L828.79137,231.255573 L830.4235,229.257703 L832.200353,227.106296 L840.51551,217.083182 L843.784174,213.105122 L845.665565,210.786039 L846.953718,209.176049 L848.116831,207.699291 L849.612595,205.755062 L850.444053,204.646391 L850.980874,203.918506 L851.594336,203.074681 L852.204028,202.223551 L852.817486,201.355422 L853.761226,200.000147 L854.755844,198.552091 L855.999477,196.723961 L855.917636,196.698937 C855.741955,196.647657 855.519684,196.597883 855.252152,196.549877 L854.817073,196.479227 C854.738958,196.467684 854.658055,196.45626 854.574386,196.444959 L854.039336,196.378659 L853.48013,196.319526 L852.607617,196.241829 L851.628551,196.169685 L850.916831,196.124618 L850.158033,196.081937 L848.499654,196.003598 L847.133124,195.95086 L844.418021,195.868673 L841.339057,195.80054 L838.387902,195.753944 L833.124153,195.702727 L826.902165,195.674931 L820.945365,195.666848 L806.419501,195.672242 L830.669378,169.257555 L833.241903,166.481715 L835.546832,164.020785 L836.614057,162.89295 L838.287371,161.143895 L839.547283,159.845763 L841.047249,158.325439 L841.918013,157.456833 L842.77425,156.61336 L843.622004,155.788837 L843.903748,155.517138 C844.960049,154.500648 846.01419,153.511754 847.093518,152.524909 C848.493891,151.244528 849.951411,149.954051 851.535255,148.592266 L852.925386,147.406131 L853.646679,146.797289 C860.968905,140.637628 868.798355,133.046285 874.081108,126.989814 L874.402498,126.619604 L875.022328,125.895018 L875.611034,125.192178 C875.706523,125.076893 875.800689,124.962545 875.89352,124.84915 L876.434364,124.180352 L876.942516,123.535197 L877.417349,122.914443 C877.493676,122.81306 877.568589,122.712725 877.642075,122.613454 L878.065753,122.030727 C878.675261,121.17617 879.167025,120.410373 879.531519,119.744862 L879.742675,119.343149 L879.908018,119.002559 C879.957964,118.894839 880.002766,118.792862 880.042498,118.696416 L880.14656,118.423469 C880.428399,117.610374 880.259402,117.277744 879.703228,117.246513 L879.612203,117.244061 L878.235452,117.260422 L875.281585,117.332676 L870.211851,117.489816 L864.475147,117.686935 L849.891616,118.22578 L821.991477,119.317961 L799.391841,148.374008 L789.436338,161.036771 L784.825606,166.846144 L773.624738,180.824755 L754.252717,204.858502 L751.897707,207.713769 L751.716817,207.937517 C751.54659,208.149754 751.383589,208.355399 751.227053,208.5556 L750.776082,209.141016 L750.331695,209.738754 C749.41549,210.997447 748.804371,212.018607 748.536992,212.784703 C748.238168,213.640894 748.364021,213.924614 749.063874,213.974987 C750.861699,214.104388 752.619089,214.222419 754.376005,214.331457 L757.016017,214.488565 L759.685289,214.633966 L763.108683,214.80197 L765.953367,214.927547 L768.924716,215.047212 L772.86268,215.191192 L777.993715,215.360352 L792.947243,215.823707 L799.05312,216.04469 L803.462133,216.231695 C804.375319,216.272611 804.613307,216.977719 804.283386,217.831185 C804.097846,218.311154 803.739038,218.900185 803.208991,219.635715 L802.900496,220.054864 L802.589645,220.462986 L801.431915,221.946463 L801.226665,222.217099 L800.979253,222.559789 L800.209417,223.647223 L799.674055,224.420062 L799.121789,225.229729 L798.553308,226.074954 L797.969303,226.95447 L797.370464,227.867007 L796.445902,229.294953 L795.491846,230.790064 L794.177918,232.880622 L793.164103,234.515799 L791.778951,236.777574 L790.71806,238.52951 L788.91485,241.542633 L788.18331,242.776813 L786.706443,245.287791 L785.589448,247.203321 L783.716891,250.444705 L782.576448,252.436685 L780.956563,255.273059 L767.024861,279.121784 L762.429352,287.033398 L759.949188,291.339203 L759.337343,292.410439 L757.915929,294.913556 L756.533598,297.363365 L754.703791,300.632703 L752.848977,303.981822 L751.425802,306.579185 L750.057166,309.10306 L748.743631,311.552839 L747.485755,313.927914 L746.579212,315.659829 L745.420087,317.902706 L744.58825,319.534774 L743.788822,321.123623 L743.022042,322.668996 L742.288143,324.170635 L741.587363,325.628285 L740.919938,327.041689 L740.286104,328.41059 L739.882326,329.29834 L739.305001,330.592499 L738.939115,331.430183 L738.418955,332.648886 L738.091397,333.436029 L737.779293,334.202822 L737.340267,335.31469 L737.067104,336.030276 C737.022883,336.147825 736.979316,336.264514 736.936405,336.380343 L736.686816,337.064977 L736.453031,337.728881 L736.23512,338.37198 L736.033152,338.994196 L735.847198,339.595454 L735.677327,340.175677 C735.650359,340.270624 735.624065,340.364692 735.598445,340.457878 L735.45283,341.006407 C735.429914,341.096062 735.407676,341.184833 735.386116,341.272718 C735.291414,341.658752 735.256029,341.951305 735.272332,342.143161 L735.282072,342.246971 L735.278477,342.252961 L735.28987,342.255026 C735.365199,342.257609 735.623096,342.17602 736.012474,341.954029 L736.147066,341.874755 C736.438459,341.697754 736.769507,341.465855 737.139983,341.180182 L737.523594,340.876626 L737.933441,340.537472 L738.369472,340.162969 L738.831638,339.753368 L739.319888,339.308919 L739.834171,338.829872 L740.374438,338.316477 L740.940637,337.768984 L741.854528,336.86842 L742.844695,335.874105 L748.562045,329.994955 L749.573383,328.974928 L749.712647,328.837177 L750.021653,328.522718 L750.370585,328.157188 L750.966992,327.51543 L751.894026,326.490786 L752.965493,325.280722 L754.497589,323.520163 L756.231489,321.499352 L758.972727,318.264163 L761.588898,315.14474 L764.919876,311.141003 L767.987746,307.429224 L772.342131,302.129468 L776.360624,297.211513 L781.142562,291.330475 L785.451611,286.007035 L791.101933,278.994577 L795.536721,273.465977 L799.788861,268.144473 L802.538976,264.69162 L805.264726,261.260315 L807.95724,257.861508 L810.607645,254.50615 L813.207071,251.205193 L813.993201,251.823254 L810.068048,256.803841 L807.391627,260.187188 L803.309636,265.32933 L799.173357,270.519247 L794.395586,276.489751 L790.596538,281.219141 L786.828596,285.894016 L783.114616,290.486156 L777.106638,297.879225 L772.524994,303.483981 L768.201808,308.740985 L764.673626,313.003015 L761.867492,316.369545 L760.120534,318.452097 L757.702725,321.312321 L756.235813,323.031208 L754.892771,324.589997 L753.970852,325.648994 L752.860875,326.907491 L752.121532,327.731668 L751.674577,328.222161 L751.07517,328.866851 L750.563533,329.399145 L749.538466,330.427751 L747.297292,332.725727 L744.408241,335.709447 L743.215542,336.92074 L742.55963,337.577526 L741.934056,338.196073 L741.31466,338.799525 L740.724045,339.365058 L740.161985,339.892557 C740.070675,339.977297 739.980546,340.060448 739.891592,340.142007 L739.371938,340.612237 C739.287668,340.687418 739.204564,340.761002 739.122621,340.832988 L738.644862,341.245689 L738.19475,341.619894 C737.612931,342.093118 737.104229,342.463375 736.666225,342.729433 C735.850947,343.224659 735.236894,343.398152 734.75493,343.107314 C734.215553,342.78183 734.156561,342.08759 734.414913,341.034463 L734.554456,340.488243 L734.710189,339.921092 L734.882046,339.333076 L735.069959,338.724262 L735.273862,338.094716 L735.493687,337.444505 L735.729368,336.773696 L736.112472,335.729004 L736.530875,334.638339 L736.829309,333.885799 L737.143264,333.112993 L737.643152,331.915929 L738.177586,330.67364 L738.746339,329.386349 L739.144463,328.503265 L739.769914,327.141471 L740.429083,325.735273 L741.121743,324.284896 L741.847668,322.790564 L742.606633,321.252502 L743.398412,319.670934 L743.944383,318.592496 L744.79035,316.938916 L745.968372,314.667436 L747.203124,312.320206 L748.494069,309.897759 L749.498833,308.031882 L751.242399,304.829338 L753.071257,301.51176 L754.984362,298.080184 L756.348988,295.653622 L757.752066,293.175077 L759.520845,290.075833 L761.273457,287.034667 L766.773418,277.567059 L780.472313,254.112974 L781.709334,251.938553 L783.625698,248.598918 L784.77184,246.619881 L785.912238,244.664905 L787.044446,242.738491 L788.537089,240.222151 L790.367476,237.175644 L791.442472,235.4085 L792.497051,233.692429 L793.528769,232.031932 L794.535181,230.431512 L795.513842,228.895671 L796.462306,227.42891 L797.378128,226.035733 L797.969334,225.15005 L798.544222,224.300406 L799.102066,223.488134 L799.642143,222.714568 C799.730635,222.58894 799.818356,222.46498 799.905292,222.342717 L800.417359,221.629711 L801.215233,220.596615 L801.838155,219.800183 L802.221802,219.291966 L802.390086,219.061545 L802.690624,218.632566 C802.966885,218.224923 803.169796,217.881473 803.294714,217.603906 L803.428338,217.290391 L803.45928,217.230582 C803.460109,217.228324 803.460068,217.227146 803.459153,217.226663 L803.417371,217.230692 L799.012869,217.043882 L793.146661,216.830924 L775.33271,216.275335 L771.215246,216.133392 L767.377593,215.987061 L764.469562,215.864493 L761.673116,215.7351 L758.958256,215.597096 L756.294984,215.448695 L754.973319,215.370037 L753.653302,215.288111 C752.112786,215.190537 750.567978,215.085834 748.992083,214.972407 C747.542603,214.868078 747.099412,213.868963 747.592844,212.455181 C747.945512,211.444714 748.755131,210.151766 749.979149,208.536948 L750.204434,208.242179 L750.682635,207.630521 L751.326014,206.83268 L753.56347,204.121711 L772.185721,181.018016 L783.246489,167.223348 L789.132567,159.808998 L796.179486,150.857452 L818.308894,122.431029 L821.488273,118.337523 L848.378241,117.282747 L864.459239,116.686881 L874.331865,116.359707 L878.230559,116.260414 L879.363945,116.244061 L879.612203,116.244061 Z" id="Path"></path> <path d="M1038.15449,42.5442079 L1036.66566,43.8890985 L1035.53128,44.8939858 L1034.82427,45.5085382 L1034.15246,46.0820336 C1034.04323,46.174349 1033.93532,46.2650696 1033.82865,46.354253 L1033.20294,46.8713718 L1032.6035,47.3543788 L1032.03328,47.8009885 L1031.49015,48.2130894 C1031.40132,48.2793205 1031.31332,48.3443214 1031.22617,48.4080858 L1030.71321,48.7757846 C1027.94656,50.7159732 1026.07703,51.296103 1024.89859,50.2931451 C1024.84937,50.2512599 1024.80114,50.2068838 1024.75389,50.1599699 L1024.61507,50.0115675 C1024.54711,49.9335126 1024.48134,49.8496419 1024.41771,49.759797 L1024.29331,49.5720947 C1024.27305,49.5394677 1024.25303,49.5061652 1024.23324,49.4721813 L1024.11734,49.2600541 L1024.00704,49.0312916 L1023.90228,48.7856122 L1023.803,48.5227342 C1023.78691,48.4774723 1023.77105,48.4314821 1023.75541,48.3847577 L1023.66427,48.0955538 L1023.57849,47.7884472 L1023.49801,47.4631564 L1023.42278,47.1193996 C1023.41068,47.0605523 1023.39879,47.0009239 1023.38712,46.9405084 L1023.31966,46.5685247 L1023.25732,46.1773709 L1023.20004,45.7667655 L1023.14777,45.3364268 L1023.10045,44.8860732 L1023.05803,44.4154231 L1023.02046,43.9241947 L1022.97308,43.148152 L1022.94739,42.604246 L1022.92637,42.0387761 L1022.90345,41.1495229 L1022.89071,40.2101666 L1022.88798,39.2197569 L1022.89506,38.1773431 L1022.91179,37.0819747 L1022.93798,35.9327013 L1022.97345,34.7285723 L1023.03486,33.0360932 L1023.11202,31.2421501 L1023.25635,28.356062 L1023.46637,24.6838692 L1024.29861,11.5833135 L1024.45449,8.87338286 L1024.57049,6.57852436 L1024.64255,4.83081932 L1024.68466,3.47175771 L1024.71049,2.19555134 L1024.71648,1.65496132 L1024.6779,1.69458228 C1024.36788,2.010875 1024.04926,2.36242315 1023.722,2.74889635 L1023.32514,3.22940708 L1022.91997,3.74331899 C1022.78352,3.92017573 1022.64569,4.10257819 1022.50646,4.29050522 L1022.0846,4.87083892 L1021.65437,5.48419321 C1021.58196,5.5891636 1021.50921,5.69550455 1021.4361,5.80321344 L1020.99328,6.46586075 L1020.54203,7.16121151 L1020.08235,7.88913883 L1019.61421,8.64951587 C1019.53548,8.77894247 1019.4564,8.90971586 1019.37696,9.04183339 L1018.8961,9.85064712 L1018.40673,10.6915934 L1017.90883,11.5645454 L1017.40239,12.4693762 L1016.88739,13.4059589 L1016.36381,14.3741667 L1015.83162,15.3738728 L1015.29081,16.4049503 L1014.74137,17.4672722 L1014.18326,18.5607118 L1013.62837,19.6614013 L1012.94744,21.0293673 L1012.25399,22.4406363 L1011.5463,23.898367 L1010.4543,26.1789888 L1009.70347,27.7666939 L1008.20232,30.9927732 L1000.11356,48.6357986 L999.434677,50.0746266 L998.808915,51.3803527 L998.372561,52.2745485 L997.832188,53.3563436 L997.336284,54.3153194 L996.991648,54.9562004 L996.774149,55.3470208 L996.565998,55.7092397 L996.366803,56.0433245 L996.17617,56.3497424 L995.993706,56.628961 L995.819018,56.8814476 L995.651712,57.1076696 C995.624422,57.1432105 995.597422,57.1776765 995.570706,57.2110774 L995.413738,57.3987788 C995.388121,57.4279581 995.36277,57.4560917 995.337678,57.4831893 L995.190163,57.6334218 C995.166072,57.6564147 995.142224,57.6783911 995.118609,57.6993608 L994.979662,57.813176 C994.775256,57.9660116 994.58847,58.0388802 994.413334,58.0388802 C993.852748,58.0388802 993.199348,57.5551929 992.349235,56.5447477 L992.058435,56.1883639 C991.958979,56.0630268 991.856951,55.9311274 991.75221,55.7926066 L991.429702,55.3571212 L991.090058,54.8815532 L990.732421,54.3655481 L990.160361,53.5149454 L989.648096,52.7323713 L989.099107,51.8755093 L988.070892,50.2342541 L984.015286,43.608749 L983.265775,42.3973874 L982.500531,41.1753194 L981.924866,40.2688096 L981.095536,38.9859465 L980.564973,38.1817749 L980.051906,37.4183021 C979.967836,37.2944407 979.884481,37.1722695 979.801837,37.0517855 L979.31443,36.3491075 C979.234597,36.2353617 979.155461,36.1232975 979.077015,36.0129123 L978.614568,35.3707249 L978.168371,34.7686958 C977.803224,34.2836999 977.454681,33.8403947 977.12193,33.4384282 L976.730156,32.9758885 C976.345859,32.5331464 975.983836,32.1497294 975.642684,31.8250294 L975.521477,31.7119613 L975.852474,32.6591137 C982.221002,51.0756339 986.661995,71.4945461 989.176314,93.9155647 L989.265477,94.7299613 L989.351077,94.6876089 C1003.66898,87.5321607 1016.06005,84.5941859 1026.52813,85.8913404 L1027.05875,85.9609474 C1027.33228,85.9988295 1027.52332,86.2512802 1027.48543,86.5248118 C1027.44755,86.7983435 1027.1951,86.9893752 1026.92157,86.9514931 C1016.39528,85.4936815 1003.77796,88.4856271 989.073891,95.9468428 C988.761926,96.1051414 988.388013,95.9023636 988.350519,95.5545497 C985.766493,71.5834693 980.992925,49.8980544 974.030863,30.4979571 C973.875922,30.0662058 974.335565,29.6711261 974.739142,29.8891658 C975.392672,30.2422464 976.107973,30.8346645 976.90573,31.6784846 L977.252735,32.0555489 C977.370126,32.1863911 977.48926,32.3223992 977.610198,32.4636082 L977.978481,32.9028735 L978.357946,33.3735557 L978.748955,33.8758661 C978.815106,33.9622319 978.881752,34.0499243 978.948902,34.1389478 L979.357905,34.6890959 L979.779357,35.2713998 L980.213619,35.8860703 L980.661053,36.5333186 L981.122021,37.2133557 L981.596884,37.9263926 L982.086005,38.6726404 L982.589746,39.4523101 L983.373558,40.6849424 L984.358596,42.2616962 L988.854207,49.5526129 L990.075192,51.5061757 L990.816457,52.6754252 L991.459224,53.6713381 L991.987729,54.4699928 L992.284188,54.9059093 L992.553561,55.2913407 L992.79788,55.6291997 L993.01918,55.9223989 C993.054258,55.9677055 993.088461,56.0112728 993.121833,56.0531612 L993.312414,56.2848319 L993.485058,56.4791243 C993.512451,56.5085533 993.53918,56.5365463 993.565289,56.5631638 L993.714839,56.7068501 C994.000405,56.9631551 994.208841,57.0388802 994.413334,57.0388802 C994.444549,57.0388802 994.485906,57.0160437 994.537093,56.9707598 L994.621207,56.8860468 C994.636442,56.8691383 994.652282,56.8508389 994.668721,56.8311548 L994.774514,56.6964819 L994.959681,56.4327974 L995.175917,56.0959777 L995.422434,55.6870074 L995.79686,55.0311808 L996.22184,54.2511701 L996.695503,53.3493088 L997.081571,52.5943521 L997.635921,51.4848674 L997.929538,50.8866916 L998.548485,49.6049319 L999.039522,48.5700284 L1007.72144,29.6489931 L1008.41508,28.1575297 L1009.55147,25.7489885 L1010.64624,23.4625943 L1011.35586,22.0008956 L1012.05132,20.5855413 L1012.73436,19.2133541 L1013.57196,17.5568134 L1014.39066,15.967934 L1014.92605,14.9464056 L1015.4532,13.9551515 L1015.97214,12.9942526 L1016.48295,12.06379 L1016.98567,11.1638446 L1017.48037,10.2944974 L1017.96711,9.45582954 L1018.44594,8.64792195 L1018.91692,7.87085566 L1019.3801,7.12471167 L1019.83555,6.409571 C1019.91082,6.292969 1019.98577,6.17766218 1020.0604,6.06365223 L1020.50436,5.39516844 L1020.94073,4.75789049 L1021.36956,4.1518994 C1021.44041,4.05351262 1021.51095,3.95643284 1021.58118,3.86066174 L1021.99882,3.30175283 L1022.40908,2.77433332 C1023.29002,1.66576303 1024.11934,0.779500975 1024.89969,0.119255098 C1025.22466,-0.15569077 1025.72265,0.0752900916 1025.72265,0.500961317 L1025.71578,1.7901305 L1025.68857,3.33069607 L1025.63773,4.98393098 L1025.54666,7.11006788 L1025.37651,10.2911736 L1025.01682,16.1240346 L1024.56791,23.0679151 L1024.34138,26.8819625 L1024.207,29.4047236 L1024.11641,31.3044885 L1024.0412,33.1007692 L1023.96931,35.2031254 L1023.93821,36.3895208 L1023.91629,37.5205089 L1023.90157,38.9435148 L1023.9016,39.9479439 L1023.91126,40.899301 L1023.92311,41.5044008 L1023.93933,42.086432 L1023.97197,42.9166795 L1023.99931,43.4419477 L1024.03117,43.944874 L1024.06758,44.425666 L1024.10859,44.8845312 L1024.15423,45.3216774 L1024.23146,45.9371274 L1024.28886,46.3208839 L1024.35103,46.683648 L1024.418,47.0256271 L1024.48983,47.3470289 L1024.56655,47.648061 L1024.64819,47.9289309 L1024.7348,48.1898463 L1024.82642,48.4310147 C1024.84211,48.4695754 1024.85801,48.507322 1024.87412,48.5442587 L1024.97332,48.756196 L1025.07763,48.9489053 C1025.22013,49.1931247 1025.37635,49.3866232 1025.54671,49.5316151 C1026.18445,50.0743828 1027.54022,49.6775723 1029.59779,48.3214683 L1030.08507,47.9914834 C1030.5015,47.7022903 1030.94384,47.3775642 1031.41198,47.017165 L1031.98259,46.5704914 L1032.57378,46.0940829 L1033.19174,45.5832719 L1033.83999,45.0353413 L1034.522,44.4475745 L1035.24127,43.8172544 L1036.3977,42.7860438 L1038.46566,40.9043863 L1043.29014,36.4614835 L1044.66284,35.2129401 L1045.85523,34.1428146 L1047.10789,33.0376056 L1047.91173,32.3405011 L1048.69152,31.6747213 L1049.44805,31.0398919 L1050.18214,30.4356386 C1050.30266,30.337457 1050.42229,30.2405337 1050.54102,30.1448611 L1051.24297,29.5857705 C1051.35823,29.4950692 1051.47265,29.4056029 1051.58623,29.3173639 L1052.25785,28.802594 L1052.91027,28.3169035 L1053.54429,27.8599181 L1054.16072,27.4312636 C1055.68051,26.3947294 1057.04303,25.6202895 1058.30522,25.0816324 C1058.70449,24.911237 1059.11631,25.2956808 1058.97374,25.7057147 L1058.57465,26.8336596 L1057.99851,28.3881566 L1057.12777,30.6109216 L1055.7716,33.9224942 L1052.61062,41.4211926 L1044.89422,59.5204698 L1042.77839,64.5307622 L1040.94397,68.9295485 L1039.67117,72.0308395 L1038.69436,74.4545471 L1037.84111,76.6197169 L1037.1074,78.5378568 L1036.65429,79.7630888 L1036.33326,80.6595744 L1036.04828,81.4839863 L1035.74158,82.4164188 L1035.58343,82.9251782 L1035.40207,83.5462527 L1035.25376,84.1038425 L1035.19176,84.3595017 C1035.12891,84.6283952 1034.85997,84.7954215 1034.59108,84.7325653 C1034.32218,84.6697091 1034.15516,84.4007729 1034.21801,84.1318794 L1034.31601,83.7341385 L1034.43209,83.3023095 L1034.61557,82.6718503 L1034.77514,82.1567444 L1035.08393,81.2148887 L1035.37041,80.3838296 L1035.77911,79.2442994 L1036.34583,77.7232867 L1036.88347,76.3225743 L1037.60943,74.4752201 L1038.57115,72.0806874 L1039.99582,68.604555 L1041.8373,64.188465 L1044.89545,56.9609388 L1053.45161,36.8710594 L1055.2348,32.6051832 L1056.24166,30.1333378 L1057.0588,28.045409 L1057.62948,26.5039613 L1057.44758,26.598373 C1056.35018,27.1746727 1055.15999,27.9284823 1053.84532,28.8745778 L1053.17746,29.3637179 C1053.06437,29.4479347 1052.95038,29.5335039 1052.83548,29.620434 L1052.13485,30.1584152 C1051.89753,30.3432317 1051.65638,30.5335605 1051.41127,30.7294701 L1050.66386,31.3340092 L1049.89175,31.972443 C1049.76095,32.081696 1049.62909,32.1923784 1049.49615,32.3044987 L1048.68532,32.9945441 L1047.84758,33.7195103 L1046.98206,34.4798078 L1046.08786,35.2758469 L1044.32095,36.874293 C1044.20403,36.9809493 1044.08537,37.0893364 1043.96473,37.1996814 L1038.15449,42.5442079 Z" id="Path-10"></path> <path d="M279.603403,741.104485 L279.820374,740.951085 C293.863182,731.132399 305.304667,729.730775 312.9117,735.781213 C319.593291,741.095578 322.589069,751.857083 321.158168,763.947559 C320.040034,773.395293 314.288942,784.8583 307.14437,793.378535 C301.796497,799.756121 292.348238,805.809356 283.29935,808.260266 C272.397801,811.212973 263.1003,808.918159 257.365652,800.51948 C254.26501,795.978434 253.53389,790.022651 254.592658,782.5478 C254.758095,781.379822 254.959761,780.207383 255.204175,778.985548 L255.424293,777.925117 L255.666261,776.834203 L255.930992,775.70652 C256.02313,775.323799 256.119215,774.933901 256.219397,774.53578 L256.532389,773.315693 C256.586654,773.107883 256.641981,772.897756 256.69839,772.685179 L258.077468,767.678477 L258.246575,767.073023 L258.735611,765.278033 L258.972772,764.370571 L259.112668,763.815043 L259.240922,763.287207 L260.213692,763.518976 L260.014655,764.330552 L259.786783,765.214736 L259.521508,766.206314 L258.014714,771.642484 C257.894101,772.084578 257.777948,772.515837 257.666103,772.937294 L257.34334,774.173293 C257.29165,774.374737 257.240998,774.573988 257.191367,774.771176 L256.905672,775.930583 C256.723168,776.688395 256.556383,777.417333 256.404105,778.125662 L256.186418,779.173732 C255.94479,780.380859 255.745739,781.537529 255.582775,782.688044 C254.555674,789.939324 255.257818,795.659063 258.191501,799.955587 C263.657166,807.960329 272.512245,810.145944 283.037918,807.295044 C291.889155,804.897668 301.16135,798.957233 306.378115,792.735998 C313.407337,784.353325 319.072563,773.061461 320.165098,763.830029 C321.559139,752.05101 318.65798,741.629396 312.289215,736.563844 C305.246339,730.962123 294.596924,732.12306 281.303828,741.14341 L280.393395,741.770626 L279.982062,742.064898 L279.584478,742.363487 C279.519136,742.413818 279.454197,742.464483 279.389579,742.515559 L279.00504,742.827574 C278.686672,743.092733 278.3721,743.372042 278.050803,743.675158 L277.661343,744.050943 L277.261384,744.45329 L276.846886,744.885906 L276.413807,745.3525 L275.958105,745.856779 L275.47574,746.40245 L274.693358,747.306679 L272.588578,749.783344 L271.943068,750.525154 L271.511648,751.007449 L271.097531,751.457214 L270.675627,751.902304 L269.954402,751.209604 L270.367647,750.773602 L270.912696,750.178504 L271.349087,749.68623 L271.836621,749.12403 L272.830012,747.956986 L273.661678,746.974849 L274.220207,746.322878 L274.743815,745.720198 L275.23667,745.163015 L275.702939,744.647531 L276.146792,744.169952 L276.572394,743.726481 L276.983916,743.313322 C277.119205,743.180232 277.252843,743.051562 277.385523,742.926679 L277.781384,742.562756 C277.912843,742.444813 278.044039,742.330024 278.175667,742.217757 L278.57254,741.887887 C278.705725,741.780029 278.840037,741.674061 278.97617,741.569348 L279.390726,741.258346 C279.46096,741.20693 279.531824,741.155669 279.603403,741.104485 Z" id="Path-13"></path> <path d="M307.241405,747.775465 C310.506667,753.15516 311.434975,759.036949 310.024596,765.393004 C309.142834,769.366775 307.062623,774.041923 303.786794,779.426098 L303.431238,780.005688 L302.580749,779.479694 C306.007865,773.938327 308.16268,769.167721 309.048341,765.176378 C310.366795,759.234599 309.563023,753.755512 306.635431,748.713487 L306.386548,748.294329 L307.241405,747.775465 Z" id="Path-14"></path> <path d="M297.679955,823.470247 C309.704952,817.152393 319.252435,822.000305 320.840915,832.916734 C321.993926,840.840512 317.92102,850.870042 311.094086,857.368128 C306.383968,861.851362 300.001161,865.323292 294.273818,866.327498 C287.586766,867.499974 282.298448,865.320836 279.592965,859.500309 C277.26222,854.485986 277.616396,848.981729 280.146596,842.994013 C281.636612,839.467891 283.641257,836.162226 286.523986,832.229619 L287.29616,831.188943 C287.428255,831.012941 287.56207,830.835614 287.697634,830.656893 L288.532253,829.567284 L288.965756,829.008887 L289.754431,829.623696 L289.326064,830.175471 L288.50151,831.251873 C285.019887,835.841382 282.71382,839.487788 281.067733,843.383253 C278.638502,849.132025 278.302627,854.351864 280.49979,859.078801 C285.254683,869.308393 299.773633,866.762709 310.404639,856.643791 C317.00928,850.357291 320.954527,840.642122 319.851337,833.06073 C318.377201,822.930104 309.73525,818.448171 298.486719,824.178718 L298.145062,824.355502 L297.679955,823.470247 Z" id="Path-19"></path> <path d="M269.340392,884.81263 C271.462668,882.915279 274.211509,882.784134 276.59854,883.797955 L276.962788,883.962876 C278.106356,884.513203 279.152021,885.327719 279.985498,886.334591 L280.241515,886.65886 C281.816593,888.752003 282.4948,891.58432 281.361856,894.581145 C279.504944,899.492983 276.740998,902.028406 271.839728,903.114403 C268.104913,903.941943 264.009403,901.116156 263.217655,897.142693 C262.394636,893.012292 263.483973,889.64458 266.578808,885.279424 L266.857089,884.89163 L267.666307,885.479138 C264.507008,889.830678 263.415464,893.018159 264.198376,896.947276 C264.882784,900.382045 268.447699,902.841737 271.6234,902.138082 C276.184251,901.127513 278.685269,898.83328 280.426467,894.227523 C281.582489,891.169655 280.589464,888.307806 278.719466,886.425895 L278.446495,886.163801 C276.124311,884.03665 272.645101,883.351205 270.155086,885.430078 L270.006889,885.558138 L269.340392,884.81263 Z" id="Path-22"></path> <path d="M587.79749,521.362245 C589.659893,527.81173 589.346908,535.086028 586.960076,541.344486 C586.083502,543.642929 583.722501,546.600796 580.725677,549.367399 L580.096851,549.936791 L579.451549,550.499051 C578.472077,551.336255 577.442639,552.143736 576.388601,552.896067 L575.682543,553.389172 C572.72777,555.407406 569.626675,556.9565 566.922925,557.491453 C566.433016,557.588384 565.947932,557.677558 565.466984,557.758739 L565.037477,557.828961 L565.042447,557.845909 C565.511211,559.908783 565.513644,561.9884 565.009478,564.062365 L564.925657,564.389782 C563.354472,570.231845 558.207692,573.972088 551.220414,575.415559 L551.078477,575.442961 L551.07638,575.485453 C550.807977,578.871313 548.646443,582.126657 544.342511,584.974914 L544.045738,585.168479 C540.467999,587.468545 535.602407,588.263996 530.5212,587.78027 L530.113477,587.737961 L530.114389,587.800721 C530.060661,591.354136 526.723089,593.306701 520.040405,592.928529 L519.337157,592.881064 C519.21796,592.871757 519.097767,592.86175 518.97658,592.851039 L518.237506,592.778295 C517.611654,592.710584 516.960903,592.625084 516.285214,592.521328 L515.462414,592.388027 L514.615659,592.237021 L513.744933,592.06813 L512.867653,591.88494 L513.078731,590.907471 L513.52445,591.002247 L514.396082,591.178734 C514.539158,591.206705 514.681137,591.233955 514.822023,591.260489 L515.654219,591.411127 C515.790736,591.434811 515.926163,591.457785 516.060502,591.480054 L516.853505,591.605229 C517.503495,591.702534 518.126407,591.78238 518.722523,591.845213 L519.425016,591.912476 C519.539961,591.922335 519.653838,591.931521 519.76665,591.940037 L520.430758,591.983125 L521.069411,592.010309 C526.494401,592.177496 529.063508,590.572334 529.092287,587.697677 L529.090477,587.609961 L528.720626,587.556795 C526.162076,587.166 523.581158,586.462042 521.111902,585.473099 L520.677337,585.295627 C517.095362,583.804329 514.283913,581.866044 512.922461,579.897905 C511.366317,577.648316 511.763294,575.45307 514.236967,573.86216 C517.91729,571.495211 525.890531,577.18219 528.979047,583.538141 C529.470944,584.550431 529.803435,585.496919 529.975856,586.369721 L530.036477,586.720961 L530.293416,586.750409 C535.137861,587.263312 539.779553,586.583854 543.197631,584.518859 L543.504966,584.32731 C547.549234,581.727321 549.657068,578.799589 550.033759,575.741146 L550.045477,575.632961 L549.749078,575.681372 C546.382045,576.205427 542.642095,576.228842 538.704267,575.731952 L538.265925,575.6746 C537.251383,575.537148 536.253432,575.369045 535.275666,575.171983 L534.442608,574.996021 L533.619939,574.806111 C533.075067,574.674908 532.537456,574.534565 532.007777,574.385397 L531.21929,574.155065 C521.961234,571.352092 515.307605,565.818483 515.00666,559.319218 C514.897963,556.971772 515.387919,555.593087 517.285729,554.883734 C523.578464,552.531669 535.652079,556.24238 543.69569,562.716857 C548.326308,566.444141 550.91464,570.449314 551.094907,574.326532 L551.097477,574.415961 L551.134687,574.409084 C557.597575,573.041121 562.340834,569.635717 563.879246,564.416547 L563.959972,564.130067 C564.49654,562.134973 564.521526,560.121732 564.072377,558.114333 L564.039477,557.976961 C555.515322,559.147424 548.111994,557.651652 537.811954,552.127174 L537.236724,551.816105 L535.710516,550.979983 L534.752789,550.450136 L533.399351,549.692214 L532.137945,548.973104 L531.343826,548.512256 L530.584148,548.064153 L529.856325,547.626993 L529.157771,547.198975 L528.485903,546.778295 L527.838135,546.363154 L527.211882,545.951747 L526.604559,545.542275 C526.504773,545.47409 526.405667,545.405911 526.307189,545.337701 L525.723415,544.92775 L525.152109,544.515228 L524.590685,544.098334 L524.03656,543.675264 L523.487148,543.244218 C523.395828,543.171612 523.304597,543.098599 523.213401,543.025141 L522.666211,542.578751 C522.483667,542.427974 522.300831,542.275117 522.117272,542.11988 C517.873873,538.531188 517.556804,534.823954 520.25181,532.74128 C521.827823,531.523354 524.595948,531.503602 528.731426,532.300461 L529.548962,532.464786 L530.400929,532.648891 C538.500672,534.45458 547.958908,538.786032 554.783185,544.061849 C559.86251,547.988652 563.28827,552.219514 564.684755,556.545476 L564.781477,556.856961 L564.807534,556.853299 C565.282046,556.778301 565.760594,556.695161 566.243906,556.604127 L566.728832,556.51047 C573.845958,555.102304 584.060312,546.141594 586.02572,540.988144 C588.269393,535.105062 588.619822,528.28232 586.986053,522.176522 L586.836745,521.639677 L587.79749,521.362245 Z M528.079614,583.975199 C525.216816,578.083759 517.774896,572.775749 514.777891,574.703232 C512.786865,575.983733 512.50583,577.537831 513.74487,579.329008 C514.979017,581.113112 517.640778,582.948199 521.061691,584.372442 C523.406233,585.348554 525.862498,586.057309 528.302876,586.474559 L528.988477,586.583961 L528.985713,586.566967 C528.847492,585.831722 528.575796,585.032066 528.174515,584.174198 L528.079614,583.975199 Z M543.06866,563.495852 C535.272332,557.220419 523.53856,553.614155 517.635846,555.82044 C516.262088,556.333916 515.914755,557.311275 516.00559,559.272963 C516.349964,566.71013 526.066581,573.012672 538.400181,574.683653 C542.350953,575.218912 546.091039,575.22036 549.438927,574.715332 L550.093477,574.607961 L550.089808,574.422956 C549.959829,570.889507 547.60707,567.222099 543.337971,563.714844 L543.06866,563.495852 Z M530.183339,533.624931 C529.904074,533.562674 529.630388,533.503579 529.362298,533.447714 L528.574833,533.289884 L527.821049,533.151857 C527.69823,533.130526 527.57682,533.110037 527.456819,533.0904 L526.753753,532.98286 C523.894949,532.577921 521.920076,532.715867 520.863289,533.532541 C518.717253,535.190976 518.97022,538.148714 522.763018,541.356327 L523.30274,541.807466 L523.841005,542.246496 C523.930737,542.318757 524.020515,542.390588 524.110392,542.462026 L524.651274,542.88623 L525.197103,543.302776 L525.750441,543.713445 L526.313848,544.120018 L526.889888,544.524277 L527.481122,544.928001 L528.090111,545.332971 L528.719417,545.74097 L529.707075,546.362539 L530.398381,546.785897 L531.118971,547.218516 L531.871405,547.662176 L533.065369,548.352265 L534.345393,549.077214 L535.720123,549.843034 L537.71536,550.938092 C547.920794,556.50144 555.142029,558.086562 563.395373,557.053622 L563.773477,557.003961 L563.72601,556.847503 C562.431758,552.839753 559.272498,548.875573 554.547804,545.146872 L554.171555,544.852993 C547.466063,539.669008 538.142711,535.399327 530.183339,533.624931 Z" id="Path-17"></path> <path d="M1225.0923,0.281247928 L1225.99057,0.720674706 C1224.10391,4.57740431 1221.13905,7.33337036 1216.66847,9.97141735 L1216.0823,10.3113849 L1215.58237,10.5900059 L1214.27072,11.3023093 L1210.46557,13.3345896 C1208.69147,14.3190383 1207.49928,15.1233123 1206.62179,15.9794372 C1199.79917,22.635908 1199.46926,28.1904394 1204.5233,35.0393857 L1204.93347,35.5828249 C1205.00369,35.6738608 1205.07484,35.7651318 1205.14691,35.8566433 L1205.59041,36.4086415 C1205.66616,36.5011367 1205.74284,36.5938833 1205.82044,36.6868867 L1206.29699,37.2480335 L1206.79543,37.8156068 L1207.31564,38.3898687 C1207.49265,38.5824332 1207.67328,38.7761562 1207.85749,38.9710813 L1208.42885,39.5680269 L1209.03658,40.1892066 C1209.14081,40.2946818 1209.24664,40.401264 1209.35426,40.5091548 L1210.02297,41.1738162 L1210.74382,41.8795628 L1212.46516,43.5362727 L1214.72341,45.6938783 L1215.55353,46.4958191 L1216.34143,47.2655852 L1217.08894,48.0056298 L1217.79793,48.7184061 C1217.91299,48.8350661 1218.02652,48.9506921 1218.13855,49.0653352 L1218.7932,49.7418087 L1219.41394,50.3971468 L1220.00261,51.0338026 C1220.09815,51.1384914 1220.19243,51.2425039 1220.2855,51.3458913 L1220.82952,51.9591235 C1221.09452,52.2623979 1221.34922,52.5609662 1221.59467,52.8562085 L1222.07354,53.4426671 L1222.52956,54.0227094 L1222.9646,54.5987885 L1223.3805,55.1733576 C1223.58398,55.4606734 1223.78096,55.748343 1223.9725,56.0377462 L1224.34863,56.6192728 C1224.47179,56.8141581 1224.59284,57.0102227 1224.71208,57.2078755 C1227.59242,61.9822764 1228.50211,66.708723 1227.14771,71.7513917 C1225.61729,77.4493976 1222.71123,81.7511839 1218.38367,85.2503278 L1218.14462,85.4421487 L1217.66735,85.8160647 L1217.1889,86.1784724 L1216.70646,86.5311235 C1216.62557,86.5891829 1216.54439,86.6469088 1216.46288,86.7043376 L1215.96923,87.0456381 C1215.88612,87.1020247 1215.80256,87.1581872 1215.71848,87.2141622 L1215.20735,87.548053 L1214.68108,87.8791935 L1214.13687,88.2093354 L1213.57193,88.5402302 L1212.98348,88.8736296 L1212.36872,89.2112851 C1212.26391,89.268013 1212.15789,89.3249912 1212.0506,89.3822563 L1211.39114,89.7295802 L1210.6984,90.0855392 L1209.96958,90.451885 L1209.20189,90.830369 L1208.39254,91.2227429 L1207.09431,91.8411789 L1203.5552,93.49302 L1202.24523,94.1124553 L1200.65613,94.8809096 L1199.57073,95.4214574 L1198.89278,95.7679075 L1198.24822,96.1051726 L1197.63438,96.4349216 L1197.04857,96.7588235 L1196.48812,97.078547 L1195.95034,97.3957612 C1195.86245,97.4485138 1195.77539,97.5012314 1195.68911,97.5539488 L1195.18032,97.870528 L1194.68749,98.1887702 L1194.20796,98.5103442 C1194.129,98.5643102 1194.05048,98.6184846 1193.97234,98.6729022 L1193.50772,99.002603 L1193.04969,99.339808 C1192.97376,99.3967269 1192.89798,99.454028 1192.82232,99.511746 L1192.36915,99.8633363 L1191.91588,100.226603 C1187.75105,103.616073 1185.00744,107.772968 1183.61722,113.32849 C1182.38467,118.253938 1183.8148,122.618545 1188.09926,127.457056 L1188.62711,128.040018 C1188.98816,128.430265 1189.36752,128.823809 1189.7653,129.221181 L1190.3758,129.820176 C1190.58391,130.020842 1190.79663,130.222531 1191.01399,130.425309 L1191.67995,131.036979 C1191.79326,131.139491 1191.90773,131.242291 1192.02336,131.345389 L1192.73112,131.967608 C1192.8514,132.071928 1192.97285,132.176561 1193.09547,132.281517 L1193.84518,132.915179 L1194.62295,133.556967 C1194.75492,133.664631 1194.88807,133.77265 1195.02239,133.881032 L1195.84239,134.535754 L1196.69065,135.199594 C1196.83438,135.311016 1196.9793,135.422835 1197.12539,135.535058 L1198.49674,136.575685 L1199.82974,137.568312 L1201.33109,138.67111 L1206.05944,142.109901 L1207.19548,142.943565 L1208.29509,143.759159 L1209.35891,144.557595 L1210.38757,145.339786 L1211.38171,146.106644 L1212.34197,146.859083 C1212.49922,146.983339 1212.65509,147.107032 1212.80959,147.230181 L1213.72023,147.962702 L1214.59859,148.683085 C1214.74233,148.802188 1214.88475,148.920824 1215.02587,149.03901 L1215.857,149.742899 L1216.65745,150.436931 C1217.05012,150.781636 1217.43151,151.122987 1217.802,151.461497 L1218.52854,152.134884 L1219.22663,152.80161 C1223.21711,156.673189 1225.78824,160.251367 1227.51087,164.351455 C1230.40422,171.238033 1228.79126,176.401474 1223.25085,180.441021 L1222.82856,180.743335 L1222.40119,181.037968 L1221.96729,181.325603 C1221.89435,181.372997 1221.82108,181.420128 1221.74745,181.46701 L1221.30111,181.745431 L1220.84469,182.018563 L1220.37675,182.287089 L1219.89588,182.551695 L1219.40066,182.813061 L1218.88965,183.071873 C1218.80308,183.114834 1218.7158,183.157716 1218.62777,183.200535 L1218.09041,183.456796 L1217.53369,183.712211 L1216.9562,183.967464 L1216.35651,184.223238 L1215.73319,184.480215 L1215.08481,184.739081 L1214.40996,185.000518 L1213.7072,185.26521 L1212.59761,185.669845 L1211.81885,185.945664 L1210.58857,186.370194 L1208.82475,186.959985 L1207.40305,187.423132 L1206.40552,187.743085 L1203.72721,188.587109 L1200.16715,189.701648 L1197.75235,190.477845 L1195.99346,191.060291 L1194.7674,191.478257 L1193.61557,191.882619 L1192.88646,192.145777 L1191.84725,192.532603 L1191.18858,192.786212 L1190.24807,193.161926 L1189.65057,193.410267 L1189.07494,193.657701 L1188.5197,193.904911 L1187.98337,194.152583 L1187.46446,194.401402 L1186.96149,194.652053 L1186.47298,194.905222 L1185.99744,195.161592 L1185.53339,195.42185 L1185.07935,195.686681 L1184.63384,195.956769 L1184.19536,196.232799 L1183.76245,196.515457 L1183.54761,196.659486 C1183.20839,196.88887 1182.87966,197.117916 1182.56136,197.346658 L1181.93864,197.803748 C1174.12482,203.664803 1173.14699,209.340932 1177.79894,215.41271 C1178.21948,215.9616 1178.67154,216.504019 1179.16003,217.04438 L1179.58777,217.507145 C1179.87903,217.815457 1180.18263,218.123508 1180.4995,218.432122 L1180.98487,218.895568 C1181.15005,219.050259 1181.31866,219.205194 1181.49081,219.360476 L1182.01802,219.827464 L1182.56718,220.297148 C1182.75396,220.454227 1182.94452,220.611859 1183.13897,220.770147 L1183.73408,221.247077 L1184.35319,221.728557 L1184.99699,222.215203 L1185.66617,222.707634 L1186.3614,223.206467 L1187.08338,223.712319 L1187.83278,224.225807 L1188.6103,224.74755 L1189.41662,225.278165 L1190.25242,225.818268 L1191.11838,226.368479 L1192.0152,226.929413 C1192.16728,227.02383 1192.32068,227.11872 1192.4754,227.214095 L1193.41978,227.792273 L1194.39673,228.38272 L1195.40693,228.986051 L1196.98607,229.916559 L1199.21436,231.208099 L1201.58797,232.562294 L1211.8436,238.395727 L1213.76377,239.516946 L1214.76348,240.117884 L1216.03107,240.910804 L1216.97558,241.527207 L1218.49552,242.543465 L1218.94149,242.845038 L1219.80309,243.440898 C1224.43074,246.692031 1227.22573,249.519294 1228.25154,252.25779 C1229.98923,256.896721 1228.70555,261.336594 1224.75116,266.401262 C1223.95578,267.419963 1223.05821,268.461929 1222.00579,269.595353 L1221.28066,270.365268 C1221.03092,270.626921 1220.77295,270.893839 1220.50618,271.166771 L1219.57417,272.109012 L1217.33461,274.305919 L1213.78122,277.756292 L1212.84542,278.678608 C1212.69232,278.830671 1212.54065,278.981921 1212.39041,279.132382 L1211.50594,280.025845 C1211.36135,280.173236 1211.21816,280.319882 1211.07637,280.465807 L1210.24233,281.332874 L1209.44139,282.18371 C1209.04914,282.605252 1208.66914,283.021116 1208.30119,283.431917 L1207.58126,284.24695 C1202.65314,289.907474 1200.05445,294.655863 1199.16005,300.177613 L1199.09905,300.573362 L1198.10959,300.428561 C1198.93312,294.8012 1201.39622,290.019557 1206.0761,284.464939 L1206.77686,283.646363 C1207.49357,282.821892 1208.25836,281.979177 1209.07303,281.113144 L1209.9044,280.23915 L1210.76943,279.348483 C1210.91643,279.198587 1211.06485,279.047949 1211.2147,278.896546 L1212.13097,277.978757 L1218.48392,271.781555 L1218.97084,271.298176 L1219.78775,270.471147 L1220.55187,269.680456 C1220.92131,269.293466 1221.27223,268.918463 1221.60653,268.552989 L1222.25357,267.834017 C1222.8796,267.126292 1223.4443,266.450126 1223.96295,265.785849 C1227.72421,260.968535 1228.91014,256.866749 1227.31508,252.608575 C1226.37656,250.103084 1223.69015,247.392422 1219.20575,244.243533 L1218.37058,243.666127 L1216.5317,242.432785 L1215.74052,241.913607 L1214.47651,241.115271 L1212.72092,240.062946 L1209.56958,238.243703 L1199.87807,232.740497 L1198.12257,231.733371 L1196.44882,230.761066 L1195.37721,230.131137 L1193.83438,229.212051 L1192.36692,228.322008 L1191.42932,227.743709 L1190.52345,227.176713 L1189.6486,226.620377 L1188.80408,226.074059 L1187.98917,225.537117 L1187.20316,225.008908 L1186.44536,224.488791 L1185.71505,223.976123 L1185.01153,223.470262 L1184.33408,222.970567 L1183.68201,222.476394 C1183.57541,222.394456 1183.46984,222.312722 1183.36527,222.231178 L1182.74994,221.744085 C1182.64937,221.663248 1182.54979,221.582573 1182.45117,221.502048 L1181.87098,221.020591 C1181.68138,220.860634 1181.49554,220.701169 1181.31334,220.542089 L1180.77754,220.065898 C1180.51498,219.828274 1180.26034,219.591276 1180.01324,219.354543 L1179.52894,218.881323 C1178.57996,217.935163 1177.74717,216.98939 1177.00514,216.020888 C1171.99279,209.478714 1173.10131,203.191246 1181.35575,196.992389 L1181.98825,196.527638 C1182.31121,196.295343 1182.64426,196.063167 1182.98745,195.831101 L1183.42986,195.537002 C1183.50391,195.488621 1183.57815,195.440547 1183.6526,195.392767 L1184.1021,195.109487 L1184.55823,194.832538 L1185.0225,194.561218 L1185.49643,194.294822 L1185.98152,194.032645 C1186.06339,193.989261 1186.14578,193.946024 1186.22873,193.902919 L1186.73343,193.645751 L1187.25308,193.391042 L1187.78921,193.138089 L1188.34333,192.886186 L1188.91696,192.634629 L1189.51161,192.382715 L1190.12879,192.129739 L1191.10013,191.746744 L1192.13071,191.357398 L1192.85319,191.093133 L1193.99384,190.687923 L1194.79445,190.41088 L1196.05939,189.983203 L1197.40572,189.538876 L1199.84437,188.754879 L1205.04659,187.125102 L1207.0616,186.482384 L1208.46808,186.024325 L1209.78997,185.584338 L1211.03197,185.160186 L1211.81791,184.885112 L1212.57181,184.615421 L1213.29508,184.350449 L1213.9891,184.089534 L1214.65527,183.832015 L1215.29498,183.577229 L1215.90962,183.324513 L1216.50059,183.073206 L1217.06926,182.822644 L1217.61705,182.572166 L1218.14533,182.321109 C1218.23183,182.279181 1218.31757,182.237201 1218.40259,182.195156 L1218.90423,181.941989 L1219.38984,181.686588 L1219.86082,181.428289 L1220.31857,181.166431 L1220.76447,180.900351 L1221.19991,180.629387 L1221.62628,180.352877 C1221.69667,180.306293 1221.76674,180.259451 1221.83651,180.212335 L1222.2519,179.926264 L1222.66171,179.63299 C1227.83751,175.859288 1229.29749,171.185543 1226.58894,164.738801 C1224.9182,160.762213 1222.39799,157.26633 1218.46683,153.461372 L1217.77899,152.805918 C1217.31107,152.366734 1216.82431,151.922924 1216.31786,151.473308 L1215.54332,150.794384 C1215.01698,150.338668 1214.47053,149.876558 1213.90314,149.406874 L1213.03624,148.696521 C1212.88911,148.577133 1212.74064,148.457234 1212.59082,148.336808 L1211.67562,147.607756 L1210.72743,146.865133 C1210.56662,146.740182 1210.4044,146.61463 1210.24078,146.488456 L1209.24193,145.723819 L1208.20853,144.943401 L1207.13995,144.146317 L1206.03554,143.331683 L1199.9622,138.907971 L1198.88634,138.114071 L1197.57926,137.136764 L1196.96143,136.668567 L1196.07332,135.986319 L1195.21322,135.313099 L1194.38107,134.648508 C1194.10834,134.428372 1193.84026,134.209606 1193.57683,133.992144 L1192.80045,133.343606 C1191.91091,132.591387 1191.07816,131.854327 1190.30187,131.12956 L1189.65029,130.511275 C1183.37889,124.459754 1181.11126,119.22333 1182.64713,113.085735 C1184.0913,107.314609 1186.95665,102.973269 1191.28466,99.450995 L1191.5176,99.2628422 L1191.98234,98.8961466 L1192.44787,98.540845 C1192.52567,98.4824829 1192.60362,98.4245245 1192.68177,98.3669345 L1193.15356,98.0255295 C1193.23274,97.9692706 1193.31225,97.9133089 1193.39212,97.8576091 L1193.8763,97.5262676 L1194.37215,97.1995056 L1194.88239,96.8756195 L1195.40973,96.5529057 L1195.95692,96.2296606 L1196.52666,95.9041805 L1197.12168,95.5747619 L1197.74471,95.2397011 L1198.39846,94.8972945 L1199.08566,94.5458385 L1200.18514,93.9979604 L1201.37521,93.4201383 L1202.66504,92.8066225 L1204.06383,92.1516635 L1205.26064,91.5959882 L1206.65263,90.9438331 L1207.5196,90.5322002 L1208.34097,90.1370748 L1209.49352,89.5715838 L1210.21288,89.2102182 L1210.89625,88.859353 L1211.54638,88.5172718 C1211.65212,88.460895 1211.75658,88.4048126 1211.85983,88.348989 L1212.46524,88.0168659 L1213.04428,87.6892361 L1213.59969,87.3643834 L1214.13421,87.0405913 L1214.65061,86.7161437 L1215.15161,86.3893242 L1215.63998,86.0584164 L1216.11846,85.7217042 L1216.5898,85.3774711 C1216.74603,85.2612826 1216.90152,85.1435545 1217.05674,85.0240009 L1217.52204,84.6595773 C1217.5996,84.5978319 1217.67721,84.5355586 1217.75492,84.4727216 C1221.92272,81.1027529 1224.70798,76.9797857 1226.18194,71.491997 C1227.46059,66.7313744 1226.60369,62.2792444 1223.85583,57.7244408 L1223.50193,57.1514527 C1223.20187,56.6768946 1222.88835,56.2088349 1222.55663,55.7410392 L1222.14954,55.1794121 C1222.01073,54.9919793 1221.8687,54.8041898 1221.72316,54.6156444 L1221.2757,54.047342 C1221.19926,53.952114 1221.12187,53.8565974 1221.04349,53.7607421 L1220.56098,53.1811488 C1220.47848,53.0837398 1220.3949,52.9858924 1220.31023,52.8875569 L1219.7886,52.2912861 L1219.23862,51.6809043 L1218.65848,51.0540177 C1218.55917,50.9480282 1218.45853,50.8412512 1218.35653,50.7336368 L1217.72774,50.0775039 L1217.06425,49.3988809 L1216.36426,48.6953737 L1215.62594,47.9645883 L1214.44263,46.8120266 L1210.43146,42.9696843 L1209.67543,42.2342402 L1208.976,41.5445094 L1208.3239,40.8907045 L1207.70985,40.2630379 L1207.41418,39.955948 C1207.22525,39.7586231 1207.03978,39.562331 1206.85778,39.367036 L1206.32225,38.7841066 C1206.23474,38.6874383 1206.1481,38.5910103 1206.06235,38.4948182 L1205.55835,37.9204601 C1205.47611,37.8251936 1205.39475,37.7301539 1205.31428,37.6353367 L1204.84212,37.069067 L1204.39133,36.5079212 C1204.24465,36.3217028 1204.10155,36.1363025 1203.96206,35.9516847 L1203.55442,35.4001429 C1198.39644,28.2596837 1198.75771,22.2549021 1205.92345,15.2636687 C1206.81497,14.3938622 1207.96875,13.5976078 1209.61904,12.6627213 L1210.34346,12.2643316 L1214.25564,10.17427 L1215.43603,9.52764592 L1215.71752,9.36818053 C1220.1321,6.82718879 1223.04653,4.23482844 1224.90391,0.655122729 L1225.0923,0.281247928 Z" id="Path-18"></path> <path d="M37.872105,153.373234 C43.1128652,150.44844 51.5027806,149.107024 56.6806185,150.661641 C86.4598341,159.602684 91.2801691,196.16463 79.6126037,229.196306 L79.0134768,230.843961 L79.2978474,230.849719 C80.6377814,230.865319 81.9822181,230.833342 83.3289613,230.75216 L84.0025149,230.70746 C96.2394973,229.820828 108.592487,223.379749 116.577518,214.249538 L116.774477,214.020961 L116.587206,213.815217 C113.577828,210.465447 111.071872,205.936728 109.453373,200.83288 L109.327448,200.42876 C109.141721,199.822047 108.973059,199.221917 108.821449,198.629416 L108.647701,197.922144 C108.592513,197.687652 108.540052,197.454447 108.490317,197.222597 L108.349292,196.531178 C108.327151,196.416641 108.305691,196.302459 108.284912,196.188641 L108.168416,195.510165 C108.0962,195.060847 108.034882,194.617616 107.984454,194.181009 L107.916979,193.531131 C107.907094,193.423668 107.89789,193.316636 107.889365,193.210043 L107.846383,192.57582 C107.440147,185.239577 110.366339,180.136579 116.5874,180.136579 C120.768548,180.136579 123.563138,183.0521 125.024328,187.865417 C126.107346,191.432995 126.342612,195.991121 125.806926,198.591746 C124.698943,203.970725 122.089466,209.064892 118.451074,213.574834 L118.121477,213.977961 L118.176645,214.034961 C121.202169,217.076142 124.66112,218.862895 128.1359,218.78382 L128.417665,218.773307 C136.199742,218.369399 142.741248,215.622886 149.987548,209.94196 L150.826898,209.273413 C152.793196,207.682925 154.816004,205.878086 156.933288,203.847346 L157.846589,202.963165 L158.772124,202.05112 L159.710555,201.11101 L160.662546,200.142632 L161.628763,199.145785 L163.141805,197.558269 L168.453308,191.928114 L169.319406,191.023845 L170.143121,190.173049 L170.929932,189.370609 L171.685314,188.611409 L172.414745,187.890334 C172.534458,187.773047 172.653318,187.657136 172.771439,187.542494 L173.472209,186.869011 L174.160719,186.220862 L174.842235,186.952666 L174.160292,187.59465 C174.045732,187.703639 173.930645,187.813695 173.814918,187.924923 L173.111976,188.607202 L172.388255,189.322685 L171.638334,190.076445 L170.45246,191.289947 L169.613309,192.161588 L163.334573,198.809326 L162.353237,199.835123 L161.386387,200.832744 C161.226416,200.996677 161.067022,201.159444 160.90819,201.321049 L159.961845,202.276763 C159.805209,202.433735 159.64911,202.589553 159.493532,202.744221 L158.56622,203.658457 C158.259131,203.958622 157.954021,204.254219 157.650781,204.545278 L156.74656,205.404876 L155.852904,206.23744 C146.226503,215.111147 138.344992,219.259401 128.469498,219.771963 C124.616536,219.971941 120.828671,218.090914 117.553822,214.833145 L117.468477,214.746961 L117.366287,214.867487 C109.329117,224.080844 96.9694254,230.598293 84.6436238,231.65974 L84.0747806,231.704846 C82.4757848,231.820701 80.8796009,231.868127 79.2897595,231.849745 L78.6364768,231.836961 L78.2487865,232.850381 C67.994663,258.911123 47.4847019,282.001787 20.9960855,286.393468 L19.1383959,286.669327 L18.9954768,286.686961 L18.8519244,287.024177 C18.0367375,288.911749 17.125821,290.845133 16.1280562,292.821179 L15.6951514,293.670659 C14.4522582,296.08761 13.1379725,298.462309 11.7049477,300.921424 L11.1759218,301.824094 L10.351053,303.212996 L8.82419705,305.756633 L7.96482017,305.24529 L9.49256612,302.700161 L10.5778118,300.868191 L10.8409458,300.417935 C12.2657028,297.973008 13.5717075,295.613271 14.8058471,293.213343 C15.8186999,291.243732 16.7463306,289.316938 17.5798397,287.436646 L17.8554768,286.803961 L17.6734016,286.819625 C6.39555803,287.645282 -0.200509806,280.28347 0.00464874321,270.157796 L0.0135080616,269.833704 C0.366407865,259.568554 7.49852394,252.89207 16.3880763,257.148979 C23.1662052,260.394798 24.7594776,267.347954 22.3416651,277.014626 L22.1368596,277.804337 C22.0656766,278.069543 21.9915868,278.336712 21.9146135,278.605823 L21.6750658,279.418966 C21.6337072,279.555455 21.5916334,279.692425 21.5488474,279.829873 L21.2836081,280.660281 C21.1923616,280.938984 21.0982895,281.219581 21.0014149,281.502052 C20.5622389,282.78262 20.06969,284.08817 19.5270049,285.417552 L19.4454768,285.611961 L20.837783,285.406092 C46.9253382,281.079137 67.1363569,258.297309 77.276987,232.594184 L77.5804768,231.802961 L77.2494503,231.790057 C57.1131168,230.845312 38.2466641,219.444378 27.9066047,202.978267 L27.561303,202.421319 C15.9982144,183.529311 19.0808337,163.860375 37.872105,153.373234 Z M15.9561763,258.0509 C8.61060394,254.533352 2.60159461,259.163322 1.27341042,267.204647 L1.18747418,267.777874 C1.09638701,268.453105 1.03757888,269.150716 1.01291765,269.868062 C0.675226172,279.690833 6.95190863,286.746718 17.9165941,285.797001 L18.3024768,285.759961 L18.5989306,285.045042 C19.028187,283.993753 19.4254644,282.958164 19.7891021,281.938963 L20.055497,281.177646 L20.3443059,280.315428 C20.4375225,280.03021 20.5276788,279.747185 20.6147522,279.466373 L20.8667014,278.63059 C23.8594577,268.404906 22.6011173,261.23294 15.9561763,258.0509 Z M56.3930558,151.619403 C51.4933926,150.148306 43.3775769,151.445898 38.3594354,154.246451 C20.1082814,164.432161 17.1265654,183.457274 28.4142235,201.899278 C38.5052736,218.38624 57.268361,229.8493 77.2915977,230.790841 L77.9594768,230.817961 L77.9680808,230.796398 C90.1117662,198.357973 86.2199431,161.88217 57.9866666,152.133314 L56.3930558,151.619403 Z M116.5874,181.136579 C111.05672,181.136579 108.417068,185.816186 108.852944,192.712649 L108.900204,193.336103 C108.937198,193.755603 108.985174,194.182742 109.044171,194.616996 L109.140937,195.273649 L109.254263,195.940582 C109.315072,196.276553 109.382102,196.616231 109.455369,196.959396 L109.610227,197.650309 C109.800608,198.461646 110.025012,199.291162 110.283648,200.136049 C111.835832,205.206568 114.284188,209.700159 117.211118,213.005422 L117.427477,213.244961 L117.63889,212.98811 C121.083744,208.729583 123.584017,203.942361 124.718598,198.895536 L124.827488,198.389998 C125.32911,195.95475 125.102571,191.565706 124.067448,188.1559 C122.720267,183.718143 120.245783,181.136579 116.5874,181.136579 Z" id="Path-15"></path> <path d="M1077.73876,827.541871 L1078.25835,828.396289 L1078.11092,828.500505 L1077.86223,828.691819 L1077.33338,829.113754 L1076.3943,829.883809 L1075.57844,830.573306 L1075.31917,830.803542 L1075.22921,830.891725 L1074.46185,831.750153 L1074.24862,831.98106 L1073.77246,832.471667 L1073.464,832.797746 C1072.80415,833.518551 1072.55848,833.970932 1072.61944,834.404579 C1072.6377,834.534429 1072.71374,834.700478 1072.85028,834.894643 C1073.0541,835.184488 1073.36429,835.502509 1073.80688,835.892331 L1074.73868,836.692153 C1074.82257,836.767147 1074.91001,836.838029 1075.00068,836.904561 L1075.13907,837.001065 L1090.35948,847.078961 L1080.82908,831.405758 L1081.6835,830.886171 L1093.54025,850.383616 L1074.58701,837.834872 C1074.46638,837.755003 1074.34971,837.669385 1074.23739,837.578328 L1073.14593,836.642758 C1072.64904,836.20511 1072.29166,835.838703 1072.03229,835.469874 C1071.81211,835.156771 1071.6725,834.851897 1071.62918,834.543802 C1071.50656,833.671591 1071.89311,833.001298 1072.86616,831.971908 L1073.40358,831.417558 L1073.62431,831.184843 L1074.48366,830.225272 L1074.53431,830.172823 L1074.70461,830.014043 L1074.95217,829.795542 L1075.25931,829.531868 L1075.79304,829.083478 L1076.54811,828.46329 L1076.90446,828.176354 L1077.36279,827.815813 L1077.59173,827.643241 C1077.62356,827.620008 1077.65197,827.599742 1077.67659,827.582746 L1077.73876,827.541871 Z" id="Path" transform="translate(1082.573706, 838.962744) rotate(13.000000) translate(-1082.573706, -838.962744) "></path> <path d="M1104.69008,805.629238 C1105.95198,805.223628 1107.30017,805.873796 1107.77981,807.089424 L1107.83518,807.244287 L1106.88315,807.550296 C1106.62964,806.76161 1105.78478,806.327761 1104.99609,806.581267 C1104.92685,806.603524 1104.85936,806.630772 1104.79416,806.662778 L1104.69813,806.714325 L1098.31972,810.4428 C1095.52665,812.075477 1094.65406,813.392288 1095.68218,815.151138 L1095.76302,815.275319 L1096.69594,816.614131 L1097.02346,817.069593 L1118.77648,844.551961 L1109.18617,814.715255 L1110.1382,814.409246 L1121.41696,849.498724 L1096.27824,817.741412 L1096.08899,817.484691 L1095.28817,816.349285 L1094.98394,815.906989 L1094.81886,815.65579 C1093.4504,813.314717 1094.54613,811.548189 1097.57217,809.723651 L1097.81507,809.579477 L1104.19348,805.851003 C1104.35046,805.759242 1104.51698,805.68488 1104.69008,805.629238 Z" id="Path" transform="translate(1107.826937, 827.503680) rotate(35.000000) translate(-1107.826937, -827.503680) "></path> <path d="M1139.85802,804.551327 L1140.1164,805.51737 L1129.61784,808.315089 C1128.52825,808.855768 1127.98593,810.102204 1128.33306,811.267987 L1140.68148,852.738961 L1140.6103,809.855892 L1141.6103,809.854221 L1141.69349,859.641161 L1127.37465,811.553369 C1126.90736,809.984046 1127.59134,808.310326 1129.08348,807.479741 L1129.2664,807.384179 L1139.85802,804.551327 Z" id="Path" transform="translate(1134.461441, 832.096244) rotate(39.000000) translate(-1134.461441, -832.096244) "></path> <path d="M1159.79347,824.556196 L1159.56773,823.582465 L1162.02904,822.988917 L1163.47026,822.648919 L1164.92429,822.318476 L1165.96895,822.091624 L1166.63961,821.954819 L1167.21666,821.846954 L1167.70293,821.768365 L1167.97805,821.7324 L1168.21491,821.709692 L1168.41433,821.700081 C1168.56514,821.698139 1168.67783,821.709954 1168.75455,821.736041 C1170.77025,822.421378 1171.87801,824.56399 1171.3021,826.588919 L1171.24109,826.784459 L1154.83053,875.050816 L1159.31565,831.253719 L1159.46798,827.059413 L1160.46732,827.095709 L1160.31272,831.322792 L1156.72348,866.373961 L1170.29432,826.462557 C1170.80506,824.960362 1170.04828,823.33318 1168.59676,822.743953 L1168.43265,822.682814 L1168.41213,822.679672 L1168.33165,822.682461 L1168.20091,822.696956 L1167.9167,822.739637 L1167.23141,822.862739 L1166.51792,823.003816 L1165.22479,823.277728 L1163.97411,823.55892 L1159.79347,824.556196 Z" id="Path" transform="translate(1163.142252, 848.375346) rotate(35.000000) translate(-1163.142252, -848.375346) "></path> <path d="M1174.42202,863.221388 L1161.46338,885.407118 L1182.77783,865.275455 C1183.96126,864.15769 1184.0145,862.292196 1182.89673,861.108759 C1182.51628,860.705957 1182.03,860.418545 1181.49367,860.27949 C1178.74367,859.5665 1175.85488,860.768273 1174.42202,863.221388 Z M1181.2427,861.247485 C1181.59707,861.339362 1181.91837,861.529264 1182.16974,861.795407 L1182.27993,861.922477 C1182.90251,862.705716 1182.83195,863.848795 1182.09118,864.548465 L1165.83848,879.897961 L1175.28551,863.725752 C1176.49256,861.659238 1178.92608,860.646859 1181.2427,861.247485 Z" id="Path-21" transform="translate(1172.582407, 872.741493) rotate(35.000000) translate(-1172.582407, -872.741493) "></path> </g> </g> </svg> 