<?xml version="1.0" encoding="UTF-8"?> <svg xmlns="http://www.w3.org/2000/svg" xmlns:xlink="http://www.w3.org/1999/xlink" width="503px" height="43px" viewBox="0 0 503 43"> <title>TalentsyЖурнал</title> <g id="Main" stroke="none" stroke-width="1" fill="none" fill-rule="evenodd" fill-opacity="0"> <path d="M25.906,34 L25.906,9.008 L40.03,9.008 L40.03,1.264 L1.486,1.264 L1.486,9.008 L15.566,9.008 L15.566,34 L25.906,34 Z M49.05,34.44 C56.002,34.44 58.994,32.02 60.006,30.744 C60.358,32.988 61.854,34 63.746,34 L71.71,34 L71.71,27.576 L70.434,27.576 C69.422,27.576 69.202,27.092 69.202,26.388 L69.202,17.324 C69.202,13.892 68.322,9.668 54.594,9.668 L52.174,9.668 C39.1174783,9.668 38.0715373,14.4464031 38.0503421,17.5735151 L38.05,17.764 L47.158,17.764 C47.29,16.972 47.51,15.124 53.362,15.124 L53.582,15.124 C59.346,15.124 59.742,16.18 59.742,17.06 C59.742,17.808 59.346,18.16 58.246,18.292 L47.422,19.304 C40.338,19.964 37.478,22.032 37.478,26.388 L37.478,26.696 C37.478,30.744 40.514,34.44 48.478,34.44 L49.05,34.44 Z M51.118,29.116 C47.774,29.116 46.806,27.708 46.806,26.432 L46.806,26.388 C46.806,25.024 47.862,24.584 50.37,24.188 L59.742,22.736 L59.742,23.484 C59.742,26.3 56.354,29.116 51.118,29.116 Z M83.854,34 L83.854,1.264 L74.042,1.264 L74.042,34 L83.854,34 Z M106.074,34.66 C120.198,34.66 122.31,28.896 122.31,25.684 L122.31,25.64 L112.63,25.64 C112.498,26.212 111.442,28.676 104.93,28.676 L104.886,28.676 C99.474,28.676 97.098,26.828 96.526,24.056 L122.442,24.056 L122.442,22.428 C122.442,16.664 119.89,9.668 105.986,9.668 L103.302,9.668 C90.498,9.668 86.89,15.52 86.89,21.592 L86.89,22.56 C86.89,28.764 90.938,34.66 103.566,34.66 L106.074,34.66 Z M112.542,19.172 L96.702,19.172 C97.45,16.664 99.65,15.168 104.578,15.168 L104.622,15.168 C109.594,15.168 111.882,16.664 112.542,19.172 Z M135.246,34 L135.246,22.824 C135.246,18.952 138.106,16.4 142.506,16.4 C146.862,16.4 148.842,18.644 148.842,22.296 L148.842,34 L158.742,34 L158.742,19.04 C158.742,14.464 155.486,9.8 147.214,9.8 L146.906,9.8 C139.866,9.8 136.346,13.188 135.158,14.376 L135.158,10.328 L125.434,10.328 L125.434,34 L135.246,34 Z M179.642,34 L179.642,27.488 L176.958,27.488 C175.242,27.488 174.978,26.696 174.978,25.42 L174.978,16.84 L179.642,16.84 L179.642,10.328 L174.978,10.328 L174.978,3.42 L165.298,3.42 L165.298,10.328 L160.678,10.328 L160.678,16.84 L165.298,16.84 L165.298,27.268 C165.298,31.36 166.882,34 171.15,34 L179.642,34 Z M198.694,34.66 C211.762,34.66 214.314,30.876 214.314,26.52 L214.314,26.256 C214.314,21.504 212.026,19.04 201.114,18.82 L196.89,18.732 C192.798,18.6 191.918,17.896 191.918,16.84 L191.918,16.752 C191.918,15.564 192.842,14.992 197.55,14.992 L197.594,14.992 C202.4516,14.992 203.212624,16.295456 203.406086,17.1892544 L203.428392,17.3033728 C203.434947,17.340544 203.44072,17.3768 203.446,17.412 L213.434,17.412 L213.434,17.104 C213.434,13.408 210.574,9.668 198.606,9.668 L196.846,9.668 C184.261011,9.668 182.029115,13.1601146 181.89295,16.6905433 L181.886746,16.936871 L181.886746,16.936871 L181.886,17.324 C181.886,20.8 184.35,24.496 194.646,24.716 L198.87,24.804 C203.49,24.936 204.062,25.64 204.062,26.872 L204.062,26.96 C204.062,28.104 203.402,29.204 197.946,29.204 L197.858,29.204 C192.138,29.204 191.786,26.872 191.786,25.992 L181.666,25.992 L181.666,26.256 C181.666,29.292 183.074,34.66 196.89,34.66 L198.694,34.66 Z M227.602,42.272 C231.87,42.272 234.07,40.028 236.314,35.584 L248.722,10.328 L238.866,10.328 L231.474,26.344 L223.862,10.328 L213.302,10.328 L224.61,31.976 C225.314,33.34 225.71,34 225.71,34.484 C225.71,34.968 225.49,35.232 224.566,35.232 L219.022,35.232 L219.022,42.272 L227.602,42.272 Z M274.506,34 L289.158,19.48 L289.158,34 L299.41,34 L299.41,19.48 L314.062,34 L327.438,34 L309.354,16.268 L326.558,1.264 L313.534,1.264 L299.41,13.98 L299.41,1.264 L289.158,1.264 L289.158,13.98 L275.034,1.264 L262.01,1.264 L279.214,16.268 L261.13,34 L274.506,34 Z M337.074,42.272 C341.342,42.272 343.542,40.028 345.786,35.584 L358.194,10.328 L348.338,10.328 L340.946,26.344 L333.334,10.328 L322.774,10.328 L334.082,31.976 C334.786,33.34 335.182,34 335.182,34.484 C335.182,34.968 334.962,35.232 334.038,35.232 L328.494,35.232 L328.494,42.272 L337.074,42.272 Z M369.326,42.272 L369.326,30.656 C370.118,31.536 374.078,34.572 381.118,34.572 L381.822,34.572 C392.734,34.572 396.43,28.676 396.43,22.472 L396.43,21.636 C396.43,15.124 392.866,9.756 382.13,9.756 L381.338,9.756 C374.166,9.756 370.382,12.792 369.326,13.716 L369.326,10.328 L359.514,10.328 L359.514,42.272 L369.326,42.272 Z M378.302,28.324 L378.082,28.324 C372.098,28.324 369.326,25.112 369.326,22.164 L369.326,21.988 C369.326,18.952 371.966,15.872 378.082,15.872 L378.302,15.872 C384.638,15.872 386.398,18.952 386.398,21.988 L386.398,22.164 C386.398,25.024 384.638,28.324 378.302,28.324 Z M408.882,34 L408.882,25.464 L422.17,25.464 L422.17,34 L431.982,34 L431.982,10.328 L422.17,10.328 L422.17,18.952 L408.882,18.952 L408.882,10.328 L399.07,10.328 L399.07,34 L408.882,34 Z M446.194,34.44 C453.146,34.44 456.138,32.02 457.15,30.744 C457.502,32.988 458.998,34 460.89,34 L468.854,34 L468.854,27.576 L467.578,27.576 C466.566,27.576 466.346,27.092 466.346,26.388 L466.346,17.324 C466.346,13.892 465.466,9.668 451.738,9.668 L449.318,9.668 C436.261478,9.668 435.215537,14.4464031 435.194342,17.5735151 L435.194,17.764 L444.302,17.764 C444.434,16.972 444.654,15.124 450.506,15.124 L450.726,15.124 C456.49,15.124 456.886,16.18 456.886,17.06 C456.886,17.808 456.49,18.16 455.39,18.292 L444.566,19.304 C437.482,19.964 434.622,22.032 434.622,26.388 L434.622,26.696 C434.622,30.744 437.658,34.44 445.622,34.44 L446.194,34.44 Z M448.262,29.116 C444.918,29.116 443.95,27.708 443.95,26.432 L443.95,26.388 C443.95,25.024 445.006,24.584 447.514,24.188 L456.886,22.736 L456.886,23.484 C456.886,26.3 453.498,29.116 448.262,29.116 Z M473.122,34 C478.094,34 480.646,31.888 481.526,29.028 C482.23,26.696 482.494,23.44 482.494,16.84 L491.998,16.84 L491.998,34 L501.81,34 L501.81,10.328 L473.694,10.328 C473.694,21.636 473.474,23.176 473.122,25.024 C472.77,26.916 471.978,27.488 470.702,27.488 L470.174,27.488 L470.174,34 L473.122,34 Z" id="TalentsyЖурнал" stroke="#000000" fill="#000000" fill-rule="nonzero"></path> </g> </svg> 