<?xml version="1.0" encoding="UTF-8"?> <svg xmlns="http://www.w3.org/2000/svg" xmlns:xlink="http://www.w3.org/1999/xlink" width="2794px" height="85px" viewBox="0 0 2794 85"> <title>Path 9 Copy</title> <g id="Main" stroke="none" stroke-width="1" fill="none" fill-rule="evenodd"> <path d="M0.990836197,0.5 L662.944679,0.50133029 L668.249446,0.511966609 L673.518025,0.533223911 C674.393127,0.537650988 675.266736,0.542519939 676.138862,0.54783043 L681.353863,0.584989204 L686.533614,0.632728956 C687.393989,0.64156644 688.252911,0.650844132 689.110388,0.660561698 L694.237967,0.724142913 C695.089693,0.735618641 695.93999,0.747533576 696.788865,0.759887385 L701.865116,0.839274059 C702.708334,0.853382029 703.550147,0.867928207 704.390561,0.882912259 L709.416326,0.978068386 C711.086029,1.01153681 712.7502,1.04675407 714.408903,1.08371748 L719.368667,1.19984354 C720.19258,1.22007007 721.015142,1.24073248 721.836361,1.26183043 L726.747608,1.39364193 L731.626978,1.53589039 C732.437571,1.56046732 733.246852,1.58547846 734.054827,1.61092348 L738.887087,1.76879737 C739.689875,1.79597655 740.491374,1.82358893 741.291592,1.85163418 L746.077584,2.0250975 C748.462955,2.11442374 750.836934,2.20763983 753.199734,2.30473677 L757.910488,2.50410247 C759.475812,2.57228075 761.036229,2.64218118 762.591803,2.71380111 L767.244054,2.9338167 C768.017028,2.97134482 768.788806,3.00930215 769.559397,3.04768834 L774.168755,3.28314934 C775.700499,3.36335005 777.227555,3.44526359 778.749985,3.52888728 L783.303464,3.78488615 C784.060085,3.82840681 784.815565,3.87235435 785.569913,3.91672843 L790.082466,4.1880887 C791.58216,4.2802465 793.077386,4.37410779 794.568204,4.4696699 L799.027503,4.76145603 L803.460736,5.06343109 L807.868279,5.37557907 L812.250507,5.69788397 C812.97879,5.75244698 813.706033,5.80743252 814.432245,5.86284027 L818.777203,6.20035055 C820.221439,6.31454102 821.661611,6.43041764 823.097783,6.54797775 L827.39436,6.90570586 L831.667309,7.27351888 L835.917005,7.65140082 L840.143822,8.03933566 L844.348136,8.43730741 L848.530321,8.84530007 L852.690752,9.26329762 L856.829805,9.69128408 L860.947854,10.1292434 C861.632465,10.2030668 862.316218,10.2773051 862.999119,10.3519579 L867.086364,10.8048466 L871.153544,11.2676682 C871.829755,11.345632 872.505147,11.424009 873.179725,11.5027989 L877.217508,11.9804898 L881.23616,12.4680736 C881.904363,12.5501611 882.571783,12.6326601 883.238431,12.7155703 L887.229092,13.2179635 C887.892676,13.3025172 888.555502,13.3874814 889.217578,13.4728559 L892.288771,13.8719754 L896.848362,14.4762307 L901.356129,15.0879413 L905.817492,15.707967 L908.76863,16.1263615 L911.703157,16.5490883 L914.622679,16.9764023 L917.528801,17.4085581 L920.42313,17.8458105 L924.746022,18.5118024 L927.61789,18.9629106 L931.914617,19.6508803 L934.77406,20.1174365 L937.631341,20.5906176 L940.488068,21.0706784 L943.345845,21.5578735 L946.206277,22.0524578 L949.070971,22.5546859 L951.941532,23.0648126 L956.261886,23.8453696 L959.154138,24.3763572 L963.514555,25.1893995 L966.438533,25.74284 L969.378012,26.3057073 L973.819804,27.1682411 L976.805056,27.7557902 L979.811428,28.3536578 L984.364097,29.2703635 L988.973315,30.2117187 L993.644502,31.178583 L998.383076,32.1718161 L1003.19446,33.1922777 L1008.08406,34.2408275 L1013.05731,35.3183252 L1018.11961,36.4256306 L1025.01726,37.9498911 L1032.09572,39.5307091 L1037.53095,40.7546644 L1073.60435,48.9707577 L1081.43013,50.7362943 L1088.98666,52.423257 L1093.39962,53.3990841 L1099.15137,54.6592477 L1104.76139,55.8741633 L1110.23986,57.0455109 L1114.26851,57.8964405 L1118.23321,58.7245166 L1120.84293,59.2642209 L1124.71059,60.0557826 L1128.52575,60.8263805 L1132.29272,61.5767233 L1134.77938,62.066049 L1138.47559,62.784208 L1142.13507,63.4840018 L1145.76213,64.1661388 L1149.36106,64.8313277 L1152.93618,65.4802773 L1155.30847,65.9042384 L1158.85343,66.5276972 L1161.20961,66.9353206 L1164.73637,67.5352569 L1168.25794,68.1220247 L1171.77862,68.6963327 L1175.30271,69.2588894 L1178.83451,69.8104035 L1181.19546,70.1722948 L1185.93846,70.8831387 L1190.71811,71.5781308 L1193.12486,71.9202074 L1196.75974,72.4271385 L1200.42812,72.927279 C1201.58041,73.0826168 1202.73446,73.2362717 1203.89034,73.388242 L1207.36355,73.8390966 L1210.84818,74.2798313 C1212.01167,74.425055 1213.17714,74.5685901 1214.34464,74.7104347 L1217.85334,75.1308952 C1219.02499,75.269357 1220.19875,75.4061263 1221.37469,75.5412014 L1224.90912,75.9413416 L1228.45703,76.3313045 L1232.01885,76.7110784 C1232.61366,76.7735243 1233.20908,76.8355452 1233.80509,76.8971409 L1237.38854,77.2616099 C1237.98701,77.3215035 1238.58611,77.3809715 1239.18583,77.4400134 L1242.79184,77.7891515 L1246.4134,78.1280546 L1250.05094,78.4567113 C1251.26616,78.5645544 1252.48411,78.670688 1253.70486,78.7751099 L1257.37559,79.083239 L1261.06354,79.3810871 C1261.67965,79.4298711 1262.2965,79.4782262 1262.9141,79.5261522 L1266.62865,79.8085572 L1270.36145,80.0806524 L1274.11293,80.3424263 C1274.73975,80.3851945 1275.36737,80.4275322 1275.9958,80.4694392 L1279.77605,80.7157095 L1283.57601,80.9516297 L1287.3961,81.1771884 C1288.03448,81.2139174 1288.67371,81.2502141 1289.31381,81.2860785 L1293.16485,81.4960731 C1293.80844,81.5302067 1294.45292,81.5639073 1295.09828,81.5971748 L1298.98121,81.7915795 L1302.88592,81.9755766 L1306.81283,82.1491545 C1308.12554,82.205276 1309.44202,82.259659 1310.76234,82.3123017 L1314.73488,82.4650068 L1318.73085,82.6072581 L1322.75067,82.7390442 C1323.42266,82.7601358 1324.09565,82.7807909 1324.76966,82.8010092 L1328.82604,82.9170759 C1329.50417,82.9355462 1330.18333,82.9535792 1330.86354,82.9711747 L1334.95741,83.0714961 L1339.07679,83.1613062 C1339.76551,83.175398 1340.4553,83.1890513 1341.14618,83.202266 L1345.30461,83.2762876 C1345.99988,83.2877465 1346.69626,83.2987663 1347.39375,83.3093466 L1351.59215,83.3675538 L1355.81772,83.4152038 C1357.23082,83.4293262 1358.64852,83.4416872 1360.07088,83.4522848 L1364.35204,83.4787856 C1365.06792,83.48232 1365.78498,83.4854132 1366.50324,83.4880647 L1370.82717,83.4986734 L1373,83.5 L2793.5,83.5 L2793.5,84.5 L1373,84.5 L1368.65868,84.4946902 C1367.93754,84.4929206 1367.2176,84.4907088 1366.49885,84.4880551 L1362.20061,84.4668317 C1360.05858,84.4535704 1357.92712,84.4363361 1355.806,84.4151352 L1351.5775,84.3674467 L1347.37616,84.3091922 C1346.67817,84.2986032 1345.98131,84.2875745 1345.28554,84.2761063 L1341.12418,84.2020243 C1340.43281,84.1887989 1339.74252,84.1751345 1339.05332,84.1610312 L1334.93099,84.0711478 C1334.24608,84.0552902 1333.56222,84.0389943 1332.87942,84.0222603 L1328.79521,83.9166012 L1324.73588,83.8004393 C1324.06137,83.7802044 1323.38789,83.7595323 1322.71542,83.7384234 L1318.69264,83.6065289 L1314.69371,83.4641604 C1313.36467,83.4149598 1312.03952,83.3640155 1310.71822,83.3113293 L1306.76575,83.1480472 L1302.83589,82.9743256 L1298.92822,82.7901759 C1298.27877,82.7586159 1297.63022,82.7266219 1296.98257,82.6941941 L1293.10741,82.4944238 L1289.25341,82.2842542 C1288.61281,82.2483599 1287.97308,82.2120329 1287.33421,82.1752732 L1283.51116,81.9495261 L1279.70823,81.7134085 C1279.07606,81.6731919 1278.44471,81.6325438 1277.81418,81.5914642 L1274.04065,81.3398122 C1273.41332,81.297008 1272.7868,81.253773 1272.16106,81.2101073 L1268.416,80.9429467 C1267.17074,80.8521718 1265.92857,80.7596761 1264.68939,80.6654615 L1260.98084,80.3776632 L1257.28991,80.0795632 L1253.6162,79.771173 C1253.00533,79.7189178 1252.39515,79.6662342 1251.78567,79.6131227 L1248.13701,79.2893188 L1244.50452,78.9552535 C1243.90043,78.8987215 1243.297,78.8417623 1242.69422,78.7843764 L1239.08522,78.4349404 C1237.88477,78.3167557 1236.68685,78.1968655 1235.49137,78.0752718 L1231.91225,77.7053819 L1228.34745,77.3252824 C1227.75448,77.2610823 1227.1621,77.1964572 1226.57028,77.1314075 L1223.02617,76.7360149 L1219.49533,76.3304412 L1215.97735,75.9146981 C1215.39207,75.8445607 1214.80731,75.7740002 1214.22306,75.7030165 L1210.7236,75.2720407 L1207.23597,74.830924 C1206.65566,74.7565602 1206.07582,74.6817743 1205.49646,74.6065665 L1202.02579,74.1502603 L1199.06667,73.7521678 L1195.40678,73.24941 L1192.98497,72.9103772 L1190.57616,72.5680108 L1188.17909,72.2221007 L1184.60268,71.6961316 L1181.0455,71.1610079 L1177.50325,70.6160208 L1173.97162,70.0604615 L1170.4463,69.4936213 L1168.09748,69.1091105 L1165.74828,68.719061 L1162.22098,68.123142 L1158.68566,67.5135794 L1156.3222,67.0992746 L1152.76395,66.4653977 L1150.38122,66.034227 L1146.7881,65.3740668 L1143.16831,64.6971917 L1140.73818,64.2363055 L1138.29301,63.7674654 L1135.83153,63.2904613 L1132.10594,62.5591886 L1128.33648,61.8083657 L1124.51884,61.0372839 L1120.64873,60.2452345 L1116.72184,59.4315086 L1112.73387,58.5953974 L1108.68052,57.7361923 L1104.55748,56.8531843 L1098.94427,55.6375888 L1094.64191,54.6962846 L1088.77398,53.4003881 L1082.74647,52.0562953 L1076.5492,50.662326 L1040.9968,42.5646846 L1035.4885,41.3188533 L1028.31821,39.7097502 L1023.06408,38.5408124 L1017.90984,37.4033963 L1012.8501,36.2966422 L1007.87942,35.2196906 L1002.99239,34.1716817 L998.183595,33.151756 L995.018521,32.4869828 L990.32808,31.5119521 L985.701429,30.5627123 L982.649758,29.9437895 L979.622425,29.3356925 L975.123549,28.4432883 C974.626315,28.3454219 974.129928,28.2479799 973.634354,28.1509572 L969.19525,27.2889293 L964.794657,26.4486806 L960.427155,25.6293516 L957.531197,25.0943297 L954.645935,24.5679688 L950.334584,23.7941093 L947.469037,23.2882862 L944.608568,22.7902325 L941.751571,22.2996934 L938.896442,21.8164144 L934.613739,21.1045512 L931.756257,20.6383079 L928.895025,20.1784331 L926.028437,19.7246721 L923.154889,19.2767703 L920.272776,18.8344729 L915.930035,18.180978 L913.019486,17.7515773 L910.094754,17.3268897 L907.154235,16.9066602 L904.196322,16.4906344 L899.72333,15.8739202 L895.202176,15.2652313 L892.15864,14.8634727 L889.089687,14.4646441 L887.102516,14.2099203 L883.11448,13.7078588 L879.107875,13.2156588 L875.082324,12.7333364 C873.737275,12.5742103 872.389006,12.4167331 871.037454,12.2609075 L866.972889,11.7983882 C865.61471,11.6458685 864.253186,11.495003 862.888254,11.3457945 L858.783175,10.9031424 C858.097271,10.8301965 857.410499,10.7576654 856.722852,10.6855495 L852.586403,10.25784 C851.895224,10.1873865 851.203153,10.1173488 850.510184,10.0477274 L846.341522,9.63499645 L842.150916,9.23227126 C841.450633,9.1659851 840.749419,9.10011651 840.047267,9.03466583 L835.823042,8.64697932 C835.117109,8.58320161 834.410221,8.51984247 833.702373,8.45690225 L829.443685,8.08429048 C828.020237,7.96176398 826.59288,7.84091579 825.161554,7.72174859 L820.855605,7.36929258 C819.416277,7.25349 817.972917,7.13937108 816.525462,7.02693849 L812.170751,6.69470235 L807.791096,6.37260018 L803.386124,6.06064801 L798.955458,5.75886188 C798.214852,5.70941225 797.47316,5.66038687 796.730374,5.61178608 L792.260466,5.32527904 C790.766079,5.23147682 789.267254,5.13937561 787.763928,5.0489781 L783.240385,4.78289928 C782.48419,4.73940554 781.726854,4.6963384 780.968369,4.65369818 L776.403616,4.4029826 L771.81092,4.16252921 L767.189907,3.93235405 L762.540202,3.71247314 L757.86143,3.5029025 C757.079192,3.46883414 756.295726,3.43519605 755.511027,3.40198855 L750.787951,3.20791338 C749.998282,3.1764296 749.207363,3.14537708 748.415185,3.11475617 L743.646963,2.93621253 C742.849723,2.90731934 742.051208,2.87885842 741.251413,2.8508301 L736.4372,2.68785405 L731.591859,2.53527642 C730.781687,2.51071425 729.970202,2.486586 729.157398,2.46289203 L724.26466,2.3259421 L719.339856,2.19943067 L714.382611,2.08337376 L709.392551,1.9777874 C707.723686,1.94433882 706.04929,1.912638 704.369299,1.88268762 L699.312482,1.79809044 C698.466861,1.78486702 697.619826,1.77208188 696.771369,1.75973534 L691.663501,1.69092213 L686.521129,1.6326516 L681.34388,1.58493976 L676.131379,1.54780266 L670.883249,1.52125631 C670.005571,1.51771537 669.126393,1.51461638 668.245707,1.51195968 L662.943434,1.50132952 L0.990836197,1.5 L0.990836197,0.5 Z" id="Path-9-Copy" fill="#FFFFFF" fill-rule="nonzero"></path> </g> </svg> 