<svg width="232" height="90" viewBox="0 0 232 90" fill="none" xmlns="http://www.w3.org/2000/svg">
<path d="M112.496 6.05624L95.1034 0.0408286C94.9401 -0.0136095 94.7496 -0.0136095 94.5863 0.0408286L77.1933 6.05624C76.8667 6.16511 76.6489 6.46452 76.6489 6.81837C76.6489 7.17222 76.8667 7.47163 77.1933 7.5805L85.5495 10.3841L85.5223 14.358C85.5223 14.4669 85.5223 14.603 85.6584 14.7391C86.1756 15.4196 89.9046 17.5155 94.804 17.5155C99.4585 17.5155 103.487 15.5829 103.977 14.9296C104.086 14.7936 104.113 14.6575 104.086 14.5758L104.14 10.3841L108.06 9.07755V12.616L106.971 14.358C106.699 14.7936 106.699 15.3652 106.971 15.8007L108.441 18.1959L109.911 15.8007C110.183 15.3652 110.183 14.7936 109.911 14.358L108.822 12.5888V8.80536L112.524 7.55329C112.85 7.44441 113.068 7.145 113.068 6.79115C113.041 6.46452 112.85 6.16511 112.496 6.05624Z" fill="#7835FF"/>
<path d="M223.115 45.4697L215.085 66.8911L207.192 45.4697H198.482L210.785 75.3562L205.232 88.122H213.452L231.362 45.4697H223.115Z" fill="#7835FF"/>
<path d="M173.059 59.1059C174.12 60.3308 175.372 61.229 176.815 61.8278C178.285 62.4266 180.136 62.9982 182.422 63.5426C184.627 64.1414 186.26 64.6858 187.267 65.1758C188.274 65.6657 188.791 66.4278 188.791 67.4077C188.791 68.3332 188.383 69.0953 187.539 69.6669C186.696 70.2657 185.552 70.5651 184.083 70.5651C182.558 70.5651 181.306 70.1841 180.299 69.3947C179.292 68.6326 178.693 67.6527 178.557 66.4551H170.745C170.854 68.3332 171.48 70.048 172.651 71.5995C173.821 73.1509 175.4 74.3758 177.387 75.274C179.374 76.1723 181.633 76.635 184.137 76.635C186.56 76.635 188.71 76.2267 190.533 75.4373C192.357 74.648 193.773 73.5592 194.752 72.1438C195.732 70.7557 196.222 69.1497 196.222 67.3805C196.195 65.3391 195.651 63.7332 194.589 62.4811C193.528 61.2562 192.303 60.3308 190.86 59.732C189.418 59.1331 187.594 58.5615 185.389 58.0172C183.212 57.4728 181.606 56.9284 180.571 56.384C179.537 55.8396 179.02 55.0775 179.02 54.0432C179.02 53.1177 179.401 52.41 180.163 51.8929C180.925 51.3757 181.987 51.1307 183.402 51.1307C184.926 51.1307 186.124 51.4846 187.022 52.2195C187.92 52.9272 188.438 53.9071 188.546 55.1319H195.95C195.732 52.029 194.535 49.5793 192.357 47.7556C191.541 47.0751 190.425 46.5307 189.39 46.0952C183.919 49.171 176.407 52.9272 171.589 55.3225C171.78 56.7106 172.27 58.1805 173.059 59.1059Z" fill="#7835FF"/>
<path d="M59.419 76.1458V45.4699H51.6072V49.8522C50.5728 48.4368 49.2119 47.2936 47.4971 46.3681C45.7823 45.4427 43.7681 44.98 41.4817 44.98C38.8686 44.98 36.5006 45.6332 34.3775 46.9125C32.2544 48.1918 30.5668 50.0427 29.342 52.438C28.1171 54.8333 27.4911 57.5824 27.4911 60.6854C27.4911 63.8156 28.1171 66.5919 29.342 69.0144C30.5668 71.4369 32.2544 73.315 34.3775 74.6215C36.5006 75.9553 38.8414 76.6085 41.4272 76.6085C43.7136 76.6085 45.7278 76.1458 47.4971 75.1931C49.2391 74.2404 50.6273 73.07 51.6072 71.6274V76.1186H59.419V76.1458ZM50.5184 65.6392C49.7835 66.973 48.7764 68.0073 47.5243 68.7422C46.2722 69.4499 44.9113 69.831 43.4959 69.831C42.0805 69.831 40.774 69.4499 39.5491 68.715C38.3243 67.9801 37.3172 66.9185 36.555 65.5304C35.7929 64.1422 35.4118 62.5363 35.4118 60.6854C35.4118 58.8345 35.7929 57.2558 36.555 55.8948C37.3172 54.5611 38.297 53.5268 39.5219 52.8191C40.7468 52.1114 42.0805 51.7575 43.4959 51.7575C44.9385 51.7575 46.2722 52.1114 47.5243 52.8463C48.7764 53.554 49.7835 54.5883 50.5184 55.9493C51.2533 57.283 51.6344 58.9161 51.6344 60.7942C51.6344 62.6996 51.2533 64.3055 50.5184 65.6392Z" fill="white"/>
<path d="M74.1989 37.4673H66.4415V76.1455H74.1989V37.4673Z" fill="white"/>
<path d="M81.2488 69.1233C82.5553 71.5185 84.379 73.3694 86.7198 74.676C89.0606 75.9825 91.7009 76.6357 94.6678 76.6357C98.3151 76.6357 101.391 75.6831 103.922 73.7777C106.426 71.8724 108.141 69.4499 109.012 66.5102H100.656C99.4311 68.9872 97.3897 70.212 94.5045 70.212C92.5175 70.212 90.8299 69.586 89.4689 68.3339C88.108 67.0818 87.3186 65.3398 87.1553 63.1351H109.557C109.693 62.2369 109.774 61.257 109.774 60.141C109.774 57.1469 109.148 54.5066 107.869 52.193C106.59 49.8794 104.793 48.1102 102.507 46.8581C100.193 45.606 97.5802 44.98 94.6678 44.98C91.6464 44.98 88.979 45.6332 86.6381 46.9125C84.3245 48.1918 82.5008 50.0427 81.2216 52.438C79.9423 54.8333 79.289 57.6096 79.289 60.7942C79.289 63.9517 79.9423 66.7008 81.2488 69.1233ZM89.605 53.0913C90.9115 51.9208 92.5175 51.3492 94.45 51.3492C96.4914 51.3492 98.2062 51.9481 99.5944 53.1457C101.01 54.3433 101.717 55.9493 101.745 57.9362H87.1825C87.5092 55.8676 88.2985 54.2617 89.605 53.0913Z" fill="white"/>
<path d="M136.34 76.1455H144.098V58.1538C144.098 54.0165 142.982 50.8046 140.723 48.491C138.463 46.1774 135.524 45.0342 131.876 45.0342C129.971 45.0342 128.202 45.4152 126.596 46.1774C124.99 46.9395 123.683 47.9738 122.649 49.3076V45.4969H114.864V75.6012C114.402 75.71 113.939 75.8189 113.476 75.9278C103.432 78.2958 92.9259 80.5006 81.385 82.7326C67.4489 85.4 50.9813 88.1764 34.5138 88.3669C22.5647 88.503 14.2084 86.5432 10.3161 82.7053C10.1528 82.542 9.98947 82.3787 9.82615 82.2154C8.49242 80.7183 7.81194 78.9763 7.73029 76.9621C7.70307 76.5266 7.37644 76.2 6.94093 76.2C6.50543 76.2 6.12436 76.581 6.15158 77.0166C6.26046 79.4118 7.07703 81.5077 8.62851 83.2769C9.11846 83.8213 9.66284 84.3385 10.2889 84.8284C14.6984 88.2308 22.5647 90 33.3434 90C33.7245 90 34.1328 90 34.5138 90C51.0902 89.8095 67.6666 87.0332 81.6844 84.3385C93.2525 82.1065 103.786 79.9018 113.857 77.5337C121.887 75.6556 129.291 73.8047 136.34 71.9266V76.1455ZM122.622 73.6958V59.1881C122.622 56.7656 123.248 54.8875 124.473 53.581C125.698 52.2744 127.385 51.6212 129.535 51.6212C131.631 51.6212 133.292 52.2744 134.517 53.581C135.741 54.8875 136.34 56.7656 136.34 59.1881V70.2118C131.904 71.3822 127.358 72.5526 122.622 73.6958Z" fill="white"/>
<path d="M159.912 76.1455V60.549V58.8615V51.8389H166.771V45.4697H159.912V37.4673H152.127V45.4697H148.453V51.8389H152.127V76.1455H159.912Z" fill="white"/>
<path d="M10.2887 76.1453H18.0462V57.6908V55.4044V43.7546H28.335V37.5215H-6.10352e-05V43.7546H10.2887V76.1453Z" fill="white"/>
<path d="M29.6143 47.2658C38.3516 40.4339 47.9055 34.7995 56.6428 29.9545C64.754 25.4634 72.1032 21.7616 79.0712 18.6859C79.4795 18.5225 79.6428 18.0598 79.4795 17.6515C79.3162 17.2432 78.8263 17.0799 78.4452 17.2432C71.4227 20.3462 64.0463 24.048 55.8806 28.5664C47.0889 33.4386 37.4533 39.1274 28.6344 46.0138C28.4438 46.1499 28.335 46.3948 28.335 46.6398C28.335 47.2931 29.0971 47.6741 29.6143 47.2658Z" fill="white"/>
<path d="M194.752 42.7744C193.908 43.346 193.037 43.8904 192.166 44.462C193.201 43.836 194.072 43.2644 194.752 42.7744Z" fill="white"/>
<path d="M166.771 57.6365C166.771 57.6365 166.799 57.6365 166.826 57.6089C166.826 57.6089 166.826 57.6089 166.771 57.6365Z" fill="white"/>
<path d="M211.982 18.3314C209.777 12.7787 200.278 10.6012 184.518 12.0438C170.963 13.2686 153.352 17.161 134.38 23.1219C133.618 23.3669 133.019 22.4415 133.564 21.8426C140.015 14.6568 142.383 8.58696 140.314 4.47688C137.81 -0.449764 129.236 -1.02136 115.436 2.73486C115.028 2.84374 114.756 3.27924 114.892 3.71475C115 4.12304 115.436 4.36801 115.871 4.25913C128.664 0.747874 136.83 1.0745 138.926 5.18458C141.076 9.40353 137.102 16.7255 128.038 25.245C127.412 25.8166 128.038 26.8237 128.828 26.5787C149.95 19.5562 169.792 14.9562 184.654 13.5953C199.434 12.2343 208.634 14.1396 210.512 18.903C212.445 23.748 208.797 30.0356 199.951 37.0581C196.521 39.78 192.357 42.5835 187.566 45.3871C182.83 48.1635 177.441 50.967 171.507 53.7434C168.813 55.0227 165.982 56.2747 163.042 57.5268C162.743 57.6629 162.552 57.9351 162.552 58.2617C162.552 58.8333 163.124 59.2144 163.641 58.9966C164.702 58.5339 165.764 58.0984 166.798 57.6357C166.798 57.6357 166.826 57.6357 166.826 57.6085C167.152 57.4451 168.976 56.5741 171.589 55.2948C176.407 52.9268 183.919 49.1433 189.39 46.0676C190.397 45.496 191.323 44.9516 192.166 44.4617C193.037 43.9173 193.908 43.3457 194.725 42.8013C196.984 41.3043 199.08 39.78 200.931 38.3102C210.349 30.7977 214.187 23.8841 211.982 18.3314Z" fill="white"/>
</svg>
