<?xml version="1.0" encoding="UTF-8"?> <svg xmlns="http://www.w3.org/2000/svg" xmlns:xlink="http://www.w3.org/1999/xlink" width="787px" height="153px" viewBox="0 0 787 153"> <title>Path 9 Copy</title> <g id="Main" stroke="none" stroke-width="1" fill="none" fill-rule="evenodd"> <path d="M-0.00568145136,0.99996772 L0.00568145136,3.22799315e-05 L10.6358616,0.100047994 L22.622175,0.181296028 L38.3618659,0.260025823 L53.2304925,0.316147709 L77.8703714,0.384035149 L123.076978,0.458067112 L180.065808,0.49612807 L208,0.5 C245.797605,0.5 276.98674,8.40170843 305.112927,23.67588 L306.642057,24.5148804 L307.934757,25.2359407 L309.215295,25.9608234 C309.427752,26.0819889 309.639738,26.2033385 309.851272,26.3248847 L311.115176,27.0566199 L312.369063,27.7936692 L313.613793,28.5366294 L314.850222,29.2860972 L316.07921,30.0426692 L317.301614,30.8069421 L318.518292,31.5795126 L319.730104,32.3609774 L320.937906,33.1519332 L322.142558,33.9529767 L323.344918,34.7647045 C323.545168,34.900916 323.745358,35.0375975 323.945506,35.1747615 L325.146037,36.0036347 L326.34642,36.844684 L327.547515,37.698506 L328.750179,38.5656976 L329.955271,39.4468553 L331.16365,40.3425758 L332.376173,41.2534559 C332.578653,41.4065656 332.781341,41.5603319 332.984256,41.7147672 L334.204605,42.6495053 L335.431243,43.6008948 L336.66503,44.5695322 L337.906823,45.5560142 L339.15748,46.5609375 L340.417861,47.5848989 L341.688822,48.628495 L342.971223,49.6923224 L344.265922,50.776978 L345.573776,51.8830584 L346.895644,53.0111602 L348.232384,54.1618801 L349.584855,55.3358149 L350.953915,56.5335613 L352.340422,57.7557159 L353.745234,59.0028753 L355.169209,60.2756364 L356.613206,61.5745958 L358.078083,62.9003502 L360.316425,64.9405276 L361.837257,66.3358799 L364.951429,69.2138314 L367.353883,71.4509856 L369.816834,73.7578263 L380.99916,84.3051692 L384.040801,87.1526868 L386.981381,89.8851488 L389.124237,91.8616495 L391.902934,94.403402 L394.597683,96.8422566 L396.567399,98.6065303 L398.496022,100.317276 L400.386176,101.976358 L402.240488,103.585642 L403.45808,104.631754 L404.661687,105.657115 L405.852087,106.662278 L407.614626,108.133359 L408.775412,109.090443 L409.925714,110.029264 L411.066309,110.950373 L412.197977,111.854323 L413.321494,112.741667 L414.437638,113.612958 L415.547189,114.468747 C415.731608,114.610118 415.915784,114.750866 416.099734,114.891002 L417.200852,115.724576 L418.29732,116.544031 L419.389917,117.349919 L420.47942,118.142793 L421.566608,118.923205 L422.652259,119.691709 C422.833115,119.818831 423.013941,119.94548 423.19475,120.071667 L424.279553,120.823344 L425.364763,121.564492 C425.545708,121.687171 425.726703,121.809433 425.907764,121.931292 L426.995044,122.657686 C427.176431,122.777974 427.357917,122.897881 427.539517,123.017418 L428.630617,123.730301 L429.725236,124.434867 C429.908009,124.551632 430.090961,124.668074 430.274108,124.784203 L431.375465,125.47733 L432.482286,126.163521 C432.667255,126.277339 432.852484,126.390891 433.037989,126.504189 L434.154464,127.181013 L435.278349,127.852284 L436.410421,128.518553 L437.551458,129.180374 L438.702238,129.838299 L439.281525,130.165973 C464.005969,144.102116 490.809097,151.336449 522.903807,151.497259 L524,151.5 L787,151.5 L787,152.5 L524,152.5 C491.245052,152.5 463.944551,145.215413 438.790497,131.037117 L437.629132,130.377862 L436.477999,129.715014 L435.336321,129.048021 L434.203314,128.376328 L433.078201,127.699382 L431.960199,127.016628 L430.848528,126.327513 L429.742408,125.631483 L428.091929,124.573261 L426.996273,123.857521 C426.81392,123.737508 426.631684,123.617127 426.44955,123.496365 L425.35783,122.767137 L424.267758,122.028224 L423.178554,121.279073 L422.089438,120.51913 L420.99963,119.747841 L419.908348,118.964653 L418.814813,118.169011 L417.718243,117.360361 L416.61786,116.53815 L415.512881,115.701824 L414.402527,114.850829 L413.286016,113.984611 L412.16257,113.102616 L411.031407,112.204291 L409.891747,111.289081 L408.742809,110.356433 L407.583812,109.405793 L406.413978,108.436607 L405.232524,107.44832 L404.038671,106.44038 L402.831638,105.412233 L401.610644,104.363324 L400.37491,103.2931 L399.123654,102.201006 L397.215961,100.52065 L395.268955,98.787972 L393.280001,97.001104 L391.246467,95.1581763 L389.165718,93.2573198 L386.313388,90.6295019 L384.112227,88.5862086 L382.61384,87.188484 L380.317891,85.0372191 L370.809231,76.0643413 L368.309558,73.7148177 L365.872284,71.4362563 L363.494523,69.226647 L361.173384,67.0839799 L358.161622,64.327749 L355.961374,62.3334642 L353.808121,60.3994219 L352.397302,59.1425359 L351.005231,57.9109355 L348.950404,56.1096427 L347.601458,54.9386508 L346.268265,53.7908602 L344.949968,52.6656754 L343.645713,51.5625007 L342.354643,50.4807406 L341.075903,49.4197997 L339.808636,48.3790823 L338.551987,47.357993 L337.305101,46.3559362 L336.067121,45.3723164 L334.837192,44.406538 L333.614458,43.4580055 L332.398062,42.5261234 L331.187151,41.6102962 L329.980867,40.7099282 L328.778355,39.8244241 L327.578759,38.9531881 L326.381223,38.0956249 L325.184893,37.2511389 C324.985557,37.1114479 324.786236,36.972277 324.586911,36.8336137 L323.390783,36.0076268 L322.193719,35.1932283 L320.994866,34.3898225 L319.793365,33.596814 L318.588363,32.8136073 L317.379003,32.0396068 C317.177032,31.9113408 316.974844,31.7834336 316.772421,31.6558727 L315.55492,30.8945649 L314.330921,30.1409744 C314.126332,30.0159861 313.921437,29.8912944 313.716218,29.7668871 L312.480868,29.0237561 C312.274281,28.9004365 312.067334,28.7773764 311.860009,28.6545635 L310.611384,27.920552 L309.352838,27.1918757 L308.083517,26.4679391 L306.802563,25.7481466 L305.509122,25.0319029 C277.592502,9.68453741 246.667552,1.66625235 209.173821,1.50255802 L138.361573,1.47308731 L90.498859,1.41010883 L62.259138,1.34408816 L46.3942634,1.29210682 L28.0279663,1.21118488 L13.9901014,1.1253467 L2.62847529,1.02835552 L-0.00568145136,0.99996772 Z" id="Path-9-Copy" fill="#FFFFFF" fill-rule="nonzero"></path> </g> </svg> 