<?xml version="1.0" encoding="UTF-8"?> <svg xmlns="http://www.w3.org/2000/svg" width="228" height="108" viewBox="0 0 228 108" fill="none"> <path fill-rule="evenodd" clip-rule="evenodd" d="M36.9584 0.654274C36.5575 0.211873 36.2431 -0.00525812 35.8054 9.66537e-05C35.6803 0.0013143 35.5211 0.16055 35.3323 0.465879L35.1633 0.763089L34.9805 1.13019L34.6816 1.80822L34.467 2.34273L34.2407 2.94129L34.0035 3.60222L33.6286 4.70693L33.2326 5.9426L32.8178 7.30359L32.3863 8.78429L31.9403 10.379L31.3268 12.6731L30.537 15.7914L26.547 15.8695L22.2715 15.9768L19.2548 16.0672L16.3032 16.1645L14.6628 16.2319L13.9256 16.277L13.2387 16.335L12.5978 16.4097C9.50242 16.8315 7.98874 18.0267 5.82291 22.1854L5.38039 23.0573L5.31132 23.0738L4.81683 23.2163L4.43012 23.3491L3.97623 23.5274C2.3728 24.2018 -0.0276932 25.6934 0.000241624 28.5729C0.045112 32.8922 9.46615 39.5713 16.817 39.327C17.7678 39.2947 18.8721 38.2791 19.8458 36.9021L20.1836 36.4021C20.2388 36.3167 20.2935 36.2302 20.3475 36.1428L20.6638 35.6092L20.9623 35.0608C21.0585 34.8762 21.1513 34.6901 21.2401 34.5036L21.4947 33.9438C21.535 33.8506 21.5742 33.7575 21.6123 33.6647L21.8266 33.1123C22.8247 30.3763 22.6864 28.1101 19.8491 29.7314L19.4618 29.9426C13.7455 32.9164 6.52304 30.5277 6.51092 29.4393C6.51014 29.3522 6.54423 29.2454 6.6137 29.1223L6.74452 28.926C6.87576 28.7529 7.06271 28.5572 7.30639 28.3454L7.6261 28.0839L8.00066 27.8096C8.06768 27.763 8.137 27.7159 8.20864 27.6685L8.66622 27.3798C8.74713 27.331 8.83036 27.282 8.91593 27.2328L9.45743 26.9355L10.0554 26.6355C10.3685 26.4853 10.7029 26.3351 11.0589 26.1864L11.7996 25.8913C12.0561 25.7938 12.3223 25.6974 12.5982 25.6025L13.4549 25.3228C16.2605 24.4539 19.9474 23.7587 24.572 23.6038L26.6127 23.5456L28.7594 23.5006C25.5712 38.2239 22.5168 57.5183 22.3383 74.269L22.3407 74.4605L22.3276 76.2644L22.3409 77.4684L22.3692 78.1969C22.4954 80.5236 22.9665 81.8267 24.5224 81.8146C26.067 83.7992 27.9611 84.4338 28.5115 84.4263C28.8848 84.4225 29.0734 83.6776 29.1654 82.5866L29.2066 81.9596L29.2317 81.2782L29.2441 80.5565L29.2457 79.4299L29.2283 77.4084L29.228 76.1806C29.3456 65.0927 30.9684 53.5431 33.033 43.1589L33.5577 40.5881L34.0972 38.0715C34.1881 37.6569 34.2795 37.2448 34.3712 36.8353L34.9258 34.4106L35.4859 32.0542L36.0477 29.7718L36.6076 27.569L37.1619 25.4516L37.7069 23.425C38.4764 23.4241 39.2471 23.4242 40.016 23.4253L43.1195 23.4338L53.9293 23.5013L58.8997 23.5185L60.9151 23.5036L61.8173 23.4829C64.2606 23.4011 67.0423 20.8958 69.2126 18.3606L69.8152 17.6375L70.3796 16.9252L70.9009 16.236C70.9839 16.1238 71.0649 16.0131 71.1438 15.904L71.5912 15.2729C71.6613 15.1719 71.729 15.0732 71.7944 14.977L72.1568 14.4318L72.5811 13.7545L72.7772 13.4146L72.8982 13.1786C72.9254 13.1186 72.9394 13.0779 72.9391 13.0588C72.9367 12.6558 72.1631 11.3865 71.6896 11.7466C71.6002 11.8144 71.5108 11.881 71.4215 11.9465L70.886 12.3254C70.7967 12.3863 70.7074 12.4461 70.6179 12.5048L70.0791 12.8437L69.5346 13.1572C69.3519 13.2576 69.1678 13.3539 68.9818 13.4463L68.4179 13.712C68.2278 13.7968 68.0353 13.8778 67.8401 13.9552L67.2457 14.1771C67.1451 14.2123 67.0437 14.2467 66.9415 14.2803L66.317 14.4719L65.6691 14.6445L64.9949 14.7993L64.2918 14.9371L63.5569 15.059L62.7876 15.166L61.981 15.2591L61.1345 15.3393L59.7838 15.4375L58.3277 15.5124L57.2939 15.5509L55.6416 15.5942L53.8591 15.6231L51.9374 15.641L39.9134 15.6831L40.248 14.5648L42.0908 8.54008L42.2527 7.95997L42.2843 7.81195L42.2885 7.76985C42.2953 7.21074 42.1693 6.75803 41.6727 6.06513L41.3925 5.69706L41.0438 5.27933C40.9797 5.20503 40.9124 5.12827 40.8418 5.04883L40.3783 4.53856L39.2 3.29103C38.9941 3.06943 38.8052 2.85912 38.631 2.66007L38.1499 2.09667L37.2409 0.982612L36.9584 0.654274ZM169.544 3.9002C169.124 3.4667 168.796 3.25358 168.339 3.25787C168.142 3.25962 167.871 3.49451 167.542 3.94456L167.285 4.32214C167.241 4.3917 167.195 4.46456 167.149 4.54066L166.862 5.0361L166.557 5.608C166.504 5.70959 166.451 5.8143 166.398 5.92209L166.068 6.6055L165.723 7.36115L165.364 8.18734L164.994 9.08239L164.419 10.5504L164.025 11.6102L163.624 12.7329L163.217 13.9169L162.805 15.1605C157.756 15.1514 152.707 15.1733 147.658 15.226C140.767 15.2965 137.289 20.1673 136.667 23.0334C136.657 23.9804 137.801 23.9502 138.136 23.6958C139.796 22.4416 143.397 21.9731 146.923 21.9353C148.148 21.9232 149.444 21.92 150.79 21.9241L153.543 21.9416C154.011 21.946 154.483 21.9512 154.959 21.9569L157.846 21.9988L160.779 22.0537C160.452 23.2802 160.129 24.5521 159.812 25.8693L159.37 27.2047L157.939 31.4549L156.025 37.002L154.522 41.245L152.908 45.681L152.094 47.8615L151.225 50.1447L150.142 52.9094L149.289 55.0143L148.457 56.9923L147.852 58.3749L147.268 59.6574L146.891 60.4507L146.525 61.1903L146.172 61.8726L145.833 62.494C145.778 62.5922 145.723 62.6878 145.669 62.7806L145.352 63.3036L145.051 63.7565C144.564 64.4508 144.149 64.8377 143.828 64.841C143.02 64.8492 142.93 63.0391 143.25 60.293L143.379 59.2864L143.54 58.2106L143.728 57.0744C143.762 56.8804 143.796 56.6843 143.832 56.4862L144.057 55.2754L144.302 54.0256L144.702 52.0967L145.131 50.1287L145.73 47.494L146.491 44.2805L148.201 37.2649L148.626 35.4536L148.788 34.6937L148.85 34.3414L148.873 34.1225C148.891 32.43 147.621 28.4533 144.771 28.481C141.046 28.5191 137.315 32.2265 134.116 36.818L133.358 37.9355C132.736 38.8785 132.137 39.8479 131.565 40.8216L130.893 41.9905C130.563 42.5745 130.244 43.1569 129.937 43.7327L129.337 44.8742L128.769 45.9897L128.235 47.0708L127.737 48.1088L127.059 49.5663L126.47 50.8788L125.701 52.6657L125.062 54.2381L128.034 39.7448L128.814 35.6975L129.011 34.5542L129.065 34.1841L129.084 33.9663C129.092 33.2243 128.679 32.5883 128.184 31.9591L127.529 31.146L127.318 30.8686C127.25 30.7747 127.187 30.6754 127.127 30.5725L126.779 29.9262L126.592 29.5972C126.131 28.8374 125.439 28.1621 123.664 28.1813C123.482 28.183 123.264 28.4599 123.019 28.9663L122.83 29.3884L122.632 29.8922L122.426 30.4735L122.211 31.128L121.99 31.8514L121.646 33.0563L121.29 34.392L120.925 35.8441L120.554 37.398L120.178 39.0394L119.801 40.7538C119.75 40.8991 119.696 41.0469 119.642 41.1972L119.297 42.1267L118.918 43.1081L118.509 44.1352L117.84 45.7482L117.361 46.8628L116.598 48.5782L116.061 49.742L115.506 50.9147L114.932 52.0902L114.343 53.2624L113.74 54.4251L113.126 55.5723L112.502 56.6977L111.87 57.7953L111.232 58.859C111.125 59.0331 111.018 59.2056 110.911 59.3762L110.268 60.3775C107.799 64.125 105.308 66.7863 103.289 66.8079L103.163 66.8005L103.007 66.7736L102.823 66.7236L102.616 66.6468L102.388 66.5396L102.143 66.3983C102.101 66.3717 102.059 66.3435 102.016 66.3137L101.753 66.1143C100.548 65.1226 99.1018 62.817 98.8636 57.6959C98.818 56.7093 98.8045 55.7215 98.8233 54.7341C106.29 54.17 115.948 45.2644 115.948 36.5554C115.948 32.3937 114.393 30.8626 112.997 30.3756L112.666 30.278C112.557 30.2516 112.45 30.2311 112.346 30.2156L112.043 30.1835C111.181 29.4229 109.941 28.8588 108.157 28.8789C102.109 28.9394 93.9348 35.9106 91.4905 47.9668L90.4561 50.6622L89.2774 53.6585L88.4423 55.7265L87.5892 57.7829L86.7368 59.7699L86.109 61.1794L85.7003 62.0671L85.3021 62.9048L84.9168 63.6851C84.8538 63.8099 84.7914 63.9321 84.7297 64.0515L84.3681 64.7321L84.0251 65.3373C83.4147 66.3732 82.9101 66.9918 82.5752 66.9918C82.1877 66.9918 81.9227 66.3298 81.7564 65.2364L81.6752 64.5987C81.6514 64.3728 81.6306 64.134 81.6128 63.8837L81.5682 63.0998L81.5405 62.2553C81.5372 62.11 81.5347 61.9625 81.5327 61.813L81.5289 60.8932L81.5398 59.9337L81.5646 58.9426L81.6025 57.9285L81.6819 56.382L81.7487 55.3464L81.8254 54.3167L81.9575 52.8016L82.1072 51.3467L82.2153 50.4241L82.388 49.132L82.5088 48.344L82.6331 47.6243L88.4325 36.7521L89.6562 34.4229L90.9583 31.9132L92.5351 28.8131L93.7267 26.4073L94.564 24.6702L95.3415 23.0081L95.8217 21.9492L96.2678 20.9349L96.6769 19.97L97.046 19.0589C97.104 18.9118 97.1602 18.7671 97.2146 18.625L97.5179 17.8032L97.7738 17.0468C98.0818 16.0837 98.255 15.3069 98.2614 14.7651C98.3294 8.5947 90.1726 4.49957 88.4994 4.5172C87.7618 4.50535 87.0709 4.87729 86.675 5.49943C86.4695 5.64414 86.2103 5.97765 85.9081 6.47841L85.6388 6.9481C85.5457 7.11798 85.4493 7.30101 85.35 7.49668L85.043 8.12116L84.7195 8.81851L84.2064 9.99457L83.8479 10.8609C83.7872 11.0106 83.726 11.1628 83.6643 11.3176L83.0984 12.7775L82.7103 13.8217L82.3152 14.9193L81.713 16.6588L81.1037 18.5012L80.696 19.7817L80.0859 21.773L79.6823 23.1433L79.2831 24.5442L78.8895 25.9727C78.8245 26.2129 78.7598 26.4542 78.6954 26.6964L78.3133 28.1608L77.9407 29.6452L77.5791 31.1467L77.23 32.6623L76.8948 34.189L76.575 35.7237L76.2722 37.2634L75.9879 38.8051C75.9421 39.062 75.8971 39.3189 75.8531 39.5757L75.5991 41.1148L75.3673 42.6483L75.1592 44.1733L74.9762 45.6867L74.8946 46.4381L72.2573 52.5411L70.829 55.7547L69.6298 58.3585L69.1545 59.3585L68.4519 60.7956L67.993 61.703L67.5436 62.5629L67.1057 63.3693L66.681 64.1164L66.2712 64.7981C66.2043 64.906 66.138 65.0109 66.0725 65.1127L65.6885 65.6852C65.0018 66.6632 64.4128 67.2369 63.9709 67.2411C63.3024 67.2482 63.0599 66.5419 62.9858 65.1345L62.9636 64.4884L62.9591 63.3587L62.979 61.9979C63.0998 56.7009 63.7271 52.0631 64.5429 48.1115L64.8381 46.7453L65.1459 45.4364L65.4631 44.185L65.7867 42.9914L66.1135 41.8559L66.4404 40.7787L66.7644 39.76L67.0823 38.8002L67.5408 37.4714L68.7854 34.014L69.0332 33.2719L69.1565 32.8536L69.2427 32.4968L69.2886 32.2017L69.2954 32.0774C69.308 31.0096 61.6703 30.3598 60.5086 35.5404L60.5263 35.3869L60.5455 35.095L60.5487 34.6817L60.5325 34.3522L60.4951 33.989C60.2707 32.2904 59.2309 29.8105 55.0657 29.8536C48.4435 29.9216 35.6047 41.7033 35.6047 62.2922C35.6047 66.8034 36.4453 68.9385 37.4778 70.2318L37.7511 70.5511C37.7973 70.6014 37.8437 70.6505 37.8902 70.6983L38.1718 70.9716C38.219 71.0151 38.2663 71.0576 38.3136 71.0993L38.5977 71.3403L39.5631 72.1137L39.8202 72.3395L40.2271 72.7319L40.7364 73.2088C41.8532 74.2129 42.5467 74.4774 44.4621 74.4567C47.3298 74.4283 50.2071 70.9486 52.1748 67.9116L52.6668 67.132C52.7452 67.0046 52.8217 66.8786 52.8963 66.7545L53.3196 66.0337L53.6927 65.3715L54.0117 64.7831L54.3812 64.0726L54.6827 63.4608L54.7758 64.1193L54.9785 65.379L55.1183 66.1513L55.2818 66.9689L55.4672 67.7949C55.8265 69.294 56.2891 70.6479 56.812 70.8275C57.0864 70.9215 57.3157 71.1206 57.5525 71.373L58.1906 72.085C58.9528 72.8989 60.0796 73.7844 62.5674 73.7591C64.6833 73.7379 66.834 70.9198 68.8901 67.1006L69.4021 66.126L69.9097 65.1159L70.4124 64.0766L70.9099 63.0142L71.6451 61.3912L72.3531 59.7811C72.5588 59.3081 72.7625 58.8355 72.964 58.3656L74.1462 55.598L74.0927 56.4249L74.0531 57.309L74.0269 58.2374L74.0122 59.6849L74.0258 61.1597L74.05 62.1364L74.0859 63.093L74.161 64.4619L74.2247 65.3117L74.299 66.0961C74.3122 66.2207 74.3258 66.342 74.3399 66.4599L74.4292 67.1222C74.5704 68.0458 74.7441 68.6401 74.945 68.7094C75.2537 68.8158 75.5346 69.1717 75.8481 69.6451L76.4283 70.5469C77.3272 71.9175 78.6202 73.5357 81.1691 73.5097C82.6441 73.495 84.2865 71.7495 85.9303 69.109L86.4233 68.2909L86.9154 67.424C86.9973 67.2758 87.0791 67.1257 87.1608 66.9739L87.6497 66.0435C87.7309 65.8853 87.812 65.7255 87.8929 65.5644L88.3763 64.5816C88.4565 64.4153 88.5365 64.2477 88.6162 64.0791L89.0919 63.0553L89.7932 61.4815L90.2511 60.4143L90.921 58.799C91.5258 65.9113 93.8617 70.2382 96.1926 70.2155C96.4964 70.2118 96.7972 70.4549 97.1298 70.7995L97.77 71.4977C98.4595 72.2425 99.3193 73.0331 100.552 73.0211C104.86 72.977 108.879 69.0394 112.34 63.9246L113.003 62.9206C113.33 62.412 113.653 61.8941 113.97 61.3692L114.596 60.3109L115.206 59.2386L115.801 58.1565L116.38 57.0691L116.941 55.9808C116.9 56.23 116.86 56.4748 116.821 56.7153L116.497 58.7663L116.229 60.5993L116.015 62.2289L115.901 63.2094L115.81 64.1102L115.74 64.9356L115.692 65.6898C115.686 65.8098 115.68 65.9271 115.676 66.0416L115.659 66.6971C115.633 68.8706 116.188 70.9786 117.468 71.5151L118.251 71.8431L119.663 72.4255L120.292 72.6715L120.87 72.8818C122.804 73.5507 123.791 73.488 123.808 71.8928L123.821 71.3732C123.979 67.3528 125.414 62.5131 127.411 57.6572L127.944 56.3905C128.035 56.1795 128.126 55.9687 128.219 55.7579L128.785 54.4962L129.369 53.2415L129.969 51.9973L130.582 50.7666L131.204 49.5525L131.834 48.3583L132.468 47.1871L133.103 46.0422L133.737 44.9266L134.367 43.8435L135.297 42.2867L136.202 40.821L137.072 39.457L137.898 38.2054L138.669 37.0769L139.377 36.0822L139.809 35.4986L140.205 34.9824L140.564 34.5368L140.881 34.1649L141.155 33.8699C141.405 33.6143 141.586 33.4789 141.684 33.4777C141.867 33.476 141.869 33.7748 141.736 34.3286L141.628 34.7351L141.397 35.4799L141.093 36.3777L140.309 38.5922L139.187 41.7903L138.493 43.8682L138.142 44.9656L137.792 46.0981L137.446 47.2625L137.107 48.456C137.051 48.6572 136.996 48.8594 136.941 49.0627L136.619 50.294C136.566 50.5011 136.514 50.7091 136.463 50.918L136.164 52.1804C136.068 52.6043 135.974 53.0309 135.885 53.4599L135.628 54.7534L135.396 56.0578C134.997 58.4576 134.741 60.8976 134.714 63.2946C134.676 66.6694 135.354 69.8025 137.135 70.6235C137.587 70.8302 138.014 71.0582 138.426 71.2886L139.628 71.9684C140.672 72.5457 141.676 73.0064 142.815 72.9934C143.818 72.9839 145.112 71.6886 146.532 69.5847L147.01 68.8541L147.496 68.0675L147.988 67.229L148.486 66.3423C148.569 66.1907 148.653 66.0373 148.736 65.8822L149.239 64.9307L149.744 63.941L150.25 62.9169L151.006 61.325L151.507 60.2322L152.004 59.1188L152.495 57.9888L153.219 56.2711L153.701 55.0903C154.495 53.1187 155.245 51.1348 155.919 49.2261C155.507 53.5229 155.274 57.835 155.221 62.1512L155.208 63.149L155.208 64.5566L155.225 65.2467C155.276 66.5966 155.437 67.7243 155.883 67.8783C156.192 67.9847 156.473 68.3408 156.787 68.8143L157.367 69.7165C158.267 71.0876 159.56 72.7061 162.107 72.6786C163.534 72.6786 165.368 70.663 167.32 67.6345L167.88 66.7424C169.969 71.0768 175.077 73.1823 180.46 72.4721C184.315 71.9659 189.514 68.6616 190.622 63.5137L191.859 58.4536L192.761 54.9822L193.099 53.7217L193.821 51.112L194.592 48.4577L194.99 47.1414L195.395 45.8472L195.804 44.586L196.215 43.3689L196.627 42.2069C196.656 42.1289 196.684 42.0513 196.713 41.9743C196.753 41.8652 196.793 41.7571 196.833 41.6501L197.242 40.5916C198.329 37.8743 199.371 36.04 200.205 36.0315C200.929 36.0242 201.184 36.9068 201.141 38.4273L201.109 39.0689C201.101 39.1813 201.091 39.2963 201.081 39.414L201.006 40.151C200.991 40.2788 200.975 40.4091 200.958 40.5418L200.781 41.7984L200.636 42.7018L200.294 44.6498L199.138 50.7692L198.698 53.1863L198.277 55.6605L198.081 56.91L197.897 58.1629L197.728 59.4158L197.576 60.6649L197.444 61.9068L197.334 63.1378L197.248 64.3544C197.2 65.1598 197.17 65.9532 197.161 66.7299C197.144 68.4248 200.483 72.3789 203.335 72.3487C208.684 72.2941 212.774 65.8994 215.479 59.7238L215.97 58.57L216.428 57.431C216.502 57.2429 216.574 57.0559 216.645 56.87L217.054 55.7712L217.43 54.711L217.772 53.6993L218.082 52.7455L218.482 51.4446L218.807 50.3281L219.12 49.1826L219.334 48.3371L219.186 53.8366L219.033 59.0407L218.869 63.9507L218.691 68.5684L218.534 72.0529L218.362 75.3521L218.223 77.7052L218.02 80.6817L217.795 83.4749L217.612 85.4501L217.414 87.3228L217.273 88.5147L217.126 89.6613L216.971 90.7627L216.808 91.8191L216.638 92.8306L216.626 92.8998L216.593 93.0806L216.569 93.2107L216.549 93.3195L216.366 94.2638L216.175 95.1633L215.974 96.0182C215.94 96.157 215.905 96.2939 215.87 96.429L215.655 97.2172L215.431 97.961C215.354 98.2016 215.276 98.4347 215.196 98.6606L214.952 99.316C213.743 102.377 212.162 103.894 210.061 103.916C206.155 103.954 204.351 98.7655 204.215 96.2092C203.915 90.6745 206.059 87.9923 207.913 86.7157L208.292 86.4711L208.657 86.2638L209.002 86.0909L209.324 85.9496L209.616 85.837L209.872 85.7503L210.179 85.6624L210.446 85.6037C211.211 85.2158 211.847 84.0015 212.319 82.7631L212.56 82.0901L212.593 81.9905L212.614 81.9279C212.633 81.8718 212.651 81.8161 212.668 81.7608L212.858 81.1348L213.013 80.5764L213.175 79.9288L213.256 79.5718C213.268 78.6249 212.122 78.6551 211.787 78.9095C210.126 80.1637 206.528 80.6346 203.002 80.6699L200.959 80.6643L198.503 80.6277L165.699 79.843L145.303 79.4339L136.123 79.2935L124.372 79.1637L118.436 79.1228L111.962 79.0997L107.502 79.0983L100.123 79.1251L94.2935 79.1752L91.4123 79.2105L85.7318 79.3032L81.5554 79.3929L77.4623 79.5011L73.4629 79.6286L70.8539 79.7248L68.2941 79.8302L64.5537 80.0063L62.1307 80.1361L59.7678 80.2761L57.468 80.4265L55.2345 80.5878L53.0702 80.76L50.9782 80.9435L48.9617 81.1387C47.9728 81.2392 47.0133 81.3441 46.085 81.4536L44.2704 81.6788C43.6797 81.756 43.1034 81.8352 42.5419 81.9166C40.1234 82.2664 37.3145 84.9063 35.0385 87.6134L34.4035 88.3868L33.8023 89.1523L33.2397 89.8984L32.7204 90.6136L32.2493 91.2864L31.8311 91.9052L31.3135 92.707L30.9419 93.3226L30.7833 93.6104L30.7015 93.7866L30.6909 93.8292C30.6859 94.2271 31.3865 95.3328 31.9711 95.1464C32.9981 94.8172 34.1012 94.5019 35.2758 94.1999L36.7194 93.8438C37.2118 93.7272 37.7153 93.6127 38.2297 93.5003L39.805 93.1691C40.3408 93.0607 40.8871 92.9544 41.4436 92.85L43.1435 92.5428L44.9031 92.2473C45.2012 92.199 45.5017 92.1511 45.8046 92.1038L47.6502 91.8253L49.5509 91.558C49.8721 91.5143 50.1956 91.4711 50.5213 91.4284L52.5012 91.1773L54.5318 90.9367L56.6111 90.7065L58.7374 90.4863L62.011 90.1746L65.3802 89.8843L68.839 89.6147L71.1915 89.4462L73.5794 89.2863L77.2234 89.0622L80.9366 88.8563L85.9848 88.6089L89.8359 88.4427L95.046 88.2453L97.6792 88.1566L102.993 87.9978L109.705 87.8323L115.113 87.7239L123.256 87.5974L129.832 87.5231L133.408 87.4919L142.282 87.4384L147.54 87.4208L156.147 87.4096L187.417 87.4446L196.642 87.4221C195.483 89.3362 194.853 91.5348 194.972 93.7259C195.297 99.7503 200.702 107.386 210.209 107.289C215.633 107.234 219.3 102.363 221.831 94.4597L222.194 93.2817C222.253 93.0818 222.311 92.8802 222.369 92.6769L222.708 91.4363C222.818 91.016 222.926 90.589 223.031 90.1555L223.34 88.8358C223.391 88.6127 223.44 88.388 223.49 88.1617L223.777 86.7859L224.051 85.3743L224.312 83.928L224.56 82.4484L224.796 80.9367L225.02 79.3942L225.233 77.822L225.434 76.2214L225.625 74.5936L225.892 72.1039L226.058 70.4137L226.29 67.8361L226.435 66.0913L226.636 63.4375L226.761 61.6458L226.99 58.0139L227.196 54.3255L227.423 49.6508L227.634 44.6882L227.798 40.4079L227.997 34.7566L227.997 34.1756C227.959 32.2252 227.515 30.2088 225.865 30.2263L225.466 30.2202C224.149 30.1658 222.983 29.783 222.002 29.3392L221.435 29.0678C221.344 29.0221 221.255 28.9763 221.168 28.9307L220.671 28.6615L220.015 28.2945L219.641 28.0932C218.885 27.7062 218.496 27.6688 218.545 28.5691C218.657 30.653 218.517 32.9837 218.186 35.4406L218.006 36.679C217.94 37.0949 217.87 37.5138 217.795 37.9351L217.556 39.2054L217.29 40.4867C217.244 40.701 217.197 40.9155 217.148 41.1304L216.846 42.4218L216.522 43.7158C216.466 43.9314 216.41 44.1471 216.352 44.3626L215.998 45.6541L215.626 46.9398C215.599 47.0323 215.571 47.1248 215.543 47.2172L215.51 47.3282C215.485 47.412 215.459 47.4957 215.434 47.5794L215.038 48.8499L214.63 50.1063L214.209 51.3451L213.778 52.5629C213.706 52.7639 213.633 52.9639 213.559 53.1629L213.117 54.343L212.669 55.4937L212.216 56.6117C212.141 56.7952 212.065 56.9771 211.989 57.1575L211.535 58.2201L211.08 59.2417C211.004 59.4084 210.929 59.5732 210.853 59.7361L210.403 60.6898L209.957 61.5939L209.517 62.4453L209.086 63.2404L208.664 63.976L208.255 64.6486L207.858 65.255C206.95 66.59 206.165 67.3563 205.603 67.362C205.417 67.3638 205.374 67.056 205.435 66.4864L205.491 66.0683L205.627 65.3026L205.894 64.0394L207.078 58.8268L207.647 56.1415L207.873 55.0003C208.882 49.7866 209.748 43.5502 209.426 37.5779C209.244 34.2031 208.36 31.0726 206.525 30.2565C206.06 30.0498 205.618 29.8219 205.191 29.5914L203.944 28.9115C202.861 28.3339 201.826 27.8726 200.687 27.8841C199.78 27.8939 198.775 28.9544 197.73 30.7127L197.336 31.4041C197.204 31.645 197.072 31.8961 196.939 32.1568L196.54 32.9666L196.139 33.8294L195.738 34.7412L195.336 35.6977L194.733 37.2073L194.134 38.7943L193.738 39.8884L193.345 41.0066L192.762 42.7201L192.19 44.4644L191.632 46.2257L191.252 47.4547C190.5 49.9111 189.798 52.3479 189.173 54.5956C189.1 54.4096 189.025 54.2232 188.95 54.0361L188.481 52.9061L187.495 50.5886L186.997 49.3936C185.264 45.1624 183.709 40.3959 184.217 34.3718C184.357 34.3624 184.494 34.3525 184.627 34.3421L185.381 34.272C188.462 33.9346 189.162 33.1337 189.203 30.847L189.201 30.2924L189.181 29.6823C189.168 29.3807 189.253 29.0667 189.335 28.7656L189.395 28.5426L189.44 28.3425L189.469 28.1504L189.473 27.9684C189.438 27.4096 188.921 27.0288 186.834 27.095L186.122 27.1311C182.639 27.3653 178.751 30.662 178.933 32.2286L177.19 36.5459L174.018 44.1925L172.577 47.596L171.09 51.059L169.898 53.7856L168.732 56.4018L167.89 58.2519L167.087 59.975L166.334 61.5433L165.865 62.4891L165.425 63.3455C165.354 63.4803 165.285 63.6111 165.218 63.7376L164.829 64.4444C164.767 64.5533 164.707 64.6575 164.648 64.7571L164.317 65.2957C163.955 65.8544 163.68 66.1632 163.514 66.1632C162.932 66.1632 162.65 65.3383 162.538 63.968L162.5 63.3481C162.496 63.2395 162.492 63.1283 162.488 63.0146L162.478 62.3038L162.483 61.5383L162.501 60.7232C162.987 47.6163 165.427 34.6552 169.74 22.2678L180.431 22.5572L184.214 22.6322L185.835 22.638C188.329 22.6134 191.211 20.3284 193.507 17.9507L194.146 17.2707C194.25 17.1575 194.352 17.0447 194.452 16.9323L195.034 16.2658C195.128 16.1563 195.219 16.0478 195.309 15.9405L195.822 15.3127L196.284 14.7249L196.688 14.1881L197.031 13.7138L197.306 13.313L197.509 12.9971L197.634 12.7772C197.663 12.7212 197.678 12.683 197.678 12.6646C197.683 12.2692 196.904 11.0074 196.398 11.35L195.413 12.0099L194.501 12.5922C194.403 12.6528 194.305 12.712 194.209 12.7699L193.637 13.1016L193.076 13.403C192.332 13.7853 191.596 14.0905 190.792 14.3333L190.174 14.504C189.331 14.7167 188.399 14.8708 187.301 14.9811L186.445 15.0559L185.52 15.1158L184.518 15.162L183.432 15.1959L182.255 15.2191L180.979 15.2328L178.344 15.2381L172.441 15.2058L174.008 11.4308L174.389 10.4653L174.472 10.2116L174.54 9.78119C174.567 9.4653 174.499 9.22366 174.169 8.81125L173.938 8.54134L173.636 8.21869L173.255 7.83153L171.888 6.48276C171.673 6.26573 171.476 6.05976 171.293 5.86481L170.79 5.31304L169.839 4.22188L169.544 3.9002ZM55.0529 34.332C51.3716 34.3744 44.9233 45.8664 44.7424 64.0678C44.7226 66.0247 45.113 68.2687 45.7793 68.2612C47.0824 68.2459 48.8084 66.1906 50.4101 63.0931L50.8248 62.2621C50.8933 62.1199 50.9615 61.9759 51.0293 61.8301L51.4315 60.9355L51.8226 60.0035C52.2075 59.0541 52.5726 58.0545 52.9083 57.0223L53.2337 55.9799C54.2308 52.6488 54.8997 49.0507 54.9321 45.748C54.938 45.1915 55.1917 44.5599 55.5287 43.8295L56.0762 42.6569C56.6451 41.4042 57.2165 39.9025 57.2352 38.0716C57.2593 35.7191 56.3471 34.8456 55.6925 34.5218L55.4855 34.4329C55.4531 34.421 55.4219 34.4106 55.3922 34.4013L55.2322 34.3592L55.0529 34.332ZM178.038 46.041L178.645 44.1992C178.87 46.1223 179.175 48.0293 179.487 49.8796L179.862 52.0702L180.216 54.1908C180.495 55.9245 180.725 57.569 180.834 59.0837C181.154 63.539 179.656 68.095 176.579 68.095C173.659 68.095 173.186 65.0537 173.221 62.8814L173.236 62.4145L173.28 61.7888L173.335 61.281L173.416 60.7359L173.634 60.7831L174.035 60.848C174.088 60.855 174.144 60.8618 174.203 60.8681L174.579 60.898C174.779 60.9081 174.994 60.9098 175.215 60.897C176.493 60.8215 178.166 59.6378 178.166 56.9001C178.166 54.6813 177.143 53.2382 175.732 52.727C175.829 52.4583 175.924 52.1911 176.018 51.9255L176.57 50.3554L177.343 48.1099L178.038 46.041ZM108.235 32.5982C105.199 32.0441 100.598 39.8087 99.6772 51.4116C106.77 49.7846 110.58 33.5174 108.235 32.5982ZM91.3639 13.467C91.488 13.3208 91.5948 13.2492 91.6823 13.2492C92.3039 13.2492 92.6277 14.4958 92.4587 16.1253C92.4215 16.4808 92.3453 16.9188 92.2354 17.4264L92.0457 18.2384L91.8093 19.1453C91.7663 19.3038 91.7214 19.4658 91.6748 19.6313L91.3755 20.6623L91.039 21.7641L90.6692 22.9271C90.605 23.1255 90.5396 23.326 90.473 23.5285L90.0605 24.7651L89.6244 26.0388L89.1685 27.34L88.4559 29.3222L87.7206 31.312L86.9755 33.2771L86.4797 34.5572L85.9893 35.8024L85.2719 37.5832L85.5449 35.8998L85.8179 34.2824L86.0906 32.7304L86.3625 31.2432L86.6331 29.8201L86.902 28.4606L87.1687 27.1639L87.4329 25.9295L87.694 24.7567L87.9517 23.6449L88.2054 22.5935L88.4547 21.6018L88.6992 20.6692L88.9384 19.7951L89.1718 18.9788L89.3991 18.2198L89.7275 17.1871L89.9374 16.5684L90.1396 16.0047L90.3335 15.4953L90.5189 15.0398L90.6951 14.6373L90.8619 14.2874L91.0186 13.9894L91.1649 13.7425C91.1884 13.7056 91.2114 13.6708 91.234 13.6381L91.3639 13.467Z" fill="white"></path> </svg> 