<?xml version="1.0" encoding="UTF-8"?> <svg xmlns="http://www.w3.org/2000/svg" xmlns:xlink="http://www.w3.org/1999/xlink" width="302px" height="94px" viewBox="0 0 302 94"> <title>Path 11 Copy</title> <g id="Main" stroke="none" stroke-width="1" fill="none" fill-rule="evenodd"> <path d="M53.3446567,42.8070843 C89.8057393,8.69701292 164.014998,-6.63406805 226.456475,3.5202547 C243.156104,6.23597234 260.612235,11.1225399 274.102268,17.6399614 C274.462425,17.8139634 274.819332,17.9888701 275.172969,18.1646819 L276.224049,18.6948321 C276.744661,18.9612649 277.257868,19.2297342 277.763597,19.5002406 L278.765062,20.0439697 C278.930304,20.135044 279.09471,20.2263447 279.258277,20.3178717 L280.229592,20.8697513 C280.389793,20.9621841 280.549149,21.0548434 280.707659,21.1477291 L281.648536,21.7077614 C294.52283,29.492474 301.526675,38.8376674 301.140086,49.7555573 C300.479492,68.4117497 281.616145,79.1274208 249.151693,84.8736645 C244.70402,85.6609076 240.090995,86.3401392 235.147072,86.9530853 L232.646769,87.2542278 C231.803632,87.3528962 230.950537,87.4499164 230.086717,87.5454818 L227.336831,87.8412012 L225.129655,88.0672278 L222.833957,88.2930278 L209.543767,89.5176634 L205.717827,89.8608549 C204.445061,89.972949 203.174867,90.08273 201.907317,90.1901683 L198.112674,90.5054248 L194.334335,90.8064458 L190.572736,91.0930525 L186.828314,91.3650661 L183.101506,91.622308 C182.481863,91.6639407 181.862973,91.7049505 181.244843,91.7453336 L177.545275,91.9800827 L173.864413,92.1996131 C172.640625,92.2702336 171.420027,92.3382878 170.202693,92.4037461 L166.560553,92.592303 L162.938428,92.7651051 C162.336433,92.7925827 161.73529,92.8193963 161.135008,92.8455423 L157.543727,92.994377 L153.973554,93.12701 C113.039604,94.5584448 76.3795883,92.7404131 46.982634,86.4496458 L46.2948701,86.3006433 L44.9301005,85.9940263 L43.5799174,85.6760617 L42.2446109,85.3469113 C41.1381347,85.0680034 40.0474573,84.7776122 38.9733346,84.476159 L37.6923819,84.1091325 C37.055927,83.9229914 36.4255407,83.7329286 35.8013861,83.5390353 L34.5614344,83.1461682 L33.3383909,82.7432481 C32.7311446,82.5393017 32.1303477,82.3316462 31.5361636,82.1203725 L30.3566606,81.6930278 L29.1950818,81.2561965 C15.3648409,75.9579482 5.46889858,68.6455447 1.76412951,60.5773836 C-3.80279647,48.4538597 4.90316075,36.2103269 27.8087421,26.4950357 L28.507197,26.2014096 L28.891827,27.1244804 C5.91852038,36.6971182 -2.65442447,48.5583621 2.67290137,60.1600902 C5.26429166,65.8035606 11.0586018,71.1081885 19.216867,75.5836118 L20.1686485,76.0962989 C26.9038871,79.6589594 35.1602412,82.6683705 44.4956503,84.8661548 L45.8365729,85.1745748 C46.2859622,85.2755225 46.7377505,85.3746018 47.1918902,85.4717849 C76.5016252,91.7438879 113.096269,93.5563174 153.966908,92.1260984 L157.531581,91.9935881 C158.127465,91.9701508 158.724229,91.9460397 159.321864,91.9212588 L162.918045,91.7645628 C163.519125,91.7371168 164.121058,91.7090082 164.723834,91.6802407 L168.350534,91.4997592 C169.562758,91.4369831 170.778282,91.3716011 171.997031,91.303643 L175.662885,91.0920698 L179.347656,90.8652176 C180.579017,90.7870734 181.813458,90.7064123 183.050905,90.623264 L186.772192,90.366387 C187.393885,90.3223405 188.016311,90.2776795 188.639462,90.2324078 L192.386981,89.9534791 L196.151439,89.6600714 L199.932396,89.3523627 C200.563906,89.299896 201.196085,89.2468409 201.828925,89.193201 L205.633806,88.8643741 L209.454088,88.5216908 L220.308302,87.5282897 L223.513972,87.2222728 L225.771125,86.9973595 L227.955547,86.7704852 L228.675825,86.6935064 C236.090208,85.8954034 242.701343,84.9998397 248.977402,83.8889705 C281.010693,78.2190426 299.503578,67.7138191 300.140712,49.7201706 C300.579624,37.3246137 290.996921,26.9128435 273.667249,18.5403825 C260.275799,12.0705894 242.90811,7.2087798 226.295962,4.50728845 C164.756168,-5.50040141 91.7107423,9.3630267 55.1252691,42.5267854 L54.0278279,43.5373426 L53.3446567,42.8070843 Z" id="Path-11-Copy" fill="#FFFFFF" fill-rule="nonzero"></path> </g> </svg> 