<?xml version="1.0" encoding="UTF-8"?> <svg xmlns="http://www.w3.org/2000/svg" width="51" height="50" viewBox="0 0 51 50" fill="none"> <path fill-rule="evenodd" clip-rule="evenodd" d="M16.8328 0.509899C18.8973 0.577416 20.7085 0.985218 21.8635 1.56029C23.1888 2.22016 24.429 2.97671 25.5085 3.81496C26.58 2.98149 27.8077 2.22595 29.1172 1.56193L29.3433 2.00787L29.1172 1.56193C30.2547 0.985082 32.0581 0.577439 34.1184 0.509945C36.1884 0.442132 38.562 0.71594 40.8507 1.54162C43.1419 2.36819 45.3554 3.751 47.0835 5.90314C48.8132 8.05734 50.0353 10.9561 50.3819 14.7787C51.1032 22.7355 48.4748 28.9158 43.9014 34.3458C39.3483 39.7518 32.8508 44.4322 25.8219 49.4081C25.5965 49.5676 25.2845 49.5143 25.1249 49.2889C24.9654 49.0635 25.0187 48.7515 25.2441 48.5919C32.2958 43.5999 38.6809 38.9919 43.1366 33.7016C47.5721 28.4352 50.0788 22.5114 49.386 14.869C49.055 11.2183 47.8959 8.51217 46.3037 6.52923C44.7099 4.54423 42.6608 3.25771 40.5114 2.48228C38.3595 1.70596 36.1147 1.44508 34.1511 1.50941C32.1779 1.57405 30.5327 1.96537 29.5694 2.45381C28.3643 3.06492 27.2591 3.74201 26.2985 4.46914C27.548 5.575 28.5124 6.80423 29.041 8.127C29.5758 9.46514 29.6607 10.8929 29.1463 12.3508C28.6354 13.7989 27.5476 15.2378 25.8058 16.641C25.6227 16.7885 25.3615 16.7885 25.1784 16.641C23.4369 15.238 22.3503 13.8021 21.8411 12.3575C21.3284 10.9027 21.416 9.4792 21.9524 8.14425C22.4857 6.81693 23.4594 5.58255 24.7184 4.46936C23.7514 3.73913 22.636 3.06204 21.4178 2.45546L21.6406 2.00787L21.4178 2.45546C20.4331 1.96518 18.7764 1.57399 16.8001 1.50936C14.8329 1.44503 12.5906 1.70594 10.4439 2.48213C8.29968 3.25741 6.25791 4.54369 4.67002 6.52855C3.08369 8.51147 1.92921 11.2179 1.59818 14.8691C0.357576 28.5529 11.1724 38.3942 19.3746 44.264C19.5992 44.4247 19.6509 44.737 19.4902 44.9616C19.3295 45.1862 19.0172 45.2379 18.7926 45.0772C10.594 39.2099 -0.693115 29.0668 0.602268 14.7788C0.948788 10.9567 2.16574 8.05813 3.88915 5.90386C5.61101 3.75154 7.81729 2.36846 10.1039 1.54171C12.388 0.715872 14.7593 0.442088 16.8328 0.509899ZM25.5086 5.10683C24.279 6.16843 23.3613 7.32 22.8803 8.51709C22.4271 9.64489 22.3587 10.8173 22.7843 12.0251C23.1855 13.1634 24.0381 14.3675 25.4921 15.6028C26.946 14.3673 27.8003 13.1603 28.2033 12.0181C28.6309 10.806 28.5643 9.62874 28.1125 8.4981C27.636 7.30587 26.7276 6.15998 25.5086 5.10683Z" fill="#368048"></path> </svg> 