<svg xmlns="http://www.w3.org/2000/svg" width="1161" height="293" fill="none"><path fill="#01321F" stroke="#368048" d="M8.5 267.5h-8v8h8v-8zm192 0h-8v8h8v-8zm192 0h-8v8h8v-8z"/><path fill="#01321F" stroke="#FFDA6B" d="M584.5 267.5h-8v8h8v-8z"/><path fill="#01321F" stroke="#368048" d="M776.5 267.5h-8v8h8v-8zm192 0h-8v8h8v-8z"/><path fill="#01321F" stroke="#FFDA6B" d="M560.287 250.787v41.426h41.426v-41.426h-41.426z"/><path fill="#01321F" stroke="#368048" d="M1160.5 267.5h-8v8h8v-8z"/><path stroke="#FFDA6B" d="M679 104.5h101.5c11.046 0 20-8.954 20-20v-64c0-11.046 8.954-20 20-20h319c11.05 0 20 8.954 20 20v172c0 11.046-8.95 20-20 20h-319c-11.046 0-20-8.954-20-20v-73"/><path fill="#FFDA6B" d="M800.5 126a3.5 3.5 0 100-7 3.5 3.5 0 000 7zm-121-18a3.5 3.5 0 100-7 3.5 3.5 0 000 7z"/><path fill="#368048" d="M581 175h-1v75h1v-75z"/></svg>