<svg xmlns="http://www.w3.org/2000/svg" width="144" height="144" fill="none"><rect x=".5" y=".5" width="143" height="143" rx="71.5" stroke="#00865A"/><path d="M27.631 89v-3.28h7.92V62.8l-7.92 5.92v-4l6.6-4.92h4.92v25.92h6.48V89h-18zm24.065 0v-3.68l8.92-9.48c1.52-1.627 2.626-3.067 3.32-4.32.693-1.28 1.04-2.507 1.04-3.68 0-1.627-.454-2.907-1.36-3.84-.88-.933-2.094-1.4-3.64-1.4-1.707 0-3.054.48-4.04 1.44-.96.96-1.44 2.28-1.44 3.96h-3.6c.053-1.76.453-3.28 1.2-4.56a7.777 7.777 0 013.16-3c1.36-.693 2.933-1.04 4.72-1.04 1.76 0 3.28.347 4.56 1.04 1.306.667 2.306 1.627 3 2.88.693 1.253 1.04 2.747 1.04 4.48 0 1.653-.44 3.293-1.32 4.92-.88 1.627-2.32 3.48-4.32 5.56l-7.2 7.44h13.32V89h-17.36zM84 89.4c-1.787 0-3.347-.347-4.68-1.04a7.652 7.652 0 01-3.04-3c-.72-1.307-1.08-2.827-1.08-4.56V68c0-1.76.36-3.28 1.08-4.56a7.389 7.389 0 013.04-2.96c1.333-.72 2.893-1.08 4.68-1.08 1.813 0 3.373.36 4.68 1.08a7.389 7.389 0 013.04 2.96c.72 1.28 1.08 2.8 1.08 4.56v12.8c0 1.733-.36 3.253-1.08 4.56-.72 1.28-1.747 2.28-3.08 3-1.307.693-2.853 1.04-4.64 1.04zm0-3.08c1.6 0 2.88-.507 3.84-1.52.987-1.04 1.48-2.373 1.48-4V68c0-1.627-.493-2.947-1.48-3.96-.96-1.04-2.24-1.56-3.84-1.56-1.6 0-2.893.52-3.88 1.56-.96 1.013-1.44 2.333-1.44 3.96v12.8c0 1.627.48 2.96 1.44 4 .987 1.013 2.28 1.52 3.88 1.52zm0-9.56c-.72 0-1.307-.227-1.76-.68-.427-.453-.64-1.053-.64-1.8 0-.72.213-1.293.64-1.72.453-.453 1.04-.68 1.76-.68s1.293.227 1.72.68c.453.427.68 1 .68 1.72 0 .747-.227 1.347-.68 1.8-.427.453-1 .68-1.72.68zm23.984 12.64c-1.786 0-3.346-.347-4.68-1.04a7.657 7.657 0 01-3.04-3c-.72-1.307-1.08-2.827-1.08-4.56V68c0-1.76.36-3.28 1.08-4.56a7.393 7.393 0 013.04-2.96c1.334-.72 2.894-1.08 4.68-1.08 1.814 0 3.374.36 4.68 1.08a7.387 7.387 0 013.04 2.96c.72 1.28 1.08 2.8 1.08 4.56v12.8c0 1.733-.36 3.253-1.08 4.56-.72 1.28-1.746 2.28-3.08 3-1.306.693-2.853 1.04-4.64 1.04zm0-3.08c1.6 0 2.88-.507 3.84-1.52.987-1.04 1.48-2.373 1.48-4V68c0-1.627-.493-2.947-1.48-3.96-.96-1.04-2.24-1.56-3.84-1.56-1.6 0-2.893.52-3.88 1.56-.96 1.013-1.44 2.333-1.44 3.96v12.8c0 1.627.48 2.96 1.44 4 .987 1.013 2.28 1.52 3.88 1.52zm0-9.56c-.72 0-1.306-.227-1.76-.68-.426-.453-.64-1.053-.64-1.8 0-.72.214-1.293.64-1.72.454-.453 1.04-.68 1.76-.68s1.294.227 1.72.68c.454.427.68 1 .68 1.72 0 .747-.226 1.347-.68 1.8-.426.453-1 .68-1.72.68z" fill="#00865A"/></svg>