<svg xmlns="http://www.w3.org/2000/svg" width="49" height="50" fill="none"><path fill-rule="evenodd" clip-rule="evenodd" d="M20.989 2.67l-5.902 10.855a5.996 5.996 0 01-4.373 3.057l-9.639 1.461a.5.5 0 01-.15-.989l9.64-1.46a4.997 4.997 0 003.644-2.546l.44.239-.44-.24L20.11 2.194c1.227-2.257 4.492-2.257 5.72 0l5.885 10.825-.438.238.438-.238a4.997 4.997 0 003.693 2.553l10.3 1.457-.07.495.07-.495c2.794.395 3.793 3.905 1.596 5.686l-.315-.389.315.389-7.453 6.039a4.914 4.914 0 00-1.629 5.22l3.38 11.382c.903 3.04-2.676 5.384-5.144 3.428L26.094 40.57a5.04 5.04 0 00-6.248 0L9.482 48.783c-2.469 1.956-6.047-.388-5.145-3.428l3.387-11.403.475.141-.475-.141a4.914 4.914 0 00-1.607-5.202L.683 24.295a.5.5 0 11.634-.773l5.434 4.454a5.914 5.914 0 011.931 6.26L5.296 45.64l-.329-.098.33.098C4.681 47.71 7.13 49.37 8.86 48l10.364-8.212a6.04 6.04 0 017.49 0l-.31.392.31-.392L37.079 48l-.31.392.31-.392c1.73 1.371 4.18-.29 3.565-2.36l.416-.123-.416.123-3.38-11.381.416-.124-.416.124a5.914 5.914 0 011.957-6.282l.306.377-.306-.377 7.453-6.04c1.508-1.221.837-3.643-1.107-3.918L35.268 16.56a5.996 5.996 0 01-4.432-3.066L24.951 2.671c-.849-1.561-3.114-1.561-3.962 0z" fill="#FFDA6B"/></svg>