<svg xmlns="http://www.w3.org/2000/svg" width="144" height="144" fill="none"><path d="M102.118 41.257l-.277.902.902-.277A31.492 31.492 0 01112 40.5c17.397 0 31.5 14.103 31.5 31.5s-14.103 31.5-31.5 31.5c-3.222 0-6.331-.484-9.257-1.382l-.902-.277.277.902A31.505 31.505 0 01103.5 112c0 17.397-14.103 31.5-31.5 31.5S40.5 129.397 40.5 112c0-3.222.484-6.331 1.382-9.257l.277-.902-.902.277A31.509 31.509 0 0132 103.5C14.603 103.5.5 89.397.5 72S14.603 40.5 32 40.5c3.222 0 6.33.484 9.257 1.382l.902.277-.277-.902A31.495 31.495 0 0140.5 32C40.5 14.603 54.603.5 72 .5s31.5 14.103 31.5 31.5c0 3.222-.484 6.33-1.382 9.257z" stroke="#27B783"/><path fill-rule="evenodd" clip-rule="evenodd" d="M71.95 41.786c-16.517.038-29.99 13.36-30.163 29.924-.18 16.695 13.22 30.38 29.917 30.554 16.695.174 30.38-13.22 30.561-29.922.174-16.695-13.228-30.38-29.922-30.554-.131-.002-.261-.002-.391-.002h-.002zm.002.718l.382.001c16.307.17 29.383 13.522 29.212 29.829-.177 16.314-13.528 29.383-29.836 29.212-16.308-.17-29.384-13.521-29.206-29.828.168-16.18 13.313-29.18 29.448-29.214z" fill="#27B783"/><path fill-rule="evenodd" clip-rule="evenodd" d="M82.43 60.717a.36.36 0 00-.222.078l-5.644 4.346a.357.357 0 00-.006.563l5.55 4.468a.357.357 0 00.514-.048.358.358 0 00-.064-.51l-5.196-4.183 5.283-4.068a.359.359 0 00-.215-.646zm-20.586-.215a.358.358 0 00-.217.64l5.196 4.183-5.283 4.068a.359.359 0 00.437.569l5.644-4.346a.359.359 0 00.006-.564l-5.55-4.468a.361.361 0 00-.233-.082zm2.215 15.716a3.577 3.577 0 00-3.604 3.531 3.583 3.583 0 003.53 3.61h.001l15.835.166h.001c1.96.016 3.587-1.571 3.61-3.531a3.59 3.59 0 00-3.538-3.61l-15.834-.165-.001-.001zm-.008.717h-.001.001l15.834.165a2.865 2.865 0 012.83 2.886 2.87 2.87 0 01-2.887 2.821l-15.834-.165a2.853 2.853 0 01.056-5.707z" fill="#27B783"/></svg>