<svg xmlns="http://www.w3.org/2000/svg" fill="none" viewBox="0 0 144 144"><path stroke="#368048" d="M102.118 41.257l-.277.902.902-.277A31.492 31.492 0 01112 40.5c17.397 0 31.5 14.103 31.5 31.5s-14.103 31.5-31.5 31.5c-3.222 0-6.331-.484-9.257-1.382l-.902-.277.277.902A31.505 31.505 0 01103.5 112c0 17.397-14.103 31.5-31.5 31.5S40.5 129.397 40.5 112c0-3.222.484-6.331 1.382-9.257l.277-.902-.902.277A31.509 31.509 0 0132 103.5C14.603 103.5.5 89.397.5 72S14.603 40.5 32 40.5c3.222 0 6.33.484 9.257 1.382l.902.277-.277-.902A31.495 31.495 0 0140.5 32C40.5 14.603 54.603.5 72 .5s31.5 14.103 31.5 31.5c0 3.222-.484 6.33-1.382 9.257z"/></svg>
