<svg xmlns="http://www.w3.org/2000/svg" width="144" height="144" fill="none"><rect x=".5" y=".5" width="143" height="143" rx="71.5" stroke="#000"/><path d="M21.639 61.12h14.79v2.291h-6.061V82H27.7V63.411h-6.061V61.12zm21.014 14.935c0 1.199.338 2.156 1.015 2.871.676.696 1.595 1.044 2.755 1.044s2.078-.348 2.755-1.044c.676-.715 1.015-1.672 1.015-2.871v-8.99c0-1.199-.339-2.146-1.015-2.842-.677-.715-1.595-1.073-2.755-1.073s-2.079.358-2.755 1.073c-.677.696-1.015 1.643-1.015 2.842v8.99zm-2.61-8.99c0-.947.145-1.808.435-2.581a5.785 5.785 0 011.276-1.972 5.747 5.747 0 012-1.247c.793-.29 1.683-.435 2.669-.435s1.865.145 2.639.435c.792.29 1.46.706 2 1.247a5.269 5.269 0 011.277 1.972c.309.773.464 1.634.464 2.581v8.99c0 .947-.155 1.808-.464 2.581a5.316 5.316 0 01-1.276 1.943c-.542.541-1.209.967-2.001 1.276-.793.29-1.673.435-2.64.435-.985 0-1.875-.145-2.667-.435a5.747 5.747 0 01-2.001-1.247 5.788 5.788 0 01-1.276-1.972c-.29-.773-.435-1.634-.435-2.581v-8.99zM57.72 82V61.12H69.9V82h-2.61V63.498h-6.96V82h-2.61zM75.4 71.27H87v2.32H75.4v-2.32zm22.84-1.74c1.045 0 1.982.155 2.814.464.85.29 1.566.715 2.146 1.276a5.49 5.49 0 011.392 2.001c.328.793.493 1.672.493 2.639 0 .986-.155 1.875-.464 2.668a5.691 5.691 0 01-1.334 2.001c-.58.541-1.286.967-2.117 1.276-.812.29-1.73.435-2.755.435-.909 0-1.75-.135-2.523-.406a6.555 6.555 0 01-2.001-1.131 6.404 6.404 0 01-1.392-1.798 6.442 6.442 0 01-.638-2.32h2.61c.154 1.005.59 1.817 1.305 2.436.715.6 1.595.899 2.639.899 1.218 0 2.194-.367 2.929-1.102.734-.754 1.102-1.74 1.102-2.958 0-1.218-.377-2.194-1.131-2.929-.754-.754-1.76-1.131-3.016-1.131h-2.436v-2.755l4.147-4.205a9.705 9.705 0 011.218-1.015c.212-.174.435-.338.667-.493v-.058c-.213.02-.435.039-.667.058-.213.02-.445.039-.696.058h-8.034v-2.32H104.1v2.9l-4.901 4.669a5.222 5.222 0 01-.348.319c-.116.097-.223.184-.32.261a3.536 3.536 0 01-.29.261zm13.967 6.525c0 1.199.339 2.156 1.015 2.871.677.696 1.595 1.044 2.755 1.044s2.079-.348 2.755-1.044c.677-.715 1.015-1.672 1.015-2.871v-8.99c0-1.199-.338-2.146-1.015-2.842-.676-.715-1.595-1.073-2.755-1.073s-2.078.358-2.755 1.073c-.676.696-1.015 1.643-1.015 2.842v8.99zm-2.61-8.99c0-.947.145-1.808.435-2.581.31-.773.735-1.43 1.276-1.972a5.754 5.754 0 012.001-1.247c.793-.29 1.682-.435 2.668-.435.986 0 1.866.145 2.639.435.793.29 1.46.706 2.001 1.247a5.266 5.266 0 011.276 1.972c.31.773.464 1.634.464 2.581v8.99c0 .947-.154 1.808-.464 2.581a5.31 5.31 0 01-1.276 1.943c-.541.541-1.208.967-2.001 1.276-.792.29-1.672.435-2.639.435-.986 0-1.875-.145-2.668-.435a5.754 5.754 0 01-2.001-1.247 5.805 5.805 0 01-1.276-1.972c-.29-.773-.435-1.634-.435-2.581v-8.99zm4.93 3.48c0-.483.126-.87.377-1.16.271-.29.629-.435 1.073-.435.445 0 .793.145 1.044.435.271.29.406.677.406 1.16v2.32c0 .483-.135.87-.406 1.16-.251.29-.599.435-1.044.435-.444 0-.802-.145-1.073-.435-.251-.29-.377-.677-.377-1.16v-2.32z" fill="#000"/></svg>