<svg xmlns="http://www.w3.org/2000/svg" width="144" height="144" fill="none"><circle cx="72" cy="72" r="71.5" stroke="#27B783"/><path clip-rule="evenodd" d="M71.542 88.97A66.775 66.775 0 0160 79.983a22.981 22.981 0 01-5.493-8.758c-2.062-6.412.346-13.752 7.088-15.924a11.458 11.458 0 0110.398 1.752A11.475 11.475 0 0182.39 55.3c6.74 2.172 9.167 9.512 7.105 15.924a22.981 22.981 0 01-5.494 8.758 66.775 66.775 0 01-11.541 8.987l-.451.28-.468-.28z" stroke="#000" stroke-linecap="round" stroke-linejoin="round"/><path d="M79.167 62.518a5.331 5.331 0 013.674 4.642" stroke="#000" stroke-linecap="round" stroke-linejoin="round"/></svg>