<svg xmlns="http://www.w3.org/2000/svg" width="125" height="144" fill="none"><path d="M.5 36.289L62.354.577l61.854 35.712v71.422l-61.854 35.712L.5 107.711V36.289z" stroke="#27B783"/><path d="M46.807 87.617c-2.12 0-3.887-1.766-3.887-3.886v-2.544c0-2.12 1.767-3.887 3.887-3.887.424 0 .706.282.706.707 0 .423-.282.706-.706.706-1.343 0-2.474 1.13-2.474 2.474v2.544c0 1.342 1.131 2.473 2.474 2.473.424 0 .706.283.706.707a.708.708 0 01-.706.706zm30.386-.141c-.424 0-.706-.282-.706-.707 0-.424.282-.706.706-.706 1.343 0 2.474-1.131 2.474-2.474v-2.544c0-1.342-1.131-2.473-2.474-2.473-.424 0-.706-.283-.706-.707s.282-.706.706-.706c2.12 0 3.887 1.766 3.887 3.886v2.544a3.875 3.875 0 01-3.887 3.887z" fill="#000" stroke="#F0F0F0" stroke-width=".4"/><path d="M62.636 104.295h-1.272c-8.41 0-15.264-6.855-15.264-15.264v-9.964c0-2.191.495-4.311 1.343-6.36v-.071c1.342-2.897 3.604-5.37 6.36-6.925.353-.212.777-.07.989.282.212.354.07.778-.283.99-2.473 1.413-4.522 3.604-5.724 6.218v.071a13.59 13.59 0 00-1.272 5.795v10.035c0 7.631 6.219 13.85 13.851 13.85h1.272c7.632 0 13.85-6.218 13.85-13.85V79.067c0-1.979-.423-3.958-1.271-5.724v-.071c-1.202-2.615-3.251-4.876-5.795-6.29-.353-.211-.495-.635-.283-.989.212-.353.636-.424.99-.282 2.755 1.555 5.017 3.957 6.36 6.855v.07c.918 2.05 1.413 4.17 1.413 6.36v10.035c0 8.409-6.855 15.264-15.264 15.264h0z" fill="#000" stroke="#F0F0F0" stroke-width=".4"/><path d="M69.561 82.953a5.067 5.067 0 01-5.088-5.088c0-.424.283-.707.707-.707s.706.283.706.707a3.65 3.65 0 003.675 3.675 3.65 3.65 0 003.675-3.675c0-.424.283-.707.707-.707s.707.283.707.707c-.072 2.827-2.333 5.088-5.089 5.088zM66.31 92.988h-8.62c-.425 0-.708-.283-.708-.707s.283-.706.707-.706h8.692c.424 0 .707.282.707.706s-.353.707-.777.707h0zM54.438 82.953a5.067 5.067 0 01-5.088-5.088c0-.424.283-.707.707-.707s.707.283.707.707a3.65 3.65 0 003.674 3.675 3.65 3.65 0 003.675-3.675c0-.424.283-.707.707-.707s.707.283.707.707a5.067 5.067 0 01-5.089 5.088zM62 87.546h-3.675c-.212 0-.424-.141-.565-.282-.142-.212-.142-.424-.071-.636l3.675-8.975c.141-.353.565-.565.918-.353.354.141.566.565.354.918l-3.251 7.915H62c.424 0 .706.283.706.707s-.282.706-.706.706h0zm-3.816-18.161c-2.968 0-5.442-2.544-5.442-5.582v-.424a8.033 8.033 0 01-3.321-6.502 8.11 8.11 0 011.13-4.098c-.706-.919-1.13-2.05-1.13-3.18 0-2.685 2.261-5.018 5.23-5.512.494-2.544 2.472-4.382 4.875-4.382.283 0 1.343-.07 2.19.707.637.565.92 1.343.92 2.403v24.45c0 .283-.142.495-.425.636l-2.685 1.272c-.07 0-.07.071-.141.071-.424.07-.777.141-1.201.141h0zm1.554-28.266h-.07c-1.908 0-3.392 1.554-3.604 3.675a.633.633 0 01-.636.635c-2.544.212-4.523 1.979-4.523 4.17 0 .989.424 1.908 1.13 2.615.213.211.283.635.072.918-.778 1.13-1.202 2.403-1.202 3.745 0 2.262 1.13 4.31 3.038 5.512a.672.672 0 01.283.707c0 .212-.07.424-.07.636 0 2.614 2.26 4.664 4.805 4.098l2.261-1.06V42.743c0-.636-.141-1.06-.424-1.342-.282-.283-.848-.283-1.06-.283h0z" fill="#000" stroke="#F0F0F0" stroke-width=".4"/><path d="M53.661 54.334c-1.201 0-2.19-.636-2.685-1.131-.282-.283-.212-.707.071-.99.283-.282.707-.211.99.071.14.142 1.554 1.555 3.533-.07.282-.212.777-.212.989.07.212.283.212.778-.07.99-1.06.777-1.98 1.06-2.828 1.06v0zm12.155 15.051c-.424 0-.778-.07-1.202-.141-.07 0-.07 0-.141-.071l-2.756-1.272c-.282-.141-.424-.353-.424-.636v-24.45c0-1.06.283-1.838.919-2.403.848-.777 1.978-.707 2.19-.707 2.332 0 4.382 1.838 4.876 4.382 2.968.424 5.23 2.756 5.23 5.512 0 1.13-.424 2.261-1.131 3.18.777 1.271 1.13 2.685 1.13 4.098 0 2.544-1.2 4.947-3.32 6.502v.424c0 3.038-2.403 5.582-5.371 5.582h0zm-.848-1.554c2.544.565 4.805-1.484 4.805-4.099 0-.212 0-.424-.07-.636a.672.672 0 01.282-.706 6.549 6.549 0 003.038-5.512c0-1.343-.423-2.685-1.201-3.745-.212-.283-.141-.636.07-.919.707-.777 1.132-1.696 1.132-2.615 0-2.12-1.979-3.957-4.523-4.169a.633.633 0 01-.636-.636c-.212-2.12-1.767-3.675-3.533-3.675h-.071s-.707-.07-1.202.354c-.282.282-.424.706-.424 1.342v24.027l2.333.989z" fill="#000" stroke="#F0F0F0" stroke-width=".4"/><path d="M67.865 64.51c-.848 0-1.837-.213-2.756-.92-.282-.211-.424-.635-.141-.988.212-.283.636-.424.99-.142 1.978 1.413 4.027.07 4.098 0 .353-.212.777-.141.989.212.212.353.141.777-.212.99-.07 0-1.342.847-2.968.847h0zm.778-10.53H68.5c-.141 0-3.533-.565-4.169-3.957-.07-.354.212-.778.565-.849.353-.07.778.212.848.566.424 2.402 2.968 2.826 2.968 2.826.354.071.636.424.566.778a.633.633 0 01-.636.636h0z" fill="#000" stroke="#F0F0F0" stroke-width=".4"/></svg>