<svg xmlns="http://www.w3.org/2000/svg" width="144" height="144" fill="none"><path d="M36.208 36.205L72 .705l35.792 35.5.003.003L143.296 72l-35.501 35.792-.003.003L72 143.296l-35.792-35.501-.003-.003L.705 72l35.5-35.792.003-.003zM1 72.5h24.5m117.5 0h-22" stroke="#27B783"/><path d="M101.434 72.849l-2.688-3.092v-2.352C98.746 57.795 90.95 50 81.34 50c-3.494 0-6.72 1.008-9.408 2.755C69.245 51.008 66.02 50 62.525 50c-9.609 0-17.404 7.795-17.404 17.405v2.352l-2.688 3.091a3.191 3.191 0 00-.47 3.427 3.264 3.264 0 002.956 1.882h.202v4.3a5.105 5.105 0 005.107 5.108h4.234c.268 0 .537.269.537.538v1.881a3.226 3.226 0 003.226 3.226H67.7a3.2 3.2 0 003.226-3.092c.067-1.948.336-3.494.739-4.905a3.28 3.28 0 01.268-.74c.067.27.135.471.269.74.403 1.411.672 3.024.74 4.905a3.2 3.2 0 003.225 3.092h9.475a3.226 3.226 0 003.226-3.226v-1.881c0-.269.268-.538.537-.538h4.234a5.105 5.105 0 005.107-5.107v-4.3h.202c1.276 0 2.419-.74 2.956-1.883.538-1.141.403-2.485-.47-3.427h0zM69.178 84.474c-.471 1.68-.74 3.427-.807 5.578 0 .269-.268.538-.537.538h-9.476c-.268 0-.537-.269-.537-.538V88.17a3.226 3.226 0 00-3.226-3.225h-4.233a2.41 2.41 0 01-2.42-2.42v-5.644c0-.74-.604-1.344-1.344-1.344h-1.612c-.337 0-.471-.202-.471-.336-.067-.135-.135-.336.067-.605l3.024-3.495c.201-.268.336-.537.336-.873v-2.823c0-8.131 6.585-14.717 14.717-14.717 2.553 0 5.04.673 7.123 1.815-3.495 3.158-5.712 7.795-5.712 12.835 0 2.487.537 4.906 1.545 7.19.74 1.68 1.815 2.958 2.89 4.167.336.47.739.874 1.075 1.344.336.403.604.874.94 1.277-.603 1.075-1.006 2.15-1.343 3.158h0zm8.13-17.068c0 2.083-.47 4.166-1.276 6.047-.605 1.344-1.546 2.42-2.487 3.562-.403.47-.806.94-1.142 1.411-.135.135-.202.337-.336.471-.135-.135-.202-.336-.336-.47-.403-.471-.74-.941-1.142-1.412-.941-1.142-1.882-2.285-2.487-3.562-.874-1.881-1.277-3.964-1.277-6.047 0-4.503 2.083-8.602 5.309-11.29 3.091 2.688 5.174 6.72 5.174 11.29h0zM99.486 75.2c-.067.135-.202.336-.471.336h-1.546c-.739 0-1.343.605-1.343 1.344v5.645a2.41 2.41 0 01-2.42 2.419h-4.233a3.226 3.226 0 00-3.226 3.225v1.882c0 .268-.268.537-.537.537l-9.543.001a.53.53 0 01-.538-.538c-.067-2.15-.336-3.897-.806-5.577-.268-1.076-.739-2.083-1.277-3.092.269-.403.605-.873.941-1.277.336-.47.74-.873 1.075-1.343 1.008-1.277 2.151-2.554 2.89-4.167a17.502 17.502 0 001.545-7.19c0-5.108-2.217-9.677-5.712-12.836a14.95 14.95 0 017.123-1.814c8.132 0 14.717 6.585 14.717 14.717v2.822c0 .336.134.605.336.874l3.024 3.494c.135.135.068.404 0 .538h0z" fill="#000" stroke="#F0F0F0" stroke-width="1.8"/></svg>