<svg xmlns="http://www.w3.org/2000/svg" width="144" height="144" fill="none"><mask id="a" fill="#fff"><path fill-rule="evenodd" clip-rule="evenodd" d="M72 0C56.536 0 44 12.536 44 28v16H28C12.536 44 0 56.536 0 72s12.536 28 28 28h16v16c0 15.464 12.536 28 28 28s28-12.536 28-28v-16h16c15.464 0 28-12.536 28-28s-12.536-28-28-28h-16V28c0-15.464-12.536-28-28-28z"/></mask><path d="M44 44v1h1v-1h-1zm0 56h1v-1h-1v1zm56 0v-1h-1v1h1zm16-56v1-1zm-16 0h-1v1h1v-1zM45 28C45 13.088 57.088 1 72 1v-2C55.984-1 43 11.984 43 28h2zm0 16V28h-2v16h2zm-17 1h16v-2H28v2zM1 72c0-14.912 12.088-27 27-27v-2C11.984 43-1 55.984-1 72h2zm27 27C13.088 99 1 86.912 1 72h-2c0 16.016 12.984 29 29 29v-2zm16 0H28v2h16v-2zm1 17v-16h-2v16h2zm27 27c-14.912 0-27-12.088-27-27h-2c0 16.016 12.984 29 29 29v-2zm27-27c0 14.912-12.088 27-27 27v2c16.016 0 29-12.984 29-29h-2zm0-16v16h2v-16h-2zm17-1h-16v2h16v-2zm27-27c0 14.912-12.088 27-27 27v2c16.016 0 29-12.984 29-29h-2zm-27-27c14.912 0 27 12.088 27 27h2c0-16.016-12.984-29-29-29v2zm-16 0h16v-2h-16v2zm-1-17v16h2V28h-2zM72 1c14.912 0 27 12.088 27 27h2c0-16.016-12.984-29-29-29v2z" fill="#27B783" mask="url(#a)"/><path d="M49.038 86.081c-6.185 0-11.198-4.95-11.198-11.06S42.853 63.96 49.038 63.96h49.28c-6.185 0-11.2 4.952-11.2 11.061 0 6.11 5.015 11.06 11.202 11.06H49.038zm49.282-6.637c4.327 0 7.84-3.465 7.84-7.743 0-4.276-3.513-7.742-7.84-7.742 4.327 0 7.84 3.465 7.84 7.742 0 4.278-3.513 7.743-7.84 7.743z" stroke="#000" stroke-miterlimit="10" stroke-linecap="round" stroke-linejoin="round"/><path d="M71.998 63.959c-6.182 0-11.199 4.952-11.199 11.061 0 6.11 5.017 11.061 11.2 11.061-6.183 0-11.2-4.95-11.2-11.06S65.816 63.96 72 63.96v0zm0-6.638c0-3.666-3.01-6.637-6.72-6.635-3.71 0-6.716 2.97-6.716 6.635 0 3.665 3.006 6.637 6.716 6.637h6.72v-6.637zm6.72 6.637c3.714 0 6.72-2.972 6.72-6.637 0-3.666-3.01-6.637-6.72-6.637s-6.72 2.97-6.72 6.637v6.637h6.72z" stroke="#000" stroke-miterlimit="10" stroke-linecap="round" stroke-linejoin="round"/></svg>