<svg xmlns="http://www.w3.org/2000/svg" width="144" height="144" fill="none"><circle opacity=".2" cx="72" cy="72" r="71.5" stroke="#fff"/><path d="M61.053 92.708l-.856-7.694 5.216-5.722-7.583-1.564L54 71l-3.83 6.728-7.583 1.564 5.216 5.722-.856 7.694L54 89.516m36 0l7.053 3.192-.856-7.694 5.216-5.722-7.583-1.564L90 71l-3.83 6.728-7.583 1.564 5.216 5.722-.856 7.694M72 63.516l7.053 3.192-.856-7.694 5.216-5.722-7.583-1.564L72 45l-3.83 6.728-7.583 1.564 5.216 5.722-.856 7.694" stroke="#fff" stroke-linecap="round"/></svg>