<?xml version="1.0" encoding="UTF-8"?> <svg xmlns="http://www.w3.org/2000/svg" width="320" height="199" viewBox="0 0 320 199" fill="none"> <path d="M122.258 1.59766C174.526 1.59766 224.653 22.3248 261.612 59.2192C298.571 96.1137 319.334 146.153 319.334 198.33" stroke="#537AFF"></path> <path d="M0.470708 123.17C0.470709 90.9258 13.302 60.0025 36.1417 37.2025C58.9815 14.4026 89.9589 1.59375 122.259 1.59374" stroke="#537AFF"></path> <path d="M75.5562 198.059C55.5888 198.059 36.641 190.41 22.5219 176.315C8.40274 162.221 0.470701 143.104 0.4707 123.172" stroke="#537AFF"></path> <path d="M75.556 198.059C87.8888 198.059 99.9183 193.437 108.639 184.731C117.359 176.026 122.223 164.108 122.223 151.797" stroke="#537AFF"></path> <path d="M93.7782 123.328C97.5585 123.328 100.996 123.916 104.489 125.36C107.981 126.804 111.154 128.921 113.827 131.589C116.5 134.258 118.621 137.425 120.067 140.912C121.514 144.398 122.223 148.023 122.223 151.797" stroke="#537AFF"></path> <path d="M93.7778 123.328C91.4515 123.328 88.8429 123.63 86.6937 124.518C84.5444 125.407 82.5916 126.71 80.9467 128.352C79.3018 129.994 77.9969 131.943 77.1067 134.089C76.2164 136.234 76 138.354 76 140.676" stroke="#537AFF"></path> <path d="M86.6666 151.797C85.2127 151.797 83.9356 151.622 82.5924 151.067C81.2491 150.511 80.0286 149.697 79.0006 148.671C77.9725 147.645 77.157 146.426 76.6006 145.086C76.0442 143.745 76 142.128 76 140.676" stroke="#537AFF"></path> <path d="M75.5549 151.797L122.666 151.797" stroke="#537AFF"></path> <path d="M76 122.883L75.9999 198.504" stroke="#537AFF"></path> <path d="M122.666 123.328L-0.00064373 123.328" stroke="#537AFF"></path> <path d="M122.223 198.504L122.223 1.00046" stroke="#537AFF"></path> <path d="M-2.38419e-05 198.059L320 198.059" stroke="#537AFF"></path> <path d="M-2.38419e-06 1.44531L320 1.44531" stroke="#537AFF"></path> <path d="M319.555 197.5L319.555 1" stroke="#537AFF"></path> <path d="M0.445294 197.5L0.445304 1" stroke="#537AFF"></path> </svg> 