<?xml version="1.0" encoding="UTF-8"?> <svg xmlns="http://www.w3.org/2000/svg" width="360" height="581" viewBox="0 0 360 581" fill="none"> <path fill-rule="evenodd" clip-rule="evenodd" d="M360 221L360 221L360 1L360 1L360 0L360 0L359 4.37227e-08L138 9.70394e-06L137 9.74764e-06L0.999975 1.56924e-05L-2.53565e-05 1.57361e-05L-2.53128e-05 1.00002L-3.05652e-05 579L-3.05215e-05 580L0.52829 580L0.52829 580.09C3.21478 580.09 5.89816 580.06 8.578 580L359 580L360 580L360 580L360 579L360 579L360 222L360 222L360 221ZM0.999939 579L0.999954 222L84.936 222L84.9997 222L85 222L86 222L137 222L138 222L358.751 222C358.698 316.687 320.963 407.484 253.831 474.442C188.548 539.555 100.662 576.941 8.5668 579L0.999939 579ZM0.999954 221L0.999951 150.12C3.71812 167.922 12.061 184.525 24.9835 197.414C37.8099 210.207 54.1565 218.303 71.7915 221L0.999954 221ZM0.99998 121.046L0.999975 1.00002L122.412 1.00001C91.5075 4.41096 62.5029 18.1997 40.3055 40.3394C18.3934 62.1944 4.63978 90.6658 0.99998 121.046ZM359 203.579L359 1L156.784 1.00001C208.666 5.49616 257.554 28.0663 294.667 65.0824C332.012 102.33 354.692 151.471 359 203.579ZM28.5363 579L359 579L359 244.974C353.378 331.539 316.407 413.441 254.537 475.15C193.802 535.726 113.559 572.371 28.5363 579ZM358.75 221L138 221L138 170L138 169.5L138 169L138 138L138 137L138 1.16847C196.504 1.28944 252.584 24.5215 293.961 65.7904C335.256 106.978 358.538 162.774 358.75 221ZM137 221L95.5213 221C105.681 219.045 115.172 214.254 122.571 206.874C130.023 199.441 134.994 189.947 137 179.752L137 221ZM85.0002 221C84.9055 221 84.8107 221 84.716 221L84.5266 220.999L84.3523 220.998L84.1663 220.996L84.0024 220.994C62.0355 220.744 41.2423 212.218 25.6897 196.706C10.0592 181.116 1.20906 160.028 1.03175 138L85.0001 138L85.0001 156.861L84.9999 157L85.0001 157.183L85.0001 169L85.0001 170L85.0002 221ZM137 137L137 1.16902C100.99 1.31105 66.4851 15.6403 41.0117 41.0474C15.4873 66.5053 1.11463 101.006 1.02906 137L85.0001 137L86.0001 137L105.5 137L105.5 137L137 137ZM137 161.449L137 138L113.802 138C115.118 138.342 116.426 138.779 117.74 139.322C121.73 140.97 125.355 143.386 128.409 146.432C131.462 149.477 133.885 153.093 135.537 157.073C136.134 158.511 136.621 159.969 137 161.449ZM86.0001 138L98.3604 138C98.0125 138.114 97.6714 138.239 97.3393 138.376C94.8609 139.4 92.6088 140.901 90.7118 142.793C88.8148 144.685 87.3099 146.931 86.2831 149.404C86.1813 149.649 86.0872 149.893 86.0001 150.138L86.0001 138ZM105.5 138L105.5 138C109.696 138 113.498 138.651 117.358 140.246C121.227 141.844 124.742 144.187 127.702 147.14C130.663 150.093 133.012 153.598 134.614 157.456C136.152 161.159 136.936 165.003 136.996 169L97.5 169C95.909 169 94.5413 168.81 93.1073 168.217C91.6568 167.618 90.3388 166.74 89.2287 165.632C88.1186 164.525 87.2381 163.211 86.6374 161.764C86.0751 160.41 86.0044 158.76 86.0001 157.171L86.0001 156.863C86.0086 154.339 86.2581 152.071 87.2066 149.787C88.1829 147.436 89.6139 145.3 91.418 143.501C93.2221 141.701 95.3638 140.274 97.7211 139.3C100.054 138.336 102.916 138 105.5 138ZM88.5225 166.341C87.4852 165.306 86.6327 164.104 86.0001 162.788L86.0001 169L92.3959 169C90.9539 168.357 89.6409 167.456 88.5225 166.341ZM86.0001 170L86 220.991C99.4 220.747 112.39 215.616 121.865 206.166C131.462 196.594 136.867 183.53 136.997 170L97.5 170L86.0001 170Z" fill="#537AFF"></path> </svg> 