<?xml version="1.0" encoding="UTF-8"?> <svg xmlns="http://www.w3.org/2000/svg" width="125" height="144" viewBox="0 0 125 144" fill="none"> <path fill-rule="evenodd" clip-rule="evenodd" d="M62.3538 1.1547L1 36.5774V107.423L62.3538 142.845L123.708 107.423V36.5774L62.3538 1.1547ZM124.708 36L62.3538 0L0 36V108L62.3538 144L124.708 108V36Z" fill="#537AFF"></path> <path fill-rule="evenodd" clip-rule="evenodd" d="M62.9473 54.9885C62.3952 54.5072 61.5763 54.495 61.0101 54.9595L42.8179 69.8865L42.1836 69.1134L60.3758 54.1865C61.3195 53.4122 62.6843 53.4326 63.6044 54.2347L79.8176 68.3693C80.8627 69.2803 80.2183 70.9999 78.8319 70.9999H74.5008C74.2246 70.9999 74.0008 71.2238 74.0008 71.4999V85.4999C74.0008 86.8807 72.8815 87.9999 71.5008 87.9999H52.5008C51.12 87.9999 50.0008 86.8807 50.0008 85.4999V71.4999C50.0008 71.2238 49.7769 70.9999 49.5008 70.9999H46.0008V69.9999H49.5008C50.3292 69.9999 51.0008 70.6715 51.0008 71.4999V85.4999C51.0008 86.3284 51.6723 86.9999 52.5008 86.9999H71.5008C72.3292 86.9999 73.0008 86.3284 73.0008 85.4999V71.4999C73.0008 70.6715 73.6723 69.9999 74.5008 69.9999H78.8319C79.2941 69.9999 79.5088 69.4267 79.1605 69.1231L62.9473 54.9885Z" fill="black"></path> <path fill-rule="evenodd" clip-rule="evenodd" d="M59.5 77C59.2239 77 59 77.2239 59 77.5V87.5H58V77.5C58 76.6716 58.6716 76 59.5 76H65.5C66.3284 76 67 76.6716 67 77.5V84.5H66V77.5C66 77.2239 65.7761 77 65.5 77H59.5Z" fill="black"></path> </svg> 