<?xml version="1.0" encoding="UTF-8"?> <svg xmlns="http://www.w3.org/2000/svg" width="144" height="144" viewBox="0 0 144 144" fill="none"> <path fill-rule="evenodd" clip-rule="evenodd" d="M72 1.40846L36.5627 36.5569L36.5569 36.5627L1.40846 72L36.5569 107.437L36.5627 107.443L72 142.592L107.437 107.443L107.443 107.437L142.592 72L107.443 36.5627L107.437 36.5569L72 1.40846ZM108.147 35.8527L72 0L35.8527 35.8527L0 72L35.8527 108.147L72 144L108.147 108.147L144 72L108.147 35.8527Z" fill="#537AFF"></path> <path fill-rule="evenodd" clip-rule="evenodd" d="M48 73H1V72H48V73ZM95 72H143V73H95V72Z" fill="#537AFF"></path> <path fill-rule="evenodd" clip-rule="evenodd" d="M65 56.5C65 56.2239 65.2239 56 65.5 56H75.5C80.1944 56 84 59.8056 84 64.5C84 69.1944 80.1944 73 75.5 73H66V77H78.5C78.7761 77 79 77.2239 79 77.5C79 77.7761 78.7761 78 78.5 78H66V85.5C66 85.7761 65.7761 86 65.5 86C65.2239 86 65 85.7761 65 85.5V78H60C59.7239 78 59.5 77.7761 59.5 77.5C59.5 77.2239 59.7239 77 60 77H65V73H60C59.7239 73 59.5 72.7761 59.5 72.5C59.5 72.2239 59.7239 72 60 72H65V64C65 63.7239 65.2239 63.5 65.5 63.5C65.7761 63.5 66 63.7239 66 64V72H75.5C79.6421 72 83 68.6421 83 64.5C83 60.3579 79.6421 57 75.5 57H65.5C65.2239 57 65 56.7761 65 56.5Z" fill="black"></path> </svg> 