<?xml version="1.0" encoding="UTF-8"?> <svg xmlns="http://www.w3.org/2000/svg" width="144" height="144" viewBox="0 0 144 144" fill="none"> <path fill-rule="evenodd" clip-rule="evenodd" d="M72 143C111.212 143 143 111.212 143 72C143 32.7878 111.212 1 72 1C32.7878 1 1 32.7878 1 72C1 111.212 32.7878 143 72 143ZM72 144C111.765 144 144 111.765 144 72C144 32.2355 111.765 0 72 0C32.2355 0 0 32.2355 0 72C0 111.765 32.2355 144 72 144Z" fill="#537AFF"></path> <path fill-rule="evenodd" clip-rule="evenodd" d="M63.6275 43.876L71.4843 49.897C72.1016 50.3701 72.4636 51.1036 72.4636 51.8813V57.9996H79.5C80.8807 57.9996 82 59.1188 82 60.4996V78.4996C82 79.8803 80.8807 80.9996 79.5 80.9996H68V72.4996C68 70.0143 65.9853 67.9996 63.5 67.9996C61.0147 67.9996 59 70.0143 59 72.4996V76.9996H58V72.4996C58 69.462 60.4624 66.9996 63.5 66.9996C66.5376 66.9996 69 69.462 69 72.4996V79.9996H79.5C80.3284 79.9996 81 79.328 81 78.4996V60.4996C81 59.6711 80.3284 58.9996 79.5 58.9996H71.4636V51.8813C71.4636 51.4147 71.2464 50.9746 70.876 50.6908L63.6109 45.1231L55.9176 50.7002C55.5284 50.9824 55.298 51.434 55.298 51.9147V57.9996H61V58.9996H47.5C46.6716 58.9996 46 59.6711 46 60.4996V78.4996C46 79.328 46.6716 79.9996 47.5 79.9996H58.851V80.9996H47.5C46.1193 80.9996 45 79.8803 45 78.4996V60.4996C45 59.1188 46.1193 57.9996 47.5 57.9996H54.298V51.9147C54.298 51.1135 54.682 50.3608 55.3307 49.8906L63.6275 43.876Z" fill="black"></path> <path d="M100 81.5C100 89.5081 93.5081 96 85.5 96C77.4919 96 71 89.5081 71 81.5C71 73.4919 77.4919 67 85.5 67C93.5081 67 100 73.4919 100 81.5Z" fill="white"></path> <path fill-rule="evenodd" clip-rule="evenodd" d="M85.5 95C92.9558 95 99 88.9558 99 81.5C99 74.0442 92.9558 68 85.5 68C78.0442 68 72 74.0442 72 81.5C72 88.9558 78.0442 95 85.5 95ZM85.5 96C93.5081 96 100 89.5081 100 81.5C100 73.4919 93.5081 67 85.5 67C77.4919 67 71 73.4919 71 81.5C71 89.5081 77.4919 96 85.5 96Z" fill="black"></path> <path fill-rule="evenodd" clip-rule="evenodd" d="M81.2766 73.5C81.2766 73.2239 81.5005 73 81.7766 73H87.8104C90.6765 73 93 75.3235 93 78.1897C93 81.0558 90.6765 83.3793 87.8103 83.3793H82.2766V85.3103H89.5213C89.7974 85.3103 90.0213 85.5342 90.0213 85.8103C90.0213 86.0865 89.7974 86.3103 89.5213 86.3103H82.2766V90.5C82.2766 90.7761 82.0527 91 81.7766 91C81.5005 91 81.2766 90.7761 81.2766 90.5V86.3103H78.5C78.2239 86.3103 78 86.0865 78 85.8103C78 85.5342 78.2239 85.3103 78.5 85.3103H81.2766V83.3793H78.5C78.2239 83.3793 78 83.1555 78 82.8793C78 82.6032 78.2239 82.3793 78.5 82.3793H81.2766V77.8966C81.2766 77.6204 81.5005 77.3966 81.7766 77.3966C82.0527 77.3966 82.2766 77.6204 82.2766 77.8966V82.3793H87.8103C90.1242 82.3793 92 80.5035 92 78.1897C92 75.8758 90.1242 74 87.8104 74H81.7766C81.5005 74 81.2766 73.7761 81.2766 73.5Z" fill="black"></path> </svg> 