<?xml version="1.0" encoding="UTF-8"?> <svg xmlns="http://www.w3.org/2000/svg" width="1510" height="1535" viewBox="0 0 1510 1535" fill="none"> <path d="M952 1534.5C699.881 1534.5 457.688 1435.02 279.413 1257.21C101.138 1079.4 0.500229 838.463 0.500244 587" stroke="#3D67F6"></path> <path d="M588 0.500026C432.177 0.500026 283.252 62.5144 173.068 172.411C62.884 282.308 0.500002 431.582 0.5 587" stroke="#3D67F6"></path> <path d="M951.599 362.91C951.599 266.866 913.346 174.755 845.255 106.841C777.164 38.9274 684.295 0.500004 588 0.5" stroke="#3D67F6"></path> <path d="M727 586.5C786.528 586.5 843.766 563.192 885.859 521.209C927.951 479.226 951.599 422.284 951.599 362.911" stroke="#3D67F6"></path> <path d="M588.518 362.91L951.6 362.91" stroke="#3D67F6"></path> <path d="M588.5 586.75L588.5 0" stroke="#3D67F6"></path> <path d="M1510 619.5L0 619.5" stroke="#3D67F6"></path> <path d="M952 1534.5L0.5 1534.5" stroke="#3D67F6"></path> <path d="M951.5 0.5L0 0.5" stroke="#3D67F6"></path> <path d="M0.500244 1535L0.499823 0.5" stroke="#3D67F6"></path> <path d="M951.5 1535L951.5 0" stroke="#3D67F6"></path> </svg> 