<?xml version="1.0" encoding="UTF-8"?> <svg xmlns="http://www.w3.org/2000/svg" width="364" height="658" viewBox="0 0 364 658" fill="none"> <path d="M134.901 65.0028V60.7481H135.246L139.189 65.0028H141.074L136.514 60.0512L140.729 55.4248H138.97L135.239 59.5866H134.901V55.4248H133.414V65.0028H134.901Z" fill="white"></path> <path d="M142.259 67.5384C143.719 67.5384 144.449 67.0007 145.06 65.2816L147.741 57.7944H146.228L144.429 63.5558H144.303L142.497 57.7944H140.944L143.559 65.0095L143.453 65.3812C143.241 66.1113 142.836 66.3967 142.166 66.3967C142 66.3967 141.82 66.3901 141.681 66.3702V67.5052C141.867 67.5251 142.079 67.5384 142.259 67.5384Z" fill="white"></path> <path d="M148.946 67.4056H150.386V63.8612H150.492C150.877 64.6378 151.72 65.1223 152.709 65.1223C154.541 65.1223 155.696 63.6886 155.696 61.4053V61.392C155.696 59.1219 154.528 57.6683 152.709 57.6683C151.7 57.6683 150.911 58.1396 150.492 58.9294H150.386V57.7944H148.946V67.4056ZM152.304 63.8943C151.103 63.8943 150.36 62.9452 150.36 61.4053V61.392C150.36 59.8521 151.103 58.9029 152.304 58.9029C153.506 58.9029 154.229 59.8388 154.229 61.392V61.4053C154.229 62.9518 153.506 63.8943 152.304 63.8943Z" fill="white"></path> <path d="M159.151 65.1223C160.107 65.1223 160.863 64.7108 161.288 63.9806H161.401V65.0028H162.828V60.0711C162.828 58.5577 161.806 57.655 159.994 57.655C158.354 57.655 157.219 58.4449 157.047 59.6264L157.04 59.6729H158.427L158.434 59.6463C158.607 59.1352 159.131 58.8432 159.928 58.8432C160.903 58.8432 161.401 59.2812 161.401 60.0711V60.7083L159.45 60.8212C157.731 60.9274 156.761 61.6774 156.761 62.9651V62.9784C156.761 64.286 157.777 65.1223 159.151 65.1223ZM158.195 62.9186V62.9053C158.195 62.2549 158.647 61.8964 159.642 61.8367L161.401 61.7239V62.3412C161.401 63.2704 160.611 63.974 159.536 63.974C158.759 63.974 158.195 63.5824 158.195 62.9186Z" fill="white"></path> <path d="M169.987 57.7944H164.006V58.9294H166.276V65.0028H167.717V58.9294H169.987V57.7944Z" fill="white"></path> <path d="M174.026 65.1422C176.136 65.1422 177.431 63.7284 177.431 61.4053V61.392C177.431 59.0688 176.13 57.655 174.026 57.655C171.915 57.655 170.614 59.0755 170.614 61.392V61.4053C170.614 63.7284 171.908 65.1422 174.026 65.1422ZM174.026 63.9408C172.784 63.9408 172.087 63.0049 172.087 61.4053V61.392C172.087 59.7923 172.784 58.8564 174.026 58.8564C175.26 58.8564 175.964 59.7923 175.964 61.392V61.4053C175.964 62.9983 175.26 63.9408 174.026 63.9408Z" fill="white"></path> <path d="M178.894 67.4056H180.334V63.8612H180.441C180.826 64.6378 181.669 65.1223 182.658 65.1223C184.49 65.1223 185.645 63.6886 185.645 61.4053V61.392C185.645 59.1219 184.476 57.6683 182.658 57.6683C181.649 57.6683 180.859 58.1396 180.441 58.9294H180.334V57.7944H178.894V67.4056ZM182.253 63.8943C181.051 63.8943 180.308 62.9452 180.308 61.4053V61.392C180.308 59.8521 181.051 58.9029 182.253 58.9029C183.454 58.9029 184.178 59.8388 184.178 61.392V61.4053C184.178 62.9518 183.454 63.8943 182.253 63.8943Z" fill="white"></path> <path d="M190.616 65.0028H192.05L196.928 57.9073H197.041V65.0028H198.515V55.4248H197.081L192.209 62.5469H192.089V55.4248H190.616V65.0028Z" fill="white"></path> <path d="M200.496 67.4056H201.936V63.8612H202.042C202.427 64.6378 203.27 65.1223 204.259 65.1223C206.091 65.1223 207.246 63.6886 207.246 61.4053V61.392C207.246 59.1219 206.078 57.6683 204.259 57.6683C203.25 57.6683 202.461 58.1396 202.042 58.9294H201.936V57.7944H200.496V67.4056ZM203.854 63.8943C202.653 63.8943 201.91 62.9452 201.91 61.4053V61.392C201.91 59.8521 202.653 58.9029 203.854 58.9029C205.056 58.9029 205.779 59.8388 205.779 61.392V61.4053C205.779 62.9518 205.056 63.8943 203.854 63.8943Z" fill="white"></path> <path d="M208.716 65.0028H210.143L213.403 59.9251H213.529V65.0028H214.956V57.7944H213.529L210.27 62.8522H210.143V57.7944H208.716V65.0028Z" fill="white"></path> <path d="M221.484 65.0028H222.917V57.7944H221.484V60.7017H218.211V57.7944H216.771V65.0028H218.211V61.8433H221.484V65.0028Z" fill="white"></path> <path d="M226.704 65.1223C227.66 65.1223 228.417 64.7108 228.841 63.9806H228.954V65.0028H230.381V60.0711C230.381 58.5577 229.359 57.655 227.547 57.655C225.908 57.655 224.772 58.4449 224.6 59.6264L224.593 59.6729H225.981L225.987 59.6463C226.16 59.1352 226.684 58.8432 227.481 58.8432C228.456 58.8432 228.954 59.2812 228.954 60.0711V60.7083L227.003 60.8212C225.284 60.9274 224.314 61.6774 224.314 62.9651V62.9784C224.314 64.286 225.33 65.1223 226.704 65.1223ZM225.748 62.9186V62.9053C225.748 62.2549 226.2 61.8964 227.195 61.8367L228.954 61.7239V62.3412C228.954 63.2704 228.164 63.974 227.089 63.974C226.312 63.974 225.748 63.5824 225.748 62.9186Z" fill="white"></path> <path d="M306.458 379.999H307.54V373.03H306.458L304.623 374.334V375.396L306.376 374.146H306.458V379.999Z" fill="white"></path> <path d="M311.517 380.13C313.068 380.13 314.159 379.299 314.159 378.116V378.106C314.159 377.227 313.526 376.527 312.614 376.329V376.304C313.396 376.082 313.903 375.498 313.903 374.759V374.749C313.903 373.682 312.908 372.899 311.517 372.899C310.131 372.899 309.131 373.682 309.131 374.749V374.759C309.131 375.498 309.643 376.082 310.426 376.304V376.329C309.513 376.527 308.88 377.227 308.88 378.106V378.116C308.88 379.299 309.972 380.13 311.517 380.13ZM311.517 375.942C310.74 375.942 310.204 375.488 310.204 374.851V374.841C310.204 374.203 310.74 373.759 311.517 373.759C312.295 373.759 312.831 374.203 312.831 374.841V374.851C312.831 375.488 312.3 375.942 311.517 375.942ZM311.517 379.26C310.629 379.26 309.996 378.753 309.996 378.048V378.038C309.996 377.323 310.624 376.807 311.517 376.807C312.416 376.807 313.043 377.323 313.043 378.038V378.048C313.043 378.753 312.411 379.26 311.517 379.26Z" fill="white"></path> <path d="M315.842 375.392C316.243 375.392 316.547 375.078 316.547 374.686C316.547 374.29 316.243 373.981 315.842 373.981C315.441 373.981 315.132 374.29 315.132 374.686C315.132 375.078 315.441 375.392 315.842 375.392ZM315.842 379.043C316.243 379.043 316.547 378.729 316.547 378.338C316.547 377.942 316.243 377.633 315.842 377.633C315.441 377.633 315.132 377.942 315.132 378.338C315.132 378.729 315.441 379.043 315.842 379.043Z" fill="white"></path> <path d="M317.694 379.999H322.389V379.077H319.167V378.98L320.645 377.507C321.911 376.251 322.278 375.643 322.278 374.851V374.836C322.278 373.687 321.321 372.861 320.022 372.861C318.622 372.861 317.636 373.759 317.631 375.034L317.641 375.044H318.655L318.66 375.029C318.66 374.266 319.182 373.754 319.964 373.754C320.727 373.754 321.196 374.257 321.196 374.938V374.952C321.196 375.517 320.93 375.875 320.008 376.836L317.694 379.265V379.999Z" fill="white"></path> <path d="M325.883 380.168C327.346 380.168 328.404 379.144 328.404 377.744V377.734C328.404 376.401 327.453 375.416 326.124 375.416C325.173 375.416 324.545 375.913 324.289 376.473H324.197C324.197 376.42 324.197 376.367 324.202 376.314C324.255 374.923 324.743 373.778 325.917 373.778C326.574 373.778 327.027 374.117 327.221 374.648L327.24 374.696H328.312L328.303 374.638C328.071 373.585 327.153 372.861 325.921 372.861C324.197 372.861 323.169 374.252 323.169 376.609V376.618C323.169 379.183 324.482 380.168 325.883 380.168ZM324.41 377.744V377.739C324.41 376.898 325.047 376.29 325.883 376.29C326.728 376.29 327.337 376.908 327.337 377.763V377.773C327.337 378.608 326.689 379.26 325.873 379.26C325.052 379.26 324.41 378.594 324.41 377.744Z" fill="white"></path> <path fill-rule="evenodd" clip-rule="evenodd" d="M69.0675 137.999C61.2982 137.999 55 144.297 55 152.067V243.932C55 251.701 61.2982 257.999 69.0675 257.999H319.932C322.881 257.999 325.617 257.092 327.878 255.542C330.092 256.778 333.443 258.012 337.54 258.012C337.336 257.78 337.141 257.562 336.956 257.354C334.239 254.301 333.617 253.601 333.585 247.336C333.856 246.246 334 245.106 334 243.932V152.067C334 144.297 327.702 137.999 319.932 137.999H69.0675Z" fill="#FFDA6B"></path> <path d="M66.2886 158.787C68.0684 158.787 68.8081 157.688 69.665 155.689L72.9023 148.145H71.5327L68.7642 154.993H68.647L65.8125 148.145H64.4062L68.0171 156.458C67.5996 157.234 67.0796 157.571 66.2886 157.571C65.9736 157.571 65.7905 157.535 65.7026 157.513V158.692C65.7905 158.736 65.9956 158.787 66.2886 158.787Z" fill="black" fill-opacity="0.9"></path> <path d="M78.8266 158.714V153.096H78.9657L81.4486 158.494H82.4301L84.9203 153.096H85.0595V158.714H86.3339V150.818H84.8544L82.0272 156.941H81.9101L79.0976 150.818H77.5521V158.714H78.8266Z" fill="black" fill-opacity="0.9"></path> <path d="M91.3761 158.853C93.2364 158.853 94.3644 157.798 94.6354 156.729L94.65 156.67H93.3756L93.3463 156.736C93.1339 157.212 92.4747 157.718 91.4054 157.718C89.9991 157.718 89.0982 156.766 89.0616 155.132H94.7452V154.634C94.7452 152.276 93.4415 150.679 91.2955 150.679C89.1495 150.679 87.7579 152.349 87.7579 154.788V154.795C87.7579 157.271 89.1202 158.853 91.3761 158.853ZM91.2882 151.814C92.4527 151.814 93.317 152.554 93.4488 154.114H89.0836C89.2228 152.613 90.1163 151.814 91.2882 151.814Z" fill="black" fill-opacity="0.9"></path> <path d="M101.347 158.714H102.622V150.818H101.347V154.085H97.4363V150.818H96.1619V158.714H97.4363V155.14H101.347V158.714Z" fill="black" fill-opacity="0.9"></path> <path d="M108.616 158.714H109.891V150.818H107.144C105.335 150.818 104.178 151.807 104.178 153.426V153.44C104.178 154.517 104.852 155.337 105.965 155.652L103.76 158.714H105.262L107.276 155.887H108.616V158.714ZM107.144 154.832C106.111 154.832 105.481 154.239 105.481 153.411V153.396C105.481 152.444 106.104 151.873 107.144 151.873H108.616V154.832H107.144Z" fill="black" fill-opacity="0.9"></path> <path d="M118.466 158.853C120.715 158.853 122.106 157.3 122.106 154.773V154.759C122.106 152.225 120.715 150.679 118.466 150.679C116.218 150.679 114.826 152.225 114.826 154.759V154.773C114.826 157.3 116.218 158.853 118.466 158.853ZM118.466 157.725C116.972 157.725 116.13 156.634 116.13 154.773V154.759C116.13 152.891 116.972 151.807 118.466 151.807C119.96 151.807 120.803 152.891 120.803 154.759V154.773C120.803 156.634 119.96 157.725 118.466 157.725Z" fill="black" fill-opacity="0.9"></path> <path d="M128.731 150.818H122.344V151.873H124.9V158.714H126.174V151.873H128.731V150.818Z" fill="black" fill-opacity="0.9"></path> <path d="M131.283 155.623L131.575 151.873H134.322V158.714H135.596V150.818H130.433L130.096 155.521C130.015 156.692 129.722 157.608 128.997 157.608C128.807 157.608 128.609 157.579 128.543 157.557V158.707C128.646 158.743 128.851 158.787 129.122 158.787C130.44 158.787 131.114 157.798 131.283 155.623Z" fill="black" fill-opacity="0.9"></path> <path d="M137.401 158.714H138.676L142.58 152.825H142.697V158.714H143.971V150.818H142.697L138.793 156.707H138.676V150.818H137.401V158.714Z" fill="black" fill-opacity="0.9"></path> <path d="M151.804 158.714V150.818H150.529V154.151C150.2 154.517 149.519 154.773 148.53 154.773C147.453 154.773 146.911 154.114 146.911 153.074V150.818H145.637V153.074C145.637 154.759 146.626 155.901 148.53 155.901C149.38 155.901 149.988 155.726 150.412 155.425H150.529V158.714H151.804Z" fill="black" fill-opacity="0.9"></path> <path d="M158.794 158.714H160.069V150.818H158.794V154.085H154.883V150.818H153.609V158.714H154.883V155.14H158.794V158.714Z" fill="black" fill-opacity="0.9"></path> <path d="M164.049 158.853C165.111 158.853 165.939 158.392 166.437 157.549H166.554V158.714H167.828V153.309C167.828 151.668 166.752 150.679 164.825 150.679C163.141 150.679 161.94 151.514 161.734 152.752L161.727 152.796H163.002L163.009 152.774C163.214 152.159 163.837 151.807 164.781 151.807C165.961 151.807 166.554 152.334 166.554 153.309V154.026L164.291 154.166C162.452 154.275 161.412 155.088 161.412 156.495V156.509C161.412 157.945 162.547 158.853 164.049 158.853ZM162.716 156.48V156.465C162.716 155.682 163.243 155.257 164.444 155.184L166.554 155.052V155.77C166.554 156.897 165.609 157.747 164.313 157.747C163.397 157.747 162.716 157.278 162.716 156.48Z" fill="black" fill-opacity="0.9"></path> <path d="M173.786 158.714H175.06V150.818H172.314C170.505 150.818 169.347 151.807 169.347 153.426V153.44C169.347 154.517 170.021 155.337 171.135 155.652L168.93 158.714H170.431L172.446 155.887H173.786V158.714ZM172.314 154.832C171.281 154.832 170.651 154.239 170.651 153.411V153.396C170.651 152.444 171.274 151.873 172.314 151.873H173.786V154.832H172.314Z" fill="black" fill-opacity="0.9"></path> <path d="M185.57 158.714H186.844V150.818H185.57V154.085H181.658V150.818H180.384V158.714H181.658V155.14H185.57V158.714Z" fill="black" fill-opacity="0.9"></path> <path d="M191.901 158.853C194.149 158.853 195.541 157.3 195.541 154.773V154.759C195.541 152.225 194.149 150.679 191.901 150.679C189.652 150.679 188.261 152.225 188.261 154.759V154.773C188.261 157.3 189.652 158.853 191.901 158.853ZM191.901 157.725C190.407 157.725 189.564 156.634 189.564 154.773V154.759C189.564 152.891 190.407 151.807 191.901 151.807C193.395 151.807 194.237 152.891 194.237 154.759V154.773C194.237 156.634 193.395 157.725 191.901 157.725Z" fill="black" fill-opacity="0.9"></path> <path d="M196.958 158.714H200.319C202.019 158.714 203.022 157.82 203.022 156.451V156.436C203.022 155.521 202.385 154.817 201.381 154.678V154.561C202.121 154.407 202.671 153.667 202.671 152.884V152.869C202.671 151.631 201.799 150.818 200.305 150.818H196.958V158.714ZM198.232 154.158V151.873H200.122C201.008 151.873 201.403 152.327 201.403 153.001V153.016C201.403 153.763 200.942 154.158 199.917 154.158H198.232ZM198.232 157.659V155.213H200.026C201.162 155.213 201.726 155.579 201.726 156.414V156.429C201.726 157.22 201.235 157.659 200.268 157.659H198.232Z" fill="black" fill-opacity="0.9"></path> <path d="M207.654 158.853C209.903 158.853 211.294 157.3 211.294 154.773V154.759C211.294 152.225 209.903 150.679 207.654 150.679C205.406 150.679 204.014 152.225 204.014 154.759V154.773C204.014 157.3 205.406 158.853 207.654 158.853ZM207.654 157.725C206.16 157.725 205.318 156.634 205.318 154.773V154.759C205.318 152.891 206.16 151.807 207.654 151.807C209.148 151.807 209.991 152.891 209.991 154.759V154.773C209.991 156.634 209.148 157.725 207.654 157.725Z" fill="black" fill-opacity="0.9"></path> <path d="M215.948 158.853C217.845 158.853 218.907 157.835 219.229 156.407L219.244 156.326L217.984 156.333L217.97 156.377C217.677 157.256 217.003 157.725 215.941 157.725C214.535 157.725 213.626 156.561 213.626 154.744V154.729C213.626 152.95 214.52 151.807 215.941 151.807C217.076 151.807 217.779 152.437 217.977 153.213L217.984 153.235H219.251L219.244 153.191C219.01 151.785 217.86 150.679 215.941 150.679C213.729 150.679 212.323 152.276 212.323 154.729V154.744C212.323 157.249 213.736 158.853 215.948 158.853Z" fill="black" fill-opacity="0.9"></path> <path d="M225.905 150.818H219.518V151.873H222.074V158.714H223.349V151.873H225.905V150.818Z" fill="black" fill-opacity="0.9"></path> <path d="M227.043 158.714H229.863C231.672 158.714 232.829 157.674 232.829 156.041V156.026C232.829 154.393 231.672 153.353 229.863 153.353H228.318V150.818H227.043V158.714ZM229.863 154.407C230.896 154.407 231.555 155.044 231.555 156.026V156.041C231.555 157.015 230.903 157.659 229.863 157.659H228.318V154.407H229.863Z" fill="black" fill-opacity="0.9"></path> <path d="M235.066 158.787C235.594 158.787 236.019 158.355 236.019 157.835C236.019 157.308 235.594 156.883 235.066 156.883C234.546 156.883 234.114 157.308 234.114 157.835C234.114 158.355 234.546 158.787 235.066 158.787Z" fill="black" fill-opacity="0.9"></path> <path d="M241.533 158.714H242.851V153.902H248.652V158.714H249.97V148.145H248.652V152.715H242.851V148.145H241.533V158.714Z" fill="black" fill-opacity="0.9"></path> <path d="M255.174 158.853C257.034 158.853 258.162 157.798 258.433 156.729L258.447 156.67H257.173L257.144 156.736C256.931 157.212 256.272 157.718 255.203 157.718C253.797 157.718 252.896 156.766 252.859 155.132H258.543V154.634C258.543 152.276 257.239 150.679 255.093 150.679C252.947 150.679 251.555 152.349 251.555 154.788V154.795C251.555 157.271 252.918 158.853 255.174 158.853ZM255.086 151.814C256.25 151.814 257.114 152.554 257.246 154.114H252.881C253.02 152.613 253.914 151.814 255.086 151.814Z" fill="black" fill-opacity="0.9"></path> <path d="M263.197 158.853C265.094 158.853 266.156 157.835 266.478 156.407L266.493 156.326L265.233 156.333L265.218 156.377C264.925 157.256 264.251 157.725 263.189 157.725C261.783 157.725 260.875 156.561 260.875 154.744V154.729C260.875 152.95 261.768 151.807 263.189 151.807C264.325 151.807 265.028 152.437 265.225 153.213L265.233 153.235H266.5L266.493 153.191C266.258 151.785 265.108 150.679 263.189 150.679C260.977 150.679 259.571 152.276 259.571 154.729V154.744C259.571 157.249 260.985 158.853 263.197 158.853Z" fill="black" fill-opacity="0.9"></path> <path d="M269.477 155.118L272.567 158.714H274.201L270.509 154.539L274.062 150.818H272.531L269.477 154.122H269.074V150.818H267.799V158.714H269.074V155.118H269.477Z" fill="black" fill-opacity="0.9"></path> <path d="M278.144 158.853C280.393 158.853 281.784 157.3 281.784 154.773V154.759C281.784 152.225 280.393 150.679 278.144 150.679C275.896 150.679 274.504 152.225 274.504 154.759V154.773C274.504 157.3 275.896 158.853 278.144 158.853ZM278.144 157.725C276.65 157.725 275.808 156.634 275.808 154.773V154.759C275.808 152.891 276.65 151.807 278.144 151.807C279.638 151.807 280.481 152.891 280.481 154.759V154.773C280.481 156.634 279.638 157.725 278.144 157.725Z" fill="black" fill-opacity="0.9"></path> <path d="M284.981 155.623L285.274 151.873H288.021V158.714H289.295V150.818H284.131L283.794 155.521C283.714 156.692 283.421 157.608 282.696 157.608C282.505 157.608 282.308 157.579 282.242 157.557V158.707C282.344 158.743 282.549 158.787 282.82 158.787C284.139 158.787 284.812 157.798 284.981 155.623Z" fill="black" fill-opacity="0.9"></path> <path d="M291.1 158.714H293.92C295.729 158.714 296.886 157.674 296.886 156.041V156.026C296.886 154.393 295.729 153.353 293.92 153.353H292.374V150.818H291.1V158.714ZM293.92 154.407C294.952 154.407 295.612 155.044 295.612 156.026V156.041C295.612 157.015 294.96 157.659 293.92 157.659H292.374V154.407H293.92Z" fill="black" fill-opacity="0.9"></path> <path d="M299.826 155.118L302.917 158.714H304.55L300.859 154.539L304.411 150.818H302.88L299.826 154.122H299.423V150.818H298.149V158.714H299.423V155.118H299.826Z" fill="black" fill-opacity="0.9"></path> <path d="M308.494 158.853C310.742 158.853 312.134 157.3 312.134 154.773V154.759C312.134 152.225 310.742 150.679 308.494 150.679C306.245 150.679 304.854 152.225 304.854 154.759V154.773C304.854 157.3 306.245 158.853 308.494 158.853ZM308.494 157.725C307 157.725 306.157 156.634 306.157 154.773V154.759C306.157 152.891 307 151.807 308.494 151.807C309.988 151.807 310.83 152.891 310.83 154.759V154.773C310.83 156.634 309.988 157.725 308.494 157.725Z" fill="black" fill-opacity="0.9"></path> <path d="M65.0801 177.714H68.4419C70.1411 177.714 71.1445 176.82 71.1445 175.451V175.436C71.1445 174.521 70.5073 173.817 69.5039 173.678V173.561C70.2437 173.407 70.793 172.667 70.793 171.884V171.869C70.793 170.631 69.9214 169.818 68.4272 169.818H65.0801V177.714ZM66.3545 173.158V170.873H68.2441C69.1304 170.873 69.5259 171.327 69.5259 172.001V172.016C69.5259 172.763 69.0645 173.158 68.0391 173.158H66.3545ZM66.3545 176.659V174.213H68.1489C69.2842 174.213 69.8481 174.579 69.8481 175.414V175.429C69.8481 176.22 69.3574 176.659 68.3906 176.659H66.3545Z" fill="black" fill-opacity="0.9"></path> <path d="M74.7731 177.853C75.8352 177.853 76.6628 177.392 77.1608 176.549H77.278V177.714H78.5524V172.309C78.5524 170.668 77.4758 169.679 75.5495 169.679C73.8649 169.679 72.6638 170.514 72.4587 171.752L72.4514 171.796H73.7258L73.7331 171.774C73.9382 171.159 74.5607 170.807 75.5056 170.807C76.6848 170.807 77.278 171.334 77.278 172.309V173.026L75.0148 173.166C73.1765 173.275 72.1364 174.088 72.1364 175.495V175.509C72.1364 176.945 73.2717 177.853 74.7731 177.853ZM73.4401 175.48V175.465C73.4401 174.682 73.9675 174.257 75.1687 174.184L77.278 174.052V174.77C77.278 175.897 76.3332 176.747 75.0368 176.747C74.1213 176.747 73.4401 176.278 73.4401 175.48Z" fill="black" fill-opacity="0.9"></path> <path d="M80.3207 177.714H90.0766V169.818H88.8021V176.659H85.8358V169.818H84.5614V176.659H81.5951V169.818H80.3207V177.714Z" fill="black" fill-opacity="0.9"></path> <path d="M91.8814 177.714H93.1559L97.0597 171.825H97.1769V177.714H98.4513V169.818H97.1769L93.273 175.707H93.1559V169.818H91.8814V177.714Z" fill="black" fill-opacity="0.9"></path> <path d="M99.6409 177.714H101.069L102.944 174.733H103.061L104.929 177.714H106.423L103.706 173.715L106.387 169.818H104.958L103.105 172.755H102.988L101.113 169.818H99.6116L102.344 173.766L99.6409 177.714Z" fill="black" fill-opacity="0.9"></path> <path d="M111.102 180.351H112.377V176.469H112.494C112.926 177.311 113.871 177.853 114.955 177.853C116.962 177.853 118.265 176.249 118.265 173.773V173.759C118.265 171.298 116.954 169.679 114.955 169.679C113.856 169.679 112.977 170.199 112.494 171.078H112.377V169.818H111.102V180.351ZM114.662 176.725C113.226 176.725 112.347 175.597 112.347 173.773V173.759C112.347 171.935 113.226 170.807 114.662 170.807C116.105 170.807 116.962 171.92 116.962 173.759V173.773C116.962 175.612 116.105 176.725 114.662 176.725Z" fill="black" fill-opacity="0.9"></path> <path d="M121.872 177.853C122.934 177.853 123.762 177.392 124.26 176.549H124.377V177.714H125.651V172.309C125.651 170.668 124.575 169.679 122.648 169.679C120.964 169.679 119.763 170.514 119.558 171.752L119.55 171.796H120.825L120.832 171.774C121.037 171.159 121.66 170.807 122.604 170.807C123.784 170.807 124.377 171.334 124.377 172.309V173.026L122.114 173.166C120.275 173.275 119.235 174.088 119.235 175.495V175.509C119.235 176.945 120.371 177.853 121.872 177.853ZM120.539 175.48V175.465C120.539 174.682 121.066 174.257 122.267 174.184L124.377 174.052V174.77C124.377 175.897 123.432 176.747 122.136 176.747C121.22 176.747 120.539 176.278 120.539 175.48Z" fill="black" fill-opacity="0.9"></path> <path d="M130.708 177.86C132.986 177.86 134.385 176.308 134.385 173.803V173.788C134.385 171.408 133.023 169.892 130.899 169.892C129.705 169.892 128.76 170.404 128.225 171.349H128.108L128.13 171.188C128.423 169.035 129.221 168.178 131.06 168.097L131.865 168.061C132.781 168.017 133.616 167.826 133.865 167.592V166.464C133.184 166.742 132.437 166.859 131.807 166.889L131.016 166.925C128.196 167.057 127.031 168.844 127.031 173.034V173.048C127.031 176.212 128.291 177.86 130.708 177.86ZM130.708 176.732C129.199 176.732 128.335 175.656 128.335 173.803V173.788C128.335 172.023 129.199 171.02 130.708 171.02C132.217 171.02 133.081 172.023 133.081 173.788V173.803C133.081 175.656 132.217 176.732 130.708 176.732Z" fill="black" fill-opacity="0.9"></path> <path d="M139.054 177.853C141.302 177.853 142.694 176.3 142.694 173.773V173.759C142.694 171.225 141.302 169.679 139.054 169.679C136.805 169.679 135.413 171.225 135.413 173.759V173.773C135.413 176.3 136.805 177.853 139.054 177.853ZM139.054 176.725C137.559 176.725 136.717 175.634 136.717 173.773V173.759C136.717 171.891 137.559 170.807 139.054 170.807C140.548 170.807 141.39 171.891 141.39 173.759V173.773C141.39 175.634 140.548 176.725 139.054 176.725Z" fill="black" fill-opacity="0.9"></path> <path d="M149.318 169.818H142.931V170.873H145.487V177.714H146.762V170.873H149.318V169.818Z" fill="black" fill-opacity="0.9"></path> <path d="M157.264 177.86C159.541 177.86 160.94 176.308 160.94 173.803V173.788C160.94 171.408 159.578 169.892 157.454 169.892C156.26 169.892 155.315 170.404 154.781 171.349H154.663L154.685 171.188C154.978 169.035 155.777 168.178 157.615 168.097L158.421 168.061C159.336 168.017 160.171 167.826 160.42 167.592V166.464C159.739 166.742 158.992 166.859 158.362 166.889L157.571 166.925C154.751 167.057 153.587 168.844 153.587 173.034V173.048C153.587 176.212 154.847 177.86 157.264 177.86ZM157.264 176.732C155.755 176.732 154.891 175.656 154.891 173.803V173.788C154.891 172.023 155.755 171.02 157.264 171.02C158.772 171.02 159.637 172.023 159.637 173.788V173.803C159.637 175.656 158.772 176.732 157.264 176.732Z" fill="black" fill-opacity="0.9"></path> <path d="M162.357 177.714H165.177C166.986 177.714 168.143 176.674 168.143 175.041V175.026C168.143 173.393 166.986 172.353 165.177 172.353H163.631V169.818H162.357V177.714ZM169.52 177.714H170.795V169.818H169.52V177.714ZM165.177 173.407C166.21 173.407 166.869 174.044 166.869 175.026V175.041C166.869 176.015 166.217 176.659 165.177 176.659H163.631V173.407H165.177Z" fill="black" fill-opacity="0.9"></path> <path d="M174.452 174.623L174.745 170.873H177.492V177.714H178.766V169.818H173.603L173.266 174.521C173.185 175.692 172.892 176.608 172.167 176.608C171.977 176.608 171.779 176.579 171.713 176.557V177.707C171.816 177.743 172.021 177.787 172.292 177.787C173.61 177.787 174.284 176.798 174.452 174.623Z" fill="black" fill-opacity="0.9"></path> <path d="M180.571 177.714H181.846L185.75 171.825H185.867V177.714H187.141V169.818H185.867L181.963 175.707H181.846V169.818H180.571V177.714Z" fill="black" fill-opacity="0.9"></path> <path d="M195.724 177.853C197.973 177.853 199.364 176.3 199.364 173.773V173.759C199.364 171.225 197.973 169.679 195.724 169.679C193.475 169.679 192.084 171.225 192.084 173.759V173.773C192.084 176.3 193.475 177.853 195.724 177.853ZM195.724 176.725C194.23 176.725 193.388 175.634 193.388 173.773V173.759C193.388 171.891 194.23 170.807 195.724 170.807C197.218 170.807 198.06 171.891 198.06 173.759V173.773C198.06 175.634 197.218 176.725 195.724 176.725Z" fill="black" fill-opacity="0.9"></path> <path d="M205.988 169.818H199.602V170.873H202.158V177.714H203.432V170.873H205.988V169.818Z" fill="black" fill-opacity="0.9"></path> <path d="M210.086 177.853C212.334 177.853 213.726 176.3 213.726 173.773V173.759C213.726 171.225 212.334 169.679 210.086 169.679C207.837 169.679 206.446 171.225 206.446 173.759V173.773C206.446 176.3 207.837 177.853 210.086 177.853ZM210.086 176.725C208.592 176.725 207.749 175.634 207.749 173.773V173.759C207.749 171.891 208.592 170.807 210.086 170.807C211.58 170.807 212.422 171.891 212.422 173.759V173.773C212.422 175.634 211.58 176.725 210.086 176.725Z" fill="black" fill-opacity="0.9"></path> <path d="M218.431 177.86C220.709 177.86 222.108 176.308 222.108 173.803V173.788C222.108 171.408 220.746 169.892 218.622 169.892C217.428 169.892 216.483 170.404 215.948 171.349H215.831L215.853 171.188C216.146 169.035 216.944 168.178 218.783 168.097L219.588 168.061C220.504 168.017 221.339 167.826 221.588 167.592V166.464C220.907 166.742 220.16 166.859 219.53 166.889L218.739 166.925C215.919 167.057 214.754 168.844 214.754 173.034V173.048C214.754 176.212 216.014 177.86 218.431 177.86ZM218.431 176.732C216.922 176.732 216.058 175.656 216.058 173.803V173.788C216.058 172.023 216.922 171.02 218.431 171.02C219.94 171.02 220.804 172.023 220.804 173.788V173.803C220.804 175.656 219.94 176.732 218.431 176.732Z" fill="black" fill-opacity="0.9"></path> <path d="M223.532 180.351H224.806V176.469H224.924C225.356 177.311 226.3 177.853 227.384 177.853C229.391 177.853 230.695 176.249 230.695 173.773V173.759C230.695 171.298 229.384 169.679 227.384 169.679C226.286 169.679 225.407 170.199 224.924 171.078H224.806V169.818H223.532V180.351ZM227.092 176.725C225.656 176.725 224.777 175.597 224.777 173.773V173.759C224.777 171.935 225.656 170.807 227.092 170.807C228.534 170.807 229.391 171.92 229.391 173.759V173.773C229.391 175.612 228.534 176.725 227.092 176.725Z" fill="black" fill-opacity="0.9"></path> <path d="M234.302 177.853C235.364 177.853 236.191 177.392 236.689 176.549H236.807V177.714H238.081V172.309C238.081 170.668 237.004 169.679 235.078 169.679C233.393 169.679 232.192 170.514 231.987 171.752L231.98 171.796H233.254L233.262 171.774C233.467 171.159 234.089 170.807 235.034 170.807C236.213 170.807 236.807 171.334 236.807 172.309V173.026L234.543 173.166C232.705 173.275 231.665 174.088 231.665 175.495V175.509C231.665 176.945 232.8 177.853 234.302 177.853ZM232.969 175.48V175.465C232.969 174.682 233.496 174.257 234.697 174.184L236.807 174.052V174.77C236.807 175.897 235.862 176.747 234.565 176.747C233.65 176.747 232.969 176.278 232.969 175.48Z" fill="black" fill-opacity="0.9"></path> <path d="M245.035 177.714H246.309V169.818H245.035V173.085H241.124V169.818H239.849V177.714H241.124V174.14H245.035V177.714Z" fill="black" fill-opacity="0.9"></path> <path d="M248.114 177.714H250.934C252.743 177.714 253.9 176.674 253.9 175.041V175.026C253.9 173.393 252.743 172.353 250.934 172.353H249.388V169.818H248.114V177.714ZM255.277 177.714H256.552V169.818H255.277V177.714ZM250.934 173.407C251.967 173.407 252.626 174.044 252.626 175.026V175.041C252.626 176.015 251.974 176.659 250.934 176.659H249.388V173.407H250.934Z" fill="black" fill-opacity="0.9"></path> <path d="M265.127 177.853C267.376 177.853 268.767 176.3 268.767 173.773V173.759C268.767 171.225 267.376 169.679 265.127 169.679C262.879 169.679 261.487 171.225 261.487 173.759V173.773C261.487 176.3 262.879 177.853 265.127 177.853ZM265.127 176.725C263.633 176.725 262.791 175.634 262.791 173.773V173.759C262.791 171.891 263.633 170.807 265.127 170.807C266.621 170.807 267.464 171.891 267.464 173.759V173.773C267.464 175.634 266.621 176.725 265.127 176.725Z" fill="black" fill-opacity="0.9"></path> <path d="M270.294 179.801V177.714H276.468V179.801H277.655V176.659H276.395V169.818H271.012L270.704 174.22C270.631 175.282 270.345 176.278 269.767 176.659H269.107V179.801H270.294ZM275.121 176.659H271.239V176.542C271.612 176.051 271.817 175.209 271.891 174.25L272.14 170.873H275.121V176.659Z" fill="black" fill-opacity="0.9"></path> <path d="M283.796 177.714H285.07V169.818H283.796V173.085H279.884V169.818H278.61V177.714H279.884V174.14H283.796V177.714Z" fill="black" fill-opacity="0.9"></path> <path d="M286.875 177.714H288.149L292.053 171.825H292.17V177.714H293.445V169.818H292.17L288.266 175.707H288.149V169.818H286.875V177.714Z" fill="black" fill-opacity="0.9"></path> <path d="M296.531 177.714V172.096H296.67L299.153 177.494H300.135L302.625 172.096H302.764V177.714H304.039V169.818H302.559L299.732 175.941H299.615L296.802 169.818H295.257V177.714H296.531Z" fill="black" fill-opacity="0.9"></path> <path d="M309.37 177.714H310.644L314.548 171.825H314.665V177.714H315.939V169.818H314.665L310.761 175.707H310.644V169.818H309.37V177.714Z" fill="black" fill-opacity="0.9"></path> <path d="M320.44 177.86C322.278 177.86 323.545 176.857 323.545 175.392V175.377C323.545 174.499 322.996 173.869 321.956 173.642V173.524C322.739 173.341 323.259 172.616 323.259 171.818V171.803C323.259 170.543 322.249 169.672 320.483 169.672C318.872 169.672 317.715 170.478 317.532 171.745L317.525 171.796H318.77L318.777 171.759C318.901 171.129 319.583 170.727 320.483 170.727C321.494 170.727 322.014 171.225 322.014 171.898V171.913C322.014 172.733 321.45 173.136 320.44 173.136H319.209V174.191H320.44C321.648 174.191 322.293 174.586 322.293 175.443V175.458C322.293 176.242 321.604 176.806 320.44 176.806C319.48 176.806 318.777 176.396 318.616 175.751L318.601 175.692H317.305L317.312 175.751C317.473 177.025 318.755 177.86 320.44 177.86Z" fill="black" fill-opacity="0.9"></path> <path d="M70.2656 197.714H71.54V189.818H70.2656V193.085H66.3545V189.818H65.0801V197.714H66.3545V194.14H70.2656V197.714Z" fill="black" fill-opacity="0.9"></path> <path d="M75.5202 197.853C76.5822 197.853 77.4099 197.392 77.9079 196.549H78.0251V197.714H79.2995V192.309C79.2995 190.668 78.2229 189.679 76.2966 189.679C74.612 189.679 73.4108 190.514 73.2058 191.752L73.1984 191.796H74.4729L74.4802 191.774C74.6853 191.159 75.3078 190.807 76.2526 190.807C77.4318 190.807 78.0251 191.334 78.0251 192.309V193.026L75.7619 193.166C73.9235 193.275 72.8835 194.088 72.8835 195.495V195.509C72.8835 196.945 74.0188 197.853 75.5202 197.853ZM74.1872 195.48V195.465C74.1872 194.682 74.7146 194.257 75.9157 194.184L78.0251 194.052V194.77C78.0251 195.897 77.0803 196.747 75.7839 196.747C74.8684 196.747 74.1872 196.278 74.1872 195.48Z" fill="black" fill-opacity="0.9"></path> <path d="M81.0678 197.714H90.8236V189.818H89.5492V196.659H86.5829V189.818H85.3085V196.659H82.3422V189.818H81.0678V197.714Z" fill="black" fill-opacity="0.9"></path> <path d="M92.6285 197.714H93.9029L97.8067 191.825H97.9239V197.714H99.1983V189.818H97.9239L94.0201 195.707H93.9029V189.818H92.6285V197.714Z" fill="black" fill-opacity="0.9"></path> <path d="M100.388 197.714H101.816L103.691 194.733H103.808L105.676 197.714H107.17L104.453 193.715L107.134 189.818H105.705L103.852 192.755H103.735L101.86 189.818H100.359L103.091 193.766L100.388 197.714Z" fill="black" fill-opacity="0.9"></path> <path d="M115.079 197.853C116.976 197.853 118.038 196.835 118.361 195.407L118.375 195.326L117.115 195.333L117.101 195.377C116.808 196.256 116.134 196.725 115.072 196.725C113.666 196.725 112.758 195.561 112.758 193.744V193.729C112.758 191.95 113.651 190.807 115.072 190.807C116.207 190.807 116.91 191.437 117.108 192.213L117.115 192.235H118.383L118.375 192.191C118.141 190.785 116.991 189.679 115.072 189.679C112.86 189.679 111.454 191.276 111.454 193.729V193.744C111.454 196.249 112.867 197.853 115.079 197.853Z" fill="black" fill-opacity="0.9"></path> <path d="M119.682 197.714H120.956V190.873H124.794V197.714H126.069V189.818H119.682V197.714Z" fill="black" fill-opacity="0.9"></path> <path d="M127.874 197.714H129.148L133.052 191.825H133.169V197.714H134.443V189.818H133.169L129.265 195.707H129.148V189.818H127.874V197.714Z" fill="black" fill-opacity="0.9"></path> <path d="M137.933 194.118L141.024 197.714H142.657L138.966 193.539L142.518 189.818H140.987L137.933 193.122H137.53V189.818H136.256V197.714H137.53V194.118H137.933Z" fill="black" fill-opacity="0.9"></path> <path d="M146.579 197.853C148.439 197.853 149.567 196.798 149.838 195.729L149.853 195.67H148.578L148.549 195.736C148.336 196.212 147.677 196.718 146.608 196.718C145.202 196.718 144.301 195.766 144.264 194.132H149.948V193.634C149.948 191.276 148.644 189.679 146.498 189.679C144.352 189.679 142.96 191.349 142.96 193.788V193.795C142.96 196.271 144.323 197.853 146.579 197.853ZM146.491 190.814C147.655 190.814 148.52 191.554 148.651 193.114H144.286C144.425 191.613 145.319 190.814 146.491 190.814Z" fill="black" fill-opacity="0.9"></path> <path d="M151.372 200.351H152.646V196.469H152.763C153.196 197.311 154.14 197.853 155.224 197.853C157.231 197.853 158.535 196.249 158.535 193.773V193.759C158.535 191.298 157.224 189.679 155.224 189.679C154.126 189.679 153.247 190.199 152.763 191.078H152.646V189.818H151.372V200.351ZM154.931 196.725C153.496 196.725 152.617 195.597 152.617 193.773V193.759C152.617 191.935 153.496 190.807 154.931 190.807C156.374 190.807 157.231 191.92 157.231 193.759V193.773C157.231 195.612 156.374 196.725 154.931 196.725Z" fill="black" fill-opacity="0.9"></path> <path d="M163.218 197.853C165.467 197.853 166.858 196.3 166.858 193.773V193.759C166.858 191.225 165.467 189.679 163.218 189.679C160.97 189.679 159.578 191.225 159.578 193.759V193.773C159.578 196.3 160.97 197.853 163.218 197.853ZM163.218 196.725C161.724 196.725 160.882 195.634 160.882 193.773V193.759C160.882 191.891 161.724 190.807 163.218 190.807C164.712 190.807 165.555 191.891 165.555 193.759V193.773C165.555 195.634 164.712 196.725 163.218 196.725Z" fill="black" fill-opacity="0.9"></path> <path d="M168.275 197.714H171.637C173.336 197.714 174.339 196.82 174.339 195.451V195.436C174.339 194.521 173.702 193.817 172.699 193.678V193.561C173.439 193.407 173.988 192.667 173.988 191.884V191.869C173.988 190.631 173.116 189.818 171.622 189.818H168.275V197.714ZM169.549 193.158V190.873H171.439C172.325 190.873 172.721 191.327 172.721 192.001V192.016C172.721 192.763 172.259 193.158 171.234 193.158H169.549ZM169.549 196.659V194.213H171.344C172.479 194.213 173.043 194.579 173.043 195.414V195.429C173.043 196.22 172.552 196.659 171.586 196.659H169.549Z" fill="black" fill-opacity="0.9"></path> <path d="M176.474 197.787C177.001 197.787 177.426 197.355 177.426 196.835C177.426 196.308 177.001 195.883 176.474 195.883C175.954 195.883 175.522 196.308 175.522 196.835C175.522 197.355 175.954 197.787 176.474 197.787Z" fill="black" fill-opacity="0.9"></path> <path d="M191.231 197.714V187.145H182.94V197.714H184.258V188.332H189.913V197.714H191.231Z" fill="black" fill-opacity="0.9"></path> <path d="M193.212 200.351H194.486V196.469H194.603C195.036 197.311 195.98 197.853 197.064 197.853C199.071 197.853 200.375 196.249 200.375 193.773V193.759C200.375 191.298 199.064 189.679 197.064 189.679C195.966 189.679 195.087 190.199 194.603 191.078H194.486V189.818H193.212V200.351ZM196.771 196.725C195.336 196.725 194.457 195.597 194.457 193.773V193.759C194.457 191.935 195.336 190.807 196.771 190.807C198.214 190.807 199.071 191.92 199.071 193.759V193.773C199.071 195.612 198.214 196.725 196.771 196.725Z" fill="black" fill-opacity="0.9"></path> <path d="M205.058 197.853C207.307 197.853 208.698 196.3 208.698 193.773V193.759C208.698 191.225 207.307 189.679 205.058 189.679C202.81 189.679 201.418 191.225 201.418 193.759V193.773C201.418 196.3 202.81 197.853 205.058 197.853ZM205.058 196.725C203.564 196.725 202.722 195.634 202.722 193.773V193.759C202.722 191.891 203.564 190.807 205.058 190.807C206.552 190.807 207.395 191.891 207.395 193.759V193.773C207.395 195.634 206.552 196.725 205.058 196.725Z" fill="black" fill-opacity="0.9"></path> <path d="M210.115 197.714H219.871V189.818H218.596V196.659H215.63V189.818H214.356V196.659H211.389V189.818H210.115V197.714Z" fill="black" fill-opacity="0.9"></path> <path d="M222.357 200.482C223.756 200.482 224.408 199.97 225.06 198.197L228.143 189.818H226.803L224.642 196.315H224.525L222.357 189.818H220.995L223.917 197.721L223.771 198.19C223.485 199.098 223.045 199.428 222.32 199.428C222.145 199.428 221.947 199.42 221.793 199.391V200.438C221.969 200.468 222.188 200.482 222.357 200.482Z" fill="black" fill-opacity="0.9"></path> <path d="M237.971 197.714H239.246V189.818H237.971V193.085H234.06V189.818H232.786V197.714H234.06V194.14H237.971V197.714Z" fill="black" fill-opacity="0.9"></path> <path d="M243.226 197.853C244.288 197.853 245.115 197.392 245.613 196.549H245.731V197.714H247.005V192.309C247.005 190.668 245.928 189.679 244.002 189.679C242.317 189.679 241.116 190.514 240.911 191.752L240.904 191.796H242.178L242.186 191.774C242.391 191.159 243.013 190.807 243.958 190.807C245.137 190.807 245.731 191.334 245.731 192.309V193.026L243.467 193.166C241.629 193.275 240.589 194.088 240.589 195.495V195.509C240.589 196.945 241.724 197.853 243.226 197.853ZM241.893 195.48V195.465C241.893 194.682 242.42 194.257 243.621 194.184L245.731 194.052V194.77C245.731 195.897 244.786 196.747 243.489 196.747C242.574 196.747 241.893 196.278 241.893 195.48Z" fill="black" fill-opacity="0.9"></path> <path d="M248.773 197.714H250.048V190.873H253.886V197.714H255.16V189.818H248.773V197.714Z" fill="black" fill-opacity="0.9"></path> <path d="M256.965 197.714H258.239L262.143 191.825H262.26V197.714H263.535V189.818H262.26L258.356 195.707H258.239V189.818H256.965V197.714Z" fill="black" fill-opacity="0.9"></path> <path d="M268.584 197.853C270.481 197.853 271.543 196.835 271.865 195.407L271.88 195.326L270.62 195.333L270.606 195.377C270.313 196.256 269.639 196.725 268.577 196.725C267.171 196.725 266.262 195.561 266.262 193.744V193.729C266.262 191.95 267.156 190.807 268.577 190.807C269.712 190.807 270.415 191.437 270.613 192.213L270.62 192.235H271.887L271.88 192.191C271.646 190.785 270.496 189.679 268.577 189.679C266.365 189.679 264.959 191.276 264.959 193.729V193.744C264.959 196.249 266.372 197.853 268.584 197.853Z" fill="black" fill-opacity="0.9"></path> <path d="M275.362 197.853C276.424 197.853 277.252 197.392 277.75 196.549H277.867V197.714H279.142V192.309C279.142 190.668 278.065 189.679 276.139 189.679C274.454 189.679 273.253 190.514 273.048 191.752L273.04 191.796H274.315L274.322 191.774C274.527 191.159 275.15 190.807 276.095 190.807C277.274 190.807 277.867 191.334 277.867 192.309V193.026L275.604 193.166C273.766 193.275 272.725 194.088 272.725 195.495V195.509C272.725 196.945 273.861 197.853 275.362 197.853ZM274.029 195.48V195.465C274.029 194.682 274.557 194.257 275.758 194.184L277.867 194.052V194.77C277.867 195.897 276.922 196.747 275.626 196.747C274.71 196.747 274.029 196.278 274.029 195.48Z" fill="black" fill-opacity="0.9"></path> <path d="M286.63 189.818H280.243V190.873H282.799V197.714H284.074V190.873H286.63V189.818Z" fill="black" fill-opacity="0.9"></path> <path d="M287.768 197.714H290.588C292.397 197.714 293.554 196.674 293.554 195.041V195.026C293.554 193.393 292.397 192.353 290.588 192.353H289.043V189.818H287.768V197.714ZM290.588 193.407C291.621 193.407 292.28 194.044 292.28 195.026V195.041C292.28 196.015 291.628 196.659 290.588 196.659H289.043V193.407H290.588Z" fill="black" fill-opacity="0.9"></path> <path d="M301.566 197.853C303.426 197.853 304.554 196.798 304.825 195.729L304.84 195.67H303.566L303.536 195.736C303.324 196.212 302.665 196.718 301.595 196.718C300.189 196.718 299.288 195.766 299.252 194.132H304.935V193.634C304.935 191.276 303.632 189.679 301.486 189.679C299.34 189.679 297.948 191.349 297.948 193.788V193.795C297.948 196.271 299.31 197.853 301.566 197.853ZM301.478 190.814C302.643 190.814 303.507 191.554 303.639 193.114H299.274C299.413 191.613 300.306 190.814 301.478 190.814Z" fill="black" fill-opacity="0.9"></path> <path d="M307.626 197.714V192.096H307.766L310.248 197.494H311.23L313.72 192.096H313.859V197.714H315.134V189.818H313.654L310.827 195.941H310.71L307.897 189.818H306.352V197.714H307.626Z" fill="black" fill-opacity="0.9"></path> <path d="M317.627 200.482C319.026 200.482 319.678 199.97 320.33 198.197L323.413 189.818H322.073L319.912 196.315H319.795L317.627 189.818H316.265L319.187 197.721L319.041 198.19C318.755 199.098 318.316 199.428 317.59 199.428C317.415 199.428 317.217 199.42 317.063 199.391V200.438C317.239 200.468 317.459 200.482 317.627 200.482Z" fill="black" fill-opacity="0.9"></path> <path d="M70.2656 216.714H71.54V208.818H70.2656V212.085H66.3545V208.818H65.0801V216.714H66.3545V213.14H70.2656V216.714Z" fill="black" fill-opacity="0.9"></path> <path d="M75.5202 216.853C76.5822 216.853 77.4099 216.392 77.9079 215.549H78.0251V216.714H79.2995V211.309C79.2995 209.668 78.2229 208.679 76.2966 208.679C74.612 208.679 73.4108 209.514 73.2058 210.752L73.1984 210.796H74.4729L74.4802 210.774C74.6853 210.159 75.3078 209.807 76.2526 209.807C77.4318 209.807 78.0251 210.334 78.0251 211.309V212.026L75.7619 212.166C73.9235 212.275 72.8835 213.088 72.8835 214.495V214.509C72.8835 215.945 74.0188 216.853 75.5202 216.853ZM74.1872 214.48V214.465C74.1872 213.682 74.7146 213.257 75.9157 213.184L78.0251 213.052V213.77C78.0251 214.897 77.0803 215.747 75.7839 215.747C74.8684 215.747 74.1872 215.278 74.1872 214.48Z" fill="black" fill-opacity="0.9"></path> <path d="M84.5865 216.714H85.8609V209.873H89.6988V216.714H90.9732V208.818H84.5865V216.714Z" fill="black" fill-opacity="0.9"></path> <path d="M96.0301 216.853C98.2786 216.853 99.6702 215.3 99.6702 212.773V212.759C99.6702 210.225 98.2786 208.679 96.0301 208.679C93.7815 208.679 92.3899 210.225 92.3899 212.759V212.773C92.3899 215.3 93.7815 216.853 96.0301 216.853ZM96.0301 215.725C94.5359 215.725 93.6937 214.634 93.6937 212.773V212.759C93.6937 210.891 94.5359 209.807 96.0301 209.807C97.5242 209.807 98.3665 210.891 98.3665 212.759V212.773C98.3665 214.634 97.5242 215.725 96.0301 215.725Z" fill="black" fill-opacity="0.9"></path> <path d="M106.961 216.714V208.818H105.687V212.151C105.357 212.517 104.676 212.773 103.687 212.773C102.61 212.773 102.068 212.114 102.068 211.074V208.818H100.794V211.074C100.794 212.759 101.783 213.901 103.687 213.901C104.537 213.901 105.145 213.726 105.569 213.425H105.687V216.714H106.961Z" fill="black" fill-opacity="0.9"></path> <path d="M114.486 208.818H108.099V209.873H110.655V216.714H111.93V209.873H114.486V208.818Z" fill="black" fill-opacity="0.9"></path> <path d="M116.306 219.482C117.704 219.482 118.356 218.97 119.008 217.197L122.092 208.818H120.751L118.591 215.315H118.474L116.306 208.818H114.943L117.866 216.721L117.719 217.19C117.433 218.098 116.994 218.428 116.269 218.428C116.093 218.428 115.895 218.42 115.742 218.391V219.438C115.917 219.468 116.137 219.482 116.306 219.482Z" fill="black" fill-opacity="0.9"></path> <path d="M129.334 219.351H130.404C129.342 217.996 128.551 215.081 128.551 212.517C128.551 209.976 129.342 207.039 130.404 205.684H129.334C127.899 207.581 127.254 209.8 127.254 212.517C127.254 215.242 127.906 217.454 129.334 219.351Z" fill="black" fill-opacity="0.9"></path> <path d="M133.439 213.118L136.53 216.714H138.163L134.472 212.539L138.024 208.818H136.493L133.439 212.122H133.036V208.818H131.762V216.714H133.036V213.118H133.439Z" fill="black" fill-opacity="0.9"></path> <path d="M142.107 216.853C144.355 216.853 145.747 215.3 145.747 212.773V212.759C145.747 210.225 144.355 208.679 142.107 208.679C139.858 208.679 138.467 210.225 138.467 212.759V212.773C138.467 215.3 139.858 216.853 142.107 216.853ZM142.107 215.725C140.613 215.725 139.77 214.634 139.77 212.773V212.759C139.77 210.891 140.613 209.807 142.107 209.807C143.601 209.807 144.443 210.891 144.443 212.759V212.773C144.443 214.634 143.601 215.725 142.107 215.725Z" fill="black" fill-opacity="0.9"></path> <path d="M152.349 216.714H153.623V208.818H152.349V212.085H148.438V208.818H147.163V216.714H148.438V213.14H152.349V216.714Z" fill="black" fill-opacity="0.9"></path> <path d="M161.149 208.818H154.762V209.873H157.318V216.714H158.592V209.873H161.149V208.818Z" fill="black" fill-opacity="0.9"></path> <path d="M164.345 216.853C165.407 216.853 166.235 216.392 166.733 215.549H166.85V216.714H168.124V211.309C168.124 209.668 167.048 208.679 165.121 208.679C163.437 208.679 162.236 209.514 162.031 210.752L162.023 210.796H163.298L163.305 210.774C163.51 210.159 164.133 209.807 165.077 209.807C166.257 209.807 166.85 210.334 166.85 211.309V212.026L164.587 212.166C162.748 212.275 161.708 213.088 161.708 214.495V214.509C161.708 215.945 162.844 216.853 164.345 216.853ZM163.012 214.48V214.465C163.012 213.682 163.539 213.257 164.741 213.184L166.85 213.052V213.77C166.85 214.897 165.905 215.747 164.609 215.747C163.693 215.747 163.012 215.278 163.012 214.48Z" fill="black" fill-opacity="0.9"></path> <path d="M171.57 213.118L174.661 216.714H176.294L172.603 212.539L176.155 208.818H174.624L171.57 212.122H171.167V208.818H169.893V216.714H171.167V213.118H171.57Z" fill="black" fill-opacity="0.9"></path> <path d="M182.706 208.818H176.319V209.873H178.875V216.714H180.15V209.873H182.706V208.818Z" fill="black" fill-opacity="0.9"></path> <path d="M183.844 216.714H186.664C188.473 216.714 189.63 215.674 189.63 214.041V214.026C189.63 212.393 188.473 211.353 186.664 211.353H185.119V208.818H183.844V216.714ZM191.007 216.714H192.282V208.818H191.007V216.714ZM186.664 212.407C187.697 212.407 188.356 213.044 188.356 214.026V214.041C188.356 215.015 187.704 215.659 186.664 215.659H185.119V212.407H186.664Z" fill="black" fill-opacity="0.9"></path> <path d="M197.605 216.714H200.967C202.666 216.714 203.67 215.82 203.67 214.451V214.436C203.67 213.521 203.033 212.817 202.029 212.678V212.561C202.769 212.407 203.318 211.667 203.318 210.884V210.869C203.318 209.631 202.447 208.818 200.952 208.818H197.605V216.714ZM198.88 212.158V209.873H200.769C201.656 209.873 202.051 210.327 202.051 211.001V211.016C202.051 211.763 201.59 212.158 200.564 212.158H198.88ZM198.88 215.659V213.213H200.674C201.809 213.213 202.373 213.579 202.373 214.414V214.429C202.373 215.22 201.883 215.659 200.916 215.659H198.88Z" fill="black" fill-opacity="0.9"></path> <path d="M205.123 216.714H207.943C209.752 216.714 210.909 215.674 210.909 214.041V214.026C210.909 212.393 209.752 211.353 207.943 211.353H206.397V208.818H205.123V216.714ZM212.286 216.714H213.561V208.818H212.286V216.714ZM207.943 212.407C208.976 212.407 209.635 213.044 209.635 214.026V214.041C209.635 215.015 208.983 215.659 207.943 215.659H206.397V212.407H207.943Z" fill="black" fill-opacity="0.9"></path> <path d="M215.365 216.714H225.121V208.818H223.847V215.659H220.881V208.818H219.606V215.659H216.64V208.818H215.365V216.714Z" fill="black" fill-opacity="0.9"></path> <path d="M230.156 216.853C232.017 216.853 233.144 215.798 233.415 214.729L233.43 214.67H232.156L232.126 214.736C231.914 215.212 231.255 215.718 230.185 215.718C228.779 215.718 227.878 214.766 227.842 213.132H233.525V212.634C233.525 210.276 232.222 208.679 230.076 208.679C227.93 208.679 226.538 210.349 226.538 212.788V212.795C226.538 215.271 227.9 216.853 230.156 216.853ZM230.068 209.814C231.233 209.814 232.097 210.554 232.229 212.114H227.864C228.003 210.613 228.896 209.814 230.068 209.814Z" fill="black" fill-opacity="0.9"></path> <path d="M235.565 219.351C236.993 217.454 237.645 215.242 237.645 212.517C237.645 209.8 237 207.581 235.565 205.684H234.495C235.557 207.039 236.348 209.976 236.348 212.517C236.348 215.081 235.557 217.996 234.495 219.351H235.565Z" fill="black" fill-opacity="0.9"></path> <path d="M243.312 213.052H248.234V211.865H243.312V213.052Z" fill="black" fill-opacity="0.9"></path> <path d="M256.634 216.853C258.883 216.853 260.274 215.3 260.274 212.773V212.759C260.274 210.225 258.883 208.679 256.634 208.679C254.386 208.679 252.994 210.225 252.994 212.759V212.773C252.994 215.3 254.386 216.853 256.634 216.853ZM256.634 215.725C255.14 215.725 254.298 214.634 254.298 212.773V212.759C254.298 210.891 255.14 209.807 256.634 209.807C258.128 209.807 258.971 210.891 258.971 212.759V212.773C258.971 214.634 258.128 215.725 256.634 215.725Z" fill="black" fill-opacity="0.9"></path> <path d="M266.877 216.714H268.151V208.818H266.877V212.085H262.965V208.818H261.691V216.714H262.965V213.14H266.877V216.714Z" fill="black" fill-opacity="0.9"></path> <path d="M272.852 216.714H274.28L276.155 213.733H276.272L278.14 216.714H279.634L276.917 212.715L279.598 208.818H278.169L276.316 211.755H276.199L274.324 208.818H272.823L275.555 212.766L272.852 216.714Z" fill="black" fill-opacity="0.9"></path> <path d="M283.746 216.853C285.995 216.853 287.386 215.3 287.386 212.773V212.759C287.386 210.225 285.995 208.679 283.746 208.679C281.498 208.679 280.106 210.225 280.106 212.759V212.773C280.106 215.3 281.498 216.853 283.746 216.853ZM283.746 215.725C282.252 215.725 281.41 214.634 281.41 212.773V212.759C281.41 210.891 282.252 209.807 283.746 209.807C285.24 209.807 286.083 210.891 286.083 212.759V212.773C286.083 214.634 285.24 215.725 283.746 215.725Z" fill="black" fill-opacity="0.9"></path> <path d="M294.677 216.714V208.818H293.403V212.151C293.073 212.517 292.392 212.773 291.403 212.773C290.327 212.773 289.785 212.114 289.785 211.074V208.818H288.51V211.074C288.51 212.759 289.499 213.901 291.403 213.901C292.253 213.901 292.861 213.726 293.286 213.425H293.403V216.714H294.677Z" fill="black" fill-opacity="0.9"></path> <path d="M299.712 216.853C301.572 216.853 302.7 215.798 302.971 214.729L302.986 214.67H301.712L301.682 214.736C301.47 215.212 300.811 215.718 299.741 215.718C298.335 215.718 297.434 214.766 297.398 213.132H303.081V212.634C303.081 210.276 301.777 208.679 299.631 208.679C297.485 208.679 296.094 210.349 296.094 212.788V212.795C296.094 215.271 297.456 216.853 299.712 216.853ZM299.624 209.814C300.789 209.814 301.653 210.554 301.785 212.114H297.42C297.559 210.613 298.452 209.814 299.624 209.814Z" fill="black" fill-opacity="0.9"></path> <path d="M309.632 208.818H303.245V209.873H305.802V216.714H307.076V209.873H309.632V208.818Z" fill="black" fill-opacity="0.9"></path> <path d="M65.0801 235.714H66.3545V228.873H70.1924V235.714H71.4668V227.818H65.0801V235.714Z" fill="black" fill-opacity="0.9"></path> <path d="M73.279 238.351H74.5534V234.469H74.6706C75.1027 235.311 76.0476 235.853 77.1315 235.853C79.1384 235.853 80.4421 234.249 80.4421 231.773V231.759C80.4421 229.298 79.1311 227.679 77.1315 227.679C76.0329 227.679 75.154 228.199 74.6706 229.078H74.5534V227.818H73.279V238.351ZM76.8386 234.725C75.403 234.725 74.5241 233.597 74.5241 231.773V231.759C74.5241 229.935 75.403 228.807 76.8386 228.807C78.2814 228.807 79.1384 229.92 79.1384 231.759V231.773C79.1384 233.612 78.2814 234.725 76.8386 234.725Z" fill="black" fill-opacity="0.9"></path> <path d="M81.8734 235.714H83.1479L87.0517 229.825H87.1688V235.714H88.4433V227.818H87.1688L83.265 233.707H83.1479V227.818H81.8734V235.714Z" fill="black" fill-opacity="0.9"></path> <path d="M95.3092 228.873V227.818H90.2555V235.714H91.5299V228.873H95.3092Z" fill="black" fill-opacity="0.9"></path> <path d="M97.7952 232.623L98.0882 228.873H100.835V235.714H102.109V227.818H96.9456L96.6087 232.521C96.5281 233.692 96.2352 234.608 95.5101 234.608C95.3196 234.608 95.1219 234.579 95.056 234.557V235.707C95.1585 235.743 95.3636 235.787 95.6346 235.787C96.9529 235.787 97.6268 234.798 97.7952 232.623Z" fill="black" fill-opacity="0.9"></path> <path d="M106.089 235.853C107.151 235.853 107.979 235.392 108.477 234.549H108.594V235.714H109.869V230.309C109.869 228.668 108.792 227.679 106.866 227.679C105.181 227.679 103.98 228.514 103.775 229.752L103.768 229.796H105.042L105.049 229.774C105.254 229.159 105.877 228.807 106.822 228.807C108.001 228.807 108.594 229.334 108.594 230.309V231.026L106.331 231.166C104.493 231.275 103.453 232.088 103.453 233.495V233.509C103.453 234.945 104.588 235.853 106.089 235.853ZM104.756 233.48V233.465C104.756 232.682 105.284 232.257 106.485 232.184L108.594 232.052V232.77C108.594 233.897 107.649 234.747 106.353 234.747C105.438 234.747 104.756 234.278 104.756 233.48Z" fill="black" fill-opacity="0.9"></path> <path d="M114.874 235.853C116.771 235.853 117.833 234.835 118.155 233.407L118.17 233.326L116.91 233.333L116.896 233.377C116.603 234.256 115.929 234.725 114.867 234.725C113.461 234.725 112.552 233.561 112.552 231.744V231.729C112.552 229.95 113.446 228.807 114.867 228.807C116.002 228.807 116.705 229.437 116.903 230.213L116.91 230.235H118.177L118.17 230.191C117.936 228.785 116.786 227.679 114.867 227.679C112.655 227.679 111.249 229.276 111.249 231.729V231.744C111.249 234.249 112.662 235.853 114.874 235.853Z" fill="black" fill-opacity="0.9"></path> <path d="M119.477 235.714H120.751L124.655 229.825H124.772V235.714H126.047V227.818H124.772L120.869 233.707H120.751V227.818H119.477V235.714Z" fill="black" fill-opacity="0.9"></path> <path d="M133.579 227.818H127.192V228.873H129.749V235.714H131.023V228.873H133.579V227.818Z" fill="black" fill-opacity="0.9"></path> <path d="M134.718 235.714H137.537C139.346 235.714 140.504 234.674 140.504 233.041V233.026C140.504 231.393 139.346 230.353 137.537 230.353H135.992V227.818H134.718V235.714ZM137.537 231.407C138.57 231.407 139.229 232.044 139.229 233.026V233.041C139.229 234.015 138.577 234.659 137.537 234.659H135.992V231.407H137.537Z" fill="black" fill-opacity="0.9"></path> <path d="M145.285 235.714H148.647C150.346 235.714 151.35 234.82 151.35 233.451V233.436C151.35 232.521 150.713 231.817 149.709 231.678V231.561C150.449 231.407 150.998 230.667 150.998 229.884V229.869C150.998 228.631 150.127 227.818 148.633 227.818H145.285V235.714ZM146.56 231.158V228.873H148.449C149.336 228.873 149.731 229.327 149.731 230.001V230.016C149.731 230.763 149.27 231.158 148.244 231.158H146.56ZM146.56 234.659V232.213H148.354C149.489 232.213 150.053 232.579 150.053 233.414V233.429C150.053 234.22 149.563 234.659 148.596 234.659H146.56Z" fill="black" fill-opacity="0.9"></path> <path d="M154.978 235.853C156.04 235.853 156.868 235.392 157.366 234.549H157.483V235.714H158.758V230.309C158.758 228.668 157.681 227.679 155.755 227.679C154.07 227.679 152.869 228.514 152.664 229.752L152.657 229.796H153.931L153.938 229.774C154.143 229.159 154.766 228.807 155.711 228.807C156.89 228.807 157.483 229.334 157.483 230.309V231.026L155.22 231.166C153.382 231.275 152.342 232.088 152.342 233.495V233.509C152.342 234.945 153.477 235.853 154.978 235.853ZM153.645 233.48V233.465C153.645 232.682 154.173 232.257 155.374 232.184L157.483 232.052V232.77C157.483 233.897 156.538 234.747 155.242 234.747C154.327 234.747 153.645 234.278 153.645 233.48Z" fill="black" fill-opacity="0.9"></path> <path d="M163.763 235.853C165.66 235.853 166.722 234.835 167.045 233.407L167.059 233.326L165.799 233.333L165.785 233.377C165.492 234.256 164.818 234.725 163.756 234.725C162.35 234.725 161.442 233.561 161.442 231.744V231.729C161.442 229.95 162.335 228.807 163.756 228.807C164.891 228.807 165.594 229.437 165.792 230.213L165.799 230.235H167.067L167.059 230.191C166.825 228.785 165.675 227.679 163.756 227.679C161.544 227.679 160.138 229.276 160.138 231.729V231.744C160.138 234.249 161.551 235.853 163.763 235.853Z" fill="black" fill-opacity="0.9"></path> <path d="M177.07 235.714H178.345V227.818H177.07V231.085H173.159V227.818H171.885V235.714H173.159V232.14H177.07V235.714Z" fill="black" fill-opacity="0.9"></path> <path d="M182.325 235.853C183.387 235.853 184.215 235.392 184.713 234.549H184.83V235.714H186.104V230.309C186.104 228.668 185.028 227.679 183.101 227.679C181.417 227.679 180.216 228.514 180.01 229.752L180.003 229.796H181.278L181.285 229.774C181.49 229.159 182.113 228.807 183.057 228.807C184.237 228.807 184.83 229.334 184.83 230.309V231.026L182.567 231.166C180.728 231.275 179.688 232.088 179.688 233.495V233.509C179.688 234.945 180.823 235.853 182.325 235.853ZM180.992 233.48V233.465C180.992 232.682 181.519 232.257 182.72 232.184L184.83 232.052V232.77C184.83 233.897 183.885 234.747 182.589 234.747C181.673 234.747 180.992 234.278 180.992 233.48Z" fill="black" fill-opacity="0.9"></path> <path d="M194.629 235.853C196.525 235.853 197.587 234.835 197.91 233.407L197.924 233.326L196.665 233.333L196.65 233.377C196.357 234.256 195.683 234.725 194.621 234.725C193.215 234.725 192.307 233.561 192.307 231.744V231.729C192.307 229.95 193.2 228.807 194.621 228.807C195.756 228.807 196.46 229.437 196.657 230.213L196.665 230.235H197.932L197.924 230.191C197.69 228.785 196.54 227.679 194.621 227.679C192.409 227.679 191.003 229.276 191.003 231.729V231.744C191.003 234.249 192.417 235.853 194.629 235.853Z" fill="black" fill-opacity="0.9"></path> <path d="M204.585 227.818H198.199V228.873H200.755V235.714H202.029V228.873H204.585V227.818Z" fill="black" fill-opacity="0.9"></path> <path d="M207.782 235.853C208.844 235.853 209.671 235.392 210.169 234.549H210.287V235.714H211.561V230.309C211.561 228.668 210.484 227.679 208.558 227.679C206.874 227.679 205.672 228.514 205.467 229.752L205.46 229.796H206.734L206.742 229.774C206.947 229.159 207.569 228.807 208.514 228.807C209.693 228.807 210.287 229.334 210.287 230.309V231.026L208.023 231.166C206.185 231.275 205.145 232.088 205.145 233.495V233.509C205.145 234.945 206.28 235.853 207.782 235.853ZM206.449 233.48V233.465C206.449 232.682 206.976 232.257 208.177 232.184L210.287 232.052V232.77C210.287 233.897 209.342 234.747 208.045 234.747C207.13 234.747 206.449 234.278 206.449 233.48Z" fill="black" fill-opacity="0.9"></path> <path d="M214.032 235.714L216.867 232.096H217.336V235.714H218.566V232.096H219.035L221.869 235.714H223.466L220.038 231.524L223.305 227.818H221.796L219.035 231.144H218.566V227.818H217.336V231.144H216.867L214.106 227.818H212.575L215.863 231.554L212.458 235.714H214.032Z" fill="black" fill-opacity="0.9"></path> <path d="M224.407 235.714H225.681L229.585 229.825H229.702V235.714H230.976V227.818H229.702L225.798 233.707H225.681V227.818H224.407V235.714Z" fill="black" fill-opacity="0.9"></path> <path d="M232.796 238.351H234.07V234.469H234.188C234.62 235.311 235.565 235.853 236.649 235.853C238.655 235.853 239.959 234.249 239.959 231.773V231.759C239.959 229.298 238.648 227.679 236.649 227.679C235.55 227.679 234.671 228.199 234.188 229.078H234.07V227.818H232.796V238.351ZM236.356 234.725C234.92 234.725 234.041 233.597 234.041 231.773V231.759C234.041 229.935 234.92 228.807 236.356 228.807C237.798 228.807 238.655 229.92 238.655 231.759V231.773C238.655 233.612 237.798 234.725 236.356 234.725Z" fill="black" fill-opacity="0.9"></path> <path d="M244.642 235.853C246.891 235.853 248.283 234.3 248.283 231.773V231.759C248.283 229.225 246.891 227.679 244.642 227.679C242.394 227.679 241.002 229.225 241.002 231.759V231.773C241.002 234.3 242.394 235.853 244.642 235.853ZM244.642 234.725C243.148 234.725 242.306 233.634 242.306 231.773V231.759C242.306 229.891 243.148 228.807 244.642 228.807C246.137 228.807 246.979 229.891 246.979 231.759V231.773C246.979 233.634 246.137 234.725 244.642 234.725Z" fill="black" fill-opacity="0.9"></path> <path d="M249.699 235.714H253.061C254.76 235.714 255.764 234.82 255.764 233.451V233.436C255.764 232.521 255.126 231.817 254.123 231.678V231.561C254.863 231.407 255.412 230.667 255.412 229.884V229.869C255.412 228.631 254.541 227.818 253.046 227.818H249.699V235.714ZM250.974 231.158V228.873H252.863C253.75 228.873 254.145 229.327 254.145 230.001V230.016C254.145 230.763 253.684 231.158 252.658 231.158H250.974ZM250.974 234.659V232.213H252.768C253.903 232.213 254.467 232.579 254.467 233.414V233.429C254.467 234.22 253.977 234.659 253.01 234.659H250.974Z" fill="black" fill-opacity="0.9"></path> <path d="M258.894 232.118L261.985 235.714H263.618L259.927 231.539L263.479 227.818H261.948L258.894 231.122H258.491V227.818H257.217V235.714H258.491V232.118H258.894Z" fill="black" fill-opacity="0.9"></path> <path d="M265.064 238.482C266.463 238.482 267.115 237.97 267.767 236.197L270.85 227.818H269.51L267.35 234.315H267.232L265.064 227.818H263.702L266.624 235.721L266.478 236.19C266.192 237.098 265.753 237.428 265.028 237.428C264.852 237.428 264.654 237.42 264.5 237.391V238.438C264.676 238.468 264.896 238.482 265.064 238.482Z" fill="black" fill-opacity="0.9"></path> <path d="M272.443 232.198H273.659L273.783 225.138H272.318L272.443 232.198ZM273.058 235.846C273.651 235.846 274.069 235.421 274.069 234.828C274.069 234.227 273.651 233.802 273.058 233.802C272.465 233.802 272.04 234.227 272.04 234.828C272.04 235.421 272.465 235.846 273.058 235.846Z" fill="black" fill-opacity="0.9"></path> <path d="M276.57 238.351C277.998 236.454 278.65 234.242 278.65 231.517C278.65 228.8 278.005 226.581 276.57 224.684H275.5C276.562 226.039 277.353 228.976 277.353 231.517C277.353 234.081 276.562 236.996 275.5 238.351H276.57Z" fill="black" fill-opacity="0.9"></path> <g opacity="0.5"> <path d="M305.269 250.789H306.351V243.82H305.269L303.434 245.124V246.186L305.187 244.936H305.269V250.789Z" fill="black"></path> <path d="M310.328 250.92C311.878 250.92 312.97 250.089 312.97 248.906V248.896C312.97 248.017 312.337 247.317 311.424 247.119V247.094C312.207 246.872 312.714 246.288 312.714 245.549V245.539C312.714 244.472 311.719 243.69 310.328 243.69C308.942 243.69 307.942 244.472 307.942 245.539V245.549C307.942 246.288 308.454 246.872 309.236 247.094V247.119C308.324 247.317 307.691 248.017 307.691 248.896V248.906C307.691 250.089 308.782 250.92 310.328 250.92ZM310.328 246.732C309.55 246.732 309.014 246.278 309.014 245.641V245.631C309.014 244.994 309.55 244.549 310.328 244.549C311.105 244.549 311.642 244.994 311.642 245.631V245.641C311.642 246.278 311.11 246.732 310.328 246.732ZM310.328 250.05C309.439 250.05 308.807 249.543 308.807 248.838V248.828C308.807 248.114 309.434 247.597 310.328 247.597C311.226 247.597 311.854 248.114 311.854 248.828V248.838C311.854 249.543 311.221 250.05 310.328 250.05Z" fill="black"></path> <path d="M314.653 246.182C315.054 246.182 315.358 245.868 315.358 245.477C315.358 245.08 315.054 244.771 314.653 244.771C314.252 244.771 313.943 245.08 313.943 245.477C313.943 245.868 314.252 246.182 314.653 246.182ZM314.653 249.833C315.054 249.833 315.358 249.519 315.358 249.128C315.358 248.732 315.054 248.423 314.653 248.423C314.252 248.423 313.943 248.732 313.943 249.128C313.943 249.519 314.252 249.833 314.653 249.833Z" fill="black"></path> <path d="M316.505 250.789H321.199V249.867H317.978V249.77L319.456 248.297C320.721 247.041 321.088 246.433 321.088 245.641V245.626C321.088 244.477 320.132 243.651 318.833 243.651C317.432 243.651 316.447 244.549 316.442 245.824L316.452 245.834H317.466L317.471 245.819C317.471 245.056 317.992 244.544 318.775 244.544C319.538 244.544 320.006 245.047 320.006 245.728V245.742C320.006 246.307 319.741 246.665 318.818 247.626L316.505 250.055V250.789Z" fill="black"></path> <path d="M324.693 250.958C326.157 250.958 327.215 249.934 327.215 248.534V248.524C327.215 247.191 326.263 246.206 324.935 246.206C323.983 246.206 323.356 246.703 323.1 247.263H323.008C323.008 247.21 323.008 247.157 323.013 247.104C323.066 245.713 323.554 244.569 324.727 244.569C325.384 244.569 325.838 244.907 326.031 245.438L326.051 245.486H327.123L327.113 245.428C326.881 244.375 325.964 243.651 324.732 243.651C323.008 243.651 321.979 245.042 321.979 247.399V247.408C321.979 249.973 323.293 250.958 324.693 250.958ZM323.22 248.534V248.529C323.22 247.689 323.858 247.08 324.693 247.08C325.539 247.08 326.147 247.698 326.147 248.553V248.563C326.147 249.398 325.5 250.05 324.684 250.05C323.863 250.05 323.22 249.384 323.22 248.534Z" fill="black"></path> </g> <path fill-rule="evenodd" clip-rule="evenodd" d="M149.5 105.999C141.492 105.999 135 112.491 135 120.499C135 128.507 141.492 134.999 149.5 134.999H319.5C322.549 134.999 325.379 134.058 327.714 132.45C329.925 133.716 333.34 135.012 337.54 135.012C337.336 134.78 337.141 134.562 336.956 134.354C334.186 131.241 333.593 130.575 333.584 123.962C333.856 122.852 334 121.692 334 120.499C334 119.306 333.856 118.146 333.584 117.036V116.109L333.416 116.413C331.652 110.394 326.089 105.999 319.5 105.999H149.5Z" fill="#FFDA6B"></path> <path d="M147.46 125.072C149.24 125.072 149.98 123.974 150.837 121.974L154.074 114.43H152.705L149.936 121.278H149.819L146.984 114.43H145.578L149.189 122.743C148.771 123.52 148.251 123.856 147.46 123.856C147.146 123.856 146.962 123.82 146.875 123.798V124.977C146.962 125.021 147.167 125.072 147.46 125.072Z" fill="black" fill-opacity="0.9"></path> <path d="M154.619 124.999H157.981C159.68 124.999 160.684 124.105 160.684 122.736V122.721C160.684 121.806 160.047 121.103 159.043 120.963V120.846C159.783 120.692 160.332 119.953 160.332 119.169V119.154C160.332 117.917 159.461 117.104 157.967 117.104H154.619V124.999ZM155.894 120.443V118.158H157.783C158.67 118.158 159.065 118.612 159.065 119.286V119.301C159.065 120.048 158.604 120.443 157.578 120.443H155.894ZM155.894 123.944V121.498H157.688C158.823 121.498 159.387 121.864 159.387 122.699V122.714C159.387 123.505 158.897 123.944 157.93 123.944H155.894Z" fill="black" fill-opacity="0.9"></path> <path d="M164.312 125.138C165.374 125.138 166.202 124.677 166.7 123.834H166.817V124.999H168.092V119.594C168.092 117.953 167.015 116.964 165.089 116.964C163.404 116.964 162.203 117.799 161.998 119.037L161.991 119.081H163.265L163.272 119.059C163.477 118.444 164.1 118.092 165.045 118.092C166.224 118.092 166.817 118.62 166.817 119.594V120.312L164.554 120.451C162.716 120.561 161.676 121.374 161.676 122.78V122.794C161.676 124.23 162.811 125.138 164.312 125.138ZM162.979 122.765V122.75C162.979 121.967 163.507 121.542 164.708 121.469L166.817 121.337V122.055C166.817 123.183 165.872 124.032 164.576 124.032C163.661 124.032 162.979 123.563 162.979 122.765Z" fill="black" fill-opacity="0.9"></path> <path d="M170.563 124.999L173.398 121.381H173.866V124.999H175.097V121.381H175.566L178.4 124.999H179.997L176.569 120.81L179.836 117.104H178.327L175.566 120.429H175.097V117.104H173.866V120.429H173.398L170.636 117.104H169.106L172.394 120.839L168.988 124.999H170.563Z" fill="black" fill-opacity="0.9"></path> <path d="M182.893 125.138C183.955 125.138 184.783 124.677 185.281 123.834H185.398V124.999H186.672V119.594C186.672 117.953 185.596 116.964 183.669 116.964C181.985 116.964 180.783 117.799 180.578 119.037L180.571 119.081H181.846L181.853 119.059C182.058 118.444 182.68 118.092 183.625 118.092C184.804 118.092 185.398 118.62 185.398 119.594V120.312L183.135 120.451C181.296 120.561 180.256 121.374 180.256 122.78V122.794C180.256 124.23 181.391 125.138 182.893 125.138ZM181.56 122.765V122.75C181.56 121.967 182.087 121.542 183.288 121.469L185.398 121.337V122.055C185.398 123.183 184.453 124.032 183.157 124.032C182.241 124.032 181.56 123.563 181.56 122.765Z" fill="black" fill-opacity="0.9"></path> <path d="M191.67 125.138C193.531 125.138 194.659 124.083 194.93 123.014L194.944 122.956H193.67L193.641 123.021C193.428 123.498 192.769 124.003 191.7 124.003C190.293 124.003 189.393 123.051 189.356 121.417H195.04V120.919C195.04 118.561 193.736 116.964 191.59 116.964C189.444 116.964 188.052 118.634 188.052 121.073V121.081C188.052 123.556 189.415 125.138 191.67 125.138ZM191.583 118.1C192.747 118.1 193.611 118.839 193.743 120.399H189.378C189.517 118.898 190.411 118.1 191.583 118.1Z" fill="black" fill-opacity="0.9"></path> <path d="M197.731 124.999V119.381H197.87L200.353 124.779H201.334L203.824 119.381H203.964V124.999H205.238V117.104H203.758L200.931 123.227H200.814L198.002 117.104H196.456V124.999H197.731Z" fill="black" fill-opacity="0.9"></path> <path d="M207.05 124.999H209.87C211.679 124.999 212.836 123.959 212.836 122.326V122.311C212.836 120.678 211.679 119.638 209.87 119.638H208.325V117.104H207.05V124.999ZM214.213 124.999H215.488V117.104H214.213V124.999ZM209.87 120.692C210.903 120.692 211.562 121.33 211.562 122.311V122.326C211.562 123.3 210.91 123.944 209.87 123.944H208.325V120.692H209.87Z" fill="black" fill-opacity="0.9"></path> <path d="M220.523 125.138C222.383 125.138 223.511 124.083 223.782 123.014L223.796 122.956H222.522L222.493 123.021C222.28 123.498 221.621 124.003 220.552 124.003C219.146 124.003 218.245 123.051 218.208 121.417H223.892V120.919C223.892 118.561 222.588 116.964 220.442 116.964C218.296 116.964 216.904 118.634 216.904 121.073V121.081C216.904 123.556 218.267 125.138 220.523 125.138ZM220.435 118.1C221.599 118.1 222.463 118.839 222.595 120.399H218.23C218.369 118.898 219.263 118.1 220.435 118.1Z" fill="black" fill-opacity="0.9"></path> <path d="M232.064 125.138C233.961 125.138 235.023 124.12 235.346 122.692L235.36 122.611L234.101 122.619L234.086 122.663C233.793 123.542 233.119 124.01 232.057 124.01C230.651 124.01 229.743 122.846 229.743 121.029V121.015C229.743 119.235 230.636 118.092 232.057 118.092C233.192 118.092 233.896 118.722 234.093 119.499L234.101 119.521H235.368L235.36 119.477C235.126 118.07 233.976 116.964 232.057 116.964C229.845 116.964 228.439 118.561 228.439 121.015V121.029C228.439 123.534 229.853 125.138 232.064 125.138Z" fill="black" fill-opacity="0.9"></path> <path d="M242.021 117.104H235.634V118.158H238.191V124.999H239.465V118.158H242.021V117.104Z" fill="black" fill-opacity="0.9"></path> <path d="M243.841 127.768C245.24 127.768 245.892 127.255 246.543 125.482L249.627 117.104H248.287L246.126 123.6H246.009L243.841 117.104H242.478L245.401 125.006L245.254 125.475C244.969 126.383 244.529 126.713 243.804 126.713C243.628 126.713 243.431 126.706 243.277 126.676V127.724C243.453 127.753 243.672 127.768 243.841 127.768Z" fill="black" fill-opacity="0.9"></path> <path d="M250.641 127.086V124.999H256.815V127.086H258.002V123.944H256.742V117.104H251.358L251.051 121.505C250.978 122.567 250.692 123.563 250.113 123.944H249.454V127.086H250.641ZM255.467 123.944H251.586V123.827C251.959 123.336 252.164 122.494 252.237 121.535L252.486 118.158H255.467V123.944Z" fill="black" fill-opacity="0.9"></path> <path d="M262.187 125.138C264.047 125.138 265.175 124.083 265.446 123.014L265.461 122.956H264.186L264.157 123.021C263.945 123.498 263.285 124.003 262.216 124.003C260.81 124.003 259.909 123.051 259.872 121.417H265.556V120.919C265.556 118.561 264.252 116.964 262.106 116.964C259.96 116.964 258.569 118.634 258.569 121.073V121.081C258.569 123.556 259.931 125.138 262.187 125.138ZM262.099 118.1C263.263 118.1 264.128 118.839 264.26 120.399H259.894C260.033 118.898 260.927 118.1 262.099 118.1Z" fill="black" fill-opacity="0.9"></path> <path d="M272.158 124.999H273.433V117.104H272.158V120.37H268.247V117.104H266.973V124.999H268.247V121.425H272.158V124.999Z" fill="black" fill-opacity="0.9"></path> <path d="M280.958 117.104H274.571V118.158H277.127V124.999H278.402V118.158H280.958V117.104Z" fill="black" fill-opacity="0.9"></path> <path d="M282.096 124.999H284.916C286.725 124.999 287.882 123.959 287.882 122.326V122.311C287.882 120.678 286.725 119.638 284.916 119.638H283.371V117.104H282.096V124.999ZM289.259 124.999H290.534V117.104H289.259V124.999ZM284.916 120.692C285.949 120.692 286.608 121.33 286.608 122.311V122.326C286.608 123.3 285.956 123.944 284.916 123.944H283.371V120.692H284.916Z" fill="black" fill-opacity="0.9"></path> <path d="M292.807 121.483H294.023L294.148 114.423H292.683L292.807 121.483ZM293.422 125.131C294.016 125.131 294.433 124.706 294.433 124.113C294.433 123.512 294.016 123.087 293.422 123.087C292.829 123.087 292.404 123.512 292.404 124.113C292.404 124.706 292.829 125.131 293.422 125.131Z" fill="black" fill-opacity="0.9"></path> <g opacity="0.5"> <path d="M305.269 125.284H306.351V118.315H305.269L303.434 119.619V120.682L305.187 119.431H305.269V125.284Z" fill="black"></path> <path d="M310.328 125.415C311.878 125.415 312.97 124.584 312.97 123.401V123.391C312.97 122.512 312.337 121.812 311.424 121.614V121.59C312.207 121.367 312.714 120.783 312.714 120.044V120.034C312.714 118.967 311.719 118.185 310.328 118.185C308.942 118.185 307.942 118.967 307.942 120.034V120.044C307.942 120.783 308.454 121.367 309.236 121.59V121.614C308.324 121.812 307.691 122.512 307.691 123.391V123.401C307.691 124.584 308.782 125.415 310.328 125.415ZM310.328 121.227C309.55 121.227 309.014 120.773 309.014 120.136V120.126C309.014 119.489 309.55 119.044 310.328 119.044C311.105 119.044 311.642 119.489 311.642 120.126V120.136C311.642 120.773 311.11 121.227 310.328 121.227ZM310.328 124.545C309.439 124.545 308.807 124.038 308.807 123.333V123.323C308.807 122.609 309.434 122.092 310.328 122.092C311.226 122.092 311.854 122.609 311.854 123.323V123.333C311.854 124.038 311.221 124.545 310.328 124.545Z" fill="black"></path> <path d="M314.653 120.677C315.054 120.677 315.358 120.363 315.358 119.972C315.358 119.576 315.054 119.266 314.653 119.266C314.252 119.266 313.943 119.576 313.943 119.972C313.943 120.363 314.252 120.677 314.653 120.677ZM314.653 124.328C315.054 124.328 315.358 124.014 315.358 123.623C315.358 123.227 315.054 122.918 314.653 122.918C314.252 122.918 313.943 123.227 313.943 123.623C313.943 124.014 314.252 124.328 314.653 124.328Z" fill="black"></path> <path d="M316.505 125.284H321.199V124.362H317.978V124.265L319.456 122.792C320.721 121.536 321.088 120.928 321.088 120.136V120.121C321.088 118.972 320.132 118.146 318.833 118.146C317.432 118.146 316.447 119.044 316.442 120.319L316.452 120.329H317.466L317.471 120.315C317.471 119.551 317.992 119.039 318.775 119.039C319.538 119.039 320.006 119.542 320.006 120.223V120.237C320.006 120.802 319.741 121.16 318.818 122.121L316.505 124.55V125.284Z" fill="black"></path> <path d="M325.191 125.284H326.234V123.898H327.195V122.981H326.234V118.315H324.693C323.732 119.759 322.708 121.406 321.791 122.981V123.898H325.191V125.284ZM322.829 123V122.932C323.544 121.71 324.394 120.353 325.143 119.228H325.205V123H322.829Z" fill="black"></path> </g> </svg> 