<?xml version="1.0" encoding="UTF-8"?> <svg xmlns="http://www.w3.org/2000/svg" width="1472" height="914" viewBox="0 0 1472 914" fill="none"> <g clip-path="url(#clip0_939:4664)"> <path d="M0.486405 -4.3273e-05L0.486325 874.092" stroke="#368048"></path> <path d="M1470.96 1.34141C1470.96 242.889 1375.29 458.971 1205 629.771C1034.71 800.571 800.733 873.605 559.905 873.605" stroke="#368048"></path> <path d="M0.40239 349.092C0.402383 498.382 60.8284 626.092 166.078 731.656C271.327 837.22 411.06 873.605 559.905 873.605" stroke="#368048"></path> <path d="M348.785 0.487122C256.802 0.487118 168.321 37.9917 103.279 103.228C38.2375 168.464 0.402321 256.834 0.402313 349.091" stroke="#368048"></path> <path d="M559.463 215.295C559.463 158.981 537.917 105.542 498.216 65.7219C458.514 25.9016 404.932 0.486272 348.785 0.486267" stroke="#368048"></path> <path d="M559.905 -1.91033e-05L559.905 873.605" stroke="#368048"></path> <path d="M559.905 873.605L0.000481188 873.605" stroke="#368048"></path> <path d="M1947.75 0.486023L0.00019214 0.48628" stroke="#368048"></path> </g> <defs> <clipPath id="clip0_939:4664"> <rect width="1472" height="914" fill="white" transform="translate(1472 914) rotate(-180)"></rect> </clipPath> </defs> </svg> 