<?xml version="1.0" encoding="UTF-8"?> <svg xmlns="http://www.w3.org/2000/svg" width="298" height="637" viewBox="0 0 298 637" fill="none"> <path d="M68.7305 330.803C68.5711 331.352 68.3232 331.901 68.0045 332.361C67.2253 333.371 65.9326 333.902 64.6222 333.884C63.3295 333.884 62.0368 333.371 61.2753 332.361C60.4961 331.317 60.2482 329.953 60.2482 328.625C60.2482 327.297 60.4961 325.916 61.2753 324.906C62.0368 323.879 63.3295 323.348 64.6222 323.366C65.9326 323.383 67.2253 323.879 68.0045 324.906C68.3764 325.402 68.6243 325.986 68.7659 326.606L70.2534 326.358C70.0586 325.544 69.7045 324.747 69.1378 324.021C68.093 322.657 66.4107 321.984 64.6222 321.984C62.8336 321.984 61.1868 322.64 60.1243 324.021C59.0795 325.331 58.7253 326.96 58.7076 328.625C58.6899 330.254 59.0795 331.901 60.1243 333.229C61.1868 334.575 62.8159 335.266 64.6222 335.266C66.393 335.266 68.0576 334.61 69.1378 333.229C69.6159 332.609 69.9524 331.919 70.1649 331.21L68.7305 330.803Z" fill="black" fill-opacity="0.8"></path> <path d="M73.2318 330.608H80.7755C80.7932 330.484 80.7932 330.343 80.7932 330.219C80.7932 328.979 80.5099 327.74 79.713 326.73C78.8807 325.685 77.6234 325.172 76.2422 325.172C74.8609 325.172 73.6036 325.685 72.7536 326.73C71.9568 327.74 71.6911 328.961 71.6734 330.219C71.6734 331.441 71.9568 332.698 72.7536 333.707C73.5859 334.734 74.8786 335.23 76.2422 335.266C77.588 335.301 78.9161 334.752 79.7484 333.725C79.9609 333.477 80.138 333.194 80.2797 332.928L78.863 332.308C78.7745 332.485 78.6859 332.645 78.562 332.822C78.0307 333.53 77.163 333.902 76.2422 333.902C75.3213 333.902 74.4359 333.53 73.9224 332.822C73.462 332.22 73.2672 331.423 73.2318 330.608ZM76.2422 326.535C77.163 326.535 78.0307 326.907 78.562 327.616C78.9338 328.111 79.1463 328.749 79.2172 329.404H73.2672C73.338 328.749 73.5505 328.111 73.9224 327.616C74.4359 326.907 75.3213 326.535 76.2422 326.535Z" fill="black" fill-opacity="0.8"></path> <path d="M90.5915 326.713C89.8123 325.721 88.6081 325.172 87.2977 325.172C86.0227 325.172 84.8008 325.703 84.0394 326.642V325.438H82.7467V339.25H84.1988V333.991C84.9602 334.823 86.0404 335.266 87.28 335.266C88.5904 335.266 89.7946 334.734 90.5915 333.725C91.3883 332.716 91.6362 331.458 91.6362 330.201C91.6362 328.961 91.3529 327.686 90.5915 326.713ZM89.4227 332.822C88.8915 333.566 88.006 333.938 87.1029 333.938C86.1998 333.938 85.3321 333.583 84.8008 332.91C84.2519 332.22 84.0394 331.21 84.0394 330.201C84.0394 329.209 84.2519 328.2 84.8008 327.509C85.3321 326.819 86.1644 326.5 87.0675 326.5C88.0238 326.5 88.8915 326.836 89.4227 327.58C89.9185 328.271 90.1133 329.227 90.1133 330.201C90.1133 331.193 89.9363 332.149 89.4227 332.822Z" fill="black" fill-opacity="0.8"></path> <path d="M100.193 325.438H93.5875V335H95.0219V326.872H100.193V325.438Z" fill="black" fill-opacity="0.8"></path> <path d="M102.899 330.608H110.443C110.46 330.484 110.46 330.343 110.46 330.219C110.46 328.979 110.177 327.74 109.38 326.73C108.548 325.685 107.29 325.172 105.909 325.172C104.528 325.172 103.271 325.685 102.421 326.73C101.624 327.74 101.358 328.961 101.34 330.219C101.34 331.441 101.624 332.698 102.421 333.707C103.253 334.734 104.546 335.23 105.909 335.266C107.255 335.301 108.583 334.752 109.415 333.725C109.628 333.477 109.805 333.194 109.947 332.928L108.53 332.308C108.441 332.485 108.353 332.645 108.229 332.822C107.698 333.53 106.83 333.902 105.909 333.902C104.988 333.902 104.103 333.53 103.589 332.822C103.129 332.22 102.934 331.423 102.899 330.608ZM105.909 326.535C106.83 326.535 107.698 326.907 108.229 327.616C108.601 328.111 108.813 328.749 108.884 329.404H102.934C103.005 328.749 103.217 328.111 103.589 327.616C104.103 326.907 104.988 326.535 105.909 326.535Z" fill="black" fill-opacity="0.8"></path> <path d="M117.655 322.02C117.655 322.675 117.142 323.189 116.487 323.189C115.831 323.189 115.3 322.675 115.3 322.02H114.131C114.131 323.33 115.176 324.375 116.487 324.375C117.779 324.375 118.824 323.33 118.824 322.02H117.655ZM120.258 325.438H118.966L113.866 332.574V325.438H112.414V335H113.706L118.806 327.793V335H120.258V325.438Z" fill="black" fill-opacity="0.8"></path> <path d="M135.864 322.25H125.629V323.684H130.038V335H131.472V323.684H135.864V322.25Z" fill="black" fill-opacity="0.8"></path> <path d="M144.248 326.713C143.469 325.721 142.264 325.172 140.954 325.172C139.679 325.172 138.457 325.703 137.696 326.642V325.438H136.403V339.25H137.855V333.991C138.616 334.823 139.697 335.266 140.936 335.266C142.247 335.266 143.451 334.734 144.248 333.725C145.045 332.716 145.293 331.458 145.293 330.201C145.293 328.961 145.009 327.686 144.248 326.713ZM143.079 332.822C142.548 333.566 141.662 333.938 140.759 333.938C139.856 333.938 138.988 333.583 138.457 332.91C137.908 332.22 137.696 331.21 137.696 330.201C137.696 329.209 137.908 328.2 138.457 327.509C138.988 326.819 139.821 326.5 140.724 326.5C141.68 326.5 142.548 326.836 143.079 327.58C143.575 328.271 143.77 329.227 143.77 330.201C143.77 331.193 143.593 332.149 143.079 332.822Z" fill="black" fill-opacity="0.8"></path> <path d="M148.271 330.608H155.815C155.832 330.484 155.832 330.343 155.832 330.219C155.832 328.979 155.549 327.74 154.752 326.73C153.92 325.685 152.662 325.172 151.281 325.172C149.9 325.172 148.643 325.685 147.793 326.73C146.996 327.74 146.73 328.961 146.712 330.219C146.712 331.441 146.996 332.698 147.793 333.707C148.625 334.734 149.918 335.23 151.281 335.266C152.627 335.301 153.955 334.752 154.787 333.725C155 333.477 155.177 333.194 155.319 332.928L153.902 332.308C153.814 332.485 153.725 332.645 153.601 332.822C153.07 333.53 152.202 333.902 151.281 333.902C150.36 333.902 149.475 333.53 148.961 332.822C148.501 332.22 148.306 331.423 148.271 330.608ZM151.281 326.535C152.202 326.535 153.07 326.907 153.601 327.616C153.973 328.111 154.185 328.749 154.256 329.404H148.306C148.377 328.749 148.59 328.111 148.961 327.616C149.475 326.907 150.36 326.535 151.281 326.535Z" fill="black" fill-opacity="0.8"></path> <path d="M164.391 325.438H157.786V335H159.22V326.872H164.391V325.438Z" fill="black" fill-opacity="0.8"></path> <path d="M172.976 325.455L169.948 333.424L166.672 325.438H165.184L169.275 335.266C168.673 336.842 168.425 337.426 168.053 337.674C167.805 337.869 167.433 337.904 167.079 337.886L166.778 337.851V339.232L167.008 339.25C167.664 339.25 168.248 339.197 168.762 338.807C169.293 338.435 169.718 337.763 170.072 336.806L174.428 325.455H172.976Z" fill="black" fill-opacity="0.8"></path> <path d="M179.903 325.933C178.682 325.916 177.654 326.394 176.875 327.279C177.017 326.04 177.336 324.942 178.239 324.322C179.071 323.72 180.311 323.578 181.479 323.596C182.117 323.596 182.843 323.667 183.534 323.773V322.427C182.896 322.321 182.223 322.25 181.479 322.25C180.081 322.25 178.593 322.409 177.442 323.259C176.273 324.092 175.707 325.349 175.494 326.783C175.335 327.846 175.299 328.82 175.335 330.538C175.37 331.759 175.653 332.928 176.45 333.849C177.265 334.805 178.54 335.283 179.762 335.266C180.984 335.283 182.241 334.876 183.091 333.938C183.923 333.034 184.277 331.813 184.277 330.626C184.26 329.457 183.959 328.235 183.179 327.332C182.383 326.358 181.125 325.898 179.903 325.933ZM179.797 327.244C180.665 327.244 181.497 327.545 182.011 328.165C182.56 328.784 182.754 329.67 182.754 330.538C182.754 331.423 182.56 332.291 182.011 332.91C181.497 333.548 180.665 333.849 179.797 333.849C178.947 333.849 178.097 333.548 177.566 332.91C177.052 332.326 176.858 331.423 176.858 330.52C176.858 329.652 177.052 328.784 177.566 328.165C178.097 327.545 178.947 327.244 179.797 327.244Z" fill="black" fill-opacity="0.8"></path> <path d="M190.262 335.266C191.661 335.266 192.9 334.77 193.733 333.707C194.547 332.68 194.83 331.494 194.83 330.201C194.83 328.979 194.565 327.74 193.733 326.73C192.918 325.685 191.625 325.172 190.262 325.172C188.88 325.172 187.588 325.721 186.773 326.73C185.994 327.704 185.693 328.961 185.693 330.201C185.693 331.458 185.976 332.698 186.773 333.707C187.605 334.752 188.88 335.266 190.262 335.266ZM192.599 332.822C192.068 333.53 191.183 333.902 190.262 333.902C189.341 333.902 188.455 333.53 187.942 332.822C187.393 332.114 187.216 331.157 187.216 330.201C187.216 329.28 187.393 328.306 187.942 327.598C188.455 326.89 189.341 326.535 190.262 326.535C191.183 326.535 192.068 326.89 192.599 327.598C193.13 328.306 193.308 329.28 193.308 330.201C193.308 331.157 193.13 332.114 192.599 332.822Z" fill="black" fill-opacity="0.8"></path> <path d="M196.783 325.455V335H202.007C202.644 335 203.335 334.805 203.866 334.345C204.451 333.849 204.805 333.088 204.805 332.308C204.805 331.706 204.574 331.104 204.185 330.679C204.008 330.414 203.742 330.201 203.477 330.024C203.601 329.935 203.707 329.811 203.813 329.67C204.149 329.245 204.327 328.696 204.327 328.129C204.327 327.368 204.025 326.695 203.459 326.199C202.945 325.685 202.255 325.438 201.422 325.438L196.783 325.455ZM198.235 326.659H201.422C201.918 326.659 202.237 326.819 202.52 327.173C202.733 327.456 202.839 327.793 202.857 328.129C202.857 328.466 202.751 328.82 202.52 329.103C202.255 329.44 201.901 329.617 201.422 329.617H198.235V326.659ZM198.235 330.821H201.635C202.184 330.821 202.556 330.874 202.945 331.281C203.211 331.565 203.353 331.936 203.335 332.308C203.317 332.68 203.211 333.07 202.945 333.353C202.627 333.672 202.272 333.796 201.812 333.796H198.235V330.821Z" fill="black" fill-opacity="0.8"></path> <path fill-rule="evenodd" clip-rule="evenodd" d="M117.237 0.269745C117.072 0.0873515 116.942 -0.00216783 116.762 3.98485e-05C116.71 0.00054186 116.645 0.0661919 116.567 0.192073L116.497 0.314608L116.422 0.465955L116.299 0.745495L116.21 0.965865L116.117 1.21264L116.019 1.48513L115.864 1.94058L115.701 2.45003L115.53 3.01114L115.352 3.6216L115.168 4.27909L114.915 5.22488L114.59 6.51049L112.945 6.54272L111.182 6.58694L109.938 6.62423L108.722 6.66435L108.045 6.69211L107.741 6.71072L107.458 6.73463L107.194 6.76543C105.918 6.93934 105.294 7.43208 104.401 9.14664L104.218 9.50611L104.19 9.51292L103.986 9.57165L103.826 9.62639L103.639 9.69993C102.978 9.97798 101.989 10.5929 102 11.7801C102.019 13.5608 105.903 16.3145 108.933 16.2138C109.325 16.2005 109.781 15.7818 110.182 15.2141L110.321 15.0079C110.344 14.9727 110.367 14.937 110.389 14.901L110.519 14.681L110.642 14.4549C110.682 14.3788 110.72 14.3021 110.757 14.2252L110.862 13.9944C110.878 13.956 110.895 13.9176 110.91 13.8794L110.999 13.6516C111.41 12.5236 111.353 11.5893 110.183 12.2577L110.024 12.3448C107.667 13.5708 104.689 12.586 104.684 12.1373C104.684 12.1014 104.698 12.0573 104.727 12.0066L104.781 11.9257C104.835 11.8543 104.912 11.7736 105.012 11.6863L105.144 11.5785L105.299 11.4654C105.326 11.4462 105.355 11.4268 105.384 11.4072L105.573 11.2882C105.606 11.2681 105.641 11.2479 105.676 11.2276L105.899 11.105L106.146 10.9813C106.275 10.9194 106.413 10.8575 106.559 10.7962L106.865 10.6745C106.971 10.6343 107.08 10.5946 107.194 10.5555L107.547 10.4401C108.704 10.0819 110.224 9.79526 112.131 9.73143L112.972 9.70742L113.857 9.68886C112.543 15.759 111.283 23.7138 111.21 30.6198L111.211 30.6987L111.205 31.4424L111.211 31.9388L111.222 32.2391C111.274 33.1984 111.469 33.7357 112.11 33.7307C112.747 34.5489 113.528 34.8105 113.755 34.8074C113.909 34.8059 113.986 34.4988 114.024 34.049L114.041 33.7905L114.052 33.5095L114.057 33.212L114.057 32.7475L114.05 31.9141L114.05 31.4079C114.099 26.8365 114.768 22.0748 115.619 17.7936L115.835 16.7337L116.058 15.6962C116.095 15.5252 116.133 15.3553 116.171 15.1865L116.399 14.1868L116.63 13.2154L116.862 12.2744L117.093 11.3662L117.321 10.4932L117.546 9.65771C117.863 9.65732 118.181 9.65738 118.498 9.6578L119.777 9.66133L124.234 9.68917L126.283 9.69624L127.114 9.69011L127.486 9.68159C128.493 9.64784 129.64 8.61495 130.535 7.56973L130.784 7.27161L131.016 6.97794L131.231 6.69382C131.265 6.64755 131.299 6.60189 131.331 6.55695L131.516 6.29676C131.545 6.25511 131.573 6.2144 131.6 6.17472L131.749 5.94997L131.924 5.67072L132.005 5.5306L132.055 5.43329C132.066 5.40855 132.072 5.3918 132.071 5.38389C132.07 5.21775 131.752 4.69443 131.556 4.84291C131.519 4.87087 131.483 4.89833 131.446 4.92532L131.225 5.08156C131.188 5.10666 131.151 5.1313 131.114 5.15549L130.892 5.29523L130.668 5.42448C130.593 5.46587 130.517 5.50558 130.44 5.54367L130.207 5.6532C130.129 5.68815 130.05 5.72156 129.969 5.75349L129.724 5.84495C129.683 5.85948 129.641 5.87366 129.599 5.8875L129.341 5.96648L129.074 6.03767L128.796 6.10147L128.506 6.15829L128.203 6.20856L127.886 6.25267L127.554 6.29105L127.205 6.32411L126.648 6.36462L126.047 6.39547L125.621 6.41136L124.94 6.42921L124.205 6.44113L123.413 6.44849L118.456 6.46584L118.594 6.00479L119.353 3.52092L119.42 3.28175L119.433 3.22073L119.435 3.20337C119.438 2.97286 119.386 2.78621 119.181 2.50054L119.065 2.34879L118.922 2.17657C118.895 2.14594 118.867 2.11429 118.838 2.08154L118.647 1.87117L118.161 1.35683C118.077 1.26547 117.999 1.17876 117.927 1.0967L117.729 0.864421L117.354 0.405113L117.237 0.269745ZM171.9 1.60945C171.727 1.43073 171.591 1.34287 171.403 1.34464C171.322 1.34536 171.21 1.4422 171.075 1.62774L170.969 1.78342C170.95 1.8121 170.932 1.84213 170.913 1.87351L170.794 2.07777L170.668 2.31355C170.647 2.35544 170.625 2.39861 170.603 2.44305L170.467 2.7248L170.324 3.03634L170.177 3.37697L170.024 3.74598L169.787 4.3512L169.625 4.78814L169.459 5.25103L169.291 5.73917L169.122 6.25187C167.04 6.24814 164.958 6.25714 162.877 6.27887C160.036 6.30794 158.602 8.3161 158.345 9.49773C158.341 9.88815 158.813 9.87569 158.951 9.77082C159.636 9.25372 161.12 9.06059 162.574 9.04502C163.079 9.04003 163.613 9.03869 164.168 9.04038L165.303 9.04761C165.496 9.04943 165.691 9.05154 165.887 9.05391L167.077 9.0712L168.286 9.09382C168.151 9.59949 168.018 10.1239 167.888 10.6669L167.705 11.2175L167.115 12.9697L166.326 15.2567L165.707 17.006L165.041 18.8349L164.706 19.7339L164.347 20.6752L163.901 21.8151L163.549 22.6829L163.206 23.4983L162.957 24.0684L162.716 24.5972L162.56 24.9242L162.41 25.2291L162.264 25.5104L162.124 25.7666C162.101 25.8071 162.079 25.8465 162.057 25.8848L161.926 26.1004L161.802 26.2871C161.601 26.5734 161.43 26.7329 161.298 26.7342C160.965 26.7376 160.927 25.9914 161.059 24.8592L161.113 24.4442L161.179 24.0007L161.256 23.5322C161.27 23.4522 161.285 23.3714 161.299 23.2897L161.392 22.7905L161.493 22.2752L161.658 21.48L161.835 20.6686L162.082 19.5824L162.396 18.2575L163.101 15.3651L163.276 14.6183L163.343 14.3051L163.368 14.1598L163.378 14.0696C163.385 13.3718 162.861 11.7322 161.686 11.7437C160.151 11.7594 158.612 13.2879 157.293 15.1809L156.981 15.6416C156.725 16.0304 156.478 16.4301 156.242 16.8315L155.965 17.3134C155.829 17.5542 155.697 17.7943 155.571 18.0317L155.323 18.5023L155.089 18.9622L154.869 19.4079L154.664 19.8358L154.384 20.4368L154.141 20.9779L153.824 21.7146L153.561 22.3629L154.786 16.3875L155.108 14.7189L155.189 14.2475L155.211 14.095L155.219 14.0052C155.222 13.6992 155.052 13.437 154.848 13.1776L154.578 12.8424L154.491 12.728C154.463 12.6893 154.437 12.6484 154.412 12.606L154.269 12.3395L154.192 12.2038C154.001 11.8906 153.716 11.6122 152.985 11.6201C152.909 11.6208 152.819 11.735 152.719 11.9437L152.641 12.1178L152.559 12.3255L152.474 12.5652L152.386 12.835L152.294 13.1332L152.152 13.63L152.006 14.1807L151.855 14.7793L151.702 15.42L151.547 16.0967L151.392 16.8035C151.371 16.8634 151.349 16.9244 151.326 16.9863L151.184 17.3696L151.028 17.7742L150.859 18.1976L150.583 18.8626L150.386 19.3222L150.071 20.0294L149.85 20.5092L149.621 20.9927L149.384 21.4773L149.142 21.9606L148.893 22.44L148.64 22.9129L148.382 23.3769L148.122 23.8294L147.859 24.268C147.815 24.3398 147.771 24.4109 147.727 24.4812L147.461 24.894C146.444 26.4391 145.417 27.5363 144.584 27.5452L144.532 27.5421L144.468 27.531L144.392 27.5104L144.307 27.4787L144.213 27.4345L144.112 27.3763C144.095 27.3653 144.077 27.3537 144.059 27.3414L143.951 27.2592C143.454 26.8503 142.858 25.8998 142.76 23.7884C142.741 23.3817 142.735 22.9745 142.743 22.5674C145.821 22.3348 149.803 18.6632 149.803 15.0726C149.803 13.3568 149.162 12.7256 148.587 12.5248L148.45 12.4845C148.405 12.4737 148.361 12.4652 148.318 12.4588L148.193 12.4456C147.838 12.132 147.327 11.8994 146.591 11.9077C144.098 11.9326 140.728 14.8068 139.72 19.7773L139.293 20.8886L138.807 22.1239L138.463 22.9765L138.111 23.8243L137.76 24.6435L137.501 25.2246L137.333 25.5906L137.169 25.936L137.01 26.2577C136.984 26.3092 136.958 26.3595 136.933 26.4087L136.783 26.6894L136.642 26.9389C136.39 27.3659 136.182 27.621 136.044 27.621C135.884 27.621 135.775 27.348 135.707 26.8973L135.673 26.6343C135.663 26.5412 135.655 26.4427 135.647 26.3396L135.629 26.0164L135.618 25.6682C135.616 25.6083 135.615 25.5475 135.614 25.4858L135.613 25.1066L135.617 24.711L135.628 24.3025L135.643 23.8843L135.676 23.2467L135.703 22.8198L135.735 22.3953L135.79 21.7706L135.851 21.1708L135.896 20.7904L135.967 20.2577L136.017 19.9328L136.068 19.6361L138.459 15.1537L138.964 14.1934L139.5 13.1587L140.151 11.8806L140.642 10.8887L140.987 10.1726L141.308 9.48728L141.506 9.05071L141.689 8.63257L141.858 8.23475L142.01 7.85912C142.034 7.79847 142.057 7.73882 142.08 7.68022L142.205 7.34143L142.31 7.02955C142.437 6.63248 142.509 6.31222 142.511 6.08885C142.539 3.54491 139.177 1.85657 138.487 1.86384C138.183 1.85895 137.898 2.01229 137.735 2.26879C137.65 2.32845 137.543 2.46595 137.418 2.67241L137.307 2.86605C137.269 2.93609 137.229 3.01155 137.188 3.09222L137.062 3.34968L136.928 3.63719L136.717 4.12205L136.569 4.47923C136.544 4.54093 136.519 4.60371 136.493 4.66753L136.26 5.26941L136.1 5.69993L135.937 6.15241L135.689 6.8696L135.438 7.6292L135.269 8.1571L135.018 8.97809L134.852 9.54302L134.687 10.1206L134.525 10.7096C134.498 10.8086 134.471 10.9081 134.445 11.0079L134.287 11.6116L134.134 12.2237L133.984 12.8427L133.841 13.4676L133.702 14.097L133.571 14.7297L133.446 15.3645L133.328 16.0001C133.31 16.106 133.291 16.212 133.273 16.3178L133.168 16.9524L133.073 17.5846L132.987 18.2133L132.911 18.8373L132.878 19.1471L131.79 21.6632L131.202 22.9881L130.707 24.0616L130.511 24.4739L130.221 25.0664L130.032 25.4405L129.847 25.795L129.666 26.1275L129.491 26.4355L129.322 26.7166C129.295 26.761 129.268 26.8043 129.241 26.8462L129.082 27.0823C128.799 27.4855 128.556 27.722 128.374 27.7238C128.098 27.7267 127.998 27.4355 127.968 26.8552L127.959 26.5889L127.957 26.1231L127.965 25.5621C128.015 23.3782 128.274 21.4661 128.61 19.837L128.732 19.2737L128.858 18.7341L128.989 18.2182L129.123 17.7261L129.257 17.2579L129.392 16.8138L129.526 16.3938L129.657 15.9981L129.846 15.4502L130.359 14.0248L130.461 13.7189L130.512 13.5464L130.548 13.3993L130.566 13.2777L130.569 13.2264C130.574 12.7862 127.426 12.5183 126.947 14.6541L126.954 14.5909L126.962 14.4705L126.963 14.3001L126.956 14.1643L126.941 14.0145C126.848 13.3142 126.42 12.2918 124.703 12.3096C121.972 12.3376 116.679 17.195 116.679 25.6834C116.679 27.5433 117.026 28.4235 117.451 28.9568L117.564 29.0884C117.583 29.1092 117.602 29.1294 117.621 29.1491L117.738 29.2618C117.757 29.2797 117.776 29.2972 117.796 29.3144L117.913 29.4138L118.311 29.7326L118.417 29.8257L118.585 29.9875L118.795 30.1841C119.255 30.5981 119.541 30.7072 120.331 30.6986C121.513 30.6869 122.699 29.2523 123.511 28.0002L123.714 27.6788C123.746 27.6262 123.777 27.5743 123.808 27.5231L123.983 27.226L124.137 26.953L124.268 26.7104L124.42 26.4174L124.545 26.1652L124.583 26.4367L124.667 26.9561L124.724 27.2744L124.792 27.6115L124.868 27.9521C125.016 28.5701 125.207 29.1283 125.423 29.2024C125.536 29.2411 125.63 29.3232 125.728 29.4273L125.991 29.7208C126.305 30.0563 126.77 30.4215 127.795 30.411C128.668 30.4023 129.554 29.2404 130.402 27.6658L130.613 27.264L130.822 26.8476L131.03 26.4191L131.235 25.9811L131.538 25.312L131.83 24.6482C131.915 24.4531 131.999 24.2583 132.082 24.0646L132.569 22.9235L132.547 23.2644L132.531 23.6289L132.52 24.0117L132.514 24.6085L132.519 25.2165L132.529 25.6192L132.544 26.0136L132.575 26.5779L132.602 26.9283L132.632 27.2517C132.638 27.3031 132.643 27.3531 132.649 27.4017L132.686 27.6747C132.744 28.0555 132.816 28.3006 132.898 28.3291C133.026 28.373 133.142 28.5197 133.271 28.7149L133.51 29.0867C133.881 29.6518 134.414 30.3189 135.465 30.3082C136.073 30.3021 136.75 29.5825 137.427 28.4939L137.631 28.1566L137.834 27.7992C137.867 27.7381 137.901 27.6762 137.935 27.6136L138.136 27.23C138.17 27.1648 138.203 27.0989 138.237 27.0325L138.436 26.6273C138.469 26.5587 138.502 26.4897 138.535 26.4201L138.731 25.998L139.02 25.3492L139.209 24.9092L139.485 24.2432C139.734 27.1755 140.697 28.9594 141.658 28.9501C141.784 28.9485 141.908 29.0488 142.045 29.1908L142.309 29.4787C142.593 29.7858 142.948 30.1117 143.456 30.1068C145.232 30.0886 146.889 28.4651 148.316 26.3564L148.589 25.9425C148.724 25.7328 148.857 25.5193 148.988 25.3029L149.246 24.8666L149.497 24.4245L149.743 23.9783L149.981 23.53L150.213 23.0813C150.196 23.1841 150.179 23.285 150.163 23.3842L150.03 24.2297L149.919 24.9855L149.831 25.6573L149.784 26.0616L149.746 26.433L149.718 26.7732L149.698 27.0842C149.695 27.1337 149.693 27.182 149.691 27.2292L149.684 27.4995C149.674 28.3956 149.902 29.2647 150.43 29.4858L150.753 29.6211L151.335 29.8612L151.594 29.9626L151.833 30.0493C152.63 30.3251 153.037 30.2993 153.044 29.6416L153.049 29.4273C153.114 27.7698 153.706 25.7745 154.529 23.7725L154.749 23.2503C154.786 23.1633 154.824 23.0763 154.862 22.9895L155.096 22.4692L155.337 21.952L155.584 21.439L155.837 20.9316L156.093 20.4311L156.353 19.9387L156.614 19.4559L156.876 18.9838L157.137 18.5239L157.397 18.0773L157.781 17.4355L158.154 16.8312L158.512 16.2689L158.853 15.7529L159.171 15.2876L159.463 14.8775L159.641 14.6369L159.804 14.4241L159.952 14.2404L160.083 14.087L160.195 13.9654C160.299 13.86 160.373 13.8042 160.414 13.8037C160.489 13.803 160.49 13.9262 160.435 14.1545L160.391 14.3221L160.295 14.6292L160.17 14.9994L159.847 15.9123L159.384 17.2309L159.098 18.0875L158.953 18.54L158.809 19.0069L158.666 19.487L158.527 19.979C158.504 20.0619 158.481 20.1453 158.458 20.2291L158.326 20.7368C158.304 20.8222 158.282 20.9079 158.261 20.994L158.138 21.5145C158.098 21.6893 158.06 21.8652 158.023 22.042L157.917 22.5753L157.821 23.1131C157.657 24.1025 157.551 25.1084 157.54 26.0967C157.525 27.4881 157.804 28.7798 158.538 29.1183C158.725 29.2035 158.901 29.2975 159.071 29.3925L159.566 29.6727C159.997 29.9107 160.411 30.1007 160.88 30.0953C161.294 30.0914 161.827 29.5574 162.412 28.69L162.609 28.3888L162.81 28.0645L163.013 27.7188L163.218 27.3532C163.252 27.2907 163.287 27.2275 163.321 27.1635L163.529 26.7712L163.737 26.3632L163.945 25.941L164.257 25.2846L164.464 24.8341L164.669 24.3751L164.871 23.9092L165.169 23.201L165.368 22.7142C165.696 21.9014 166.005 21.0834 166.282 20.2965C166.113 22.068 166.017 23.8458 165.995 25.6253L165.99 26.0366L165.989 26.617L165.996 26.9015C166.018 27.4581 166.084 27.923 166.268 27.9865C166.395 28.0303 166.511 28.1771 166.64 28.3724L166.88 28.7443C167.251 29.3096 167.784 29.9769 168.834 29.9655C169.422 29.9655 170.178 29.1346 170.983 27.8859L171.214 27.5182C172.075 29.3052 174.181 30.1732 176.4 29.8804C177.99 29.6717 180.133 28.3094 180.59 26.187L181.1 24.1008L181.472 22.6696L181.611 22.1499L181.909 21.074L182.227 19.9797L182.391 19.437L182.558 18.9034L182.726 18.3835L182.896 17.8817L183.066 17.4026C183.094 17.3249 183.122 17.2484 183.151 17.173L183.319 16.7366C183.768 15.6164 184.197 14.8601 184.541 14.8566C184.839 14.8536 184.944 15.2175 184.927 15.8443L184.913 16.1089C184.912 16.1316 184.91 16.1546 184.908 16.1779C184.906 16.202 184.904 16.2265 184.902 16.2512L184.871 16.555C184.865 16.6077 184.858 16.6614 184.851 16.7161L184.778 17.2342L184.718 17.6066L184.578 18.4098L184.101 20.9327L183.919 21.9292L183.746 22.9493L183.665 23.4644L183.589 23.981L183.52 24.4975L183.457 25.0125L183.402 25.5245L183.357 26.0321L183.322 26.5336C183.302 26.8657 183.29 27.1928 183.286 27.513C183.279 28.2118 184.655 29.842 185.831 29.8295C188.037 29.807 189.723 27.1706 190.838 24.6245L191.04 24.1488L191.229 23.6792C191.26 23.6017 191.289 23.5246 191.319 23.448L191.487 22.9949L191.642 22.5578L191.784 22.1407L191.911 21.7475L192.076 21.2111L192.21 20.7508L192.339 20.2786L192.427 19.93L192.366 22.1973L192.303 24.3429L192.236 26.3672L192.162 28.271L192.098 29.7076L192.027 31.0678L191.969 32.0379L191.886 33.2651L191.793 34.4167L191.717 35.231L191.636 36.0031L191.578 36.4945L191.517 36.9672L191.453 37.4213L191.386 37.8568L191.316 38.2739C191.304 38.3418 191.292 38.409 191.279 38.4754L191.204 38.8647L191.125 39.2356L191.042 39.588C191.028 39.6453 191.014 39.7017 190.999 39.7574L190.911 40.0823L190.818 40.389C190.787 40.4882 190.755 40.5843 190.722 40.6774L190.621 40.9476C190.122 42.2097 189.471 42.8351 188.604 42.8441C186.994 42.8597 186.25 40.7207 186.194 39.6668C186.07 37.3849 186.954 36.2791 187.719 35.7528L187.875 35.6519L188.025 35.5665L188.168 35.4952L188.3 35.4369L188.421 35.3905L188.526 35.3548L188.653 35.3185L188.763 35.2943C189.079 35.1344 189.341 34.6338 189.535 34.1232L189.635 33.8457C189.65 33.8 189.665 33.7546 189.679 33.71L189.758 33.4519L189.821 33.2217L189.888 32.9547L189.922 32.8075C189.927 32.4171 189.454 32.4295 189.316 32.5344C188.631 33.0515 187.148 33.2457 185.694 33.2602L184.852 33.2579L183.839 33.2428L170.315 32.9193L161.906 32.7506L158.121 32.6928L153.276 32.6392L150.829 32.6224L148.16 32.6129L146.321 32.6123L143.279 32.6233L140.875 32.644L139.688 32.6585L137.346 32.6967L135.624 32.7337L133.936 32.7783L132.287 32.8309L131.212 32.8705L130.156 32.914L128.614 32.9866L127.615 33.0401L126.641 33.0978L125.693 33.1599L124.772 33.2263L123.88 33.2974L123.017 33.373L122.186 33.4535C121.778 33.4949 121.383 33.5382 121 33.5833L120.252 33.6762C120.008 33.708 119.771 33.7406 119.539 33.7742C118.542 33.9184 117.384 35.0068 116.446 36.1229L116.184 36.4418L115.936 36.7574L115.704 37.065L115.49 37.3598L115.296 37.6372L115.123 37.8923L114.91 38.2229L114.757 38.4767L114.691 38.5953L114.658 38.668L114.653 38.6856C114.651 38.8496 114.94 39.3054 115.181 39.2286C115.605 39.0929 116.059 38.9629 116.544 38.8384L117.139 38.6916C117.342 38.6435 117.549 38.5963 117.761 38.5499L118.411 38.4134C118.632 38.3687 118.857 38.3249 119.086 38.2818L119.787 38.1552L120.513 38.0333C120.636 38.0134 120.76 37.9937 120.884 37.9742L121.645 37.8594L122.429 37.7492C122.561 37.7312 122.695 37.7134 122.829 37.6957L123.645 37.5922L124.482 37.493L125.34 37.3981L126.216 37.3073L127.566 37.1788L128.955 37.0591L130.381 36.948L131.351 36.8785L132.335 36.8126L133.838 36.7202L135.369 36.6353L137.45 36.5333L139.038 36.4648L141.186 36.3834L142.271 36.3468L144.462 36.2814L147.229 36.2131L149.459 36.1684L152.816 36.1163L155.528 36.0857L157.002 36.0728L160.66 36.0508L162.828 36.0435L166.377 36.0389L179.268 36.0533L183.072 36.044C182.594 36.8331 182.334 37.7396 182.383 38.643C182.517 41.1267 184.746 44.275 188.665 44.2348C190.901 44.212 192.413 42.2038 193.457 38.9455L193.606 38.4598C193.631 38.3774 193.655 38.2943 193.679 38.2105L193.818 37.699C193.864 37.5257 193.908 37.3497 193.952 37.171L194.079 36.6269C194.1 36.5349 194.12 36.4422 194.141 36.3489L194.259 35.7817L194.372 35.1997L194.48 34.6035L194.582 33.9935L194.679 33.3702L194.772 32.7342L194.859 32.0861L194.942 31.4262L195.021 30.7551L195.131 29.7286L195.2 29.0318L195.295 27.9691L195.355 27.2497L195.438 26.1556L195.489 25.4169L195.584 23.9195L195.669 22.3989L195.762 20.4716L195.849 18.4256L195.917 16.6609L195.999 14.331L195.999 14.0915C195.983 13.2873 195.8 12.456 195.12 12.4632L194.955 12.4607C194.413 12.4383 193.932 12.2804 193.527 12.0975L193.294 11.9856C193.256 11.9668 193.22 11.9479 193.184 11.9291L192.979 11.8181L192.708 11.6668L192.554 11.5838C192.242 11.4242 192.082 11.4088 192.102 11.78C192.148 12.6391 192.091 13.6001 191.954 14.613L191.88 15.1236C191.853 15.295 191.824 15.4677 191.793 15.6414L191.694 16.1651L191.585 16.6934C191.566 16.7817 191.546 16.8702 191.526 16.9588L191.402 17.4912L191.268 18.0247C191.245 18.1136 191.222 18.2025 191.198 18.2914L191.052 18.8238L190.899 19.3539C190.873 19.442 190.846 19.5299 190.82 19.6176L190.656 20.1414L190.488 20.6594L190.314 21.1701L190.137 21.6722C190.107 21.7551 190.077 21.8375 190.047 21.9196L189.864 22.4061L189.679 22.8805L189.493 23.3415C189.462 23.4171 189.431 23.4921 189.399 23.5665L189.212 24.0046L189.024 24.4258C188.993 24.4945 188.962 24.5624 188.931 24.6296L188.745 25.0228L188.561 25.3955L188.38 25.7465L188.202 26.0743L188.029 26.3776L187.86 26.6549L187.696 26.9049C187.322 27.4553 186.998 27.7712 186.766 27.7736C186.69 27.7743 186.672 27.6475 186.697 27.4126L186.72 27.2402L186.776 26.9246L186.886 26.4038L187.374 24.2547L187.609 23.1476L187.702 22.6771C188.118 20.5276 188.475 17.9564 188.342 15.4942C188.268 14.1028 187.903 12.8121 187.147 12.4757C186.955 12.3905 186.773 12.2965 186.596 12.2015L186.082 11.9212C185.636 11.683 185.209 11.4928 184.739 11.4976C184.366 11.5016 183.951 11.9388 183.52 12.6638L183.358 12.9488C183.304 13.0481 183.249 13.1517 183.194 13.2591L183.03 13.593L182.865 13.9487L182.699 14.3246L182.533 14.719L182.285 15.3413L182.038 15.9957L181.875 16.4467L181.712 16.9078L181.472 17.6142L181.237 18.3333L181.006 19.0595L180.85 19.5662C180.54 20.5789 180.25 21.5836 179.993 22.5102C179.963 22.4336 179.932 22.3567 179.9 22.2796L179.707 21.8137L179.301 20.8582L179.095 20.3656C178.381 18.6211 177.74 16.656 177.949 14.1724C178.007 14.1685 178.064 14.1644 178.118 14.1601L178.429 14.1312C179.699 13.9921 179.988 13.6619 180.005 12.7191L180.004 12.4905L179.996 12.239C179.99 12.1146 180.026 11.9851 180.059 11.861L180.084 11.7691L180.103 11.6866L180.114 11.6074L180.116 11.5323C180.102 11.3019 179.889 11.1449 179.028 11.1722L178.735 11.1871C177.299 11.2837 175.696 12.6429 175.771 13.2887L175.052 15.0687L173.744 18.2212L173.151 19.6244L172.537 21.0522L172.046 22.1763L171.565 23.2549L171.218 24.0177L170.887 24.7281L170.576 25.3747L170.383 25.7646L170.202 26.1177C170.173 26.1733 170.144 26.2272 170.116 26.2793L169.956 26.5707C169.93 26.6156 169.906 26.6586 169.882 26.6996L169.745 26.9217C169.596 27.1521 169.482 27.2794 169.414 27.2794C169.174 27.2794 169.057 26.9393 169.011 26.3743L168.996 26.1187C168.994 26.074 168.992 26.0281 168.991 25.9813L168.987 25.6882L168.989 25.3726L168.996 25.0365C169.197 19.6328 170.203 14.2892 171.981 9.18208L176.388 9.30138L177.948 9.33232L178.616 9.33471C179.645 9.32457 180.833 8.38251 181.779 7.40221L182.043 7.12186C182.086 7.07522 182.128 7.02868 182.169 6.98235L182.409 6.70756C182.448 6.66242 182.485 6.61768 182.522 6.57343L182.734 6.31463L182.924 6.07227L183.091 5.85099L183.232 5.65542L183.346 5.49019L183.429 5.35993L183.481 5.26929C183.493 5.24618 183.499 5.23046 183.499 5.22288C183.501 5.05986 183.18 4.53965 182.971 4.68086L182.565 4.95294L182.189 5.19301C182.149 5.21798 182.109 5.24239 182.069 5.26626L181.833 5.40303L181.602 5.52729C181.295 5.6849 180.992 5.81071 180.66 5.91084L180.405 5.98122C180.058 6.0689 179.673 6.13242 179.221 6.17792L178.868 6.20877L178.487 6.23343L178.073 6.25247L177.626 6.26649L177.14 6.27603L176.614 6.28169L175.528 6.28386L173.094 6.27056L173.74 4.71417L173.897 4.31612L173.932 4.21153L173.96 4.03408C173.971 3.90385 173.943 3.80422 173.807 3.63419L173.712 3.52292L173.587 3.38989L173.43 3.23027L172.866 2.6742C172.778 2.58472 172.696 2.4998 172.621 2.41943L172.414 2.19195L172.022 1.74208L171.9 1.60945ZM124.697 14.1549C123.18 14.1724 120.521 18.9103 120.446 26.4144C120.438 27.2212 120.599 28.1464 120.874 28.1433C121.411 28.137 122.123 27.2896 122.783 26.0126L122.954 25.67C122.982 25.6113 123.01 25.552 123.038 25.4919L123.204 25.123L123.365 24.7388C123.524 24.3474 123.675 23.9352 123.813 23.5097L123.947 23.0799C124.358 21.7066 124.634 20.2231 124.647 18.8615C124.65 18.632 124.754 18.3717 124.893 18.0705L125.119 17.5871C125.354 17.0706 125.589 16.4515 125.597 15.6967C125.607 14.7268 125.231 14.3666 124.961 14.2331L124.876 14.1965C124.862 14.1916 124.849 14.1873 124.837 14.1835L124.771 14.1661L124.697 14.1549ZM175.402 18.9822L175.652 18.2229C175.745 19.0157 175.871 19.802 175.999 20.5648L176.154 21.468L176.3 22.3423C176.415 23.057 176.51 23.735 176.555 24.3595C176.687 26.1963 176.069 28.0747 174.8 28.0747C173.596 28.0747 173.402 26.8208 173.416 25.9252L173.422 25.7327L173.44 25.4747L173.463 25.2654L173.497 25.0407L173.586 25.0601L173.751 25.0869C173.773 25.0898 173.797 25.0926 173.821 25.0952L173.976 25.1075C174.058 25.1117 174.147 25.1124 174.238 25.1071C174.765 25.076 175.455 24.5879 175.455 23.4593C175.455 22.5445 175.033 21.9495 174.451 21.7387C174.491 21.628 174.53 21.5178 174.569 21.4083L174.797 20.761L175.115 19.8352L175.402 18.9822ZM146.623 13.4393C145.372 13.2109 143.475 16.4121 143.095 21.1958C146.019 20.525 147.591 13.8183 146.623 13.4393ZM139.667 5.55064C139.719 5.49037 139.763 5.46081 139.799 5.46081C140.055 5.46081 140.189 5.97479 140.119 6.6466C140.104 6.79317 140.072 6.97374 140.027 7.18302L139.949 7.5178L139.851 7.89168C139.833 7.95703 139.815 8.02384 139.796 8.09204L139.672 8.51712L139.534 8.97137L139.381 9.45084C139.355 9.53263 139.328 9.6153 139.3 9.69878L139.13 10.2086L138.95 10.7337L138.762 11.2702L138.469 12.0874L138.165 12.9078L137.858 13.7179L137.654 14.2458L137.452 14.7591L137.156 15.4933L137.268 14.7992L137.381 14.1324L137.493 13.4926L137.605 12.8794L137.717 12.2927L137.828 11.7322L137.938 11.1976L138.047 10.6887L138.154 10.2052L138.261 9.74679L138.365 9.3133L138.468 8.90444L138.569 8.51995L138.667 8.15957L138.764 7.82304L138.857 7.51011L138.993 7.08437L139.079 6.82927L139.163 6.59686L139.243 6.38688L139.319 6.19905L139.392 6.03314L139.461 5.88887L139.525 5.76598L139.585 5.66422C139.595 5.64901 139.605 5.63467 139.614 5.62119L139.667 5.55064Z" fill="black"></path> <path d="M0 572C0 565.373 5.37258 560 12 560H286C292.627 560 298 565.373 298 572V610C298 624.912 285.912 637 271 637H27C12.0883 637 0 624.912 0 610V572Z" fill="white"></path> <rect x="99" y="625" width="100" height="4" rx="2" fill="black"></rect> <path d="M34 582.067C33.3838 582.021 32.7182 582 32 582C25 582 23 584 23 591C23 598 25 600 32 600C39 600 41 598 41 591.529C41 590.605 40.9699 589.764 40.904 589" stroke="#0A0C10" stroke-width="1.5" stroke-linecap="round" stroke-linejoin="round"></path> <path d="M39 586C40.1046 586 41 585.105 41 584C41 582.895 40.1046 582 39 582C37.8954 582 37 582.895 37 584C37 585.105 37.8954 586 39 586Z" stroke="#0A0C10" stroke-width="1.5" stroke-linecap="round" stroke-linejoin="round"></path> <path d="M27 594C28.8 591.429 29.4351 589.995 30.6818 590.333C31.6023 590.583 31.6805 591.787 32.7273 592C34.1299 592.286 34.65 590.143 36 588" stroke="#0A0C10" stroke-width="1.5" stroke-linecap="round" stroke-linejoin="round"></path> <g opacity="0.3"> <path d="M108 586C108 588 107.667 589 105 589C102.333 589 102 588 102 586C102 584 102.375 583 105 583C107.625 583 108 584 108 586Z" stroke="#0A0C10" stroke-width="1.5" stroke-linecap="round" stroke-linejoin="round"></path> <path d="M108 596C108 598 107.667 599 105 599C102.333 599 102 598 102 596C102 594 102.375 593 105 593C107.625 593 108 594 108 596Z" stroke="#0A0C10" stroke-width="1.5" stroke-linecap="round" stroke-linejoin="round"></path> <path d="M118 586C118 588 117.667 589 115 589C112.333 589 112 588 112 586C112 584 112.375 583 115 583C117.625 583 118 584 118 586Z" stroke="#0A0C10" stroke-width="1.5" stroke-linecap="round" stroke-linejoin="round"></path> <path d="M118 596C118 598 117.667 599 115 599C112.333 599 112 598 112 596C112 594 112.375 593 115 593C117.625 593 118 594 118 596Z" stroke="#0A0C10" stroke-width="1.5" stroke-linecap="round" stroke-linejoin="round"></path> </g> <path d="M186 599C186 599 186.667 600 188 600C189.333 600 190 599 190 599" stroke="#0A0C10" stroke-width="1.5" stroke-linecap="round" stroke-linejoin="round"></path> <path d="M194 588C194 590 196 591 196 593C196 596 191.556 597 188 597C184.444 597 180 596 180 593C180 591 182 590.241 182 588C182 585 184 582 188 582C192 582 194 585 194 588Z" stroke="#0A0C10" stroke-width="1.5" stroke-linecap="round" stroke-linejoin="round"></path> <path d="M273 597.5C273 599.029 270 600 266 600C262 600 259 599.029 259 597.5C259 595.269 262.5 594 266 594C269.5 594 273 595.5 273 597.5Z" stroke="black" stroke-width="1.5" stroke-linecap="round" stroke-linejoin="round"></path> <path d="M266 591C268.485 591 270.5 588.985 270.5 586.5C270.5 584.015 268.485 582 266 582C263.515 582 261.5 584.015 261.5 586.5C261.5 588.985 263.515 591 266 591Z" stroke="black" stroke-width="1.5" stroke-linecap="round" stroke-linejoin="round"></path> </svg> 