<?xml version="1.0" encoding="UTF-8"?> <svg xmlns="http://www.w3.org/2000/svg" width="144" height="144" viewBox="0 0 144 144" fill="none"> <path fill-rule="evenodd" clip-rule="evenodd" d="M101.086 42.9136L101.64 41.1107C102.524 38.2312 103 35.1721 103 32C103 14.8792 89.1208 1 72 1C54.8792 1 41 14.8792 41 32C41 35.1721 41.4761 38.2312 42.3601 41.1107L42.9136 42.9136L41.1107 42.3601C38.2312 41.4761 35.1721 41 32 41C14.8792 41 1 54.8792 1 72C1 89.1208 14.8792 103 32 103C35.1721 103 38.2312 102.524 41.1107 101.64L42.9136 101.086L42.3601 102.889C41.4761 105.769 41 108.828 41 112C41 129.121 54.8792 143 72 143C89.1208 143 103 129.121 103 112C103 108.828 102.524 105.769 101.64 102.889L101.086 101.086L102.889 101.64C105.769 102.524 108.828 103 112 103C129.121 103 143 89.1208 143 72C143 54.8792 129.121 41 112 41C108.828 41 105.769 41.4761 102.889 42.3601L101.086 42.9136ZM102.923 40.2645C102.821 40.6472 102.712 41.0272 102.596 41.4042C102.973 41.2884 103.353 41.1795 103.736 41.0774C106.372 40.3746 109.142 40 112 40C129.673 40 144 54.3269 144 72C144 89.6731 129.673 104 112 104C109.142 104 106.372 103.625 103.736 102.923C103.353 102.821 102.973 102.712 102.596 102.596C102.712 102.973 102.821 103.353 102.923 103.736C103.625 106.372 104 109.142 104 112C104 129.673 89.6731 144 72 144C54.3269 144 40 129.673 40 112C40 109.142 40.3746 106.372 41.0774 103.736C41.1795 103.353 41.2884 102.973 41.4041 102.596C41.0272 102.712 40.6472 102.821 40.2645 102.923C37.6281 103.625 34.8578 104 32 104C14.3269 104 0 89.6731 0 72C0 54.3269 14.3269 40 32 40C34.8578 40 37.6281 40.3746 40.2645 41.0774C40.6472 41.1795 41.0272 41.2884 41.4041 41.4042C41.2884 41.0272 41.1795 40.6472 41.0774 40.2645C40.3746 37.6281 40 34.8578 40 32C40 14.3269 54.3269 0 72 0C89.6731 0 104 14.3269 104 32C104 34.8578 103.625 37.6281 102.923 40.2645Z" fill="#368048"></path> </svg> 