<?xml version="1.0" encoding="UTF-8"?> <svg xmlns="http://www.w3.org/2000/svg" width="36" height="35" viewBox="0 0 36 35" fill="none"> <path fill-rule="evenodd" clip-rule="evenodd" d="M11.9909 0.506884C13.4365 0.553724 14.7163 0.836506 15.5433 1.24451C16.4304 1.68212 17.2677 2.18346 18.0058 2.74028C18.738 2.18678 19.5664 1.68625 20.4424 1.24613L20.6407 1.64086L20.4424 1.24613C21.2579 0.836363 22.5329 0.553734 23.9753 0.506915C25.4274 0.459782 27.0936 0.649914 28.7021 1.22489C30.3131 1.80071 31.8743 2.76585 33.0943 4.27132C34.3161 5.77906 35.1744 7.80254 35.4174 10.4584C35.9226 15.9794 34.0788 20.2692 30.884 24.0276C27.7095 27.7621 23.1837 30.991 18.3101 34.4093C18.084 34.5679 17.7722 34.5132 17.6136 34.2871C17.4551 34.061 17.5098 33.7492 17.7358 33.5907C22.6325 30.1561 27.0455 26.9992 30.1221 23.3799C33.1783 19.7846 34.8977 15.7528 34.4216 10.5495C34.1945 8.06742 33.4005 6.23748 32.3174 4.90093C31.2324 3.56212 29.8358 2.6921 28.3655 2.16654C26.8929 1.64014 25.3544 1.46268 24.0077 1.50639C22.6514 1.55042 21.5334 1.81707 20.8913 2.13969C20.124 2.52522 19.4193 2.94731 18.7995 3.39676C19.611 4.13632 20.242 4.95605 20.5986 5.84034C20.9831 6.79346 21.045 7.8153 20.674 8.85705C20.3067 9.88846 19.5296 10.9 18.3065 11.8762C18.124 12.0219 17.8651 12.0219 17.6827 11.8762C16.4597 10.9002 15.6834 9.89072 15.3174 8.86156C14.9476 7.82181 15.0114 6.80279 15.397 5.85193C15.7569 4.96446 16.394 4.14125 17.212 3.39702C16.5878 2.9459 15.8766 2.524 15.1009 2.14131L15.322 1.69319L15.1009 2.14131C14.4433 1.81689 13.3168 1.55037 11.9586 1.50636C10.6093 1.46264 9.07265 1.64014 7.60363 2.1664C6.13702 2.6918 4.74557 3.56159 3.66471 4.90025C2.58558 6.23676 1.79469 8.06692 1.56752 10.5495C0.71556 19.8602 8.1437 26.5787 13.8371 30.6157C14.0623 30.7754 14.1155 31.0875 13.9557 31.3128C13.796 31.538 13.4839 31.5912 13.2587 31.4314C7.5719 27.3991 -0.336025 20.3783 0.571681 10.4584C0.81465 7.80312 1.66924 5.77984 2.88666 4.27204C4.10236 2.76638 5.65854 1.80098 7.26638 1.22499C8.8718 0.649859 10.5364 0.459754 11.9909 0.506884ZM18.006 4.02846C17.2175 4.7214 16.6334 5.46417 16.3237 6.22774C16.0227 6.97003 15.9783 7.73571 16.2596 8.52643C16.5172 9.25064 17.0599 10.0283 17.9946 10.8358C18.9292 10.0281 19.4731 9.24846 19.732 8.52159C20.0147 7.72767 19.9714 6.95859 19.6712 6.21441C19.3647 5.45436 18.7869 4.71565 18.006 4.02846Z" fill="#FFDA6B"></path> </svg> 