<?xml version="1.0" encoding="UTF-8"?> <svg xmlns="http://www.w3.org/2000/svg" width="144" height="144" viewBox="0 0 144 144" fill="none"> <path fill-rule="evenodd" clip-rule="evenodd" d="M72 1.40846L36.5627 36.5569L36.5569 36.5627L1.40846 72L36.5569 107.437L36.5627 107.443L72 142.592L107.437 107.443L107.443 107.437L142.592 72L107.443 36.5627L107.437 36.5569L72 1.40846ZM108.147 35.8527L72 0L35.8527 35.8527L0 72L35.8527 108.147L72 144L108.147 108.147L144 72L108.147 35.8527Z" fill="#368048"></path> <path fill-rule="evenodd" clip-rule="evenodd" d="M65 57.5C65 57.2239 65.2239 57 65.5 57H75.5C80.1944 57 84 60.8056 84 65.5C84 70.1944 80.1944 74 75.5 74H66V78H78.5C78.7761 78 79 78.2239 79 78.5C79 78.7761 78.7761 79 78.5 79H66V86.5C66 86.7761 65.7761 87 65.5 87C65.2239 87 65 86.7761 65 86.5V79H60C59.7239 79 59.5 78.7761 59.5 78.5C59.5 78.2239 59.7239 78 60 78H65V74H60C59.7239 74 59.5 73.7761 59.5 73.5C59.5 73.2239 59.7239 73 60 73H65V65C65 64.7239 65.2239 64.5 65.5 64.5C65.7761 64.5 66 64.7239 66 65V73H75.5C79.6421 73 83 69.6421 83 65.5C83 61.3579 79.6421 58 75.5 58H65.5C65.2239 58 65 57.7761 65 57.5Z" fill="#FFDA6B"></path> </svg> 