<?xml version="1.0" encoding="UTF-8"?> <svg xmlns="http://www.w3.org/2000/svg" width="144" height="144" viewBox="0 0 144 144" fill="none"> <path fill-rule="evenodd" clip-rule="evenodd" d="M72 143C111.212 143 143 111.212 143 72C143 32.7878 111.212 1 72 1C32.7878 1 1 32.7878 1 72C1 111.212 32.7878 143 72 143ZM72 144C111.765 144 144 111.765 144 72C144 32.2355 111.765 0 72 0C32.2355 0 0 32.2355 0 72C0 111.765 32.2355 144 72 144Z" fill="#368048"></path> <path fill-rule="evenodd" clip-rule="evenodd" d="M53.9999 69.9893L58.1525 77.2844L66.3738 78.9794L60.719 85.1831L61.5503 92.6529C61.5808 92.9273 61.3831 93.1746 61.1086 93.2051C60.8342 93.2357 60.5869 93.0379 60.5564 92.7635L59.675 84.8439L64.4513 79.6041L57.5073 78.1724L53.9999 72.0107L50.4925 78.1724L43.5485 79.6041L48.3248 84.8439L47.5406 91.8905L53.7938 89.0605C54.0453 88.9466 54.3416 89.0582 54.4554 89.3098C54.5693 89.5614 54.4576 89.8576 54.2061 89.9715L46.3524 93.5259L47.2809 85.1831L41.626 78.9794L49.8473 77.2844L53.9999 69.9893Z" fill="#FFDA6B"></path> <path fill-rule="evenodd" clip-rule="evenodd" d="M89.9999 69.9893L94.1525 77.2844L102.374 78.9794L96.719 85.1831L97.6474 93.5259L89.7938 89.9715C89.5422 89.8576 89.4305 89.5614 89.5444 89.3098C89.6582 89.0582 89.9545 88.9466 90.2061 89.0605L96.4592 91.8905L95.675 84.8439L100.451 79.6041L93.5073 78.1724L89.9999 72.0107L86.4925 78.1724L79.5485 79.6041L84.3248 84.8439L83.4434 92.7635C83.4129 93.0379 83.1656 93.2357 82.8912 93.2051C82.6167 93.1746 82.419 92.9273 82.4496 92.6529L83.2809 85.1831L77.626 78.9794L85.8473 77.2844L89.9999 69.9893Z" fill="#FFDA6B"></path> <path fill-rule="evenodd" clip-rule="evenodd" d="M71.9999 43.9893L76.1525 51.2844L84.3738 52.9794L78.719 59.1831L79.6474 67.5259L71.7938 63.9715C71.5422 63.8576 71.4305 63.5614 71.5444 63.3098C71.6582 63.0582 71.9545 62.9466 72.2061 63.0605L78.4592 65.8905L77.675 58.8439L82.4513 53.6041L75.5073 52.1724L71.9999 46.0107L68.4925 52.1724L61.5485 53.6041L66.3248 58.8439L65.4434 66.7635C65.4129 67.0379 65.1656 67.2357 64.8912 67.2051C64.6167 67.1746 64.419 66.9273 64.4496 66.6529L65.2809 59.1831L59.626 52.9794L67.8473 51.2844L71.9999 43.9893Z" fill="#FFDA6B"></path> </svg> 