<?xml version="1.0" encoding="UTF-8"?> <svg xmlns="http://www.w3.org/2000/svg" width="122" height="144" viewBox="0 0 122 144" fill="none"> <path fill-rule="evenodd" clip-rule="evenodd" d="M122 144V0L0 72L122 144ZM121 142.249V1.75133L1.96752 72L121 142.249Z" fill="#368048"></path> <path fill-rule="evenodd" clip-rule="evenodd" d="M54 68.1667C54 63.1041 58.1041 59 63.1667 59H84.8333C89.8959 59 94 63.1041 94 68.1667V76.8333C94 81.8959 89.8959 86 84.8333 86H74C71.3306 86 69.1667 83.8361 69.1667 81.1667V67.8818C69.1667 65.7519 71.5403 64.4816 73.3125 65.663L73.0506 66.0559L73.3125 65.663L80.396 70.3853C80.396 70.3853 80.396 70.3853 80.396 70.3853C81.927 71.4059 81.9885 73.6336 80.5168 74.7373L74.3 79.4C74.0791 79.5657 73.7657 79.5209 73.6 79.3C73.4343 79.0791 73.4791 78.7657 73.7 78.6L79.9168 73.9373L79.9168 73.9373C80.8367 73.2475 80.7981 71.8552 79.8413 71.2174L79.8413 71.2174L72.7578 66.4951L73.0352 66.079L72.7578 66.4951C71.6501 65.7566 70.1667 66.5506 70.1667 67.8818V81.1667C70.1667 83.2838 71.8828 85 74 85H84.8333C89.3436 85 93 81.3436 93 76.8333V68.1667C93 63.6563 89.3436 60 84.8333 60H63.1667C58.6563 60 55 63.6563 55 68.1667V76.8333C55 81.3436 58.6563 85 63.1667 85H65.3333C65.6095 85 65.8333 85.2239 65.8333 85.5C65.8333 85.7761 65.6095 86 65.3333 86H63.1667C58.1041 86 54 81.8959 54 76.8333V68.1667Z" fill="#FFDA6B"></path> </svg> 