<?xml version="1.0" encoding="UTF-8"?> <svg xmlns="http://www.w3.org/2000/svg" width="1472" height="914" viewBox="0 0 1472 914" fill="none"> <g clip-path="url(#clip0)"> <path d="M0.486649 0.00017035L0.486569 874.092" stroke="#537AFF"></path> <path d="M1470.96 1.34171C1470.96 242.89 1375.29 458.971 1205 629.771C1034.71 800.571 800.733 873.605 559.905 873.605" stroke="#537AFF"></path> <path d="M0.402634 349.092C0.402627 498.382 60.8286 626.093 166.078 731.657C271.327 837.221 411.06 873.606 559.905 873.606" stroke="#537AFF"></path> <path d="M348.785 0.486328C256.802 0.486325 168.321 37.9909 103.279 103.227C38.2375 168.463 0.402321 256.833 0.402313 349.091" stroke="#537AFF"></path> <path d="M559.463 215.296C559.463 158.981 537.917 105.542 498.216 65.722C458.514 25.9017 404.932 0.486333 348.785 0.486328" stroke="#537AFF"></path> <path d="M559.905 0.000530213L559.905 873.605" stroke="#537AFF"></path> <path d="M559.905 873.605L-7.09295e-06 873.605" stroke="#537AFF"></path> <path d="M1947.75 0.485901L-3.67414e-05 0.486158" stroke="#537AFF"></path> </g> <defs> <clipPath id="clip0"> <rect width="1472" height="914" fill="white" transform="translate(1472 914) rotate(-180)"></rect> </clipPath> </defs> </svg> 