<?xml version="1.0" encoding="UTF-8"?> <svg xmlns="http://www.w3.org/2000/svg" xmlns:xlink="http://www.w3.org/1999/xlink" width="3876px" height="750px" viewBox="0 0 3876 750"> <title>Group 6</title> <g id="Teacher" stroke="none" stroke-width="1" fill="none" fill-rule="evenodd"> <g id="Teacher-1200-(2)-Copy" transform="translate(-61.000000, -370.000000)"> <g id="Group-6" transform="translate(61.000000, 370.000000)"> <g id="Group-5" transform="translate(1938.000000, 374.500000) rotate(-10.000000) translate(-1938.000000, -374.500000) translate(11.000000, 334.000000)"> <rect id="Rectangle" fill="#000000" x="2.00088834e-11" y="-4.77484718e-12" width="3854" height="81"></rect> <path d="M1427.1433,52.0355202 L1439.3113,39.8315202 L1439.3113,52.0355202 L1447.3393,52.0355202 L1447.3393,32.6675202 L1439.1313,32.6675202 L1426.9633,44.8715202 L1426.9633,32.6675202 L1418.9353,32.6675202 L1418.9353,52.0355202 L1427.1433,52.0355202 Z M1476.4993,52.5755202 C1487.91773,52.5755202 1489.74076,47.9711376 1489.78255,45.3262536 L1489.7833,45.1955202 L1481.8633,45.1955202 C1481.7553,45.6635202 1480.8913,47.6795202 1475.5633,47.6795202 L1475.5273,47.6795202 C1471.0993,47.6795202 1469.1553,46.1675202 1468.6873,43.8995202 L1489.8913,43.8995202 L1489.8913,42.5675202 C1489.8913,37.8515202 1487.8033,32.1275202 1476.4273,32.1275202 L1474.2313,32.1275202 C1463.7553,32.1275202 1460.8033,36.9155202 1460.8033,41.8835202 L1460.8033,42.6755202 C1460.8033,47.7515202 1464.1153,52.5755202 1474.4473,52.5755202 L1476.4993,52.5755202 Z M1481.7913,39.9035202 L1468.8313,39.9035202 C1469.4433,37.8515202 1471.2433,36.6275202 1475.2753,36.6275202 L1475.3113,36.6275202 C1479.3793,36.6275202 1481.2513,37.8515202 1481.7913,39.9035202 Z M1533.8833,56.3555202 L1533.8833,46.7075202 L1529.9233,46.7075202 L1529.9233,32.6675202 L1521.8953,32.6675202 L1521.8953,46.7075202 L1514.9833,46.7075202 L1514.9833,32.6675202 L1506.9553,32.6675202 L1506.9553,46.7075202 L1500.0433,46.7075202 L1500.0433,32.6675202 L1492.0153,32.6675202 L1492.0153,52.0355202 L1526.2153,52.0355202 L1526.2153,56.3555202 L1533.8833,56.3555202 Z M1550.1913,52.5755202 C1561.60973,52.5755202 1563.43276,47.9711376 1563.47455,45.3262536 L1563.4753,45.1955202 L1555.5553,45.1955202 C1555.4473,45.6635202 1554.5833,47.6795202 1549.2553,47.6795202 L1549.2193,47.6795202 C1544.7913,47.6795202 1542.8473,46.1675202 1542.3793,43.8995202 L1563.5833,43.8995202 L1563.5833,42.5675202 C1563.5833,37.8515202 1561.4953,32.1275202 1550.1193,32.1275202 L1547.9233,32.1275202 C1537.4473,32.1275202 1534.4953,36.9155202 1534.4953,41.8835202 L1534.4953,42.6755202 C1534.4953,47.7515202 1537.8073,52.5755202 1548.1393,52.5755202 L1550.1913,52.5755202 Z M1555.4833,39.9035202 L1542.5233,39.9035202 C1543.1353,37.8515202 1544.9353,36.6275202 1548.9673,36.6275202 L1549.0033,36.6275202 C1553.0713,36.6275202 1554.9433,37.8515202 1555.4833,39.9035202 Z M1594.3993,52.5755202 C1607.75256,52.5755202 1610.08144,47.4331601 1610.13049,43.5239404 L1610.1313,43.0715202 C1610.1313,38.8595202 1607.4673,34.7915202 1596.2353,34.7915202 L1595.7673,34.7915202 C1587.7033,34.7915202 1585.4713,36.8075202 1584.6433,37.3835202 L1584.6433,37.2395202 C1584.6433,35.4035202 1585.4713,30.9755202 1593.2113,30.9755202 C1599.4753,30.9755202 1600.1593,33.0275202 1600.3393,33.3155202 L1608.9793,33.3155202 L1608.9793,33.1715202 C1608.9793,29.6075202 1606.0273,24.7835202 1593.9313,24.7835202 L1592.4913,24.7835202 C1579.5673,24.7835202 1576.2553,32.0915202 1576.2553,38.2475202 L1576.2553,39.1115202 C1576.2553,45.2675202 1579.0273,52.5755202 1592.8153,52.5755202 L1594.3993,52.5755202 Z M1593.5713,46.4915202 C1586.9473,46.4915202 1585.7233,44.6555202 1585.7233,43.3955202 L1585.7233,43.2875202 C1585.7233,41.9195202 1586.9113,40.4075202 1593.5713,40.4075202 C1600.32667,40.4075202 1601.31388,41.9711767 1601.34644,43.2891593 L1601.3473,43.5035202 C1601.3473,44.7635202 1600.4473,46.4915202 1593.5713,46.4915202 Z M1631.5513,52.5035202 C1647.30418,52.5035202 1649.57872,43.964889 1649.62264,39.2531171 L1649.6233,38.0315202 C1649.6233,33.2795202 1647.4273,24.7835202 1631.5513,24.7835202 L1629.9673,24.7835202 C1614.1273,24.7835202 1611.8953,33.2795202 1611.8953,38.0315202 L1611.8953,39.1115202 C1611.8953,43.8275202 1614.1273,52.5035202 1629.9673,52.5035202 L1631.5513,52.5035202 Z M1630.7593,45.9515202 C1622.5873,45.9515202 1620.6793,41.7395202 1620.6793,38.7155202 L1620.6793,38.2835202 C1620.6793,35.2595202 1622.4073,31.2995202 1630.7593,31.2995202 C1638.9673,31.2995202 1640.8393,35.2595202 1640.8393,38.2835202 L1640.8393,38.7875202 C1640.8393,41.8475202 1638.9313,45.9515202 1630.7593,45.9515202 Z M1664.8153,49.7675202 L1664.8153,43.4315202 L1671.6553,43.4315202 L1671.6553,38.4635202 L1664.8153,38.4635202 L1664.8153,32.1275202 L1658.7673,32.1275202 L1658.7673,38.4635202 L1651.9633,38.4635202 L1651.9633,43.4315202 L1658.7673,43.4315202 L1658.7673,49.7675202 L1664.8153,49.7675202 Z M1702.0753,52.0355202 C1709.3833,52.0355202 1711.9753,49.5875202 1711.9753,46.5635202 L1711.9753,46.2035202 C1711.9753,43.6475202 1709.4193,42.1715202 1706.7193,41.5955202 C1709.4193,40.9835202 1711.0753,39.6515202 1711.0753,37.5275202 L1711.0753,37.1675202 C1711.0753,34.2515202 1708.3033,32.6675202 1700.0233,32.6675202 L1685.6953,32.6675202 L1685.6953,52.0355202 L1702.0753,52.0355202 Z M1699.6273,39.8315202 L1693.7233,39.8315202 L1693.7233,36.9155202 L1699.5913,36.9155202 C1702.1473,36.9155202 1702.9033,37.3835202 1702.9033,38.2835202 L1702.9033,38.3915202 C1702.9033,39.3635202 1702.1113,39.8315202 1699.6273,39.8315202 Z M1700.3473,47.6795202 L1693.7233,47.6795202 L1693.7233,43.8995202 L1700.3113,43.8995202 C1702.6513,43.8995202 1703.8033,44.4755202 1703.8033,45.6275202 L1703.8033,45.8075202 C1703.8033,47.0675202 1702.6513,47.6795202 1700.3473,47.6795202 Z M1731.1633,52.0355202 C1736.9593,52.0355202 1739.8753,48.5435202 1739.8753,44.7995202 L1739.8753,44.4395202 C1739.8753,40.6595202 1736.9233,37.7075202 1731.1633,37.7075202 L1722.4873,37.7075202 L1722.4873,32.6675202 L1714.4593,32.6675202 L1714.4593,52.0355202 L1731.1633,52.0355202 Z M1749.8113,52.0355202 L1749.8113,32.6675202 L1741.7833,32.6675202 L1741.7833,52.0355202 L1749.8113,52.0355202 Z M1729.1473,47.1035202 L1722.4873,47.1035202 L1722.4873,42.6395202 L1729.1473,42.6395202 C1730.8753,42.6395202 1731.7033,43.6115202 1731.7033,44.7635202 L1731.7033,44.9435202 C1731.7033,46.0595202 1730.8753,47.1035202 1729.1473,47.1035202 Z M1759.0993,56.3555202 L1759.0993,52.0355202 L1776.5593,52.0355202 L1776.5593,56.3555202 L1784.2273,56.3555202 L1784.2273,46.7075202 L1780.2673,46.7075202 L1780.2673,32.6675202 L1755.9673,32.6675202 C1755.7873,41.0915202 1755.4273,44.2235202 1754.3833,46.7075202 L1751.4673,46.7075202 L1751.4673,56.3555202 L1759.0993,56.3555202 Z M1772.2393,46.7075202 L1762.0153,46.7075202 C1762.8433,44.5115202 1763.1313,41.8835202 1763.2753,37.8155202 L1772.2393,37.8155202 L1772.2393,46.7075202 Z M1794.4513,52.3955202 C1800.1393,52.3955202 1802.5873,50.4155202 1803.4153,49.3715202 C1803.7033,51.2075202 1804.9273,52.0355202 1806.4753,52.0355202 L1812.9913,52.0355202 L1812.9913,46.7795202 L1811.9473,46.7795202 C1811.1193,46.7795202 1810.9393,46.3835202 1810.9393,45.8075202 L1810.9393,38.3915202 C1810.9393,38.3246631 1810.93889,38.2574386 1810.93794,38.1899021 L1810.93334,37.9864124 C1810.9301,37.8842549 1810.92534,37.7815202 1810.91863,37.6783952 L1810.90246,37.4716802 C1810.66434,34.8826223 1809.01587,32.1275202 1798.9873,32.1275202 L1797.0073,32.1275202 C1787.4073,32.1275202 1785.7433,35.2848536 1785.49204,37.7816437 L1785.47423,37.9880987 C1785.45694,38.226988 1785.4513,38.4586313 1785.4513,38.6795202 L1785.4513,38.7515202 L1792.9033,38.7515202 C1793.0113,38.1035202 1793.1913,36.5915202 1797.9793,36.5915202 L1798.1593,36.5915202 C1802.8753,36.5915202 1803.1993,37.4555202 1803.1993,38.1755202 C1803.1993,38.7875202 1802.8753,39.0755202 1801.9753,39.1835202 L1793.1193,40.0115202 C1787.3233,40.5515202 1784.9833,42.2435202 1784.9833,45.8075202 L1784.9833,46.0595202 C1784.9833,49.3715202 1787.4673,52.3955202 1793.9833,52.3955202 L1794.4513,52.3955202 Z M1796.1433,48.0395202 C1793.4073,48.0395202 1792.6153,46.8875202 1792.6153,45.8435202 L1792.6153,45.8075202 C1792.6153,44.6915202 1793.4793,44.3315202 1795.5313,44.0075202 L1803.1993,42.8195202 L1803.1993,43.4315202 C1803.1993,45.7355202 1800.4273,48.0395202 1796.1433,48.0395202 Z M1840.4233,52.5755202 C1851.95167,52.5755202 1853.87927,47.1597009 1853.92254,42.7236688 L1853.9233,41.9195202 C1853.9233,37.5275202 1851.8353,32.1275202 1840.4233,32.1275202 L1838.5873,32.1275202 C1829.4073,32.1275202 1826.0233,35.9795202 1825.2673,39.8315202 L1822.6033,39.8315202 L1822.6033,32.6675202 L1814.5753,32.6675202 L1814.5753,52.0355202 L1822.6033,52.0355202 L1822.6033,44.9435202 L1825.3033,44.9435202 C1826.1673,48.7955202 1829.6233,52.5755202 1838.6233,52.5755202 L1840.4233,52.5755202 Z M1839.5233,47.3555202 C1834.4113,47.3555202 1833.2593,44.6195202 1833.2593,42.3515202 L1833.2593,42.1715202 C1833.2593,39.7235202 1834.3753,37.2755202 1839.5233,37.2755202 L1839.5593,37.2755202 C1844.5993,37.2755202 1845.7873,39.7595202 1845.7873,42.1715202 L1845.7873,42.3515202 C1845.7873,44.6195202 1844.6713,47.3555202 1839.5233,47.3555202 Z M1898.0593,56.3555202 L1898.0593,46.7075202 L1894.0993,46.7075202 L1894.0993,32.6675202 L1886.0713,32.6675202 L1886.0713,46.7075202 L1879.1593,46.7075202 L1879.1593,32.6675202 L1871.1313,32.6675202 L1871.1313,46.7075202 L1864.2193,46.7075202 L1864.2193,32.6675202 L1856.1913,32.6675202 L1856.1913,52.0355202 L1890.3913,52.0355202 L1890.3913,56.3555202 L1898.0593,56.3555202 Z M1908.0313,52.0355202 L1920.1993,39.8315202 L1920.1993,52.0355202 L1928.2273,52.0355202 L1928.2273,32.6675202 L1920.0193,32.6675202 L1907.8513,44.8715202 L1907.8513,32.6675202 L1899.8233,32.6675202 L1899.8233,52.0355202 L1908.0313,52.0355202 Z M1938.3433,52.0355202 L1943.9233,46.4915202 L1949.6113,52.0355202 L1958.6833,52.0355202 L1948.6393,42.0635202 L1958.3593,32.6675202 L1949.3593,32.6675202 L1944.2833,37.7435202 L1939.2073,32.6675202 L1929.7393,32.6675202 L1939.5313,42.2075202 L1929.4153,52.0355202 L1938.3433,52.0355202 Z M1972.4353,52.5755202 C1984.68015,52.5755202 1986.04958,46.7682535 1986.07881,44.0277456 L1986.0793,43.8635202 L1977.8353,43.8635202 C1977.6553,44.6195202 1976.8633,47.4275202 1971.4273,47.4275202 L1971.3193,47.4275202 C1966.6753,47.4275202 1965.1633,44.8355202 1965.1633,42.2435202 L1965.1633,41.9915202 C1965.1633,39.5435202 1966.6393,37.2035202 1971.3193,37.2035202 L1971.4273,37.2035202 C1976.9353,37.2035202 1977.6553,39.9395202 1977.8353,40.6955202 L1986.0793,40.6955202 L1986.0793,40.5875202 C1986.0793,37.9955202 1984.5673,32.1275202 1972.4713,32.1275202 L1970.4193,32.1275202 C1959.3673,32.1275202 1956.9553,37.5635202 1956.9553,41.8835202 L1956.9553,42.6035202 C1956.9553,46.9235202 1959.4033,52.5755202 1970.4553,52.5755202 L1972.4353,52.5755202 Z M1996.4473,52.0355202 L2002.1713,46.4915202 L2005.8793,46.4915202 L2005.8793,52.0355202 L2013.9073,52.0355202 L2013.9073,32.6675202 L1996.6993,32.6675202 C1991.0833,32.6675202 1987.8433,35.1155202 1987.8433,39.3275202 L1987.8433,39.6875202 C1987.8433,42.9635202 1989.9313,45.1235202 1993.7113,45.8795202 L1987.2673,52.0355202 L1996.4473,52.0355202 Z M2005.8793,41.5595202 L1998.8953,41.5595202 C1996.4113,41.5595202 1995.8713,40.5155202 1995.8713,39.5795202 L1995.8713,39.4355202 C1995.8713,38.5355202 1996.4113,37.4195202 1998.8593,37.4195202 L2005.8793,37.4195202 L2005.8793,41.5595202 Z M2036.1913,52.0355202 L2036.1913,37.9955202 L2046.3433,37.9955202 L2046.3433,52.0355202 L2054.3713,52.0355202 L2054.3713,32.6675202 L2028.1633,32.6675202 L2028.1633,52.0355202 L2036.1913,52.0355202 Z M2065.6753,58.8035202 L2065.6753,49.2995202 C2066.3233,50.0195202 2069.5633,52.5035202 2075.3233,52.5035202 L2075.8993,52.5035202 C2084.8273,52.5035202 2087.8513,47.6795202 2087.8513,42.6035202 L2087.8513,41.9195202 C2087.8513,36.5915202 2084.9353,32.1995202 2076.1513,32.1995202 L2075.5033,32.1995202 C2069.6353,32.1995202 2066.5393,34.6835202 2065.6753,35.4395202 L2065.6753,32.6675202 L2057.6473,32.6675202 L2057.6473,58.8035202 L2065.6753,58.8035202 Z M2073.0193,47.3915202 L2072.8393,47.3915202 C2067.9433,47.3915202 2065.6753,44.7635202 2065.6753,42.3515202 L2065.6753,42.2075202 C2065.6753,39.7235202 2067.8353,37.2035202 2072.8393,37.2035202 L2073.0193,37.2035202 C2078.2033,37.2035202 2079.6433,39.7235202 2079.6433,42.2075202 L2079.6433,42.3515202 C2079.6433,44.6915202 2078.2033,47.3915202 2073.0193,47.3915202 Z M2104.9153,52.5755202 C2116.33373,52.5755202 2118.15676,47.9711376 2118.19855,45.3262536 L2118.1993,45.1955202 L2110.2793,45.1955202 C2110.1713,45.6635202 2109.3073,47.6795202 2103.9793,47.6795202 L2103.9433,47.6795202 C2099.5153,47.6795202 2097.5713,46.1675202 2097.1033,43.8995202 L2118.3073,43.8995202 L2118.3073,42.5675202 C2118.3073,37.8515202 2116.2193,32.1275202 2104.8433,32.1275202 L2102.6473,32.1275202 C2092.1713,32.1275202 2089.2193,36.9155202 2089.2193,41.8835202 L2089.2193,42.6755202 C2089.2193,47.7515202 2092.5313,52.5755202 2102.8633,52.5755202 L2104.9153,52.5755202 Z M2110.2073,39.9035202 L2097.2473,39.9035202 C2097.8593,37.8515202 2099.6593,36.6275202 2103.6913,36.6275202 L2103.7273,36.6275202 C2107.7953,36.6275202 2109.6673,37.8515202 2110.2073,39.9035202 Z M2128.4593,52.0355202 L2128.4593,37.9955202 L2138.6113,37.9955202 L2138.6113,52.0355202 L2146.6393,52.0355202 L2146.6393,32.6675202 L2120.4313,32.6675202 L2120.4313,52.0355202 L2128.4593,52.0355202 Z M2165.4673,52.5755202 C2177.28192,52.5755202 2179.28211,47.158236 2179.32653,42.7218693 L2179.3273,41.9195202 C2179.3273,37.5275202 2177.2753,32.1275202 2165.4673,32.1275202 L2162.9113,32.1275202 C2151.6793,32.1275202 2149.0153,37.4555202 2149.0153,41.9195202 L2149.0153,42.5675202 C2149.0153,47.0315202 2151.7153,52.5755202 2162.9473,52.5755202 L2165.4673,52.5755202 Z M2164.2073,47.3555202 C2158.7353,47.3555202 2157.2233,44.6195202 2157.2233,42.3515202 L2157.2233,42.1715202 C2157.2233,39.7235202 2158.7353,37.2755202 2164.2073,37.2755202 L2164.2433,37.2755202 C2169.6433,37.2755202 2171.1913,39.7595202 2171.1913,42.1715202 L2171.1913,42.3515202 C2171.1913,44.6195202 2169.6793,47.3555202 2164.2073,47.3555202 Z M2186.9953,56.3555202 L2186.9953,52.0355202 L2204.4553,52.0355202 L2204.4553,56.3555202 L2212.1233,56.3555202 L2212.1233,46.7075202 L2208.1633,46.7075202 L2208.1633,32.6675202 L2183.8633,32.6675202 C2183.6833,41.0915202 2183.3233,44.2235202 2182.2793,46.7075202 L2179.3633,46.7075202 L2179.3633,56.3555202 L2186.9953,56.3555202 Z M2200.1353,46.7075202 L2189.9113,46.7075202 C2190.7393,44.5115202 2191.0273,41.8835202 2191.1713,37.8155202 L2200.1353,37.8155202 L2200.1353,46.7075202 Z M2222.3473,52.3955202 C2228.0353,52.3955202 2230.4833,50.4155202 2231.3113,49.3715202 C2231.5993,51.2075202 2232.8233,52.0355202 2234.3713,52.0355202 L2240.8873,52.0355202 L2240.8873,46.7795202 L2239.8433,46.7795202 C2239.0153,46.7795202 2238.8353,46.3835202 2238.8353,45.8075202 L2238.8353,38.3915202 C2238.8353,38.3246631 2238.83489,38.2574386 2238.83394,38.1899021 L2238.82934,37.9864124 C2238.8261,37.8842549 2238.82134,37.7815202 2238.81463,37.6783952 L2238.79846,37.4716802 C2238.56034,34.8826223 2236.91187,32.1275202 2226.8833,32.1275202 L2224.9033,32.1275202 C2215.3033,32.1275202 2213.6393,35.2848536 2213.38804,37.7816437 L2213.37023,37.9880987 C2213.35294,38.226988 2213.3473,38.4586313 2213.3473,38.6795202 L2213.3473,38.7515202 L2220.7993,38.7515202 C2220.9073,38.1035202 2221.0873,36.5915202 2225.8753,36.5915202 L2226.0553,36.5915202 C2230.7713,36.5915202 2231.0953,37.4555202 2231.0953,38.1755202 C2231.0953,38.7875202 2230.7713,39.0755202 2229.8713,39.1835202 L2221.0153,40.0115202 C2215.2193,40.5515202 2212.8793,42.2435202 2212.8793,45.8075202 L2212.8793,46.0595202 C2212.8793,49.3715202 2215.3633,52.3955202 2221.8793,52.3955202 L2222.3473,52.3955202 Z M2224.0393,48.0395202 C2221.3033,48.0395202 2220.5113,46.8875202 2220.5113,45.8435202 L2220.5113,45.8075202 C2220.5113,44.6915202 2221.3753,44.3315202 2223.4273,44.0075202 L2231.0953,42.8195202 L2231.0953,43.4315202 C2231.0953,45.7355202 2228.3233,48.0395202 2224.0393,48.0395202 Z M2258.8513,52.0355202 C2266.1593,52.0355202 2268.7513,49.5875202 2268.7513,46.5635202 L2268.7513,46.2035202 C2268.7513,43.6475202 2266.1953,42.1715202 2263.4953,41.5955202 C2266.1953,40.9835202 2267.8513,39.6515202 2267.8513,37.5275202 L2267.8513,37.1675202 C2267.8513,34.2515202 2265.0793,32.6675202 2256.7993,32.6675202 L2242.4713,32.6675202 L2242.4713,52.0355202 L2258.8513,52.0355202 Z M2256.4033,39.8315202 L2250.4993,39.8315202 L2250.4993,36.9155202 L2256.3673,36.9155202 C2258.9233,36.9155202 2259.6793,37.3835202 2259.6793,38.2835202 L2259.6793,38.3915202 C2259.6793,39.3635202 2258.8873,39.8315202 2256.4033,39.8315202 Z M2257.1233,47.6795202 L2250.4993,47.6795202 L2250.4993,43.8995202 L2257.0873,43.8995202 C2259.4273,43.8995202 2260.5793,44.4755202 2260.5793,45.6275202 L2260.5793,45.8075202 C2260.5793,47.0675202 2259.4273,47.6795202 2257.1233,47.6795202 Z M2279.6953,52.3955202 C2285.3833,52.3955202 2287.8313,50.4155202 2288.6593,49.3715202 C2288.9473,51.2075202 2290.1713,52.0355202 2291.7193,52.0355202 L2298.2353,52.0355202 L2298.2353,46.7795202 L2297.1913,46.7795202 C2296.3633,46.7795202 2296.1833,46.3835202 2296.1833,45.8075202 L2296.1833,38.3915202 C2296.1833,38.3246631 2296.18289,38.2574386 2296.18194,38.1899021 L2296.17734,37.9864124 C2296.1741,37.8842549 2296.16934,37.7815202 2296.16263,37.6783952 L2296.14646,37.4716802 C2295.90834,34.8826223 2294.25987,32.1275202 2284.2313,32.1275202 L2282.2513,32.1275202 C2272.6513,32.1275202 2270.9873,35.2848536 2270.73604,37.7816437 L2270.71823,37.9880987 C2270.70094,38.226988 2270.6953,38.4586313 2270.6953,38.6795202 L2270.6953,38.7515202 L2278.1473,38.7515202 C2278.2553,38.1035202 2278.4353,36.5915202 2283.2233,36.5915202 L2283.4033,36.5915202 C2288.1193,36.5915202 2288.4433,37.4555202 2288.4433,38.1755202 C2288.4433,38.7875202 2288.1193,39.0755202 2287.2193,39.1835202 L2278.3633,40.0115202 C2272.5673,40.5515202 2270.2273,42.2435202 2270.2273,45.8075202 L2270.2273,46.0595202 C2270.2273,49.3715202 2272.7113,52.3955202 2279.2273,52.3955202 L2279.6953,52.3955202 Z M2281.3873,48.0395202 C2278.6513,48.0395202 2277.8593,46.8875202 2277.8593,45.8435202 L2277.8593,45.8075202 C2277.8593,44.6915202 2278.7233,44.3315202 2280.7753,44.0075202 L2288.4433,42.8195202 L2288.4433,43.4315202 C2288.4433,45.7355202 2285.6713,48.0395202 2281.3873,48.0395202 Z M2314.1833,52.0355202 L2314.1833,37.9955202 L2322.2833,37.9955202 L2322.2833,32.6675202 L2298.0553,32.6675202 L2298.0553,37.9955202 L2306.1553,37.9955202 L2306.1553,52.0355202 L2314.1833,52.0355202 Z M2339.3113,52.5755202 C2350.72973,52.5755202 2352.55276,47.9711376 2352.59455,45.3262536 L2352.5953,45.1955202 L2344.6753,45.1955202 C2344.5673,45.6635202 2343.7033,47.6795202 2338.3753,47.6795202 L2338.3393,47.6795202 C2333.9113,47.6795202 2331.9673,46.1675202 2331.4993,43.8995202 L2352.7033,43.8995202 L2352.7033,42.5675202 C2352.7033,37.8515202 2350.6153,32.1275202 2339.2393,32.1275202 L2337.0433,32.1275202 C2326.5673,32.1275202 2323.6153,36.9155202 2323.6153,41.8835202 L2323.6153,42.6755202 C2323.6153,47.7515202 2326.9273,52.5755202 2337.2593,52.5755202 L2339.3113,52.5755202 Z M2344.6033,39.9035202 L2331.6433,39.9035202 C2332.2553,37.8515202 2334.0553,36.6275202 2338.0873,36.6275202 L2338.1233,36.6275202 C2342.1913,36.6275202 2344.0633,37.8515202 2344.6033,39.9035202 Z M2356.0153,52.0355202 C2360.0833,52.0355202 2362.1713,50.3075202 2362.8913,47.9675202 C2363.4673,46.0595202 2363.6833,43.3955202 2363.6833,37.9955202 L2371.4593,37.9955202 L2371.4593,52.0355202 L2379.4873,52.0355202 L2379.4873,32.6675202 L2356.4833,32.6675202 L2356.48275,33.5247636 C2356.47266,41.3051012 2356.32215,42.9775587 2356.08179,44.3321609 L2356.0424,44.5480184 C2356.03347,44.5957742 2356.02444,44.6435202 2356.0153,44.6915202 C2355.7273,46.2395202 2355.0793,46.7075202 2354.0353,46.7075202 L2353.6033,46.7075202 L2353.6033,52.0355202 L2356.0153,52.0355202 Z M2397.5593,52.5755202 C2408.97773,52.5755202 2410.80076,47.9711376 2410.84255,45.3262536 L2410.8433,45.1955202 L2402.9233,45.1955202 C2402.8153,45.6635202 2401.9513,47.6795202 2396.6233,47.6795202 L2396.5873,47.6795202 C2392.1593,47.6795202 2390.2153,46.1675202 2389.7473,43.8995202 L2410.9513,43.8995202 L2410.9513,42.5675202 C2410.9513,37.8515202 2408.8633,32.1275202 2397.4873,32.1275202 L2395.2913,32.1275202 C2384.8153,32.1275202 2381.8633,36.9155202 2381.8633,41.8835202 L2381.8633,42.6755202 C2381.8633,47.7515202 2385.1753,52.5755202 2395.5073,52.5755202 L2397.5593,52.5755202 Z M2402.8513,39.9035202 L2389.8913,39.9035202 C2390.5033,37.8515202 2392.3033,36.6275202 2396.3353,36.6275202 L2396.3713,36.6275202 C2400.4393,36.6275202 2402.3113,37.8515202 2402.8513,39.9035202 Z M2427.9793,31.0835202 C2433.9193,31.0835202 2435.6113,27.1595202 2435.6113,25.3235202 L2435.6113,25.2515202 L2429.6353,25.2515202 C2429.6353,25.6835202 2429.2753,27.0155202 2427.4393,27.0155202 C2425.5673,27.0155202 2425.2073,25.6835202 2425.2073,25.2515202 L2419.0873,25.2515202 L2419.0873,25.3235202 C2419.0873,27.1595202 2420.2753,31.0835202 2426.8273,31.0835202 L2427.9793,31.0835202 Z M2421.2833,52.0355202 L2433.4513,39.8315202 L2433.4513,52.0355202 L2441.4793,52.0355202 L2441.4793,32.6675202 L2433.2713,32.6675202 L2421.1033,44.8715202 L2421.1033,32.6675202 L2413.0753,32.6675202 L2413.0753,52.0355202 L2421.2833,52.0355202 Z" id="иеще60+выдающихсяпреподавателей" fill="#B1FDEB" fill-rule="nonzero"></path> </g> <g id="Group-5" transform="translate(1938.000000, 374.500000) rotate(5.000000) translate(-1938.000000, -374.500000) translate(-3.000000, 334.000000)"> <rect id="Rectangle" fill="#FFFFFF" x="-1.59161573e-11" y="-9.32232069e-12" width="3882" height="81"></rect> <path d="M1441.1433,52.0355202 L1453.3113,39.8315202 L1453.3113,52.0355202 L1461.3393,52.0355202 L1461.3393,32.6675202 L1453.1313,32.6675202 L1440.9633,44.8715202 L1440.9633,32.6675202 L1432.9353,32.6675202 L1432.9353,52.0355202 L1441.1433,52.0355202 Z M1490.4993,52.5755202 C1501.91773,52.5755202 1503.74076,47.9711376 1503.78255,45.3262536 L1503.7833,45.1955202 L1495.8633,45.1955202 C1495.7553,45.6635202 1494.8913,47.6795202 1489.5633,47.6795202 L1489.5273,47.6795202 C1485.0993,47.6795202 1483.1553,46.1675202 1482.6873,43.8995202 L1503.8913,43.8995202 L1503.8913,42.5675202 C1503.8913,37.8515202 1501.8033,32.1275202 1490.4273,32.1275202 L1488.2313,32.1275202 C1477.7553,32.1275202 1474.8033,36.9155202 1474.8033,41.8835202 L1474.8033,42.6755202 C1474.8033,47.7515202 1478.1153,52.5755202 1488.4473,52.5755202 L1490.4993,52.5755202 Z M1495.7913,39.9035202 L1482.8313,39.9035202 C1483.4433,37.8515202 1485.2433,36.6275202 1489.2753,36.6275202 L1489.3113,36.6275202 C1493.3793,36.6275202 1495.2513,37.8515202 1495.7913,39.9035202 Z M1547.8833,56.3555202 L1547.8833,46.7075202 L1543.9233,46.7075202 L1543.9233,32.6675202 L1535.8953,32.6675202 L1535.8953,46.7075202 L1528.9833,46.7075202 L1528.9833,32.6675202 L1520.9553,32.6675202 L1520.9553,46.7075202 L1514.0433,46.7075202 L1514.0433,32.6675202 L1506.0153,32.6675202 L1506.0153,52.0355202 L1540.2153,52.0355202 L1540.2153,56.3555202 L1547.8833,56.3555202 Z M1564.1913,52.5755202 C1575.60973,52.5755202 1577.43276,47.9711376 1577.47455,45.3262536 L1577.4753,45.1955202 L1569.5553,45.1955202 C1569.4473,45.6635202 1568.5833,47.6795202 1563.2553,47.6795202 L1563.2193,47.6795202 C1558.7913,47.6795202 1556.8473,46.1675202 1556.3793,43.8995202 L1577.5833,43.8995202 L1577.5833,42.5675202 C1577.5833,37.8515202 1575.4953,32.1275202 1564.1193,32.1275202 L1561.9233,32.1275202 C1551.4473,32.1275202 1548.4953,36.9155202 1548.4953,41.8835202 L1548.4953,42.6755202 C1548.4953,47.7515202 1551.8073,52.5755202 1562.1393,52.5755202 L1564.1913,52.5755202 Z M1569.4833,39.9035202 L1556.5233,39.9035202 C1557.1353,37.8515202 1558.9353,36.6275202 1562.9673,36.6275202 L1563.0033,36.6275202 C1567.0713,36.6275202 1568.9433,37.8515202 1569.4833,39.9035202 Z M1608.3993,52.5755202 C1621.75256,52.5755202 1624.08144,47.4331601 1624.13049,43.5239404 L1624.1313,43.0715202 C1624.1313,38.8595202 1621.4673,34.7915202 1610.2353,34.7915202 L1609.7673,34.7915202 C1601.7033,34.7915202 1599.4713,36.8075202 1598.6433,37.3835202 L1598.6433,37.2395202 C1598.6433,35.4035202 1599.4713,30.9755202 1607.2113,30.9755202 C1613.4753,30.9755202 1614.1593,33.0275202 1614.3393,33.3155202 L1622.9793,33.3155202 L1622.9793,33.1715202 C1622.9793,29.6075202 1620.0273,24.7835202 1607.9313,24.7835202 L1606.4913,24.7835202 C1593.5673,24.7835202 1590.2553,32.0915202 1590.2553,38.2475202 L1590.2553,39.1115202 C1590.2553,45.2675202 1593.0273,52.5755202 1606.8153,52.5755202 L1608.3993,52.5755202 Z M1607.5713,46.4915202 C1600.9473,46.4915202 1599.7233,44.6555202 1599.7233,43.3955202 L1599.7233,43.2875202 C1599.7233,41.9195202 1600.9113,40.4075202 1607.5713,40.4075202 C1614.32667,40.4075202 1615.31388,41.9711767 1615.34644,43.2891593 L1615.3473,43.5035202 C1615.3473,44.7635202 1614.4473,46.4915202 1607.5713,46.4915202 Z M1645.5513,52.5035202 C1661.30418,52.5035202 1663.57872,43.964889 1663.62264,39.2531171 L1663.6233,38.0315202 C1663.6233,33.2795202 1661.4273,24.7835202 1645.5513,24.7835202 L1643.9673,24.7835202 C1628.1273,24.7835202 1625.8953,33.2795202 1625.8953,38.0315202 L1625.8953,39.1115202 C1625.8953,43.8275202 1628.1273,52.5035202 1643.9673,52.5035202 L1645.5513,52.5035202 Z M1644.7593,45.9515202 C1636.5873,45.9515202 1634.6793,41.7395202 1634.6793,38.7155202 L1634.6793,38.2835202 C1634.6793,35.2595202 1636.4073,31.2995202 1644.7593,31.2995202 C1652.9673,31.2995202 1654.8393,35.2595202 1654.8393,38.2835202 L1654.8393,38.7875202 C1654.8393,41.8475202 1652.9313,45.9515202 1644.7593,45.9515202 Z M1678.8153,49.7675202 L1678.8153,43.4315202 L1685.6553,43.4315202 L1685.6553,38.4635202 L1678.8153,38.4635202 L1678.8153,32.1275202 L1672.7673,32.1275202 L1672.7673,38.4635202 L1665.9633,38.4635202 L1665.9633,43.4315202 L1672.7673,43.4315202 L1672.7673,49.7675202 L1678.8153,49.7675202 Z M1716.0753,52.0355202 C1723.3833,52.0355202 1725.9753,49.5875202 1725.9753,46.5635202 L1725.9753,46.2035202 C1725.9753,43.6475202 1723.4193,42.1715202 1720.7193,41.5955202 C1723.4193,40.9835202 1725.0753,39.6515202 1725.0753,37.5275202 L1725.0753,37.1675202 C1725.0753,34.2515202 1722.3033,32.6675202 1714.0233,32.6675202 L1699.6953,32.6675202 L1699.6953,52.0355202 L1716.0753,52.0355202 Z M1713.6273,39.8315202 L1707.7233,39.8315202 L1707.7233,36.9155202 L1713.5913,36.9155202 C1716.1473,36.9155202 1716.9033,37.3835202 1716.9033,38.2835202 L1716.9033,38.3915202 C1716.9033,39.3635202 1716.1113,39.8315202 1713.6273,39.8315202 Z M1714.3473,47.6795202 L1707.7233,47.6795202 L1707.7233,43.8995202 L1714.3113,43.8995202 C1716.6513,43.8995202 1717.8033,44.4755202 1717.8033,45.6275202 L1717.8033,45.8075202 C1717.8033,47.0675202 1716.6513,47.6795202 1714.3473,47.6795202 Z M1745.1633,52.0355202 C1750.9593,52.0355202 1753.8753,48.5435202 1753.8753,44.7995202 L1753.8753,44.4395202 C1753.8753,40.6595202 1750.9233,37.7075202 1745.1633,37.7075202 L1736.4873,37.7075202 L1736.4873,32.6675202 L1728.4593,32.6675202 L1728.4593,52.0355202 L1745.1633,52.0355202 Z M1763.8113,52.0355202 L1763.8113,32.6675202 L1755.7833,32.6675202 L1755.7833,52.0355202 L1763.8113,52.0355202 Z M1743.1473,47.1035202 L1736.4873,47.1035202 L1736.4873,42.6395202 L1743.1473,42.6395202 C1744.8753,42.6395202 1745.7033,43.6115202 1745.7033,44.7635202 L1745.7033,44.9435202 C1745.7033,46.0595202 1744.8753,47.1035202 1743.1473,47.1035202 Z M1773.0993,56.3555202 L1773.0993,52.0355202 L1790.5593,52.0355202 L1790.5593,56.3555202 L1798.2273,56.3555202 L1798.2273,46.7075202 L1794.2673,46.7075202 L1794.2673,32.6675202 L1769.9673,32.6675202 C1769.7873,41.0915202 1769.4273,44.2235202 1768.3833,46.7075202 L1765.4673,46.7075202 L1765.4673,56.3555202 L1773.0993,56.3555202 Z M1786.2393,46.7075202 L1776.0153,46.7075202 C1776.8433,44.5115202 1777.1313,41.8835202 1777.2753,37.8155202 L1786.2393,37.8155202 L1786.2393,46.7075202 Z M1808.4513,52.3955202 C1814.1393,52.3955202 1816.5873,50.4155202 1817.4153,49.3715202 C1817.7033,51.2075202 1818.9273,52.0355202 1820.4753,52.0355202 L1826.9913,52.0355202 L1826.9913,46.7795202 L1825.9473,46.7795202 C1825.1193,46.7795202 1824.9393,46.3835202 1824.9393,45.8075202 L1824.9393,38.3915202 C1824.9393,38.3246631 1824.93889,38.2574386 1824.93794,38.1899021 L1824.93334,37.9864124 C1824.9301,37.8842549 1824.92534,37.7815202 1824.91863,37.6783952 L1824.90246,37.4716802 C1824.66434,34.8826223 1823.01587,32.1275202 1812.9873,32.1275202 L1811.0073,32.1275202 C1801.4073,32.1275202 1799.7433,35.2848536 1799.49204,37.7816437 L1799.47423,37.9880987 C1799.45694,38.226988 1799.4513,38.4586313 1799.4513,38.6795202 L1799.4513,38.7515202 L1806.9033,38.7515202 C1807.0113,38.1035202 1807.1913,36.5915202 1811.9793,36.5915202 L1812.1593,36.5915202 C1816.8753,36.5915202 1817.1993,37.4555202 1817.1993,38.1755202 C1817.1993,38.7875202 1816.8753,39.0755202 1815.9753,39.1835202 L1807.1193,40.0115202 C1801.3233,40.5515202 1798.9833,42.2435202 1798.9833,45.8075202 L1798.9833,46.0595202 C1798.9833,49.3715202 1801.4673,52.3955202 1807.9833,52.3955202 L1808.4513,52.3955202 Z M1810.1433,48.0395202 C1807.4073,48.0395202 1806.6153,46.8875202 1806.6153,45.8435202 L1806.6153,45.8075202 C1806.6153,44.6915202 1807.4793,44.3315202 1809.5313,44.0075202 L1817.1993,42.8195202 L1817.1993,43.4315202 C1817.1993,45.7355202 1814.4273,48.0395202 1810.1433,48.0395202 Z M1854.4233,52.5755202 C1865.95167,52.5755202 1867.87927,47.1597009 1867.92254,42.7236688 L1867.9233,41.9195202 C1867.9233,37.5275202 1865.8353,32.1275202 1854.4233,32.1275202 L1852.5873,32.1275202 C1843.4073,32.1275202 1840.0233,35.9795202 1839.2673,39.8315202 L1836.6033,39.8315202 L1836.6033,32.6675202 L1828.5753,32.6675202 L1828.5753,52.0355202 L1836.6033,52.0355202 L1836.6033,44.9435202 L1839.3033,44.9435202 C1840.1673,48.7955202 1843.6233,52.5755202 1852.6233,52.5755202 L1854.4233,52.5755202 Z M1853.5233,47.3555202 C1848.4113,47.3555202 1847.2593,44.6195202 1847.2593,42.3515202 L1847.2593,42.1715202 C1847.2593,39.7235202 1848.3753,37.2755202 1853.5233,37.2755202 L1853.5593,37.2755202 C1858.5993,37.2755202 1859.7873,39.7595202 1859.7873,42.1715202 L1859.7873,42.3515202 C1859.7873,44.6195202 1858.6713,47.3555202 1853.5233,47.3555202 Z M1912.0593,56.3555202 L1912.0593,46.7075202 L1908.0993,46.7075202 L1908.0993,32.6675202 L1900.0713,32.6675202 L1900.0713,46.7075202 L1893.1593,46.7075202 L1893.1593,32.6675202 L1885.1313,32.6675202 L1885.1313,46.7075202 L1878.2193,46.7075202 L1878.2193,32.6675202 L1870.1913,32.6675202 L1870.1913,52.0355202 L1904.3913,52.0355202 L1904.3913,56.3555202 L1912.0593,56.3555202 Z M1922.0313,52.0355202 L1934.1993,39.8315202 L1934.1993,52.0355202 L1942.2273,52.0355202 L1942.2273,32.6675202 L1934.0193,32.6675202 L1921.8513,44.8715202 L1921.8513,32.6675202 L1913.8233,32.6675202 L1913.8233,52.0355202 L1922.0313,52.0355202 Z M1952.3433,52.0355202 L1957.9233,46.4915202 L1963.6113,52.0355202 L1972.6833,52.0355202 L1962.6393,42.0635202 L1972.3593,32.6675202 L1963.3593,32.6675202 L1958.2833,37.7435202 L1953.2073,32.6675202 L1943.7393,32.6675202 L1953.5313,42.2075202 L1943.4153,52.0355202 L1952.3433,52.0355202 Z M1986.4353,52.5755202 C1998.68015,52.5755202 2000.04958,46.7682535 2000.07881,44.0277456 L2000.0793,43.8635202 L1991.8353,43.8635202 C1991.6553,44.6195202 1990.8633,47.4275202 1985.4273,47.4275202 L1985.3193,47.4275202 C1980.6753,47.4275202 1979.1633,44.8355202 1979.1633,42.2435202 L1979.1633,41.9915202 C1979.1633,39.5435202 1980.6393,37.2035202 1985.3193,37.2035202 L1985.4273,37.2035202 C1990.9353,37.2035202 1991.6553,39.9395202 1991.8353,40.6955202 L2000.0793,40.6955202 L2000.0793,40.5875202 C2000.0793,37.9955202 1998.5673,32.1275202 1986.4713,32.1275202 L1984.4193,32.1275202 C1973.3673,32.1275202 1970.9553,37.5635202 1970.9553,41.8835202 L1970.9553,42.6035202 C1970.9553,46.9235202 1973.4033,52.5755202 1984.4553,52.5755202 L1986.4353,52.5755202 Z M2010.4473,52.0355202 L2016.1713,46.4915202 L2019.8793,46.4915202 L2019.8793,52.0355202 L2027.9073,52.0355202 L2027.9073,32.6675202 L2010.6993,32.6675202 C2005.0833,32.6675202 2001.8433,35.1155202 2001.8433,39.3275202 L2001.8433,39.6875202 C2001.8433,42.9635202 2003.9313,45.1235202 2007.7113,45.8795202 L2001.2673,52.0355202 L2010.4473,52.0355202 Z M2019.8793,41.5595202 L2012.8953,41.5595202 C2010.4113,41.5595202 2009.8713,40.5155202 2009.8713,39.5795202 L2009.8713,39.4355202 C2009.8713,38.5355202 2010.4113,37.4195202 2012.8593,37.4195202 L2019.8793,37.4195202 L2019.8793,41.5595202 Z M2050.1913,52.0355202 L2050.1913,37.9955202 L2060.3433,37.9955202 L2060.3433,52.0355202 L2068.3713,52.0355202 L2068.3713,32.6675202 L2042.1633,32.6675202 L2042.1633,52.0355202 L2050.1913,52.0355202 Z M2079.6753,58.8035202 L2079.6753,49.2995202 C2080.3233,50.0195202 2083.5633,52.5035202 2089.3233,52.5035202 L2089.8993,52.5035202 C2098.8273,52.5035202 2101.8513,47.6795202 2101.8513,42.6035202 L2101.8513,41.9195202 C2101.8513,36.5915202 2098.9353,32.1995202 2090.1513,32.1995202 L2089.5033,32.1995202 C2083.6353,32.1995202 2080.5393,34.6835202 2079.6753,35.4395202 L2079.6753,32.6675202 L2071.6473,32.6675202 L2071.6473,58.8035202 L2079.6753,58.8035202 Z M2087.0193,47.3915202 L2086.8393,47.3915202 C2081.9433,47.3915202 2079.6753,44.7635202 2079.6753,42.3515202 L2079.6753,42.2075202 C2079.6753,39.7235202 2081.8353,37.2035202 2086.8393,37.2035202 L2087.0193,37.2035202 C2092.2033,37.2035202 2093.6433,39.7235202 2093.6433,42.2075202 L2093.6433,42.3515202 C2093.6433,44.6915202 2092.2033,47.3915202 2087.0193,47.3915202 Z M2118.9153,52.5755202 C2130.33373,52.5755202 2132.15676,47.9711376 2132.19855,45.3262536 L2132.1993,45.1955202 L2124.2793,45.1955202 C2124.1713,45.6635202 2123.3073,47.6795202 2117.9793,47.6795202 L2117.9433,47.6795202 C2113.5153,47.6795202 2111.5713,46.1675202 2111.1033,43.8995202 L2132.3073,43.8995202 L2132.3073,42.5675202 C2132.3073,37.8515202 2130.2193,32.1275202 2118.8433,32.1275202 L2116.6473,32.1275202 C2106.1713,32.1275202 2103.2193,36.9155202 2103.2193,41.8835202 L2103.2193,42.6755202 C2103.2193,47.7515202 2106.5313,52.5755202 2116.8633,52.5755202 L2118.9153,52.5755202 Z M2124.2073,39.9035202 L2111.2473,39.9035202 C2111.8593,37.8515202 2113.6593,36.6275202 2117.6913,36.6275202 L2117.7273,36.6275202 C2121.7953,36.6275202 2123.6673,37.8515202 2124.2073,39.9035202 Z M2142.4593,52.0355202 L2142.4593,37.9955202 L2152.6113,37.9955202 L2152.6113,52.0355202 L2160.6393,52.0355202 L2160.6393,32.6675202 L2134.4313,32.6675202 L2134.4313,52.0355202 L2142.4593,52.0355202 Z M2179.4673,52.5755202 C2191.28192,52.5755202 2193.28211,47.158236 2193.32653,42.7218693 L2193.3273,41.9195202 C2193.3273,37.5275202 2191.2753,32.1275202 2179.4673,32.1275202 L2176.9113,32.1275202 C2165.6793,32.1275202 2163.0153,37.4555202 2163.0153,41.9195202 L2163.0153,42.5675202 C2163.0153,47.0315202 2165.7153,52.5755202 2176.9473,52.5755202 L2179.4673,52.5755202 Z M2178.2073,47.3555202 C2172.7353,47.3555202 2171.2233,44.6195202 2171.2233,42.3515202 L2171.2233,42.1715202 C2171.2233,39.7235202 2172.7353,37.2755202 2178.2073,37.2755202 L2178.2433,37.2755202 C2183.6433,37.2755202 2185.1913,39.7595202 2185.1913,42.1715202 L2185.1913,42.3515202 C2185.1913,44.6195202 2183.6793,47.3555202 2178.2073,47.3555202 Z M2200.9953,56.3555202 L2200.9953,52.0355202 L2218.4553,52.0355202 L2218.4553,56.3555202 L2226.1233,56.3555202 L2226.1233,46.7075202 L2222.1633,46.7075202 L2222.1633,32.6675202 L2197.8633,32.6675202 C2197.6833,41.0915202 2197.3233,44.2235202 2196.2793,46.7075202 L2193.3633,46.7075202 L2193.3633,56.3555202 L2200.9953,56.3555202 Z M2214.1353,46.7075202 L2203.9113,46.7075202 C2204.7393,44.5115202 2205.0273,41.8835202 2205.1713,37.8155202 L2214.1353,37.8155202 L2214.1353,46.7075202 Z M2236.3473,52.3955202 C2242.0353,52.3955202 2244.4833,50.4155202 2245.3113,49.3715202 C2245.5993,51.2075202 2246.8233,52.0355202 2248.3713,52.0355202 L2254.8873,52.0355202 L2254.8873,46.7795202 L2253.8433,46.7795202 C2253.0153,46.7795202 2252.8353,46.3835202 2252.8353,45.8075202 L2252.8353,38.3915202 C2252.8353,38.3246631 2252.83489,38.2574386 2252.83394,38.1899021 L2252.82934,37.9864124 C2252.8261,37.8842549 2252.82134,37.7815202 2252.81463,37.6783952 L2252.79846,37.4716802 C2252.56034,34.8826223 2250.91187,32.1275202 2240.8833,32.1275202 L2238.9033,32.1275202 C2229.3033,32.1275202 2227.6393,35.2848536 2227.38804,37.7816437 L2227.37023,37.9880987 C2227.35294,38.226988 2227.3473,38.4586313 2227.3473,38.6795202 L2227.3473,38.7515202 L2234.7993,38.7515202 C2234.9073,38.1035202 2235.0873,36.5915202 2239.8753,36.5915202 L2240.0553,36.5915202 C2244.7713,36.5915202 2245.0953,37.4555202 2245.0953,38.1755202 C2245.0953,38.7875202 2244.7713,39.0755202 2243.8713,39.1835202 L2235.0153,40.0115202 C2229.2193,40.5515202 2226.8793,42.2435202 2226.8793,45.8075202 L2226.8793,46.0595202 C2226.8793,49.3715202 2229.3633,52.3955202 2235.8793,52.3955202 L2236.3473,52.3955202 Z M2238.0393,48.0395202 C2235.3033,48.0395202 2234.5113,46.8875202 2234.5113,45.8435202 L2234.5113,45.8075202 C2234.5113,44.6915202 2235.3753,44.3315202 2237.4273,44.0075202 L2245.0953,42.8195202 L2245.0953,43.4315202 C2245.0953,45.7355202 2242.3233,48.0395202 2238.0393,48.0395202 Z M2272.8513,52.0355202 C2280.1593,52.0355202 2282.7513,49.5875202 2282.7513,46.5635202 L2282.7513,46.2035202 C2282.7513,43.6475202 2280.1953,42.1715202 2277.4953,41.5955202 C2280.1953,40.9835202 2281.8513,39.6515202 2281.8513,37.5275202 L2281.8513,37.1675202 C2281.8513,34.2515202 2279.0793,32.6675202 2270.7993,32.6675202 L2256.4713,32.6675202 L2256.4713,52.0355202 L2272.8513,52.0355202 Z M2270.4033,39.8315202 L2264.4993,39.8315202 L2264.4993,36.9155202 L2270.3673,36.9155202 C2272.9233,36.9155202 2273.6793,37.3835202 2273.6793,38.2835202 L2273.6793,38.3915202 C2273.6793,39.3635202 2272.8873,39.8315202 2270.4033,39.8315202 Z M2271.1233,47.6795202 L2264.4993,47.6795202 L2264.4993,43.8995202 L2271.0873,43.8995202 C2273.4273,43.8995202 2274.5793,44.4755202 2274.5793,45.6275202 L2274.5793,45.8075202 C2274.5793,47.0675202 2273.4273,47.6795202 2271.1233,47.6795202 Z M2293.6953,52.3955202 C2299.3833,52.3955202 2301.8313,50.4155202 2302.6593,49.3715202 C2302.9473,51.2075202 2304.1713,52.0355202 2305.7193,52.0355202 L2312.2353,52.0355202 L2312.2353,46.7795202 L2311.1913,46.7795202 C2310.3633,46.7795202 2310.1833,46.3835202 2310.1833,45.8075202 L2310.1833,38.3915202 C2310.1833,38.3246631 2310.18289,38.2574386 2310.18194,38.1899021 L2310.17734,37.9864124 C2310.1741,37.8842549 2310.16934,37.7815202 2310.16263,37.6783952 L2310.14646,37.4716802 C2309.90834,34.8826223 2308.25987,32.1275202 2298.2313,32.1275202 L2296.2513,32.1275202 C2286.6513,32.1275202 2284.9873,35.2848536 2284.73604,37.7816437 L2284.71823,37.9880987 C2284.70094,38.226988 2284.6953,38.4586313 2284.6953,38.6795202 L2284.6953,38.7515202 L2292.1473,38.7515202 C2292.2553,38.1035202 2292.4353,36.5915202 2297.2233,36.5915202 L2297.4033,36.5915202 C2302.1193,36.5915202 2302.4433,37.4555202 2302.4433,38.1755202 C2302.4433,38.7875202 2302.1193,39.0755202 2301.2193,39.1835202 L2292.3633,40.0115202 C2286.5673,40.5515202 2284.2273,42.2435202 2284.2273,45.8075202 L2284.2273,46.0595202 C2284.2273,49.3715202 2286.7113,52.3955202 2293.2273,52.3955202 L2293.6953,52.3955202 Z M2295.3873,48.0395202 C2292.6513,48.0395202 2291.8593,46.8875202 2291.8593,45.8435202 L2291.8593,45.8075202 C2291.8593,44.6915202 2292.7233,44.3315202 2294.7753,44.0075202 L2302.4433,42.8195202 L2302.4433,43.4315202 C2302.4433,45.7355202 2299.6713,48.0395202 2295.3873,48.0395202 Z M2328.1833,52.0355202 L2328.1833,37.9955202 L2336.2833,37.9955202 L2336.2833,32.6675202 L2312.0553,32.6675202 L2312.0553,37.9955202 L2320.1553,37.9955202 L2320.1553,52.0355202 L2328.1833,52.0355202 Z M2353.3113,52.5755202 C2364.72973,52.5755202 2366.55276,47.9711376 2366.59455,45.3262536 L2366.5953,45.1955202 L2358.6753,45.1955202 C2358.5673,45.6635202 2357.7033,47.6795202 2352.3753,47.6795202 L2352.3393,47.6795202 C2347.9113,47.6795202 2345.9673,46.1675202 2345.4993,43.8995202 L2366.7033,43.8995202 L2366.7033,42.5675202 C2366.7033,37.8515202 2364.6153,32.1275202 2353.2393,32.1275202 L2351.0433,32.1275202 C2340.5673,32.1275202 2337.6153,36.9155202 2337.6153,41.8835202 L2337.6153,42.6755202 C2337.6153,47.7515202 2340.9273,52.5755202 2351.2593,52.5755202 L2353.3113,52.5755202 Z M2358.6033,39.9035202 L2345.6433,39.9035202 C2346.2553,37.8515202 2348.0553,36.6275202 2352.0873,36.6275202 L2352.1233,36.6275202 C2356.1913,36.6275202 2358.0633,37.8515202 2358.6033,39.9035202 Z M2370.0153,52.0355202 C2374.0833,52.0355202 2376.1713,50.3075202 2376.8913,47.9675202 C2377.4673,46.0595202 2377.6833,43.3955202 2377.6833,37.9955202 L2385.4593,37.9955202 L2385.4593,52.0355202 L2393.4873,52.0355202 L2393.4873,32.6675202 L2370.4833,32.6675202 L2370.48275,33.5247636 C2370.47266,41.3051012 2370.32215,42.9775587 2370.08179,44.3321609 L2370.0424,44.5480184 C2370.03347,44.5957742 2370.02444,44.6435202 2370.0153,44.6915202 C2369.7273,46.2395202 2369.0793,46.7075202 2368.0353,46.7075202 L2367.6033,46.7075202 L2367.6033,52.0355202 L2370.0153,52.0355202 Z M2411.5593,52.5755202 C2422.97773,52.5755202 2424.80076,47.9711376 2424.84255,45.3262536 L2424.8433,45.1955202 L2416.9233,45.1955202 C2416.8153,45.6635202 2415.9513,47.6795202 2410.6233,47.6795202 L2410.5873,47.6795202 C2406.1593,47.6795202 2404.2153,46.1675202 2403.7473,43.8995202 L2424.9513,43.8995202 L2424.9513,42.5675202 C2424.9513,37.8515202 2422.8633,32.1275202 2411.4873,32.1275202 L2409.2913,32.1275202 C2398.8153,32.1275202 2395.8633,36.9155202 2395.8633,41.8835202 L2395.8633,42.6755202 C2395.8633,47.7515202 2399.1753,52.5755202 2409.5073,52.5755202 L2411.5593,52.5755202 Z M2416.8513,39.9035202 L2403.8913,39.9035202 C2404.5033,37.8515202 2406.3033,36.6275202 2410.3353,36.6275202 L2410.3713,36.6275202 C2414.4393,36.6275202 2416.3113,37.8515202 2416.8513,39.9035202 Z M2441.9793,31.0835202 C2447.9193,31.0835202 2449.6113,27.1595202 2449.6113,25.3235202 L2449.6113,25.2515202 L2443.6353,25.2515202 C2443.6353,25.6835202 2443.2753,27.0155202 2441.4393,27.0155202 C2439.5673,27.0155202 2439.2073,25.6835202 2439.2073,25.2515202 L2433.0873,25.2515202 L2433.0873,25.3235202 C2433.0873,27.1595202 2434.2753,31.0835202 2440.8273,31.0835202 L2441.9793,31.0835202 Z M2435.2833,52.0355202 L2447.4513,39.8315202 L2447.4513,52.0355202 L2455.4793,52.0355202 L2455.4793,32.6675202 L2447.2713,32.6675202 L2435.1033,44.8715202 L2435.1033,32.6675202 L2427.0753,32.6675202 L2427.0753,52.0355202 L2435.2833,52.0355202 Z" id="иеще60+выдающихсяпреподавателей" fill="#B1FDEB" fill-rule="nonzero"></path> </g> <g id="Group-5" transform="translate(1938.000000, 374.500000) rotate(-5.000000) translate(-1938.000000, -374.500000) translate(5.000000, 334.000000)"> <rect id="Rectangle" stroke="#000000" fill="#B1FDEB" x="0.5" y="0.5" width="3865" height="80"></rect> <path d="M1433.1433,52.0355202 L1445.3113,39.8315202 L1445.3113,52.0355202 L1453.3393,52.0355202 L1453.3393,32.6675202 L1445.1313,32.6675202 L1432.9633,44.8715202 L1432.9633,32.6675202 L1424.9353,32.6675202 L1424.9353,52.0355202 L1433.1433,52.0355202 Z M1482.4993,52.5755202 C1493.91773,52.5755202 1495.74076,47.9711376 1495.78255,45.3262536 L1495.7833,45.1955202 L1487.8633,45.1955202 C1487.7553,45.6635202 1486.8913,47.6795202 1481.5633,47.6795202 L1481.5273,47.6795202 C1477.0993,47.6795202 1475.1553,46.1675202 1474.6873,43.8995202 L1495.8913,43.8995202 L1495.8913,42.5675202 C1495.8913,37.8515202 1493.8033,32.1275202 1482.4273,32.1275202 L1480.2313,32.1275202 C1469.7553,32.1275202 1466.8033,36.9155202 1466.8033,41.8835202 L1466.8033,42.6755202 C1466.8033,47.7515202 1470.1153,52.5755202 1480.4473,52.5755202 L1482.4993,52.5755202 Z M1487.7913,39.9035202 L1474.8313,39.9035202 C1475.4433,37.8515202 1477.2433,36.6275202 1481.2753,36.6275202 L1481.3113,36.6275202 C1485.3793,36.6275202 1487.2513,37.8515202 1487.7913,39.9035202 Z M1539.8833,56.3555202 L1539.8833,46.7075202 L1535.9233,46.7075202 L1535.9233,32.6675202 L1527.8953,32.6675202 L1527.8953,46.7075202 L1520.9833,46.7075202 L1520.9833,32.6675202 L1512.9553,32.6675202 L1512.9553,46.7075202 L1506.0433,46.7075202 L1506.0433,32.6675202 L1498.0153,32.6675202 L1498.0153,52.0355202 L1532.2153,52.0355202 L1532.2153,56.3555202 L1539.8833,56.3555202 Z M1556.1913,52.5755202 C1567.60973,52.5755202 1569.43276,47.9711376 1569.47455,45.3262536 L1569.4753,45.1955202 L1561.5553,45.1955202 C1561.4473,45.6635202 1560.5833,47.6795202 1555.2553,47.6795202 L1555.2193,47.6795202 C1550.7913,47.6795202 1548.8473,46.1675202 1548.3793,43.8995202 L1569.5833,43.8995202 L1569.5833,42.5675202 C1569.5833,37.8515202 1567.4953,32.1275202 1556.1193,32.1275202 L1553.9233,32.1275202 C1543.4473,32.1275202 1540.4953,36.9155202 1540.4953,41.8835202 L1540.4953,42.6755202 C1540.4953,47.7515202 1543.8073,52.5755202 1554.1393,52.5755202 L1556.1913,52.5755202 Z M1561.4833,39.9035202 L1548.5233,39.9035202 C1549.1353,37.8515202 1550.9353,36.6275202 1554.9673,36.6275202 L1555.0033,36.6275202 C1559.0713,36.6275202 1560.9433,37.8515202 1561.4833,39.9035202 Z M1600.3993,52.5755202 C1613.75256,52.5755202 1616.08144,47.4331601 1616.13049,43.5239404 L1616.1313,43.0715202 C1616.1313,38.8595202 1613.4673,34.7915202 1602.2353,34.7915202 L1601.7673,34.7915202 C1593.7033,34.7915202 1591.4713,36.8075202 1590.6433,37.3835202 L1590.6433,37.2395202 C1590.6433,35.4035202 1591.4713,30.9755202 1599.2113,30.9755202 C1605.4753,30.9755202 1606.1593,33.0275202 1606.3393,33.3155202 L1614.9793,33.3155202 L1614.9793,33.1715202 C1614.9793,29.6075202 1612.0273,24.7835202 1599.9313,24.7835202 L1598.4913,24.7835202 C1585.5673,24.7835202 1582.2553,32.0915202 1582.2553,38.2475202 L1582.2553,39.1115202 C1582.2553,45.2675202 1585.0273,52.5755202 1598.8153,52.5755202 L1600.3993,52.5755202 Z M1599.5713,46.4915202 C1592.9473,46.4915202 1591.7233,44.6555202 1591.7233,43.3955202 L1591.7233,43.2875202 C1591.7233,41.9195202 1592.9113,40.4075202 1599.5713,40.4075202 C1606.32667,40.4075202 1607.31388,41.9711767 1607.34644,43.2891593 L1607.3473,43.5035202 C1607.3473,44.7635202 1606.4473,46.4915202 1599.5713,46.4915202 Z M1637.5513,52.5035202 C1653.30418,52.5035202 1655.57872,43.964889 1655.62264,39.2531171 L1655.6233,38.0315202 C1655.6233,33.2795202 1653.4273,24.7835202 1637.5513,24.7835202 L1635.9673,24.7835202 C1620.1273,24.7835202 1617.8953,33.2795202 1617.8953,38.0315202 L1617.8953,39.1115202 C1617.8953,43.8275202 1620.1273,52.5035202 1635.9673,52.5035202 L1637.5513,52.5035202 Z M1636.7593,45.9515202 C1628.5873,45.9515202 1626.6793,41.7395202 1626.6793,38.7155202 L1626.6793,38.2835202 C1626.6793,35.2595202 1628.4073,31.2995202 1636.7593,31.2995202 C1644.9673,31.2995202 1646.8393,35.2595202 1646.8393,38.2835202 L1646.8393,38.7875202 C1646.8393,41.8475202 1644.9313,45.9515202 1636.7593,45.9515202 Z M1670.8153,49.7675202 L1670.8153,43.4315202 L1677.6553,43.4315202 L1677.6553,38.4635202 L1670.8153,38.4635202 L1670.8153,32.1275202 L1664.7673,32.1275202 L1664.7673,38.4635202 L1657.9633,38.4635202 L1657.9633,43.4315202 L1664.7673,43.4315202 L1664.7673,49.7675202 L1670.8153,49.7675202 Z M1708.0753,52.0355202 C1715.3833,52.0355202 1717.9753,49.5875202 1717.9753,46.5635202 L1717.9753,46.2035202 C1717.9753,43.6475202 1715.4193,42.1715202 1712.7193,41.5955202 C1715.4193,40.9835202 1717.0753,39.6515202 1717.0753,37.5275202 L1717.0753,37.1675202 C1717.0753,34.2515202 1714.3033,32.6675202 1706.0233,32.6675202 L1691.6953,32.6675202 L1691.6953,52.0355202 L1708.0753,52.0355202 Z M1705.6273,39.8315202 L1699.7233,39.8315202 L1699.7233,36.9155202 L1705.5913,36.9155202 C1708.1473,36.9155202 1708.9033,37.3835202 1708.9033,38.2835202 L1708.9033,38.3915202 C1708.9033,39.3635202 1708.1113,39.8315202 1705.6273,39.8315202 Z M1706.3473,47.6795202 L1699.7233,47.6795202 L1699.7233,43.8995202 L1706.3113,43.8995202 C1708.6513,43.8995202 1709.8033,44.4755202 1709.8033,45.6275202 L1709.8033,45.8075202 C1709.8033,47.0675202 1708.6513,47.6795202 1706.3473,47.6795202 Z M1737.1633,52.0355202 C1742.9593,52.0355202 1745.8753,48.5435202 1745.8753,44.7995202 L1745.8753,44.4395202 C1745.8753,40.6595202 1742.9233,37.7075202 1737.1633,37.7075202 L1728.4873,37.7075202 L1728.4873,32.6675202 L1720.4593,32.6675202 L1720.4593,52.0355202 L1737.1633,52.0355202 Z M1755.8113,52.0355202 L1755.8113,32.6675202 L1747.7833,32.6675202 L1747.7833,52.0355202 L1755.8113,52.0355202 Z M1735.1473,47.1035202 L1728.4873,47.1035202 L1728.4873,42.6395202 L1735.1473,42.6395202 C1736.8753,42.6395202 1737.7033,43.6115202 1737.7033,44.7635202 L1737.7033,44.9435202 C1737.7033,46.0595202 1736.8753,47.1035202 1735.1473,47.1035202 Z M1765.0993,56.3555202 L1765.0993,52.0355202 L1782.5593,52.0355202 L1782.5593,56.3555202 L1790.2273,56.3555202 L1790.2273,46.7075202 L1786.2673,46.7075202 L1786.2673,32.6675202 L1761.9673,32.6675202 C1761.7873,41.0915202 1761.4273,44.2235202 1760.3833,46.7075202 L1757.4673,46.7075202 L1757.4673,56.3555202 L1765.0993,56.3555202 Z M1778.2393,46.7075202 L1768.0153,46.7075202 C1768.8433,44.5115202 1769.1313,41.8835202 1769.2753,37.8155202 L1778.2393,37.8155202 L1778.2393,46.7075202 Z M1800.4513,52.3955202 C1806.1393,52.3955202 1808.5873,50.4155202 1809.4153,49.3715202 C1809.7033,51.2075202 1810.9273,52.0355202 1812.4753,52.0355202 L1818.9913,52.0355202 L1818.9913,46.7795202 L1817.9473,46.7795202 C1817.1193,46.7795202 1816.9393,46.3835202 1816.9393,45.8075202 L1816.9393,38.3915202 C1816.9393,38.3246631 1816.93889,38.2574386 1816.93794,38.1899021 L1816.93334,37.9864124 C1816.9301,37.8842549 1816.92534,37.7815202 1816.91863,37.6783952 L1816.90246,37.4716802 C1816.66434,34.8826223 1815.01587,32.1275202 1804.9873,32.1275202 L1803.0073,32.1275202 C1793.4073,32.1275202 1791.7433,35.2848536 1791.49204,37.7816437 L1791.47423,37.9880987 C1791.45694,38.226988 1791.4513,38.4586313 1791.4513,38.6795202 L1791.4513,38.7515202 L1798.9033,38.7515202 C1799.0113,38.1035202 1799.1913,36.5915202 1803.9793,36.5915202 L1804.1593,36.5915202 C1808.8753,36.5915202 1809.1993,37.4555202 1809.1993,38.1755202 C1809.1993,38.7875202 1808.8753,39.0755202 1807.9753,39.1835202 L1799.1193,40.0115202 C1793.3233,40.5515202 1790.9833,42.2435202 1790.9833,45.8075202 L1790.9833,46.0595202 C1790.9833,49.3715202 1793.4673,52.3955202 1799.9833,52.3955202 L1800.4513,52.3955202 Z M1802.1433,48.0395202 C1799.4073,48.0395202 1798.6153,46.8875202 1798.6153,45.8435202 L1798.6153,45.8075202 C1798.6153,44.6915202 1799.4793,44.3315202 1801.5313,44.0075202 L1809.1993,42.8195202 L1809.1993,43.4315202 C1809.1993,45.7355202 1806.4273,48.0395202 1802.1433,48.0395202 Z M1846.4233,52.5755202 C1857.95167,52.5755202 1859.87927,47.1597009 1859.92254,42.7236688 L1859.9233,41.9195202 C1859.9233,37.5275202 1857.8353,32.1275202 1846.4233,32.1275202 L1844.5873,32.1275202 C1835.4073,32.1275202 1832.0233,35.9795202 1831.2673,39.8315202 L1828.6033,39.8315202 L1828.6033,32.6675202 L1820.5753,32.6675202 L1820.5753,52.0355202 L1828.6033,52.0355202 L1828.6033,44.9435202 L1831.3033,44.9435202 C1832.1673,48.7955202 1835.6233,52.5755202 1844.6233,52.5755202 L1846.4233,52.5755202 Z M1845.5233,47.3555202 C1840.4113,47.3555202 1839.2593,44.6195202 1839.2593,42.3515202 L1839.2593,42.1715202 C1839.2593,39.7235202 1840.3753,37.2755202 1845.5233,37.2755202 L1845.5593,37.2755202 C1850.5993,37.2755202 1851.7873,39.7595202 1851.7873,42.1715202 L1851.7873,42.3515202 C1851.7873,44.6195202 1850.6713,47.3555202 1845.5233,47.3555202 Z M1904.0593,56.3555202 L1904.0593,46.7075202 L1900.0993,46.7075202 L1900.0993,32.6675202 L1892.0713,32.6675202 L1892.0713,46.7075202 L1885.1593,46.7075202 L1885.1593,32.6675202 L1877.1313,32.6675202 L1877.1313,46.7075202 L1870.2193,46.7075202 L1870.2193,32.6675202 L1862.1913,32.6675202 L1862.1913,52.0355202 L1896.3913,52.0355202 L1896.3913,56.3555202 L1904.0593,56.3555202 Z M1914.0313,52.0355202 L1926.1993,39.8315202 L1926.1993,52.0355202 L1934.2273,52.0355202 L1934.2273,32.6675202 L1926.0193,32.6675202 L1913.8513,44.8715202 L1913.8513,32.6675202 L1905.8233,32.6675202 L1905.8233,52.0355202 L1914.0313,52.0355202 Z M1944.3433,52.0355202 L1949.9233,46.4915202 L1955.6113,52.0355202 L1964.6833,52.0355202 L1954.6393,42.0635202 L1964.3593,32.6675202 L1955.3593,32.6675202 L1950.2833,37.7435202 L1945.2073,32.6675202 L1935.7393,32.6675202 L1945.5313,42.2075202 L1935.4153,52.0355202 L1944.3433,52.0355202 Z M1978.4353,52.5755202 C1990.68015,52.5755202 1992.04958,46.7682535 1992.07881,44.0277456 L1992.0793,43.8635202 L1983.8353,43.8635202 C1983.6553,44.6195202 1982.8633,47.4275202 1977.4273,47.4275202 L1977.3193,47.4275202 C1972.6753,47.4275202 1971.1633,44.8355202 1971.1633,42.2435202 L1971.1633,41.9915202 C1971.1633,39.5435202 1972.6393,37.2035202 1977.3193,37.2035202 L1977.4273,37.2035202 C1982.9353,37.2035202 1983.6553,39.9395202 1983.8353,40.6955202 L1992.0793,40.6955202 L1992.0793,40.5875202 C1992.0793,37.9955202 1990.5673,32.1275202 1978.4713,32.1275202 L1976.4193,32.1275202 C1965.3673,32.1275202 1962.9553,37.5635202 1962.9553,41.8835202 L1962.9553,42.6035202 C1962.9553,46.9235202 1965.4033,52.5755202 1976.4553,52.5755202 L1978.4353,52.5755202 Z M2002.4473,52.0355202 L2008.1713,46.4915202 L2011.8793,46.4915202 L2011.8793,52.0355202 L2019.9073,52.0355202 L2019.9073,32.6675202 L2002.6993,32.6675202 C1997.0833,32.6675202 1993.8433,35.1155202 1993.8433,39.3275202 L1993.8433,39.6875202 C1993.8433,42.9635202 1995.9313,45.1235202 1999.7113,45.8795202 L1993.2673,52.0355202 L2002.4473,52.0355202 Z M2011.8793,41.5595202 L2004.8953,41.5595202 C2002.4113,41.5595202 2001.8713,40.5155202 2001.8713,39.5795202 L2001.8713,39.4355202 C2001.8713,38.5355202 2002.4113,37.4195202 2004.8593,37.4195202 L2011.8793,37.4195202 L2011.8793,41.5595202 Z M2042.1913,52.0355202 L2042.1913,37.9955202 L2052.3433,37.9955202 L2052.3433,52.0355202 L2060.3713,52.0355202 L2060.3713,32.6675202 L2034.1633,32.6675202 L2034.1633,52.0355202 L2042.1913,52.0355202 Z M2071.6753,58.8035202 L2071.6753,49.2995202 C2072.3233,50.0195202 2075.5633,52.5035202 2081.3233,52.5035202 L2081.8993,52.5035202 C2090.8273,52.5035202 2093.8513,47.6795202 2093.8513,42.6035202 L2093.8513,41.9195202 C2093.8513,36.5915202 2090.9353,32.1995202 2082.1513,32.1995202 L2081.5033,32.1995202 C2075.6353,32.1995202 2072.5393,34.6835202 2071.6753,35.4395202 L2071.6753,32.6675202 L2063.6473,32.6675202 L2063.6473,58.8035202 L2071.6753,58.8035202 Z M2079.0193,47.3915202 L2078.8393,47.3915202 C2073.9433,47.3915202 2071.6753,44.7635202 2071.6753,42.3515202 L2071.6753,42.2075202 C2071.6753,39.7235202 2073.8353,37.2035202 2078.8393,37.2035202 L2079.0193,37.2035202 C2084.2033,37.2035202 2085.6433,39.7235202 2085.6433,42.2075202 L2085.6433,42.3515202 C2085.6433,44.6915202 2084.2033,47.3915202 2079.0193,47.3915202 Z M2110.9153,52.5755202 C2122.33373,52.5755202 2124.15676,47.9711376 2124.19855,45.3262536 L2124.1993,45.1955202 L2116.2793,45.1955202 C2116.1713,45.6635202 2115.3073,47.6795202 2109.9793,47.6795202 L2109.9433,47.6795202 C2105.5153,47.6795202 2103.5713,46.1675202 2103.1033,43.8995202 L2124.3073,43.8995202 L2124.3073,42.5675202 C2124.3073,37.8515202 2122.2193,32.1275202 2110.8433,32.1275202 L2108.6473,32.1275202 C2098.1713,32.1275202 2095.2193,36.9155202 2095.2193,41.8835202 L2095.2193,42.6755202 C2095.2193,47.7515202 2098.5313,52.5755202 2108.8633,52.5755202 L2110.9153,52.5755202 Z M2116.2073,39.9035202 L2103.2473,39.9035202 C2103.8593,37.8515202 2105.6593,36.6275202 2109.6913,36.6275202 L2109.7273,36.6275202 C2113.7953,36.6275202 2115.6673,37.8515202 2116.2073,39.9035202 Z M2134.4593,52.0355202 L2134.4593,37.9955202 L2144.6113,37.9955202 L2144.6113,52.0355202 L2152.6393,52.0355202 L2152.6393,32.6675202 L2126.4313,32.6675202 L2126.4313,52.0355202 L2134.4593,52.0355202 Z M2171.4673,52.5755202 C2183.28192,52.5755202 2185.28211,47.158236 2185.32653,42.7218693 L2185.3273,41.9195202 C2185.3273,37.5275202 2183.2753,32.1275202 2171.4673,32.1275202 L2168.9113,32.1275202 C2157.6793,32.1275202 2155.0153,37.4555202 2155.0153,41.9195202 L2155.0153,42.5675202 C2155.0153,47.0315202 2157.7153,52.5755202 2168.9473,52.5755202 L2171.4673,52.5755202 Z M2170.2073,47.3555202 C2164.7353,47.3555202 2163.2233,44.6195202 2163.2233,42.3515202 L2163.2233,42.1715202 C2163.2233,39.7235202 2164.7353,37.2755202 2170.2073,37.2755202 L2170.2433,37.2755202 C2175.6433,37.2755202 2177.1913,39.7595202 2177.1913,42.1715202 L2177.1913,42.3515202 C2177.1913,44.6195202 2175.6793,47.3555202 2170.2073,47.3555202 Z M2192.9953,56.3555202 L2192.9953,52.0355202 L2210.4553,52.0355202 L2210.4553,56.3555202 L2218.1233,56.3555202 L2218.1233,46.7075202 L2214.1633,46.7075202 L2214.1633,32.6675202 L2189.8633,32.6675202 C2189.6833,41.0915202 2189.3233,44.2235202 2188.2793,46.7075202 L2185.3633,46.7075202 L2185.3633,56.3555202 L2192.9953,56.3555202 Z M2206.1353,46.7075202 L2195.9113,46.7075202 C2196.7393,44.5115202 2197.0273,41.8835202 2197.1713,37.8155202 L2206.1353,37.8155202 L2206.1353,46.7075202 Z M2228.3473,52.3955202 C2234.0353,52.3955202 2236.4833,50.4155202 2237.3113,49.3715202 C2237.5993,51.2075202 2238.8233,52.0355202 2240.3713,52.0355202 L2246.8873,52.0355202 L2246.8873,46.7795202 L2245.8433,46.7795202 C2245.0153,46.7795202 2244.8353,46.3835202 2244.8353,45.8075202 L2244.8353,38.3915202 C2244.8353,38.3246631 2244.83489,38.2574386 2244.83394,38.1899021 L2244.82934,37.9864124 C2244.8261,37.8842549 2244.82134,37.7815202 2244.81463,37.6783952 L2244.79846,37.4716802 C2244.56034,34.8826223 2242.91187,32.1275202 2232.8833,32.1275202 L2230.9033,32.1275202 C2221.3033,32.1275202 2219.6393,35.2848536 2219.38804,37.7816437 L2219.37023,37.9880987 C2219.35294,38.226988 2219.3473,38.4586313 2219.3473,38.6795202 L2219.3473,38.7515202 L2226.7993,38.7515202 C2226.9073,38.1035202 2227.0873,36.5915202 2231.8753,36.5915202 L2232.0553,36.5915202 C2236.7713,36.5915202 2237.0953,37.4555202 2237.0953,38.1755202 C2237.0953,38.7875202 2236.7713,39.0755202 2235.8713,39.1835202 L2227.0153,40.0115202 C2221.2193,40.5515202 2218.8793,42.2435202 2218.8793,45.8075202 L2218.8793,46.0595202 C2218.8793,49.3715202 2221.3633,52.3955202 2227.8793,52.3955202 L2228.3473,52.3955202 Z M2230.0393,48.0395202 C2227.3033,48.0395202 2226.5113,46.8875202 2226.5113,45.8435202 L2226.5113,45.8075202 C2226.5113,44.6915202 2227.3753,44.3315202 2229.4273,44.0075202 L2237.0953,42.8195202 L2237.0953,43.4315202 C2237.0953,45.7355202 2234.3233,48.0395202 2230.0393,48.0395202 Z M2264.8513,52.0355202 C2272.1593,52.0355202 2274.7513,49.5875202 2274.7513,46.5635202 L2274.7513,46.2035202 C2274.7513,43.6475202 2272.1953,42.1715202 2269.4953,41.5955202 C2272.1953,40.9835202 2273.8513,39.6515202 2273.8513,37.5275202 L2273.8513,37.1675202 C2273.8513,34.2515202 2271.0793,32.6675202 2262.7993,32.6675202 L2248.4713,32.6675202 L2248.4713,52.0355202 L2264.8513,52.0355202 Z M2262.4033,39.8315202 L2256.4993,39.8315202 L2256.4993,36.9155202 L2262.3673,36.9155202 C2264.9233,36.9155202 2265.6793,37.3835202 2265.6793,38.2835202 L2265.6793,38.3915202 C2265.6793,39.3635202 2264.8873,39.8315202 2262.4033,39.8315202 Z M2263.1233,47.6795202 L2256.4993,47.6795202 L2256.4993,43.8995202 L2263.0873,43.8995202 C2265.4273,43.8995202 2266.5793,44.4755202 2266.5793,45.6275202 L2266.5793,45.8075202 C2266.5793,47.0675202 2265.4273,47.6795202 2263.1233,47.6795202 Z M2285.6953,52.3955202 C2291.3833,52.3955202 2293.8313,50.4155202 2294.6593,49.3715202 C2294.9473,51.2075202 2296.1713,52.0355202 2297.7193,52.0355202 L2304.2353,52.0355202 L2304.2353,46.7795202 L2303.1913,46.7795202 C2302.3633,46.7795202 2302.1833,46.3835202 2302.1833,45.8075202 L2302.1833,38.3915202 C2302.1833,38.3246631 2302.18289,38.2574386 2302.18194,38.1899021 L2302.17734,37.9864124 C2302.1741,37.8842549 2302.16934,37.7815202 2302.16263,37.6783952 L2302.14646,37.4716802 C2301.90834,34.8826223 2300.25987,32.1275202 2290.2313,32.1275202 L2288.2513,32.1275202 C2278.6513,32.1275202 2276.9873,35.2848536 2276.73604,37.7816437 L2276.71823,37.9880987 C2276.70094,38.226988 2276.6953,38.4586313 2276.6953,38.6795202 L2276.6953,38.7515202 L2284.1473,38.7515202 C2284.2553,38.1035202 2284.4353,36.5915202 2289.2233,36.5915202 L2289.4033,36.5915202 C2294.1193,36.5915202 2294.4433,37.4555202 2294.4433,38.1755202 C2294.4433,38.7875202 2294.1193,39.0755202 2293.2193,39.1835202 L2284.3633,40.0115202 C2278.5673,40.5515202 2276.2273,42.2435202 2276.2273,45.8075202 L2276.2273,46.0595202 C2276.2273,49.3715202 2278.7113,52.3955202 2285.2273,52.3955202 L2285.6953,52.3955202 Z M2287.3873,48.0395202 C2284.6513,48.0395202 2283.8593,46.8875202 2283.8593,45.8435202 L2283.8593,45.8075202 C2283.8593,44.6915202 2284.7233,44.3315202 2286.7753,44.0075202 L2294.4433,42.8195202 L2294.4433,43.4315202 C2294.4433,45.7355202 2291.6713,48.0395202 2287.3873,48.0395202 Z M2320.1833,52.0355202 L2320.1833,37.9955202 L2328.2833,37.9955202 L2328.2833,32.6675202 L2304.0553,32.6675202 L2304.0553,37.9955202 L2312.1553,37.9955202 L2312.1553,52.0355202 L2320.1833,52.0355202 Z M2345.3113,52.5755202 C2356.72973,52.5755202 2358.55276,47.9711376 2358.59455,45.3262536 L2358.5953,45.1955202 L2350.6753,45.1955202 C2350.5673,45.6635202 2349.7033,47.6795202 2344.3753,47.6795202 L2344.3393,47.6795202 C2339.9113,47.6795202 2337.9673,46.1675202 2337.4993,43.8995202 L2358.7033,43.8995202 L2358.7033,42.5675202 C2358.7033,37.8515202 2356.6153,32.1275202 2345.2393,32.1275202 L2343.0433,32.1275202 C2332.5673,32.1275202 2329.6153,36.9155202 2329.6153,41.8835202 L2329.6153,42.6755202 C2329.6153,47.7515202 2332.9273,52.5755202 2343.2593,52.5755202 L2345.3113,52.5755202 Z M2350.6033,39.9035202 L2337.6433,39.9035202 C2338.2553,37.8515202 2340.0553,36.6275202 2344.0873,36.6275202 L2344.1233,36.6275202 C2348.1913,36.6275202 2350.0633,37.8515202 2350.6033,39.9035202 Z M2362.0153,52.0355202 C2366.0833,52.0355202 2368.1713,50.3075202 2368.8913,47.9675202 C2369.4673,46.0595202 2369.6833,43.3955202 2369.6833,37.9955202 L2377.4593,37.9955202 L2377.4593,52.0355202 L2385.4873,52.0355202 L2385.4873,32.6675202 L2362.4833,32.6675202 L2362.48275,33.5247636 C2362.47266,41.3051012 2362.32215,42.9775587 2362.08179,44.3321609 L2362.0424,44.5480184 C2362.03347,44.5957742 2362.02444,44.6435202 2362.0153,44.6915202 C2361.7273,46.2395202 2361.0793,46.7075202 2360.0353,46.7075202 L2359.6033,46.7075202 L2359.6033,52.0355202 L2362.0153,52.0355202 Z M2403.5593,52.5755202 C2414.97773,52.5755202 2416.80076,47.9711376 2416.84255,45.3262536 L2416.8433,45.1955202 L2408.9233,45.1955202 C2408.8153,45.6635202 2407.9513,47.6795202 2402.6233,47.6795202 L2402.5873,47.6795202 C2398.1593,47.6795202 2396.2153,46.1675202 2395.7473,43.8995202 L2416.9513,43.8995202 L2416.9513,42.5675202 C2416.9513,37.8515202 2414.8633,32.1275202 2403.4873,32.1275202 L2401.2913,32.1275202 C2390.8153,32.1275202 2387.8633,36.9155202 2387.8633,41.8835202 L2387.8633,42.6755202 C2387.8633,47.7515202 2391.1753,52.5755202 2401.5073,52.5755202 L2403.5593,52.5755202 Z M2408.8513,39.9035202 L2395.8913,39.9035202 C2396.5033,37.8515202 2398.3033,36.6275202 2402.3353,36.6275202 L2402.3713,36.6275202 C2406.4393,36.6275202 2408.3113,37.8515202 2408.8513,39.9035202 Z M2433.9793,31.0835202 C2439.9193,31.0835202 2441.6113,27.1595202 2441.6113,25.3235202 L2441.6113,25.2515202 L2435.6353,25.2515202 C2435.6353,25.6835202 2435.2753,27.0155202 2433.4393,27.0155202 C2431.5673,27.0155202 2431.2073,25.6835202 2431.2073,25.2515202 L2425.0873,25.2515202 L2425.0873,25.3235202 C2425.0873,27.1595202 2426.2753,31.0835202 2432.8273,31.0835202 L2433.9793,31.0835202 Z M2427.2833,52.0355202 L2439.4513,39.8315202 L2439.4513,52.0355202 L2447.4793,52.0355202 L2447.4793,32.6675202 L2439.2713,32.6675202 L2427.1033,44.8715202 L2427.1033,32.6675202 L2419.0753,32.6675202 L2419.0753,52.0355202 L2427.2833,52.0355202 Z" id="иеще60+выдающихсяпреподавателей" fill="#000000" fill-rule="nonzero"></path> </g> </g> </g> </g> </svg> 