<?xml version="1.0" encoding="UTF-8"?> <svg xmlns="http://www.w3.org/2000/svg" xmlns:xlink="http://www.w3.org/1999/xlink" width="1558px" height="389px" viewBox="0 0 1558 389"> <title>Group 6</title> <g id="Teacher" stroke="none" stroke-width="1" fill="none" fill-rule="evenodd"> <g id="Group-6" transform="translate(-0.000000, -0.000000)"> <g id="Group-5" transform="translate(780.907084, 194.658174) rotate(-10.000000) translate(-780.907084, -194.658174) translate(22.907084, 131.658174)"> <rect id="Rectangle" fill="#000000" x="-9.54969437e-12" y="9.09494702e-13" width="1516" height="126"></rect> <path d="M471.929297,52.0355202 L484.097297,39.8315202 L484.097297,52.0355202 L492.125297,52.0355202 L492.125297,32.6675202 L483.917297,32.6675202 L471.749297,44.8715202 L471.749297,32.6675202 L463.721297,32.6675202 L463.721297,52.0355202 L471.929297,52.0355202 Z M521.285297,52.5755202 C532.841297,52.5755202 534.569297,47.8595202 534.569297,45.2315202 L534.569297,45.1955202 L526.649297,45.1955202 C526.541297,45.6635202 525.677297,47.6795202 520.349297,47.6795202 L520.313297,47.6795202 C515.885297,47.6795202 513.941297,46.1675202 513.473297,43.8995202 L534.677297,43.8995202 L534.677297,42.5675202 C534.677297,37.8515202 532.589297,32.1275202 521.213297,32.1275202 L519.017297,32.1275202 C508.541297,32.1275202 505.589297,36.9155202 505.589297,41.8835202 L505.589297,42.6755202 C505.589297,47.7515202 508.901297,52.5755202 519.233297,52.5755202 L521.285297,52.5755202 Z M526.577297,39.9035202 L513.617297,39.9035202 C514.229297,37.8515202 516.029297,36.6275202 520.061297,36.6275202 L520.097297,36.6275202 C524.165297,36.6275202 526.037297,37.8515202 526.577297,39.9035202 Z M578.669297,56.3555202 L578.669297,46.7075202 L574.709297,46.7075202 L574.709297,32.6675202 L566.681297,32.6675202 L566.681297,46.7075202 L559.769297,46.7075202 L559.769297,32.6675202 L551.741297,32.6675202 L551.741297,46.7075202 L544.829297,46.7075202 L544.829297,32.6675202 L536.801297,32.6675202 L536.801297,52.0355202 L571.001297,52.0355202 L571.001297,56.3555202 L578.669297,56.3555202 Z M594.977297,52.5755202 C606.533297,52.5755202 608.261297,47.8595202 608.261297,45.2315202 L608.261297,45.1955202 L600.341297,45.1955202 C600.233297,45.6635202 599.369297,47.6795202 594.041297,47.6795202 L594.005297,47.6795202 C589.577297,47.6795202 587.633297,46.1675202 587.165297,43.8995202 L608.369297,43.8995202 L608.369297,42.5675202 C608.369297,37.8515202 606.281297,32.1275202 594.905297,32.1275202 L592.709297,32.1275202 C582.233297,32.1275202 579.281297,36.9155202 579.281297,41.8835202 L579.281297,42.6755202 C579.281297,47.7515202 582.593297,52.5755202 592.925297,52.5755202 L594.977297,52.5755202 Z M600.269297,39.9035202 L587.309297,39.9035202 C587.921297,37.8515202 589.721297,36.6275202 593.753297,36.6275202 L593.789297,36.6275202 C597.857297,36.6275202 599.729297,37.8515202 600.269297,39.9035202 Z M639.185297,52.5755202 C652.685297,52.5755202 654.917297,47.3195202 654.917297,43.3955202 L654.917297,43.0715202 C654.917297,38.8595202 652.253297,34.7915202 641.021297,34.7915202 L640.553297,34.7915202 C632.489297,34.7915202 630.257297,36.8075202 629.429297,37.3835202 L629.429297,37.2395202 C629.429297,35.4035202 630.257297,30.9755202 637.997297,30.9755202 C644.261297,30.9755202 644.945297,33.0275202 645.125297,33.3155202 L653.765297,33.3155202 L653.765297,33.1715202 C653.765297,29.6075202 650.813297,24.7835202 638.717297,24.7835202 L637.277297,24.7835202 C624.353297,24.7835202 621.041297,32.0915202 621.041297,38.2475202 L621.041297,39.1115202 C621.041297,45.2675202 623.813297,52.5755202 637.601297,52.5755202 L639.185297,52.5755202 Z M638.357297,46.4915202 C631.733297,46.4915202 630.509297,44.6555202 630.509297,43.3955202 L630.509297,43.2875202 C630.509297,41.9195202 631.697297,40.4075202 638.357297,40.4075202 C645.233297,40.4075202 646.133297,42.0275202 646.133297,43.3595202 L646.133297,43.5035202 C646.133297,44.7635202 645.233297,46.4915202 638.357297,46.4915202 Z M676.337297,52.5035202 C692.249297,52.5035202 694.409297,43.7915202 694.409297,39.1115202 L694.409297,38.0315202 C694.409297,33.2795202 692.213297,24.7835202 676.337297,24.7835202 L674.753297,24.7835202 C659.071697,24.7835202 656.727297,33.1104498 656.681978,37.8878493 L656.681297,39.1115202 C656.681297,43.8275202 658.913297,52.5035202 674.753297,52.5035202 L676.337297,52.5035202 Z M675.545297,45.9515202 C667.373297,45.9515202 665.465297,41.7395202 665.465297,38.7155202 L665.465297,38.2835202 C665.465297,35.2595202 667.193297,31.2995202 675.545297,31.2995202 C683.753297,31.2995202 685.625297,35.2595202 685.625297,38.2835202 L685.625297,38.7875202 C685.625297,41.8475202 683.717297,45.9515202 675.545297,45.9515202 Z M709.601297,49.7675202 L709.601297,43.4315202 L716.441297,43.4315202 L716.441297,38.4635202 L709.601297,38.4635202 L709.601297,32.1275202 L703.553297,32.1275202 L703.553297,38.4635202 L696.749297,38.4635202 L696.749297,43.4315202 L703.553297,43.4315202 L703.553297,49.7675202 L709.601297,49.7675202 Z M746.861297,52.0355202 C754.169297,52.0355202 756.761297,49.5875202 756.761297,46.5635202 L756.761297,46.2035202 C756.761297,43.6475202 754.205297,42.1715202 751.505297,41.5955202 C754.205297,40.9835202 755.861297,39.6515202 755.861297,37.5275202 L755.861297,37.1675202 C755.861297,34.2515202 753.089297,32.6675202 744.809297,32.6675202 L730.481297,32.6675202 L730.481297,52.0355202 L746.861297,52.0355202 Z M744.413297,39.8315202 L738.509297,39.8315202 L738.509297,36.9155202 L744.377297,36.9155202 C746.933297,36.9155202 747.689297,37.3835202 747.689297,38.2835202 L747.689297,38.3915202 C747.689297,39.3635202 746.897297,39.8315202 744.413297,39.8315202 Z M745.133297,47.6795202 L738.509297,47.6795202 L738.509297,43.8995202 L745.097297,43.8995202 C747.437297,43.8995202 748.589297,44.4755202 748.589297,45.6275202 L748.589297,45.8075202 C748.589297,47.0675202 747.437297,47.6795202 745.133297,47.6795202 Z M775.949297,52.0355202 C781.745297,52.0355202 784.661297,48.5435202 784.661297,44.7995202 L784.661297,44.4395202 C784.661297,40.6595202 781.709297,37.7075202 775.949297,37.7075202 L767.273297,37.7075202 L767.273297,32.6675202 L759.245297,32.6675202 L759.245297,52.0355202 L775.949297,52.0355202 Z M794.597297,52.0355202 L794.597297,32.6675202 L786.569297,32.6675202 L786.569297,52.0355202 L794.597297,52.0355202 Z M773.933297,47.1035202 L767.273297,47.1035202 L767.273297,42.6395202 L773.933297,42.6395202 C775.661297,42.6395202 776.489297,43.6115202 776.489297,44.7635202 L776.489297,44.9435202 C776.489297,46.0595202 775.661297,47.1035202 773.933297,47.1035202 Z M803.885297,56.3555202 L803.885297,52.0355202 L821.345297,52.0355202 L821.345297,56.3555202 L829.013297,56.3555202 L829.013297,46.7075202 L825.053297,46.7075202 L825.053297,32.6675202 L800.753297,32.6675202 C800.573297,41.0915202 800.213297,44.2235202 799.169297,46.7075202 L796.253297,46.7075202 L796.253297,56.3555202 L803.885297,56.3555202 Z M817.025297,46.7075202 L806.801297,46.7075202 C807.629297,44.5115202 807.917297,41.8835202 808.061297,37.8155202 L817.025297,37.8155202 L817.025297,46.7075202 Z M839.237297,52.3955202 C844.925297,52.3955202 847.373297,50.4155202 848.201297,49.3715202 C848.489297,51.2075202 849.713297,52.0355202 851.261297,52.0355202 L857.777297,52.0355202 L857.777297,46.7795202 L856.733297,46.7795202 C855.905297,46.7795202 855.725297,46.3835202 855.725297,45.8075202 L855.725297,38.3915202 C855.725297,38.3246631 855.724888,38.2574386 855.72394,38.1899021 L855.719341,37.9864124 C855.716099,37.8842549 855.711344,37.7815202 855.70463,37.6783952 L855.688457,37.4716802 C855.450337,34.8826223 853.801868,32.1275202 843.773297,32.1275202 L841.793297,32.1275202 C832.193297,32.1275202 830.529297,35.2848536 830.278037,37.7816437 L830.26023,37.9880987 C830.245412,38.1928609 830.239147,38.3922996 830.23766,38.5842054 L830.237297,38.7515202 L837.689297,38.7515202 C837.797297,38.1035202 837.977297,36.5915202 842.765297,36.5915202 L842.945297,36.5915202 C847.661297,36.5915202 847.985297,37.4555202 847.985297,38.1755202 C847.985297,38.7875202 847.661297,39.0755202 846.761297,39.1835202 L837.905297,40.0115202 C832.109297,40.5515202 829.769297,42.2435202 829.769297,45.8075202 L829.769297,46.0595202 C829.769297,49.3715202 832.253297,52.3955202 838.769297,52.3955202 L839.237297,52.3955202 Z M840.929297,48.0395202 C838.193297,48.0395202 837.401297,46.8875202 837.401297,45.8435202 L837.401297,45.8075202 C837.401297,44.6915202 838.265297,44.3315202 840.317297,44.0075202 L847.985297,42.8195202 L847.985297,43.4315202 C847.985297,45.7355202 845.213297,48.0395202 840.929297,48.0395202 Z M885.209297,52.5755202 C896.873297,52.5755202 898.709297,47.0315202 898.709297,42.5675202 L898.709297,41.9195202 C898.709297,37.5275202 896.621297,32.1275202 885.209297,32.1275202 L883.373297,32.1275202 C874.193297,32.1275202 870.809297,35.9795202 870.053297,39.8315202 L867.389297,39.8315202 L867.389297,32.6675202 L859.361297,32.6675202 L859.361297,52.0355202 L867.389297,52.0355202 L867.389297,44.9435202 L870.089297,44.9435202 C870.953297,48.7955202 874.409297,52.5755202 883.409297,52.5755202 L885.209297,52.5755202 Z M884.309297,47.3555202 C879.197297,47.3555202 878.045297,44.6195202 878.045297,42.3515202 L878.045297,42.1715202 C878.045297,39.7235202 879.161297,37.2755202 884.309297,37.2755202 L884.345297,37.2755202 C889.385297,37.2755202 890.573297,39.7595202 890.573297,42.1715202 L890.573297,42.3515202 C890.573297,44.6195202 889.457297,47.3555202 884.309297,47.3555202 Z M942.845297,56.3555202 L942.845297,46.7075202 L938.885297,46.7075202 L938.885297,32.6675202 L930.857297,32.6675202 L930.857297,46.7075202 L923.945297,46.7075202 L923.945297,32.6675202 L915.917297,32.6675202 L915.917297,46.7075202 L909.005297,46.7075202 L909.005297,32.6675202 L900.977297,32.6675202 L900.977297,52.0355202 L935.177297,52.0355202 L935.177297,56.3555202 L942.845297,56.3555202 Z M952.817297,52.0355202 L964.985297,39.8315202 L964.985297,52.0355202 L973.013297,52.0355202 L973.013297,32.6675202 L964.805297,32.6675202 L952.637297,44.8715202 L952.637297,32.6675202 L944.609297,32.6675202 L944.609297,52.0355202 L952.817297,52.0355202 Z M983.129297,52.0355202 L988.709297,46.4915202 L994.397297,52.0355202 L1003.4693,52.0355202 L993.425297,42.0635202 L1003.1453,32.6675202 L994.145297,32.6675202 L989.069297,37.7435202 L983.993297,32.6675202 L974.525297,32.6675202 L984.317297,42.2075202 L974.201297,52.0355202 L983.129297,52.0355202 Z M1017.2213,52.5755202 C1029.46615,52.5755202 1030.83558,46.7682535 1030.86481,44.0277456 L1030.8653,43.8635202 L1022.6213,43.8635202 C1022.4413,44.6195202 1021.6493,47.4275202 1016.2133,47.4275202 L1016.1053,47.4275202 C1011.4613,47.4275202 1009.9493,44.8355202 1009.9493,42.2435202 L1009.9493,41.9915202 C1009.9493,39.5435202 1011.4253,37.2035202 1016.1053,37.2035202 L1016.2133,37.2035202 C1021.7213,37.2035202 1022.4413,39.9395202 1022.6213,40.6955202 L1030.8653,40.6955202 L1030.8653,40.5875202 C1030.8653,37.9955202 1029.3533,32.1275202 1017.2573,32.1275202 L1015.2053,32.1275202 C1004.1533,32.1275202 1001.7413,37.5635202 1001.7413,41.8835202 L1001.7413,42.6035202 C1001.7413,46.9235202 1004.1893,52.5755202 1015.2413,52.5755202 L1017.2213,52.5755202 Z M1041.2333,52.0355202 L1046.9573,46.4915202 L1050.6653,46.4915202 L1050.6653,52.0355202 L1058.6933,52.0355202 L1058.6933,32.6675202 L1041.4853,32.6675202 C1035.8693,32.6675202 1032.6293,35.1155202 1032.6293,39.3275202 L1032.6293,39.6875202 C1032.6293,42.9635202 1034.7173,45.1235202 1038.4973,45.8795202 L1032.0533,52.0355202 L1041.2333,52.0355202 Z M1050.6653,41.5595202 L1043.6813,41.5595202 C1041.1973,41.5595202 1040.6573,40.5155202 1040.6573,39.5795202 L1040.6573,39.4355202 C1040.6573,38.5355202 1041.1973,37.4195202 1043.6453,37.4195202 L1050.6653,37.4195202 L1050.6653,41.5595202 Z M562.577297,96.0355202 L562.577297,81.9955202 L572.729297,81.9955202 L572.729297,96.0355202 L580.757297,96.0355202 L580.757297,76.6675202 L554.549297,76.6675202 L554.549297,96.0355202 L562.577297,96.0355202 Z M592.061297,102.80352 L592.061297,93.2995202 C592.709297,94.0195202 595.949297,96.5035202 601.709297,96.5035202 L602.285297,96.5035202 C611.213297,96.5035202 614.237297,91.6795202 614.237297,86.6035202 L614.237297,85.9195202 C614.237297,80.5915202 611.321297,76.1995202 602.537297,76.1995202 L601.889297,76.1995202 C596.021297,76.1995202 592.925297,78.6835202 592.061297,79.4395202 L592.061297,76.6675202 L584.033297,76.6675202 L584.033297,102.80352 L592.061297,102.80352 Z M599.405297,91.3915202 L599.225297,91.3915202 C594.329297,91.3915202 592.061297,88.7635202 592.061297,86.3515202 L592.061297,86.2075202 C592.061297,83.7235202 594.221297,81.2035202 599.225297,81.2035202 L599.405297,81.2035202 C604.589297,81.2035202 606.029297,83.7235202 606.029297,86.2075202 L606.029297,86.3515202 C606.029297,88.6915202 604.589297,91.3915202 599.405297,91.3915202 Z M631.301297,96.5755202 C642.857297,96.5755202 644.585297,91.8595202 644.585297,89.2315202 L644.585297,89.1955202 L636.665297,89.1955202 C636.557297,89.6635202 635.693297,91.6795202 630.365297,91.6795202 L630.329297,91.6795202 C625.901297,91.6795202 623.957297,90.1675202 623.489297,87.8995202 L644.693297,87.8995202 L644.693297,86.5675202 C644.693297,81.8515202 642.605297,76.1275202 631.229297,76.1275202 L629.033297,76.1275202 C618.557297,76.1275202 615.605297,80.9155202 615.605297,85.8835202 L615.605297,86.6755202 C615.605297,91.7515202 618.917297,96.5755202 629.249297,96.5755202 L631.301297,96.5755202 Z M636.593297,83.9035202 L623.633297,83.9035202 C624.245297,81.8515202 626.045297,80.6275202 630.077297,80.6275202 L630.113297,80.6275202 C634.181297,80.6275202 636.053297,81.8515202 636.593297,83.9035202 Z M654.845297,96.0355202 L654.845297,81.9955202 L664.997297,81.9955202 L664.997297,96.0355202 L673.025297,96.0355202 L673.025297,76.6675202 L646.817297,76.6675202 L646.817297,96.0355202 L654.845297,96.0355202 Z M691.853297,96.5755202 C703.667917,96.5755202 705.668108,91.158236 705.712528,86.7218693 L705.713297,85.9195202 C705.713297,81.5275202 703.661297,76.1275202 691.853297,76.1275202 L689.297297,76.1275202 C678.065297,76.1275202 675.401297,81.4555202 675.401297,85.9195202 L675.401297,86.5675202 C675.401297,91.0315202 678.101297,96.5755202 689.333297,96.5755202 L691.853297,96.5755202 Z M690.593297,91.3555202 C685.121297,91.3555202 683.609297,88.6195202 683.609297,86.3515202 L683.609297,86.1715202 C683.609297,83.7235202 685.121297,81.2755202 690.593297,81.2755202 L690.629297,81.2755202 C696.029297,81.2755202 697.577297,83.7595202 697.577297,86.1715202 L697.577297,86.3515202 C697.577297,88.6195202 696.065297,91.3555202 690.593297,91.3555202 Z M713.381297,100.35552 L713.381297,96.0355202 L730.841297,96.0355202 L730.841297,100.35552 L738.509297,100.35552 L738.509297,90.7075202 L734.549297,90.7075202 L734.549297,76.6675202 L710.249297,76.6675202 C710.069297,85.0915202 709.709297,88.2235202 708.665297,90.7075202 L705.749297,90.7075202 L705.749297,100.35552 L713.381297,100.35552 Z M726.521297,90.7075202 L716.297297,90.7075202 C717.125297,88.5115202 717.413297,85.8835202 717.557297,81.8155202 L726.521297,81.8155202 L726.521297,90.7075202 Z M748.733297,96.3955202 C754.421297,96.3955202 756.869297,94.4155202 757.697297,93.3715202 C757.985297,95.2075202 759.209297,96.0355202 760.757297,96.0355202 L767.273297,96.0355202 L767.273297,90.7795202 L766.229297,90.7795202 C765.401297,90.7795202 765.221297,90.3835202 765.221297,89.8075202 L765.221297,82.3915202 C765.221297,82.3246631 765.220888,82.2574386 765.21994,82.1899021 L765.215341,81.9864124 C765.212099,81.8842549 765.207344,81.7815202 765.20063,81.6783952 L765.184457,81.4716802 C764.946337,78.8826223 763.297868,76.1275202 753.269297,76.1275202 L751.289297,76.1275202 C741.689297,76.1275202 740.025297,79.2848536 739.774037,81.7816437 L739.75623,81.9880987 C739.738943,82.226988 739.733297,82.4586313 739.733297,82.6795202 L739.733297,82.7515202 L747.185297,82.7515202 C747.293297,82.1035202 747.473297,80.5915202 752.261297,80.5915202 L752.441297,80.5915202 C757.157297,80.5915202 757.481297,81.4555202 757.481297,82.1755202 C757.481297,82.7875202 757.157297,83.0755202 756.257297,83.1835202 L747.401297,84.0115202 C741.605297,84.5515202 739.265297,86.2435202 739.265297,89.8075202 L739.265297,90.0595202 C739.265297,93.3715202 741.749297,96.3955202 748.265297,96.3955202 L748.733297,96.3955202 Z M750.425297,92.0395202 C747.689297,92.0395202 746.897297,90.8875202 746.897297,89.8435202 L746.897297,89.8075202 C746.897297,88.6915202 747.761297,88.3315202 749.813297,88.0075202 L757.481297,86.8195202 L757.481297,87.4315202 C757.481297,89.7355202 754.709297,92.0395202 750.425297,92.0395202 Z M785.237297,96.0355202 C792.545297,96.0355202 795.137297,93.5875202 795.137297,90.5635202 L795.137297,90.2035202 C795.137297,87.6475202 792.581297,86.1715202 789.881297,85.5955202 C792.581297,84.9835202 794.237297,83.6515202 794.237297,81.5275202 L794.237297,81.1675202 C794.237297,78.2515202 791.465297,76.6675202 783.185297,76.6675202 L768.857297,76.6675202 L768.857297,96.0355202 L785.237297,96.0355202 Z M782.789297,83.8315202 L776.885297,83.8315202 L776.885297,80.9155202 L782.753297,80.9155202 C785.309297,80.9155202 786.065297,81.3835202 786.065297,82.2835202 L786.065297,82.3915202 C786.065297,83.3635202 785.273297,83.8315202 782.789297,83.8315202 Z M783.509297,91.6795202 L776.885297,91.6795202 L776.885297,87.8995202 L783.473297,87.8995202 C785.813297,87.8995202 786.965297,88.4755202 786.965297,89.6275202 L786.965297,89.8075202 C786.965297,91.0675202 785.813297,91.6795202 783.509297,91.6795202 Z M806.081297,96.3955202 C811.769297,96.3955202 814.217297,94.4155202 815.045297,93.3715202 C815.333297,95.2075202 816.557297,96.0355202 818.105297,96.0355202 L824.621297,96.0355202 L824.621297,90.7795202 L823.577297,90.7795202 C822.749297,90.7795202 822.569297,90.3835202 822.569297,89.8075202 L822.569297,82.3915202 C822.569297,82.3246631 822.568888,82.2574386 822.56794,82.1899021 L822.563341,81.9864124 C822.560099,81.8842549 822.555344,81.7815202 822.54863,81.6783952 L822.532457,81.4716802 C822.294337,78.8826223 820.645868,76.1275202 810.617297,76.1275202 L808.637297,76.1275202 C799.037297,76.1275202 797.373297,79.2848536 797.122037,81.7816437 L797.10423,81.9880987 C797.086943,82.226988 797.081297,82.4586313 797.081297,82.6795202 L797.081297,82.7515202 L804.533297,82.7515202 C804.641297,82.1035202 804.821297,80.5915202 809.609297,80.5915202 L809.789297,80.5915202 C814.505297,80.5915202 814.829297,81.4555202 814.829297,82.1755202 C814.829297,82.7875202 814.505297,83.0755202 813.605297,83.1835202 L804.749297,84.0115202 C798.953297,84.5515202 796.613297,86.2435202 796.613297,89.8075202 L796.613297,90.0595202 C796.613297,93.3715202 799.097297,96.3955202 805.613297,96.3955202 L806.081297,96.3955202 Z M807.773297,92.0395202 C805.037297,92.0395202 804.245297,90.8875202 804.245297,89.8435202 L804.245297,89.8075202 C804.245297,88.6915202 805.109297,88.3315202 807.161297,88.0075202 L814.829297,86.8195202 L814.829297,87.4315202 C814.829297,89.7355202 812.057297,92.0395202 807.773297,92.0395202 Z M840.569297,96.0355202 L840.569297,81.9955202 L848.669297,81.9955202 L848.669297,76.6675202 L824.441297,76.6675202 L824.441297,81.9955202 L832.541297,81.9955202 L832.541297,96.0355202 L840.569297,96.0355202 Z M865.697297,96.5755202 C877.253297,96.5755202 878.981297,91.8595202 878.981297,89.2315202 L878.981297,89.1955202 L871.061297,89.1955202 C870.953297,89.6635202 870.089297,91.6795202 864.761297,91.6795202 L864.725297,91.6795202 C860.297297,91.6795202 858.353297,90.1675202 857.885297,87.8995202 L879.089297,87.8995202 L879.089297,86.5675202 C879.089297,81.8515202 877.001297,76.1275202 865.625297,76.1275202 L863.429297,76.1275202 C852.953297,76.1275202 850.001297,80.9155202 850.001297,85.8835202 L850.001297,86.6755202 C850.001297,91.7515202 853.313297,96.5755202 863.645297,96.5755202 L865.697297,96.5755202 Z M870.989297,83.9035202 L858.029297,83.9035202 C858.641297,81.8515202 860.441297,80.6275202 864.473297,80.6275202 L864.509297,80.6275202 C868.577297,80.6275202 870.449297,81.8515202 870.989297,83.9035202 Z M882.401297,96.0355202 C886.469297,96.0355202 888.557297,94.3075202 889.277297,91.9675202 C889.853297,90.0595202 890.069297,87.3955202 890.069297,81.9955202 L897.845297,81.9955202 L897.845297,96.0355202 L905.873297,96.0355202 L905.873297,76.6675202 L882.869297,76.6675202 C882.869297,85.1852345 882.716734,86.9291801 882.467791,88.3321609 L882.428396,88.5480184 C882.419473,88.5957742 882.410439,88.6435202 882.401297,88.6915202 C882.113297,90.2395202 881.465297,90.7075202 880.421297,90.7075202 L879.989297,90.7075202 L879.989297,96.0355202 L882.401297,96.0355202 Z M923.945297,96.5755202 C935.501297,96.5755202 937.229297,91.8595202 937.229297,89.2315202 L937.229297,89.1955202 L929.309297,89.1955202 C929.201297,89.6635202 928.337297,91.6795202 923.009297,91.6795202 L922.973297,91.6795202 C918.545297,91.6795202 916.601297,90.1675202 916.133297,87.8995202 L937.337297,87.8995202 L937.337297,86.5675202 C937.337297,81.8515202 935.249297,76.1275202 923.873297,76.1275202 L921.677297,76.1275202 C911.201297,76.1275202 908.249297,80.9155202 908.249297,85.8835202 L908.249297,86.6755202 C908.249297,91.7515202 911.561297,96.5755202 921.893297,96.5755202 L923.945297,96.5755202 Z M929.237297,83.9035202 L916.277297,83.9035202 C916.889297,81.8515202 918.689297,80.6275202 922.721297,80.6275202 L922.757297,80.6275202 C926.825297,80.6275202 928.697297,81.8515202 929.237297,83.9035202 Z M954.365297,75.0835202 C960.305297,75.0835202 961.997297,71.1595202 961.997297,69.3235202 L961.997297,69.2515202 L956.021297,69.2515202 C956.021297,69.6835202 955.661297,71.0155202 953.825297,71.0155202 C951.953297,71.0155202 951.593297,69.6835202 951.593297,69.2515202 L945.473297,69.2515202 L945.473297,69.3235202 C945.473297,71.1595202 946.661297,75.0835202 953.213297,75.0835202 L954.365297,75.0835202 Z M947.669297,96.0355202 L959.837297,83.8315202 L959.837297,96.0355202 L967.865297,96.0355202 L967.865297,76.6675202 L959.657297,76.6675202 L947.489297,88.8715202 L947.489297,76.6675202 L939.461297,76.6675202 L939.461297,96.0355202 L947.669297,96.0355202 Z" id="иеще60+выдающихсяпреподавателей" fill="#B1FDEB" fill-rule="nonzero"></path> </g> <g id="Group-5" transform="translate(775.038996, 194.914381) rotate(5.000000) translate(-775.038996, -194.914381) translate(17.038996, 131.914381)"> <rect id="Rectangle" fill="#FFFFFF" x="-1.59161573e-12" y="-1.27329258e-11" width="1516" height="126"></rect> <path d="M471.929297,52.0355202 L484.097297,39.8315202 L484.097297,52.0355202 L492.125297,52.0355202 L492.125297,32.6675202 L483.917297,32.6675202 L471.749297,44.8715202 L471.749297,32.6675202 L463.721297,32.6675202 L463.721297,52.0355202 L471.929297,52.0355202 Z M521.285297,52.5755202 C532.841297,52.5755202 534.569297,47.8595202 534.569297,45.2315202 L534.569297,45.1955202 L526.649297,45.1955202 C526.541297,45.6635202 525.677297,47.6795202 520.349297,47.6795202 L520.313297,47.6795202 C515.885297,47.6795202 513.941297,46.1675202 513.473297,43.8995202 L534.677297,43.8995202 L534.677297,42.5675202 C534.677297,37.8515202 532.589297,32.1275202 521.213297,32.1275202 L519.017297,32.1275202 C508.541297,32.1275202 505.589297,36.9155202 505.589297,41.8835202 L505.589297,42.6755202 C505.589297,47.7515202 508.901297,52.5755202 519.233297,52.5755202 L521.285297,52.5755202 Z M526.577297,39.9035202 L513.617297,39.9035202 C514.229297,37.8515202 516.029297,36.6275202 520.061297,36.6275202 L520.097297,36.6275202 C524.165297,36.6275202 526.037297,37.8515202 526.577297,39.9035202 Z M578.669297,56.3555202 L578.669297,46.7075202 L574.709297,46.7075202 L574.709297,32.6675202 L566.681297,32.6675202 L566.681297,46.7075202 L559.769297,46.7075202 L559.769297,32.6675202 L551.741297,32.6675202 L551.741297,46.7075202 L544.829297,46.7075202 L544.829297,32.6675202 L536.801297,32.6675202 L536.801297,52.0355202 L571.001297,52.0355202 L571.001297,56.3555202 L578.669297,56.3555202 Z M594.977297,52.5755202 C606.533297,52.5755202 608.261297,47.8595202 608.261297,45.2315202 L608.261297,45.1955202 L600.341297,45.1955202 C600.233297,45.6635202 599.369297,47.6795202 594.041297,47.6795202 L594.005297,47.6795202 C589.577297,47.6795202 587.633297,46.1675202 587.165297,43.8995202 L608.369297,43.8995202 L608.369297,42.5675202 C608.369297,37.8515202 606.281297,32.1275202 594.905297,32.1275202 L592.709297,32.1275202 C582.233297,32.1275202 579.281297,36.9155202 579.281297,41.8835202 L579.281297,42.6755202 C579.281297,47.7515202 582.593297,52.5755202 592.925297,52.5755202 L594.977297,52.5755202 Z M600.269297,39.9035202 L587.309297,39.9035202 C587.921297,37.8515202 589.721297,36.6275202 593.753297,36.6275202 L593.789297,36.6275202 C597.857297,36.6275202 599.729297,37.8515202 600.269297,39.9035202 Z M639.185297,52.5755202 C652.685297,52.5755202 654.917297,47.3195202 654.917297,43.3955202 L654.917297,43.0715202 C654.917297,38.8595202 652.253297,34.7915202 641.021297,34.7915202 L640.553297,34.7915202 C632.489297,34.7915202 630.257297,36.8075202 629.429297,37.3835202 L629.429297,37.2395202 C629.429297,35.4035202 630.257297,30.9755202 637.997297,30.9755202 C644.261297,30.9755202 644.945297,33.0275202 645.125297,33.3155202 L653.765297,33.3155202 L653.765297,33.1715202 C653.765297,29.6075202 650.813297,24.7835202 638.717297,24.7835202 L637.277297,24.7835202 C624.353297,24.7835202 621.041297,32.0915202 621.041297,38.2475202 L621.041297,39.1115202 C621.041297,45.2675202 623.813297,52.5755202 637.601297,52.5755202 L639.185297,52.5755202 Z M638.357297,46.4915202 C631.733297,46.4915202 630.509297,44.6555202 630.509297,43.3955202 L630.509297,43.2875202 C630.509297,41.9195202 631.697297,40.4075202 638.357297,40.4075202 C645.233297,40.4075202 646.133297,42.0275202 646.133297,43.3595202 L646.133297,43.5035202 C646.133297,44.7635202 645.233297,46.4915202 638.357297,46.4915202 Z M676.337297,52.5035202 C692.249297,52.5035202 694.409297,43.7915202 694.409297,39.1115202 L694.409297,38.0315202 C694.409297,33.2795202 692.213297,24.7835202 676.337297,24.7835202 L674.753297,24.7835202 C659.071697,24.7835202 656.727297,33.1104498 656.681978,37.8878493 L656.681297,39.1115202 C656.681297,43.8275202 658.913297,52.5035202 674.753297,52.5035202 L676.337297,52.5035202 Z M675.545297,45.9515202 C667.373297,45.9515202 665.465297,41.7395202 665.465297,38.7155202 L665.465297,38.2835202 C665.465297,35.2595202 667.193297,31.2995202 675.545297,31.2995202 C683.753297,31.2995202 685.625297,35.2595202 685.625297,38.2835202 L685.625297,38.7875202 C685.625297,41.8475202 683.717297,45.9515202 675.545297,45.9515202 Z M709.601297,49.7675202 L709.601297,43.4315202 L716.441297,43.4315202 L716.441297,38.4635202 L709.601297,38.4635202 L709.601297,32.1275202 L703.553297,32.1275202 L703.553297,38.4635202 L696.749297,38.4635202 L696.749297,43.4315202 L703.553297,43.4315202 L703.553297,49.7675202 L709.601297,49.7675202 Z M746.861297,52.0355202 C754.169297,52.0355202 756.761297,49.5875202 756.761297,46.5635202 L756.761297,46.2035202 C756.761297,43.6475202 754.205297,42.1715202 751.505297,41.5955202 C754.205297,40.9835202 755.861297,39.6515202 755.861297,37.5275202 L755.861297,37.1675202 C755.861297,34.2515202 753.089297,32.6675202 744.809297,32.6675202 L730.481297,32.6675202 L730.481297,52.0355202 L746.861297,52.0355202 Z M744.413297,39.8315202 L738.509297,39.8315202 L738.509297,36.9155202 L744.377297,36.9155202 C746.933297,36.9155202 747.689297,37.3835202 747.689297,38.2835202 L747.689297,38.3915202 C747.689297,39.3635202 746.897297,39.8315202 744.413297,39.8315202 Z M745.133297,47.6795202 L738.509297,47.6795202 L738.509297,43.8995202 L745.097297,43.8995202 C747.437297,43.8995202 748.589297,44.4755202 748.589297,45.6275202 L748.589297,45.8075202 C748.589297,47.0675202 747.437297,47.6795202 745.133297,47.6795202 Z M775.949297,52.0355202 C781.745297,52.0355202 784.661297,48.5435202 784.661297,44.7995202 L784.661297,44.4395202 C784.661297,40.6595202 781.709297,37.7075202 775.949297,37.7075202 L767.273297,37.7075202 L767.273297,32.6675202 L759.245297,32.6675202 L759.245297,52.0355202 L775.949297,52.0355202 Z M794.597297,52.0355202 L794.597297,32.6675202 L786.569297,32.6675202 L786.569297,52.0355202 L794.597297,52.0355202 Z M773.933297,47.1035202 L767.273297,47.1035202 L767.273297,42.6395202 L773.933297,42.6395202 C775.661297,42.6395202 776.489297,43.6115202 776.489297,44.7635202 L776.489297,44.9435202 C776.489297,46.0595202 775.661297,47.1035202 773.933297,47.1035202 Z M803.885297,56.3555202 L803.885297,52.0355202 L821.345297,52.0355202 L821.345297,56.3555202 L829.013297,56.3555202 L829.013297,46.7075202 L825.053297,46.7075202 L825.053297,32.6675202 L800.753297,32.6675202 C800.573297,41.0915202 800.213297,44.2235202 799.169297,46.7075202 L796.253297,46.7075202 L796.253297,56.3555202 L803.885297,56.3555202 Z M817.025297,46.7075202 L806.801297,46.7075202 C807.629297,44.5115202 807.917297,41.8835202 808.061297,37.8155202 L817.025297,37.8155202 L817.025297,46.7075202 Z M839.237297,52.3955202 C844.925297,52.3955202 847.373297,50.4155202 848.201297,49.3715202 C848.489297,51.2075202 849.713297,52.0355202 851.261297,52.0355202 L857.777297,52.0355202 L857.777297,46.7795202 L856.733297,46.7795202 C855.905297,46.7795202 855.725297,46.3835202 855.725297,45.8075202 L855.725297,38.3915202 C855.725297,38.3246631 855.724888,38.2574386 855.72394,38.1899021 L855.719341,37.9864124 C855.716099,37.8842549 855.711344,37.7815202 855.70463,37.6783952 L855.688457,37.4716802 C855.450337,34.8826223 853.801868,32.1275202 843.773297,32.1275202 L841.793297,32.1275202 C832.193297,32.1275202 830.529297,35.2848536 830.278037,37.7816437 L830.26023,37.9880987 C830.245412,38.1928609 830.239147,38.3922996 830.23766,38.5842054 L830.237297,38.7515202 L837.689297,38.7515202 C837.797297,38.1035202 837.977297,36.5915202 842.765297,36.5915202 L842.945297,36.5915202 C847.661297,36.5915202 847.985297,37.4555202 847.985297,38.1755202 C847.985297,38.7875202 847.661297,39.0755202 846.761297,39.1835202 L837.905297,40.0115202 C832.109297,40.5515202 829.769297,42.2435202 829.769297,45.8075202 L829.769297,46.0595202 C829.769297,49.3715202 832.253297,52.3955202 838.769297,52.3955202 L839.237297,52.3955202 Z M840.929297,48.0395202 C838.193297,48.0395202 837.401297,46.8875202 837.401297,45.8435202 L837.401297,45.8075202 C837.401297,44.6915202 838.265297,44.3315202 840.317297,44.0075202 L847.985297,42.8195202 L847.985297,43.4315202 C847.985297,45.7355202 845.213297,48.0395202 840.929297,48.0395202 Z M885.209297,52.5755202 C896.873297,52.5755202 898.709297,47.0315202 898.709297,42.5675202 L898.709297,41.9195202 C898.709297,37.5275202 896.621297,32.1275202 885.209297,32.1275202 L883.373297,32.1275202 C874.193297,32.1275202 870.809297,35.9795202 870.053297,39.8315202 L867.389297,39.8315202 L867.389297,32.6675202 L859.361297,32.6675202 L859.361297,52.0355202 L867.389297,52.0355202 L867.389297,44.9435202 L870.089297,44.9435202 C870.953297,48.7955202 874.409297,52.5755202 883.409297,52.5755202 L885.209297,52.5755202 Z M884.309297,47.3555202 C879.197297,47.3555202 878.045297,44.6195202 878.045297,42.3515202 L878.045297,42.1715202 C878.045297,39.7235202 879.161297,37.2755202 884.309297,37.2755202 L884.345297,37.2755202 C889.385297,37.2755202 890.573297,39.7595202 890.573297,42.1715202 L890.573297,42.3515202 C890.573297,44.6195202 889.457297,47.3555202 884.309297,47.3555202 Z M942.845297,56.3555202 L942.845297,46.7075202 L938.885297,46.7075202 L938.885297,32.6675202 L930.857297,32.6675202 L930.857297,46.7075202 L923.945297,46.7075202 L923.945297,32.6675202 L915.917297,32.6675202 L915.917297,46.7075202 L909.005297,46.7075202 L909.005297,32.6675202 L900.977297,32.6675202 L900.977297,52.0355202 L935.177297,52.0355202 L935.177297,56.3555202 L942.845297,56.3555202 Z M952.817297,52.0355202 L964.985297,39.8315202 L964.985297,52.0355202 L973.013297,52.0355202 L973.013297,32.6675202 L964.805297,32.6675202 L952.637297,44.8715202 L952.637297,32.6675202 L944.609297,32.6675202 L944.609297,52.0355202 L952.817297,52.0355202 Z M983.129297,52.0355202 L988.709297,46.4915202 L994.397297,52.0355202 L1003.4693,52.0355202 L993.425297,42.0635202 L1003.1453,32.6675202 L994.145297,32.6675202 L989.069297,37.7435202 L983.993297,32.6675202 L974.525297,32.6675202 L984.317297,42.2075202 L974.201297,52.0355202 L983.129297,52.0355202 Z M1017.2213,52.5755202 C1029.46615,52.5755202 1030.83558,46.7682535 1030.86481,44.0277456 L1030.8653,43.8635202 L1022.6213,43.8635202 C1022.4413,44.6195202 1021.6493,47.4275202 1016.2133,47.4275202 L1016.1053,47.4275202 C1011.4613,47.4275202 1009.9493,44.8355202 1009.9493,42.2435202 L1009.9493,41.9915202 C1009.9493,39.5435202 1011.4253,37.2035202 1016.1053,37.2035202 L1016.2133,37.2035202 C1021.7213,37.2035202 1022.4413,39.9395202 1022.6213,40.6955202 L1030.8653,40.6955202 L1030.8653,40.5875202 C1030.8653,37.9955202 1029.3533,32.1275202 1017.2573,32.1275202 L1015.2053,32.1275202 C1004.1533,32.1275202 1001.7413,37.5635202 1001.7413,41.8835202 L1001.7413,42.6035202 C1001.7413,46.9235202 1004.1893,52.5755202 1015.2413,52.5755202 L1017.2213,52.5755202 Z M1041.2333,52.0355202 L1046.9573,46.4915202 L1050.6653,46.4915202 L1050.6653,52.0355202 L1058.6933,52.0355202 L1058.6933,32.6675202 L1041.4853,32.6675202 C1035.8693,32.6675202 1032.6293,35.1155202 1032.6293,39.3275202 L1032.6293,39.6875202 C1032.6293,42.9635202 1034.7173,45.1235202 1038.4973,45.8795202 L1032.0533,52.0355202 L1041.2333,52.0355202 Z M1050.6653,41.5595202 L1043.6813,41.5595202 C1041.1973,41.5595202 1040.6573,40.5155202 1040.6573,39.5795202 L1040.6573,39.4355202 C1040.6573,38.5355202 1041.1973,37.4195202 1043.6453,37.4195202 L1050.6653,37.4195202 L1050.6653,41.5595202 Z M562.577297,96.0355202 L562.577297,81.9955202 L572.729297,81.9955202 L572.729297,96.0355202 L580.757297,96.0355202 L580.757297,76.6675202 L554.549297,76.6675202 L554.549297,96.0355202 L562.577297,96.0355202 Z M592.061297,102.80352 L592.061297,93.2995202 C592.709297,94.0195202 595.949297,96.5035202 601.709297,96.5035202 L602.285297,96.5035202 C611.213297,96.5035202 614.237297,91.6795202 614.237297,86.6035202 L614.237297,85.9195202 C614.237297,80.5915202 611.321297,76.1995202 602.537297,76.1995202 L601.889297,76.1995202 C596.021297,76.1995202 592.925297,78.6835202 592.061297,79.4395202 L592.061297,76.6675202 L584.033297,76.6675202 L584.033297,102.80352 L592.061297,102.80352 Z M599.405297,91.3915202 L599.225297,91.3915202 C594.329297,91.3915202 592.061297,88.7635202 592.061297,86.3515202 L592.061297,86.2075202 C592.061297,83.7235202 594.221297,81.2035202 599.225297,81.2035202 L599.405297,81.2035202 C604.589297,81.2035202 606.029297,83.7235202 606.029297,86.2075202 L606.029297,86.3515202 C606.029297,88.6915202 604.589297,91.3915202 599.405297,91.3915202 Z M631.301297,96.5755202 C642.857297,96.5755202 644.585297,91.8595202 644.585297,89.2315202 L644.585297,89.1955202 L636.665297,89.1955202 C636.557297,89.6635202 635.693297,91.6795202 630.365297,91.6795202 L630.329297,91.6795202 C625.901297,91.6795202 623.957297,90.1675202 623.489297,87.8995202 L644.693297,87.8995202 L644.693297,86.5675202 C644.693297,81.8515202 642.605297,76.1275202 631.229297,76.1275202 L629.033297,76.1275202 C618.557297,76.1275202 615.605297,80.9155202 615.605297,85.8835202 L615.605297,86.6755202 C615.605297,91.7515202 618.917297,96.5755202 629.249297,96.5755202 L631.301297,96.5755202 Z M636.593297,83.9035202 L623.633297,83.9035202 C624.245297,81.8515202 626.045297,80.6275202 630.077297,80.6275202 L630.113297,80.6275202 C634.181297,80.6275202 636.053297,81.8515202 636.593297,83.9035202 Z M654.845297,96.0355202 L654.845297,81.9955202 L664.997297,81.9955202 L664.997297,96.0355202 L673.025297,96.0355202 L673.025297,76.6675202 L646.817297,76.6675202 L646.817297,96.0355202 L654.845297,96.0355202 Z M691.853297,96.5755202 C703.667917,96.5755202 705.668108,91.158236 705.712528,86.7218693 L705.713297,85.9195202 C705.713297,81.5275202 703.661297,76.1275202 691.853297,76.1275202 L689.297297,76.1275202 C678.065297,76.1275202 675.401297,81.4555202 675.401297,85.9195202 L675.401297,86.5675202 C675.401297,91.0315202 678.101297,96.5755202 689.333297,96.5755202 L691.853297,96.5755202 Z M690.593297,91.3555202 C685.121297,91.3555202 683.609297,88.6195202 683.609297,86.3515202 L683.609297,86.1715202 C683.609297,83.7235202 685.121297,81.2755202 690.593297,81.2755202 L690.629297,81.2755202 C696.029297,81.2755202 697.577297,83.7595202 697.577297,86.1715202 L697.577297,86.3515202 C697.577297,88.6195202 696.065297,91.3555202 690.593297,91.3555202 Z M713.381297,100.35552 L713.381297,96.0355202 L730.841297,96.0355202 L730.841297,100.35552 L738.509297,100.35552 L738.509297,90.7075202 L734.549297,90.7075202 L734.549297,76.6675202 L710.249297,76.6675202 C710.069297,85.0915202 709.709297,88.2235202 708.665297,90.7075202 L705.749297,90.7075202 L705.749297,100.35552 L713.381297,100.35552 Z M726.521297,90.7075202 L716.297297,90.7075202 C717.125297,88.5115202 717.413297,85.8835202 717.557297,81.8155202 L726.521297,81.8155202 L726.521297,90.7075202 Z M748.733297,96.3955202 C754.421297,96.3955202 756.869297,94.4155202 757.697297,93.3715202 C757.985297,95.2075202 759.209297,96.0355202 760.757297,96.0355202 L767.273297,96.0355202 L767.273297,90.7795202 L766.229297,90.7795202 C765.401297,90.7795202 765.221297,90.3835202 765.221297,89.8075202 L765.221297,82.3915202 C765.221297,82.3246631 765.220888,82.2574386 765.21994,82.1899021 L765.215341,81.9864124 C765.212099,81.8842549 765.207344,81.7815202 765.20063,81.6783952 L765.184457,81.4716802 C764.946337,78.8826223 763.297868,76.1275202 753.269297,76.1275202 L751.289297,76.1275202 C741.689297,76.1275202 740.025297,79.2848536 739.774037,81.7816437 L739.75623,81.9880987 C739.738943,82.226988 739.733297,82.4586313 739.733297,82.6795202 L739.733297,82.7515202 L747.185297,82.7515202 C747.293297,82.1035202 747.473297,80.5915202 752.261297,80.5915202 L752.441297,80.5915202 C757.157297,80.5915202 757.481297,81.4555202 757.481297,82.1755202 C757.481297,82.7875202 757.157297,83.0755202 756.257297,83.1835202 L747.401297,84.0115202 C741.605297,84.5515202 739.265297,86.2435202 739.265297,89.8075202 L739.265297,90.0595202 C739.265297,93.3715202 741.749297,96.3955202 748.265297,96.3955202 L748.733297,96.3955202 Z M750.425297,92.0395202 C747.689297,92.0395202 746.897297,90.8875202 746.897297,89.8435202 L746.897297,89.8075202 C746.897297,88.6915202 747.761297,88.3315202 749.813297,88.0075202 L757.481297,86.8195202 L757.481297,87.4315202 C757.481297,89.7355202 754.709297,92.0395202 750.425297,92.0395202 Z M785.237297,96.0355202 C792.545297,96.0355202 795.137297,93.5875202 795.137297,90.5635202 L795.137297,90.2035202 C795.137297,87.6475202 792.581297,86.1715202 789.881297,85.5955202 C792.581297,84.9835202 794.237297,83.6515202 794.237297,81.5275202 L794.237297,81.1675202 C794.237297,78.2515202 791.465297,76.6675202 783.185297,76.6675202 L768.857297,76.6675202 L768.857297,96.0355202 L785.237297,96.0355202 Z M782.789297,83.8315202 L776.885297,83.8315202 L776.885297,80.9155202 L782.753297,80.9155202 C785.309297,80.9155202 786.065297,81.3835202 786.065297,82.2835202 L786.065297,82.3915202 C786.065297,83.3635202 785.273297,83.8315202 782.789297,83.8315202 Z M783.509297,91.6795202 L776.885297,91.6795202 L776.885297,87.8995202 L783.473297,87.8995202 C785.813297,87.8995202 786.965297,88.4755202 786.965297,89.6275202 L786.965297,89.8075202 C786.965297,91.0675202 785.813297,91.6795202 783.509297,91.6795202 Z M806.081297,96.3955202 C811.769297,96.3955202 814.217297,94.4155202 815.045297,93.3715202 C815.333297,95.2075202 816.557297,96.0355202 818.105297,96.0355202 L824.621297,96.0355202 L824.621297,90.7795202 L823.577297,90.7795202 C822.749297,90.7795202 822.569297,90.3835202 822.569297,89.8075202 L822.569297,82.3915202 C822.569297,82.3246631 822.568888,82.2574386 822.56794,82.1899021 L822.563341,81.9864124 C822.560099,81.8842549 822.555344,81.7815202 822.54863,81.6783952 L822.532457,81.4716802 C822.294337,78.8826223 820.645868,76.1275202 810.617297,76.1275202 L808.637297,76.1275202 C799.037297,76.1275202 797.373297,79.2848536 797.122037,81.7816437 L797.10423,81.9880987 C797.086943,82.226988 797.081297,82.4586313 797.081297,82.6795202 L797.081297,82.7515202 L804.533297,82.7515202 C804.641297,82.1035202 804.821297,80.5915202 809.609297,80.5915202 L809.789297,80.5915202 C814.505297,80.5915202 814.829297,81.4555202 814.829297,82.1755202 C814.829297,82.7875202 814.505297,83.0755202 813.605297,83.1835202 L804.749297,84.0115202 C798.953297,84.5515202 796.613297,86.2435202 796.613297,89.8075202 L796.613297,90.0595202 C796.613297,93.3715202 799.097297,96.3955202 805.613297,96.3955202 L806.081297,96.3955202 Z M807.773297,92.0395202 C805.037297,92.0395202 804.245297,90.8875202 804.245297,89.8435202 L804.245297,89.8075202 C804.245297,88.6915202 805.109297,88.3315202 807.161297,88.0075202 L814.829297,86.8195202 L814.829297,87.4315202 C814.829297,89.7355202 812.057297,92.0395202 807.773297,92.0395202 Z M840.569297,96.0355202 L840.569297,81.9955202 L848.669297,81.9955202 L848.669297,76.6675202 L824.441297,76.6675202 L824.441297,81.9955202 L832.541297,81.9955202 L832.541297,96.0355202 L840.569297,96.0355202 Z M865.697297,96.5755202 C877.253297,96.5755202 878.981297,91.8595202 878.981297,89.2315202 L878.981297,89.1955202 L871.061297,89.1955202 C870.953297,89.6635202 870.089297,91.6795202 864.761297,91.6795202 L864.725297,91.6795202 C860.297297,91.6795202 858.353297,90.1675202 857.885297,87.8995202 L879.089297,87.8995202 L879.089297,86.5675202 C879.089297,81.8515202 877.001297,76.1275202 865.625297,76.1275202 L863.429297,76.1275202 C852.953297,76.1275202 850.001297,80.9155202 850.001297,85.8835202 L850.001297,86.6755202 C850.001297,91.7515202 853.313297,96.5755202 863.645297,96.5755202 L865.697297,96.5755202 Z M870.989297,83.9035202 L858.029297,83.9035202 C858.641297,81.8515202 860.441297,80.6275202 864.473297,80.6275202 L864.509297,80.6275202 C868.577297,80.6275202 870.449297,81.8515202 870.989297,83.9035202 Z M882.401297,96.0355202 C886.469297,96.0355202 888.557297,94.3075202 889.277297,91.9675202 C889.853297,90.0595202 890.069297,87.3955202 890.069297,81.9955202 L897.845297,81.9955202 L897.845297,96.0355202 L905.873297,96.0355202 L905.873297,76.6675202 L882.869297,76.6675202 C882.869297,85.1852345 882.716734,86.9291801 882.467791,88.3321609 L882.428396,88.5480184 C882.419473,88.5957742 882.410439,88.6435202 882.401297,88.6915202 C882.113297,90.2395202 881.465297,90.7075202 880.421297,90.7075202 L879.989297,90.7075202 L879.989297,96.0355202 L882.401297,96.0355202 Z M923.945297,96.5755202 C935.501297,96.5755202 937.229297,91.8595202 937.229297,89.2315202 L937.229297,89.1955202 L929.309297,89.1955202 C929.201297,89.6635202 928.337297,91.6795202 923.009297,91.6795202 L922.973297,91.6795202 C918.545297,91.6795202 916.601297,90.1675202 916.133297,87.8995202 L937.337297,87.8995202 L937.337297,86.5675202 C937.337297,81.8515202 935.249297,76.1275202 923.873297,76.1275202 L921.677297,76.1275202 C911.201297,76.1275202 908.249297,80.9155202 908.249297,85.8835202 L908.249297,86.6755202 C908.249297,91.7515202 911.561297,96.5755202 921.893297,96.5755202 L923.945297,96.5755202 Z M929.237297,83.9035202 L916.277297,83.9035202 C916.889297,81.8515202 918.689297,80.6275202 922.721297,80.6275202 L922.757297,80.6275202 C926.825297,80.6275202 928.697297,81.8515202 929.237297,83.9035202 Z M954.365297,75.0835202 C960.305297,75.0835202 961.997297,71.1595202 961.997297,69.3235202 L961.997297,69.2515202 L956.021297,69.2515202 C956.021297,69.6835202 955.661297,71.0155202 953.825297,71.0155202 C951.953297,71.0155202 951.593297,69.6835202 951.593297,69.2515202 L945.473297,69.2515202 L945.473297,69.3235202 C945.473297,71.1595202 946.661297,75.0835202 953.213297,75.0835202 L954.365297,75.0835202 Z M947.669297,96.0355202 L959.837297,83.8315202 L959.837297,96.0355202 L967.865297,96.0355202 L967.865297,76.6675202 L959.657297,76.6675202 L947.489297,88.8715202 L947.489297,76.6675202 L939.461297,76.6675202 L939.461297,96.0355202 L947.669297,96.0355202 Z" id="иеще60+выдающихсяпреподавателей" fill="#B1FDEB" fill-rule="nonzero"></path> </g> <g id="Group-5" transform="translate(778.961004, 194.914381) rotate(-5.000000) translate(-778.961004, -194.914381) translate(2.961004, 131.914381)"> <rect id="Rectangle" stroke="#000000" fill="#B1FDEB" x="0.5" y="0.5" width="1551" height="125"></rect> <path d="M489.929297,52.0355202 L502.097297,39.8315202 L502.097297,52.0355202 L510.125297,52.0355202 L510.125297,32.6675202 L501.917297,32.6675202 L489.749297,44.8715202 L489.749297,32.6675202 L481.721297,32.6675202 L481.721297,52.0355202 L489.929297,52.0355202 Z M539.285297,52.5755202 C550.841297,52.5755202 552.569297,47.8595202 552.569297,45.2315202 L552.569297,45.1955202 L544.649297,45.1955202 C544.541297,45.6635202 543.677297,47.6795202 538.349297,47.6795202 L538.313297,47.6795202 C533.885297,47.6795202 531.941297,46.1675202 531.473297,43.8995202 L552.677297,43.8995202 L552.677297,42.5675202 C552.677297,37.8515202 550.589297,32.1275202 539.213297,32.1275202 L537.017297,32.1275202 C526.541297,32.1275202 523.589297,36.9155202 523.589297,41.8835202 L523.589297,42.6755202 C523.589297,47.7515202 526.901297,52.5755202 537.233297,52.5755202 L539.285297,52.5755202 Z M544.577297,39.9035202 L531.617297,39.9035202 C532.229297,37.8515202 534.029297,36.6275202 538.061297,36.6275202 L538.097297,36.6275202 C542.165297,36.6275202 544.037297,37.8515202 544.577297,39.9035202 Z M596.669297,56.3555202 L596.669297,46.7075202 L592.709297,46.7075202 L592.709297,32.6675202 L584.681297,32.6675202 L584.681297,46.7075202 L577.769297,46.7075202 L577.769297,32.6675202 L569.741297,32.6675202 L569.741297,46.7075202 L562.829297,46.7075202 L562.829297,32.6675202 L554.801297,32.6675202 L554.801297,52.0355202 L589.001297,52.0355202 L589.001297,56.3555202 L596.669297,56.3555202 Z M612.977297,52.5755202 C624.533297,52.5755202 626.261297,47.8595202 626.261297,45.2315202 L626.261297,45.1955202 L618.341297,45.1955202 C618.233297,45.6635202 617.369297,47.6795202 612.041297,47.6795202 L612.005297,47.6795202 C607.577297,47.6795202 605.633297,46.1675202 605.165297,43.8995202 L626.369297,43.8995202 L626.369297,42.5675202 C626.369297,37.8515202 624.281297,32.1275202 612.905297,32.1275202 L610.709297,32.1275202 C600.233297,32.1275202 597.281297,36.9155202 597.281297,41.8835202 L597.281297,42.6755202 C597.281297,47.7515202 600.593297,52.5755202 610.925297,52.5755202 L612.977297,52.5755202 Z M618.269297,39.9035202 L605.309297,39.9035202 C605.921297,37.8515202 607.721297,36.6275202 611.753297,36.6275202 L611.789297,36.6275202 C615.857297,36.6275202 617.729297,37.8515202 618.269297,39.9035202 Z M657.185297,52.5755202 C670.685297,52.5755202 672.917297,47.3195202 672.917297,43.3955202 L672.917297,43.0715202 C672.917297,38.8595202 670.253297,34.7915202 659.021297,34.7915202 L658.553297,34.7915202 C650.489297,34.7915202 648.257297,36.8075202 647.429297,37.3835202 L647.429297,37.2395202 C647.429297,35.4035202 648.257297,30.9755202 655.997297,30.9755202 C662.261297,30.9755202 662.945297,33.0275202 663.125297,33.3155202 L671.765297,33.3155202 L671.765297,33.1715202 C671.765297,29.6075202 668.813297,24.7835202 656.717297,24.7835202 L655.277297,24.7835202 C642.353297,24.7835202 639.041297,32.0915202 639.041297,38.2475202 L639.041297,39.1115202 C639.041297,45.2675202 641.813297,52.5755202 655.601297,52.5755202 L657.185297,52.5755202 Z M656.357297,46.4915202 C649.733297,46.4915202 648.509297,44.6555202 648.509297,43.3955202 L648.509297,43.2875202 C648.509297,41.9195202 649.697297,40.4075202 656.357297,40.4075202 C663.233297,40.4075202 664.133297,42.0275202 664.133297,43.3595202 L664.133297,43.5035202 C664.133297,44.7635202 663.233297,46.4915202 656.357297,46.4915202 Z M694.337297,52.5035202 C710.249297,52.5035202 712.409297,43.7915202 712.409297,39.1115202 L712.409297,38.0315202 C712.409297,33.2795202 710.213297,24.7835202 694.337297,24.7835202 L692.753297,24.7835202 C677.071697,24.7835202 674.727297,33.1104498 674.681978,37.8878493 L674.681297,39.1115202 C674.681297,43.8275202 676.913297,52.5035202 692.753297,52.5035202 L694.337297,52.5035202 Z M693.545297,45.9515202 C685.373297,45.9515202 683.465297,41.7395202 683.465297,38.7155202 L683.465297,38.2835202 C683.465297,35.2595202 685.193297,31.2995202 693.545297,31.2995202 C701.753297,31.2995202 703.625297,35.2595202 703.625297,38.2835202 L703.625297,38.7875202 C703.625297,41.8475202 701.717297,45.9515202 693.545297,45.9515202 Z M727.601297,49.7675202 L727.601297,43.4315202 L734.441297,43.4315202 L734.441297,38.4635202 L727.601297,38.4635202 L727.601297,32.1275202 L721.553297,32.1275202 L721.553297,38.4635202 L714.749297,38.4635202 L714.749297,43.4315202 L721.553297,43.4315202 L721.553297,49.7675202 L727.601297,49.7675202 Z M764.861297,52.0355202 C772.169297,52.0355202 774.761297,49.5875202 774.761297,46.5635202 L774.761297,46.2035202 C774.761297,43.6475202 772.205297,42.1715202 769.505297,41.5955202 C772.205297,40.9835202 773.861297,39.6515202 773.861297,37.5275202 L773.861297,37.1675202 C773.861297,34.2515202 771.089297,32.6675202 762.809297,32.6675202 L748.481297,32.6675202 L748.481297,52.0355202 L764.861297,52.0355202 Z M762.413297,39.8315202 L756.509297,39.8315202 L756.509297,36.9155202 L762.377297,36.9155202 C764.933297,36.9155202 765.689297,37.3835202 765.689297,38.2835202 L765.689297,38.3915202 C765.689297,39.3635202 764.897297,39.8315202 762.413297,39.8315202 Z M763.133297,47.6795202 L756.509297,47.6795202 L756.509297,43.8995202 L763.097297,43.8995202 C765.437297,43.8995202 766.589297,44.4755202 766.589297,45.6275202 L766.589297,45.8075202 C766.589297,47.0675202 765.437297,47.6795202 763.133297,47.6795202 Z M793.949297,52.0355202 C799.745297,52.0355202 802.661297,48.5435202 802.661297,44.7995202 L802.661297,44.4395202 C802.661297,40.6595202 799.709297,37.7075202 793.949297,37.7075202 L785.273297,37.7075202 L785.273297,32.6675202 L777.245297,32.6675202 L777.245297,52.0355202 L793.949297,52.0355202 Z M812.597297,52.0355202 L812.597297,32.6675202 L804.569297,32.6675202 L804.569297,52.0355202 L812.597297,52.0355202 Z M791.933297,47.1035202 L785.273297,47.1035202 L785.273297,42.6395202 L791.933297,42.6395202 C793.661297,42.6395202 794.489297,43.6115202 794.489297,44.7635202 L794.489297,44.9435202 C794.489297,46.0595202 793.661297,47.1035202 791.933297,47.1035202 Z M821.885297,56.3555202 L821.885297,52.0355202 L839.345297,52.0355202 L839.345297,56.3555202 L847.013297,56.3555202 L847.013297,46.7075202 L843.053297,46.7075202 L843.053297,32.6675202 L818.753297,32.6675202 C818.573297,41.0915202 818.213297,44.2235202 817.169297,46.7075202 L814.253297,46.7075202 L814.253297,56.3555202 L821.885297,56.3555202 Z M835.025297,46.7075202 L824.801297,46.7075202 C825.629297,44.5115202 825.917297,41.8835202 826.061297,37.8155202 L835.025297,37.8155202 L835.025297,46.7075202 Z M857.237297,52.3955202 C862.925297,52.3955202 865.373297,50.4155202 866.201297,49.3715202 C866.489297,51.2075202 867.713297,52.0355202 869.261297,52.0355202 L875.777297,52.0355202 L875.777297,46.7795202 L874.733297,46.7795202 C873.905297,46.7795202 873.725297,46.3835202 873.725297,45.8075202 L873.725297,38.3915202 C873.725297,38.3246631 873.724888,38.2574386 873.72394,38.1899021 L873.719341,37.9864124 C873.716099,37.8842549 873.711344,37.7815202 873.70463,37.6783952 L873.688457,37.4716802 C873.450337,34.8826223 871.801868,32.1275202 861.773297,32.1275202 L859.793297,32.1275202 C850.193297,32.1275202 848.529297,35.2848536 848.278037,37.7816437 L848.26023,37.9880987 C848.245412,38.1928609 848.239147,38.3922996 848.23766,38.5842054 L848.237297,38.7515202 L855.689297,38.7515202 C855.797297,38.1035202 855.977297,36.5915202 860.765297,36.5915202 L860.945297,36.5915202 C865.661297,36.5915202 865.985297,37.4555202 865.985297,38.1755202 C865.985297,38.7875202 865.661297,39.0755202 864.761297,39.1835202 L855.905297,40.0115202 C850.109297,40.5515202 847.769297,42.2435202 847.769297,45.8075202 L847.769297,46.0595202 C847.769297,49.3715202 850.253297,52.3955202 856.769297,52.3955202 L857.237297,52.3955202 Z M858.929297,48.0395202 C856.193297,48.0395202 855.401297,46.8875202 855.401297,45.8435202 L855.401297,45.8075202 C855.401297,44.6915202 856.265297,44.3315202 858.317297,44.0075202 L865.985297,42.8195202 L865.985297,43.4315202 C865.985297,45.7355202 863.213297,48.0395202 858.929297,48.0395202 Z M903.209297,52.5755202 C914.873297,52.5755202 916.709297,47.0315202 916.709297,42.5675202 L916.709297,41.9195202 C916.709297,37.5275202 914.621297,32.1275202 903.209297,32.1275202 L901.373297,32.1275202 C892.193297,32.1275202 888.809297,35.9795202 888.053297,39.8315202 L885.389297,39.8315202 L885.389297,32.6675202 L877.361297,32.6675202 L877.361297,52.0355202 L885.389297,52.0355202 L885.389297,44.9435202 L888.089297,44.9435202 C888.953297,48.7955202 892.409297,52.5755202 901.409297,52.5755202 L903.209297,52.5755202 Z M902.309297,47.3555202 C897.197297,47.3555202 896.045297,44.6195202 896.045297,42.3515202 L896.045297,42.1715202 C896.045297,39.7235202 897.161297,37.2755202 902.309297,37.2755202 L902.345297,37.2755202 C907.385297,37.2755202 908.573297,39.7595202 908.573297,42.1715202 L908.573297,42.3515202 C908.573297,44.6195202 907.457297,47.3555202 902.309297,47.3555202 Z M960.845297,56.3555202 L960.845297,46.7075202 L956.885297,46.7075202 L956.885297,32.6675202 L948.857297,32.6675202 L948.857297,46.7075202 L941.945297,46.7075202 L941.945297,32.6675202 L933.917297,32.6675202 L933.917297,46.7075202 L927.005297,46.7075202 L927.005297,32.6675202 L918.977297,32.6675202 L918.977297,52.0355202 L953.177297,52.0355202 L953.177297,56.3555202 L960.845297,56.3555202 Z M970.817297,52.0355202 L982.985297,39.8315202 L982.985297,52.0355202 L991.013297,52.0355202 L991.013297,32.6675202 L982.805297,32.6675202 L970.637297,44.8715202 L970.637297,32.6675202 L962.609297,32.6675202 L962.609297,52.0355202 L970.817297,52.0355202 Z M1001.1293,52.0355202 L1006.7093,46.4915202 L1012.3973,52.0355202 L1021.4693,52.0355202 L1011.4253,42.0635202 L1021.1453,32.6675202 L1012.1453,32.6675202 L1007.0693,37.7435202 L1001.9933,32.6675202 L992.525297,32.6675202 L1002.3173,42.2075202 L992.201297,52.0355202 L1001.1293,52.0355202 Z M1035.2213,52.5755202 C1047.46615,52.5755202 1048.83558,46.7682535 1048.86481,44.0277456 L1048.8653,43.8635202 L1040.6213,43.8635202 C1040.4413,44.6195202 1039.6493,47.4275202 1034.2133,47.4275202 L1034.1053,47.4275202 C1029.4613,47.4275202 1027.9493,44.8355202 1027.9493,42.2435202 L1027.9493,41.9915202 C1027.9493,39.5435202 1029.4253,37.2035202 1034.1053,37.2035202 L1034.2133,37.2035202 C1039.7213,37.2035202 1040.4413,39.9395202 1040.6213,40.6955202 L1048.8653,40.6955202 L1048.8653,40.5875202 C1048.8653,37.9955202 1047.3533,32.1275202 1035.2573,32.1275202 L1033.2053,32.1275202 C1022.1533,32.1275202 1019.7413,37.5635202 1019.7413,41.8835202 L1019.7413,42.6035202 C1019.7413,46.9235202 1022.1893,52.5755202 1033.2413,52.5755202 L1035.2213,52.5755202 Z M1059.2333,52.0355202 L1064.9573,46.4915202 L1068.6653,46.4915202 L1068.6653,52.0355202 L1076.6933,52.0355202 L1076.6933,32.6675202 L1059.4853,32.6675202 C1053.8693,32.6675202 1050.6293,35.1155202 1050.6293,39.3275202 L1050.6293,39.6875202 C1050.6293,42.9635202 1052.7173,45.1235202 1056.4973,45.8795202 L1050.0533,52.0355202 L1059.2333,52.0355202 Z M1068.6653,41.5595202 L1061.6813,41.5595202 C1059.1973,41.5595202 1058.6573,40.5155202 1058.6573,39.5795202 L1058.6573,39.4355202 C1058.6573,38.5355202 1059.1973,37.4195202 1061.6453,37.4195202 L1068.6653,37.4195202 L1068.6653,41.5595202 Z M580.577297,96.0355202 L580.577297,81.9955202 L590.729297,81.9955202 L590.729297,96.0355202 L598.757297,96.0355202 L598.757297,76.6675202 L572.549297,76.6675202 L572.549297,96.0355202 L580.577297,96.0355202 Z M610.061297,102.80352 L610.061297,93.2995202 C610.709297,94.0195202 613.949297,96.5035202 619.709297,96.5035202 L620.285297,96.5035202 C629.213297,96.5035202 632.237297,91.6795202 632.237297,86.6035202 L632.237297,85.9195202 C632.237297,80.5915202 629.321297,76.1995202 620.537297,76.1995202 L619.889297,76.1995202 C614.021297,76.1995202 610.925297,78.6835202 610.061297,79.4395202 L610.061297,76.6675202 L602.033297,76.6675202 L602.033297,102.80352 L610.061297,102.80352 Z M617.405297,91.3915202 L617.225297,91.3915202 C612.329297,91.3915202 610.061297,88.7635202 610.061297,86.3515202 L610.061297,86.2075202 C610.061297,83.7235202 612.221297,81.2035202 617.225297,81.2035202 L617.405297,81.2035202 C622.589297,81.2035202 624.029297,83.7235202 624.029297,86.2075202 L624.029297,86.3515202 C624.029297,88.6915202 622.589297,91.3915202 617.405297,91.3915202 Z M649.301297,96.5755202 C660.857297,96.5755202 662.585297,91.8595202 662.585297,89.2315202 L662.585297,89.1955202 L654.665297,89.1955202 C654.557297,89.6635202 653.693297,91.6795202 648.365297,91.6795202 L648.329297,91.6795202 C643.901297,91.6795202 641.957297,90.1675202 641.489297,87.8995202 L662.693297,87.8995202 L662.693297,86.5675202 C662.693297,81.8515202 660.605297,76.1275202 649.229297,76.1275202 L647.033297,76.1275202 C636.557297,76.1275202 633.605297,80.9155202 633.605297,85.8835202 L633.605297,86.6755202 C633.605297,91.7515202 636.917297,96.5755202 647.249297,96.5755202 L649.301297,96.5755202 Z M654.593297,83.9035202 L641.633297,83.9035202 C642.245297,81.8515202 644.045297,80.6275202 648.077297,80.6275202 L648.113297,80.6275202 C652.181297,80.6275202 654.053297,81.8515202 654.593297,83.9035202 Z M672.845297,96.0355202 L672.845297,81.9955202 L682.997297,81.9955202 L682.997297,96.0355202 L691.025297,96.0355202 L691.025297,76.6675202 L664.817297,76.6675202 L664.817297,96.0355202 L672.845297,96.0355202 Z M709.853297,96.5755202 C721.667917,96.5755202 723.668108,91.158236 723.712528,86.7218693 L723.713297,85.9195202 C723.713297,81.5275202 721.661297,76.1275202 709.853297,76.1275202 L707.297297,76.1275202 C696.065297,76.1275202 693.401297,81.4555202 693.401297,85.9195202 L693.401297,86.5675202 C693.401297,91.0315202 696.101297,96.5755202 707.333297,96.5755202 L709.853297,96.5755202 Z M708.593297,91.3555202 C703.121297,91.3555202 701.609297,88.6195202 701.609297,86.3515202 L701.609297,86.1715202 C701.609297,83.7235202 703.121297,81.2755202 708.593297,81.2755202 L708.629297,81.2755202 C714.029297,81.2755202 715.577297,83.7595202 715.577297,86.1715202 L715.577297,86.3515202 C715.577297,88.6195202 714.065297,91.3555202 708.593297,91.3555202 Z M731.381297,100.35552 L731.381297,96.0355202 L748.841297,96.0355202 L748.841297,100.35552 L756.509297,100.35552 L756.509297,90.7075202 L752.549297,90.7075202 L752.549297,76.6675202 L728.249297,76.6675202 C728.069297,85.0915202 727.709297,88.2235202 726.665297,90.7075202 L723.749297,90.7075202 L723.749297,100.35552 L731.381297,100.35552 Z M744.521297,90.7075202 L734.297297,90.7075202 C735.125297,88.5115202 735.413297,85.8835202 735.557297,81.8155202 L744.521297,81.8155202 L744.521297,90.7075202 Z M766.733297,96.3955202 C772.421297,96.3955202 774.869297,94.4155202 775.697297,93.3715202 C775.985297,95.2075202 777.209297,96.0355202 778.757297,96.0355202 L785.273297,96.0355202 L785.273297,90.7795202 L784.229297,90.7795202 C783.401297,90.7795202 783.221297,90.3835202 783.221297,89.8075202 L783.221297,82.3915202 C783.221297,82.3246631 783.220888,82.2574386 783.21994,82.1899021 L783.215341,81.9864124 C783.212099,81.8842549 783.207344,81.7815202 783.20063,81.6783952 L783.184457,81.4716802 C782.946337,78.8826223 781.297868,76.1275202 771.269297,76.1275202 L769.289297,76.1275202 C759.689297,76.1275202 758.025297,79.2848536 757.774037,81.7816437 L757.75623,81.9880987 C757.738943,82.226988 757.733297,82.4586313 757.733297,82.6795202 L757.733297,82.7515202 L765.185297,82.7515202 C765.293297,82.1035202 765.473297,80.5915202 770.261297,80.5915202 L770.441297,80.5915202 C775.157297,80.5915202 775.481297,81.4555202 775.481297,82.1755202 C775.481297,82.7875202 775.157297,83.0755202 774.257297,83.1835202 L765.401297,84.0115202 C759.605297,84.5515202 757.265297,86.2435202 757.265297,89.8075202 L757.265297,90.0595202 C757.265297,93.3715202 759.749297,96.3955202 766.265297,96.3955202 L766.733297,96.3955202 Z M768.425297,92.0395202 C765.689297,92.0395202 764.897297,90.8875202 764.897297,89.8435202 L764.897297,89.8075202 C764.897297,88.6915202 765.761297,88.3315202 767.813297,88.0075202 L775.481297,86.8195202 L775.481297,87.4315202 C775.481297,89.7355202 772.709297,92.0395202 768.425297,92.0395202 Z M803.237297,96.0355202 C810.545297,96.0355202 813.137297,93.5875202 813.137297,90.5635202 L813.137297,90.2035202 C813.137297,87.6475202 810.581297,86.1715202 807.881297,85.5955202 C810.581297,84.9835202 812.237297,83.6515202 812.237297,81.5275202 L812.237297,81.1675202 C812.237297,78.2515202 809.465297,76.6675202 801.185297,76.6675202 L786.857297,76.6675202 L786.857297,96.0355202 L803.237297,96.0355202 Z M800.789297,83.8315202 L794.885297,83.8315202 L794.885297,80.9155202 L800.753297,80.9155202 C803.309297,80.9155202 804.065297,81.3835202 804.065297,82.2835202 L804.065297,82.3915202 C804.065297,83.3635202 803.273297,83.8315202 800.789297,83.8315202 Z M801.509297,91.6795202 L794.885297,91.6795202 L794.885297,87.8995202 L801.473297,87.8995202 C803.813297,87.8995202 804.965297,88.4755202 804.965297,89.6275202 L804.965297,89.8075202 C804.965297,91.0675202 803.813297,91.6795202 801.509297,91.6795202 Z M824.081297,96.3955202 C829.769297,96.3955202 832.217297,94.4155202 833.045297,93.3715202 C833.333297,95.2075202 834.557297,96.0355202 836.105297,96.0355202 L842.621297,96.0355202 L842.621297,90.7795202 L841.577297,90.7795202 C840.749297,90.7795202 840.569297,90.3835202 840.569297,89.8075202 L840.569297,82.3915202 C840.569297,82.3246631 840.568888,82.2574386 840.56794,82.1899021 L840.563341,81.9864124 C840.560099,81.8842549 840.555344,81.7815202 840.54863,81.6783952 L840.532457,81.4716802 C840.294337,78.8826223 838.645868,76.1275202 828.617297,76.1275202 L826.637297,76.1275202 C817.037297,76.1275202 815.373297,79.2848536 815.122037,81.7816437 L815.10423,81.9880987 C815.086943,82.226988 815.081297,82.4586313 815.081297,82.6795202 L815.081297,82.7515202 L822.533297,82.7515202 C822.641297,82.1035202 822.821297,80.5915202 827.609297,80.5915202 L827.789297,80.5915202 C832.505297,80.5915202 832.829297,81.4555202 832.829297,82.1755202 C832.829297,82.7875202 832.505297,83.0755202 831.605297,83.1835202 L822.749297,84.0115202 C816.953297,84.5515202 814.613297,86.2435202 814.613297,89.8075202 L814.613297,90.0595202 C814.613297,93.3715202 817.097297,96.3955202 823.613297,96.3955202 L824.081297,96.3955202 Z M825.773297,92.0395202 C823.037297,92.0395202 822.245297,90.8875202 822.245297,89.8435202 L822.245297,89.8075202 C822.245297,88.6915202 823.109297,88.3315202 825.161297,88.0075202 L832.829297,86.8195202 L832.829297,87.4315202 C832.829297,89.7355202 830.057297,92.0395202 825.773297,92.0395202 Z M858.569297,96.0355202 L858.569297,81.9955202 L866.669297,81.9955202 L866.669297,76.6675202 L842.441297,76.6675202 L842.441297,81.9955202 L850.541297,81.9955202 L850.541297,96.0355202 L858.569297,96.0355202 Z M883.697297,96.5755202 C895.253297,96.5755202 896.981297,91.8595202 896.981297,89.2315202 L896.981297,89.1955202 L889.061297,89.1955202 C888.953297,89.6635202 888.089297,91.6795202 882.761297,91.6795202 L882.725297,91.6795202 C878.297297,91.6795202 876.353297,90.1675202 875.885297,87.8995202 L897.089297,87.8995202 L897.089297,86.5675202 C897.089297,81.8515202 895.001297,76.1275202 883.625297,76.1275202 L881.429297,76.1275202 C870.953297,76.1275202 868.001297,80.9155202 868.001297,85.8835202 L868.001297,86.6755202 C868.001297,91.7515202 871.313297,96.5755202 881.645297,96.5755202 L883.697297,96.5755202 Z M888.989297,83.9035202 L876.029297,83.9035202 C876.641297,81.8515202 878.441297,80.6275202 882.473297,80.6275202 L882.509297,80.6275202 C886.577297,80.6275202 888.449297,81.8515202 888.989297,83.9035202 Z M900.401297,96.0355202 C904.469297,96.0355202 906.557297,94.3075202 907.277297,91.9675202 C907.853297,90.0595202 908.069297,87.3955202 908.069297,81.9955202 L915.845297,81.9955202 L915.845297,96.0355202 L923.873297,96.0355202 L923.873297,76.6675202 L900.869297,76.6675202 C900.869297,85.1852345 900.716734,86.9291801 900.467791,88.3321609 L900.428396,88.5480184 C900.419473,88.5957742 900.410439,88.6435202 900.401297,88.6915202 C900.113297,90.2395202 899.465297,90.7075202 898.421297,90.7075202 L897.989297,90.7075202 L897.989297,96.0355202 L900.401297,96.0355202 Z M941.945297,96.5755202 C953.501297,96.5755202 955.229297,91.8595202 955.229297,89.2315202 L955.229297,89.1955202 L947.309297,89.1955202 C947.201297,89.6635202 946.337297,91.6795202 941.009297,91.6795202 L940.973297,91.6795202 C936.545297,91.6795202 934.601297,90.1675202 934.133297,87.8995202 L955.337297,87.8995202 L955.337297,86.5675202 C955.337297,81.8515202 953.249297,76.1275202 941.873297,76.1275202 L939.677297,76.1275202 C929.201297,76.1275202 926.249297,80.9155202 926.249297,85.8835202 L926.249297,86.6755202 C926.249297,91.7515202 929.561297,96.5755202 939.893297,96.5755202 L941.945297,96.5755202 Z M947.237297,83.9035202 L934.277297,83.9035202 C934.889297,81.8515202 936.689297,80.6275202 940.721297,80.6275202 L940.757297,80.6275202 C944.825297,80.6275202 946.697297,81.8515202 947.237297,83.9035202 Z M972.365297,75.0835202 C978.305297,75.0835202 979.997297,71.1595202 979.997297,69.3235202 L979.997297,69.2515202 L974.021297,69.2515202 C974.021297,69.6835202 973.661297,71.0155202 971.825297,71.0155202 C969.953297,71.0155202 969.593297,69.6835202 969.593297,69.2515202 L963.473297,69.2515202 L963.473297,69.3235202 C963.473297,71.1595202 964.661297,75.0835202 971.213297,75.0835202 L972.365297,75.0835202 Z M965.669297,96.0355202 L977.837297,83.8315202 L977.837297,96.0355202 L985.865297,96.0355202 L985.865297,76.6675202 L977.657297,76.6675202 L965.489297,88.8715202 L965.489297,76.6675202 L957.461297,76.6675202 L957.461297,96.0355202 L965.669297,96.0355202 Z" id="иеще60+выдающихсяпреподавателей" fill="#000000" fill-rule="nonzero"></path> </g> </g> </g> </svg> 