<svg width="60" height="60" viewBox="0 0 60 60" fill="none" xmlns="http://www.w3.org/2000/svg">
<g clip-path="url(#clip0_548_1393)">
<path d="M45.9375 15.937C41.9836 15.937 38.4117 17.5683 35.857 20.1944L32.4516 23.6948L36.1336 27.4788L39.6398 23.8741C41.2371 22.2323 43.4707 21.2104 45.9375 21.2104C50.7832 21.2104 54.7266 25.1538 54.7266 30.0007C54.7266 34.8464 50.7832 38.7897 45.9375 38.7897C43.4707 38.7897 41.2371 37.7679 39.6398 36.1249C34.4742 30.8148 29.3086 25.5046 24.143 20.1944C21.5883 17.5683 18.0164 15.937 14.0625 15.937C6.29648 15.937 0 22.2335 0 30.0007C0 37.7667 6.29648 44.0632 14.0625 44.0632C18.0164 44.0632 21.5883 42.4319 24.143 39.8058L27.5484 36.3054L23.8664 32.5214L20.3602 36.1249C18.7629 37.7679 16.5293 38.7897 14.0625 38.7897C9.2168 38.7897 5.27344 34.8464 5.27344 30.0007C5.27344 25.1538 9.2168 21.2104 14.0625 21.2104C16.5293 21.2104 18.7629 22.2323 20.3602 23.8741L35.857 39.8058C38.4117 42.4319 41.9836 44.0632 45.9375 44.0632C53.7035 44.0632 60 37.7667 60 30.0007C60 22.2335 53.7035 15.937 45.9375 15.937Z" fill="#0C9F6A"/>
</g>
<defs>
<clipPath id="clip0_548_1393">
<rect width="60" height="60" fill="white"/>
</clipPath>
</defs>
</svg>
