<svg width="26" height="22" viewBox="0 0 26 22" fill="none" xmlns="http://www.w3.org/2000/svg">
<path d="M12.9999 15.3314C15.3923 15.3314 17.3316 13.392 17.3316 10.9997C17.3316 8.60734 15.3923 6.66797 12.9999 6.66797C10.6076 6.66797 8.66821 8.60734 8.66821 10.9997C8.66821 13.392 10.6076 15.3314 12.9999 15.3314Z" fill="black"/>
<path d="M25.2057 8.20485C23.5261 5.46936 19.7055 0.879883 13 0.879883C6.29446 0.879883 2.47388 5.46936 0.794254 8.20485C-0.264751 9.91772 -0.264751 12.082 0.794254 13.795C2.47388 16.5304 6.29446 21.1199 13 21.1199C19.7055 21.1199 23.5261 16.5304 25.2057 13.795C26.2647 12.082 26.2647 9.91772 25.2057 8.20485ZM13 17.4975C9.41148 17.4975 6.50239 14.5884 6.50239 10.9999C6.50239 7.41138 9.41148 4.50229 13 4.50229C16.5885 4.50229 19.4976 7.41138 19.4976 10.9999C19.494 14.5869 16.587 17.4939 13 17.4975Z" fill="black"/>
</svg>
