<svg width="26" height="26" viewBox="0 0 26 26" fill="none" xmlns="http://www.w3.org/2000/svg">
<path d="M24.9167 17.3333C24.749 17.3333 24.5836 17.2944 24.4335 17.2196L22.2668 16.1363C22.0097 16.0078 21.8141 15.7825 21.7231 15.5098C21.6321 15.2372 21.6531 14.9396 21.7815 14.6824C21.9099 14.4253 22.1353 14.2297 22.4079 14.1387C22.6805 14.0476 22.9782 14.0687 23.2353 14.1971L25.402 15.2804C25.6207 15.3894 25.7961 15.5691 25.8998 15.7904C26.0034 16.0117 26.0293 16.2615 25.973 16.4992C25.9168 16.737 25.7819 16.9488 25.5901 17.1002C25.3983 17.2517 25.161 17.3338 24.9167 17.3333ZM23.2343 7.475L25.4009 6.39167C25.6581 6.26324 25.8537 6.03791 25.9447 5.76527C26.0357 5.49262 26.0147 5.19498 25.8863 4.93783C25.7578 4.68068 25.5325 4.48509 25.2598 4.39407C24.9872 4.30305 24.6896 4.32407 24.4324 4.4525L22.2658 5.53583C22.0086 5.66426 21.813 5.88959 21.722 6.16223C21.631 6.43488 21.652 6.73252 21.7804 6.98967C21.9088 7.24682 22.1342 7.44241 22.4068 7.53343C22.6795 7.62445 22.9771 7.60343 23.2343 7.475ZM26 10.8333C26 10.546 25.8859 10.2705 25.6827 10.0673C25.4795 9.86414 25.204 9.75 24.9167 9.75H22.75C22.4627 9.75 22.1871 9.86414 21.984 10.0673C21.7808 10.2705 21.6667 10.546 21.6667 10.8333C21.6667 11.1207 21.7808 11.3962 21.984 11.5994C22.1871 11.8025 22.4627 11.9167 22.75 11.9167H24.9167C25.204 11.9167 25.4795 11.8025 25.6827 11.5994C25.8859 11.3962 26 11.1207 26 10.8333ZM19.5 20.5833V1.08333C19.5 0.796016 19.3859 0.520465 19.1827 0.317301C18.9795 0.114137 18.704 0 18.4167 0C18.1293 0 17.8538 0.114137 17.6506 0.317301C17.4475 0.520465 17.3333 0.796016 17.3333 1.08333C17.3333 4.27808 14.5351 5.41667 11.9167 5.41667H4.33333C3.18406 5.41667 2.08186 5.87321 1.2692 6.68587C0.456546 7.49853 0 8.60073 0 9.75L0 11.9167C0 13.0659 0.456546 14.1681 1.2692 14.9808C2.08186 15.7935 3.18406 16.25 4.33333 16.25H11.9167C14.5351 16.25 17.3333 17.3886 17.3333 20.5833C17.3333 20.8707 17.4475 21.1462 17.6506 21.3494C17.8538 21.5525 18.1293 21.6667 18.4167 21.6667C18.704 21.6667 18.9795 21.5525 19.1827 21.3494C19.3859 21.1462 19.5 20.8707 19.5 20.5833ZM8.86817 18.4167H4.33333C3.82895 18.4147 3.32651 18.3539 2.83617 18.2358L5.5445 24.2829C5.77196 24.794 6.1427 25.2282 6.61184 25.533C7.08098 25.8377 7.6284 25.9999 8.18783 26C8.63292 25.9994 9.07079 25.8874 9.46152 25.6743C9.85226 25.4611 10.1834 25.1536 10.4249 24.7797C10.6663 24.4058 10.8104 23.9774 10.8439 23.5336C10.8774 23.0897 10.7993 22.6446 10.6167 22.2387L8.86817 18.4167Z" fill="black"/>
</svg>
