<svg width="26" height="26" viewBox="0 0 26 26" fill="none" xmlns="http://www.w3.org/2000/svg">
<path d="M1.08455 5.14662H4.04826C4.6332 7.29882 6.85207 8.56934 9.00427 7.9844C10.3865 7.60871 11.4664 6.5289 11.842 5.14662H24.9155C25.5137 5.14662 25.9987 4.66166 25.9987 4.06341C25.9987 3.46517 25.5137 2.98021 24.9155 2.98021H11.842C11.2571 0.827956 9.03824 -0.442566 6.88604 0.142376C5.50376 0.518069 4.42395 1.59788 4.04826 2.98016H1.08455C0.486306 2.98016 0.00134277 3.46512 0.00134277 4.06336C0.00134277 4.66161 0.486306 5.14662 1.08455 5.14662Z" fill="black"/>
<path d="M24.9155 11.9168H21.9518C21.368 9.76487 19.1504 8.49364 16.9985 9.07736C15.6151 9.45265 14.5344 10.5333 14.1591 11.9168H1.08455C0.486306 11.9168 0.00134277 12.4017 0.00134277 13C0.00134277 13.5982 0.486306 14.0832 1.08455 14.0832H14.1591C14.7428 16.2351 16.9605 17.5063 19.1124 16.9226C20.4958 16.5473 21.5765 15.4666 21.9518 14.0832H24.9155C25.5137 14.0832 25.9987 13.5982 25.9987 13C25.9987 12.4017 25.5137 11.9168 24.9155 11.9168Z" fill="black"/>
<path d="M24.9155 20.8532H11.842C11.2571 18.701 9.03824 17.4305 6.88604 18.0154C5.50376 18.3911 4.42395 19.4709 4.04826 20.8532H1.08455C0.486306 20.8532 0.00134277 21.3382 0.00134277 21.9364C0.00134277 22.5347 0.486306 23.0196 1.08455 23.0196H4.04826C4.6332 25.1718 6.85207 26.4423 9.00427 25.8574C10.3865 25.4817 11.4664 24.4019 11.842 23.0196H24.9155C25.5137 23.0196 25.9987 22.5347 25.9987 21.9364C25.9987 21.3382 25.5137 20.8532 24.9155 20.8532Z" fill="black"/>
</svg>
