<svg width="1440" height="311" viewBox="0 0 1440 311" fill="none" xmlns="http://www.w3.org/2000/svg">
<path d="M1219.61 176.432C1234.7 193.875 1251.2 210.431 1268.3 225.892C1275.94 232.791 1261.64 250.265 1262.59 237.831C1267.54 172.854 1352.98 148.2 1404.06 134.903C1436.7 126.407 1471.03 123.893 1503.24 114.692" stroke="black" stroke-linecap="round"/>
<path d="M926 231C957.413 230.523 988.819 144.626 1020.05 141.417C1041.63 139.198 1063.19 136.505 1084.58 133.235C1099.57 130.946 1116.16 129.105 1129.91 123.187C1148.05 115.383 1159.51 99.3249 1168.92 84.9164C1179 69.5003 1188.18 53.9655 1192.87 36.762C1195.68 26.4381 1200.32 9.1769 1185.37 3.21322C1170.28 -2.80884 1145.58 4.32536 1135.31 14.1948C1115.55 33.1808 1126.99 65.2753 1135.11 86.2342C1143.47 107.825 1157.57 126.78 1174.05 144.656C1188.77 160.61 1204.71 175.937 1222.74 189.351C1227.21 192.678 1233.82 199.455 1240.5 199.455" stroke="black" stroke-linecap="round"/>
<path d="M643.83 194.859C645.607 196.488 647.522 197.681 649.656 198.817C658.834 203.7 665.893 208.801 676.918 213.987C707.775 228.501 733.48 229.351 761.563 235.423" stroke="black" stroke-linecap="round"/>
<path d="M345 193.5C366.694 208.415 399.677 230.37 403.196 258.082C404.87 271.266 407.542 290.568 401.93 303.131C398.796 310.148 392.496 309.964 386.049 309.964C370.986 309.964 361.342 290.716 366.689 276.937C374.471 256.882 402.143 247.672 419.773 239.607C429.493 235.161 438.536 229.213 447.865 224.549" stroke="black" stroke-linecap="round"/>
<path d="M-63 107C-63 107 -18.948 130.04 11 140.5C51.5695 154.67 118.5 164 118.5 164" stroke="black"/>
</svg>
