<svg width="62" height="62" viewBox="0 0 62 62" fill="none" xmlns="http://www.w3.org/2000/svg">
<path d="M29.1309 3.90857C29.9175 1.84295 30.3107 0.810137 31 0.810137C31.6893 0.810136 32.0825 1.84295 32.8691 3.90856L38.8672 19.6607C39.3386 20.8988 39.5744 21.5179 40.0282 21.9718C40.4821 22.4256 41.1012 22.6614 42.3393 23.1328L58.0914 29.1309C60.1571 29.9175 61.1899 30.3107 61.1899 31C61.1899 31.6893 60.1571 32.0825 58.0914 32.8691L42.3393 38.8672C41.1012 39.3386 40.4821 39.5744 40.0282 40.0282C39.5744 40.4821 39.3386 41.1012 38.8672 42.3393L32.8691 58.0914C32.0825 60.1571 31.6893 61.1899 31 61.1899C30.3107 61.1899 29.9175 60.1571 29.1309 58.0914L23.1328 42.3393C22.6614 41.1012 22.4256 40.4821 21.9718 40.0282C21.5179 39.5744 20.8988 39.3386 19.6607 38.8672L3.90857 32.8691C1.84295 32.0825 0.810136 31.6893 0.810137 31C0.810137 30.3107 1.84295 29.9175 3.90856 29.1309L19.6607 23.1328C20.8988 22.6614 21.5179 22.4256 21.9718 21.9718C22.4256 21.5179 22.6614 20.8988 23.1328 19.6607L29.1309 3.90857Z" fill="white"/>
</svg>
