<?xml version="1.0" encoding="UTF-8"?> <svg xmlns="http://www.w3.org/2000/svg" width="158" height="62" viewBox="0 0 158 62" fill="none"> <path d="M76.8252 4.13588L64.9473 0.0278824C64.8358 -0.00929412 64.7057 -0.00929412 64.5941 0.0278824L52.7162 4.13588C52.4932 4.21024 52.3445 4.41471 52.3445 4.65635C52.3445 4.898 52.4932 5.10247 52.7162 5.17682L58.4228 7.09141L58.4042 9.8053C58.4042 9.87965 58.4042 9.97259 58.4972 10.0655C58.8504 10.5302 61.3969 11.9615 64.7428 11.9615C67.9214 11.9615 70.6725 10.6418 71.0071 10.1956C71.0814 10.1027 71.1 10.0098 71.0814 9.954L71.1186 7.09141L73.7953 6.19918V8.61565L73.0518 9.8053C72.8659 10.1027 72.8659 10.4931 73.0518 10.7905L74.0555 12.4262L75.0593 10.7905C75.2452 10.4931 75.2452 10.1027 75.0593 9.8053L74.3158 8.59706V6.0133L76.8438 5.15824C77.0668 5.08388 77.2155 4.87941 77.2155 4.63777C77.197 4.41471 77.0668 4.21024 76.8252 4.13588Z" fill="#7835FF"></path> <path d="M152.368 31.0517L146.884 45.6806L141.494 31.0517H135.546L143.947 51.4615L140.155 60.1794H145.769L158 31.0517H152.368Z" fill="#7835FF"></path> <path d="M118.184 40.3643C118.909 41.2008 119.764 41.8142 120.749 42.2232C121.753 42.6321 123.017 43.0225 124.578 43.3942C126.084 43.8032 127.199 44.1749 127.887 44.5095C128.575 44.8441 128.928 45.3646 128.928 46.0338C128.928 46.6658 128.649 47.1862 128.073 47.5766C127.497 47.9855 126.716 48.19 125.712 48.19C124.671 48.19 123.816 47.9298 123.129 47.3907C122.441 46.8702 122.032 46.2011 121.939 45.3832H116.604C116.678 46.6658 117.106 47.8368 117.905 48.8964C118.705 49.9559 119.783 50.7924 121.14 51.4058C122.497 52.0192 124.039 52.3352 125.75 52.3352C127.404 52.3352 128.872 52.0564 130.118 51.5173C131.363 50.9782 132.33 50.2347 132.999 49.2681C133.668 48.3201 134.003 47.2234 134.003 46.0152C133.984 44.6211 133.612 43.5244 132.887 42.6693C132.162 41.8328 131.326 41.2008 130.341 40.7919C129.356 40.3829 128.11 39.9926 126.605 39.6208C125.118 39.2491 124.021 38.8773 123.314 38.5055C122.608 38.1338 122.255 37.6133 122.255 36.9069C122.255 36.2749 122.515 35.7916 123.036 35.4385C123.556 35.0853 124.281 34.918 125.248 34.918C126.289 34.918 127.106 35.1596 127.72 35.6615C128.333 36.1448 128.686 36.814 128.761 37.6505H133.817C133.668 35.5314 132.85 33.8585 131.363 32.6131C130.806 32.1483 130.043 31.7766 129.337 31.4792C125.601 33.5796 120.47 36.1448 117.18 37.7806C117.31 38.7286 117.645 39.7323 118.184 40.3643Z" fill="#7835FF"></path> <path d="M40.5779 52.0006V31.0516H35.2431V34.0443C34.5368 33.0778 33.6073 32.2971 32.4363 31.6651C31.2652 31.0331 29.8897 30.7171 28.3283 30.7171C26.5438 30.7171 24.9266 31.1632 23.4768 32.0368C22.0269 32.9105 20.8744 34.1745 20.0379 35.8102C19.2015 37.446 18.7739 39.3234 18.7739 41.4425C18.7739 43.5801 19.2015 45.4761 20.0379 47.1305C20.8744 48.7848 22.0269 50.0674 23.4768 50.9596C24.9266 51.8705 26.5252 52.3166 28.2911 52.3166C29.8525 52.3166 31.228 52.0006 32.4363 51.35C33.6259 50.6994 34.5739 49.9001 35.2431 48.9149V51.982H40.5779V52.0006ZM34.4996 44.8255C33.9977 45.7364 33.3099 46.4427 32.4549 46.9446C31.5998 47.4279 30.6704 47.6881 29.7038 47.6881C28.7372 47.6881 27.845 47.4279 27.0085 46.926C26.172 46.4241 25.4843 45.6992 24.9638 44.7512C24.4433 43.8032 24.1831 42.7065 24.1831 41.4425C24.1831 40.1785 24.4433 39.1003 24.9638 38.1709C25.4843 37.2601 26.1535 36.5538 26.9899 36.0705C27.8264 35.5872 28.7372 35.3455 29.7038 35.3455C30.689 35.3455 31.5998 35.5872 32.4549 36.0891C33.3099 36.5723 33.9977 37.2787 34.4996 38.2081C35.0015 39.1189 35.2617 40.2342 35.2617 41.5168C35.2617 42.818 35.0015 43.9147 34.4996 44.8255Z" fill="black"></path> <path d="M50.6714 25.5867H45.3738V52.0006H50.6714V25.5867Z" fill="black"></path> <path d="M55.4858 47.2048C56.3781 48.8406 57.6235 50.1046 59.2221 50.9968C60.8206 51.8891 62.6237 52.3352 64.6498 52.3352C67.1406 52.3352 69.2411 51.6846 70.9698 50.3834C72.6799 49.0822 73.851 47.4279 74.4458 45.4204H68.7392C67.9028 47.1119 66.5086 47.9484 64.5383 47.9484C63.1813 47.9484 62.0289 47.5208 61.0995 46.6658C60.1701 45.8107 59.631 44.6211 59.5195 43.1154H74.8176C74.9105 42.502 74.9663 41.8328 74.9663 41.0707C74.9663 39.026 74.5388 37.2229 73.6651 35.6429C72.7915 34.0629 71.5646 32.8547 70.0032 31.9996C68.4232 31.1446 66.6388 30.7171 64.6498 30.7171C62.5865 30.7171 60.7649 31.1632 59.1663 32.0368C57.5863 32.9105 56.3409 34.1745 55.4672 35.8102C54.5936 37.446 54.1475 39.342 54.1475 41.5168C54.1475 43.6731 54.5936 45.5505 55.4858 47.2048ZM61.1924 36.2564C62.0846 35.4571 63.1813 35.0667 64.5011 35.0667C65.8952 35.0667 67.0663 35.4756 68.0143 36.2935C68.9809 37.1114 69.4642 38.2081 69.4828 39.5651H59.538C59.7611 38.1523 60.3002 37.0556 61.1924 36.2564Z" fill="black"></path> <path d="M93.1084 52.0006H98.4061V39.7138C98.4061 36.8884 97.644 34.6949 96.1011 33.1149C94.5583 31.5349 92.5508 30.7542 90.06 30.7542C88.7588 30.7542 87.5505 31.0145 86.4538 31.5349C85.3571 32.0554 84.4649 32.7618 83.7585 33.6726V31.0702H78.4423V51.6288C78.1263 51.7032 77.8103 51.7775 77.4943 51.8519C70.6353 53.4691 63.4602 54.9747 55.5788 56.499C46.0616 58.3206 34.8157 60.2166 23.5698 60.3467C15.4096 60.4397 9.70301 59.1013 7.04489 56.4804C6.93336 56.3688 6.82183 56.2573 6.7103 56.1458C5.79948 55.1234 5.33477 53.9338 5.27901 52.5582C5.26042 52.2608 5.03736 52.0378 4.73995 52.0378C4.44254 52.0378 4.1823 52.298 4.20089 52.5954C4.27524 54.2312 4.83289 55.6625 5.89242 56.8707C6.22701 57.2425 6.59877 57.5957 7.0263 57.9302C10.0376 60.2538 15.4096 61.462 22.7705 61.462C23.0308 61.462 23.3096 61.462 23.5698 61.462C34.8901 61.3319 46.2103 59.4359 55.7833 57.5957C63.6833 56.0714 70.8769 54.5658 77.7545 52.9486C83.2381 51.666 88.2941 50.402 93.1084 49.1194V52.0006ZM83.74 50.3277V40.4201C83.74 38.7658 84.1675 37.4832 85.004 36.5909C85.8404 35.6987 86.9929 35.2526 88.4614 35.2526C89.8927 35.2526 91.0266 35.6987 91.863 36.5909C92.6995 37.4832 93.1084 38.7658 93.1084 40.4201V47.9484C90.0785 48.7477 86.9743 49.5469 83.74 50.3277Z" fill="black"></path> <path d="M109.206 52.0006V41.3495V40.1971V35.4013H113.89V31.0517H109.206V25.5867H103.89V31.0517H101.38V35.4013H103.89V52.0006H109.206Z" fill="black"></path> <path d="M7.02635 52.0006H12.324V39.3978V37.8364V29.8806H19.3504V25.6239H0V29.8806H7.02635V52.0006Z" fill="black"></path> <path d="M20.224 32.2785C26.1908 27.6128 32.7153 23.7651 38.6821 20.4564C44.2214 17.3893 49.2402 14.8613 53.9988 12.7608C54.2776 12.6493 54.3892 12.3333 54.2776 12.0545C54.1661 11.7756 53.8315 11.6641 53.5713 11.7756C48.7755 13.8947 43.7381 16.4227 38.1616 19.5084C32.1576 22.8356 25.5774 26.7206 19.5548 31.4234C19.4247 31.5164 19.3503 31.6836 19.3503 31.8509C19.3503 32.2971 19.8708 32.5573 20.224 32.2785Z" fill="black"></path> <path d="M132.999 29.2114C132.423 29.6018 131.828 29.9735 131.233 30.3639C131.939 29.9364 132.534 29.546 132.999 29.2114Z" fill="black"></path> <path d="M113.89 39.3608C113.89 39.3608 113.909 39.3608 113.928 39.342C113.928 39.342 113.928 39.342 113.89 39.3608Z" fill="black"></path> <path d="M144.765 12.5192C143.26 8.72717 136.772 7.24011 126.01 8.22529C116.753 9.06176 104.726 11.7199 91.7701 15.7907C91.2497 15.958 90.8407 15.326 91.2125 14.9171C95.6179 10.0098 97.2351 5.86458 95.8224 3.05776C94.1122 -0.306711 88.2569 -0.697064 78.8327 1.86811C78.5539 1.94247 78.368 2.23988 78.4609 2.53729C78.5353 2.81611 78.8327 2.98341 79.1301 2.90905C87.8666 0.511172 93.4431 0.734231 94.8744 3.54105C96.3428 6.42223 93.6289 11.4225 87.4391 17.2406C87.0115 17.6309 87.4391 18.3187 87.9781 18.1514C102.403 13.3556 115.953 10.2142 126.103 9.28482C136.196 8.35541 142.479 9.65658 143.761 12.9095C145.081 16.2182 142.59 20.5121 136.549 25.3079C134.207 27.1667 131.363 29.0813 128.092 30.9959C124.857 32.8919 121.177 34.8065 117.124 36.7025C115.284 37.5761 113.351 38.4312 111.344 39.2862C111.139 39.3792 111.009 39.5651 111.009 39.7881C111.009 40.1785 111.399 40.4387 111.752 40.29C112.477 39.974 113.202 39.6766 113.909 39.3606C113.909 39.3606 113.927 39.3606 113.927 39.342C114.15 39.2305 115.396 38.6356 117.18 37.762C120.47 36.1448 125.601 33.5611 129.337 31.4606C130.025 31.0702 130.657 30.6985 131.233 30.3639C131.828 29.9921 132.423 29.6018 132.98 29.23C134.523 28.2076 135.954 27.1667 137.218 26.1629C143.65 21.0326 146.271 16.3112 144.765 12.5192Z" fill="black"></path> </svg> 