<svg width="1161" height="293" viewBox="0 0 1161 293" fill="none" xmlns="http://www.w3.org/2000/svg">
<path d="M8.5 267.5H0.5V275.5H8.5V267.5Z" fill="#EAC335" stroke="white"/>
<path d="M200.5 267.5H192.5V275.5H200.5V267.5Z" fill="#EAC335" stroke="white"/>
<path d="M392.5 267.5H384.5V275.5H392.5V267.5Z" fill="#EAC335" stroke="white"/>
<path d="M584.5 267.5H576.5V275.5H584.5V267.5Z" fill="#01321F" stroke="white"/>
<path d="M776.5 267.5H768.5V275.5H776.5V267.5Z" fill="#EAC335" stroke="white"/>
<path d="M968.5 267.5H960.5V275.5H968.5V267.5Z" fill="#EAC335" stroke="white"/>
<path d="M559.287 250.787V292.213H600.713V250.787H559.287Z" fill="#EAC335" stroke="white"/>
<path d="M1160.5 267.5H1152.5V275.5H1160.5V267.5Z" fill="#EAC335" stroke="white"/>
<path d="M679 104.5H780.5C791.546 104.5 800.5 95.5457 800.5 84.5V20.5C800.5 9.45431 809.454 0.5 820.5 0.5H1139.5C1150.55 0.5 1159.5 9.45431 1159.5 20.5V192.5C1159.5 203.546 1150.55 212.5 1139.5 212.5H820.5C809.454 212.5 800.5 203.546 800.5 192.5V119.5" stroke="white"/>
<path d="M800.5 126C802.433 126 804 124.433 804 122.5C804 120.567 802.433 119 800.5 119C798.567 119 797 120.567 797 122.5C797 124.433 798.567 126 800.5 126Z" fill="white"/>
<path d="M679.5 108C681.433 108 683 106.433 683 104.5C683 102.567 681.433 101 679.5 101C677.567 101 676 102.567 676 104.5C676 106.433 677.567 108 679.5 108Z" fill="white"/>
<path d="M581 175H580V250H581V175Z" fill="#EAC335"/>
</svg>
