<?xml version="1.0" encoding="UTF-8"?> <svg xmlns="http://www.w3.org/2000/svg" xmlns:xlink="http://www.w3.org/1999/xlink" width="1350px" height="719px" viewBox="0 0 1350 719"> <title>Group 2 Copy</title> <defs> <rect id="path-1" x="0" y="0.152027027" width="1350" height="68"></rect> <rect id="path-3" x="0" y="0.152027027" width="1350" height="91"></rect> <rect id="path-5" x="0" y="0.152027027" width="1350" height="108"></rect> <rect id="path-7" x="0" y="0.907094595" width="1350" height="69"></rect> <rect id="path-9" x="0" y="0.907094595" width="1350" height="91"></rect> <rect id="path-11" x="0" y="0.907094595" width="1350" height="109"></rect> </defs> <g id="Faculty" stroke="none" stroke-width="1" fill="none" fill-rule="evenodd"> <g id="Group-2-Copy"> <g id="Group-Copy" transform="translate(0.000000, 609.503378)"> <mask id="mask-2" fill="white"> <use xlink:href="#path-1"></use> </mask> <g id="Rectangle"></g> <path d="M47.7516892,38 L47.7516892,-7.30253378 L76.8747466,38 L93.054223,38 L122.17728,-6.86127534 L122.17728,38 L154.977492,38 L154.977492,-41.132348 L116.588007,-41.132348 L86.4353463,4.61144426 L56.8710304,-41.132348 L17.1577703,-41.132348 L17.1577703,38 L47.7516892,38 Z M231.903547,40.2062922 C280.736149,40.2062922 288.531715,17.5550253 288.531715,-0.683657095 L288.531715,-3.33120777 C288.531715,-21.2757179 280.147804,-43.3386402 231.903547,-43.3386402 L221.460431,-43.3386402 C175.569552,-43.3386402 164.685177,-21.5698902 164.685177,-3.33120777 L164.685177,-0.683657095 C164.685177,17.5550253 175.716639,40.2062922 221.607517,40.2062922 L231.903547,40.2062922 Z M226.755532,18.8788007 C204.398438,18.8788007 198.220819,7.70025338 198.220819,-1.56617399 L198.220819,-2.30160473 C198.220819,-12.3034628 204.398438,-22.3053209 226.755532,-22.3053209 L226.902618,-22.3053209 C248.965541,-22.3053209 255.290245,-12.1563767 255.290245,-2.30160473 L255.290245,-1.56617399 C255.290245,7.70025338 249.112627,18.8788007 226.755532,18.8788007 Z M319.861064,55.6503378 L319.861064,38 L391.197846,38 L391.197846,55.6503378 L422.527196,55.6503378 L422.527196,16.23125 L406.34772,16.23125 L406.34772,-41.132348 L307.064569,-41.132348 C306.329139,-6.71418919 304.858277,6.08230574 300.592779,16.23125 L288.678801,16.23125 L288.678801,55.6503378 L319.861064,55.6503378 Z M373.547508,16.23125 L331.775042,16.23125 C335.158024,7.25899493 336.334713,-3.47829392 336.923057,-20.0990287 L373.547508,-20.0990287 L373.547508,16.23125 Z M464.299662,39.4708615 C487.539274,39.4708615 497.541132,31.3811233 500.924113,27.115625 C502.100802,34.6170186 507.101731,38 513.426436,38 L540.049029,38 L540.049029,16.5254223 L535.78353,16.5254223 C532.400549,16.5254223 531.665118,14.9074747 531.665118,12.5540963 L531.665118,-17.7456503 C531.665118,-29.2183699 528.723395,-43.3386402 482.832517,-43.3386402 L474.742779,-43.3386402 C430.616934,-43.3386402 427.528125,-27.0120777 427.528125,-16.5689611 L427.528125,-16.2747889 L457.974958,-16.2747889 C458.416216,-18.9223395 459.151647,-25.0999578 478.714105,-25.0999578 L479.449535,-25.0999578 C498.717821,-25.0999578 500.041596,-21.5698902 500.041596,-18.6281672 C500.041596,-16.1277027 498.717821,-14.9510135 495.040667,-14.5097551 L458.857475,-11.1267736 C435.176605,-8.92048142 425.616005,-2.00743243 425.616005,12.5540963 L425.616005,13.5836993 C425.616005,27.115625 435.764949,39.4708615 462.387542,39.4708615 L464.299662,39.4708615 Z M471.212711,21.6734375 C460.034164,21.6734375 456.798269,16.9666807 456.798269,12.7011824 L456.798269,12.5540963 C456.798269,7.99442568 460.328336,6.52356419 468.712247,5.19978885 L500.041596,0.345945946 L500.041596,2.84641047 C500.041596,12.259924 488.715963,21.6734375 471.212711,21.6734375 Z M625.358995,38 L675.074113,-11.8622044 L675.074113,38 L707.874324,38 L707.874324,-41.132348 L674.338682,-41.132348 L624.623564,8.72985642 L624.623564,-41.132348 L591.823353,-41.132348 L591.823353,38 L625.358995,38 Z M826.131588,40.2062922 C876.729223,40.2062922 881.877238,15.9370777 881.877238,4.90561655 L881.877238,4.61144426 L848.19451,4.61144426 C847.459079,7.70025338 844.223184,19.172973 822.013176,19.172973 L821.571917,19.172973 C802.597804,19.172973 796.420186,8.58277027 796.420186,-2.00743243 L796.420186,-3.03703547 C796.420186,-13.0388936 802.450718,-22.5994932 821.571917,-22.5994932 L822.013176,-22.5994932 C844.517356,-22.5994932 847.459079,-11.4209459 848.19451,-8.33213682 L881.877238,-8.33213682 L881.877238,-8.77339527 C881.877238,-19.363598 875.69962,-43.3386402 826.278674,-43.3386402 L817.894764,-43.3386402 C772.739316,-43.3386402 762.884544,-21.1286318 762.884544,-3.47829392 L762.884544,-0.536570946 C762.884544,17.1137669 772.886402,40.2062922 818.04185,40.2062922 L826.131588,40.2062922 Z M950.419383,38 L950.419383,-19.363598 L983.513767,-19.363598 L983.513767,-41.132348 L884.524789,-41.132348 L884.524789,-19.363598 L917.619172,-19.363598 L917.619172,38 L950.419383,38 Z M1027.19835,38 L1076.91347,-11.8622044 L1076.91347,38 L1109.71368,38 L1109.71368,-41.132348 L1076.17804,-41.132348 L1026.46292,8.72985642 L1026.46292,-41.132348 L993.662711,-41.132348 L993.662711,38 L1027.19835,38 Z M1127.51111,38 C1144.13184,38 1152.66284,30.9398649 1155.60456,21.3792652 C1157.95794,13.5836993 1158.84046,2.69932432 1158.84046,-19.363598 L1190.61106,-19.363598 L1190.61106,38 L1223.41128,38 L1223.41128,-41.132348 L1129.42323,-41.132348 C1129.42323,-7.11132179 1128.82753,0.460673142 1127.85058,6.13834557 L1127.78489,6.51432012 C1127.71864,6.88802719 1127.65071,7.25574021 1127.58118,7.62473464 L1127.51111,7.99442568 L1127.51111,7.99442568 C1126.33442,14.3191301 1123.68687,16.23125 1119.42137,16.23125 L1117.65633,16.23125 L1117.65633,38 L1127.51111,38 Z M1304.60283,38 C1328.2837,38 1340.19768,23.7326436 1340.19768,8.43568412 L1340.19768,6.96482264 C1340.19768,-8.47922297 1328.13661,-20.5402872 1304.60283,-20.5402872 L1269.15507,-20.5402872 L1269.15507,-41.132348 L1236.35486,-41.132348 L1236.35486,38 L1304.60283,38 Z M1296.36601,17.8491976 L1269.15507,17.8491976 L1269.15507,-0.389484797 L1296.36601,-0.389484797 C1303.42614,-0.389484797 1306.80912,3.58184122 1306.80912,8.28859797 L1306.80912,9.02402872 C1306.80912,13.5836993 1303.42614,17.8491976 1296.36601,17.8491976 Z" id="модаистиль" stroke="#000000" stroke-width="0.8" fill-opacity="0" fill="#000000" fill-rule="nonzero" mask="url(#mask-2)"></path> </g> <g id="Group-Copy" transform="translate(0.000000, 518.091216)"> <mask id="mask-4" fill="white"> <use xlink:href="#path-3"></use> </mask> <g id="Rectangle"></g> <path d="M47.7516892,61 L47.7516892,15.6974662 L76.8747466,61 L93.054223,61 L122.17728,16.1387247 L122.17728,61 L154.977492,61 L154.977492,-18.132348 L116.588007,-18.132348 L86.4353463,27.6114443 L56.8710304,-18.132348 L17.1577703,-18.132348 L17.1577703,61 L47.7516892,61 Z M231.903547,63.2062922 C280.736149,63.2062922 288.531715,40.5550253 288.531715,22.3163429 L288.531715,19.6687922 C288.531715,1.72428209 280.147804,-20.3386402 231.903547,-20.3386402 L221.460431,-20.3386402 C175.569552,-20.3386402 164.685177,1.4301098 164.685177,19.6687922 L164.685177,22.3163429 C164.685177,40.5550253 175.716639,63.2062922 221.607517,63.2062922 L231.903547,63.2062922 Z M226.755532,41.8788007 C204.398438,41.8788007 198.220819,30.7002534 198.220819,21.433826 L198.220819,20.6983953 C198.220819,10.6965372 204.398438,0.694679054 226.755532,0.694679054 L226.902618,0.694679054 C248.965541,0.694679054 255.290245,10.8436233 255.290245,20.6983953 L255.290245,21.433826 C255.290245,30.7002534 249.112627,41.8788007 226.755532,41.8788007 Z M319.861064,78.6503378 L319.861064,61 L391.197846,61 L391.197846,78.6503378 L422.527196,78.6503378 L422.527196,39.23125 L406.34772,39.23125 L406.34772,-18.132348 L307.064569,-18.132348 C306.329139,16.2858108 304.858277,29.0823057 300.592779,39.23125 L288.678801,39.23125 L288.678801,78.6503378 L319.861064,78.6503378 Z M373.547508,39.23125 L331.775042,39.23125 C335.158024,30.2589949 336.334713,19.5217061 336.923057,2.90097128 L373.547508,2.90097128 L373.547508,39.23125 Z M464.299662,62.4708615 C487.539274,62.4708615 497.541132,54.3811233 500.924113,50.115625 C502.100802,57.6170186 507.101731,61 513.426436,61 L540.049029,61 L540.049029,39.5254223 L535.78353,39.5254223 C532.400549,39.5254223 531.665118,37.9074747 531.665118,35.5540963 L531.665118,5.25434966 C531.665118,-6.21836993 528.723395,-20.3386402 482.832517,-20.3386402 L474.742779,-20.3386402 C430.616934,-20.3386402 427.528125,-4.0120777 427.528125,6.43103885 L427.528125,6.72521115 L457.974958,6.72521115 C458.416216,4.07766047 459.151647,-2.09995777 478.714105,-2.09995777 L479.449535,-2.09995777 C498.717821,-2.09995777 500.041596,1.4301098 500.041596,4.37183277 C500.041596,6.8722973 498.717821,8.04898649 495.040667,8.49024493 L458.857475,11.8732264 C435.176605,14.0795186 425.616005,20.9925676 425.616005,35.5540963 L425.616005,36.5836993 C425.616005,50.115625 435.764949,62.4708615 462.387542,62.4708615 L464.299662,62.4708615 Z M471.212711,44.6734375 C460.034164,44.6734375 456.798269,39.9666807 456.798269,35.7011824 L456.798269,35.5540963 C456.798269,30.9944257 460.328336,29.5235642 468.712247,28.1997889 L500.041596,23.3459459 L500.041596,25.8464105 C500.041596,35.259924 488.715963,44.6734375 471.212711,44.6734375 Z M625.358995,61 L675.074113,11.1377956 L675.074113,61 L707.874324,61 L707.874324,-18.132348 L674.338682,-18.132348 L624.623564,31.7298564 L624.623564,-18.132348 L591.823353,-18.132348 L591.823353,61 L625.358995,61 Z M826.131588,63.2062922 C876.729223,63.2062922 881.877238,38.9370777 881.877238,27.9056166 L881.877238,27.6114443 L848.19451,27.6114443 C847.459079,30.7002534 844.223184,42.172973 822.013176,42.172973 L821.571917,42.172973 C802.597804,42.172973 796.420186,31.5827703 796.420186,20.9925676 L796.420186,19.9629645 C796.420186,9.96110642 802.450718,0.400506757 821.571917,0.400506757 L822.013176,0.400506757 C844.517356,0.400506757 847.459079,11.5790541 848.19451,14.6678632 L881.877238,14.6678632 L881.877238,14.2266047 C881.877238,3.63640203 875.69962,-20.3386402 826.278674,-20.3386402 L817.894764,-20.3386402 C772.739316,-20.3386402 762.884544,1.87136824 762.884544,19.5217061 L762.884544,22.4634291 C762.884544,40.1137669 772.886402,63.2062922 818.04185,63.2062922 L826.131588,63.2062922 Z M950.419383,61 L950.419383,3.63640203 L983.513767,3.63640203 L983.513767,-18.132348 L884.524789,-18.132348 L884.524789,3.63640203 L917.619172,3.63640203 L917.619172,61 L950.419383,61 Z M1027.19835,61 L1076.91347,11.1377956 L1076.91347,61 L1109.71368,61 L1109.71368,-18.132348 L1076.17804,-18.132348 L1026.46292,31.7298564 L1026.46292,-18.132348 L993.662711,-18.132348 L993.662711,61 L1027.19835,61 Z M1127.51111,61 C1144.13184,61 1152.66284,53.9398649 1155.60456,44.3792652 C1157.95794,36.5836993 1158.84046,25.6993243 1158.84046,3.63640203 L1190.61106,3.63640203 L1190.61106,61 L1223.41128,61 L1223.41128,-18.132348 L1129.42323,-18.132348 C1129.42323,15.8886782 1128.82753,23.4606731 1127.85058,29.1383456 L1127.78489,29.5143201 C1127.71864,29.8880272 1127.65071,30.2557402 1127.58118,30.6247346 L1127.51111,30.9944257 L1127.51111,30.9944257 C1126.33442,37.3191301 1123.68687,39.23125 1119.42137,39.23125 L1117.65633,39.23125 L1117.65633,61 L1127.51111,61 Z M1304.60283,61 C1328.2837,61 1340.19768,46.7326436 1340.19768,31.4356841 L1340.19768,29.9648226 C1340.19768,14.520777 1328.13661,2.45971284 1304.60283,2.45971284 L1269.15507,2.45971284 L1269.15507,-18.132348 L1236.35486,-18.132348 L1236.35486,61 L1304.60283,61 Z M1296.36601,40.8491976 L1269.15507,40.8491976 L1269.15507,22.6105152 L1296.36601,22.6105152 C1303.42614,22.6105152 1306.80912,26.5818412 1306.80912,31.288598 L1306.80912,32.0240287 C1306.80912,36.5836993 1303.42614,40.8491976 1296.36601,40.8491976 Z" id="модаистиль" stroke="#000000" stroke-width="0.8" fill-opacity="0" fill="#000000" fill-rule="nonzero" mask="url(#mask-4)"></path> </g> <g id="Group-Copy" transform="translate(0.000000, 409.875000)"> <mask id="mask-6" fill="white"> <use xlink:href="#path-5"></use> </mask> <g id="Rectangle"></g> <path d="M47.7516892,78 L47.7516892,32.6974662 L76.8747466,78 L93.054223,78 L122.17728,33.1387247 L122.17728,78 L154.977492,78 L154.977492,-1.13234797 L116.588007,-1.13234797 L86.4353463,44.6114443 L56.8710304,-1.13234797 L17.1577703,-1.13234797 L17.1577703,78 L47.7516892,78 Z M231.903547,80.2062922 C280.736149,80.2062922 288.531715,57.5550253 288.531715,39.3163429 L288.531715,36.6687922 C288.531715,18.7242821 280.147804,-3.3386402 231.903547,-3.3386402 L221.460431,-3.3386402 C175.569552,-3.3386402 164.685177,18.4301098 164.685177,36.6687922 L164.685177,39.3163429 C164.685177,57.5550253 175.716639,80.2062922 221.607517,80.2062922 L231.903547,80.2062922 Z M226.755532,58.8788007 C204.398438,58.8788007 198.220819,47.7002534 198.220819,38.433826 L198.220819,37.6983953 C198.220819,27.6965372 204.398438,17.6946791 226.755532,17.6946791 L226.902618,17.6946791 C248.965541,17.6946791 255.290245,27.8436233 255.290245,37.6983953 L255.290245,38.433826 C255.290245,47.7002534 249.112627,58.8788007 226.755532,58.8788007 Z M319.861064,95.6503378 L319.861064,78 L391.197846,78 L391.197846,95.6503378 L422.527196,95.6503378 L422.527196,56.23125 L406.34772,56.23125 L406.34772,-1.13234797 L307.064569,-1.13234797 C306.329139,33.2858108 304.858277,46.0823057 300.592779,56.23125 L288.678801,56.23125 L288.678801,95.6503378 L319.861064,95.6503378 Z M373.547508,56.23125 L331.775042,56.23125 C335.158024,47.2589949 336.334713,36.5217061 336.923057,19.9009713 L373.547508,19.9009713 L373.547508,56.23125 Z M464.299662,79.4708615 C487.539274,79.4708615 497.541132,71.3811233 500.924113,67.115625 C502.100802,74.6170186 507.101731,78 513.426436,78 L540.049029,78 L540.049029,56.5254223 L535.78353,56.5254223 C532.400549,56.5254223 531.665118,54.9074747 531.665118,52.5540963 L531.665118,22.2543497 C531.665118,10.7816301 528.723395,-3.3386402 482.832517,-3.3386402 L474.742779,-3.3386402 C430.616934,-3.3386402 427.528125,12.9879223 427.528125,23.4310389 L427.528125,23.7252111 L457.974958,23.7252111 C458.416216,21.0776605 459.151647,14.9000422 478.714105,14.9000422 L479.449535,14.9000422 C498.717821,14.9000422 500.041596,18.4301098 500.041596,21.3718328 C500.041596,23.8722973 498.717821,25.0489865 495.040667,25.4902449 L458.857475,28.8732264 C435.176605,31.0795186 425.616005,37.9925676 425.616005,52.5540963 L425.616005,53.5836993 C425.616005,67.115625 435.764949,79.4708615 462.387542,79.4708615 L464.299662,79.4708615 Z M471.212711,61.6734375 C460.034164,61.6734375 456.798269,56.9666807 456.798269,52.7011824 L456.798269,52.5540963 C456.798269,47.9944257 460.328336,46.5235642 468.712247,45.1997889 L500.041596,40.3459459 L500.041596,42.8464105 C500.041596,52.259924 488.715963,61.6734375 471.212711,61.6734375 Z M625.358995,78 L675.074113,28.1377956 L675.074113,78 L707.874324,78 L707.874324,-1.13234797 L674.338682,-1.13234797 L624.623564,48.7298564 L624.623564,-1.13234797 L591.823353,-1.13234797 L591.823353,78 L625.358995,78 Z M826.131588,80.2062922 C876.729223,80.2062922 881.877238,55.9370777 881.877238,44.9056166 L881.877238,44.6114443 L848.19451,44.6114443 C847.459079,47.7002534 844.223184,59.172973 822.013176,59.172973 L821.571917,59.172973 C802.597804,59.172973 796.420186,48.5827703 796.420186,37.9925676 L796.420186,36.9629645 C796.420186,26.9611064 802.450718,17.4005068 821.571917,17.4005068 L822.013176,17.4005068 C844.517356,17.4005068 847.459079,28.5790541 848.19451,31.6678632 L881.877238,31.6678632 L881.877238,31.2266047 C881.877238,20.636402 875.69962,-3.3386402 826.278674,-3.3386402 L817.894764,-3.3386402 C772.739316,-3.3386402 762.884544,18.8713682 762.884544,36.5217061 L762.884544,39.4634291 C762.884544,57.1137669 772.886402,80.2062922 818.04185,80.2062922 L826.131588,80.2062922 Z M950.419383,78 L950.419383,20.636402 L983.513767,20.636402 L983.513767,-1.13234797 L884.524789,-1.13234797 L884.524789,20.636402 L917.619172,20.636402 L917.619172,78 L950.419383,78 Z M1027.19835,78 L1076.91347,28.1377956 L1076.91347,78 L1109.71368,78 L1109.71368,-1.13234797 L1076.17804,-1.13234797 L1026.46292,48.7298564 L1026.46292,-1.13234797 L993.662711,-1.13234797 L993.662711,78 L1027.19835,78 Z M1127.51111,78 C1144.13184,78 1152.66284,70.9398649 1155.60456,61.3792652 C1157.95794,53.5836993 1158.84046,42.6993243 1158.84046,20.636402 L1190.61106,20.636402 L1190.61106,78 L1223.41128,78 L1223.41128,-1.13234797 L1129.42323,-1.13234797 C1129.42323,32.8886782 1128.82753,40.4606731 1127.85058,46.1383456 L1127.78489,46.5143201 C1127.71864,46.8880272 1127.65071,47.2557402 1127.58118,47.6247346 L1127.51111,47.9944257 L1127.51111,47.9944257 C1126.33442,54.3191301 1123.68687,56.23125 1119.42137,56.23125 L1117.65633,56.23125 L1117.65633,78 L1127.51111,78 Z M1304.60283,78 C1328.2837,78 1340.19768,63.7326436 1340.19768,48.4356841 L1340.19768,46.9648226 C1340.19768,31.520777 1328.13661,19.4597128 1304.60283,19.4597128 L1269.15507,19.4597128 L1269.15507,-1.13234797 L1236.35486,-1.13234797 L1236.35486,78 L1304.60283,78 Z M1296.36601,57.8491976 L1269.15507,57.8491976 L1269.15507,39.6105152 L1296.36601,39.6105152 C1303.42614,39.6105152 1306.80912,43.5818412 1306.80912,48.288598 L1306.80912,49.0240287 C1306.80912,53.5836993 1303.42614,57.8491976 1296.36601,57.8491976 Z" id="модаистиль" stroke="#000000" stroke-width="0.8" fill-opacity="0" fill="#000000" fill-rule="nonzero" mask="url(#mask-6)"></path> </g> <g id="Group-Copy" transform="translate(0.000000, 0.206081)"> <mask id="mask-8" fill="white"> <use xlink:href="#path-7"></use> </mask> <g id="Rectangle"></g> <path d="M47.7516892,111 L47.7516892,65.6974662 L76.8747466,111 L93.054223,111 L122.17728,66.1387247 L122.17728,111 L154.977492,111 L154.977492,31.867652 L116.588007,31.867652 L86.4353463,77.6114443 L56.8710304,31.867652 L17.1577703,31.867652 L17.1577703,111 L47.7516892,111 Z M231.903547,113.206292 C280.736149,113.206292 288.531715,90.5550253 288.531715,72.3163429 L288.531715,69.6687922 C288.531715,51.7242821 280.147804,29.6613598 231.903547,29.6613598 L221.460431,29.6613598 C175.569552,29.6613598 164.685177,51.4301098 164.685177,69.6687922 L164.685177,72.3163429 C164.685177,90.5550253 175.716639,113.206292 221.607517,113.206292 L231.903547,113.206292 Z M226.755532,91.8788007 C204.398438,91.8788007 198.220819,80.7002534 198.220819,71.433826 L198.220819,70.6983953 C198.220819,60.6965372 204.398438,50.6946791 226.755532,50.6946791 L226.902618,50.6946791 C248.965541,50.6946791 255.290245,60.8436233 255.290245,70.6983953 L255.290245,71.433826 C255.290245,80.7002534 249.112627,91.8788007 226.755532,91.8788007 Z M319.861064,128.650338 L319.861064,111 L391.197846,111 L391.197846,128.650338 L422.527196,128.650338 L422.527196,89.23125 L406.34772,89.23125 L406.34772,31.867652 L307.064569,31.867652 C306.329139,66.2858108 304.858277,79.0823057 300.592779,89.23125 L288.678801,89.23125 L288.678801,128.650338 L319.861064,128.650338 Z M373.547508,89.23125 L331.775042,89.23125 C335.158024,80.2589949 336.334713,69.5217061 336.923057,52.9009713 L373.547508,52.9009713 L373.547508,89.23125 Z M464.299662,112.470861 C487.539274,112.470861 497.541132,104.381123 500.924113,100.115625 C502.100802,107.617019 507.101731,111 513.426436,111 L540.049029,111 L540.049029,89.5254223 L535.78353,89.5254223 C532.400549,89.5254223 531.665118,87.9074747 531.665118,85.5540963 L531.665118,55.2543497 C531.665118,43.7816301 528.723395,29.6613598 482.832517,29.6613598 L474.742779,29.6613598 C430.616934,29.6613598 427.528125,45.9879223 427.528125,56.4310389 L427.528125,56.7252111 L457.974958,56.7252111 C458.416216,54.0776605 459.151647,47.9000422 478.714105,47.9000422 L479.449535,47.9000422 C498.717821,47.9000422 500.041596,51.4301098 500.041596,54.3718328 C500.041596,56.8722973 498.717821,58.0489865 495.040667,58.4902449 L458.857475,61.8732264 C435.176605,64.0795186 425.616005,70.9925676 425.616005,85.5540963 L425.616005,86.5836993 C425.616005,100.115625 435.764949,112.470861 462.387542,112.470861 L464.299662,112.470861 Z M471.212711,94.6734375 C460.034164,94.6734375 456.798269,89.9666807 456.798269,85.7011824 L456.798269,85.5540963 C456.798269,80.9944257 460.328336,79.5235642 468.712247,78.1997889 L500.041596,73.3459459 L500.041596,75.8464105 C500.041596,85.259924 488.715963,94.6734375 471.212711,94.6734375 Z M625.358995,111 L675.074113,61.1377956 L675.074113,111 L707.874324,111 L707.874324,31.867652 L674.338682,31.867652 L624.623564,81.7298564 L624.623564,31.867652 L591.823353,31.867652 L591.823353,111 L625.358995,111 Z M826.131588,113.206292 C876.729223,113.206292 881.877238,88.9370777 881.877238,77.9056166 L881.877238,77.6114443 L848.19451,77.6114443 C847.459079,80.7002534 844.223184,92.172973 822.013176,92.172973 L821.571917,92.172973 C802.597804,92.172973 796.420186,81.5827703 796.420186,70.9925676 L796.420186,69.9629645 C796.420186,59.9611064 802.450718,50.4005068 821.571917,50.4005068 L822.013176,50.4005068 C844.517356,50.4005068 847.459079,61.5790541 848.19451,64.6678632 L881.877238,64.6678632 L881.877238,64.2266047 C881.877238,53.636402 875.69962,29.6613598 826.278674,29.6613598 L817.894764,29.6613598 C772.739316,29.6613598 762.884544,51.8713682 762.884544,69.5217061 L762.884544,72.4634291 C762.884544,90.1137669 772.886402,113.206292 818.04185,113.206292 L826.131588,113.206292 Z M950.419383,111 L950.419383,53.636402 L983.513767,53.636402 L983.513767,31.867652 L884.524789,31.867652 L884.524789,53.636402 L917.619172,53.636402 L917.619172,111 L950.419383,111 Z M1027.19835,111 L1076.91347,61.1377956 L1076.91347,111 L1109.71368,111 L1109.71368,31.867652 L1076.17804,31.867652 L1026.46292,81.7298564 L1026.46292,31.867652 L993.662711,31.867652 L993.662711,111 L1027.19835,111 Z M1127.51111,111 C1144.13184,111 1152.66284,103.939865 1155.60456,94.3792652 C1157.95794,86.5836993 1158.84046,75.6993243 1158.84046,53.636402 L1190.61106,53.636402 L1190.61106,111 L1223.41128,111 L1223.41128,31.867652 L1129.42323,31.867652 C1129.42323,65.8886782 1128.82753,73.4606731 1127.85058,79.1383456 L1127.78489,79.5143201 C1127.71864,79.8880272 1127.65071,80.2557402 1127.58118,80.6247346 L1127.51111,80.9944257 L1127.51111,80.9944257 C1126.33442,87.3191301 1123.68687,89.23125 1119.42137,89.23125 L1117.65633,89.23125 L1117.65633,111 L1127.51111,111 Z M1304.60283,111 C1328.2837,111 1340.19768,96.7326436 1340.19768,81.4356841 L1340.19768,79.9648226 C1340.19768,64.520777 1328.13661,52.4597128 1304.60283,52.4597128 L1269.15507,52.4597128 L1269.15507,31.867652 L1236.35486,31.867652 L1236.35486,111 L1304.60283,111 Z M1296.36601,90.8491976 L1269.15507,90.8491976 L1269.15507,72.6105152 L1296.36601,72.6105152 C1303.42614,72.6105152 1306.80912,76.5818412 1306.80912,81.288598 L1306.80912,82.0240287 C1306.80912,86.5836993 1303.42614,90.8491976 1296.36601,90.8491976 Z" id="модаистиль" stroke="#000000" stroke-width="0.8" fill-opacity="0" fill="#000000" fill-rule="nonzero" mask="url(#mask-8)"></path> </g> <g id="Group-Copy" transform="translate(0.000000, 68.618243)"> <mask id="mask-10" fill="white"> <use xlink:href="#path-9"></use> </mask> <g id="Rectangle"></g> <path d="M47.7516892,111 L47.7516892,65.6974662 L76.8747466,111 L93.054223,111 L122.17728,66.1387247 L122.17728,111 L154.977492,111 L154.977492,31.867652 L116.588007,31.867652 L86.4353463,77.6114443 L56.8710304,31.867652 L17.1577703,31.867652 L17.1577703,111 L47.7516892,111 Z M231.903547,113.206292 C280.736149,113.206292 288.531715,90.5550253 288.531715,72.3163429 L288.531715,69.6687922 C288.531715,51.7242821 280.147804,29.6613598 231.903547,29.6613598 L221.460431,29.6613598 C175.569552,29.6613598 164.685177,51.4301098 164.685177,69.6687922 L164.685177,72.3163429 C164.685177,90.5550253 175.716639,113.206292 221.607517,113.206292 L231.903547,113.206292 Z M226.755532,91.8788007 C204.398438,91.8788007 198.220819,80.7002534 198.220819,71.433826 L198.220819,70.6983953 C198.220819,60.6965372 204.398438,50.6946791 226.755532,50.6946791 L226.902618,50.6946791 C248.965541,50.6946791 255.290245,60.8436233 255.290245,70.6983953 L255.290245,71.433826 C255.290245,80.7002534 249.112627,91.8788007 226.755532,91.8788007 Z M319.861064,128.650338 L319.861064,111 L391.197846,111 L391.197846,128.650338 L422.527196,128.650338 L422.527196,89.23125 L406.34772,89.23125 L406.34772,31.867652 L307.064569,31.867652 C306.329139,66.2858108 304.858277,79.0823057 300.592779,89.23125 L288.678801,89.23125 L288.678801,128.650338 L319.861064,128.650338 Z M373.547508,89.23125 L331.775042,89.23125 C335.158024,80.2589949 336.334713,69.5217061 336.923057,52.9009713 L373.547508,52.9009713 L373.547508,89.23125 Z M464.299662,112.470861 C487.539274,112.470861 497.541132,104.381123 500.924113,100.115625 C502.100802,107.617019 507.101731,111 513.426436,111 L540.049029,111 L540.049029,89.5254223 L535.78353,89.5254223 C532.400549,89.5254223 531.665118,87.9074747 531.665118,85.5540963 L531.665118,55.2543497 C531.665118,43.7816301 528.723395,29.6613598 482.832517,29.6613598 L474.742779,29.6613598 C430.616934,29.6613598 427.528125,45.9879223 427.528125,56.4310389 L427.528125,56.7252111 L457.974958,56.7252111 C458.416216,54.0776605 459.151647,47.9000422 478.714105,47.9000422 L479.449535,47.9000422 C498.717821,47.9000422 500.041596,51.4301098 500.041596,54.3718328 C500.041596,56.8722973 498.717821,58.0489865 495.040667,58.4902449 L458.857475,61.8732264 C435.176605,64.0795186 425.616005,70.9925676 425.616005,85.5540963 L425.616005,86.5836993 C425.616005,100.115625 435.764949,112.470861 462.387542,112.470861 L464.299662,112.470861 Z M471.212711,94.6734375 C460.034164,94.6734375 456.798269,89.9666807 456.798269,85.7011824 L456.798269,85.5540963 C456.798269,80.9944257 460.328336,79.5235642 468.712247,78.1997889 L500.041596,73.3459459 L500.041596,75.8464105 C500.041596,85.259924 488.715963,94.6734375 471.212711,94.6734375 Z M625.358995,111 L675.074113,61.1377956 L675.074113,111 L707.874324,111 L707.874324,31.867652 L674.338682,31.867652 L624.623564,81.7298564 L624.623564,31.867652 L591.823353,31.867652 L591.823353,111 L625.358995,111 Z M826.131588,113.206292 C876.729223,113.206292 881.877238,88.9370777 881.877238,77.9056166 L881.877238,77.6114443 L848.19451,77.6114443 C847.459079,80.7002534 844.223184,92.172973 822.013176,92.172973 L821.571917,92.172973 C802.597804,92.172973 796.420186,81.5827703 796.420186,70.9925676 L796.420186,69.9629645 C796.420186,59.9611064 802.450718,50.4005068 821.571917,50.4005068 L822.013176,50.4005068 C844.517356,50.4005068 847.459079,61.5790541 848.19451,64.6678632 L881.877238,64.6678632 L881.877238,64.2266047 C881.877238,53.636402 875.69962,29.6613598 826.278674,29.6613598 L817.894764,29.6613598 C772.739316,29.6613598 762.884544,51.8713682 762.884544,69.5217061 L762.884544,72.4634291 C762.884544,90.1137669 772.886402,113.206292 818.04185,113.206292 L826.131588,113.206292 Z M950.419383,111 L950.419383,53.636402 L983.513767,53.636402 L983.513767,31.867652 L884.524789,31.867652 L884.524789,53.636402 L917.619172,53.636402 L917.619172,111 L950.419383,111 Z M1027.19835,111 L1076.91347,61.1377956 L1076.91347,111 L1109.71368,111 L1109.71368,31.867652 L1076.17804,31.867652 L1026.46292,81.7298564 L1026.46292,31.867652 L993.662711,31.867652 L993.662711,111 L1027.19835,111 Z M1127.51111,111 C1144.13184,111 1152.66284,103.939865 1155.60456,94.3792652 C1157.95794,86.5836993 1158.84046,75.6993243 1158.84046,53.636402 L1190.61106,53.636402 L1190.61106,111 L1223.41128,111 L1223.41128,31.867652 L1129.42323,31.867652 C1129.42323,65.8886782 1128.82753,73.4606731 1127.85058,79.1383456 L1127.78489,79.5143201 C1127.71864,79.8880272 1127.65071,80.2557402 1127.58118,80.6247346 L1127.51111,80.9944257 L1127.51111,80.9944257 C1126.33442,87.3191301 1123.68687,89.23125 1119.42137,89.23125 L1117.65633,89.23125 L1117.65633,111 L1127.51111,111 Z M1304.60283,111 C1328.2837,111 1340.19768,96.7326436 1340.19768,81.4356841 L1340.19768,79.9648226 C1340.19768,64.520777 1328.13661,52.4597128 1304.60283,52.4597128 L1269.15507,52.4597128 L1269.15507,31.867652 L1236.35486,31.867652 L1236.35486,111 L1304.60283,111 Z M1296.36601,90.8491976 L1269.15507,90.8491976 L1269.15507,72.6105152 L1296.36601,72.6105152 C1303.42614,72.6105152 1306.80912,76.5818412 1306.80912,81.288598 L1306.80912,82.0240287 C1306.80912,86.5836993 1303.42614,90.8491976 1296.36601,90.8491976 Z" id="модаистиль" stroke="#000000" stroke-width="0.8" fill-opacity="0" fill="#000000" fill-rule="nonzero" mask="url(#mask-10)"></path> </g> <g id="Group-Copy" transform="translate(0.000000, 159.834459)"> <mask id="mask-12" fill="white"> <use xlink:href="#path-11"></use> </mask> <g id="Rectangle"></g> <path d="M47.7516892,111 L47.7516892,65.6974662 L76.8747466,111 L93.054223,111 L122.17728,66.1387247 L122.17728,111 L154.977492,111 L154.977492,31.867652 L116.588007,31.867652 L86.4353463,77.6114443 L56.8710304,31.867652 L17.1577703,31.867652 L17.1577703,111 L47.7516892,111 Z M231.903547,113.206292 C280.736149,113.206292 288.531715,90.5550253 288.531715,72.3163429 L288.531715,69.6687922 C288.531715,51.7242821 280.147804,29.6613598 231.903547,29.6613598 L221.460431,29.6613598 C175.569552,29.6613598 164.685177,51.4301098 164.685177,69.6687922 L164.685177,72.3163429 C164.685177,90.5550253 175.716639,113.206292 221.607517,113.206292 L231.903547,113.206292 Z M226.755532,91.8788007 C204.398438,91.8788007 198.220819,80.7002534 198.220819,71.433826 L198.220819,70.6983953 C198.220819,60.6965372 204.398438,50.6946791 226.755532,50.6946791 L226.902618,50.6946791 C248.965541,50.6946791 255.290245,60.8436233 255.290245,70.6983953 L255.290245,71.433826 C255.290245,80.7002534 249.112627,91.8788007 226.755532,91.8788007 Z M319.861064,128.650338 L319.861064,111 L391.197846,111 L391.197846,128.650338 L422.527196,128.650338 L422.527196,89.23125 L406.34772,89.23125 L406.34772,31.867652 L307.064569,31.867652 C306.329139,66.2858108 304.858277,79.0823057 300.592779,89.23125 L288.678801,89.23125 L288.678801,128.650338 L319.861064,128.650338 Z M373.547508,89.23125 L331.775042,89.23125 C335.158024,80.2589949 336.334713,69.5217061 336.923057,52.9009713 L373.547508,52.9009713 L373.547508,89.23125 Z M464.299662,112.470861 C487.539274,112.470861 497.541132,104.381123 500.924113,100.115625 C502.100802,107.617019 507.101731,111 513.426436,111 L540.049029,111 L540.049029,89.5254223 L535.78353,89.5254223 C532.400549,89.5254223 531.665118,87.9074747 531.665118,85.5540963 L531.665118,55.2543497 C531.665118,43.7816301 528.723395,29.6613598 482.832517,29.6613598 L474.742779,29.6613598 C430.616934,29.6613598 427.528125,45.9879223 427.528125,56.4310389 L427.528125,56.7252111 L457.974958,56.7252111 C458.416216,54.0776605 459.151647,47.9000422 478.714105,47.9000422 L479.449535,47.9000422 C498.717821,47.9000422 500.041596,51.4301098 500.041596,54.3718328 C500.041596,56.8722973 498.717821,58.0489865 495.040667,58.4902449 L458.857475,61.8732264 C435.176605,64.0795186 425.616005,70.9925676 425.616005,85.5540963 L425.616005,86.5836993 C425.616005,100.115625 435.764949,112.470861 462.387542,112.470861 L464.299662,112.470861 Z M471.212711,94.6734375 C460.034164,94.6734375 456.798269,89.9666807 456.798269,85.7011824 L456.798269,85.5540963 C456.798269,80.9944257 460.328336,79.5235642 468.712247,78.1997889 L500.041596,73.3459459 L500.041596,75.8464105 C500.041596,85.259924 488.715963,94.6734375 471.212711,94.6734375 Z M625.358995,111 L675.074113,61.1377956 L675.074113,111 L707.874324,111 L707.874324,31.867652 L674.338682,31.867652 L624.623564,81.7298564 L624.623564,31.867652 L591.823353,31.867652 L591.823353,111 L625.358995,111 Z M826.131588,113.206292 C876.729223,113.206292 881.877238,88.9370777 881.877238,77.9056166 L881.877238,77.6114443 L848.19451,77.6114443 C847.459079,80.7002534 844.223184,92.172973 822.013176,92.172973 L821.571917,92.172973 C802.597804,92.172973 796.420186,81.5827703 796.420186,70.9925676 L796.420186,69.9629645 C796.420186,59.9611064 802.450718,50.4005068 821.571917,50.4005068 L822.013176,50.4005068 C844.517356,50.4005068 847.459079,61.5790541 848.19451,64.6678632 L881.877238,64.6678632 L881.877238,64.2266047 C881.877238,53.636402 875.69962,29.6613598 826.278674,29.6613598 L817.894764,29.6613598 C772.739316,29.6613598 762.884544,51.8713682 762.884544,69.5217061 L762.884544,72.4634291 C762.884544,90.1137669 772.886402,113.206292 818.04185,113.206292 L826.131588,113.206292 Z M950.419383,111 L950.419383,53.636402 L983.513767,53.636402 L983.513767,31.867652 L884.524789,31.867652 L884.524789,53.636402 L917.619172,53.636402 L917.619172,111 L950.419383,111 Z M1027.19835,111 L1076.91347,61.1377956 L1076.91347,111 L1109.71368,111 L1109.71368,31.867652 L1076.17804,31.867652 L1026.46292,81.7298564 L1026.46292,31.867652 L993.662711,31.867652 L993.662711,111 L1027.19835,111 Z M1127.51111,111 C1144.13184,111 1152.66284,103.939865 1155.60456,94.3792652 C1157.95794,86.5836993 1158.84046,75.6993243 1158.84046,53.636402 L1190.61106,53.636402 L1190.61106,111 L1223.41128,111 L1223.41128,31.867652 L1129.42323,31.867652 C1129.42323,65.8886782 1128.82753,73.4606731 1127.85058,79.1383456 L1127.78489,79.5143201 C1127.71864,79.8880272 1127.65071,80.2557402 1127.58118,80.6247346 L1127.51111,80.9944257 L1127.51111,80.9944257 C1126.33442,87.3191301 1123.68687,89.23125 1119.42137,89.23125 L1117.65633,89.23125 L1117.65633,111 L1127.51111,111 Z M1304.60283,111 C1328.2837,111 1340.19768,96.7326436 1340.19768,81.4356841 L1340.19768,79.9648226 C1340.19768,64.520777 1328.13661,52.4597128 1304.60283,52.4597128 L1269.15507,52.4597128 L1269.15507,31.867652 L1236.35486,31.867652 L1236.35486,111 L1304.60283,111 Z M1296.36601,90.8491976 L1269.15507,90.8491976 L1269.15507,72.6105152 L1296.36601,72.6105152 C1303.42614,72.6105152 1306.80912,76.5818412 1306.80912,81.288598 L1306.80912,82.0240287 C1306.80912,86.5836993 1303.42614,90.8491976 1296.36601,90.8491976 Z" id="модаистиль" stroke="#000000" stroke-width="0.8" fill-opacity="0" fill="#000000" fill-rule="nonzero" mask="url(#mask-12)"></path> </g> <g id="Group" transform="translate(0.000000, 229.854730)"> <rect id="Rectangle" x="0" y="39.9070946" width="1350" height="140.244932"></rect> <path d="M47.7516892,150 L47.7516892,104.697466 L76.8747466,150 L93.054223,150 L122.17728,105.138725 L122.17728,150 L154.977492,150 L154.977492,70.867652 L116.588007,70.867652 L86.4353463,116.611444 L56.8710304,70.867652 L17.1577703,70.867652 L17.1577703,150 L47.7516892,150 Z M231.903547,152.206292 C280.736149,152.206292 288.531715,129.555025 288.531715,111.316343 L288.531715,108.668792 C288.531715,90.7242821 280.147804,68.6613598 231.903547,68.6613598 L221.460431,68.6613598 C175.569552,68.6613598 164.685177,90.4301098 164.685177,108.668792 L164.685177,111.316343 C164.685177,129.555025 175.716639,152.206292 221.607517,152.206292 L231.903547,152.206292 Z M226.755532,130.878801 C204.398438,130.878801 198.220819,119.700253 198.220819,110.433826 L198.220819,109.698395 C198.220819,99.6965372 204.398438,89.6946791 226.755532,89.6946791 L226.902618,89.6946791 C248.965541,89.6946791 255.290245,99.8436233 255.290245,109.698395 L255.290245,110.433826 C255.290245,119.700253 249.112627,130.878801 226.755532,130.878801 Z M319.861064,167.650338 L319.861064,150 L391.197846,150 L391.197846,167.650338 L422.527196,167.650338 L422.527196,128.23125 L406.34772,128.23125 L406.34772,70.867652 L307.064569,70.867652 C306.329139,105.285811 304.858277,118.082306 300.592779,128.23125 L288.678801,128.23125 L288.678801,167.650338 L319.861064,167.650338 Z M373.547508,128.23125 L331.775042,128.23125 C335.158024,119.258995 336.334713,108.521706 336.923057,91.9009713 L373.547508,91.9009713 L373.547508,128.23125 Z M464.299662,151.470861 C487.539274,151.470861 497.541132,143.381123 500.924113,139.115625 C502.100802,146.617019 507.101731,150 513.426436,150 L540.049029,150 L540.049029,128.525422 L535.78353,128.525422 C532.400549,128.525422 531.665118,126.907475 531.665118,124.554096 L531.665118,94.2543497 C531.665118,82.7816301 528.723395,68.6613598 482.832517,68.6613598 L474.742779,68.6613598 C430.616934,68.6613598 427.528125,84.9879223 427.528125,95.4310389 L427.528125,95.7252111 L457.974958,95.7252111 C458.416216,93.0776605 459.151647,86.9000422 478.714105,86.9000422 L479.449535,86.9000422 C498.717821,86.9000422 500.041596,90.4301098 500.041596,93.3718328 C500.041596,95.8722973 498.717821,97.0489865 495.040667,97.4902449 L458.857475,100.873226 C435.176605,103.079519 425.616005,109.992568 425.616005,124.554096 L425.616005,125.583699 C425.616005,139.115625 435.764949,151.470861 462.387542,151.470861 L464.299662,151.470861 Z M471.212711,133.673438 C460.034164,133.673438 456.798269,128.966681 456.798269,124.701182 L456.798269,124.554096 C456.798269,119.994426 460.328336,118.523564 468.712247,117.199789 L500.041596,112.345946 L500.041596,114.84641 C500.041596,124.259924 488.715963,133.673438 471.212711,133.673438 Z M625.358995,150 L675.074113,100.137796 L675.074113,150 L707.874324,150 L707.874324,70.867652 L674.338682,70.867652 L624.623564,120.729856 L624.623564,70.867652 L591.823353,70.867652 L591.823353,150 L625.358995,150 Z M826.131588,152.206292 C876.729223,152.206292 881.877238,127.937078 881.877238,116.905617 L881.877238,116.611444 L848.19451,116.611444 C847.459079,119.700253 844.223184,131.172973 822.013176,131.172973 L821.571917,131.172973 C802.597804,131.172973 796.420186,120.58277 796.420186,109.992568 L796.420186,108.962965 C796.420186,98.9611064 802.450718,89.4005068 821.571917,89.4005068 L822.013176,89.4005068 C844.517356,89.4005068 847.459079,100.579054 848.19451,103.667863 L881.877238,103.667863 L881.877238,103.226605 C881.877238,92.636402 875.69962,68.6613598 826.278674,68.6613598 L817.894764,68.6613598 C772.739316,68.6613598 762.884544,90.8713682 762.884544,108.521706 L762.884544,111.463429 C762.884544,129.113767 772.886402,152.206292 818.04185,152.206292 L826.131588,152.206292 Z M950.419383,150 L950.419383,92.636402 L983.513767,92.636402 L983.513767,70.867652 L884.524789,70.867652 L884.524789,92.636402 L917.619172,92.636402 L917.619172,150 L950.419383,150 Z M1027.19835,150 L1076.91347,100.137796 L1076.91347,150 L1109.71368,150 L1109.71368,70.867652 L1076.17804,70.867652 L1026.46292,120.729856 L1026.46292,70.867652 L993.662711,70.867652 L993.662711,150 L1027.19835,150 Z M1127.51111,150 C1144.13184,150 1152.66284,142.939865 1155.60456,133.379265 C1157.95794,125.583699 1158.84046,114.699324 1158.84046,92.636402 L1190.61106,92.636402 L1190.61106,150 L1223.41128,150 L1223.41128,70.867652 L1129.42323,70.867652 C1129.42323,104.888678 1128.82753,112.460673 1127.85058,118.138346 L1127.78489,118.51432 C1127.71864,118.888027 1127.65071,119.25574 1127.58118,119.624735 L1127.51111,119.994426 L1127.51111,119.994426 C1126.33442,126.31913 1123.68687,128.23125 1119.42137,128.23125 L1117.65633,128.23125 L1117.65633,150 L1127.51111,150 Z M1304.60283,150 C1328.2837,150 1340.19768,135.732644 1340.19768,120.435684 L1340.19768,118.964823 C1340.19768,103.520777 1328.13661,91.4597128 1304.60283,91.4597128 L1269.15507,91.4597128 L1269.15507,70.867652 L1236.35486,70.867652 L1236.35486,150 L1304.60283,150 Z M1296.36601,129.849198 L1269.15507,129.849198 L1269.15507,111.610515 L1296.36601,111.610515 C1303.42614,111.610515 1306.80912,115.581841 1306.80912,120.288598 L1306.80912,121.024029 C1306.80912,125.583699 1303.42614,129.849198 1296.36601,129.849198 Z" id="модаистиль" stroke="#000000" stroke-width="0.8" fill-opacity="0" fill="#000000" fill-rule="nonzero"></path> </g> </g> </g> </svg> 