<?xml version="1.0" encoding="UTF-8"?> <svg xmlns="http://www.w3.org/2000/svg" xmlns:xlink="http://www.w3.org/1999/xlink" width="59px" height="25px" viewBox="0 0 59 25"> <title>стиль</title> <g id="Faculty" stroke="none" stroke-width="1" fill="none" fill-rule="evenodd"> <g id="Group-5-Copy-3" transform="translate(-109.000000, -192.000000)" fill="#000000" fill-rule="nonzero"> <path d="M118.974652,214.810255 C119.205976,214.503563 119.373621,214.179977 119.519175,213.836896 L117.576352,213.144215 C117.484081,213.337847 117.411305,213.509387 117.296942,213.683526 C116.762818,214.489243 115.831034,214.944077 114.832977,215.006445 C113.814128,215.070112 112.853762,214.733518 112.223487,214.000564 C111.593212,213.26761 111.341109,212.239662 111.25535,211.201319 C111.211176,210.160377 111.333345,209.109041 111.867469,208.303324 C112.400294,207.476814 113.311285,207.02328 114.331434,206.980405 C115.328191,206.897244 116.30935,207.232539 116.940924,207.986286 C117.076076,208.144832 117.191734,208.325471 117.307392,208.50611 L119.128075,207.578249 C118.961735,207.254659 118.733017,206.934967 118.464013,206.638666 C117.390595,205.495049 115.833737,204.966115 114.211895,205.067463 C112.610845,205.167512 111.129349,205.844563 110.188459,207.155802 C109.326843,208.399464 109.042226,209.857559 109.134479,211.333851 C109.225433,212.78935 109.690658,214.221462 110.699099,215.327391 C111.773816,216.491801 113.331974,217.041528 114.951217,216.898594 C116.554865,216.840131 118.053256,216.099402 118.974652,214.810255 Z M128.375391,215.001061 L126.670343,205.718828 L130.481591,205.018742 L130.154132,203.236062 L120.54405,205.001332 L120.871509,206.784012 L124.682757,206.083926 L126.387805,215.366159 L128.375391,215.001061 Z M137.433067,212.92973 L140.475302,203.584649 L142.877906,211.215372 L144.825331,210.602208 L141.446669,199.871503 L139.737705,200.409586 L136.651672,209.615566 L134.292865,202.123944 L132.345441,202.737108 L135.724103,213.467813 L137.433067,212.92973 Z M149.85602,204.389302 L148.154376,199.092427 L151.763427,197.41653 L155.738198,205.976216 L157.476589,205.168978 L152.738452,194.965378 L145.86047,198.159234 L148.007604,204.811201 C148.504393,206.326233 148.739299,207.227832 147.397714,207.850809 L148.161081,209.494722 C150.580405,208.669896 150.643055,206.826174 149.85602,204.389302 Z M166.016544,200.293368 C166.794234,199.808102 167.419784,199.000308 167.65013,198.070766 C167.862802,197.152253 167.662595,196.123022 167.155272,195.309983 C166.647948,194.496944 165.811451,193.864748 164.892938,193.652076 C163.945721,193.432759 162.956222,193.657286 162.178533,194.142552 L159.438945,195.852011 L157.321422,192.458457 L155.589295,193.539277 L161.544831,203.083646 L166.016544,200.293368 Z M164.931199,198.711405 L162.26231,200.376749 L160.453592,197.478089 L163.122481,195.812745 C163.511325,195.570112 163.968462,195.554987 164.410044,195.672352 C164.822922,195.783071 165.173867,196.030661 165.405471,196.401831 C165.637075,196.773001 165.716252,197.214726 165.616562,197.645279 C165.545576,198.082478 165.302369,198.479801 164.931199,198.711405 Z" id="стиль"></path> </g> </g> </svg> 