<?xml version="1.0" encoding="UTF-8"?> <svg xmlns="http://www.w3.org/2000/svg" xmlns:xlink="http://www.w3.org/1999/xlink" width="54px" height="24px" viewBox="0 0 54 24"> <title>мода</title> <g id="Faculty" stroke="none" stroke-width="1" fill="none" fill-rule="evenodd"> <g id="Group-5-Copy-2" transform="translate(-41.000000, 0.000000)" fill="#000000" fill-rule="nonzero"> <path d="M48.3807487,22.9521924 L45.4136828,16.7734829 L50.696474,20.3148367 L51.8420706,19.764712 L52.3623834,13.4366611 L55.3294493,19.6153706 L57.169916,18.7315637 L52.2811795,8.59923525 L50.6472958,9.3838393 L49.9522087,17.3211441 L43.3229897,12.9010299 L41.6703258,13.6946524 L46.540282,23.8359993 L48.3807487,22.9521924 Z M64.5748557,16.5573733 C66.1679464,16.0676187 67.4042783,15.0554662 68.0127304,13.5606735 C68.5598938,12.1501095 68.5142916,10.725615 68.0673906,9.27191976 C67.6327334,7.85805182 66.8779103,6.60799762 65.6068111,5.73461578 C64.2897627,4.85356417 62.6386179,4.72909178 61.0853545,5.20660248 C59.5320911,5.68411317 58.2283485,6.7605807 57.6612716,8.17726665 C57.121778,9.54188147 57.1658322,11.0322389 57.6127333,12.4859341 C58.0473905,13.899802 58.8022136,15.1498562 60.0671908,16.0033244 C61.3842392,16.884376 63.0215924,17.034884 64.5748557,16.5573733 Z M64.011638,14.725319 C63.03587,15.0252937 62.0035262,14.9285436 61.2393466,14.3570313 C60.4552534,13.791641 59.9699341,12.8510567 59.6638375,11.8553751 C59.3577409,10.8596934 59.224745,9.78900075 59.5558153,8.88078223 C59.8669719,7.97868565 60.6728042,7.33863138 61.6485722,7.03865671 C62.6243403,6.73868204 63.6505622,6.81551857 64.4346554,7.38090889 C65.2187486,7.94629921 65.7101898,8.90679711 66.0162864,9.90247876 C66.322383,10.8981604 66.4492569,11.9489394 66.1181867,12.857158 C65.7871164,13.7653765 64.987406,14.4253444 64.011638,14.725319 Z M73.0509089,15.499072 L72.8188719,14.0382133 L80.4935241,12.8192018 L80.7255611,14.2800605 L82.6185048,13.9793928 L82.0858001,10.6255903 L81.1187527,10.7791923 L79.6546317,1.5613795 L72.0417059,2.77058661 L72.2764562,8.3655504 C72.4005516,11.4045525 71.4894304,12.3086759 70.6252604,12.4459373 L71.1579652,15.7997397 L73.0509089,15.499072 Z M79.2052335,11.0831282 L73.5881289,11.9753269 C74.0704332,11.1604096 74.2241286,9.87032294 74.1641983,8.29774917 L73.9926465,4.29593463 L78.0254396,3.65538167 L79.2052335,11.0831282 Z M90.7325168,11.8167079 C91.433268,11.4477603 92.169122,10.7655064 92.5074805,10.00824 L92.5524902,12.1536088 L94.343769,12.1160278 L94.1956301,5.05505681 C94.1820835,4.4093633 94.0209872,3.6834134 93.6733054,3.00305404 C92.8047565,1.33339888 91.1023273,0.63978608 89.0402738,0.683047866 C87.2906526,0.719754836 85.8244788,1.35481684 84.8526625,2.70883693 L84.5702358,3.15236004 L86.4427915,4.00910753 C86.502656,3.88282362 86.6041782,3.75566575 86.6853086,3.64977368 C87.2328292,2.92979502 88.0802561,2.59944618 89.038382,2.57934474 C89.8086115,2.54234738 90.5832108,2.71363824 91.1755946,3.13880787 C91.6829151,3.48241015 92.0071462,4.03823356 92.1031341,4.64052148 L89.9434913,4.99840055 C88.2407717,5.28417942 87.0969344,5.39152904 85.9032832,6.10422549 C84.8541229,6.75137656 84.2307157,7.82719316 84.256061,9.0352649 C84.2735405,9.86841782 84.536159,10.4672098 85.0300796,11.1653391 C85.6511579,11.9649906 86.8089789,12.5241633 87.9554381,12.5417866 C88.914438,12.5633428 89.867757,12.3141243 90.7325168,11.8167079 Z M88.2081497,10.6819035 C87.1029111,10.6425774 86.2726705,9.80563818 86.2737981,8.86790415 C86.2651775,7.53296592 87.7858455,7.15415236 89.3327173,6.86205951 L89.6894687,6.79579717 L89.6894687,6.79579717 C90.851513,6.56303762 91.5783368,6.44359894 92.2218454,6.3259082 C92.236703,7.03408819 92.2502496,7.6797817 91.8914993,8.45831394 C91.3592733,9.9073014 89.6258207,10.7146748 88.2081497,10.6819035 Z" id="мода"></path> </g> </g> </svg> 