<svg width="74" height="114" viewBox="0 0 74 114" fill="none" xmlns="http://www.w3.org/2000/svg">
<path d="M45.5399 60.9012C50.5709 54.2843 55.9815 48.7204 61.5262 40.4957C62.0981 39.6475 48.4194 39.7382 37.3333 39.7382C51.2509 24.5817 53.564 21.5804 60.2191 15.9543C67.4782 9.81779 75.6895 0.871094 72.8652 0.871094C70.9824 0.871094 61.4693 1.21532 44.3259 1.90376C28.163 22.8172 28.1629 22.8172 10.8962 44.3289C9.75275 45.7534 6.64944 49.172 8.46759 49.3035C18.1174 50.0015 25.9555 50.0015 35.3008 50.4222C36.1525 50.4606 34.5105 52.3022 34.0098 52.9954C31.1398 56.9692 26.6415 64.7225 24.2321 68.994C19.7055 77.0184 3.67656 103.169 1.50061 112.083C1.07418 113.83 2.80909 112.401 4.79645 110.44C6.29742 108.959 7.94243 107.175 8.909 106.225C11.995 103.191 29.6184 81.3275 40.3114 67.6599" stroke="black"/>
</svg>
