<svg width="66" height="62" viewBox="0 0 66 62" fill="none" xmlns="http://www.w3.org/2000/svg">
<path d="M1.56569 59.6943C28.8258 65.6017 8.80804 41.3918 2.85768 45.2322C-5.06162 50.3433 16.8482 60.9508 27.5044 54.076C45.6351 42.379 15.8772 25.2839 5.34472 29.2345C3.69869 29.8519 3.64152 31.3285 3.69869 32.5675C4.34608 46.5979 40.5752 52.9316 44.9085 36.7623C48.2281 24.3759 28.7966 13.2904 16.1501 10.4611C13.0861 9.77567 9.53786 9.23168 7.95252 10.4611C6.36717 11.6906 5.63362 14.4162 9.53786 17.7297C13.4421 21.0432 17.7174 23.4233 22.1997 25.8754C33.1685 31.8759 39.8975 32.0213 46.9153 30.6279C53.9332 29.2345 62.1136 20.834 63.477 17.2465C65.4441 12.0706 65.7221 6.01779 64.1711 0.62793" stroke="black"/>
</svg>
