<svg width="58" height="76" viewBox="0 0 58 76" fill="none" xmlns="http://www.w3.org/2000/svg">
<path fill-rule="evenodd" clip-rule="evenodd" d="M29.5 45.4996C34 45.4996 42.5 38.4996 42.5 24.9996C42.5 23.9255 42.5 22.8514 42.5 21.7772C42.5 21.225 42.0523 20.7772 41.5 20.7772C41.3406 20.7772 41.1836 20.8153 41.0419 20.8883C38.9576 21.9625 36.4436 22.4996 33.5 22.4996C29.5616 22.4996 24.0848 20.4485 20.3744 18.1823C18.9033 17.2837 17 18.7083 17 19.9996C17 21.9266 17 23.6046 17 25.9996C17 39.9996 25 45.4996 29.5 45.4996Z" stroke="black"/>
<path d="M20 39C16.5 39 9.5 32.6667 9.5 20.5278C9.5 8.38889 20 1 30 1C40 1 49.5 9.44445 49.5 20.5278C49.5 31.6111 41.5 39 38.5 39" stroke="black"/>
<path d="M24 48L7.5 55C3.16667 57 1 59.8333 1 63.5C1 69 6 75.5 29.5 75.5" stroke="black"/>
<path d="M35.069 48.2412L51 54.9998C55.3333 56.9998 57.5 59.8331 57.5 63.4998C57.5 68.9998 52.5 75.4998 29 75.4998" stroke="black"/>
<path d="M24 43.5V49.9624C24 50.6346 24.2258 51.2873 24.641 51.8159L27.9274 55.9985C28.6098 56.867 29.8671 57.0179 30.7356 56.3355C30.861 56.237 30.9741 56.1238 31.0726 55.9985L34.359 51.8159C34.7742 51.2873 35 50.6346 35 49.9624V43" stroke="black"/>
<path d="M14.9996 52L13.8441 56.2369C13.6988 56.7697 14.0129 57.3194 14.5457 57.4648C14.6315 57.4882 14.72 57.5 14.8088 57.5H18.6001C20.4566 57.5 22.2371 58.2375 23.5498 59.5503L29.4996 65.5L35.4493 59.5503C36.7621 58.2375 38.5426 57.5 40.3991 57.5H44.2188C44.7711 57.5 45.2188 57.0523 45.2188 56.5C45.2188 56.4182 45.2088 56.3368 45.189 56.2575L44.2099 52.3411" stroke="black"/>
<path d="M29.5 65.5V75.5" stroke="black"/>
</svg>
