<svg width="111" height="299" viewBox="0 0 111 299" fill="none" xmlns="http://www.w3.org/2000/svg">
<path fill-rule="evenodd" clip-rule="evenodd" d="M68.1982 0.62793C74.8256 0.62793 80.1982 6.00051 80.1982 12.6279C80.1982 16.5729 78.2946 20.0732 75.3559 22.2605L75.2989 22.2597C77.4116 23.4766 78.6934 25.4067 79.1443 28.0499V35.4427C79.1443 40.5779 84.4533 45.6077 88.0465 46.671C90.4419 47.3799 94.9796 49.0322 101.659 51.6279C104.313 51.8844 106.156 53.1028 107.19 55.2833L107.34 55.6L107.638 56.2325C109.017 59.178 110.238 62.0003 110.238 63.1562C110.238 64.436 106.604 69.029 104.471 73.2488C103.048 76.0621 101.286 80.2821 99.184 85.9089H37.0912C34.9894 80.2821 33.2272 76.0621 31.8047 73.2488C29.6708 69.029 26.0376 64.436 26.0376 63.1562C26.0376 62.0003 27.2582 59.178 28.6375 56.2325L28.9351 55.6C28.9849 55.4944 29.0349 55.3889 29.0849 55.2833C30.119 53.1028 31.9626 51.8844 34.6157 51.6279C41.2956 49.0322 45.8333 47.3799 48.2287 46.671C51.7565 45.627 56.9384 40.7594 57.1256 35.7227L57.1308 35.4427V28.0499C57.5845 25.3913 58.8786 23.4542 61.0133 22.2385C58.0901 20.0517 56.1982 16.5608 56.1982 12.6279C56.1982 6.00051 61.5708 0.62793 68.1982 0.62793Z" fill="#20ABFF"/>
<path fill-rule="evenodd" clip-rule="evenodd" d="M64.1631 21.0852C65.1616 20.872 66.2638 20.7478 67.4697 20.7126L68.0769 20.7021C69.5929 20.7021 70.9556 20.8336 72.1652 21.0966" fill="#7835FF"/>
<path d="M64.1631 21.0852C65.1616 20.872 66.2638 20.7478 67.4697 20.7126L68.0769 20.7021C69.5929 20.7021 70.9556 20.8336 72.1652 21.0966" stroke="black" stroke-width="1.3"/>
<path fill-rule="evenodd" clip-rule="evenodd" d="M42.385 48.5666L41.1205 47.7344C34.694 49.6005 30.407 51.7745 28.2593 54.2563C30.2732 56.2641 33.6004 59.132 34.6158 62.0345C34.8224 62.6249 37.8371 66.8565 38.431 71.9302C39.0249 77.0039 36.5771 82.5081 37.0913 85.1818C37.3067 86.3021 36.5077 86.787 36.4317 86.9634C37.0913 89.6247 37.8766 91.9358 39.6691 95.1237C41.3589 98.129 45.5552 104.894 46.0367 114.002C46.0524 114.298 45.7466 118.836 46.0367 118.828C46.2254 118.823 44.1909 127.067 42.4304 130.886C40.737 134.56 38.7636 137.973 37.1935 141.229C33.7123 148.448 29.4864 160.571 31.0861 188.968C32.1526 207.9 33.1503 221.395 34.0792 229.454C41.6783 234.503 53.0513 237.028 68.1983 237.028C68.1983 228.403 68.1983 206.628 68.1983 171.705L81.9726 166.431C96.7545 159.231 104.145 155.43 104.145 155.028C104.145 154.626 103.345 151.713 101.744 146.29L95.7983 133.574L90.6881 120.763V118.357L90.1983 114.002L92.6822 104.196L97.3529 94.1442L100.044 86.9634L99.384 85.909C98.03 79.3628 97.3529 76.0897 97.3529 76.0897C97.3529 76.0897 98.03 73.7147 99.384 68.9648C100.39 66.2561 101.177 64.3176 101.744 63.1495C102.311 61.9814 103.111 60.6494 104.145 59.1536L107.39 55.2834L108.216 54.2563L101.744 50.155L95.3548 47.7344L94.5768 48.5666C89.2821 51.798 85.0872 53.8938 81.9921 54.854C78.897 55.8142 74.2991 56.4464 68.1983 56.7504C61.9924 56.4174 57.4207 55.7853 54.4832 54.854C51.5458 53.9227 47.513 51.8269 42.385 48.5666Z" fill="white"/>
<path fill-rule="evenodd" clip-rule="evenodd" d="M85.3625 165.057L68.5982 171.705C68.3562 187.363 68.2228 197.817 68.1982 203.067C81.3854 203.067 93.0385 200.795 103.641 196.268C103.641 188.869 104.145 180.311 104.145 173.854C104.145 167.397 103.256 159.903 102.298 156.302C99.7642 157.681 94.119 160.599 85.3625 165.057Z" fill="#20ABFF"/>
<path fill-rule="evenodd" clip-rule="evenodd" d="M30.7334 297.663V295.175C30.7334 292.828 33.3292 290.567 35.8804 290.567H47.0204C52.2541 290.567 62.161 285.153 62.161 280.227C62.161 276.943 64.1851 276.326 68.2334 278.375V278.335C72.2817 276.312 74.3058 276.943 74.3058 280.227C74.3058 285.153 84.2127 290.567 89.4464 290.567H100.586C103.138 290.567 105.733 292.828 105.733 295.175V297.663H30.7334Z" fill="white" stroke="black" stroke-width="1.3"/>
<path fill-rule="evenodd" clip-rule="evenodd" d="M68.2335 272.228C71.5872 272.228 74.3059 274.946 74.3059 278.3V280.228H62.1611V278.3C62.1611 274.946 64.8798 272.228 68.2335 272.228Z" fill="white" stroke="black" stroke-width="1.3"/>
<path d="M68.1983 56.7504C56.7443 56.7504 47.7183 53.745 41.1205 47.7344C34.694 49.6005 30.407 51.7745 28.2593 54.2563C30.2732 56.2641 33.0294 58.7232 34.6899 62.0781C36.3504 65.433 37.7164 68.2084 38.3371 72.6536C38.9579 77.0988 38.1735 82.9242 36.4317 86.9634C37.0913 89.6247 37.8766 91.9358 39.6691 95.1237C41.4615 98.3116 46.138 106.225 46.138 116.123C46.138 126.021 40.6746 134.01 37.1935 141.229C33.7123 148.448 29.4864 160.571 31.0861 188.968C32.1526 207.9 33.1503 221.395 34.0792 229.454C41.6783 234.503 53.0513 237.028 68.1983 237.028C68.1983 228.403 68.1983 206.628 68.1983 171.705" stroke="black" stroke-width="1.3"/>
<path d="M37.0913 53.208C41.8985 60.5288 49.4183 69.7631 52.2334 96.0461C54.1101 113.568 54.8127 138.818 54.3413 171.797L53.8061 233.974" stroke="black" stroke-width="1.3" stroke-dasharray="3 5"/>
<path d="M40.8071 81.2828C45.7873 80.3201 57.2457 79.0215 68.1983 79.0215" stroke="black" stroke-width="1.3" stroke-dasharray="3 5"/>
<path d="M68.1982 57.8457V171.705" stroke="black" stroke-width="1.3" stroke-dasharray="3 5"/>
<path d="M68.1982 237.027V272.228" stroke="black" stroke-width="1.3"/>
<path d="M95.186 47.0088L94.9167 47.2541C88.5675 53.0382 79.9059 55.9902 68.902 56.0975L68.2767 56.1006V57.4006C79.6681 57.4006 88.7246 54.4553 95.416 48.5524L95.5183 48.4606L95.7094 48.5167C101.196 50.1559 105.013 52.0209 107.151 54.079L107.31 54.2376L106.464 55.0689C106.28 55.2498 106.11 55.419 105.949 55.5805L105.273 56.2705C105.202 56.3446 105.131 56.4184 105.061 56.4925C103.362 58.2886 102.114 59.9475 101.203 61.7899L100.751 62.7101L100.338 63.5683L99.9621 64.3723C99.9024 64.5022 99.8441 64.6302 99.7872 64.7563L99.4622 65.4933L99.1683 66.195C98.2843 68.3694 97.834 70.1292 97.494 72.5639C96.8804 76.9584 97.5998 82.6534 99.2644 86.7845L99.3603 87.0126L99.2808 87.3254C98.6167 89.8772 97.8488 91.8635 96.5139 94.3096L95.4071 96.2885L94.9449 97.1379C94.3614 98.2282 93.8282 99.2983 93.3231 100.415C91.0268 105.491 89.6869 110.684 89.6869 116.123C89.6869 122.104 91.3219 127.093 95.066 134.456L95.8619 135.997L97.4219 138.978L97.9506 140.008L98.5565 141.224L98.696 141.512C100.608 145.476 102.014 149.463 103.09 154.598L103.15 154.89L103.13 154.904C101.023 156.362 98.5292 157.857 95.6481 159.388L94.6152 159.93C94.4404 160.02 94.2642 160.111 94.0867 160.202L93.0057 160.748L91.8925 161.297L90.7471 161.85C90.5536 161.942 90.3587 162.035 90.1624 162.127L88.969 162.684L87.7434 163.244L86.4857 163.807L85.1959 164.373C84.9782 164.467 84.7592 164.562 84.5389 164.657L83.201 165.227L81.8309 165.8C81.5999 165.896 81.3676 165.992 81.1339 166.088L79.7157 166.666C79.4767 166.762 79.2363 166.859 78.9946 166.956L77.5283 167.538L76.0299 168.123C75.7775 168.221 75.5238 168.319 75.2687 168.417L73.7222 169.006L72.1437 169.599L70.533 170.194L68.8904 170.793L68.057 171.093L68.4963 172.317L70.1653 171.713L71.8021 171.112C72.0722 171.012 72.341 170.913 72.6085 170.813L74.1972 170.217L75.7538 169.623L77.2783 169.032L78.7707 168.445L80.231 167.86L81.6592 167.278C81.8946 167.181 82.1286 167.084 82.3613 166.988L83.7414 166.41L85.0895 165.835C85.3115 165.739 85.5322 165.644 85.7515 165.549L87.0514 164.978C87.2654 164.883 87.4781 164.788 87.6894 164.694L88.9412 164.127L90.161 163.564L91.3487 163.003C91.7393 162.817 92.1245 162.631 92.5044 162.445L93.628 161.89C93.8126 161.798 93.9959 161.706 94.1778 161.614L95.2534 161.063C95.9597 160.697 96.6447 160.332 97.3084 159.97L98.2878 159.428C100.375 158.255 102.237 157.103 103.874 155.971L104.593 155.466L104.51 155.051C103.393 149.459 101.911 145.186 99.8669 140.947L99.4294 140.055L98.9415 139.09L96.7969 134.979L96.2319 133.88C96.0488 133.52 95.8709 133.166 95.6981 132.818L95.1951 131.788C94.7887 130.944 94.414 130.131 94.0701 129.344L93.6721 128.411C91.8189 123.957 90.9869 120.278 90.9869 116.123C90.9869 110.889 92.2818 105.871 94.5075 100.951C94.9999 99.8622 95.5204 98.8175 96.091 97.7514L96.5453 96.9165L97.3724 95.4425C98.9353 92.6629 99.8022 90.4821 100.538 87.6575L100.727 86.9074L100.64 86.7062C98.9411 82.7663 98.1788 77.06 98.7816 72.7437C99.1748 69.9277 99.7192 68.065 100.99 65.2523L101.338 64.4958C101.399 64.3657 101.461 64.2335 101.525 64.099L101.927 63.2637L102.368 62.3666C103.214 60.657 104.387 59.096 106.006 57.386L106.422 56.9519L106.872 56.4963L108.675 54.7168L109.104 54.2892L108.707 53.8312C106.521 51.305 102.314 49.1322 96.0754 47.2693L95.186 47.0088Z" fill="black"/>
<path d="M99.3838 53.208C94.5766 60.5288 87.0568 69.7631 84.2417 96.0461C82.4682 112.605 81.7432 136.067 82.0667 166.431" stroke="black" stroke-width="1.3" stroke-dasharray="3 5"/>
<path d="M95.668 81.2828C90.6878 80.3201 79.2294 79.0215 68.2768 79.0215" stroke="black" stroke-width="1.3" stroke-dasharray="3 5"/>
<path fill-rule="evenodd" clip-rule="evenodd" d="M92.7981 113.428C93.3504 113.428 93.7981 113.875 93.7981 114.428V118.028C93.7981 118.58 93.3504 119.028 92.7981 119.028H46.0695L45.4015 123.264L43.1981 128.902C38.7852 134.118 35.1073 137.917 32.1643 140.299C22.2427 148.328 12.0425 152.987 1.56375 154.273C1.0992 154.33 0.168457 154.33 0.168457 153.297V150.254C0.168457 149.314 0.898652 149.131 1.25505 149.08C13.7937 147.286 19.224 143.367 25.032 139.601C34.7756 133.281 40.5981 124.332 42.1389 119.028C42.3364 118.348 42.5559 117.809 42.7976 117.409L42.7981 114.428C42.7981 113.875 43.2458 113.428 43.7981 113.428H92.7981Z" fill="#20ABFF"/>
<path d="M48.1982 113.628V116.828" stroke="black" stroke-width="1.3"/>
<path d="M58.1982 113.628V116.828" stroke="black" stroke-width="1.3"/>
<path d="M68.1982 113.628V116.828" stroke="black" stroke-width="1.3"/>
<path d="M78.1982 113.628V116.828" stroke="black" stroke-width="1.3"/>
<path d="M88.1982 113.628V116.828" stroke="black" stroke-width="1.3"/>
<path d="M4.5752 148.908L5.15475 152.081" stroke="black" stroke-width="1.3"/>
<path d="M12.7119 146.291L13.7019 149.315" stroke="black" stroke-width="1.3"/>
<path d="M20.3979 142.828L21.8833 145.174" stroke="black" stroke-width="1.3"/>
<path d="M27.7461 137.732L29.9806 140.115" stroke="black" stroke-width="1.3"/>
<path d="M33.6001 132.57L35.631 134.578" stroke="black" stroke-width="1.3"/>
<path d="M38.0054 127.078L41.063 128.903" stroke="black" stroke-width="1.3"/>
</svg>
