<svg width="144" height="161" viewBox="0 0 144 161" fill="none" xmlns="http://www.w3.org/2000/svg">
<path d="M50.1782 1.50195C57.6045 2.73392 64.9037 3.3499 72.0758 3.3499C79.2478 3.3499 86.3351 2.73392 93.3377 1.50195" stroke="black" stroke-width="1.3"/>
<path fill-rule="evenodd" clip-rule="evenodd" d="M94.4753 0.730155L119.98 14.018C123.576 15.891 126.372 19.0008 127.855 22.7739L142.915 61.1059C143.618 62.8963 142.789 64.9234 141.033 65.7087L121.72 74.3449C119.904 75.1565 117.775 74.3431 116.964 72.5281C116.939 72.4737 116.916 72.4188 116.895 72.3633L110.555 56.0593C111.257 112.685 112.4 144.267 113.984 150.805C115.553 157.284 101.584 160.558 72.0754 160.627C71.9394 160.628 71.8033 160.628 71.6675 160.628L71.2607 160.628C41.7525 160.558 27.7833 157.283 29.3527 150.805C30.9365 144.267 32.0796 112.685 32.782 56.0593L26.4418 72.3633C26.4202 72.4188 26.3973 72.4737 26.373 72.5281C25.5614 74.3431 23.4321 75.1565 21.617 74.3449L2.30314 65.7087C0.547032 64.9234 -0.281444 62.8963 0.421994 61.1059L15.482 22.7739C16.9643 19.0008 19.761 15.891 23.3562 14.018L48.8613 0.730155C50.0544 0.108554 51.5154 0.357251 52.4357 1.33859C57.1637 6.38033 63.7104 8.9012 72.0758 8.9012L71.6679 8.89824L71.7922 8.89777C79.9039 8.79278 86.2734 6.27306 90.9008 1.33859C91.8211 0.357251 93.2821 0.108554 94.4753 0.730155Z" fill="#A68A73"/>
<path d="M51.0364 64.2809C51.0322 63.8315 51.5244 63.6764 52.529 62.6427C53.5346 61.609 53.5356 61.6175 53.9529 61.6951C54.0553 61.7142 54.9648 62.0977 56.0475 62.5514C56.0537 61.6411 56.0593 60.8391 56.0609 60.1275L56.0605 59.2609C56.0448 55.1629 55.8036 54.481 54.4303 52.4513C54.2867 52.2378 54.8159 51.9095 54.9817 51.9116C55.1475 51.9138 59.1435 54.7514 59.1646 56.9048L59.1645 57.3523C59.1552 58.6049 59.0818 60.9846 59.0093 63.6902C64.2047 65.5085 69.6407 66.5372 75.1379 66.7424C76.4857 66.7807 77.4195 66.718 77.4195 66.3154C77.4195 65.9668 74.2257 64.4858 70.8638 63.0252L70.1901 62.7337C66.707 61.2327 63.2597 59.8356 63.187 59.8147C62.53 59.8912 61.1473 58.2519 61.049 56.7837C60.9436 55.2062 61.311 55.3129 61.7392 55.4302L61.8472 55.4588C61.9379 55.4811 62.0298 55.4979 62.1191 55.494C63.5926 55.4292 63.956 55.6321 64.0859 57.5869C67.6952 57.8928 70.2282 56.4236 72.5679 55.4972C71.3436 55.1554 69.9855 54.7582 68.6494 54.3316L68.0786 54.147C64.5726 52.9988 61.3759 51.6711 61.3649 50.6432C61.3564 49.8028 61.9553 49.0963 62.3599 48.1816C62.7021 47.4082 64.0151 47.0353 65.4305 46.9588C71.368 46.6369 77.9275 49.1282 77.9223 48.5705C77.9085 47.2159 67.4787 42.7986 61.6522 43.1141C60.6646 43.1683 62.3673 41.9582 62.3472 40.0279C62.3388 39.2279 63.4585 39.1004 64.3669 39.1323L65.2674 39.164C65.4174 39.1693 65.5675 39.1747 65.7176 39.1801L66.6175 39.2129L67.5161 39.2468C81.4307 39.7822 94.6088 40.8011 94.6681 46.6284C94.7089 50.6368 91.5062 52.9156 88.9795 53.0526C88.0606 53.1026 87.1384 52.837 86.3356 52.3483C86.3415 53.4724 86.3442 54.6671 86.3449 55.9227L86.3447 57.8504C86.3299 77.7775 85.9976 110.554 89.5753 121.774C89.6535 122.02 89.1897 122.315 89.0229 122.313C88.8581 122.312 84.334 119.453 84.0266 117.317C81.6806 101.043 83.5597 55.1381 83.5037 49.6668C83.4889 48.1806 83.2914 46.6635 82.7654 45.9634C82.6587 45.8221 82.646 45.3387 83.0432 45.344C83.0432 45.344 85.2033 45.7955 85.573 46.5286C85.573 46.5286 86.0188 49.3736 90.021 49.1558C91.0932 49.0985 93.2692 48.3378 93.2533 46.6911C93.2216 43.6357 85.7346 43.1927 69.943 42.7816C69.943 42.7816 79.9694 45.157 80.0137 49.5266C80.0264 50.7292 78.368 52.1369 77.6571 52.1294C72.2014 52.0678 64.7683 49.483 64.782 50.8461C64.7925 51.8869 71.5084 53.6941 74.6826 54.4903L75.1108 54.597C75.8477 54.7792 76.3083 54.8863 76.3083 54.8863C78.4673 55.3537 79.8532 57.5454 80.0655 59.1709C80.3634 61.4401 79.4803 63.5936 77.6624 64.4743C79.1381 65.3847 80.1521 66.2495 80.1521 66.9082C80.1711 68.677 78.3173 69.0117 78.1388 69.5322C78.0258 69.8616 76.6621 69.8223 75.7368 69.8117C73.9266 69.7892 72.118 69.691 70.3159 69.5174C74.7988 71.1088 80.2715 73.6968 80.2841 75.0417C80.2936 75.8821 79.6947 76.5482 79.2902 77.4363C78.9458 78.1874 77.6318 78.4732 76.2164 78.4573C70.2758 78.3893 63.7056 74.961 63.7109 75.5187C63.7172 76.0765 73.9918 82.9883 79.8225 83.0553C80.8102 83.0659 80.3972 83.9678 79.6641 85.7282C79.4391 86.2679 78.555 86.5016 77.6434 86.491C76.7265 86.4804 75.3439 86.3157 73.1489 85.9502C76.6452 87.7382 80.2683 90.1647 80.2958 92.8599C80.3053 93.8416 79.1138 94.2623 79.119 94.6979C79.1286 95.6806 77.3138 96.6654 74.3309 96.9203C77.4248 98.1856 80.488 99.7569 80.5007 101.032C80.5186 102.802 78.6659 103.135 78.4874 103.656C78.3744 103.985 74.9308 104.141 72.9883 103.993C76.3125 105.422 80.5883 107.174 80.6052 108.874C80.6232 110.644 79.5532 110.78 79.3757 111.301C79.1983 111.82 76.2861 112.198 76.2861 112.198C76.2861 112.198 80.8767 114.359 80.8978 116.507C80.9084 117.488 80.7426 117.709 80.0591 118.412C79.3747 119.116 79.1687 120.242 75.7959 120.242C67.1608 120.242 62.2194 114.829 62.1909 112.037C62.1634 109.37 64.576 109.742 64.576 109.742C62.4032 109.252 62.6757 106.032 63.1236 106.038C64.0521 106.048 68.5096 108.622 76.0674 108.707C77.2695 108.721 77.8758 108.685 77.8716 108.282C77.8652 107.617 74.8124 106.161 71.8661 104.859L71.3479 104.632C70.5742 104.293 69.8209 103.969 69.1466 103.677C61.6025 102.886 52.6008 99.6018 51.9765 98.7105C51.7156 98.5435 51.5596 98.2523 51.5646 97.9413C51.5572 97.2359 53.2747 93.797 55.8626 93.8256C56.9208 93.8381 60.1168 95.3762 63.3846 97.0758L64.0385 97.4175L64.6907 97.761C66.5325 98.7348 68.3089 99.702 69.6441 100.415C72.0303 100.856 77.767 101.182 77.767 100.439C77.767 100.044 75.7372 99.0891 73.5258 98.1657L73.0321 97.9612C72.9496 97.9273 72.867 97.8935 72.7844 97.8598L72.2903 97.6596C71.3878 97.2964 70.5119 96.9566 69.7878 96.6803C64.7313 95.6497 61.8075 92.2034 61.7821 89.6537C61.7737 88.9015 62.0103 88.3788 62.3293 88.0155C62.3694 87.377 62.8373 86.3688 65.0017 86.3688C68.6544 86.3688 72.3894 90.4409 72.626 93.5887C73.0402 93.5967 73.4544 93.591 73.8682 93.5717C77.2093 93.4156 77.6931 92.027 77.6899 91.7062C77.6666 89.5219 70.3582 86.0299 66.7625 84.7444C63.8334 84.1091 61.4927 83.4621 61.4895 83.1158C61.4768 81.9398 62.1835 81.8919 62.6166 81.5754C62.6597 81.5437 62.7023 81.5109 62.7445 81.4774L62.9948 81.2739C63.285 81.0382 63.5735 80.8269 63.9158 80.8306C64.1332 80.833 65.8382 81.1688 67.6656 81.5412L68.2162 81.6537C70.3301 82.087 72.4253 82.5294 72.4253 82.5294C72.4253 82.5294 61.6575 78.3627 61.6152 74.2173C61.6036 73.0158 63.2715 72.4803 63.9813 72.4878C64.6911 72.4963 76.8786 75.9777 76.8649 74.6147C76.8584 73.9637 73.1295 72.3973 69.2355 70.9385L68.5044 70.6665C64.4817 69.1801 60.5198 67.876 60.5198 67.876C59.9674 67.7421 59.434 67.6062 58.9196 67.468C58.8773 69.5365 58.853 71.5879 58.8699 73.3101C58.8858 74.7963 59.0822 76.3145 59.6083 77.0146C59.7149 77.1559 59.7276 77.6382 59.3305 77.6339C58.1284 77.3715 56.0855 75.9054 56.0559 72.9998C56.0338 70.8713 56.0247 68.7426 56.0285 66.6139C52.9145 65.5983 51.0396 64.6453 51.0364 64.2809ZM49.6685 119.785C49.6633 119.347 50.1661 119.197 51.1917 118.192C52.2174 117.187 52.4973 117.001 52.9272 117.007C53.0455 117.008 54.2645 117.422 56.2461 118.024C56.1933 109.193 56.4436 106.899 54.5951 104.408C54.444 104.205 54.9764 103.874 55.1454 103.873C55.3144 103.87 59.4488 106.544 59.5174 108.638C59.5612 109.993 59.4964 114.056 59.493 118.194L59.4931 118.97C65.1654 120.549 73.6749 122.517 81.6193 122.603C82.032 122.608 82.5343 122.598 83.0267 122.596L83.3926 122.596C84.2949 122.602 85.0751 122.657 85.0776 122.91C85.0808 123.146 84.8146 123.958 83.9822 124.62C83.9896 125.587 82.8372 125.576 80.8978 125.555L80.8176 125.556C73.7922 125.479 65.6999 124.17 59.5248 122.804C59.5364 123.43 59.5491 124.033 59.5681 124.598C59.7424 129.918 61.5497 132.342 62.0156 132.338C62.4824 132.333 63.5197 129.096 62.1381 126.622C60.7554 124.15 66.114 126.46 66.1626 127.922C66.265 131.072 63.4637 135.109 61.6522 135.128C59.8406 135.146 59.3389 132.822 59.3389 132.822C56.4679 131.368 56.5313 130.686 56.4288 127.546C56.3612 125.517 56.319 123.693 56.2915 122.042C52.2934 121.037 49.6717 120.122 49.6685 119.785ZM64.0682 111.479C64.0859 113.253 68.9057 116.359 76.5396 116.446C77.3603 116.455 78.3015 116.267 78.2983 115.946C78.2825 114.391 73.0116 111.585 68.8561 111.539C68.1558 111.53 67.1724 110.448 65.6365 110.43C64.1017 110.411 64.0679 111.484 64.0679 111.484L64.0682 111.479ZM68.2065 59.9687C69.1635 60.3575 70.431 60.8856 71.7831 61.489C71.9975 60.7528 72.6028 60.2184 73.5334 60.2184C74.6816 60.2184 75.178 61.0917 75.2097 61.7588C75.2329 62.2592 75.1421 62.698 75.1421 62.698C75.1421 62.698 78.2286 63.4183 78.2286 61.047C78.2286 59.4407 76.3178 58.6588 74.4492 58.8256C72.6704 58.985 70.4648 59.6394 68.2065 59.9687ZM63.3401 89.1947C63.1078 90.7246 66.3643 93.0437 71.2307 93.508C70.5483 89.9331 63.7257 88.0123 63.3401 89.1947ZM55.2236 96.1374C55.2236 96.5995 58.2298 98.0826 65.4295 99.5232C62.3842 97.9562 57.8464 95.9143 56.4299 95.7273C55.7465 95.6381 55.2236 95.8091 55.2236 96.1374Z" fill="white"/>
<path d="M1.30566 59.6279L23.4111 69.4972" stroke="black"/>
<path d="M142.206 59.3154L120.101 69.1847" stroke="black"/>
</svg>
