<svg width="269" height="239" viewBox="0 0 269 239" fill="none" xmlns="http://www.w3.org/2000/svg">
<path fill-rule="evenodd" clip-rule="evenodd" d="M99.5196 159.922H131.265H133.5L137.667 155.887L141.644 159.288L147.147 159.922L170.064 159.288L176.777 157.905L177.59 156.631L173.546 141.396L171.523 120.092L170.064 94.5813L171.523 88.2066L175.655 94.5813L177.59 105.724C179.86 126.765 180.994 137.285 180.994 137.285C180.994 137.285 181.768 146.065 183.317 163.623L184.274 177.53L191.065 179.389H196.125L202.979 177.53L202.119 152.32L197.578 112.461L193.331 88.9712L188.373 64.3207L183.317 50.5176L178.27 37.1472L149.137 25.8018H128.386L100.643 35.825V111.547L106.362 151.564L99.5196 159.922Z" fill="white"/>
<path d="M148.51 25.6694C145.76 21.5554 143.022 17.3828 138.435 17.3828" stroke="black" stroke-width="1.3"/>
<path d="M128.386 25.7046C131.144 21.5792 133.884 17.3828 138.485 17.3828" stroke="black" stroke-width="1.3"/>
<path d="M142.792 2.63427C141.769 1.84147 140.528 1.0918 139.086 1.0918C136.025 1.0918 133.607 3.03472 133.607 7.07244C133.607 9.76426 135.179 12.131 138.324 14.1726V17.3826" stroke="black" stroke-width="1.3"/>
<path fill-rule="evenodd" clip-rule="evenodd" d="M138.576 84.1677C137.178 89.7249 137.391 91.7907 139.217 90.3653C141.015 88.7407 143.331 84.3311 146.165 77.1363C150.416 66.3442 158.187 41.788 158.798 38.4084C159.409 35.0287 158.583 34.6291 156.781 33.243C155.58 32.3189 152.764 29.8385 148.332 25.8018C143.226 59.1552 139.974 78.6105 138.576 84.1677Z" stroke="black" stroke-width="1.3"/>
<path d="M137.447 90.415C135.649 88.7795 133.333 84.3401 130.499 77.0967C126.248 66.2316 118.477 41.5094 117.866 38.1069C117.255 34.7044 118.081 34.3021 119.883 32.9066C121.084 31.9762 123.9 29.4791 128.332 25.415C133.438 58.994 136.69 78.5808 138.088 84.1756C138.159 84.4585 138.225 84.7325 138.288 84.9974" stroke="black" stroke-width="1.3"/>
<path d="M148.332 25.6689C161.573 30.5335 178.27 37.1471 178.27 37.1471C178.27 37.1471 188.266 60.3771 190.834 74.7152C193.401 89.0534 199.465 114.294 201.096 138.873C202.183 155.259 202.811 168.217 202.979 177.748C199.557 178.842 196.446 179.389 193.648 179.389C190.85 179.389 187.773 178.842 184.417 177.748C181.169 136.229 178.863 112.045 177.498 105.196C175.449 94.9227 173.816 89.6245 171.951 88.3354C170.708 87.4761 170.179 94.2621 170.364 108.694C171.029 122.548 171.361 129.96 171.361 130.93C171.361 131.047 171.395 131.293 171.46 131.647M172.483 135.945L173.491 140.528C175.081 147.056 177.052 154.71 177.498 156.015C178.012 157.523 176.388 158.58 172.624 159.187C154.937 159.677 145.33 159.922 143.804 159.922C142.278 159.922 140.557 158.912 138.64 156.893C136.941 155.828 136.091 153.703 136.091 150.518C136.091 147.333 136.091 134.982 136.091 113.464V94.5252L137.667 90.8016" stroke="black" stroke-width="1.3"/>
<path d="M114.823 159.525C124.663 159.79 130.144 159.922 131.265 159.922C132.791 159.922 134.513 158.913 136.429 156.894C136.964 156.491 137.338 156.156 137.551 155.888" stroke="black" stroke-width="1.3"/>
<path d="M128.386 25.7041C108.522 33.4511 98.5897 37.3246 98.5897 37.3246C98.5897 37.3246 98.164 38.3138 97.4658 40.01" stroke="black" stroke-width="1.3"/>
<path d="M172.982 53.0107C170.662 62.2713 168.935 81.6292 170.959 88.9712" stroke="black" stroke-width="1.3"/>
<path d="M144.649 48.8281H131.807" stroke="black" stroke-width="1.3"/>
<path d="M114.785 49.4002C114.444 46.5502 113.039 43.2149 107.878 40.7925L106.362 40.0104M96.2955 35.7704C94.2076 34.7822 92.1547 33.6701 90.1176 32.2702C84.4564 28.3799 81.8818 17.3828 74.4351 17.3828" stroke="black" stroke-width="1.3"/>
<path d="M34.0352 51.2237C34.0352 48.0876 34.7263 43.7567 41.0418 40.7925L42.424 40.0104M52.5078 35.8254C54.6358 34.8234 56.7271 33.6961 58.8021 32.2702C64.4632 28.3799 67.0379 17.3828 74.4846 17.3828" stroke="black" stroke-width="1.3"/>
<path d="M78.8188 2.65518C77.7905 1.85471 76.5406 1.0918 75.0855 1.0918C72.0246 1.0918 69.6071 3.03472 69.6071 7.07244C69.6071 9.76426 71.1794 12.131 74.3238 14.1726V17.3826" stroke="black" stroke-width="1.3"/>
<path d="M114.885 48.8281H34.0353" stroke="black" stroke-width="1.3"/>
<path fill-rule="evenodd" clip-rule="evenodd" d="M74.4352 238.368L76.5248 238.361C80.1684 238.338 83.6884 238.255 87.0848 238.114L89.1078 238.022L91.1012 237.916C118.8 236.333 137.778 230.594 148.035 220.7C145.337 208.922 142.595 198.012 139.809 187.971L138.972 184.984C128.072 146.5 116.5 135.221 104.257 123.148L104.21 121.832L104.172 120.545L104.143 119.288C104.139 119.081 104.136 118.875 104.133 118.67L104.119 117.457C104.115 117.057 104.114 116.663 104.114 116.273L104.119 115.119C104.12 114.929 104.122 114.741 104.125 114.553L104.144 113.443L104.173 112.363L104.211 111.312L104.259 110.291L104.316 109.299L104.383 108.337C104.395 108.179 104.407 108.022 104.42 107.866L104.501 106.948L104.592 106.06C104.608 105.914 104.624 105.77 104.641 105.627L104.746 104.782C104.947 103.261 105.197 101.889 105.494 100.666L105.661 100.013C106.262 97.7812 107.038 96.0911 107.99 94.9432L108.565 94.2417L109.113 93.5586C112.94 88.7236 114.628 85.106 114.628 78.1479C108.101 75.4073 105.356 70.7602 104.203 66.2009L104.072 65.6544C104.031 65.4724 103.992 65.2907 103.955 65.1094L103.852 64.5669C103.836 64.4767 103.821 64.3866 103.806 64.2967L103.722 63.7591C103.696 63.5806 103.671 63.4028 103.649 63.2259L103.587 62.6976L103.535 62.1752L103.492 61.6594L103.457 61.151L103.429 60.6506L103.408 60.1592L103.386 59.4403L103.374 58.7458L103.368 57.44L103.368 56.8293C103.368 54.1412 104.072 50.8567 104.963 47.7643L105.223 46.8867L105.49 46.0236C105.535 45.8812 105.58 45.7396 105.625 45.5988L105.898 44.7652L106.173 43.9563L106.58 42.7983L106.845 42.0692L107.226 41.0501L107.688 39.8517L107.99 39.0912C107.918 39.0218 107.833 38.9487 107.737 38.872L107.527 38.7138L107.285 38.5459C107.242 38.5171 107.197 38.4879 107.151 38.4583L106.86 38.276L106.536 38.0839L106.179 37.8822C106.117 37.8478 106.053 37.813 105.989 37.7778L105.583 37.5616L105.144 37.3358L104.673 37.1003L103.905 36.729L103.352 36.4694L102.147 35.9212L101.158 35.4847L100.096 35.0265L98.5643 34.3817L96.9021 33.6984C96.7581 33.6398 96.6128 33.5808 96.4661 33.5215C96.1984 35.3845 95.8952 37.1638 95.5564 38.8594L95.3253 39.9773C91.8188 56.3769 84.8367 64.5911 74.379 64.6199C62.6293 64.587 55.2672 54.2208 52.2928 33.5215L50.5979 34.2145L49.0339 34.8689L48.3009 35.1816L47.2628 35.6326L45.9931 36.2001L45.1268 36.6004L44.5901 36.8552L44.0861 37.1003L43.6148 37.3358L43.1763 37.5616L42.7704 37.7778L42.3973 37.9843L42.0569 38.1811L41.7492 38.3683C41.7006 38.3987 41.6534 38.4287 41.6076 38.4583L41.349 38.631C41.2682 38.687 41.1929 38.7414 41.123 38.7941L40.9298 38.9475C40.8709 38.997 40.8174 39.0449 40.7693 39.0912L41.1806 40.1326L41.5334 41.0501L41.7846 41.7191L42.0456 42.4291L42.3137 43.1763L42.5863 43.9563L42.8605 44.7652L43.1339 45.5988C43.1793 45.7396 43.2244 45.8812 43.2694 46.0236L43.5364 46.8867C43.5804 47.0319 43.624 47.1777 43.6672 47.324L43.9219 48.2073C44.7112 51.0201 45.3263 53.9594 45.3858 56.4413L45.3905 56.8293L45.3888 58.3106L45.3774 59.2307L45.3586 59.9511L45.3396 60.4443L45.3143 60.9469L45.2819 61.4581L45.2415 61.9772L45.1923 62.5033L45.1333 63.0357L45.0637 63.5735L44.9827 64.116L44.8894 64.6624L44.7828 65.2119C44.7639 65.3036 44.7444 65.3955 44.7243 65.4875L44.5963 66.0401C43.4666 70.6506 40.7343 75.3751 34.1308 78.1479C34.1308 84.6206 35.5919 88.2026 38.8758 92.5629L39.3821 93.2232L39.9161 93.898L40.4779 94.59C40.5738 94.7069 40.671 94.8246 40.7693 94.9432C42.355 96.8564 43.4542 100.276 44.0667 105.201L44.1669 106.06C44.1828 106.205 44.1984 106.352 44.2135 106.5L44.2994 107.404L44.3758 108.337C44.3878 108.494 44.3993 108.654 44.4104 108.814L44.4726 109.791L44.5251 110.798L44.5682 111.834L44.6017 112.899L44.6256 113.995L44.6401 115.119C44.6417 115.309 44.6429 115.5 44.6437 115.693L44.6439 116.861C44.6431 117.059 44.6419 117.257 44.6404 117.457L44.6262 118.67L44.6025 119.913L44.5693 121.185L44.5265 122.487C44.5186 122.706 44.5103 122.927 44.5016 123.148C33.2003 134.293 22.4712 142.689 12.3141 176.338L11.469 179.168C7.81268 191.544 4.23094 205.388 0.723801 220.7C10.9805 230.594 29.9585 236.333 57.6578 237.916L59.6511 238.022L61.6741 238.114C65.7498 238.283 70.0035 238.368 74.4352 238.368Z" fill="#7835FF"/>
<path d="M180.087 107.267L225.192 123.684C226.438 124.137 227.08 125.515 226.627 126.76L218.145 150.065C217.691 151.31 216.314 151.952 215.069 151.499L169.963 135.082C168.718 134.629 168.076 133.251 168.529 132.006L177.011 108.701C177.464 107.456 178.842 106.814 180.087 107.267Z" fill="#7835FF"/>
<path d="M183.714 108.152L221.96 122.073C223.205 122.526 223.847 123.903 223.394 125.149L217.956 140.09C217.503 141.335 216.125 141.978 214.88 141.524L176.634 127.604C175.389 127.151 174.747 125.774 175.2 124.528L180.638 109.587C181.091 108.341 182.469 107.699 183.714 108.152Z" fill="white" stroke="black" stroke-width="1.3"/>
<path d="M191.065 2.42799C191.445 1.5372 192.556 1.0918 194.398 1.0918C196.24 1.0918 197.497 1.71348 198.169 2.95684L225.048 123.736" stroke="black" stroke-width="1.3"/>
<path d="M191.065 2.42773L190.569 5.22918L177.483 108.634" stroke="black" stroke-width="1.3"/>
<path d="M268.035 3.77441H33.9017" stroke="black" stroke-width="1.3"/>
</svg>
