<svg width="225" height="216" viewBox="0 0 225 216" fill="none" xmlns="http://www.w3.org/2000/svg">
<path fill-rule="evenodd" clip-rule="evenodd" d="M208.208 60.0672C204.032 71.84 200.655 83.6089 198.078 95.3737L183.039 164.034C181.8 169.69 179.241 178.751 175.362 191.218L78.7144 171.265C82.6387 158.579 85.23 149.359 86.4902 143.606L101.559 74.8097C104.127 63.0866 107.462 51.5221 111.565 40.116L208.208 60.0672Z" fill="white" stroke="black" stroke-width="1.3"/>
<path fill-rule="evenodd" clip-rule="evenodd" d="M62.6989 24.9269L183.146 29.5262C180.164 44.7747 178.172 59.8515 177.17 74.7564C176.361 86.7866 174.445 115.278 171.423 160.23C170.942 167.392 169.459 179.047 166.976 195.196L46.5288 190.597C49.0318 174.157 50.5279 162.298 51.0172 155.021C54.0517 109.887 55.9711 81.3392 56.7753 69.3777C57.774 54.5235 59.7485 39.7066 62.6989 24.9269Z" fill="#0FD1A3"/>
<path fill-rule="evenodd" clip-rule="evenodd" d="M5.74246 24.7365L142.952 7.88929C142.851 25.4443 143.832 42.627 145.896 59.4375C147.562 73.0057 151.508 105.139 157.733 155.839C158.724 163.916 159.548 177.188 160.204 195.657L22.9942 212.504C22.2982 193.707 21.4464 180.205 20.4387 171.998C14.1884 121.094 10.2351 88.8963 8.57861 75.4056C6.52157 58.6524 5.57619 41.7627 5.74246 24.7365Z" fill="white"/>
<path d="M6.2501 46.4325C6.01958 40.3197 5.85036 33.0876 5.74244 24.7362C41.6155 20.3316 68.5203 17.0281 86.4568 14.8258" stroke="black" stroke-width="1.3"/>
<path d="M69.3694 61.1708C66.6469 62.8713 65.8238 68.4 63.9511 74.4215C62.3684 79.5105 59.3261 90.3598 54.8241 106.969C54.6893 107.467 54.9711 107.982 55.4626 108.136L69.9599 112.697C70.4656 112.856 71.0046 112.575 71.1637 112.07C71.1813 112.014 71.1937 111.956 71.2009 111.898C73.9995 88.9971 75.5792 76.0142 75.9397 72.9495C76.184 70.8733 76.5285 68.4362 76.3752 66.278C76.2415 64.3971 75.7298 62.7279 74.4439 61.6938" stroke="black" stroke-width="1.3"/>
<path d="M69.493 59.5675C70.3753 59.0181 71.2317 58.6924 72.0621 58.5905C74.6633 58.2711 81.0586 61.7336 86.1103 70.5962C91.1619 79.4589 98.1109 98.1773 98.8856 99.8593C99.6379 101.493 99.1322 102.525 95.1285 101.727C91.1248 100.928 85.02 97.6616 80.976 98.7561C75.4891 100.241 72.4249 103.755 72.1239 104.551" stroke="black" stroke-width="1.3"/>
<path fill-rule="evenodd" clip-rule="evenodd" d="M76.0953 52.965L83.5896 49.731C84.9622 53.8296 84.6505 56.3493 82.6546 57.2901C80.6586 58.2309 78.4722 56.7892 76.0953 52.965Z" stroke="black" stroke-width="1.3"/>
<path d="M78.0598 52.0509C77.5622 50.4029 77.5637 49.4228 78.0642 49.1107" stroke="black" stroke-width="1.3"/>
<path d="M82.212 50.4388C81.8101 49.3114 81.1326 48.6423 80.1797 48.4316" stroke="black" stroke-width="1.3"/>
<path d="M78.9743 44.1373C77.5508 44.4257 78.2252 45.0784 77.0448 46.7485C75.908 48.3568 72.4521 49.6324 69.8848 49.4352" stroke="black" stroke-width="1.3"/>
<path d="M68.3967 48.5172C68.6146 48.5718 68.7943 48.4711 68.9358 48.2151C67.9749 44.5764 68.2594 39.1677 70.4628 36.7845C72.6662 34.4013 77.7458 31.308 83.1189 32.9394C88.4921 34.5708 88.9454 36.9684 89.0157 37.5413C89.086 38.1141 85.4562 42.1149 84.331 42.811C83.621 43.2503 81.8125 43.6947 78.9054 44.1442" stroke="black" stroke-width="1.3"/>
<path d="M88.9261 38.3174C89.6436 39.6458 90.1687 43.4764 90.1687 46.8601C90.1687 50.2439 89.3126 54.0405 88.3646 55.1996C87.4166 56.3588 84.5707 55.938 84.1687 55.1996" stroke="black" stroke-width="1.3"/>
<path d="M80.0136 57.3499C79.4302 60.2373 79.3255 61.931 79.6996 62.431" stroke="black" stroke-width="1.3"/>
<path d="M68.936 48.3798C67.304 48.8485 61.2049 54.5846 57.7537 64.8938C54.3025 75.203 53.4876 83.5336 54.3025 86.6416C55.1174 89.7496 58.8568 91.5612 59.3216 90.2357" stroke="black" stroke-width="1.3"/>
<path d="M72.2612 49.4042C72.5342 51.6274 70.3323 56.575 69.8513 57.2663" stroke="black" stroke-width="1.3"/>
<path d="M59.0865 109.205C58.5862 112.478 58.3805 114.476 58.4694 115.2C58.6028 116.287 59.0865 118.239 63.2096 118.862" stroke="black" stroke-width="1.3"/>
<path d="M67.447 112.559C66.9747 114.705 65.5674 117.258 64.4384 117.397" stroke="black" stroke-width="1.3"/>
<path d="M58.5775 114.535L57.3167 114.266C56.9515 114.188 56.5873 114.402 56.4779 114.759L53.6266 124.069C53.5125 124.442 53.7155 124.837 54.0847 124.962L63.7059 128.211C64.0827 128.338 64.4912 128.136 64.6184 127.759C64.6197 127.756 64.6208 127.752 64.622 127.749L67.6778 118.205C67.7974 117.831 67.5963 117.431 67.2254 117.304L66.8299 117.169L65.582 116.66" stroke="black" stroke-width="1.3"/>
<path d="M55.7682 117.512L45.6303 113.732C44.9381 113.473 44.1628 113.781 43.8358 114.444C42.4112 117.331 41.1806 120.35 40.1441 123.503C39.0639 126.788 38.2255 130.123 37.6286 133.509C37.5308 134.064 37.7657 134.625 38.2298 134.945C42.6155 137.966 47.4378 140.455 52.6968 142.413C57.9357 144.363 63.4171 145.961 69.1407 147.206C69.7702 147.343 70.4141 147.045 70.7173 146.476C72.6026 142.942 74.2466 139.62 75.6494 136.511C76.9861 133.548 78.1878 130.545 79.2544 127.501C79.5106 126.77 79.1425 125.967 78.4212 125.685L66.8089 121.13" stroke="black" stroke-width="1.3"/>
<path fill-rule="evenodd" clip-rule="evenodd" d="M71.7505 107.575C72.4018 112.879 77.4706 118.398 79.8364 121.859C82.2022 125.319 89.8256 137.066 91.3269 141.446C92.3278 144.366 96.8338 156.718 104.845 178.5C110.622 178.13 114.852 177.61 117.535 176.942C120.218 176.274 123.142 175.236 126.309 173.827C122.855 163.703 120.516 157.25 119.292 154.466C117.457 150.29 107.045 128.505 106.01 126.328C104.974 124.151 97.2979 110.541 96.1214 107.452C95.337 105.392 94.503 103.381 93.6195 101.418L89.1519 99.7124L83.0054 98.5435L78.9744 99.7124L72.6547 103.15C72.0519 104.474 71.7505 105.949 71.7505 107.575Z" fill="#0FD1A3"/>
<path d="M83.7607 127.764C83.7822 130.936 80.14 139.761 77.2852 144.631C75.3821 147.878 69.8141 155.296 60.5813 166.886C63.1783 170.207 65.3598 172.631 67.1259 174.159C68.8921 175.687 71.0542 177.36 73.6123 179.179C81.1332 169.508 85.7867 162.718 87.5727 158.81C89.3588 154.901 91.1969 150.782 93.0872 146.451" stroke="black" stroke-width="1.3"/>
<path d="M61.1709 167.759C59.5077 168.358 57.0795 171.467 56.3859 172.706C55.6924 173.945 54.6984 176.633 55.546 178.144C56.111 179.151 56.6362 179.336 57.1217 178.698C57.8294 176.546 58.4243 175.44 58.9062 175.381C59.629 175.292 58.5092 177.67 59.1363 180.017C59.7635 182.363 61.2263 184.646 63.4283 186.144C65.6303 187.641 66.9755 188.994 67.6376 188.622C68.2997 188.25 66.5879 184.184 66.4488 183.051C66.3098 181.918 65.7583 178.461 68.6252 175.484" stroke="black" stroke-width="1.3"/>
<path d="M107.825 178.388C108.095 180.584 110.798 184.357 112.02 184.991C113.242 185.625 115.771 185.337 115.722 184.94C115.674 184.542 113.953 182.471 113.839 181.539C113.724 180.607 115.538 182.119 116.712 182.993C117.886 183.867 119.791 184.927 124.38 184.364C128.969 183.8 129.71 183.529 129.624 182.829C129.538 182.13 127.04 181.314 125.034 179.867C123.029 178.42 121.183 176.625 121.092 175.881" stroke="black" stroke-width="1.3"/>
</svg>
