<svg width="243" height="183" viewBox="0 0 243 183" fill="none" xmlns="http://www.w3.org/2000/svg">
<path d="M210.901 14.1013L21.3638 0.847535C16.4054 0.500806 12.1047 4.23935 11.7579 9.1978L3.17789 131.898C2.83116 136.857 6.5697 141.157 11.5282 141.504L201.065 154.758C206.024 155.105 210.324 151.366 210.671 146.408L219.251 23.7071C219.598 18.7487 215.859 14.448 210.901 14.1013Z" fill="#FF8E66"/>
<mask id="mask0_31_113" style="mask-type:luminance" maskUnits="userSpaceOnUse" x="2" y="0" width="218" height="156">
<path d="M210.901 14.1013L21.3638 0.847535C16.4054 0.500806 12.1047 4.23935 11.7579 9.1978L3.17789 131.898C2.83116 136.857 6.5697 141.157 11.5282 141.504L201.065 154.758C206.024 155.105 210.324 151.366 210.671 146.408L219.251 23.7071C219.598 18.7487 215.859 14.448 210.901 14.1013Z" fill="white" stroke="black" stroke-width="1.3"/>
</mask>
<g mask="url(#mask0_31_113)">
<path d="M24.3498 49.1731C24.4404 47.8784 23.4642 46.7554 22.1695 46.6649C20.8748 46.5744 19.7518 47.5505 19.6613 48.8453L16.4525 94.7332C16.3619 96.0279 17.3381 97.1509 18.6328 97.2414C19.9275 97.3319 21.0505 96.3558 21.141 95.0611L24.3498 49.1731Z" fill="white" stroke="black" stroke-width="1.3"/>
</g>
<path fill-rule="evenodd" clip-rule="evenodd" d="M235.628 83.8786C236.079 84.3969 236.277 85.0486 236.232 85.6835C236.188 86.3183 235.901 86.9362 235.383 87.3867L141.891 168.658L132.285 173.714L138.628 164.905L232.12 83.6333C232.639 83.1828 233.29 82.985 233.925 83.0294C234.56 83.0738 235.178 83.3604 235.628 83.8786Z" fill="white" stroke="black" stroke-width="1.3"/>
<path d="M233.225 89.3344L231.558 87.417" stroke="black" stroke-width="1.3"/>
<path fill-rule="evenodd" clip-rule="evenodd" d="M78.938 84.2919C74.8173 88.5196 69.9169 90.6614 64.2368 90.7171C58.5568 90.7728 55.0324 88.4309 53.6636 83.6915L55.8936 80.5129C61.1127 78.6961 63.9576 77.8042 64.4282 77.8371C64.8987 77.87 73.8225 75.4802 91.1996 70.6678L91.9933 59.3169L96.0018 52.0481L101.263 47.6223L110.021 46.1423L119.932 46.8354L127.867 49.4826L131.69 52.134L135.538 59.7683C135.696 69.5422 135.573 74.3076 135.17 74.0646C134.766 73.8217 141.582 76.0592 155.617 80.7773L170.59 85.7896L169.663 86.4008L164.961 87.8173L152.289 97.341L142.519 102.683L132.323 105.747L120.008 106.197L108.099 104.053L102.064 101.594L93.4823 96.2799L84.9616 88.4L79.4641 84.3286L78.938 84.2919Z" fill="white"/>
<path fill-rule="evenodd" clip-rule="evenodd" d="M110.056 46.145L119.932 46.8356C129.353 47.4944 136.456 55.6657 135.797 65.0868L135.169 74.0648C127.447 76.4574 119.949 77.3994 112.676 76.8907C105.402 76.3821 98.2357 74.4147 91.1769 70.9886L91.8047 62.0105C92.4635 52.5894 100.635 45.4862 110.056 46.145Z" stroke="black" stroke-width="1.3"/>
<path d="M135.735 65.9845C128.013 68.377 120.515 69.319 113.241 68.8104C105.967 68.3017 98.801 66.3344 91.7422 62.9082" stroke="black" stroke-width="1.3"/>
<path d="M203.237 88.6595C204.89 88.7751 206.324 87.5289 206.439 85.8761C206.555 84.2233 205.309 82.7897 203.656 82.6741C202.003 82.5585 200.569 83.8047 200.454 85.4575C200.338 87.1104 201.584 88.5439 203.237 88.6595Z" fill="white" stroke="black" stroke-width="1.1115"/>
<path d="M78.9379 84.2918C74.5597 88.8198 68.9409 90.844 62.0816 90.3643C51.7927 89.6449 48.7747 78.0069 65.3664 79.1671C87.7738 80.734 88.4194 103.988 119.478 106.16C150.537 108.332 160.925 85.8492 169.22 86.4292C174.75 86.816 163.128 82.568 134.354 73.6854" stroke="black" stroke-width="1.3"/>
<path d="M91.0113 70.6545L58.6941 79.6047" stroke="black" stroke-width="1.3"/>
</svg>
