<svg width="62" height="70" viewBox="0 0 62 70" fill="none" xmlns="http://www.w3.org/2000/svg">
<path d="M0.875 17.7902L31 0.575876L61.125 17.7902V52.2098L31 69.4241L0.875 52.2098V17.7902Z" stroke="#218A8E"/>
<path d="M31.0479 30.7786V34.8474L33.6444 37.3126C33.7887 37.4496 33.8727 37.6382 33.8779 37.8371C33.8831 38.036 33.8091 38.2288 33.6721 38.3731C33.5352 38.5174 33.3465 38.6014 33.1476 38.6066C32.9487 38.6118 32.7559 38.5378 32.6116 38.4009L29.7819 35.7136C29.708 35.6436 29.6492 35.5593 29.609 35.4658C29.5687 35.3723 29.5479 35.2716 29.5479 35.1699V30.7779C29.5479 30.5789 29.6269 30.3882 29.7675 30.2475C29.9082 30.1069 30.099 30.0279 30.2979 30.0279C30.4968 30.0279 30.6875 30.1069 30.8282 30.2475C30.9689 30.3882 31.0479 30.5797 31.0479 30.7786ZM45.6249 32.9604L44.8156 33.8574C44.4204 26.7264 38.4384 20.9634 30.9991 20.8044C24.3594 20.6814 18.5979 24.9444 16.9854 31.2151C16.9608 31.3105 16.9554 31.4099 16.9692 31.5074C16.9831 31.605 17.016 31.6989 17.0662 31.7837C17.1674 31.955 17.3326 32.0791 17.5254 32.1286C17.7181 32.1781 17.9226 32.1491 18.094 32.0478C18.2653 31.9465 18.3893 31.7813 18.4389 31.5886C19.8751 25.9959 25.0036 22.1574 30.9669 22.3044C37.5744 22.4446 42.8994 27.5154 43.3156 33.8139L42.5551 32.8951C42.4926 32.8184 42.4154 32.7549 42.3282 32.7082C42.241 32.6614 42.1453 32.6324 42.0468 32.6228C41.9483 32.6132 41.8489 32.6232 41.7543 32.6522C41.6597 32.6812 41.5717 32.7286 41.4955 32.7918C41.4193 32.8549 41.3564 32.9325 41.3103 33.0201C41.2642 33.1077 41.2359 33.2035 41.2271 33.3021C41.2182 33.4006 41.2289 33.5 41.2586 33.5944C41.2883 33.6888 41.3364 33.7764 41.4001 33.8521L43.3569 36.2154C43.5219 36.4126 43.7619 36.5281 44.0161 36.5326H44.0319C44.2801 36.5326 44.5171 36.4276 44.6851 36.2409L46.7379 33.9654C46.8066 33.8927 46.86 33.8071 46.8952 33.7135C46.9303 33.62 46.9464 33.5203 46.9424 33.4204C46.9385 33.3206 46.9146 33.2225 46.8723 33.132C46.8299 33.0414 46.7698 32.9603 46.6956 32.8933C46.6215 32.8263 46.5346 32.7748 46.4403 32.7419C46.3459 32.7089 46.2459 32.6952 46.1461 32.7014C46.0464 32.7077 45.9489 32.7338 45.8594 32.7783C45.7698 32.8227 45.6901 32.8846 45.6249 32.9604ZM30.7051 49.7829C36.9369 49.7829 42.3654 45.8874 44.2149 40.0891C44.2661 39.9022 44.243 39.7027 44.1505 39.5324C44.058 39.3622 43.9033 39.2342 43.7186 39.1754C43.534 39.1166 43.3337 39.1315 43.1598 39.2169C42.9858 39.3024 42.8517 39.4518 42.7854 39.6339C41.1354 44.8066 36.2814 48.2829 30.7051 48.2829C24.0976 48.2829 18.6661 43.3269 18.1156 37.0389L18.8956 37.9411C18.96 38.0156 19.0384 38.0767 19.1264 38.1209C19.2144 38.1651 19.3103 38.1915 19.4085 38.1986C19.5067 38.2057 19.6054 38.1933 19.6988 38.1623C19.7923 38.1312 19.8787 38.0821 19.9531 38.0176C20.1035 37.8876 20.1962 37.7031 20.2107 37.5048C20.2251 37.3065 20.1603 37.1106 20.0304 36.9601L18.0279 34.6426C17.6904 34.2519 17.0281 34.2541 16.6944 34.6411L14.6896 36.9579C14.5594 37.1084 14.4944 37.3046 14.5088 37.5031C14.5232 37.7016 14.6159 37.8863 14.7665 38.0165C14.9171 38.1467 15.1132 38.2117 15.3117 38.1973C15.5103 38.1829 15.6949 38.0902 15.8251 37.9396L16.6149 37.0254C17.1624 44.1466 23.2644 49.7814 30.7051 49.7814V49.7829Z" fill="black"/>
</svg>
