<svg width="100" height="116" viewBox="0 0 100 116" fill="none" xmlns="http://www.w3.org/2000/svg">
<g clip-path="url(#clip0_668_3757)">
<path d="M0.399902 29.031L49.8829 0.461914L99.3663 29.031V86.1688L49.8829 114.738L0.399902 86.1688V29.031Z" stroke="#218A8E"/>
<path d="M49.2001 63.2001L54.1735 59.4699C55.1302 58.7526 55.0902 57.3045 54.0951 56.6411L48.4283 52.8633C47.2763 52.0954 45.7335 52.9211 45.7335 54.3055V64.9335C45.7335 66.8481 47.2855 68.4001 49.2001 68.4001H57.8667C61.6959 68.4001 64.8001 65.2959 64.8001 61.4667V54.5335C64.8001 50.7043 61.6959 47.6001 57.8667 47.6001H40.5335C36.7043 47.6001 33.6001 50.7043 33.6001 54.5335V61.4667C33.6001 65.2959 36.7043 68.4001 40.5335 68.4001H42.2667" stroke="white" stroke-linecap="round" stroke-linejoin="round"/>
</g>
<defs>
<clipPath id="clip0_668_3757">
<rect width="100" height="115.2" fill="white"/>
</clipPath>
</defs>
</svg>
