<svg width="125" height="144" viewBox="0 0 125 144" fill="none" xmlns="http://www.w3.org/2000/svg">
<path d="M0.5 36.2887L62.3538 0.57735L124.208 36.2887V107.711L62.3538 143.423L0.5 107.711V36.2887Z" stroke="white"/>
<path d="M84.5052 78.8931L79.3065 81.3601V62.0465L85.094 59.2996C85.4365 59.1374 85.5824 58.7277 85.4196 58.3853C85.2574 58.0425 84.8474 57.8963 84.5052 58.0591L78.6513 60.8374L75.4776 59.3257C75.1354 59.1632 74.7257 59.3079 74.5626 59.6504C74.3995 59.9926 74.5449 60.4026 74.8873 60.5656L77.0231 61.583L62.7354 68.3891V54.7772L72.2289 59.2993C72.5708 59.4619 72.981 59.3171 73.1441 58.9749C73.3072 58.6324 73.1616 58.2227 72.8194 58.0594L62.7354 53.256V49.2491C62.7354 48.8698 62.4281 48.5625 62.0488 48.5625C61.6697 48.5625 61.3621 48.8698 61.3621 49.2491V53.256L45.1828 60.963C45.0357 61.0331 44.9227 61.1499 44.8572 61.2898C44.8123 61.3845 44.7891 61.4909 44.7914 61.5988V63.2181C44.7914 63.5972 45.0986 63.9047 45.478 63.9047C45.8571 63.9047 46.1647 63.5972 46.1647 63.2181V62.6705L60.4497 69.4754L46.1644 76.2552V66.1758C46.1644 65.7967 45.8571 65.4892 45.4777 65.4892C45.0986 65.4892 44.7911 65.7967 44.7911 66.1758V76.9067L39.0035 79.6535C38.6611 79.816 38.5151 80.2254 38.6779 80.5682C38.8416 80.9132 39.2521 81.0554 39.5926 80.8944L44.7911 78.427V82.417C44.7911 82.6816 44.9436 82.9231 45.1828 83.0367L60.4497 90.3091L52.3983 94.1303C52.0555 94.2928 51.9096 94.7025 52.0724 95.0453C52.2343 95.3871 52.644 95.5342 52.9873 95.3711L61.3621 91.3963V94.7509C61.3621 95.1299 61.6694 95.4375 62.0488 95.4375C62.4279 95.4375 62.7354 95.1299 62.7354 94.7509V90.7443L85.094 80.1336C85.4365 79.9711 85.5824 79.5614 85.4196 79.2187C85.2574 78.8762 84.8474 78.7303 84.5052 78.8931ZM61.3621 68.3891L47.0745 61.583L61.3621 54.7772V68.3891ZM46.1644 77.775L61.3621 70.5623V85.5381C61.3621 85.9172 61.6697 86.2247 62.0488 86.2247C62.4281 86.2247 62.7354 85.9172 62.7354 85.5381V69.9109L77.9332 62.6982V81.9835L62.7354 89.2228V88.4583C62.7354 88.079 62.4281 87.7717 62.0488 87.7717C61.6697 87.7717 61.3621 88.079 61.3621 88.4583V89.2228L46.1644 81.9835V77.775Z" fill="white"/>
</svg>
