<svg width="144" height="144" viewBox="0 0 144 144" fill="none" xmlns="http://www.w3.org/2000/svg">
<circle cx="72" cy="72" r="71.5" stroke="#218A8E"/>
<g clip-path="url(#clip0_668_3916)">
<path d="M79.2581 61.5161V47.8064C79.2581 47.3613 78.8968 47 78.4517 47H47.8064C47.3613 47 47 47.3613 47 47.8064V78.4516C47 78.8967 47.3613 79.258 47.8064 79.258H61.5161C61.5161 89.0411 69.475 97 79.2581 97C89.0412 97 97 89.0411 97 79.2581C97 69.4751 89.0411 61.5161 79.2581 61.5161ZM48.6129 77.6451V48.6129H77.6451V61.5928C69.1476 62.3629 62.3629 69.1477 61.5927 77.6452H48.6129V77.6451ZM77.6451 63.2104V77.6451H63.2104C63.9701 70.0371 70.0371 63.9701 77.6451 63.2104ZM79.2581 95.3871C70.3646 95.3871 63.1291 88.1517 63.1291 79.2581H78.4517C78.8968 79.2581 79.2581 78.8968 79.2581 78.4517V63.129C88.1517 63.129 95.3871 70.3645 95.3871 79.258C95.3871 88.1516 88.1517 95.3871 79.2581 95.3871Z" fill="black"/>
</g>
<defs>
<clipPath id="clip0_668_3916">
<rect width="50" height="50" fill="white" transform="translate(47 47)"/>
</clipPath>
</defs>
</svg>
