<svg width="104" height="120" viewBox="0 0 104 120" fill="none" xmlns="http://www.w3.org/2000/svg">
<path d="M0.5 30.2887L51.9615 0.57735L103.423 30.2887V89.7113L51.9615 119.423L0.5 89.7113V30.2887Z" stroke="white"/>
<path d="M69.5808 65.4286C68.2299 64.0778 66.032 64.0777 64.6807 65.429L58.7407 71.3826C58.3135 69.9536 56.9867 68.9092 55.4205 68.9092H47.4005C47.3485 68.9092 47.2967 68.9165 47.247 68.9309L42.3944 70.333V68.744C42.3944 68.4385 42.1467 68.1908 41.8412 68.1908H30.5532C30.2477 68.1908 30 68.4385 30 68.744V85.4467C30 85.7522 30.2477 85.9998 30.5532 85.9998H41.8413C42.1468 85.9998 42.3945 85.7522 42.3945 85.4467V81.765H55.8094C57.3251 81.765 58.7498 81.1743 59.821 80.1018L69.5809 70.3283C70.9316 68.9774 70.9316 66.7795 69.5808 65.4286ZM41.2881 71.0687V81.2119V84.8935H31.1064V69.2972H41.2881V71.0687ZM68.7982 69.5462L59.0379 79.32C58.1758 80.1834 57.0292 80.6588 55.8093 80.6588H42.3945V71.4846L47.4789 70.0155H55.4205C56.7208 70.0155 57.7787 71.0734 57.7787 72.3737C57.7787 73.674 56.7209 74.7318 55.4205 74.7318H47.4005V75.8382H55.4205C57.1745 75.8382 58.6282 74.5281 58.8545 72.8351L65.4636 66.2109C66.3832 65.2914 67.8791 65.2915 68.7985 66.2109C69.7179 67.1304 69.7179 68.6265 68.7982 69.5462Z" fill="white"/>
<path d="M73.959 44.7826L71.1933 42.3626C71.0523 41.0048 70.1191 38.7499 67.3493 38.5443C66.0603 38.4488 64.9688 38.7933 64.106 39.569C63.6139 40.0115 63.2374 40.5607 62.9498 41.1538C62.3879 40.3034 61.2945 39.1958 59.1612 38.1145C56.8028 36.9193 55.6444 35.7409 54.5398 34.2272C54.421 34.0642 54.2227 33.9789 54.0231 34.0045C53.8232 34.0299 53.6528 34.1621 53.5786 34.3495C52.2673 37.6607 53.0921 40.3972 53.7904 41.8572C52.0084 41.3715 50.3506 40.4044 48.9254 37.9889C48.8192 37.809 48.6212 37.7042 48.4124 37.718C48.204 37.7318 48.0212 37.8618 47.9396 38.0542C46.9453 40.401 46.9942 42.9758 48.0812 45.5005C49.5385 48.8854 52.6461 51.6738 56.6071 53.1509C56.6867 53.1806 56.7315 53.2074 56.7548 53.2244C56.7146 53.3442 56.4804 53.7124 55.691 54.2137C54.0828 55.2351 50.8358 56.2852 48.6525 55.4218C48.4796 55.3535 48.2839 55.3766 48.1316 55.4832C47.9794 55.5898 47.8908 55.7658 47.896 55.9516C47.898 56.0227 47.9523 57.7136 48.6504 59.6778C49.5908 62.3235 51.2589 64.1903 53.4746 65.0767C53.5404 65.103 53.61 65.116 53.6793 65.116C53.7702 65.116 53.8609 65.0935 53.9427 65.0494C54.0871 64.9715 54.1896 64.8332 54.2223 64.6725C54.2248 64.6603 54.4799 63.439 55.2767 62.1888C56.3108 60.5662 57.7378 59.6512 59.5181 59.4692C63.276 59.085 65.9956 57.8358 67.8324 55.6505C69.5827 53.5679 70.4846 50.6812 70.5847 46.8347L73.7771 45.7211C73.9629 45.6563 74.1005 45.4974 74.138 45.3041C74.1753 45.1111 74.1072 44.9123 73.959 44.7826ZM54.2887 35.7099C55.3164 36.9524 56.5673 38.0404 58.661 39.1016C61.7533 40.6689 62.3234 42.2288 62.4204 42.6168C62.2796 43.1538 62.188 43.6867 62.1305 44.1757C60.4417 42.8535 58.4889 42.5991 56.5909 42.3517C56.1292 42.2915 55.6717 42.2317 55.2199 42.1582C54.7864 41.4956 53.3868 39.0099 54.2887 35.7099ZM69.8567 45.9171C69.6368 45.9939 69.4886 46.2001 69.4857 46.4329C69.4408 50.2082 68.6229 52.9905 66.9853 54.9389C65.3428 56.8933 62.8632 58.0153 59.4055 58.3688C57.2887 58.5852 55.531 59.7123 54.3223 61.628C53.8023 62.4525 53.4906 63.253 53.3183 63.7906C50.1355 62.1484 49.2941 58.3437 49.076 56.7001C51.8019 57.2867 55.3007 55.9949 56.8888 54.718C57.6159 54.1333 57.9409 53.5654 57.8544 53.0302C57.8077 52.7414 57.6205 52.3481 56.9934 52.1144C53.3137 50.7424 50.4356 48.1723 49.0971 45.0632C48.2905 43.1897 48.1248 41.2926 48.6028 39.5158C50.9369 42.7306 53.8508 43.1104 56.4476 43.4488C58.5799 43.7268 60.5941 43.9893 62.1878 45.7351C62.3396 45.9014 62.577 45.959 62.7881 45.881C62.9992 45.8031 63.142 45.605 63.1492 45.3799C63.249 42.2771 64.2548 40.923 64.8454 40.392C65.4841 39.8178 66.276 39.574 67.267 39.6479C69.9522 39.8471 70.0999 42.5372 70.1049 42.6496C70.1104 42.8019 70.1786 42.9453 70.2934 43.0457L72.5151 44.9896L69.8567 45.9171Z" fill="white"/>
</svg>
