<svg width="125" height="144" viewBox="0 0 125 144" fill="none" xmlns="http://www.w3.org/2000/svg">
<path d="M0.5 36.2887L62.3538 0.57735L124.208 36.2887V107.711L62.3538 143.423L0.5 107.711V36.2887Z" stroke="#368048"/>
<path d="M69.8007 52.8779C70.1061 52.7064 70.2146 52.3199 70.0432 52.0146C69.9731 51.8898 69.863 51.7924 69.7306 51.7382L55.8316 46.0475C55.5076 45.9147 55.1372 46.0699 55.0045 46.3939C54.9732 46.4702 54.9571 46.5519 54.9571 46.6344V66.8664L37.5646 97.0488C37.3894 97.3521 37.4933 97.7399 37.7967 97.915C37.8932 97.9707 38.0027 98.0001 38.1142 98H85.8858C86.2361 98.0002 86.5202 97.7166 86.5204 97.3663C86.5205 97.2548 86.4911 97.1453 86.4354 97.0488L68.9575 66.7194C68.7828 66.4159 68.3952 66.3114 68.0916 66.4861C67.9947 66.5419 67.9142 66.6224 67.8584 66.7194L61.9997 76.8869L56.2254 66.8664V60.501L69.8007 52.8779ZM56.2254 47.5793L68.0354 52.4146L56.2254 59.0461V47.5793ZM50.9307 96.7317H39.2113L55.5913 68.306L71.9714 96.7317H50.9307ZM68.4082 68.306L84.7882 96.7317H73.4354L62.7316 78.1569L68.4082 68.306Z" fill="black"/>
</svg>
