<svg width="144" height="144" viewBox="0 0 144 144" fill="none" xmlns="http://www.w3.org/2000/svg">
<circle cx="72" cy="72" r="71.5" stroke="#368048"/>
<g clip-path="url(#clip0_573_972)">
<path d="M85.7586 71.9792L97.3557 60.3821C98.187 59.5508 98.187 58.2622 97.3557 57.4309L86.5068 46.5819C86.1327 46.2078 85.5923 46 85.0519 46C84.5116 46 83.9712 46.2078 83.5971 46.6235L72 58.1791L60.4444 46.6235C59.6131 45.7922 58.3245 45.7922 57.4932 46.6235L46.6443 57.4724C46.2286 57.8465 46.0208 58.3869 46.0208 58.9273C46.0208 59.5092 46.2286 60.008 46.6443 60.4237L58.1998 71.9792L46.6443 83.5348C45.8129 84.3661 45.8129 85.6547 46.6443 86.486L57.4516 97.3349C57.8257 97.709 58.3661 97.9584 58.9064 97.9584C59.4468 97.9584 59.9872 97.7506 60.3613 97.3349L72 85.7794L83.5971 97.3765C83.9712 97.7506 84.5116 98 85.0519 98C85.5923 98 86.1327 97.7922 86.5068 97.3765L97.3557 86.5276C97.7298 86.1535 97.9792 85.6131 97.9792 85.0727C97.9792 84.5324 97.7714 83.992 97.3557 83.6179L85.7586 71.9792ZM47.2262 59.8417C46.9768 59.5923 46.8521 59.3014 46.8521 58.9688C46.8521 58.6363 46.9768 58.3038 47.2262 58.0959L58.0751 47.2054C58.5739 46.7066 59.3637 46.7066 59.8625 47.2054L71.418 58.761L58.7817 71.3973L47.2262 59.8417ZM71.709 84.9065L59.8209 96.753C59.3637 97.2102 58.5323 97.2102 58.0335 96.753L47.2262 85.9041C46.7274 85.4053 46.7274 84.6155 47.2262 84.1167L59.0727 72.2702L84.179 47.2054C84.4284 46.956 84.7194 46.8313 85.0519 46.8313C85.3845 46.8313 85.717 46.956 85.9248 47.2054L96.7738 58.0544C97.2726 58.5532 97.2726 59.3429 96.7738 59.8417L71.709 84.9065ZM96.7738 85.9456L85.9248 96.7946C85.426 97.2934 84.6363 97.2934 84.1375 96.7946L72.5819 85.1974L85.2182 72.5612L96.8153 84.1583C97.0647 84.4077 97.1894 84.6986 97.1894 85.0312C97.1894 85.3637 97.0232 85.6962 96.7738 85.9456Z" fill="white"/>
<path d="M85.2182 68.5291L75.45 58.7609C75.2838 58.5947 75.0344 58.5947 74.8681 58.7609C74.7018 58.9272 74.7018 59.1766 74.8681 59.3429L84.6363 69.111C84.7194 69.1942 84.8441 69.2358 84.9273 69.2358C85.0104 69.2358 85.1351 69.1942 85.2182 69.111C85.3845 68.9448 85.3845 68.6954 85.2182 68.5291Z" fill="white"/>
<path d="M69.1734 84.6155L59.4052 74.8474C59.239 74.6811 58.9896 74.6811 58.8233 74.8474C58.657 75.0136 58.657 75.263 58.8233 75.4293L68.5915 85.1975C68.6746 85.2806 68.7993 85.3222 68.8825 85.3222C68.9656 85.3222 69.0903 85.2806 69.1734 85.1975C69.3397 85.0312 69.3397 84.7818 69.1734 84.6155Z" fill="white"/>
<path d="M63.3956 72.104C62.4812 72.104 61.7745 72.8106 61.7745 73.7251C61.7745 74.6396 62.5227 75.3462 63.3956 75.3462C64.2685 75.3462 65.0167 74.6396 65.0167 73.7251C65.0167 72.8106 64.3101 72.104 63.3956 72.104ZM63.3956 74.5149C62.9384 74.5149 62.6059 74.1823 62.6059 73.7251C62.6059 73.2679 62.98 72.9353 63.3956 72.9353C63.8113 72.9353 64.1854 73.2679 64.1854 73.7251C64.1854 74.1823 63.8529 74.5149 63.3956 74.5149Z" fill="white"/>
<path d="M70.2542 78.9624C69.3397 78.9624 68.6331 79.669 68.6331 80.5835C68.6331 81.498 69.3397 82.2046 70.2542 82.2046C71.1686 82.2046 71.8753 81.4564 71.8753 80.5835C71.8753 79.7106 71.1686 78.9624 70.2542 78.9624ZM70.2542 81.3733C69.8385 81.3733 69.4644 81.0407 69.4644 80.5835C69.4644 80.1263 69.7969 79.7937 70.2542 79.7937C70.6698 79.7937 71.0439 80.1263 71.0439 80.5835C71.0439 81.0407 70.6698 81.3733 70.2542 81.3733Z" fill="white"/>
<path d="M66.8042 75.5125C65.8897 75.5125 65.1831 76.2191 65.1831 77.1336C65.1831 78.048 65.9313 78.7547 66.8042 78.7547C67.6771 78.7547 68.4253 78.048 68.4253 77.1336C68.4253 76.2191 67.7187 75.5125 66.8042 75.5125ZM66.8042 77.9649C66.3885 77.9649 66.0144 77.6324 66.0144 77.1751C66.0144 76.7179 66.3885 76.3854 66.8042 76.3854C67.2199 76.3854 67.594 76.7179 67.594 77.1751C67.594 77.6324 67.2614 77.9649 66.8042 77.9649Z" fill="white"/>
<path d="M66.8458 68.6538C66.4301 68.6538 66.0144 68.8201 65.7235 69.111C65.4325 69.402 65.2662 69.8177 65.2662 70.2333C65.2662 70.649 65.4325 71.0647 65.7235 71.3556C66.0144 71.7297 66.4301 71.896 66.8458 71.896C67.7187 71.896 68.4669 71.1894 68.4669 70.2749C68.4669 69.402 67.7602 68.6538 66.8458 68.6538ZM66.8458 71.0647C66.6379 71.0647 66.4301 70.9815 66.3054 70.8153C66.1391 70.649 66.056 70.4827 66.056 70.2749C66.0976 70.0671 66.1807 69.8592 66.3054 69.7345C66.4717 69.5683 66.6379 69.4851 66.8458 69.4851C67.2614 69.4851 67.6355 69.8177 67.6355 70.2749C67.6355 70.7321 67.303 71.0647 66.8458 71.0647Z" fill="white"/>
<path d="M73.7042 75.5125C72.7898 75.5125 72.0831 76.2191 72.0831 77.1336C72.0831 78.048 72.8313 78.7547 73.7042 78.7547C74.5771 78.7547 75.3253 78.048 75.3253 77.1336C75.3253 76.2191 74.6187 75.5125 73.7042 75.5125ZM73.7042 77.9233C73.247 77.9233 72.9145 77.5908 72.9145 77.1336C72.9145 76.6763 73.2886 76.3438 73.7042 76.3438C74.1199 76.3438 74.494 76.6763 74.494 77.1336C74.494 77.5908 74.1615 77.9233 73.7042 77.9233Z" fill="white"/>
<path d="M70.2958 72.0623C69.3813 72.0623 68.6747 72.8105 68.6747 73.6834C68.6747 74.5563 69.3813 75.3045 70.2958 75.3045C71.1687 75.3045 71.9169 74.5978 71.9169 73.6834C71.9169 72.7689 71.2103 72.0623 70.2958 72.0623ZM70.2958 74.4731C69.8801 74.4731 69.506 74.1406 69.506 73.6834C69.506 73.2261 69.8386 72.8936 70.2958 72.8936C70.7115 72.8936 71.0856 73.2261 71.0856 73.6834C71.0856 74.1406 70.7115 74.4731 70.2958 74.4731Z" fill="white"/>
<path d="M70.3373 65.2039C69.4228 65.2039 68.7162 65.9105 68.7162 66.825C68.7162 67.6979 69.4228 68.4461 70.3373 68.4461C71.2102 68.4461 71.9584 67.7394 71.9584 66.825C71.9584 65.9521 71.2518 65.2039 70.3373 65.2039ZM70.3373 67.6147C69.8801 67.6147 69.5475 67.2822 69.5475 66.825C69.5475 66.4093 69.8801 66.0352 70.3373 66.0352C70.753 66.0352 71.1271 66.3677 71.1271 66.825C71.1271 67.2406 70.7945 67.6147 70.3373 67.6147Z" fill="white"/>
<path d="M77.1543 72.0623C76.2814 72.0623 75.5332 72.7689 75.5332 73.6834C75.5332 74.5978 76.2398 75.3045 77.1543 75.3045C78.0688 75.3045 78.7754 74.5978 78.7754 73.6834C78.7754 72.7689 78.0688 72.0623 77.1543 72.0623ZM77.1543 74.4731C76.7386 74.4731 76.3645 74.1406 76.3645 73.6834C76.3645 73.2261 76.6971 72.8936 77.1543 72.8936C77.6115 72.8936 77.9441 73.2261 77.9441 73.6834C77.9441 74.1406 77.6115 74.4731 77.1543 74.4731Z" fill="white"/>
<path d="M73.7459 68.6123C72.873 68.6123 72.1248 69.3189 72.1248 70.2334C72.1248 71.1479 72.8314 71.8545 73.7459 71.8545C74.6603 71.8545 75.367 71.1479 75.367 70.2334C75.367 69.3189 74.6188 68.6123 73.7459 68.6123ZM73.7459 71.0232C73.3302 71.0232 72.9561 70.6906 72.9561 70.2334C72.9561 69.8177 73.2886 69.4436 73.7459 69.4436C74.2031 69.4436 74.5356 69.7762 74.5356 70.2334C74.4941 70.6491 74.1615 71.0232 73.7459 71.0232Z" fill="white"/>
<path d="M73.7459 61.7954C72.8314 61.7954 72.1248 62.502 72.1248 63.4165C72.1248 64.331 72.8314 65.0376 73.7459 65.0376C74.6188 65.0376 75.367 64.331 75.367 63.4165C75.367 62.502 74.6603 61.7954 73.7459 61.7954ZM73.7459 64.2063C73.2886 64.2063 72.9561 63.8737 72.9561 63.4165C72.9561 63.0008 73.2886 62.6267 73.7459 62.6267C74.1615 62.6267 74.5356 62.9593 74.5356 63.4165C74.5356 63.8322 74.2031 64.2063 73.7459 64.2063Z" fill="white"/>
<path d="M80.5628 68.6538C79.6899 68.6538 78.9417 69.3604 78.9417 70.2749C78.9417 71.1894 79.6483 71.896 80.5628 71.896C81.4772 71.896 82.1839 71.1894 82.1839 70.2749C82.1839 69.3604 81.4772 68.6538 80.5628 68.6538ZM80.5628 71.0231C80.1471 71.0231 79.773 70.6906 79.773 70.2333C79.773 69.7761 80.1055 69.4436 80.5628 69.4436C81.02 69.4436 81.3525 69.7761 81.3525 70.2333C81.3525 70.6906 81.02 71.0231 80.5628 71.0231Z" fill="white"/>
<path d="M77.1543 65.2039C76.2398 65.2039 75.5332 65.9105 75.5332 66.825C75.5332 67.7394 76.2398 68.4461 77.1543 68.4461C78.0272 68.4461 78.7754 67.7394 78.7754 66.825C78.7754 65.9105 78.0688 65.2039 77.1543 65.2039ZM77.1543 67.6147C76.6971 67.6147 76.3645 67.2822 76.3645 66.825C76.3645 66.4093 76.6971 66.0352 77.1543 66.0352C77.57 66.0352 77.9441 66.3677 77.9441 66.825C77.9441 67.2406 77.6115 67.6147 77.1543 67.6147Z" fill="white"/>
</g>
<defs>
<clipPath id="clip0_573_972">
<rect width="52" height="52" fill="white" transform="translate(46 46)"/>
</clipPath>
</defs>
</svg>
