<svg width="40" height="40" viewBox="0 0 40 40" fill="none" xmlns="http://www.w3.org/2000/svg">
<circle cx="20" cy="20" r="20" fill="black"/>
<path d="M35 19.9996V19.8498C27.551 19.8498 23.8122 19.8498 21.9807 18.019C20.1498 16.1882 20.1498 12.4488 20.1498 5H20H19.8502C19.8502 12.4488 19.8502 16.1875 18.0193 18.019C16.1885 19.8498 12.449 19.8498 5 19.8498V20.1502C12.449 20.1502 16.1878 20.1502 18.0193 21.981C19.8502 23.8118 19.8502 27.5512 19.8502 35H20.1498C20.1498 27.5512 20.1498 23.8125 21.9807 21.981C23.8115 20.1502 27.5503 20.1502 35 20.1502V19.9996Z" fill="white"/>
</svg>
