<?xml version="1.0" encoding="UTF-8"?> <svg xmlns="http://www.w3.org/2000/svg" width="144" height="144" viewBox="0 0 144 144" fill="none"> <path d="M102.118 41.2574L101.841 42.1589L102.743 41.8821C105.669 40.9837 108.778 40.5 112 40.5C129.397 40.5 143.5 54.603 143.5 72C143.5 89.397 129.397 103.5 112 103.5C108.778 103.5 105.669 103.016 102.743 102.118L101.841 101.841L102.118 102.743C103.016 105.669 103.5 108.778 103.5 112C103.5 129.397 89.397 143.5 72 143.5C54.603 143.5 40.5 129.397 40.5 112C40.5 108.778 40.9837 105.669 41.8821 102.743L42.1589 101.841L41.2574 102.118C38.3309 103.016 35.2224 103.5 32 103.5C14.603 103.5 0.5 89.397 0.5 72C0.5 54.603 14.603 40.5 32 40.5C35.2224 40.5 38.3309 40.9837 41.2574 41.8821L42.1589 42.1589L41.8821 41.2574C40.9837 38.3309 40.5 35.2224 40.5 32C40.5 14.603 54.603 0.5 72 0.5C89.397 0.5 103.5 14.603 103.5 32C103.5 35.2224 103.016 38.3309 102.118 41.2574Z" stroke="#3CC4FF"></path> <path fill-rule="evenodd" clip-rule="evenodd" d="M71.9504 41.7861C55.4328 41.8232 41.9598 55.1459 41.7876 71.7098C41.6062 88.4047 55.0073 102.09 71.7036 102.263C88.3986 102.438 102.084 89.0437 102.265 72.341C102.439 55.646 89.0376 41.9609 72.3426 41.7873C72.212 41.7858 72.0819 41.7853 71.9518 41.7858L71.9504 41.7861ZM71.9519 42.5032C72.079 42.5027 72.206 42.5032 72.3336 42.5047C88.6416 42.675 101.717 56.0266 101.546 72.3333C101.369 88.6477 88.018 101.717 71.71 101.546C55.402 101.376 42.3263 88.0242 42.5038 71.7174C42.6725 55.5367 55.8173 42.5382 71.9518 42.5035L71.9519 42.5032Z" fill="#3CC4FF"></path> <path fill-rule="evenodd" clip-rule="evenodd" d="M82.4303 60.7163C82.35 60.7163 82.2716 60.7439 82.2078 60.7942L76.5638 65.14H76.5643C76.4769 65.2068 76.4257 65.3103 76.4247 65.4202C76.4232 65.5302 76.4724 65.6342 76.5583 65.7035L82.109 70.1714V70.1709C82.1823 70.2341 82.2787 70.2648 82.3752 70.2557C82.4721 70.2472 82.561 70.1995 82.6218 70.1237C82.6825 70.0483 82.7101 69.9509 82.6981 69.855C82.686 69.7585 82.6358 69.6711 82.5585 69.6129L77.3624 65.4308L82.6454 61.3627L82.6459 61.3622C82.7694 61.2698 82.8202 61.1086 82.7714 60.9619C82.7222 60.8153 82.5851 60.7163 82.4304 60.7163L82.4303 60.7163Z" fill="#3CC4FF"></path> <path fill-rule="evenodd" clip-rule="evenodd" d="M61.8446 60.5015C61.6924 60.503 61.5573 60.6004 61.5086 60.7446C61.4594 60.8887 61.5071 61.0484 61.6271 61.1423L66.8232 65.3244L61.5402 69.3925H61.5397C61.4644 69.4508 61.4151 69.5362 61.4031 69.6306C61.3905 69.725 61.4161 69.8204 61.4744 69.8958C61.5322 69.9711 61.618 70.0203 61.712 70.0324C61.8064 70.0449 61.9018 70.0188 61.9771 69.961L67.6212 65.6152C67.708 65.5479 67.7598 65.4449 67.7608 65.335C67.7618 65.225 67.7126 65.1205 67.6272 65.0517L62.0765 60.5838C62.0112 60.5301 61.9294 60.501 61.8445 60.5015L61.8446 60.5015Z" fill="#3CC4FF"></path> <path fill-rule="evenodd" clip-rule="evenodd" d="M64.0588 76.2171C62.0986 76.1935 60.4719 77.7881 60.4548 79.7483V79.7488C60.4317 81.7079 62.0203 83.3353 63.986 83.3588H63.9865L79.8214 83.5235L79.8219 83.524H79.8224C81.7815 83.5401 83.4089 81.953 83.4324 79.9928C83.4485 78.0271 81.8594 76.4063 79.8941 76.3828H79.8936L64.06 76.2181H64.0595L64.0588 76.2171ZM64.0507 76.9342H64.0502H64.0512L79.8848 77.099H79.8853C81.4618 77.1185 82.7265 78.4083 82.7149 79.9847C82.6948 81.5522 81.397 82.8183 79.8286 82.8062H79.8276L63.994 82.6415H63.9935C62.4175 82.6219 61.1524 81.3242 61.1715 79.7557C61.1841 78.1883 62.4823 76.9151 64.0498 76.9348L64.0507 76.9342Z" fill="#3CC4FF"></path> </svg> 