<?xml version="1.0" encoding="UTF-8"?> <svg xmlns="http://www.w3.org/2000/svg" width="144" height="144" viewBox="0 0 144 144" fill="none"> <circle cx="72" cy="72" r="71.5" stroke="#3CC4FF"></circle> <path fill-rule="evenodd" clip-rule="evenodd" d="M71.542 88.9697C67.3816 86.4093 63.5113 83.3958 60.0003 79.9832C57.5319 77.5256 55.6528 74.5296 54.5068 71.2245C52.4445 64.8131 54.8534 57.4733 61.5947 55.3011C65.1376 54.1605 69.007 54.8124 71.9925 57.0528C74.9792 54.8151 78.8472 54.1635 82.3904 55.3011C89.1317 57.4733 91.5578 64.8131 89.4956 71.2245C88.3496 74.5296 86.4704 77.5256 84.0021 79.9832C80.4911 83.3958 76.6208 86.4093 72.4604 88.9697L72.0099 89.25L71.542 88.9697Z" stroke="black" stroke-linecap="round" stroke-linejoin="round"></path> <path d="M79.1671 62.5181C81.2089 63.1703 82.6597 65.0034 82.841 67.1602" stroke="black" stroke-linecap="round" stroke-linejoin="round"></path> </svg> 