<?xml version="1.0" encoding="UTF-8"?> <svg xmlns="http://www.w3.org/2000/svg" width="125" height="144" viewBox="0 0 125 144" fill="none"> <path d="M0.5 36.2887L62.3538 0.57735L124.208 36.2887V107.711L62.3538 143.423L0.5 107.711V36.2887Z" stroke="#3CC4FF"></path> <path d="M46.8067 87.6172C44.6867 87.6172 42.92 85.8506 42.92 83.7306V81.1865C42.92 79.0665 44.6867 77.2998 46.8067 77.2998C47.2308 77.2998 47.5134 77.5824 47.5134 78.0065C47.5134 78.4305 47.2308 78.7131 46.8067 78.7131C45.4641 78.7131 44.3334 79.8439 44.3334 81.1865V83.7306C44.3334 85.0731 45.4641 86.2039 46.8067 86.2039C47.2308 86.2039 47.5134 86.4865 47.5134 86.9106C47.5134 87.3346 47.16 87.6172 46.8067 87.6172Z" fill="black" stroke="#F0F0F0" stroke-width="0.4"></path> <path d="M77.1934 87.4761C76.7693 87.4761 76.4867 87.1935 76.4867 86.7694C76.4867 86.3454 76.7693 86.0628 77.1934 86.0628C78.5359 86.0628 79.6667 84.932 79.6667 83.5894V81.0454C79.6667 79.7028 78.5359 78.572 77.1934 78.572C76.7693 78.572 76.4867 78.2894 76.4867 77.8654C76.4867 77.4413 76.7693 77.1587 77.1934 77.1587C79.3134 77.1587 81.08 78.9254 81.08 81.0454V83.5894C81.08 85.7094 79.3841 87.4761 77.1934 87.4761Z" fill="black" stroke="#F0F0F0" stroke-width="0.4"></path> <path d="M62.636 104.295H61.3642C52.955 104.295 46.1002 97.44 46.1002 89.0308V79.0668C46.1002 76.876 46.595 74.756 47.4428 72.7068V72.636C48.7853 69.7386 51.0469 67.2653 53.8028 65.7109C54.1561 65.499 54.5802 65.6402 54.792 65.9935C55.0039 66.3468 54.8628 66.7709 54.5094 66.9827C52.0361 68.3961 49.9868 70.5868 48.7853 73.2012V73.272C47.9372 75.1094 47.5135 77.0171 47.5135 79.0668V89.1015C47.5135 96.7333 53.732 102.952 61.3642 102.952H62.636C70.2679 102.952 76.4867 96.7337 76.4867 89.1015V79.0668C76.4867 77.0883 76.0627 75.1094 75.2149 73.3427V73.272C74.0134 70.6571 71.9641 68.3961 69.42 66.9827C69.0667 66.7709 68.9252 66.3468 69.1374 65.9935C69.3493 65.6402 69.7734 65.5694 70.1267 65.7109C72.8826 67.2657 75.1441 69.6683 76.4867 72.5657V72.6365C77.4052 74.6857 77.9 76.8057 77.9 78.9965V89.0311C77.9 97.44 71.0452 104.295 62.636 104.295L62.636 104.295Z" fill="black" stroke="#F0F0F0" stroke-width="0.4"></path> <path d="M69.5614 82.953C66.7347 82.953 64.4732 80.6915 64.4732 77.8649C64.4732 77.4408 64.7558 77.1582 65.1799 77.1582C65.604 77.1582 65.8866 77.4408 65.8866 77.8649C65.8866 79.9141 67.5117 81.5397 69.5614 81.5397C71.6107 81.5397 73.2363 79.9146 73.2363 77.8649C73.2363 77.4408 73.5189 77.1582 73.9429 77.1582C74.367 77.1582 74.6496 77.4408 74.6496 77.8649C74.5785 80.6915 72.3174 82.953 69.5614 82.953Z" fill="black" stroke="#F0F0F0" stroke-width="0.4"></path> <path d="M66.3107 92.988H57.6892C57.2651 92.988 56.9825 92.7054 56.9825 92.2814C56.9825 91.8573 57.2651 91.5747 57.6892 91.5747H66.381C66.8051 91.5747 67.0877 91.8573 67.0877 92.2814C67.088 92.7051 66.7347 92.988 66.3106 92.988H66.3107Z" fill="black" stroke="#F0F0F0" stroke-width="0.4"></path> <path d="M54.4387 82.953C51.612 82.953 49.3505 80.6915 49.3505 77.8649C49.3505 77.4408 49.6331 77.1582 50.0572 77.1582C50.4813 77.1582 50.7639 77.4408 50.7639 77.8649C50.7639 79.9141 52.389 81.5397 54.4387 81.5397C56.4879 81.5397 58.1135 79.9146 58.1135 77.8649C58.1135 77.4408 58.3961 77.1582 58.8202 77.1582C59.2443 77.1582 59.5269 77.4408 59.5269 77.8649C59.5269 80.6915 57.2654 82.953 54.4387 82.953Z" fill="black" stroke="#F0F0F0" stroke-width="0.4"></path> <path d="M62 87.5464H58.3252C58.1134 87.5464 57.9011 87.4049 57.76 87.2638C57.6185 87.0519 57.6185 86.8397 57.6893 86.6279L61.3641 77.6532C61.5056 77.2999 61.9293 77.088 62.2826 77.2999C62.6359 77.4413 62.8478 77.865 62.6359 78.2183L59.3852 86.1332H62C62.4241 86.1332 62.7067 86.4158 62.7067 86.8399C62.7067 87.2639 62.4241 87.5465 62 87.5465L62 87.5464Z" fill="black" stroke="#F0F0F0" stroke-width="0.4"></path> <path d="M58.184 69.3853C55.2159 69.3853 52.7425 66.8412 52.7425 63.8027V63.3786C50.6933 61.8945 49.421 59.492 49.421 56.8771C49.421 55.393 49.8451 53.9797 50.5518 52.7786C49.8451 51.8601 49.421 50.7294 49.421 49.5986C49.421 46.9135 51.6825 44.5812 54.6503 44.0868C55.1451 41.5427 57.1236 39.7053 59.5262 39.7053C59.8088 39.7053 60.8687 39.6346 61.7169 40.412C62.3529 40.9771 62.6354 41.7545 62.6354 42.8145V67.2652C62.6354 67.5478 62.4939 67.76 62.2113 67.9011L59.5265 69.1733C59.4557 69.1733 59.4557 69.244 59.385 69.244C58.9613 69.3148 58.6079 69.3852 58.1838 69.3852L58.184 69.3853ZM59.7385 41.1186H59.6678C57.7596 41.1186 56.276 42.6734 56.0637 44.7935C56.0637 45.1468 55.7811 45.4294 55.4278 45.4294C52.8837 45.6412 50.9052 47.4079 50.9052 49.5986C50.9052 50.5879 51.3293 51.5068 52.036 52.2135C52.2478 52.4253 52.3185 52.8494 52.1067 53.132C51.3293 54.2627 50.9052 55.5345 50.9052 56.8771C50.9052 59.1386 52.0359 61.1879 53.9437 62.3889C54.1555 62.5304 54.297 62.813 54.2263 63.0956C54.2263 63.3075 54.1555 63.5197 54.1555 63.7315C54.1555 66.3464 56.417 68.3956 58.9607 67.83L61.2222 66.77V42.7434C61.2222 42.1074 61.0807 41.6834 60.7981 41.4008C60.5159 41.1185 59.9507 41.1185 59.7385 41.1185L59.7385 41.1186Z" fill="black" stroke="#F0F0F0" stroke-width="0.4"></path> <path d="M53.6614 54.3335C52.4599 54.3335 51.4707 53.6976 50.9763 53.2028C50.6937 52.9202 50.7644 52.4961 51.047 52.2136C51.3296 51.931 51.7537 52.0017 52.0362 52.2843C52.1777 52.4258 53.5911 53.8391 55.5696 52.2136C55.8521 52.0017 56.347 52.0017 56.5588 52.2843C56.7707 52.5669 56.7707 53.0617 56.4881 53.2735C55.4281 54.0509 54.5092 54.3335 53.6614 54.3335V54.3335Z" fill="black" stroke="#F0F0F0" stroke-width="0.4"></path> <path d="M65.816 69.3852C65.392 69.3852 65.0386 69.3145 64.6145 69.2437C64.5438 69.2437 64.5438 69.2437 64.473 69.173L61.7171 67.9012C61.4349 67.76 61.2934 67.5482 61.2934 67.2652V42.8145C61.2934 41.7545 61.576 40.9771 62.2119 40.412C63.06 39.6346 64.1904 39.7053 64.4027 39.7053C66.7345 39.7053 68.7842 41.5427 69.2786 44.0868C72.2467 44.5109 74.5078 46.8427 74.5078 49.5986C74.5078 50.7294 74.0837 51.8601 73.3771 52.7786C74.1545 54.0505 74.5078 55.4638 74.5078 56.8771C74.5078 59.4212 73.3063 61.8238 71.1863 63.3786V63.8027C71.1866 66.8412 68.7841 69.3849 65.8159 69.3849L65.816 69.3852ZM64.9682 67.8307C67.5123 68.3959 69.7734 66.3466 69.7734 63.7322C69.7734 63.5203 69.7734 63.3081 69.7027 63.0963C69.6319 62.8137 69.7734 62.5311 69.9853 62.3896C71.8934 61.1881 73.0237 59.0681 73.0237 56.8778C73.0237 55.5352 72.5997 54.1926 71.8222 53.1326C71.6104 52.85 71.6808 52.4967 71.893 52.2141C72.5996 51.4367 73.0237 50.5182 73.0237 49.5993C73.0237 47.4793 71.0452 45.6419 68.5011 45.43C68.1478 45.43 67.8652 45.1474 67.8652 44.7941C67.6534 42.6741 66.0986 41.1193 64.3319 41.1193H64.2611C64.2611 41.1193 63.5545 41.0485 63.0596 41.4726C62.777 41.7552 62.6356 42.1793 62.6356 42.8152V66.8419L64.9682 67.8307Z" fill="black" stroke="#F0F0F0" stroke-width="0.4"></path> <path d="M67.8654 64.5094C67.0172 64.5094 66.0279 64.2975 65.1094 63.5909C64.8269 63.379 64.6854 62.9549 64.968 62.6016C65.1798 62.319 65.6039 62.1775 65.9572 62.4601C67.9357 63.8735 69.9854 62.5309 70.0557 62.4601C70.409 62.2483 70.8331 62.3187 71.045 62.672C71.2568 63.0253 71.1864 63.4494 70.8331 63.6612C70.7627 63.6616 69.4909 64.5094 67.8653 64.5094L67.8654 64.5094Z" fill="black" stroke="#F0F0F0" stroke-width="0.4"></path> <path d="M68.6427 53.9801H68.5012C68.3598 53.9801 64.9679 53.4149 64.332 50.0226C64.2612 49.6693 64.5438 49.2452 64.8972 49.1745C65.2505 49.1038 65.6746 49.3864 65.7453 49.7397C66.1694 52.1423 68.7135 52.5663 68.7135 52.5663C69.0668 52.6371 69.3494 52.9904 69.2787 53.3438C69.2787 53.6974 68.9961 53.98 68.6428 53.98L68.6427 53.9801Z" fill="black" stroke="#F0F0F0" stroke-width="0.4"></path> </svg> 