<?xml version="1.0" encoding="UTF-8"?> <svg xmlns="http://www.w3.org/2000/svg" width="144" height="144" viewBox="0 0 144 144" fill="none"> <path d="M36.2077 36.2048L72 0.704232L107.792 36.2048L107.795 36.2077L143.296 72L107.795 107.792L107.792 107.795L72 143.296L36.2077 107.795L36.2048 107.792L0.704232 72L36.2048 36.2077L36.2077 36.2048Z" stroke="#3CC4FF"></path> <path d="M1 72.5H25.5M143 72.5H121" stroke="#3CC4FF"></path> <path d="M101.434 72.8485L98.7458 69.757V67.4048C98.7458 57.7954 90.9505 50 81.341 50C77.8465 50 74.621 51.0078 71.9332 52.7553C69.2455 51.0082 66.0195 50 62.5255 50C52.9161 50 45.1207 57.7953 45.1207 67.4048V69.757L42.4329 72.8485C41.6267 73.7892 41.4251 75.1331 41.9623 76.2755C42.4999 77.4179 43.6423 78.1571 44.9192 78.1571H45.1208V82.4579C45.1208 85.2803 47.4054 87.565 50.2278 87.565H54.4616C54.7302 87.565 54.9992 87.8336 54.9992 88.1027V89.9843C54.9992 91.7988 56.4776 93.2098 58.2247 93.2098H67.7C69.4471 93.2098 70.8584 91.8659 70.9255 90.1183C70.9925 88.1698 71.2616 86.6238 71.6647 85.2128C71.7318 84.9442 71.7992 84.7422 71.9333 84.4736C72.0003 84.7422 72.0678 84.9442 72.2019 85.2128C72.605 86.6243 72.8741 88.2367 72.9411 90.1183C73.0082 91.8654 74.4195 93.2098 76.1666 93.2098H85.6419C87.4564 93.2098 88.8674 91.7314 88.8674 89.9843V88.1027C88.8674 87.8341 89.136 87.565 89.4051 87.565H93.6388C96.4612 87.565 98.7459 85.2803 98.7459 82.4579V78.1571H98.9474C100.224 78.1571 101.367 77.4179 101.904 76.2755C102.442 75.1337 102.307 73.7897 101.434 72.8485H101.434ZM69.1775 84.4744C68.7069 86.1544 68.4383 87.9015 68.3713 90.052C68.3713 90.3206 68.1027 90.5897 67.8336 90.5897H58.3583C58.0897 90.5897 57.8207 90.3211 57.8207 90.052V88.1704C57.8207 86.3559 56.3422 84.9449 54.5952 84.9449H50.3615C49.0176 84.9449 47.9423 83.8696 47.9423 82.5257V76.8811C47.9423 76.1418 47.3376 75.5372 46.5984 75.5372L44.9855 75.5367C44.6494 75.5367 44.5148 75.3352 44.5148 75.2006C44.4478 75.0661 44.3803 74.8645 44.5819 74.5959L47.6057 71.1014C47.8073 70.8328 47.9418 70.5637 47.9418 70.2277V67.4053C47.9418 59.2738 54.5273 52.6885 62.6586 52.6885C65.2123 52.6885 67.6986 53.3607 69.7817 54.503C66.2872 57.6614 64.0695 62.2983 64.0695 67.3382C64.0695 69.8245 64.6071 72.2437 65.6149 74.5288C66.3542 76.2088 67.4295 77.4857 68.5043 78.6951C68.8404 79.1657 69.2435 79.5688 69.5796 80.039C69.9157 80.4421 70.1843 80.9127 70.5204 81.3159C69.9166 82.3912 69.5135 83.4661 69.1775 84.4743L69.1775 84.4744ZM77.3085 67.4056C77.3085 69.4887 76.8379 71.5719 76.0316 73.4534C75.4269 74.7973 74.4861 75.8726 73.5453 77.015C73.1422 77.4856 72.739 77.9558 72.403 78.4264C72.2684 78.561 72.2014 78.7625 72.0669 78.897C71.9323 78.7625 71.8653 78.561 71.7308 78.4264C71.3276 77.9558 70.9915 77.4856 70.5884 77.015C69.6477 75.8726 68.7068 74.7303 68.1021 73.4534C67.2284 71.5718 66.8252 69.4887 66.8252 67.4056C66.8252 62.9032 68.9083 58.804 72.1338 56.1163C75.2252 58.804 77.3083 62.8363 77.3083 67.4056H77.3085ZM99.4845 75.2009C99.4175 75.3355 99.2829 75.537 99.0139 75.537H97.4684C96.7292 75.537 96.1245 76.1417 96.1245 76.8809V82.5256C96.1245 83.8695 95.0492 84.9448 93.7053 84.9448H89.4716C87.6571 84.9448 86.2461 86.4232 86.2461 88.1703V90.0519C86.2461 90.3205 85.9775 90.5895 85.7084 90.5895L76.166 90.59C75.8975 90.59 75.6284 90.3884 75.6284 90.0523C75.5614 87.9017 75.2923 86.1547 74.8221 84.4747C74.5535 83.3994 74.0829 82.3917 73.5452 81.3833C73.8138 80.9802 74.1499 80.5096 74.486 80.1064C74.8221 79.6358 75.2252 79.2326 75.5613 78.7625C76.5691 77.4856 77.7119 76.2088 78.4507 74.5962C79.4585 72.3786 79.9961 69.8923 79.9961 67.4056C79.9961 62.2985 77.7785 57.7287 74.2839 54.5704C76.367 53.4281 78.8533 52.7559 81.407 52.7559C89.5384 52.7559 96.1238 59.3414 96.1238 67.4727V70.2951C96.1238 70.6312 96.2583 70.8998 96.4599 71.1688L99.4837 74.6633C99.6187 74.7979 99.5517 75.0665 99.4842 75.201L99.4845 75.2009Z" fill="black" stroke="#F0F0F0" stroke-width="1.8"></path> </svg> 