<svg width="1021" height="594" viewBox="0 0 1021 594" fill="none" xmlns="http://www.w3.org/2000/svg">
<mask id="mask0_1_601" style="mask-type:luminance" maskUnits="userSpaceOnUse" x="0" y="0" width="1429" height="1454">
<path d="M0.137878 0.56543L0.137878 1453.57H1428.14V0.56543H0.137878Z" fill="white"/>
</mask>
<g mask="url(#mask0_1_601)">
<path d="M900.439 1453.1C662.012 1453.1 432.971 1358.93 264.377 1190.62C95.7829 1022.31 0.610521 794.238 0.610535 556.208" stroke="#C6EC64"/>
<path d="M556.207 1.04004C408.845 1.04004 268.008 59.7416 163.807 163.767C59.6068 267.794 0.610537 409.093 0.610535 556.209" stroke="#C6EC64"/>
<path d="M900.06 344.09C900.06 253.176 863.884 165.985 799.491 101.7C735.097 37.4137 647.272 1.03907 556.206 1.03906" stroke="#C6EC64"/>
<path d="M687.658 555.735C743.953 555.735 798.083 533.672 837.89 493.931C877.697 454.191 900.06 400.292 900.06 344.091" stroke="#C6EC64"/>
</g>
</svg>
