<?xml version="1.0" encoding="UTF-8"?> <svg xmlns="http://www.w3.org/2000/svg" width="27" height="27" viewBox="0 0 27 27" fill="none"> <path d="M21.2636 0.82212C21.2232 0.682126 21.1106 0.575171 20.969 0.540654C20.8271 0.50643 20.6778 0.550833 20.5778 0.656604C20.5558 0.679765 18.2901 3.01605 11.0153 5.7477C5.1021 7.96874 3.1489 12.3256 5.04395 19.0659C5.08776 19.2211 5.2189 19.3359 5.37867 19.358C5.53843 19.3812 5.69583 19.3059 5.78053 19.1689C8.14631 15.3252 11.2829 12.7281 13.3777 11.3172C10.0296 15.0798 6.92254 19.6247 6.88591 19.6783C6.81171 19.7873 6.79518 19.9254 6.84136 20.0492C6.88753 20.1727 6.99079 20.266 7.1184 20.2995C7.93933 20.5149 8.78183 20.6199 9.62916 20.6199C12.6313 20.6199 15.6904 19.3002 18.0311 16.9023C21.8933 12.9457 23.0712 7.08493 21.264 0.821985L21.2636 0.82212ZM17.4497 16.3356C14.806 19.0438 11.1966 20.2802 7.89784 19.6449C8.98978 18.0887 12.5161 13.1826 15.7707 9.96197C15.8821 9.85177 15.9247 9.67991 15.8729 9.53179C15.8215 9.38397 15.686 9.27731 15.5304 9.2605C15.1895 9.22583 13.329 10.2878 11.6319 11.5813C9.94269 12.8692 7.58389 14.9869 5.59405 17.9568C4.21533 12.1326 6.04383 8.48227 11.3003 6.50792C16.9428 4.38923 19.6313 2.51503 20.6547 1.67589C22.1267 7.41126 20.9734 12.7259 17.4496 16.3359L17.4497 16.3356Z" fill="black"></path> </svg> 