<?xml version="1.0" encoding="UTF-8"?> <svg xmlns="http://www.w3.org/2000/svg" width="371" height="371" viewBox="0 0 371 371" fill="none"> <path d="M317.625 184.193L315.114 185.525L317.625 186.856C325.928 191.259 333.727 196.957 340.722 203.953C378.49 241.721 378.49 302.954 340.722 340.722C302.955 378.489 241.721 378.489 203.953 340.722C196.958 333.726 191.26 325.928 186.857 317.624L185.525 315.113L184.194 317.624C179.791 325.928 174.093 333.726 167.097 340.722C129.33 378.489 68.0962 378.489 30.3285 340.722C-7.43912 302.954 -7.43911 241.721 30.3285 203.953C37.3241 196.957 45.1227 191.259 53.4263 186.856L55.9372 185.525L53.4263 184.193C45.1227 179.791 37.3242 174.092 30.3285 167.097C-7.43911 129.329 -7.43911 68.0956 30.3285 30.328C68.0962 -7.43967 129.33 -7.43966 167.097 30.328C174.093 37.3236 179.791 45.1221 184.194 53.4257L185.525 55.9367L186.857 53.4257C191.26 45.1221 196.958 37.3236 203.953 30.328C241.721 -7.43966 302.955 -7.43967 340.722 30.328C378.49 68.0956 378.49 129.329 340.722 167.097C333.727 174.092 325.928 179.791 317.625 184.193Z" stroke="#C6EC64" stroke-width="3.01389"></path> </svg> 