<?xml version="1.0" encoding="UTF-8"?> <svg xmlns="http://www.w3.org/2000/svg" width="1161" height="491" viewBox="0 0 1161 491" fill="none"> <circle cx="580.4" cy="245.476" r="244.8" stroke="#C6EC64"></circle> <path d="M825 47.676V442.676L1160 245.176L825 47.676Z" stroke="#C6EC64"></path> <mask id="path-3-inside-1_41_2806" fill="white"> <path fill-rule="evenodd" clip-rule="evenodd" d="M167.999 66.6757C131.917 66.6757 102.666 95.9263 102.666 132.009V169.342H65.3333C29.2507 169.342 -1.57722e-06 198.593 0 234.675C2.85581e-06 270.758 29.2507 300.009 65.3333 300.009H102.666V337.342C102.666 373.425 131.917 402.676 167.999 402.676C204.082 402.676 233.333 373.425 233.333 337.342V300.009H270.667C306.749 300.009 336 270.758 336 234.675C336 198.593 306.749 169.342 270.667 169.342H233.333V132.009C233.333 95.9264 204.082 66.6757 167.999 66.6757Z"></path> </mask> <path d="M102.666 169.342V170.342H103.666V169.342H102.666ZM0 234.675H-1H0ZM102.666 300.009H103.666V299.009H102.666V300.009ZM233.333 300.009V299.009H232.333V300.009H233.333ZM233.333 169.342H232.333V170.342H233.333V169.342ZM103.666 132.009C103.666 96.4786 132.469 67.6757 167.999 67.6757V65.6757C131.364 65.6757 101.666 95.3741 101.666 132.009H103.666ZM103.666 169.342V132.009H101.666V169.342H103.666ZM65.3333 170.342H102.666V168.342H65.3333V170.342ZM1 234.675C0.999998 199.145 29.803 170.342 65.3333 170.342V168.342C28.6984 168.342 -1 198.041 -1 234.675H1ZM65.3333 299.009C29.803 299.009 1 270.206 1 234.675H-1C-0.999997 271.31 28.6984 301.009 65.3333 301.009V299.009ZM102.666 299.009H65.3333V301.009H102.666V299.009ZM103.666 337.342V300.009H101.666V337.342H103.666ZM167.999 401.676C132.469 401.676 103.666 372.873 103.666 337.342H101.666C101.666 373.977 131.364 403.676 167.999 403.676V401.676ZM232.333 337.342C232.333 372.873 203.53 401.676 167.999 401.676V403.676C204.634 403.676 234.333 373.977 234.333 337.342H232.333ZM232.333 300.009V337.342H234.333V300.009H232.333ZM270.667 299.009H233.333V301.009H270.667V299.009ZM335 234.675C335 270.206 306.197 299.009 270.667 299.009V301.009C307.301 301.009 337 271.31 337 234.675H335ZM270.667 170.342C306.197 170.342 335 199.145 335 234.675H337C337 198.041 307.301 168.342 270.667 168.342V170.342ZM233.333 170.342H270.667V168.342H233.333V170.342ZM232.333 132.009V169.342H234.333V132.009H232.333ZM167.999 67.6757C203.53 67.6757 232.333 96.4787 232.333 132.009H234.333C234.333 95.3741 204.634 65.6757 167.999 65.6757V67.6757Z" fill="#C6EC64" mask="url(#path-3-inside-1_41_2806)"></path> </svg> 