<svg width="1647" height="416" viewBox="0 0 1647 416" fill="none" xmlns="http://www.w3.org/2000/svg">
<path d="M1420.77 57.2584C1430.85 46.2749 1446.05 41.4233 1460.77 44.4873L1554.3 63.9473C1569.33 67.0756 1581.58 77.975 1586.38 92.4904L1615.51 180.585C1620.31 195.1 1616.92 210.994 1606.63 222.208L1542.61 291.965C1532.53 302.948 1517.33 307.8 1502.61 304.736L1409.08 285.276C1394.05 282.148 1381.8 271.248 1377 256.733L1347.86 168.639C1343.06 154.123 1346.46 138.229 1356.75 127.015L1420.77 57.2584Z" stroke="#779C34" stroke-opacity="0.7"/>
<path d="M1503.41 166.952L1503.34 166.732C1492.38 170.292 1486.88 172.079 1483.31 170.261C1479.74 168.443 1477.95 162.943 1474.39 151.985L1474.17 152.057L1473.95 152.129C1477.51 163.086 1479.3 168.585 1477.48 172.155C1475.67 175.723 1470.16 177.51 1459.21 181.07L1459.35 181.512C1470.31 177.952 1475.81 176.165 1479.38 177.983C1482.95 179.801 1484.73 185.301 1488.29 196.258L1488.73 196.115C1485.17 185.158 1483.39 179.659 1485.2 176.089C1487.02 172.521 1492.52 170.734 1503.48 167.174L1503.41 166.952Z" fill="white"/>
<path d="M293.259 171.753L292.665 172.486L293.604 172.567C300.366 173.15 307.157 174.738 313.78 177.413C349.538 191.861 366.814 232.56 352.367 268.318C337.919 304.076 297.22 321.352 261.462 306.905C254.839 304.229 248.852 300.654 243.582 296.376L242.85 295.782L242.769 296.721C242.185 303.483 240.598 310.274 237.922 316.897C223.475 352.655 182.776 369.931 147.018 355.484C111.259 341.036 93.9836 300.337 108.431 264.579C111.106 257.957 114.682 251.969 118.959 246.699L119.554 245.967L118.614 245.886C111.852 245.302 105.061 243.715 98.4387 241.039C62.6807 226.592 45.4048 185.893 59.852 150.135C74.2992 114.376 114.999 97.1006 150.757 111.548C157.379 114.223 163.367 117.799 168.636 122.076L169.369 122.671L169.45 121.731C170.033 114.969 171.621 108.178 174.296 101.556C188.744 65.7977 229.443 48.5218 265.201 62.969C300.959 77.4162 318.235 118.116 303.788 153.874C301.112 160.496 297.537 166.484 293.259 171.753Z" stroke="#779C34" stroke-opacity="0.7"/>
<path d="M228.724 218.607L228.814 218.383C217.711 213.898 212.139 211.646 210.511 207.814C208.885 203.983 211.137 198.409 215.622 187.307L215.399 187.217L215.176 187.127C210.69 198.229 208.439 203.802 204.607 205.429C200.775 207.055 195.202 204.803 184.099 200.317L183.918 200.765C195.021 205.251 200.593 207.502 202.221 211.334C203.847 215.166 201.595 220.739 197.11 231.842L197.556 232.022C202.042 220.92 204.293 215.347 208.125 213.72C211.957 212.093 217.529 214.345 228.633 218.831L228.724 218.607Z" fill="white"/>
</svg>
