<svg width="104" height="120" viewBox="0 0 104 120" fill="none" xmlns="http://www.w3.org/2000/svg">
<path d="M0.5 30.2887L51.9615 0.57735L103.423 30.2887V89.7113L51.9615 119.423L0.5 89.7113V30.2887Z" stroke="white"/>
<path d="M60.1678 72.5652C60.5942 72.5652 60.9398 72.2192 60.9398 71.7928V65.1769C62.5692 64.8587 64.091 64.0637 65.3018 62.8529C67.3116 60.8434 68.1765 57.9775 67.6163 55.1869C67.5548 54.8818 67.316 54.643 67.0109 54.5819C64.8952 54.157 62.7366 54.5521 60.9398 55.6439V39.7474C62.2605 39.4749 63.2559 38.3033 63.2559 36.9037C63.2559 35.3025 61.9534 34 60.3526 34H39.9037C38.3025 34 37 35.3025 37 36.9037C37 38.3033 37.9958 39.4749 39.3161 39.7474V41.3665C39.3161 41.7929 39.662 42.1385 40.0885 42.1385C40.515 42.1385 40.861 41.7929 40.861 41.3665V39.8073H59.3953V49.4204C56.0826 48.8706 52.6593 49.837 50.1277 52.0488C47.5966 49.837 44.1732 48.8706 40.861 49.4204V44.4558C40.861 44.0293 40.515 43.6833 40.0885 43.6833C39.662 43.6833 39.3161 44.0293 39.3161 44.4558V75.6224C39.3161 81.3448 43.9721 86 49.6945 86H50.5618C54.032 86 57.2578 84.2762 59.191 81.3896C59.4283 81.0353 59.3334 80.5553 58.9792 80.3181C58.6249 80.0808 58.1448 80.1756 57.9076 80.5303C56.262 82.988 53.5158 84.4555 50.5618 84.4555H49.6945C44.8235 84.4555 40.861 80.493 40.861 75.6224V56.7889C41.4715 56.8904 42.0857 56.9412 42.6978 56.9412C45.6507 56.9412 48.5448 55.7804 50.674 53.6512C52.9532 51.3719 56.2477 50.3793 59.3953 50.9887V56.8468C59.3787 56.8635 59.3616 56.8793 59.3449 56.896C57.4014 58.8396 56.5282 61.5845 56.9804 64.2878C56.1862 65.8573 56.0759 67.3978 56.325 68.9129L55.0317 67.6192C55.4304 64.9619 54.5552 62.2784 52.6454 60.3686C50.636 58.3591 47.77 57.4939 44.9794 58.054C44.6743 58.1155 44.4355 58.354 44.3744 58.6591C43.8138 61.45 44.6791 64.316 46.6885 66.3254C48.2949 67.9318 50.4491 68.807 52.6743 68.807C53.0949 68.807 53.5178 68.7756 53.9403 68.7122L57.2498 72.0217C57.5101 72.6751 57.7961 73.3237 58.0806 73.9676C59.675 77.5786 61.181 80.9889 58.2301 84.7511C57.9671 85.0867 58.0258 85.5723 58.3615 85.8354C58.5027 85.9464 58.6709 86 58.8375 86C59.0664 86 59.2934 85.8984 59.4457 85.7044C62.9683 81.2127 61.1223 77.0323 59.4933 73.344C58.2535 70.5363 57.0796 67.8759 58.2278 65.2622C58.5912 65.309 58.9542 65.3344 59.316 65.3344C59.3426 65.3344 59.3687 65.3328 59.3953 65.3324V71.7928C59.3953 72.2192 59.7413 72.5652 60.1678 72.5652ZM40.861 55.2202V50.9891C43.7436 50.4309 46.7492 51.2176 48.9856 53.1053C46.7496 54.9925 43.744 55.7788 40.861 55.2202ZM38.5445 36.9037C38.5445 36.1542 39.1542 35.5445 39.9037 35.5445H60.3526C61.1021 35.5445 61.7114 36.1542 61.7114 36.9037C61.7114 37.6527 61.1021 38.2625 60.3526 38.2625H39.9037C39.1542 38.2625 38.5445 37.6531 38.5445 36.9037ZM47.7807 65.2332C46.2624 63.715 45.5432 61.598 45.8042 59.4843C47.918 59.2228 50.0349 59.9421 51.5532 61.4604C53.0719 62.9786 53.7911 65.0956 53.5297 67.2097C51.4155 67.4708 49.299 66.7515 47.7807 65.2332ZM58.4606 63.7372C58.1996 61.623 58.9189 59.5065 60.4371 57.9882C61.9554 56.4699 64.0728 55.7506 66.1861 56.0117C66.4472 58.1259 65.7283 60.2424 64.2096 61.7611C62.6913 63.2794 60.5744 63.9986 58.4606 63.7372Z" fill="white"/>
</svg>
