<?xml version="1.0" encoding="UTF-8"?> <svg xmlns="http://www.w3.org/2000/svg" xmlns:xlink="http://www.w3.org/1999/xlink" width="103px" height="83px" viewBox="0 0 103 83"> <title>композиция</title> <g id="Faculty" stroke="none" stroke-width="1" fill="none" fill-rule="evenodd"> <path d="M3.0904557,82.7408381 L2.75145768,77.9611612 L4.95426529,77.8049274 L8.43122511,82.3620447 L10.7171575,82.1999152 L6.63945634,76.82909 L9.7342183,70.9913302 L7.46906707,71.1519858 L4.83782684,76.1632122 L2.63501922,76.3194461 L2.29454729,71.518988 L0.257989311,71.6634306 L1.05389772,82.8852808 L3.0904557,82.7408381 Z M18.1804295,81.2080945 C19.8159591,80.887407 21.1512423,80.0099174 21.9124885,78.5868491 C22.603984,77.2411476 22.7074109,75.819681 22.4147835,74.3272603 C22.1301734,72.8757279 21.510039,71.5536739 20.337111,70.5523103 C19.1192863,69.5385198 17.4901722,69.2422763 15.8955309,69.5549466 C14.3008896,69.867617 12.8918471,70.8020292 12.1799075,72.1517393 C11.5008389,73.452544 11.3889937,74.9393515 11.681621,76.4317722 C11.9662312,77.8833047 12.5863656,79.2053587 13.755285,80.1862781 C14.9731097,81.2000686 16.5857883,81.5207648 18.1804295,81.2080945 Z M17.8116389,79.3272356 C16.8098771,79.5236567 15.7932843,79.3196137 15.0929751,78.6714134 C14.3722218,78.0272216 13.987795,77.041093 13.7873653,76.018887 C13.5869356,74.9966811 13.5664944,73.9179537 13.9906117,73.0492806 C14.394285,72.1846162 15.2625597,71.6322267 16.2643216,71.4358056 C17.2660834,71.2393845 18.2786676,71.4229833 18.9994209,72.0671751 C19.7201742,72.7113668 20.1086096,73.7179396 20.3090393,74.7401455 C20.509469,75.7623515 20.5259016,76.8206348 20.1017843,77.6893078 C19.6776669,78.5579809 18.8134007,79.1308144 17.8116389,79.3272356 Z M29.2519546,78.2134315 L26.9935791,71.741981 L31.8477662,75.8512311 L33.04764,75.4325049 L34.2715021,69.2021666 L36.5298776,75.6736171 L38.4575437,75.0009095 L34.7311175,64.3859403 L33.0198221,64.9831399 L31.4425355,72.7931412 L25.3484979,67.6602415 L23.6175324,68.2643055 L27.3242885,78.8861391 L29.2519546,78.2134315 Z M44.4786003,72.3756563 L40.2322677,64.1813427 L45.3005339,61.5549428 L49.5468665,69.7492565 L51.3226094,68.829058 L46.1464929,58.8405041 L37.5082435,63.3168863 L42.68436,73.3054402 L44.4786003,72.3756563 Z M59.4232354,64.0514298 C60.7895833,63.0970238 61.6562448,61.7546874 61.7773284,60.1453528 C61.8658848,58.6349766 61.3859281,57.2929982 60.5150326,56.0462058 C59.6679973,54.8335721 58.5664033,53.8749877 57.0888089,53.4331689 C55.5651257,52.998131 53.9552818,53.3856554 52.6230926,54.3162013 C51.2909034,55.2467471 50.3797846,56.6709626 50.2741489,58.1932689 C50.1788117,59.6575563 50.6774793,61.0627028 51.5483748,62.3094952 C52.3954101,63.522129 53.4970041,64.4807134 54.9626684,64.9054528 C56.4863516,65.3404907 58.0910463,64.9819757 59.4232354,64.0514298 Z M58.3256685,62.4801298 C57.4887804,63.0647035 56.476459,63.2889793 55.5739038,62.9791554 C54.6542693,62.6812616 53.9040514,61.9346649 53.3075476,61.0806975 C52.7110439,60.2267301 52.2563242,59.2483126 52.2931332,58.2823347 C52.3128628,57.3282867 52.8837715,56.472075 53.7206595,55.8875013 C54.5575476,55.3029277 55.557939,55.0615725 56.4775735,55.3594662 C57.397208,55.65736 58.159356,56.4210361 58.7558597,57.2750035 C59.3523635,58.1289709 59.7951531,59.090309 59.7583441,60.056287 C59.7215352,61.022265 59.1625566,61.8955561 58.3256685,62.4801298 Z M70.1971438,55.6259582 C70.9541117,54.9410439 71.6595797,54.1060577 72.019286,53.106295 C72.4312193,51.9468941 72.2899372,50.6418493 71.4108036,49.6391787 C70.7273597,48.8527847 69.8357353,48.3952334 68.8109744,48.5357719 C68.9139411,47.6559278 68.6395226,46.9489729 67.9965418,46.2383499 C67.1255041,45.3688323 66.0065662,45.0326702 64.7655288,45.3688985 C63.9143839,45.5771123 62.9543738,46.1928809 62.2437509,46.8358617 C61.5485763,47.4648646 60.8416379,48.3292769 60.5172396,49.2128055 C60.177393,50.1103119 60.1877195,51.0843164 60.7181506,51.9810627 L62.5381284,50.9805233 C62.3203649,50.6156455 62.2931361,50.2750388 62.4343685,49.8101021 C62.5785418,49.286313 63.0199178,48.7183764 63.5297125,48.2571075 C64.0395072,47.7958387 64.6177206,47.4412376 65.1841702,47.3220459 C65.6917675,47.1999133 66.2310049,47.3301088 66.5524953,47.6854202 C66.9438749,48.1179733 67.0689485,48.5667182 66.6496463,49.2832562 C66.3921798,49.7128848 65.9890529,50.1057349 65.5873964,50.4691589 L64.7995319,51.1820289 L65.9037815,52.4024465 L66.6916461,51.6895765 C67.1396475,51.284219 67.5861784,50.9082877 68.0702314,50.6669799 C68.7381938,50.2873641 69.3237762,50.3756261 69.8409564,50.9472141 C70.232336,51.3797672 70.2941459,51.9138496 70.1021571,52.5089984 C69.9101683,53.1041472 69.4673219,53.70151 68.9111822,54.2047124 C68.3550425,54.7079147 67.6856096,55.1169567 67.0897339,55.2346779 C66.5836071,55.3273844 66.1171999,55.2155782 65.7184678,54.930156 L64.570897,56.6427887 C65.4272133,57.2165742 66.3725352,57.485061 67.5083753,57.1878253 C68.4786953,56.9560673 69.4092793,56.3388282 70.1971438,55.6259582 Z M77.6138577,47.9773649 L75.2742529,38.4321044 L81.3376636,43.6508688 L82.6695357,42.1034359 L74.1428645,34.7645485 L72.9740787,36.1224998 L75.2031526,45.5726266 L69.2502729,40.448996 L67.9184007,41.9964289 L76.445072,49.3353163 L77.6138577,47.9773649 Z M93.2811459,29.7872137 L90.0809144,27.7150708 L89.084474,29.2539799 L81.3374654,24.2378087 L80.2504396,25.9166187 L87.9974482,30.9327899 L84.8948954,35.7243935 L77.1478867,30.7082223 L76.0495377,32.4045199 L85.492844,38.5190401 L90.6901862,30.4922298 L92.1941201,31.4660237 L93.2811459,29.7872137 Z M94.5068098,23.7775377 L89.680363,15.2165121 L96.9262666,18.6072836 L97.7916197,16.7580687 L87.6020679,11.9897962 L86.8426763,13.6125766 L91.5370363,22.1117914 L84.4232195,18.7828307 L83.5578664,20.6320457 L93.7474183,25.4003182 L94.5068098,23.7775377 Z M100.06882,10.9412656 L96.8495392,7.87691024 L97.8272887,4.82118103 L101.637029,6.04019344 L102.259233,4.09563848 L91.5379896,0.687008475 L89.7475651,6.28256456 C89.4682081,7.15563005 89.5134738,8.17631373 89.9389128,9.03428158 C90.3707008,9.87240703 91.189011,10.5279743 92.1017613,10.8200293 C93.0145116,11.1120844 94.0613867,11.0533253 94.8995121,10.6215373 C95.2923835,10.4191367 95.6185832,10.1516552 95.8979538,9.82544183 L99.3640788,13.1437717 L100.06882,10.9412656 Z M96.0017881,4.23707091 L94.852615,7.82854486 C94.7129365,8.2650776 94.3740387,8.5722439 93.961325,8.76829549 C93.5748027,8.95085371 93.1271625,8.98261243 92.7303146,8.85563197 C92.3136242,8.72230249 91.9675685,8.43658285 91.7651679,8.04371155 C91.5365758,7.66433361 91.4651323,7.20399543 91.5984618,6.78730509 L92.7476349,3.19583114 L96.0017881,4.23707091 Z" id="композиция" fill="#000000" fill-rule="nonzero"></path> </g> </svg> 