<?xml version="1.0" encoding="UTF-8"?> <svg xmlns="http://www.w3.org/2000/svg" xmlns:xlink="http://www.w3.org/1999/xlink" width="35px" height="22px" viewBox="0 0 35 22"> <title>арт</title> <g id="Faculty" stroke="none" stroke-width="1" fill="none" fill-rule="evenodd"> <path d="M9.36988613,19.2759113 C9.85605493,18.6507598 10.2449645,17.7257188 10.240829,16.8963083 L11.1667799,18.8320892 L12.783063,18.0589651 L9.73551572,11.6878026 C9.45683145,11.1051889 9.01062999,10.510328 8.41326225,10.0339633 C6.93332763,8.87124277 5.09637092,8.94162815 3.23576593,9.83161985 C1.65707078,10.5867643 0.583402142,11.7700669 0.256638798,13.4043934 L0.182309058,13.9249246 L2.24153621,13.9329726 C2.24397928,13.7932392 2.28401034,13.6355262 2.31423723,13.505597 C2.51602124,12.6238763 3.15172759,11.9733841 4.01625113,11.5598526 C4.70263894,11.2084354 5.4789249,11.0449582 6.19394273,11.1879171 C6.79782534,11.2916594 7.3224602,11.6642499 7.6583408,12.1733163 L5.83861308,13.3901669 C4.4053837,14.3528597 3.40767351,14.9224755 2.614286,16.0640864 C1.92548698,17.0863867 1.80135386,18.3235644 2.32276314,19.4136158 C2.68235574,20.1653754 3.16858826,20.6025233 3.90650374,21.0347533 C4.80213224,21.5070142 6.0875165,21.5388061 7.13916558,21.0819543 C8.02166874,20.7060107 8.78730431,20.0857453 9.36988613,19.2759113 Z M6.60218789,19.2834317 C5.57913698,19.70351 4.47758895,19.2835592 4.09184126,18.4288398 C3.49033801,17.1230647 4.96196973,16.0958146 6.34862133,15.1323075 C7.31118661,14.4409379 7.92402717,14.0323245 8.46169178,13.6596702 C8.7673455,14.2986659 9.04602977,14.8812796 9.04036111,15.7384739 C9.15322063,17.2779842 7.90714864,18.7285063 6.60218789,19.2834317 Z M18.7269551,21.2340051 L16.913331,15.5583771 C18.0068099,16.1056796 19.2846382,16.1347788 20.5547088,15.7289328 C22.023228,15.2596734 23.1760963,14.2132716 23.7139995,12.8165994 C24.2455613,11.4000823 24.119185,9.90948113 23.6689496,8.50049656 C23.2123729,7.07166713 22.3985888,5.75698188 21.1964862,4.93819272 C19.9681975,4.10590004 18.3888175,3.95444847 16.9401432,4.41736653 C15.610538,4.84223653 14.5053423,5.76404867 13.9175293,6.93608617 L13.562414,5.82477439 L11.8557567,6.37012991 L16.8020044,21.8491154 L18.7269551,21.2340051 Z M19.7585324,14.0586819 C18.7861346,14.3694077 17.8186617,14.2848781 17.0275553,13.794052 C16.2039214,13.2698776 15.6170092,12.2545068 15.2745767,11.1828847 C14.9258028,10.0914178 14.8215085,8.94369963 15.1885658,8.03904462 C15.5024298,7.17325849 16.2678005,6.55687689 17.2005086,6.25883375 C18.2125961,5.93542525 19.2197587,6.00727216 20.0290683,6.62350868 C20.7669815,7.15320361 21.2888385,8.10187769 21.6249297,9.15365491 C21.9546796,10.1855873 22.0994844,11.2547469 21.8054652,12.1141917 C21.5034631,13.0855434 20.6912405,13.7606387 19.7585324,14.0586819 Z M32.4782646,12.4611184 L30.7932448,3.17522903 L34.6059941,2.48336659 L34.282381,0.699983869 L24.6685132,2.44451872 L24.9921263,4.22790145 L28.8048756,3.53603901 L30.4898954,12.8219284 L32.4782646,12.4611184 Z" id="арт" fill="#000000" fill-rule="nonzero"></path> </g> </svg> 