<svg width="282" height="164" viewBox="0 0 282 164" fill="none" xmlns="http://www.w3.org/2000/svg">
<path d="M110.59 35H10.4102C4.88731 35 0.410156 39.4772 0.410156 45V154C0.410156 159.523 4.88731 164 10.4102 164H110.59C116.112 164 120.59 159.523 120.59 154V45C120.59 39.4772 116.112 35 110.59 35Z" fill="#FF94A5"/>
<path d="M6 1L280.5 1.5" stroke="black" stroke-width="1.3" stroke-linecap="round"/>
<path d="M25.5 1V51" stroke="black" stroke-width="1.3" stroke-linecap="round"/>
<path d="M25.5 62C28.5376 62 31 59.5376 31 56.5C31 53.4624 28.5376 51 25.5 51C22.4624 51 20 53.4624 20 56.5C20 59.5376 22.4624 62 25.5 62Z" fill="white" stroke="black" stroke-width="1.3"/>
<path d="M95.5 1V51" stroke="black" stroke-width="1.3" stroke-linecap="round"/>
<path d="M95.5 62C98.5376 62 101 59.5376 101 56.5C101 53.4624 98.5376 51 95.5 51C92.4624 51 90 53.4624 90 56.5C90 59.5376 92.4624 62 95.5 62Z" fill="white" stroke="black" stroke-width="1.3"/>
<path fill-rule="evenodd" clip-rule="evenodd" d="M60.4688 132.004L65.4185 130.59L68.6005 124.579L74.6109 126.347L79.9142 124.579L82.0355 119.629L79.9142 113.265L85.5711 110.437L87.3388 104.427L84.864 99.8304L80.2678 97.3555L82.0355 92.0522L79.9142 87.1025L75.6716 84.9812L68.9541 86.7489L66.8327 81.7992L62.9436 79.3243L57.9939 80.7385L54.8119 83.9205L53.7513 87.1025L49.8622 85.3347C47.2694 85.099 45.9731 84.9812 45.9731 84.9812C45.9731 84.9812 44.9124 85.5704 42.7911 86.7489L41.0233 89.2238C40.5519 91.5808 40.3162 92.7593 40.3162 92.7593C40.3162 92.7593 41.1412 94.7628 42.7911 98.7698L39.9627 99.4769L36.7807 101.952L34.6594 106.194L36.4271 110.083C39.2556 111.969 40.6698 112.912 40.6698 112.912C40.6698 112.912 41.1412 113.148 42.084 113.619L40.6698 117.862C40.6698 120.219 40.6698 121.397 40.6698 121.397C40.6698 121.397 41.259 122.458 42.4375 124.579L46.3266 126.347L50.2157 125.993L53.7513 124.579L54.8119 127.054L57.2868 130.236L60.4688 132.004Z" fill="white"/>
<path d="M66.1256 110.791C68.8593 108.057 68.8593 103.625 66.1256 100.891C63.3919 98.1574 58.9598 98.1574 56.2261 100.891C53.4924 103.625 53.4924 108.057 56.2261 110.791C58.9598 113.524 63.3919 113.524 66.1256 110.791Z" fill="white" stroke="black" stroke-width="1.3"/>
<path d="M60.4152 99.0012C60.1489 95.5873 58.1518 91.5029 55.5196 88.8707C51.4191 84.7702 45.5623 83.9787 42.4381 87.1029C39.3139 90.2271 40.1054 96.0839 44.2059 100.184C46.8362 102.815 50.9167 104.811 54.3292 105.079" stroke="black" stroke-width="1.3"/>
<path d="M42.4385 87.1025L56.2271 100.891" stroke="black" stroke-width="1.3"/>
<path d="M61.9373 112.681C62.2036 116.095 64.2007 120.18 66.833 122.812C70.9335 126.912 76.7902 127.704 79.9144 124.58C83.0386 121.456 82.2472 115.599 78.1467 111.498C75.5163 108.868 71.4358 106.872 68.0234 106.603" stroke="black" stroke-width="1.3"/>
<path d="M79.9141 124.58L66.1255 110.791" stroke="black" stroke-width="1.3"/>
<path d="M68.0164 105.08C71.4303 104.814 75.5147 102.817 78.1469 100.185C82.2474 96.0841 83.0389 90.2273 79.9147 87.1031C76.7905 83.9789 70.9337 84.7704 66.8332 88.8709C64.2028 91.5013 62.2067 95.5817 61.9381 98.9942" stroke="black" stroke-width="1.3"/>
<path d="M79.915 87.1035L66.1265 100.892" stroke="black" stroke-width="1.3"/>
<path d="M54.3362 106.602C50.9223 106.869 46.8379 108.866 44.2056 111.498C40.1051 115.599 39.3137 121.455 42.4379 124.579C45.5621 127.704 51.4188 126.912 55.5193 122.812C58.1497 120.181 60.1459 116.101 60.4144 112.688" stroke="black" stroke-width="1.3"/>
<path d="M42.4375 124.579L56.2261 110.791" stroke="black" stroke-width="1.3"/>
<path d="M42.6859 98.1977C38.3054 99.1605 35.1016 102.238 35.1016 105.885C35.1016 109.543 38.3238 112.628 42.7236 113.581" stroke="black" stroke-width="1.3"/>
<path d="M53.8481 87.0355C54.8108 82.655 57.8882 79.4512 61.5357 79.4512C65.1936 79.4512 68.2781 82.6734 69.2314 87.0732" stroke="black" stroke-width="1.3"/>
<path d="M68.7925 124.303C67.8298 128.684 64.7524 131.888 61.105 131.888C57.447 131.888 54.3625 128.665 53.4092 124.266" stroke="black" stroke-width="1.3"/>
<path d="M79.9547 113.141C84.3352 112.178 87.5391 109.101 87.5391 105.454C87.5391 101.796 84.3168 98.7111 79.917 97.7578" stroke="black" stroke-width="1.3"/>
<path fill-rule="evenodd" clip-rule="evenodd" d="M49.1556 131.297C44.9129 129.883 40.3167 130.943 37.1347 133.418C35.0134 135.068 33.7171 138.722 33.2457 144.378C38.9025 144.85 43.0273 144.025 45.62 141.904C49.5091 138.722 49.8627 134.125 49.1556 131.297Z" fill="white" stroke="black" stroke-width="1.3"/>
<path d="M33.2461 144.379C40.9465 138.404 45.8963 134.397 48.0953 132.358C51.8252 128.899 52.6915 127.762 53.3986 124.933" stroke="black" stroke-width="1.3"/>
<path fill-rule="evenodd" clip-rule="evenodd" d="M35.661 93.8206C37.0752 89.578 36.0146 84.9818 33.5397 81.7998C31.8898 79.6785 28.2364 78.3821 22.5795 77.9107C22.1081 83.5676 22.9331 87.6923 25.0544 90.2851C28.2364 94.1742 32.8326 94.5277 35.661 93.8206Z" fill="white" stroke="black" stroke-width="1.3"/>
<path d="M22.5791 77.9111C28.5536 85.6116 32.5606 90.5613 34.5999 92.7604C38.0589 96.4902 39.1961 97.3566 42.0245 98.0637" stroke="black" stroke-width="1.3"/>
<path fill-rule="evenodd" clip-rule="evenodd" d="M86.632 117.802C85.2177 122.045 86.2784 126.641 88.7533 129.823C90.4032 131.945 94.0566 133.241 99.7134 133.712C100.185 128.055 99.3599 123.931 97.2386 121.338C94.0566 117.449 89.4604 117.095 86.632 117.802Z" fill="white" stroke="black" stroke-width="1.3"/>
<path d="M99.7139 133.712C93.7393 126.011 89.7324 121.062 87.6931 118.863C84.2341 115.133 83.0969 114.266 80.2684 113.559" stroke="black" stroke-width="1.3"/>
<path fill-rule="evenodd" clip-rule="evenodd" d="M73.8454 79.619C78.0881 81.0332 82.6842 79.9726 85.8662 77.4977C87.9875 75.8478 89.2839 72.1944 89.7553 66.5375C84.0985 66.0661 79.9737 66.8911 77.3809 69.0124C73.4919 72.1944 73.1383 76.7906 73.8454 79.619Z" fill="white" stroke="black" stroke-width="1.3"/>
<path d="M89.7549 66.5371C82.0545 72.5116 77.1047 76.5186 74.9056 78.5579C71.1758 82.0169 70.3094 83.1541 69.6023 85.9825" stroke="black" stroke-width="1.3"/>
</svg>
