<svg width="142" height="154" viewBox="0 0 142 154" fill="none" xmlns="http://www.w3.org/2000/svg">
<path fill-rule="evenodd" clip-rule="evenodd" d="M48.52 1C69.2532 1 86.1001 17.7486 86.4349 38.5375L86.44 39.1687V50.224L86.9698 50.6944C92.0253 50.9693 96.04 55.1558 96.04 60.28C96.04 65.2042 92.3325 69.2625 87.5567 69.8158L86.249 70.739L86.1979 71.0386C84.9807 77.4845 79.3197 82.36 72.52 82.36H61.467L61.455 82.362L61 82.666V92.919L69.16 92.92L69.1608 92.981C84.7016 93.971 97 106.889 97 122.68V139.96H1V122.68C1 106.889 13.2989 93.9704 28.8402 92.9809L28.84 92.92L37 93V82.407L24.52 82.36C17.4408 82.36 11.5958 77.0754 10.7148 70.2359L10.3923 69.8778C5.18629 69.7673 1 65.5125 1 60.28C1 55.5465 4.42585 51.6132 8.93336 50.8242L9 50.5L10.6 49.814V39.1687C10.6 18.2995 27.2395 1.34217 47.8929 1.00511L48.52 1ZM61.467 82.36L62.7514 81.9741L62 82L61.46 82.359L61.467 82.36Z" fill="white"/>
<path d="M86.343 70.0918C85.526 77.0008 79.6488 82.3596 72.5201 82.3596C66.5467 82.3596 62.0667 82.3596 59.0801 82.3596M37.9601 82.3596C35.2302 82.3596 30.7502 82.3596 24.5201 82.3596C17.4408 82.3596 11.5958 77.075 10.7148 70.2355" stroke="black" stroke-width="1.3" stroke-linecap="round" stroke-linejoin="round"/>
<path fill-rule="evenodd" clip-rule="evenodd" d="M74.9201 44.4404V57.8804C74.9201 72.4607 63.1004 84.2804 48.5201 84.2804C33.9398 84.2804 22.1201 72.4607 22.1201 57.8804V44.4404" fill="white"/>
<path d="M74.9201 44.4404V57.8804C74.9201 72.4607 63.1004 84.2804 48.5201 84.2804C33.9398 84.2804 22.1201 72.4607 22.1201 57.8804V44.4404" stroke="black" stroke-width="1.3"/>
<path d="M86.4396 50.6797V39.1684C86.4396 18.0884 69.4622 0.999687 48.5196 0.999687C27.577 0.999687 10.5996 18.0884 10.5996 39.1684C10.5996 44.2845 10.5996 48.1216 10.5996 50.6797" stroke="black" stroke-width="1.3" stroke-linecap="round" stroke-linejoin="round"/>
<path d="M10.6 50.6797C5.29807 50.6797 1 54.9778 1 60.2797C1 65.5816 5.29807 69.8797 10.6 69.8797" stroke="black" stroke-width="1.3" stroke-linecap="round" stroke-linejoin="round"/>
<path d="M86.44 50.6797C91.742 50.6797 96.04 54.9778 96.04 60.2797C96.04 65.5816 91.742 69.8797 86.44 69.8797" stroke="black" stroke-width="1.3" stroke-linecap="round" stroke-linejoin="round"/>
<path fill-rule="evenodd" clip-rule="evenodd" d="M18.2803 44.44C20.6803 44.44 22.6003 44.44 37.0003 44.44C43.7203 44.44 47.0216 43.4739 49.9603 40.6C52.8494 37.7746 55.7294 30.2546 58.6003 18.04C60.8816 30.8814 63.4416 38.7214 66.2803 41.56C69.6403 44.92 78.8308 44.44 79.7203 44.44" fill="white"/>
<path d="M18.2803 44.44C20.6803 44.44 22.6003 44.44 37.0003 44.44C43.7203 44.44 47.0216 43.4739 49.9603 40.6C52.8494 37.7746 55.7294 30.2546 58.6003 18.04C60.8816 30.8814 63.4416 38.7214 66.2803 41.56C69.6403 44.92 78.8308 44.44 79.7203 44.44" stroke="black" stroke-width="1.3" stroke-linecap="round" stroke-linejoin="round"/>
<path d="M37 82.3604V92.9203" stroke="black" stroke-width="1.3" stroke-linecap="round" stroke-linejoin="round"/>
<path d="M61 82.3604V92.9203" stroke="black" stroke-width="1.3" stroke-linecap="round" stroke-linejoin="round"/>
<path fill-rule="evenodd" clip-rule="evenodd" d="M61 92.9199H67.24C83.676 92.9199 97 106.244 97 122.68V139.96H1V122.68C1 106.244 14.324 92.9199 30.76 92.9199H37" fill="white"/>
<path d="M61 92.9199H67.24C83.676 92.9199 97 106.244 97 122.68V139.96H1V122.68C1 106.244 14.324 92.9199 30.76 92.9199H37" stroke="black" stroke-width="1.3" stroke-linecap="round" stroke-linejoin="round"/>
<path fill-rule="evenodd" clip-rule="evenodd" d="M69.0206 92.3174C71.6128 92.3869 74.3566 92.8286 78.0004 94.2344C78.009 98.0803 78.009 113.539 78.0004 140.612H20.0004C19.9829 113.209 19.9829 97.7502 20.0004 94.2344C23.3222 92.9198 26.1752 92.5181 29.0004 92.3174C29.0004 96.8174 30.5004 104 39.0004 104C47.5004 104 50.5004 104 59.0004 104C67.5004 104 69.0206 95.8174 69.0206 92.3174Z" fill="#9EC6B9"/>
<path d="M30.5 119.5H67.5" stroke="black" stroke-width="1.3" stroke-linecap="round"/>
<path fill-rule="evenodd" clip-rule="evenodd" d="M97.2346 94.3604H137.599C138.129 94.3604 138.559 94.7902 138.559 95.3204C138.559 95.3808 138.553 95.4412 138.542 95.5006L134.01 119.203C133.145 123.728 129.188 127 124.581 127H110.953C106.448 127 102.549 123.868 101.578 119.468L96.2972 95.5271C96.1829 95.0094 96.5101 94.4971 97.0278 94.3829C97.0957 94.3679 97.1651 94.3604 97.2346 94.3604Z" fill="white" stroke="black" stroke-width="1.3" stroke-linecap="round" stroke-linejoin="round"/>
<path fill-rule="evenodd" clip-rule="evenodd" d="M112.36 127.48L104.183 149.862C103.819 150.858 104.331 151.96 105.327 152.324C105.538 152.401 105.761 152.44 105.986 152.44H129.194C130.255 152.44 131.114 151.581 131.114 150.52C131.114 150.274 131.067 150.03 130.975 149.801L121.96 127.48" fill="white"/>
<path d="M112.36 127.48L104.183 149.862C103.819 150.858 104.331 151.96 105.327 152.324C105.538 152.401 105.761 152.44 105.986 152.44H129.194C130.255 152.44 131.114 151.581 131.114 150.52C131.114 150.274 131.067 150.03 130.975 149.801L121.96 127.48" stroke="black" stroke-width="1.3" stroke-linecap="round" stroke-linejoin="round"/>
<path d="M88.8398 132.28C96.9998 134.2 113.32 131.8 117.64 127" stroke="black" stroke-width="1.3" stroke-linecap="round" stroke-linejoin="round"/>
<path d="M112.84 113.561C112.84 119.321 114.28 123.641 117.64 127.001" stroke="black" stroke-width="1.3" stroke-linecap="round" stroke-linejoin="round"/>
<path d="M127.24 111.16C127.24 116.92 122.44 124.12 117.64 127" stroke="black" stroke-width="1.3" stroke-linecap="round" stroke-linejoin="round"/>
<path d="M141.16 141.88C135.88 135.64 123.88 127.96 117.64 127" stroke="black" stroke-width="1.3" stroke-linecap="round" stroke-linejoin="round"/>
<path fill-rule="evenodd" clip-rule="evenodd" d="M117.811 33.319C114.709 33.319 112.195 35.8334 112.195 38.935C112.195 42.679 114.067 46.423 117.811 50.167C121.555 46.423 123.427 42.679 123.427 38.935C123.427 35.8334 120.912 33.319 117.811 33.319Z" fill="white" stroke="black" stroke-width="1.3"/>
<path fill-rule="evenodd" clip-rule="evenodd" d="M98.5768 53.2151C98.5768 50.1134 101.091 47.5991 104.193 47.5991C107.937 47.5991 111.681 49.4711 115.425 53.2151C111.681 56.9591 107.937 58.8311 104.193 58.8311C101.091 58.8311 98.5768 56.3167 98.5768 53.2151Z" fill="white" stroke="black" stroke-width="1.3"/>
<path fill-rule="evenodd" clip-rule="evenodd" d="M136.163 52.7732C136.163 55.8749 133.649 58.3892 130.547 58.3892C126.803 58.3892 123.059 56.5172 119.315 52.7732C123.059 49.0292 126.803 47.1572 130.547 47.1572C133.649 47.1572 136.163 49.6716 136.163 52.7732Z" fill="white" stroke="black" stroke-width="1.3"/>
<path fill-rule="evenodd" clip-rule="evenodd" d="M117.811 71.7875C120.913 71.7875 123.427 69.2731 123.427 66.1715C123.427 62.4275 121.555 58.6835 117.811 54.9395C114.067 58.6835 112.195 62.4275 112.195 66.1715C112.195 69.2731 114.71 71.7875 117.811 71.7875Z" fill="white" stroke="black" stroke-width="1.3"/>
<path fill-rule="evenodd" clip-rule="evenodd" d="M129.724 64.4657C131.917 62.2725 131.917 58.7166 129.724 56.5234C127.077 53.876 123.106 52.5523 117.811 52.5523C117.811 57.8471 119.135 61.8183 121.782 64.4657C123.975 66.6588 127.531 66.6588 129.724 64.4657Z" fill="white" stroke="black" stroke-width="1.3"/>
<path fill-rule="evenodd" clip-rule="evenodd" d="M105.456 40.1976C107.649 38.0044 111.205 38.0044 113.398 40.1976C116.046 42.845 117.37 46.8161 117.37 52.1109C112.075 52.1109 108.104 50.7872 105.456 48.1398C103.263 45.9466 103.263 42.3908 105.456 40.1976Z" fill="white" stroke="black" stroke-width="1.3"/>
<path fill-rule="evenodd" clip-rule="evenodd" d="M105.898 64.4665C108.091 66.6597 111.647 66.6597 113.84 64.4665C116.487 61.8191 117.811 57.848 117.811 52.5531C112.516 52.5531 108.545 53.8768 105.898 56.5243C103.704 58.7174 103.704 62.2733 105.898 64.4665Z" fill="white" stroke="black" stroke-width="1.3"/>
<path fill-rule="evenodd" clip-rule="evenodd" d="M130.166 40.1984C132.359 42.3916 132.359 45.9474 130.166 48.1406C127.518 50.788 123.547 52.1117 118.252 52.1117C118.252 46.8169 119.576 42.8458 122.223 40.1984C124.417 38.0052 127.973 38.0052 130.166 40.1984Z" fill="white" stroke="black" stroke-width="1.3"/>
<path d="M117.812 71.8965V94.3605" stroke="black" stroke-width="1.3"/>
<path fill-rule="evenodd" clip-rule="evenodd" d="M98.4033 72.4557C103.941 71.7095 107.952 72.4635 110.363 74.8743C112.774 77.2852 113.528 81.2971 112.781 86.8345C107.244 87.5808 103.232 86.8268 100.821 84.416C98.4105 82.0051 97.6565 77.9932 98.4033 72.4557Z" fill="white" stroke="black" stroke-width="1.3"/>
<path fill-rule="evenodd" clip-rule="evenodd" d="M136.493 72.4557C130.956 71.7095 126.944 72.4635 124.533 74.8743C122.122 77.2852 121.368 81.2971 122.115 86.8345C127.653 87.5808 131.664 86.8268 134.075 84.416C136.486 82.0051 137.24 77.9932 136.493 72.4557Z" fill="white" stroke="black" stroke-width="1.3"/>
<path d="M98.4668 73.7686L117.811 89.9926" stroke="black" stroke-width="1.3"/>
<path d="M135.908 72.5205L117.812 89.9925" stroke="black" stroke-width="1.3"/>
</svg>
