<svg width="182" height="188" viewBox="0 0 182 188" fill="none" xmlns="http://www.w3.org/2000/svg">
<path fill-rule="evenodd" clip-rule="evenodd" d="M86.0725 31.6973C86.0725 46.9602 96.4328 72.2959 126.061 72.2959C126.061 103.152 122.315 114.084 112.78 126.249C100.504 141.911 80.3191 149.585 63.6459 149.655C63.6077 149.656 63.5691 149.656 63.5306 149.656L63.415 149.656C46.7425 149.585 26.5572 141.911 14.2812 126.249C4.74616 114.084 1 103.152 1 72.2959C30.6285 72.2959 40.9887 46.9602 40.9887 31.6973H86.0725Z" fill="white" stroke="black" stroke-width="1.3"/>
<path d="M112.056 73.5813C112.056 70.9492 111.57 68.3921 110.654 65.9473M38.1433 47.0986C25.1005 52.7451 16.4834 62.4973 16.4834 73.5813M18.4779 82.6511C18.9041 83.5948 19.3951 84.52 19.9474 85.4245M27.5335 93.8068C28.433 94.5215 29.3792 95.2096 30.3691 95.869M41.503 101.392C42.3335 101.69 43.1789 101.973 44.0383 102.239M57.8832 104.925C59.9723 105.109 62.1042 105.205 64.2697 105.205C66.4798 105.205 68.6549 105.105 70.7853 104.913M84.4909 102.242C85.3503 101.976 86.1957 101.694 87.0263 101.395M98.1276 95.8974C99.1316 95.2303 100.091 94.5337 101.002 93.8097M108.554 85.4863C109.138 84.5364 109.654 83.5635 110.098 82.5703" stroke="black" stroke-width="1.3"/>
<path d="M50.918 110.826C54.7991 110.826 57.9454 107.68 57.9454 103.799C57.9454 99.9178 54.7991 96.7715 50.918 96.7715C47.0369 96.7715 43.8906 99.9178 43.8906 103.799C43.8906 107.68 47.0369 110.826 50.918 110.826Z" fill="#E7B274"/>
<path d="M63.2248 135.15C69.2585 135.15 74.1498 130.259 74.1498 124.225C74.1498 118.191 69.2585 113.3 63.2248 113.3C57.1911 113.3 52.2998 118.191 52.2998 124.225C52.2998 130.259 57.1911 135.15 63.2248 135.15Z" stroke="black" stroke-width="1.1115"/>
<path d="M17.5375 82.7167C20.0603 82.7167 22.1053 80.6716 22.1053 78.1489C22.1053 75.6261 20.0603 73.5811 17.5375 73.5811C15.0148 73.5811 12.9697 75.6261 12.9697 78.1489C12.9697 80.6716 15.0148 82.7167 17.5375 82.7167Z" fill="#E7B274"/>
<path d="M35.4576 105.907C31.9646 105.907 29.1329 103.075 29.1329 99.5825C29.1329 96.0895 31.9646 93.2578 35.4576 93.2578C38.9506 93.2578 41.7822 96.0895 41.7822 99.5825C41.7822 103.075 38.9506 105.907 35.4576 105.907Z" fill="#E7B274"/>
<path d="M23.5109 95.3659C20.406 95.3659 17.889 92.8489 17.889 89.744C17.889 86.6391 20.406 84.1221 23.5109 84.1221C26.6158 84.1221 29.1328 86.6391 29.1328 89.744C29.1328 92.8489 26.6158 95.3659 23.5109 95.3659Z" fill="#E7B274"/>
<path d="M77.6211 110.826C81.5023 110.826 84.6485 107.68 84.6485 103.799C84.6485 99.9178 81.5023 96.7715 77.6211 96.7715C73.74 96.7715 70.5938 99.9178 70.5938 103.799C70.5938 107.68 73.74 110.826 77.6211 110.826Z" fill="#E7B274"/>
<path d="M93.0815 105.907C96.5745 105.907 99.4062 103.075 99.4062 99.5825C99.4062 96.0895 96.5745 93.2578 93.0815 93.2578C89.5885 93.2578 86.7568 96.0895 86.7568 99.5825C86.7568 103.075 89.5885 105.907 93.0815 105.907Z" fill="#E7B274"/>
<path d="M105.028 95.3659C108.133 95.3659 110.65 92.8489 110.65 89.744C110.65 86.6391 108.133 84.1221 105.028 84.1221C101.923 84.1221 99.4062 86.6391 99.4062 89.744C99.4062 92.8489 101.923 95.3659 105.028 95.3659Z" fill="#E7B274"/>
<path d="M111.001 82.7167C113.524 82.7167 115.569 80.6716 115.569 78.1489C115.569 75.6261 113.524 73.5811 111.001 73.5811C108.479 73.5811 106.434 75.6261 106.434 78.1489C106.434 80.6716 108.479 82.7167 111.001 82.7167Z" fill="#E7B274"/>
<path d="M63.7002 105.205V113.638" stroke="black" stroke-width="1.1115"/>
<path d="M63.8421 40.2475C76.3555 40.2475 86.4996 36.4195 86.4996 31.6975C86.4996 26.9754 76.3555 23.1475 63.8421 23.1475C51.3287 23.1475 41.1846 26.9754 41.1846 31.6975C41.1846 36.4195 51.3287 40.2475 63.8421 40.2475Z" fill="white" stroke="black" stroke-width="1.3"/>
<path fill-rule="evenodd" clip-rule="evenodd" d="M71.9652 173.277C73.2023 173.277 74.3223 173.779 75.1331 174.59C75.9438 175.4 76.4452 176.52 76.4452 177.757L51.2402 177.977C51.2402 176.52 51.7417 175.4 52.5524 174.59C53.3631 173.779 54.4831 173.277 55.7202 173.277H71.9652Z" fill="white" stroke="black" stroke-width="1.3"/>
<path fill-rule="evenodd" clip-rule="evenodd" d="M105.31 177.697C106.547 177.697 107.667 178.199 108.477 179.009C109.288 179.82 109.79 180.94 109.79 182.177V186.657H17.8945V182.177C17.8945 180.94 18.396 179.82 19.2067 179.009C20.0174 178.199 21.1374 177.697 22.3745 177.697H105.31Z" fill="white" stroke="black" stroke-width="1.3"/>
<path d="M64.2695 173.628V149.656" stroke="black" stroke-width="1.3"/>
<path fill-rule="evenodd" clip-rule="evenodd" d="M165.345 0.531331C146.076 27.0401 135.764 41.3658 134.409 43.5085C132.376 46.7225 128.288 51.9207 130.394 53.0876C131.297 53.5882 133.373 50.7264 136.704 45.7307C140.35 40.2612 149.897 25.1947 165.345 0.531331Z" stroke="black" stroke-width="1.3"/>
<path d="M110.655 65.9473C109.327 61.8575 102.919 58.6226 110.099 53.5981C117.278 48.5736 125.089 54.6809 122.361 57.9358C119.633 61.1907 114.338 61.6231 112.682 61.4815C111.025 61.34 102.327 60.7823 102.327 51.6528C102.327 42.5233 111.41 39.6084 117.278 39.6084C132.799 39.6084 140.527 57.9358 156.877 57.5338C168.801 57.2407 172.92 48.5098 173.307 47.3562C173.695 46.2027 175.043 37.7366 167.08 37.7366C159.117 37.7366 161.655 44.5877 166.687 44.5877C170.041 44.5877 174.831 41.6043 181.056 35.6377" stroke="black" stroke-width="1.3"/>
</svg>
