<svg width="164" height="153" viewBox="0 0 164 153" fill="none" xmlns="http://www.w3.org/2000/svg">
<g clip-path="url(#clip0_36_304)">
<path fill-rule="evenodd" clip-rule="evenodd" d="M89.4132 59.4687L59.1656 121.485C54.2544 107.222 46.4134 98.2059 35.6426 94.4361C24.8717 90.6663 13.2536 91.6754 0.788053 97.4633C9.95063 89.3227 18.2512 84.4703 25.6897 82.9062C36.8474 80.5599 51.2916 48.6638 52.0581 35.6864C52.5691 27.0348 49.7698 15.2852 43.6602 0.437628C53.5396 4.51439 61.6876 14.4223 68.1041 30.1613" fill="#89CED6"/>
<path fill-rule="evenodd" clip-rule="evenodd" d="M89.8516 58.5694L59.1656 121.485C73.4287 116.574 85.3612 117.202 94.963 123.368C104.565 129.535 110.923 139.311 114.036 152.698C114.81 140.465 113.523 130.937 110.176 124.113C105.156 113.876 121.398 82.8562 131.152 74.2625C137.655 68.5334 148.637 63.5055 164.099 59.1788C154.804 53.9037 141.98 53.5829 125.627 58.2166" fill="#89CED6"/>
<path fill-rule="evenodd" clip-rule="evenodd" d="M132.721 80.3507C129.408 87.144 124.404 90.7113 117.71 91.0525C113.857 85.5673 113.587 79.428 116.901 72.6347C119.032 68.2661 124.3 66.4519 128.669 68.5826C133.037 70.7133 134.852 75.9821 132.721 80.3507Z" fill="white" stroke="black" stroke-width="1.3"/>
<path fill-rule="evenodd" clip-rule="evenodd" d="M91.4236 94.5707C98.2169 97.8841 104.356 97.6145 109.841 93.7619C109.5 87.0677 105.933 82.0639 99.1396 78.7506C94.771 76.6199 89.5022 78.434 87.3715 82.8027C85.2408 87.1713 87.0549 92.44 91.4236 94.5707Z" fill="white" stroke="black" stroke-width="1.3"/>
<path fill-rule="evenodd" clip-rule="evenodd" d="M138.967 98.4898C132.174 95.1765 126.034 95.4461 120.549 99.2986C120.89 105.993 124.458 110.997 131.251 114.31C135.62 116.441 140.888 114.627 143.019 110.258C145.15 105.889 143.336 100.621 138.967 98.4898Z" fill="white" stroke="black" stroke-width="1.3"/>
<path fill-rule="evenodd" clip-rule="evenodd" d="M97.6697 112.71C100.983 105.917 105.987 102.349 112.681 102.008C116.534 107.493 116.803 113.633 113.49 120.426C111.359 124.794 106.09 126.609 101.722 124.478C97.3531 122.347 95.539 117.078 97.6697 112.71Z" fill="white" stroke="black" stroke-width="1.3"/>
<path fill-rule="evenodd" clip-rule="evenodd" d="M99.7976 114.266C108.73 111.19 113.918 105.526 115.36 97.2735C109.143 91.6586 101.567 90.389 92.6351 93.4646C86.8909 95.4425 83.8378 101.702 85.8156 107.447C87.7935 113.191 94.0534 116.244 99.7976 114.266Z" fill="white" stroke="black" stroke-width="1.3"/>
<path fill-rule="evenodd" clip-rule="evenodd" d="M137.852 101.163C128.919 104.239 121.344 102.969 115.126 97.3541C116.569 89.1013 121.757 83.4372 130.689 80.3615C136.433 78.3837 142.693 81.4368 144.671 87.181C146.649 92.9251 143.596 99.1851 137.852 101.163Z" fill="white" stroke="black" stroke-width="1.3"/>
<path fill-rule="evenodd" clip-rule="evenodd" d="M132.674 112.992C129.599 104.06 123.934 98.8725 115.682 97.4296C110.067 103.648 108.797 111.223 111.873 120.155C113.851 125.899 120.111 128.952 125.855 126.974C131.599 124.997 134.652 118.737 132.674 112.992Z" fill="white" stroke="black" stroke-width="1.3"/>
<path fill-rule="evenodd" clip-rule="evenodd" d="M119.571 74.9384C122.647 83.8707 121.377 91.4458 115.762 97.6638C107.51 96.2208 101.845 91.0332 98.7697 82.1009C96.7919 76.3567 99.845 70.0968 105.589 68.1189C111.333 66.1411 117.593 69.1942 119.571 74.9384Z" fill="white" stroke="black" stroke-width="1.3"/>
<path d="M109.918 82.2256L120.336 112.482" stroke="black" stroke-width="1.3" stroke-linecap="round" stroke-linejoin="round"/>
<path d="M131.511 91.1832L98.418 102.578" stroke="black" stroke-width="1.3" stroke-linecap="round" stroke-linejoin="round"/>
<path d="M117.731 104.917C121.909 103.479 124.129 98.9262 122.691 94.7486C121.252 90.571 116.7 88.3506 112.522 89.789C108.345 91.2275 106.124 95.7801 107.563 99.9577C109.001 104.135 113.554 106.356 117.731 104.917Z" fill="white" stroke="black" stroke-width="1.3"/>
<path fill-rule="evenodd" clip-rule="evenodd" d="M62.4856 45.3077C59.1723 52.101 54.1685 55.6683 47.4742 56.0095C43.6217 50.5243 43.3521 44.385 46.6654 37.5917C48.7961 33.2231 54.0649 31.4089 58.4335 33.5396C62.8021 35.6704 64.6163 40.9391 62.4856 45.3077Z" fill="white" stroke="black" stroke-width="1.3"/>
<path fill-rule="evenodd" clip-rule="evenodd" d="M21.1882 59.5278C27.9815 62.8411 34.1208 62.5715 39.606 58.719C39.2648 52.0247 35.6975 47.0209 28.9042 43.7076C24.5356 41.5769 19.2669 43.3911 17.1361 47.7597C15.0054 52.1283 16.8196 57.3971 21.1882 59.5278Z" fill="white" stroke="black" stroke-width="1.3"/>
<path fill-rule="evenodd" clip-rule="evenodd" d="M68.7317 63.4468C61.9384 60.1335 55.7991 60.4031 50.3139 64.2556C50.6551 70.9499 54.2224 75.9537 61.0157 79.267C65.3843 81.3977 70.6531 79.5835 72.7838 75.2149C74.9145 70.8463 73.1003 65.5775 68.7317 63.4468Z" fill="white" stroke="black" stroke-width="1.3"/>
<path fill-rule="evenodd" clip-rule="evenodd" d="M27.4343 77.6669C30.7476 70.8736 35.7514 67.3063 42.4457 66.9651C46.2982 72.4503 46.5678 78.5896 43.2545 85.3829C41.1238 89.7515 35.855 91.5657 31.4864 89.435C27.1178 87.3042 25.3036 82.0355 27.4343 77.6669Z" fill="white" stroke="black" stroke-width="1.3"/>
<path fill-rule="evenodd" clip-rule="evenodd" d="M29.5622 79.2231C38.4945 76.1475 43.6822 70.4833 45.1251 62.2305C38.9072 56.6157 31.332 55.346 22.3997 58.4217C16.6556 60.3995 13.6024 66.6595 15.5803 72.4036C17.5581 78.1478 23.8181 81.201 29.5622 79.2231Z" fill="white" stroke="black" stroke-width="1.3"/>
<path fill-rule="evenodd" clip-rule="evenodd" d="M67.6163 66.12C58.684 69.1956 51.1088 67.926 44.8909 62.3111C46.3338 54.0584 51.5215 48.3942 60.4538 45.3186C66.1979 43.3407 72.4579 46.3939 74.4357 52.138C76.4136 57.8822 73.3604 64.1421 67.6163 66.12Z" fill="white" stroke="black" stroke-width="1.3"/>
<path fill-rule="evenodd" clip-rule="evenodd" d="M62.4389 77.9495C59.3633 69.0172 53.6991 63.8296 45.4463 62.3866C39.8315 68.6046 38.5619 76.1797 41.6375 85.112C43.6154 90.8561 49.8753 93.9093 55.6195 91.9314C61.3636 89.9536 64.4168 83.6936 62.4389 77.9495Z" fill="white" stroke="black" stroke-width="1.3"/>
<path fill-rule="evenodd" clip-rule="evenodd" d="M49.3358 39.8954C52.4114 48.8277 51.1418 56.4029 45.5269 62.6208C37.2742 61.1779 31.61 55.9902 28.5344 47.0579C26.5565 41.3138 29.6097 35.0538 35.3538 33.076C41.098 31.0981 47.3579 34.1513 49.3358 39.8954Z" fill="white" stroke="black" stroke-width="1.3"/>
<path d="M39.6826 47.1826L50.1008 77.4392" stroke="black" stroke-width="1.3" stroke-linecap="round" stroke-linejoin="round"/>
<path d="M61.2758 56.1403L28.1826 67.5352" stroke="black" stroke-width="1.3" stroke-linecap="round" stroke-linejoin="round"/>
<path d="M47.4959 69.8743C51.6735 68.4359 53.8939 63.8832 52.4555 59.7056C51.017 55.5281 46.4644 53.3076 42.2868 54.746C38.1092 56.1845 35.8888 60.7372 37.3272 64.9147C38.7657 69.0923 43.3183 71.3128 47.4959 69.8743Z" fill="white" stroke="black" stroke-width="1.3"/>
<path fill-rule="evenodd" clip-rule="evenodd" d="M115.804 24.7052C112.491 31.4985 107.487 35.0658 100.793 35.407C96.9401 29.9218 96.6705 23.7825 99.9838 16.9892C102.115 12.6206 107.383 10.8064 111.752 12.9371C116.12 15.0678 117.935 20.3366 115.804 24.7052Z" fill="white" stroke="black" stroke-width="1.3"/>
<path fill-rule="evenodd" clip-rule="evenodd" d="M74.5066 38.9252C81.2999 42.2386 87.4391 41.969 92.9243 38.1164C92.5831 31.4222 89.0159 26.4184 82.2226 23.1051C77.854 20.9744 72.5852 22.7885 70.4545 27.1572C68.3238 31.5258 70.138 36.7945 74.5066 38.9252Z" fill="white" stroke="black" stroke-width="1.3"/>
<path fill-rule="evenodd" clip-rule="evenodd" d="M122.05 42.8443C115.257 39.531 109.117 39.8006 103.632 43.6531C103.973 50.3474 107.541 55.3511 114.334 58.6645C118.703 60.7952 123.971 58.981 126.102 54.6124C128.233 50.2438 126.419 44.975 122.05 42.8443Z" fill="white" stroke="black" stroke-width="1.3"/>
<path fill-rule="evenodd" clip-rule="evenodd" d="M80.7527 57.0643C84.066 50.271 89.0698 46.7038 95.764 46.3626C99.6166 51.8478 99.8862 57.987 96.5728 64.7803C94.4421 69.149 89.1734 70.9631 84.8048 68.8324C80.4361 66.7017 78.622 61.433 80.7527 57.0643Z" fill="white" stroke="black" stroke-width="1.3"/>
<path fill-rule="evenodd" clip-rule="evenodd" d="M82.8806 58.6205C91.8129 55.5449 97.0005 49.8807 98.4435 41.628C92.2255 36.0131 84.6504 34.7435 75.7181 37.8191C69.9739 39.797 66.9208 46.0569 68.8986 51.8011C70.8765 57.5452 77.1364 60.5984 82.8806 58.6205Z" fill="white" stroke="black" stroke-width="1.3"/>
<path fill-rule="evenodd" clip-rule="evenodd" d="M120.935 45.5174C112.002 48.5931 104.427 47.3234 98.2092 41.7086C99.6522 33.4558 104.84 27.7917 113.772 24.716C119.516 22.7381 125.776 25.7913 127.754 31.5355C129.732 37.2796 126.679 43.5396 120.935 45.5174Z" fill="white" stroke="black" stroke-width="1.3"/>
<path fill-rule="evenodd" clip-rule="evenodd" d="M115.757 57.347C112.682 48.4147 107.017 43.227 98.7647 41.784C93.1498 48.002 91.8802 55.5772 94.9559 64.5095C96.9337 70.2536 103.194 73.3068 108.938 71.3289C114.682 69.351 117.735 63.0911 115.757 57.347Z" fill="white" stroke="black" stroke-width="1.3"/>
<path fill-rule="evenodd" clip-rule="evenodd" d="M102.654 19.2929C105.73 28.2252 104.46 35.8003 98.8453 42.0183C90.5926 40.5753 84.9284 35.3877 81.8527 26.4554C79.8749 20.7112 82.928 14.4513 88.6722 12.4734C94.4163 10.4956 100.676 13.5487 102.654 19.2929Z" fill="white" stroke="black" stroke-width="1.3"/>
<path d="M93.001 26.5801L103.419 56.8367" stroke="black" stroke-width="1.3" stroke-linecap="round" stroke-linejoin="round"/>
<path d="M114.594 35.5377L81.501 46.9326" stroke="black" stroke-width="1.3" stroke-linecap="round" stroke-linejoin="round"/>
<path d="M100.814 49.2718C104.992 47.8333 107.212 43.2807 105.774 39.1031C104.335 34.9255 99.7827 32.7051 95.6052 34.1435C91.4276 35.582 89.2071 40.1346 90.6456 44.3122C92.084 48.4898 96.6367 50.7102 100.814 49.2718Z" fill="white" stroke="black" stroke-width="1.3"/>
<path fill-rule="evenodd" clip-rule="evenodd" d="M55.9427 112.125L45.9678 98.3594L43.8641 111.797L35.0085 120.829L51.559 121.113L55.9427 112.125Z" fill="white" stroke="black" stroke-width="1.3" stroke-linecap="round" stroke-linejoin="round"/>
<path fill-rule="evenodd" clip-rule="evenodd" d="M68.5258 118.262L85.5146 117.647L76.2207 127.578L74.5554 140.117L64.1421 127.25L68.5258 118.262Z" fill="white" stroke="black" stroke-width="1.3" stroke-linecap="round" stroke-linejoin="round"/>
<path fill-rule="evenodd" clip-rule="evenodd" d="M52.0411 124.685L39.152 132.863L63.4194 144.699L61.9058 127.272L53.8167 123.326L52.0411 124.685Z" fill="#89CED6"/>
<path d="M66.7356 115.887L58.9161 112.073C57.4269 111.347 55.6309 111.965 54.9046 113.454L51.0908 121.274C50.3645 122.763 50.9829 124.559 52.4721 125.285L60.2916 129.099C61.7807 129.825 63.5767 129.207 64.3031 127.718L68.1169 119.898C68.8432 118.409 68.2248 116.613 66.7356 115.887Z" fill="white" stroke="black" stroke-width="1.3"/>
</g>
<defs>
<clipPath id="clip0_36_304">
<rect width="164" height="153" fill="white"/>
</clipPath>
</defs>
</svg>
