<svg width="60" height="30" viewBox="0 0 60 30" fill="none" xmlns="http://www.w3.org/2000/svg">
<path d="M45.9375 0.937012C41.9836 0.937012 38.4117 2.56826 35.857 5.19443L32.4516 8.69483L36.1336 12.4788L39.6398 8.87412C41.2371 7.23233 43.4707 6.21045 45.9375 6.21045C50.7832 6.21045 54.7266 10.1538 54.7266 15.0007C54.7266 19.8464 50.7832 23.7897 45.9375 23.7897C43.4707 23.7897 41.2371 22.7679 39.6398 21.1249C34.4742 15.8148 29.3086 10.5046 24.143 5.19443C21.5883 2.56826 18.0164 0.937012 14.0625 0.937012C6.29648 0.937012 0 7.2335 0 15.0007C0 22.7667 6.29648 29.0632 14.0625 29.0632C18.0164 29.0632 21.5883 27.4319 24.143 24.8058L27.5484 21.3054L23.8664 17.5214L20.3602 21.1249C18.7629 22.7679 16.5293 23.7897 14.0625 23.7897C9.2168 23.7897 5.27344 19.8464 5.27344 15.0007C5.27344 10.1538 9.2168 6.21045 14.0625 6.21045C16.5293 6.21045 18.7629 7.23233 20.3602 8.87412L35.857 24.8058C38.4117 27.4319 41.9836 29.0632 45.9375 29.0632C53.7035 29.0632 60 22.7667 60 15.0007C60 7.2335 53.7035 0.937012 45.9375 0.937012Z" fill="#368048"/>
</svg>
