<svg width="180" height="65" viewBox="0 0 180 65" fill="none" xmlns="http://www.w3.org/2000/svg">
<g clip-path="url(#clip0_367_2532)">
<path d="M105.005 65C105.121 63.3121 105.254 61.7322 105.334 60.1492C105.453 57.8257 104.255 56.0659 102.001 55.4783C97.5003 54.3031 93.5744 52.1685 90.2683 48.8257C88.8213 47.3627 86.9562 46.922 85.0822 47.8873C83.4306 48.7388 81.9213 49.866 80.2431 50.9393C86.464 59.4027 94.6597 63.8757 105.008 65.003L105.005 65ZM176.643 46.5652C181.014 38.8543 181.207 27.0181 176.676 18.6956C175.134 19.4481 173.551 20.1407 172.047 20.9801C170.422 21.8885 169.554 23.9152 170.07 25.753C171.359 30.3429 171.374 34.8939 170.081 39.4899C169.536 41.4236 170.437 43.4323 172.139 44.3497C173.613 45.1471 175.143 45.8337 176.643 46.5652ZM58.6359 14.3245C52.5396 5.8881 44.5603 1.38508 34.4758 0.281814C34.3543 2.14358 34.1319 3.96937 34.1437 5.79217C34.1556 7.7079 35.4454 9.30285 37.3609 9.79752C41.8739 10.9607 45.7227 13.2213 48.9992 16.564C50.375 17.9671 52.16 18.3269 53.9065 17.4155C55.5047 16.579 56.9517 15.4428 58.6359 14.3245ZM121.263 14.3335C122.918 15.4338 124.365 16.573 125.966 17.4155C127.65 18.3029 129.411 18.0151 130.76 16.654C134.129 13.2572 138.052 10.9398 142.672 9.74355C144.507 9.26687 145.649 7.8578 145.723 5.93607C145.794 4.06531 145.539 2.18256 145.426 0.281814C135.327 1.37909 127.327 5.88511 121.26 14.3335H121.263ZM150.256 64.997C160.397 63.8997 168.4 59.3427 174.434 50.9273C172.809 49.86 171.351 48.7358 169.749 47.8933C167.938 46.9369 166.129 47.3297 164.712 48.7807C161.471 52.1025 157.649 54.3241 153.18 55.4693C151.229 55.97 149.96 57.5259 149.951 59.4537C149.942 61.2855 150.144 63.1172 150.256 64.997ZM3.24677 46.5622C4.68487 45.8577 6.15855 45.1831 7.59072 44.4186C9.42023 43.4443 10.372 41.5285 9.8057 39.5079C8.51882 34.9089 8.53068 30.3639 9.8057 25.768C10.3335 23.8672 9.49436 21.9275 7.85166 20.9981C6.35722 20.1527 4.77382 19.4631 3.24973 18.7136C-1.08237 24.8026 -1.0794 40.4402 3.24973 46.5622H3.24677ZM34.4907 64.991C44.6641 63.8637 52.6256 59.3158 58.6241 50.9423C57.0199 49.872 55.5996 48.7927 54.0607 47.9323C52.3706 46.9849 50.3958 47.2817 48.9992 48.7118C45.7197 52.0666 41.862 54.3211 37.3372 55.4873C35.3061 56.0119 34.0933 57.7028 34.1319 59.8194C34.1615 61.5073 34.3602 63.1922 34.4907 64.994V64.991ZM145.408 64.946C145.536 63.2192 145.714 61.5823 145.764 59.9453C145.829 57.7748 144.617 56.0119 142.544 55.4813C138.022 54.3241 134.17 52.0666 130.897 48.7268C129.693 47.4976 128.101 46.9609 126.55 47.6775C124.712 48.5289 123.045 49.7641 121.311 50.8314C125.56 57.493 134.188 64.0346 145.408 64.946ZM29.5892 0.239841C17.5803 2.64425 8.59591 7.97472 5.64558 14.4564C6.93839 15.3289 8.21934 16.2582 9.56256 17.0857C11.5789 18.3269 13.5922 18.135 15.2349 16.4411C18.4343 13.1463 22.2356 10.9907 26.6389 9.8185C28.8509 9.22789 30.0399 7.56999 29.9629 5.2915C29.9065 3.65158 29.7256 2.01767 29.5892 0.239841ZM150.289 0.281814C150.188 1.54698 150.087 2.73419 149.998 3.9244C149.96 4.42207 149.924 4.92274 149.924 5.42041C149.924 7.558 151.048 9.23989 153.091 9.77353C157.604 10.9548 161.488 13.1583 164.753 16.5371C166.076 17.9042 167.825 18.3389 169.527 17.4904C171.226 16.645 172.753 15.4428 174.437 14.3425C168.379 5.93607 160.397 1.38209 150.286 0.281814H150.289ZM118.802 46.5472C119.113 46.4693 119.265 46.4573 119.392 46.3973C120.64 45.7977 121.895 45.2191 123.122 44.5805C125.26 43.4712 126.2 41.5405 125.563 39.223C124.35 34.831 124.353 30.4778 125.551 26.0857C126.064 24.206 125.672 22.3982 124.015 21.2889C122.443 20.2396 120.664 19.5081 118.858 18.5757C114.686 28.0794 114.683 37.2923 118.802 46.5472ZM29.5626 64.994C29.6574 64.0166 29.7553 63.1322 29.8235 62.2478C29.8887 61.4024 29.9747 60.5539 29.9658 59.7085C29.9451 57.6788 28.7857 56.0239 26.8079 55.5053C22.3009 54.3241 18.4225 52.1235 15.1519 48.7567C13.7909 47.3567 12.0177 46.9339 10.2505 47.8513C8.60184 48.7058 7.10147 49.848 5.44098 50.9243C11.4573 59.3068 19.4247 63.8637 29.5596 64.997L29.5626 64.994ZM74.6537 24.7936C74.5559 32.5734 73.9717 40.2244 77.9035 47.2487C78.7219 46.859 79.3921 46.5412 80.0622 46.2234C80.7323 45.9056 81.4054 45.5968 82.0726 45.273C84.1511 44.2657 85.3105 42.4819 84.7116 40.3113C83.6975 36.6328 83.7449 32.9182 83.7153 29.1767C83.6975 26.8682 82.0162 25.0035 79.8013 24.8176C78.1437 24.6797 76.4684 24.7906 74.6508 24.7906L74.6537 24.7936ZM74.7219 0V20.9142C76.3617 20.9142 77.8858 20.9651 79.4039 20.9022C81.8561 20.8002 83.6915 18.9714 83.7301 16.4861C83.7894 12.6007 83.7894 8.71224 83.7212 4.82681C83.6856 2.80015 82.7012 1.15124 80.7264 0.671556C78.8109 0.206863 76.7827 0.209861 74.7249 0L74.7219 0Z" fill="white"/>
<path d="M105.005 64.9996C94.6568 63.8694 86.4641 59.3993 80.2402 50.9359C81.9185 49.8626 83.4307 48.7354 85.0794 47.8839C86.9534 46.9186 88.8184 47.3593 90.2654 48.8223C93.5716 52.1651 97.4975 54.3027 101.999 55.4749C104.252 56.0625 105.45 57.8254 105.331 60.1458C105.251 61.7288 105.118 63.3087 105.002 64.9966L105.005 64.9996Z" fill="#8D8D8D"/>
<path d="M176.644 46.5619C175.143 45.8304 173.613 45.1439 172.14 44.3464C170.438 43.426 169.539 41.4204 170.082 39.4866C171.375 34.8937 171.363 30.3427 170.07 25.7497C169.554 23.9119 170.423 21.8853 172.048 20.9769C173.551 20.1374 175.134 19.4479 176.676 18.6924C181.204 27.0149 181.014 38.851 176.644 46.5619Z" fill="#8D8D8D"/>
<path d="M58.6362 14.3249C56.952 15.4432 55.508 16.5794 53.9068 17.4159C52.1603 18.3273 50.3753 17.9675 48.9995 16.5645C45.72 13.2217 41.8742 10.9642 37.3612 9.79793C35.4457 9.30326 34.1559 7.71131 34.144 5.79258C34.1322 3.96979 34.3545 2.144 34.4761 0.282227C44.5606 1.3855 52.5399 5.88852 58.6362 14.3249Z" fill="#8D8D8D"/>
<path d="M121.263 14.334C127.33 5.88559 135.33 1.37957 145.429 0.279297C145.542 2.18004 145.797 4.06279 145.726 5.93356C145.652 7.85529 144.51 9.26735 142.675 9.74104C138.055 10.9372 134.132 13.2547 130.764 16.6515C129.414 18.0126 127.653 18.2974 125.969 17.413C124.368 16.5705 122.921 15.4313 121.266 14.331L121.263 14.334Z" fill="#8D8D8D"/>
<path d="M150.256 64.9967C150.144 63.1169 149.942 61.2851 149.951 59.4533C149.96 57.5226 151.229 55.9696 153.18 55.469C157.651 54.3207 161.471 52.0992 164.712 48.7804C166.126 47.3293 167.938 46.9396 169.749 47.893C171.351 48.7384 172.809 49.8597 174.434 50.927C168.4 59.3424 160.397 63.8994 150.256 64.9967Z" fill="#8D8D8D"/>
<path d="M3.24685 46.5624C-1.08228 40.4405 -1.08228 24.8028 3.24685 18.7139C4.77094 19.4634 6.35434 20.1499 7.84878 20.9984C9.49147 21.9277 10.3277 23.8675 9.80282 25.7682C8.53076 30.3642 8.51594 34.9092 9.80282 39.5081C10.3692 41.5288 9.41735 43.4445 7.58784 44.4189C6.15864 45.1804 4.68199 45.8549 3.24388 46.5624H3.24685Z" fill="#8D8D8D"/>
<path d="M34.4907 64.9909C34.3603 63.1891 34.1616 61.5042 34.132 59.8163C34.0934 57.6997 35.3091 56.0088 37.3373 55.4842C41.8592 54.3149 45.7168 52.0604 48.9993 48.7086C50.3959 47.2786 52.3707 46.9818 54.0608 47.9291C55.5997 48.7926 57.023 49.8719 58.6242 50.9392C52.6227 59.3126 44.6642 63.8606 34.4907 64.9879V64.9909Z" fill="#8D8D8D"/>
<path d="M145.408 64.9459C134.188 64.0345 125.56 57.4928 121.311 50.8312C123.048 49.7639 124.712 48.5287 126.55 47.6773C128.101 46.9608 129.69 47.4974 130.897 48.7266C134.171 52.0664 138.025 54.3239 142.544 55.4811C144.617 56.0118 145.83 57.7746 145.764 59.9452C145.717 61.5851 145.536 63.219 145.408 64.9459Z" fill="#8D8D8D"/>
<path d="M29.5892 0.240234C29.7256 2.01806 29.9064 3.65198 29.9628 5.29189C30.0399 7.57338 28.8508 9.22829 26.6388 9.8189C22.2385 10.9911 18.4342 13.1467 15.2348 16.4415C13.5921 18.1354 11.5788 18.3243 9.56248 17.0861C8.21927 16.2586 6.93832 15.3293 5.64551 14.4568C8.59584 7.97512 17.5803 2.64464 29.5892 0.240234Z" fill="#8D8D8D"/>
<path d="M150.289 0.282227C160.4 1.3825 168.382 5.93649 174.44 14.3429C172.756 15.4432 171.229 16.6454 169.53 17.4908C167.828 18.3393 166.078 17.9046 164.756 16.5375C161.488 13.1617 157.607 10.9552 153.094 9.77395C151.051 9.2403 149.924 7.55841 149.927 5.42083C149.927 4.92316 149.963 4.42249 150.001 3.92482C150.09 2.7346 150.191 1.54739 150.292 0.282227H150.289Z" fill="#8D8D8D"/>
<path d="M118.802 46.5477C114.683 37.2928 114.686 28.0829 118.858 18.5762C120.664 19.5086 122.443 20.2401 124.015 21.2894C125.675 22.3956 126.064 24.2064 125.551 26.0862C124.353 30.4783 124.35 34.8314 125.563 39.2235C126.203 41.541 125.26 43.4717 123.122 44.581C121.895 45.2195 120.637 45.7982 119.392 46.3978C119.265 46.4607 119.113 46.4727 118.802 46.5477Z" fill="#8D8D8D"/>
<path d="M29.5625 64.9937C19.4275 63.8604 11.4602 59.3064 5.44385 50.921C7.10434 49.8447 8.60767 48.7054 10.2533 47.848C12.0176 46.9306 13.7937 47.3533 15.1547 48.7534C18.4253 52.1202 22.3037 54.3237 26.8108 55.5019C28.7885 56.0206 29.9479 57.6725 29.9687 59.7052C29.9776 60.5506 29.8916 61.399 29.8264 62.2445C29.7582 63.1319 29.6603 64.0163 29.5654 64.9907L29.5625 64.9937Z" fill="#8D8D8D"/>
<path d="M74.654 24.7932C76.4687 24.7932 78.147 24.6822 79.8045 24.8201C82.0195 25.006 83.7007 26.8678 83.7185 29.1793C83.7482 32.9208 83.7007 36.6353 84.7148 40.3139C85.3138 42.4845 84.1514 44.2653 82.0758 45.2756C81.4087 45.5994 80.7356 45.9082 80.0654 46.226C79.3953 46.5438 78.7252 46.8616 77.9068 47.2513C73.975 40.2299 74.5591 32.576 74.657 24.7962L74.654 24.7932Z" fill="#8D8D8D"/>
<path d="M74.722 0C76.7798 0.209861 78.808 0.206863 80.7235 0.671556C82.6983 1.15124 83.6827 2.79715 83.7183 4.82681C83.7865 8.71224 83.7895 12.6007 83.7272 16.4861C83.6887 18.9715 81.8532 20.8002 79.401 20.9022C77.8829 20.9651 76.3588 20.9142 74.7191 20.9142V0H74.722Z" fill="#8D8D8D"/>
</g>
<defs>
<clipPath id="clip0_367_2532">
<rect width="180" height="65" fill="white"/>
</clipPath>
</defs>
</svg>
