<svg width="144" height="144" viewBox="0 0 144 144" fill="none" xmlns="http://www.w3.org/2000/svg">
<path d="M102.118 41.2574L101.841 42.1589L102.743 41.8821C105.669 40.9837 108.778 40.5 112 40.5C129.397 40.5 143.5 54.603 143.5 72C143.5 89.397 129.397 103.5 112 103.5C108.778 103.5 105.669 103.016 102.743 102.118L101.841 101.841L102.118 102.743C103.016 105.669 103.5 108.778 103.5 112C103.5 129.397 89.397 143.5 72 143.5C54.603 143.5 40.5 129.397 40.5 112C40.5 108.778 40.9837 105.669 41.8821 102.743L42.1589 101.841L41.2574 102.118C38.3309 103.016 35.2224 103.5 32 103.5C14.603 103.5 0.5 89.397 0.5 72C0.5 54.603 14.603 40.5 32 40.5C35.2224 40.5 38.3309 40.9837 41.2574 41.8821L42.1589 42.1589L41.8821 41.2574C40.9837 38.3309 40.5 35.2224 40.5 32C40.5 14.603 54.603 0.5 72 0.5C89.397 0.5 103.5 14.603 103.5 32C103.5 35.2224 103.016 38.3309 102.118 41.2574Z" stroke="#368048"/>
<path d="M72.0228 88C81.793 81.1471 89.9006 75.2283 88.9193 64.5039C87.9791 54.2282 77.5821 54.2281 74.6667 55.6929C70.1139 57.9804 67.293 61.733 71.9944 65.4855C76.6958 61.733 73.8915 57.9472 69.322 55.6929C66.3527 54.2281 56.0097 54.2282 55.0694 64.504C54.1896 74.1193 61.8576 80.9889 67.5477 85.0236" stroke="white" stroke-linecap="round" stroke-linejoin="round"/>
</svg>
