<svg width="125" height="144" viewBox="0 0 125 144" fill="none" xmlns="http://www.w3.org/2000/svg">
<path d="M0.5 36.2887L62.3538 0.57735L124.208 36.2887V107.711L62.3538 143.423L0.5 107.711V36.2887Z" stroke="#368048"/>
<path d="M73.056 53.9684C73.0598 53.9473 73.0624 53.9262 73.0643 53.905C73.152 52.8727 72.7968 51.8455 72.0902 51.0871C71.3837 50.3287 70.361 49.9095 69.3466 49.9178C69.1848 49.9195 69.0244 49.8887 68.8749 49.8271C68.7254 49.7656 68.5898 49.6745 68.4762 49.5594C68.3478 49.4321 68.2459 49.2806 68.1762 49.1138C68.1064 48.947 68.0703 48.7681 68.0698 48.5873C68.0689 48.0074 67.8381 47.4516 67.4281 47.0416C67.018 46.6317 66.4621 46.4011 65.8822 46.4004H58.1178C57.5379 46.4011 56.982 46.6317 56.5719 47.0416C56.1618 47.4516 55.9311 48.0074 55.9302 48.5873C55.9302 48.9508 55.7818 49.3054 55.5245 49.5601C55.2902 49.7905 54.9869 49.9185 54.6707 49.9185L54.6541 49.9178C53.6173 49.8942 52.617 50.3294 51.9098 51.0871C51.2026 51.8449 50.848 52.8727 50.9357 53.905C50.9376 53.9262 50.9402 53.9473 50.944 53.969L53.0131 65.0404C53.2704 66.6456 53.1937 68.2866 52.7878 69.8609L52.032 72.8081C51.8963 73.3301 51.8827 73.8764 51.9921 74.4046C52.1016 74.9328 52.3311 75.4287 52.663 75.8538C52.9922 76.2811 53.4154 76.6268 53.8997 76.8641C54.3841 77.1014 54.9166 77.2239 55.456 77.2222H61.36V91.7668H59.3965C56.8211 91.7668 54.727 93.8615 54.727 96.4362V96.9604C54.727 97.1301 54.7945 97.2929 54.9145 97.4129C55.0345 97.533 55.1973 97.6004 55.367 97.6004H68.6329C68.8027 97.6004 68.9655 97.533 69.0855 97.4129C69.2055 97.2929 69.2729 97.1301 69.2729 96.9604V96.4356C69.2729 93.8615 67.1789 91.7668 64.6035 91.7668H62.64V77.2222H68.544C69.6448 77.2222 70.6624 76.723 71.3369 75.8538C71.669 75.4286 71.8986 74.9326 72.008 74.4043C72.1175 73.876 72.1038 73.3296 71.968 72.8074L71.2121 69.8609C70.8071 68.2922 70.7295 66.657 70.9843 65.057L73.056 53.9684ZM67.991 96.3204H56.0096C56.0407 95.4424 56.4111 94.6107 57.0429 94.0002C57.6747 93.3896 58.5186 93.0479 59.3971 93.0468H64.6042C65.4826 93.0481 66.3263 93.3899 66.958 94.0004C67.5896 94.6109 67.9599 95.4425 67.991 96.3204ZM69.9718 70.179L70.7283 73.1262C70.8147 73.4593 70.8232 73.8078 70.7533 74.1447C70.6834 74.4816 70.5369 74.798 70.3251 75.0692C70.1151 75.3416 69.8452 75.5621 69.5364 75.7134C69.2275 75.8648 68.888 75.9431 68.544 75.9422H55.456C55.1119 75.9432 54.7722 75.865 54.4633 75.7136C54.1543 75.5622 53.8843 75.3417 53.6742 75.0692C53.4626 74.7979 53.3162 74.4816 53.2464 74.1446C53.1765 73.8077 53.1852 73.4592 53.2717 73.1262L54.0282 70.179C54.4781 68.4241 54.5619 66.6276 54.2746 64.8222L52.208 53.7668C52.1826 53.4379 52.2261 53.1072 52.3359 52.7961C52.4457 52.485 52.6192 52.2002 52.8454 51.9601C53.0687 51.7181 53.34 51.5253 53.6419 51.394C53.9438 51.2626 54.2698 51.1956 54.599 51.1972L54.6707 51.1978C55.3277 51.197 55.9576 50.9358 56.4224 50.4714C56.6711 50.2246 56.8687 49.9311 57.0038 49.6078C57.1389 49.2845 57.2088 48.9377 57.2096 48.5873C57.2096 48.0868 57.616 47.6804 58.1171 47.6804H65.8816C66.1221 47.6807 66.3526 47.7764 66.5227 47.9463C66.6928 48.1163 66.7886 48.3468 66.7891 48.5873C66.7891 49.2913 67.0765 49.978 67.5763 50.4714C68.0411 50.9358 68.671 51.197 69.328 51.1978H69.3632C70.0634 51.1825 70.6854 51.459 71.1533 51.9601C71.3795 52.2002 71.553 52.485 71.6628 52.7961C71.7726 53.1072 71.8161 53.4379 71.7907 53.7668L69.7222 64.8388C69.437 66.6171 69.522 68.435 69.9718 70.179Z" fill="white"/>
</svg>
