<svg width="144" height="144" viewBox="0 0 144 144" fill="none" xmlns="http://www.w3.org/2000/svg">
<circle cx="72" cy="72" r="71.5" stroke="#368048"/>
<path d="M70.8137 51.9988L58.9591 58.5847C58.5784 58.7963 58.2611 59.1058 58.0403 59.4812C57.8194 59.8566 57.7029 60.2842 57.7029 60.7198V74.5253C57.7029 74.9609 57.8193 75.3886 58.0402 75.764C58.2611 76.1394 58.5784 76.4489 58.9591 76.6605L70.8137 83.2463C71.1766 83.4479 71.5848 83.5537 71.9998 83.5537C72.4149 83.5537 72.8231 83.4479 73.1859 83.2463L85.0406 76.6605C85.4213 76.4489 85.7386 76.1394 85.9595 75.764C86.1804 75.3886 86.2969 74.9609 86.2969 74.5253V60.7198C86.2969 60.2842 86.1804 59.8566 85.9595 59.4812C85.7386 59.1058 85.4213 58.7963 85.0406 58.5847L73.1859 51.9988C72.8231 51.7973 72.4149 51.6915 71.9998 51.6915C71.5848 51.6915 71.1766 51.7973 70.8137 51.9988Z" stroke="white" stroke-miterlimit="10" stroke-linecap="round" stroke-linejoin="round"/>
<path d="M58.1824 59.5492L71.9998 67.2256L85.8173 59.5492" stroke="white" stroke-miterlimit="10" stroke-linecap="round" stroke-linejoin="round"/>
<path d="M71.9999 79.7832V67.2249" stroke="white" stroke-miterlimit="10" stroke-linecap="round" stroke-linejoin="round"/>
<path d="M89.846 69.5708C94.4133 71.7808 97.2381 74.8337 97.2381 78.206C97.2381 80.8233 95.5363 83.2485 92.639 85.2363" stroke="white" stroke-miterlimit="10" stroke-linecap="round" stroke-linejoin="round"/>
<path d="M87.6743 87.7779C83.369 89.4307 77.9227 90.418 71.9999 90.418C58.0612 90.418 46.7617 84.9504 46.7617 78.2058C46.7617 74.8499 49.5595 71.81 54.0879 69.6027" stroke="white" stroke-miterlimit="10" stroke-linecap="round" stroke-linejoin="round"/>
<path d="M81.1864 86.647L89.0529 87.3792L82.8788 92.3086" stroke="white" stroke-miterlimit="10" stroke-linecap="round" stroke-linejoin="round"/>
</svg>
