<svg width="144" height="144" viewBox="0 0 144 144" fill="none" xmlns="http://www.w3.org/2000/svg">
<path d="M72 0.931261L99.5796 44.267L99.6393 44.3607L99.733 44.4204L143.069 72L99.733 99.5796L99.6393 99.6393L99.5796 99.733L72 143.069L44.4204 99.733L44.3607 99.6393L44.267 99.5796L0.931261 72L44.267 44.4204L44.3607 44.3607L44.4204 44.267L72 0.931261Z" stroke="white"/>
<g clip-path="url(#clip0_367_2687)">
<path d="M82.6933 91.7504H61.3067C61.1945 91.7504 61.0855 91.7127 60.9972 91.6432C60.909 91.5738 60.8467 91.4767 60.8204 91.3676L55.8263 70.5923L52.8956 73.688C52.8415 73.7452 52.7746 73.7888 52.7004 73.8152C52.6262 73.8417 52.5469 73.8503 52.4687 73.8403C52.3906 73.8303 52.316 73.802 52.2508 73.7577C52.1857 73.7135 52.1319 73.6544 52.0939 73.5855L46.0617 62.61C46.0022 62.5014 45.985 62.3747 46.0135 62.2542C46.042 62.1338 46.1141 62.0281 46.2159 61.9577L58.0058 53.8122C58.0823 53.7588 58.1724 53.7283 58.2656 53.7243L71.4872 53.0778C72.3738 53.0338 73.2621 53.0367 74.1484 53.0866L85.7372 53.7242C85.8294 53.7292 85.9183 53.7596 85.9941 53.8121L97.7841 61.9576C97.8859 62.028 97.9581 62.1336 97.9866 62.2541C98.015 62.3746 97.9979 62.5014 97.9383 62.6099L91.9062 73.5855C91.8682 73.6545 91.8145 73.7135 91.7493 73.7578C91.6842 73.8021 91.6095 73.8304 91.5314 73.8404C91.4533 73.8504 91.3739 73.8418 91.2997 73.8153C91.2255 73.7888 91.1586 73.7452 91.1045 73.688L88.1739 70.5923L83.1797 91.3676C83.1533 91.4767 83.091 91.5738 83.0028 91.6432C82.9146 91.7127 82.8056 91.7504 82.6933 91.7504ZM61.7003 90.7505H82.2998L87.4169 69.4625C87.438 69.375 87.4824 69.2947 87.5453 69.2303C87.6082 69.1658 87.6873 69.1196 87.7743 69.0963C87.8613 69.0731 87.953 69.0738 88.0396 69.0984C88.1263 69.123 88.2047 69.1705 88.2665 69.2359L91.3593 72.5025L96.8445 62.523L85.5419 54.7146L74.0937 54.0847C73.2419 54.0388 72.3883 54.0359 71.5361 54.0759L58.4572 54.7155L47.1554 62.5231L52.6408 72.5026L55.7335 69.236C55.7954 69.1706 55.8738 69.1231 55.9604 69.0985C56.047 69.074 56.1387 69.0732 56.2257 69.0964C56.3127 69.1197 56.3919 69.1659 56.4548 69.2304C56.5177 69.2948 56.562 69.3751 56.5831 69.4626L61.7003 90.7505Z" fill="white"/>
<path d="M72.8222 59.6922C67.5381 59.6922 63.1338 57.2772 62.5781 54.076C62.5668 54.0115 62.5682 53.9453 62.5824 53.8814C62.5966 53.8174 62.6233 53.7569 62.6609 53.7032C62.6985 53.6495 62.7463 53.6038 62.8016 53.5686C62.8569 53.5334 62.9186 53.5095 62.9831 53.4982L62.9843 53.4979C63.1126 53.4735 63.2452 53.501 63.3532 53.5744C63.4611 53.6478 63.5355 53.7611 63.5599 53.8893L63.5625 53.9042C64.0294 56.5897 68.0967 58.6922 72.8222 58.6922C77.501 58.6922 81.5643 56.6121 82.0732 53.9568C82.098 53.8266 82.1736 53.7115 82.2833 53.637C82.393 53.5624 82.5278 53.5345 82.6581 53.5594C82.7884 53.5842 82.9034 53.6598 82.978 53.7695C83.0525 53.8792 83.0804 54.014 83.0556 54.1443C82.4492 57.3074 78.0498 59.6922 72.8222 59.6922ZM68.1387 73.4392C68.0751 73.4392 68.0121 73.4269 67.9531 73.4031L64.2432 71.9206C64.1923 71.9005 64.1452 71.8722 64.1036 71.8366L55.5118 64.4782C55.4111 64.3921 55.3487 64.2694 55.3384 64.1372C55.3281 64.0051 55.3707 63.8742 55.4568 63.7735L55.4571 63.7731L57.2462 61.6833C57.2888 61.6335 57.3408 61.5925 57.3993 61.5628C57.4578 61.5332 57.5216 61.5154 57.587 61.5104C57.6526 61.5046 57.7186 61.5121 57.7812 61.5324C57.8438 61.5527 57.9016 61.5854 57.9513 61.6286L66.543 68.9879C66.5897 69.028 66.6287 69.0764 66.6582 69.1305L68.5791 72.7017C68.6201 72.7779 68.6407 72.8635 68.6387 72.95C68.6368 73.0366 68.6125 73.1211 68.5681 73.1954C68.5237 73.2697 68.4609 73.3312 68.3856 73.374C68.3103 73.4167 68.2253 73.4392 68.1387 73.4392ZM64.6915 71.0232L67.047 71.9646L65.8214 69.6873L57.6809 62.7137L56.5422 64.0437L64.6915 71.0232Z" fill="white"/>
<path d="M68.1387 91.7505C68.0062 91.7506 67.8791 91.698 67.7853 91.6044C67.6915 91.5107 67.6388 91.3837 67.6387 91.2511V72.9391C67.6387 72.8065 67.6914 72.6793 67.7851 72.5855C67.8789 72.4918 68.0061 72.4391 68.1387 72.4391C68.2713 72.4391 68.3985 72.4918 68.4923 72.5855C68.5861 72.6793 68.6388 72.8065 68.6388 72.9391V91.2506C68.6388 91.3831 68.5862 91.5103 68.4926 91.604C68.3989 91.6978 68.2719 91.7505 68.1393 91.7506L68.1387 91.7505ZM77.1416 91.1285L77.1162 91.1274C76.9841 91.121 76.86 91.0623 76.7712 90.9644C76.6823 90.8664 76.636 90.7372 76.6425 90.6051L76.6426 90.603L76.7451 88.606C76.7451 88.5394 76.7591 88.4736 76.7861 88.4127C76.8132 88.3519 76.8527 88.2974 76.9021 88.2527C76.9515 88.2081 77.0097 88.1743 77.073 88.1536C77.1363 88.1329 77.2032 88.1256 77.2694 88.1323C77.4015 88.1388 77.5256 88.1974 77.6145 88.2954C77.7033 88.3934 77.7496 88.5226 77.7432 88.6547L77.7431 88.6568L77.6406 90.6538C77.6341 90.7818 77.5788 90.9025 77.4859 90.9908C77.393 91.0792 77.2697 91.1285 77.1416 91.1285ZM77.3467 87.1334L77.3214 87.1324C77.1893 87.1259 77.0652 87.0672 76.9763 86.9693C76.8875 86.8713 76.8412 86.7421 76.8476 86.61L76.8477 86.6079L76.9502 84.6109C76.9496 84.5441 76.9631 84.478 76.99 84.4168C77.0168 84.3556 77.0563 84.3009 77.1058 84.2561C77.1554 84.2113 77.2139 84.1776 77.2775 84.1571C77.341 84.1366 77.4082 84.1298 77.4746 84.1372C77.6067 84.1437 77.7308 84.2023 77.8196 84.3003C77.9085 84.3983 77.9548 84.5275 77.9483 84.6596L77.9482 84.6616L77.8457 86.6586C77.8393 86.7866 77.7839 86.9073 77.6911 86.9957C77.5982 87.0841 77.4749 87.1334 77.3467 87.1334ZM77.5527 83.1392L77.5273 83.1382C77.3953 83.1317 77.2711 83.0731 77.1823 82.9751C77.0935 82.8772 77.0472 82.7479 77.0536 82.6158L77.0537 82.6139L77.1562 80.6159C77.1548 80.5489 77.1678 80.4823 77.1944 80.4208C77.2209 80.3592 77.2604 80.3041 77.3102 80.2592C77.3599 80.2143 77.4188 80.1806 77.4827 80.1604C77.5466 80.1402 77.6141 80.134 77.6807 80.1422C77.8127 80.1487 77.9369 80.2073 78.0257 80.3053C78.1146 80.4033 78.1609 80.5325 78.1544 80.6646L78.1543 80.6667L78.0518 82.6646C78.0453 82.7927 77.9899 82.9133 77.897 83.0016C77.8041 83.09 77.6809 83.1392 77.5527 83.1392ZM77.7577 79.1441L77.7324 79.1431C77.667 79.1399 77.6028 79.1239 77.5436 79.0959C77.4844 79.0679 77.4313 79.0286 77.3873 78.9801C77.3433 78.9316 77.3093 78.8749 77.2872 78.8132C77.2652 78.7516 77.2554 78.6862 77.2586 78.6208L77.2587 78.6187L77.3613 76.6216C77.3607 76.5549 77.3743 76.4887 77.4012 76.4276C77.428 76.3665 77.4675 76.3118 77.5171 76.267C77.5666 76.2222 77.6251 76.1885 77.6886 76.168C77.7522 76.1475 77.8193 76.1407 77.8857 76.148C78.0178 76.1544 78.1419 76.2131 78.2308 76.311C78.3196 76.409 78.3659 76.5382 78.3595 76.6703L78.3594 76.6723L78.2568 78.6693C78.2504 78.7974 78.195 78.9181 78.1021 79.0065C78.0092 79.0948 77.8859 79.1441 77.7577 79.1441ZM77.9628 75.1501L77.9374 75.149C77.872 75.1459 77.8079 75.1298 77.7487 75.1019C77.6895 75.0739 77.6363 75.0345 77.5924 74.986C77.5484 74.9375 77.5144 74.8808 77.4923 74.8192C77.4702 74.7575 77.4605 74.6921 77.4637 74.6267L77.4638 74.6246L77.5663 72.6265C77.5651 72.5596 77.5782 72.4931 77.6048 72.4317C77.6315 72.3702 77.671 72.3152 77.7207 72.2703C77.7704 72.2254 77.8291 72.1917 77.893 72.1714C77.9568 72.1512 78.0243 72.1449 78.0907 72.1529C78.1562 72.1561 78.2203 72.1721 78.2795 72.2001C78.3387 72.228 78.3918 72.2674 78.4358 72.3159C78.4798 72.3644 78.5138 72.4211 78.5359 72.4828C78.558 72.5444 78.5677 72.6098 78.5645 72.6752L78.5644 72.6773L78.4619 74.6753C78.4555 74.8033 78.4001 74.924 78.3072 75.0124C78.2143 75.1008 78.091 75.1501 77.9628 75.1501ZM78.1689 71.155L78.1434 71.154C78.0112 71.1473 77.887 71.0884 77.7981 70.9902C77.7093 70.892 77.6631 70.7625 77.6698 70.6302V70.6295L77.6912 70.2057C77.697 70.0923 77.7411 69.9842 77.8163 69.8991L78.8632 68.7223C78.9064 68.6729 78.9589 68.6324 79.0178 68.6032C79.0766 68.5741 79.1406 68.5568 79.2062 68.5524C79.2717 68.5479 79.3374 68.5565 79.3997 68.5774C79.4619 68.5984 79.5194 68.6315 79.5689 68.6747C79.6183 68.7179 79.6588 68.7704 79.688 68.8293C79.7171 68.8881 79.7344 68.9521 79.7389 69.0177C79.7433 69.0832 79.7348 69.149 79.7138 69.2112C79.6928 69.2734 79.6597 69.3309 79.6165 69.3804L79.6112 69.3865L78.6805 70.4323L78.6679 70.6803C78.6612 70.8083 78.6058 70.9288 78.513 71.0171C78.4202 71.1054 78.297 71.1548 78.1689 71.155ZM80.5673 68.0603C80.4709 68.0604 80.3765 68.0326 80.2956 67.9802C80.2146 67.9279 80.1505 67.8533 80.111 67.7654C80.0714 67.6774 80.0582 67.58 80.0728 67.4847C80.0874 67.3894 80.1292 67.3003 80.1932 67.2283L81.5223 65.7332C81.5659 65.6841 81.6188 65.644 81.6779 65.6154C81.7369 65.5867 81.8011 65.5699 81.8666 65.566C81.9322 65.5621 81.9979 65.5712 82.0599 65.5927C82.122 65.6141 82.1792 65.6476 82.2283 65.6912C82.2774 65.7348 82.3175 65.7877 82.3462 65.8468C82.3748 65.9058 82.3916 65.97 82.3955 66.0355C82.3994 66.1011 82.3903 66.1668 82.3688 66.2288C82.3474 66.2909 82.3139 66.3481 82.2703 66.3972L80.9411 67.8923C80.8942 67.9451 80.8367 67.9874 80.7722 68.0164C80.7078 68.0453 80.6379 68.0603 80.5673 68.0603ZM83.2255 65.071C83.1292 65.0709 83.035 65.0429 82.9543 64.9905C82.8735 64.9381 82.8096 64.8634 82.7702 64.7756C82.7308 64.6877 82.7176 64.5903 82.7322 64.4952C82.7468 64.4 82.7886 64.311 82.8525 64.239L84.1826 62.7449C84.2262 62.6959 84.279 62.656 84.338 62.6274C84.397 62.5988 84.4611 62.5821 84.5266 62.5783C84.5921 62.5745 84.6577 62.5836 84.7196 62.6052C84.7816 62.6267 84.8387 62.6602 84.8876 62.7038C84.9366 62.7474 84.9766 62.8003 85.0051 62.8593C85.0337 62.9183 85.0504 62.9824 85.0542 63.0479C85.058 63.1133 85.0489 63.1789 85.0274 63.2409C85.0058 63.3028 84.9723 63.3599 84.9287 63.4089L83.5986 64.9031C83.5519 64.956 83.4945 64.9983 83.4302 65.0273C83.3658 65.0562 83.2961 65.0712 83.2255 65.071ZM85.8847 62.0827C85.7883 62.0828 85.6939 62.055 85.613 62.0027C85.532 61.9503 85.4679 61.8757 85.4284 61.7878C85.3889 61.6999 85.3756 61.6024 85.3902 61.5071C85.4048 61.4118 85.4466 61.3228 85.5106 61.2507L86.8397 59.7566C86.8834 59.7074 86.9362 59.6674 86.9953 59.6387C87.0544 59.61 87.1185 59.5932 87.1841 59.5893C87.2496 59.5854 87.3153 59.5945 87.3774 59.616C87.4394 59.6375 87.4967 59.671 87.5458 59.7146C87.5949 59.7582 87.6349 59.811 87.6636 59.8701C87.6923 59.9292 87.7091 59.9933 87.713 60.0589C87.7169 60.1244 87.7078 60.1901 87.6864 60.2522C87.6649 60.3143 87.6314 60.3715 87.5878 60.4206L86.2587 61.9148C86.2117 61.9676 86.1542 62.0099 86.0897 62.0389C86.0252 62.0678 85.9554 62.0828 85.8847 62.0827ZM88.544 59.0945C88.4476 59.0946 88.3532 59.0668 88.2723 59.0145C88.1913 58.9621 88.1272 58.8875 88.0877 58.7996C88.0481 58.7117 88.0349 58.6142 88.0495 58.5189C88.0641 58.4236 88.1059 58.3346 88.1699 58.2625L89.499 56.7684C89.5876 56.6709 89.711 56.6123 89.8424 56.6052C89.9739 56.5982 90.1029 56.6432 90.2013 56.7307C90.2998 56.8181 90.3598 56.9408 90.3683 57.0722C90.3769 57.2036 90.3333 57.3331 90.2469 57.4325L88.9178 58.9265C88.8709 58.9794 88.8133 59.0216 88.7489 59.0506C88.6845 59.0795 88.6146 59.0945 88.544 59.0945Z" fill="white"/>
</g>
<defs>
<clipPath id="clip0_367_2687">
<rect width="52" height="38.7968" fill="white" transform="translate(46 53)"/>
</clipPath>
</defs>
</svg>
