<svg width="228" height="107" viewBox="0 0 228 107" fill="none" xmlns="http://www.w3.org/2000/svg">
<path fill-rule="evenodd" clip-rule="evenodd" d="M36.9584 0.652482C36.5575 0.211293 36.2431 -0.00524372 35.8054 9.6389e-05C35.6803 0.0013107 35.5211 0.16011 35.3323 0.464603L35.1633 0.760999L34.9805 1.12709L34.6816 1.80327L34.467 2.33631L34.2407 2.93323L34.0035 3.59236L33.6286 4.69404L33.2326 5.92632L32.8178 7.28359L32.3863 8.76023L31.9403 10.3506L31.3268 12.6384L30.537 15.7481L26.547 15.8261L22.2715 15.933L19.2548 16.0232L16.3032 16.1203L14.6628 16.1874L13.9256 16.2325L13.2387 16.2903L12.5978 16.3648C9.50242 16.7854 7.98874 17.9773 5.82291 22.1247L5.38039 22.9942L5.31132 23.0106L4.81683 23.1527L4.43012 23.2851L3.97623 23.463C2.3728 24.1356 -0.0276932 25.623 0.000241624 28.4946C0.045112 32.8021 9.46615 39.4629 16.817 39.2193C17.7678 39.1871 18.8721 38.1743 19.8458 36.8011L20.1836 36.3025C20.2388 36.2172 20.2935 36.1309 20.3475 36.0438L20.6638 35.5117L20.9623 34.9648C21.0585 34.7807 21.1513 34.5951 21.2401 34.4091L21.4947 33.8508C21.535 33.7579 21.5742 33.6651 21.6123 33.5726L21.8266 33.0216C22.8247 30.2932 22.6864 28.0331 19.8491 29.65L19.4618 29.8606C13.7455 32.8263 6.52304 30.4441 6.51092 29.3586C6.51014 29.2718 6.54423 29.1653 6.6137 29.0426L6.74452 28.8468C6.87576 28.6742 7.06271 28.479 7.30639 28.2677L7.6261 28.007L8.00066 27.7335C8.06768 27.687 8.137 27.64 8.20864 27.5927L8.66622 27.3048C8.74713 27.2562 8.83036 27.2073 8.91593 27.1583L9.45743 26.8617L10.0554 26.5626C10.3685 26.4128 10.7029 26.263 11.0589 26.1147L11.7996 25.8204C12.0561 25.7232 12.3223 25.627 12.5982 25.5324L13.4549 25.2534C16.2605 24.3869 19.9474 23.6936 24.572 23.5392L26.6127 23.4811L28.7594 23.4362C25.5712 38.1192 22.5168 57.3608 22.3383 74.0657L22.3407 74.2566L22.3276 76.0556L22.3409 77.2563L22.3692 77.9827C22.4954 80.3031 22.9665 81.6026 24.5224 81.5905C26.067 83.5697 27.9611 84.2026 28.5115 84.1951C28.8848 84.1913 29.0734 83.4485 29.1654 82.3605L29.2066 81.7352L29.2317 81.0556L29.2441 80.3359L29.2457 79.2124L29.2283 77.1964L29.228 75.972C29.3456 64.9144 30.9684 53.3965 33.033 43.0407L33.5577 40.4769L34.0972 37.9672C34.1881 37.5538 34.2795 37.1428 34.3712 36.7344L34.9258 34.3163L35.4859 31.9664L36.0477 29.6903L36.6076 27.4935L37.1619 25.3819L37.7069 23.3609C38.4764 23.3599 39.2471 23.3601 40.016 23.3611L43.1195 23.3696L53.9293 23.437L58.8997 23.4541L60.9151 23.4392L61.8173 23.4186C64.2606 23.337 67.0423 20.8386 69.2126 18.3103L69.8152 17.5892L70.3796 16.8788L70.9009 16.1916C70.9839 16.0796 71.0649 15.9692 71.1438 15.8605L71.5912 15.2311C71.6613 15.1304 71.729 15.0319 71.7944 14.9359L72.1568 14.3923L72.5811 13.7168L72.7772 13.3779L72.8982 13.1425C72.9254 13.0827 72.9394 13.0421 72.9391 13.023C72.9367 12.6211 72.1631 11.3553 71.6896 11.7144C71.6002 11.7821 71.5108 11.8485 71.4215 11.9138L70.886 12.2917C70.7967 12.3524 70.7074 12.412 70.6179 12.4705L70.0791 12.8085L69.5346 13.1212C69.3519 13.2213 69.1678 13.3173 68.9818 13.4095L68.4179 13.6744C68.2278 13.759 68.0353 13.8398 67.8401 13.917L67.2457 14.1383C67.1451 14.1734 67.0437 14.2077 66.9415 14.2412L66.317 14.4322L65.6691 14.6044L64.9949 14.7587L64.2918 14.8962L63.5569 15.0178L62.7876 15.1245L61.981 15.2173L61.1345 15.2973L59.7838 15.3953L58.3277 15.4699L57.2939 15.5083L55.6416 15.5515L53.8591 15.5803L51.9374 15.5981L39.9134 15.6401L40.248 14.5249L42.0908 8.51669L42.2527 7.93817L42.2843 7.79056L42.2885 7.74857C42.2953 7.19099 42.1693 6.73952 41.6727 6.04852L41.3925 5.68146L41.0438 5.26487C40.9797 5.19078 40.9124 5.11423 40.8418 5.03501L40.3783 4.52614L39.2 3.28202C38.9941 3.06102 38.8052 2.85129 38.631 2.65278L38.1499 2.09093L37.2409 0.979921L36.9584 0.652482ZM169.544 3.88952C169.124 3.45722 168.796 3.24468 168.339 3.24896C168.142 3.2507 167.871 3.48495 167.542 3.93376L167.285 4.31032C167.241 4.37969 167.195 4.45234 167.149 4.52824L166.862 5.02232L166.557 5.59265C166.504 5.69397 166.451 5.79839 166.398 5.90588L166.068 6.58742L165.723 7.341L165.364 8.16493L164.994 9.05753L164.419 10.5215L164.025 11.5784L163.624 12.6981L163.217 13.8788L162.805 15.119C157.756 15.11 152.707 15.1317 147.658 15.1843C140.767 15.2546 137.289 20.1121 136.667 22.9703C136.657 23.9147 137.801 23.8846 138.136 23.6309C139.796 22.3801 143.397 21.9129 146.923 21.8753C148.148 21.8632 149.444 21.86 150.79 21.8641L153.543 21.8816C154.011 21.8859 154.483 21.891 154.959 21.8968L157.846 21.9386L160.779 21.9933C160.452 23.2165 160.129 24.4849 159.812 25.7984L159.37 27.1302L157.939 31.3687L156.025 36.9007L154.522 41.1321L152.908 45.5559L152.094 47.7305L151.225 50.0074L150.142 52.7646L149.289 54.8636L148.457 56.8362L147.852 58.2151L147.268 59.4941L146.891 60.2852L146.525 61.0228L146.172 61.7032L145.833 62.3228C145.795 62.3902 145.757 62.4562 145.72 62.521L145.669 62.6087L145.352 63.1303L145.051 63.5819C144.564 64.2743 144.149 64.6602 143.828 64.6634C143.02 64.6716 142.93 62.8665 143.25 60.1279L143.379 59.124L143.54 58.0512L143.728 56.9181C143.762 56.7247 143.796 56.5291 143.832 56.3316L144.057 55.124L144.302 53.8776L144.702 51.9541L145.131 49.9914L145.73 47.3639L146.491 44.1592L148.201 37.1629L148.626 35.3565L148.788 34.5987L148.85 34.2474L148.873 34.0291C148.891 32.3412 147.621 28.3754 144.771 28.403C141.046 28.4411 137.315 32.1383 134.116 36.7172L133.358 37.8316C132.736 38.772 132.137 39.7388 131.565 40.7098L130.893 41.8755C130.563 42.458 130.244 43.0387 129.937 43.6129L129.337 44.7513L128.769 45.8638L128.235 46.9419L127.737 47.977L127.059 49.4306L126.47 50.7395L125.701 52.5215L125.062 54.0896L128.034 39.6359L128.814 35.5998L129.011 34.4596L129.065 34.0905L129.084 33.8733C129.092 33.1333 128.679 32.4991 128.184 31.8716L127.529 31.0607L127.318 30.784C127.25 30.6904 127.187 30.5914 127.127 30.4888L126.779 29.8442L126.592 29.5161C126.131 28.7584 125.439 28.0849 123.664 28.1041C123.482 28.1058 123.264 28.3819 123.019 28.8869L122.83 29.3079L122.632 29.8104L122.426 30.3901L122.211 31.0428L121.99 31.7642L121.646 32.9657L121.29 34.2978L120.925 35.7459L120.554 37.2956L120.178 38.9325L119.801 40.6422C119.75 40.7871 119.696 40.9345 119.642 41.0844L119.297 42.0114L118.918 42.9901L118.509 44.0144L117.84 45.6229L117.361 46.7345L116.598 48.4452L116.061 49.6058L115.506 50.7752L114.932 51.9475L114.343 53.1165L113.74 54.2761L113.126 55.4201L112.502 56.5425L111.87 57.6371L111.232 58.6978C111.125 58.8715 111.018 59.0434 110.911 59.2136L110.268 60.2121C107.799 63.9494 105.308 66.6034 103.289 66.625L103.163 66.6176L103.007 66.5908L102.823 66.5409L102.616 66.4643L102.388 66.3574L102.143 66.2164C102.101 66.1899 102.059 66.1618 102.016 66.1321L101.753 65.9333C100.548 64.9443 99.1018 62.645 98.8636 57.5379C98.818 56.5541 98.8045 55.569 98.8233 54.5842C106.29 54.0216 115.948 45.1405 115.948 36.4553C115.948 32.305 114.393 30.7781 112.997 30.2925L112.666 30.1951C112.557 30.1688 112.45 30.1483 112.346 30.1328L112.043 30.1009C111.181 29.3424 109.941 28.7797 108.157 28.7998C102.109 28.8601 93.9348 35.8123 91.4905 47.8355L90.4561 50.5234L89.2774 53.5116L88.4423 55.5739L87.5892 57.6247L86.7368 59.6062L86.109 61.0119L85.7003 61.8972L85.3021 62.7325L84.9168 63.5107C84.8538 63.6352 84.7914 63.757 84.7297 63.8761L84.3681 64.5549L84.0251 65.1584C83.4147 66.1914 82.9101 66.8083 82.5752 66.8083C82.1877 66.8083 81.9227 66.1481 81.7564 65.0578L81.6752 64.4218C81.6514 64.1965 81.6306 63.9584 81.6128 63.7088L81.5682 62.927L81.5405 62.0849C81.5373 61.9399 81.5347 61.7928 81.5328 61.6437L81.5289 60.7265L81.5398 59.7695L81.5646 58.7812L81.6025 57.7698L81.6819 56.2276L81.7487 55.1948L81.8254 54.168L81.9575 52.657L82.1072 51.2061L82.2153 50.286L82.388 48.9975L82.5088 48.2116L82.6331 47.4939L88.4325 36.6515L89.6562 34.3286L90.9583 31.8258L92.5351 28.7342L93.7267 26.335L94.564 24.6027L95.3415 22.9451L95.8217 21.8891L96.2678 20.8776L96.6769 19.9153L97.046 19.0067C97.104 18.86 97.1602 18.7157 97.2146 18.574L97.5179 17.7545L97.7738 17.0001C98.0818 16.0396 98.255 15.265 98.2614 14.7247C98.3294 8.57117 90.1726 4.48726 88.4994 4.50484C87.7618 4.49302 87.0709 4.86394 86.675 5.48438C86.4695 5.62869 86.2103 5.96129 85.9081 6.46068L85.6388 6.92908C85.5457 7.09849 85.4493 7.28102 85.35 7.47616L85.043 8.09893L84.7195 8.79437L84.2064 9.96721L83.8479 10.8312C83.7872 10.9804 83.726 11.1323 83.6643 11.2866L83.0984 12.7425L82.7103 13.7839L82.3152 14.8784L81.713 16.6132L81.1037 18.4506L80.696 19.7275L80.0859 21.7134L79.6823 23.0799L79.2831 24.477L78.8895 25.9016C78.8245 26.1412 78.7598 26.3818 78.6954 26.6233L78.3133 28.0837L77.9407 29.564L77.5791 31.0614L77.23 32.5729L76.8948 34.0954L76.575 35.6258L76.2722 37.1613L75.9879 38.6988C75.9421 38.9551 75.8971 39.2113 75.8531 39.4674L75.5991 41.0022L75.3673 42.5315L75.1592 44.0523L74.9762 45.5616L74.8946 46.3109L72.2573 52.3972L70.829 55.602L69.6298 58.1987L69.1545 59.196L68.4519 60.6292L67.993 61.534L67.5436 62.3916L67.1057 63.1958L66.681 63.9408L66.2712 64.6207C66.2043 64.7283 66.138 64.8328 66.0725 64.9343L65.6885 65.5053C65.0018 66.4807 64.4128 67.0527 63.9709 67.057C63.3024 67.064 63.0599 66.3597 62.9858 64.9561L62.9636 64.3118L62.9591 63.1852L62.979 61.8281C63.0998 56.5457 63.7271 51.9205 64.5429 47.9797L64.8381 46.6173L65.1459 45.312L65.4631 44.064L65.7867 42.8737L66.1135 41.7413L66.4405 40.667L66.7644 39.6511L67.0823 38.6939L67.5408 37.3688L68.7854 33.9209L69.0332 33.1808L69.1565 32.7636L69.2427 32.4078L69.2886 32.1135L69.2954 31.9896C69.308 30.9247 61.6703 30.2767 60.5086 35.4431L60.5263 35.29L60.5455 34.9989L60.5487 34.5867L60.5325 34.2582L60.4951 33.8959C60.2707 32.2019 59.2309 29.7288 55.0657 29.7718C48.4435 29.8397 35.6047 41.5891 35.6047 62.1216C35.6047 66.6205 36.4453 68.7497 37.4778 70.0394L37.7511 70.3579C37.7973 70.4081 37.8437 70.457 37.8902 70.5047L38.1718 70.7773C38.219 70.8206 38.2663 70.863 38.3136 70.9046L38.5977 71.145L39.5631 71.9162L39.8202 72.1414L40.2271 72.5327L40.7364 73.0084C41.8532 74.0097 42.5467 74.2735 44.4621 74.2528C47.3298 74.2245 50.2071 70.7544 52.1748 67.7257L52.6668 66.9481C52.7452 66.8211 52.8217 66.6955 52.8963 66.5717L53.3196 65.8529L53.6927 65.1925L54.0117 64.6057L54.3812 63.8971L54.6827 63.287L54.7758 63.9437L54.9785 65.2L55.1183 65.9701L55.2818 66.7855L55.4672 67.6092C55.8265 69.1043 56.2891 70.4545 56.812 70.6335C57.0864 70.7273 57.3157 70.9259 57.5525 71.1776L58.1906 71.8876C58.9528 72.6992 60.0796 73.5824 62.5674 73.5571C64.6834 73.536 66.834 70.7256 68.8901 66.9168L69.4021 65.9449L69.9097 64.9376L70.4124 63.9011L70.9099 62.8417L71.6451 61.2231L72.3531 59.6174C72.5588 59.1456 72.7625 58.6743 72.964 58.2058L74.1462 55.4457L74.0927 56.2703L74.0531 57.152L74.0269 58.0779L74.0122 59.5215L74.0258 60.9922L74.05 61.9663L74.0859 62.9202L74.161 64.2854L74.2248 65.1328L74.299 65.9151C74.3122 66.0394 74.3258 66.1604 74.3399 66.2779L74.4292 66.9384C74.5704 67.8594 74.7441 68.4522 74.945 68.5213C75.2537 68.6274 75.5346 68.9823 75.8481 69.4543L76.4283 70.3537C77.3272 71.7206 78.6202 73.3344 81.1691 73.3084C82.6441 73.2937 84.2865 71.553 85.9303 68.9198L86.4233 68.1039L86.9154 67.2394C86.9973 67.0916 87.0791 66.9419 87.1608 66.7905L87.6497 65.8626C87.7309 65.7048 87.812 65.5455 87.8929 65.3848L88.3763 64.4047C88.4565 64.2389 88.5365 64.0718 88.6162 63.9037L89.0919 62.8826L89.7932 61.3132L90.2511 60.2489L90.921 58.638C91.5258 65.7309 93.8617 70.0458 96.1926 70.0232C96.4964 70.0195 96.7972 70.262 97.1298 70.6056L97.77 71.3019C98.4595 72.0447 99.3193 72.8331 100.552 72.8212C104.86 72.7772 108.879 68.8503 112.34 63.7495L113.003 62.7483C113.33 62.2411 113.653 61.7246 113.97 61.2011L114.596 60.1458L115.206 59.0763L115.801 57.9972L116.38 56.9128L116.941 55.8275C116.9 56.076 116.86 56.3202 116.821 56.56L116.497 58.6053L116.229 60.4334L116.015 62.0585L115.901 63.0363L115.81 63.9347L115.74 64.7578L115.692 65.5099C115.686 65.6296 115.68 65.7465 115.676 65.8607L115.659 66.5145C115.633 68.682 116.188 70.7842 117.468 71.3192L118.251 71.6464L119.663 72.2272L120.292 72.4725L120.87 72.6822C122.804 73.3493 123.791 73.2868 123.808 71.696L123.821 71.1777C123.979 67.1684 125.414 62.342 127.411 57.4993L127.944 56.2361C128.035 56.0257 128.126 55.8154 128.219 55.6053L128.785 54.3469L129.369 53.0958L129.969 51.8549L130.582 50.6275L131.204 49.4168L131.834 48.2259L132.468 47.0579L133.103 45.9161L133.737 44.8035L134.367 43.7234L135.297 42.1709L136.202 40.7093L137.072 39.349L137.898 38.1008L138.669 36.9754L139.377 35.9834L139.809 35.4014L140.205 34.8866L140.564 34.4422L140.881 34.0713L141.154 33.7771C141.405 33.5223 141.586 33.3872 141.684 33.3861C141.867 33.3843 141.869 33.6823 141.736 34.2346L141.628 34.64L141.397 35.3827L141.093 36.2781L140.309 38.4865L139.187 41.6759L138.493 43.7481L138.142 44.8425L137.792 45.9718L137.446 47.1331L137.107 48.3233C137.051 48.5239 136.996 48.7256 136.941 48.9283L136.619 50.1563C136.566 50.3629 136.514 50.5703 136.463 50.7785L136.164 52.0376C136.068 52.4602 135.974 52.8857 135.885 53.3135L135.628 54.6034L135.396 55.9043C134.997 58.2975 134.741 60.7308 134.714 63.1213C134.676 66.4868 135.354 69.6113 137.135 70.4301C137.587 70.6362 138.014 70.8636 138.426 71.0934L139.628 71.7713C140.672 72.347 141.676 72.8065 142.815 72.7935C143.818 72.7841 145.112 71.4922 146.532 69.3941L147.01 68.6656L147.496 67.8812L147.988 67.0449L148.486 66.1606C148.569 66.0095 148.653 65.8565 148.736 65.7018L149.239 64.7529L149.744 63.7659L150.25 62.7446L151.006 61.157L151.507 60.0673L152.004 58.957L152.495 57.83L153.219 56.117L153.701 54.9395C154.495 52.9733 155.245 50.9948 155.919 49.0913C155.507 53.3764 155.274 57.6766 155.221 61.981L155.208 62.976L155.208 64.3799L155.225 65.068C155.276 66.4143 155.437 67.5389 155.883 67.6924C156.192 67.7985 156.473 68.1536 156.787 68.6259L157.367 69.5255C158.267 70.893 159.56 72.507 162.107 72.4796C163.534 72.4796 165.368 70.4695 167.32 67.4492L167.88 66.5597C169.969 70.8822 175.077 72.9819 180.46 72.2736C184.315 71.7688 189.514 68.4735 190.622 63.3398L191.859 58.2936L192.761 54.8316L193.099 53.5746L193.821 50.972L194.592 48.325L194.99 47.0124L195.395 45.7216L195.804 44.4639L196.215 43.2501L196.627 42.0913C196.696 41.9034 196.765 41.7182 196.833 41.536L197.242 40.4804C198.329 37.7706 199.371 35.9413 200.205 35.9329C200.929 35.9256 201.184 36.8058 201.141 38.322L201.109 38.9619C201.105 39.0073 201.102 39.0532 201.098 39.0995L201.093 39.1696C201.089 39.2147 201.085 39.2602 201.081 39.3061L201.006 40.041C200.991 40.1685 200.975 40.2984 200.958 40.4308L200.781 41.684L200.636 42.5848L200.294 44.5276L199.138 50.6301L198.698 53.0407L198.277 55.5081L198.081 56.7541L197.897 58.0036L197.728 59.2531L197.576 60.4988L197.444 61.7373L197.334 62.9649L197.248 64.1782C197.2 64.9814 197.17 65.7726 197.161 66.5471C197.144 68.2374 200.483 72.1807 203.335 72.1506C208.684 72.0961 212.774 65.719 215.479 59.5603L215.97 58.4097L216.428 57.2738C216.502 57.0862 216.574 56.8997 216.645 56.7143L217.054 55.6184L217.43 54.5612L217.772 53.5522L218.082 52.6011L218.482 51.3037L218.807 50.1903L219.12 49.0479L219.334 48.2047L219.186 53.6892L219.033 58.879L218.869 63.7756L218.691 68.3806L218.534 71.8556L218.362 75.1457L218.223 77.4924L218.02 80.4608L217.795 83.2464L217.612 85.2161L217.414 87.0837L217.273 88.2723L217.126 89.4157L216.971 90.5142L216.808 91.5677L216.638 92.5764C216.609 92.7408 216.579 92.9033 216.549 93.064L216.366 94.0056L216.175 94.9027L215.974 95.7553C215.953 95.839 215.932 95.9221 215.911 96.0044C215.898 96.0582 215.884 96.1117 215.87 96.1649L215.655 96.951L215.431 97.6927C215.354 97.9326 215.276 98.1652 215.196 98.3904L214.952 99.044C213.743 102.097 212.162 103.609 210.061 103.631C206.155 103.669 204.351 98.4951 204.215 95.9458C203.915 90.4261 206.059 87.7514 207.913 86.4782L208.292 86.2343L208.657 86.0276L209.002 85.8552L209.324 85.7142L209.616 85.6019L209.872 85.5154L210.179 85.4278L210.446 85.3693C211.211 84.9825 211.847 83.7715 212.319 82.5365L212.56 81.8653C212.598 81.7546 212.634 81.645 212.668 81.5369L212.858 80.9127L213.013 80.3558L213.175 79.7099L213.256 79.3539C213.268 78.4096 212.122 78.4397 211.787 78.6934C210.126 79.9442 206.528 80.4138 203.002 80.449L200.959 80.4434L198.503 80.4069L165.699 79.6244L145.303 79.2164L136.123 79.0764L124.372 78.947L118.436 78.9061L111.962 78.8831L107.502 78.8817L100.123 78.9084L94.2935 78.9584L91.4123 78.9936L85.7318 79.086L81.5554 79.1755L77.4623 79.2834L73.4629 79.4105L70.8538 79.5064L68.2941 79.6116L64.5537 79.7872L62.1307 79.9166L59.7678 80.0562L57.468 80.2063L55.2345 80.3671L53.0702 80.5388L50.9782 80.7219L48.9617 80.9165C47.9728 81.0167 47.0133 81.1213 46.085 81.2306L44.2704 81.4552C43.6797 81.5321 43.1034 81.6111 42.5419 81.6923C40.1234 82.0411 37.3145 84.6738 35.0385 87.3735L34.4035 88.1448L33.8023 88.9082L33.2397 89.6522L32.7204 90.3655L32.2493 91.0364L31.8311 91.6535L31.3135 92.4531L30.9419 93.0671L30.7833 93.354L30.7015 93.5297L30.6909 93.5723C30.6859 93.9691 31.3865 95.0717 31.9711 94.8858C32.9981 94.5575 34.1012 94.2431 35.2758 93.9419L36.7194 93.5868C37.2118 93.4705 37.7153 93.3564 38.2297 93.2442L39.805 92.914C40.3408 92.8059 40.8871 92.6998 41.4436 92.5957L43.1435 92.2894L44.9031 91.9947C45.2012 91.9465 45.5017 91.8988 45.8046 91.8516L47.6502 91.5739L49.5509 91.3073C49.8721 91.2637 50.1956 91.2206 50.5213 91.178L52.5012 90.9276L54.5318 90.6877L56.6111 90.4581L58.7374 90.2385L62.011 89.9276L65.3802 89.6381L68.839 89.3693L71.1915 89.2012L73.5794 89.0418L77.2234 88.8183L80.9366 88.613L85.9848 88.3663L89.8359 88.2005L95.046 88.0037L97.6792 87.9152L102.993 87.7569L109.705 87.5917L115.113 87.4837L123.256 87.3575L129.832 87.2834L133.408 87.2523L142.282 87.199L147.54 87.1814L156.147 87.1703L187.417 87.2051L196.642 87.1827C195.483 89.0915 194.853 91.2842 194.972 93.4693C195.297 99.4771 200.702 107.092 210.209 106.995C215.633 106.94 219.3 102.082 221.831 94.201L222.194 93.0263C222.253 92.8269 222.311 92.6259 222.369 92.4231L222.708 91.1859C222.818 90.7667 222.926 90.3409 223.031 89.9086L223.34 88.5925C223.391 88.37 223.44 88.1459 223.49 87.9203L223.777 86.5483L224.051 85.1405L224.312 83.6982L224.56 82.2227L224.796 80.7151L225.02 79.1768L225.233 77.6089L225.434 76.0127L225.625 74.3894L225.892 71.9064L226.058 70.2209L226.29 67.6504L226.435 65.9103L226.636 63.2638L226.761 61.477L226.99 57.855L227.196 54.1767L227.423 49.5149L227.634 44.5658L227.798 40.2973L227.997 34.6615L227.997 34.082C227.959 32.1369 227.515 30.1261 225.865 30.1436L225.466 30.1374C224.149 30.0832 222.983 29.7014 222.002 29.2589L221.435 28.9882C221.344 28.9426 221.255 28.8969 221.168 28.8514L220.671 28.583L220.015 28.217L219.641 28.0163C218.885 27.6303 218.496 27.593 218.545 28.4909C218.657 30.569 218.517 32.8934 218.186 35.3436L218.006 36.5786C217.94 36.9934 217.87 37.4111 217.795 37.8312L217.556 39.098L217.29 40.3758C217.244 40.5895 217.197 40.8035 217.148 41.0178L216.846 42.3056L216.522 43.596C216.466 43.8111 216.41 44.0262 216.352 44.2412L215.998 45.5291L215.626 46.8112C215.563 47.0243 215.499 47.2369 215.434 47.4491L215.038 48.7162L214.63 49.9691L214.209 51.2045L213.778 52.4189C213.706 52.6194 213.633 52.8189 213.559 53.0173L213.117 54.1941L212.669 55.3417L212.216 56.4567C212.141 56.6396 212.065 56.8211 211.989 57.0009L211.535 58.0607L211.08 59.0795C211.004 59.2457 210.929 59.4101 210.853 59.5725L210.403 60.5236L209.957 61.4253L209.517 62.2743L209.086 63.0672L208.664 63.8008L208.255 64.4716L207.858 65.0763C206.95 66.4076 206.165 67.1718 205.603 67.1776C205.417 67.1793 205.374 66.8724 205.435 66.3043L205.491 65.8874L205.627 65.1238L205.894 63.8641L207.078 58.6657L207.647 55.9878L207.873 54.8497C208.882 49.6503 209.748 43.431 209.426 37.475C209.244 34.1094 208.36 30.9875 206.525 30.1737C206.06 29.9676 205.618 29.7402 205.191 29.5104L203.944 28.8323C202.861 28.2564 201.826 27.7963 200.687 27.8077C199.78 27.8175 198.775 28.8751 197.73 30.6286L197.336 31.3181C197.204 31.5583 197.072 31.8088 196.939 32.0687L196.54 32.8763L196.139 33.7368L195.738 34.646L195.336 35.5999L194.733 37.1054L194.134 38.688L193.738 39.7792L193.345 40.8943L192.762 42.6031L192.19 44.3427L191.632 46.0991L191.252 47.3248C190.5 49.7744 189.798 52.2045 189.173 54.4461C189.1 54.2607 189.025 54.0747 188.95 53.8882L188.481 52.7612L187.495 50.4501L186.997 49.2584C185.264 45.0388 183.709 40.2853 184.217 34.2777C184.357 34.2683 184.494 34.2585 184.627 34.248L185.381 34.1781C188.462 33.8416 189.162 33.0429 189.203 30.7625L189.201 30.2095L189.181 29.601C189.168 29.3002 189.253 28.9871 189.335 28.6868L189.395 28.4644L189.44 28.2649L189.469 28.0734L189.473 27.8918C189.438 27.3345 188.921 26.9547 186.834 27.0208L186.122 27.0568C182.639 27.2903 178.751 30.5781 178.933 32.1403L177.19 36.4458L174.018 44.0715L172.577 47.4657L171.09 50.9191L169.898 53.6383L168.732 56.2474L167.89 58.0924L167.087 59.8108L166.334 61.3748L165.865 62.318L165.425 63.1721C165.354 63.3065 165.285 63.4369 165.218 63.5631L164.829 64.2679C164.767 64.3765 164.707 64.4805 164.648 64.5797L164.317 65.1169C163.955 65.6741 163.68 65.982 163.514 65.982C162.932 65.982 162.65 65.1594 162.538 63.7928L162.5 63.1746C162.496 63.0663 162.492 62.9554 162.488 62.8421L162.478 62.1331L162.483 61.3698L162.501 60.5569C162.987 47.4859 165.427 34.5603 169.74 22.2068L180.431 22.4954L184.214 22.5702L185.835 22.576C188.329 22.5515 191.211 20.2728 193.507 17.9015L194.146 17.2234C194.25 17.1106 194.352 16.998 194.452 16.8859L195.034 16.2212C195.128 16.1121 195.219 16.0038 195.309 15.8968L195.822 15.2708L196.284 14.6845L196.688 14.1493L197.031 13.6762L197.306 13.2766L197.509 12.9615L197.634 12.7422C197.663 12.6863 197.678 12.6483 197.678 12.63C197.683 12.2356 196.904 10.9773 196.398 11.3189L195.413 11.977L194.501 12.5577C194.403 12.6181 194.305 12.6772 194.209 12.7349L193.637 13.0657L193.076 13.3663C192.332 13.7476 191.596 14.0519 190.792 14.2941L190.174 14.4643C189.331 14.6764 188.399 14.8301 187.301 14.9401L186.445 15.0147L185.52 15.0744L184.518 15.1204L183.432 15.1543L182.255 15.1774L180.979 15.1911L178.344 15.1964L172.441 15.1642L174.008 11.3995L174.389 10.4366L174.472 10.1836L174.54 9.75442C174.567 9.43939 174.499 9.19841 174.169 8.78713L173.938 8.51796L173.636 8.19619L173.255 7.81009L171.888 6.46502C171.673 6.24858 171.476 6.04317 171.293 5.84876L170.79 5.2985L169.839 4.21032L169.544 3.88952ZM55.0529 34.2383C51.3716 34.2805 44.9233 45.7411 44.7424 63.8926C44.7226 65.8442 45.113 68.082 45.7793 68.0745C47.0824 68.0593 48.8084 66.0096 50.4101 62.9206L50.8248 62.0919C50.8933 61.95 50.9615 61.8064 51.0293 61.6611L51.4315 60.7689L51.8226 59.8395C52.2075 58.8927 52.5726 57.8958 52.9083 56.8664L53.2337 55.8269C54.2308 52.5049 54.8997 48.9166 54.9321 45.623C54.938 45.068 55.1917 44.4381 55.5287 43.7097L56.0762 42.5403C56.6451 41.2911 57.2165 39.7935 57.2352 37.9676C57.2593 35.6215 56.3471 34.7505 55.6925 34.4275L55.4855 34.3389L55.4736 34.3346L55.4484 34.3258C55.4292 34.3192 55.4104 34.313 55.3922 34.3074L55.2322 34.2654L55.0529 34.2383ZM178.038 45.9149L178.645 44.0782C178.87 45.996 179.175 47.8978 179.487 49.743L179.862 51.9277L180.216 54.0424C180.495 55.7714 180.725 57.4113 180.834 58.9219C181.154 63.365 179.656 67.9085 176.579 67.9085C173.659 67.9085 173.186 64.8756 173.221 62.7092L173.236 62.2436L173.28 61.6196L173.335 61.1132L173.416 60.5695L173.634 60.6167L174.035 60.6814C174.088 60.6884 174.144 60.6951 174.203 60.7014L174.579 60.7312C174.779 60.7413 174.994 60.743 175.215 60.7303C176.493 60.6549 178.166 59.4745 178.166 56.7443C178.166 54.5316 177.143 53.0924 175.732 52.5826C175.829 52.3147 175.924 52.0481 176.018 51.7833L176.57 50.2175L177.343 47.9781L178.038 45.9149ZM108.235 32.5092C105.199 31.9567 100.598 39.7 99.6772 51.2711C106.77 49.6486 110.58 33.426 108.235 32.5092ZM91.3639 13.43C91.488 13.2842 91.5949 13.2128 91.6824 13.2128C92.3039 13.2128 92.6277 14.456 92.4588 16.081C92.4215 16.4356 92.3453 16.8724 92.2354 17.3786L92.0458 18.1884L91.8094 19.0927C91.7663 19.2508 91.7214 19.4124 91.6748 19.5774L91.3755 20.6056L91.039 21.7044L90.6692 22.8642C90.605 23.062 90.5396 23.262 90.473 23.4639L90.0605 24.6972L89.6244 25.9674L89.1685 27.265L88.456 29.2417L87.7206 31.2262L86.9755 33.1858L86.4797 34.4625L85.9893 35.7042L85.272 37.4801L85.5449 35.8013L85.8179 34.1884L86.0906 32.6407L86.3625 31.1575L86.6331 29.7384L86.902 28.3825L87.1688 27.0894L87.4329 25.8584L87.6941 24.6888L87.9517 23.58L88.2054 22.5315L88.4547 21.5425L88.6992 20.6125L88.9384 19.7407L89.1719 18.9267L89.3992 18.1698L89.7275 17.1399L89.9374 16.5229L90.1396 15.9607L90.3336 15.4528L90.5189 14.9985L90.6952 14.5971L90.8619 14.2482L91.0186 13.9509L91.1649 13.7048C91.1884 13.668 91.2115 13.6333 91.2341 13.6007L91.3639 13.43Z" fill="white"/>
</svg>
