<?xml version="1.0" encoding="UTF-8"?> <svg xmlns="http://www.w3.org/2000/svg" xmlns:xlink="http://www.w3.org/1999/xlink" width="24px" height="24px" viewBox="0 0 24 24"> <title>Icons/Arrow-back</title> <g id="Icons/Arrow-back" stroke="none" stroke-width="1" fill="none" fill-rule="evenodd"> <rect id="Rectangle" x="0" y="0" width="24" height="24"></rect> <path d="M11.7682213,3.3598156 L12.3709283,4.07844491 L12.942263,4.7502075 L13.4821479,5.3750375 L14.2328368,6.22413982 L14.6937573,6.73135017 L15.1229562,7.19139738 L15.6147281,7.70003288 L15.6147281,7.70003288 L15.7071068,7.79289322 C16.5776253,8.6634117 18.0472545,9.70751425 20.1036847,10.9053633 L22.0155644,12 L20.4961389,12.8682431 C18.2332984,14.1612949 16.6320327,15.2821809 15.7071068,16.2071068 L15.5203559,16.3957844 L15.1229562,16.8086026 L14.6937573,17.2686498 L14.2328368,17.7758602 L13.4821479,18.6249625 L12.942263,19.2497925 L12.3709283,19.9215551 L11.7682213,20.6401844 L10.2317787,19.3598156 L10.8478217,18.6253199 L11.432737,17.9377075 L11.9866021,17.2969125 L12.5094948,16.702869 L13.0014926,16.1555113 L13.4626732,15.6547733 L13.6817313,15.4218661 L13.6817313,15.4218661 L14.0968316,14.9909343 L14.2928932,14.7928932 L14.2928932,14.7928932 C14.8521302,14.2336563 15.5891442,13.6372473 16.5060138,13.0003169 L3,13 L3,11 L16.5070303,11.0003892 C15.6933855,10.4352223 15.0213377,9.90195797 14.4894352,9.3982566 L14.2928932,9.20710678 L14.0968316,9.00906567 L13.6817313,8.57813387 L13.2359302,8.10068108 L12.7593507,7.57664143 L12.2519152,7.00594905 L11.713546,6.38853806 L11.1441655,5.72434259 L10.543696,5.01329677 L10.2317787,4.6401844 L11.7682213,3.3598156 Z" id="Path" fill="#000000" fill-rule="nonzero" transform="translate(12.507782, 12.000000) scale(-1, 1) translate(-12.507782, -12.000000) "></path> </g> </svg> 