<?xml version="1.0" encoding="UTF-8"?> <svg xmlns="http://www.w3.org/2000/svg" xmlns:xlink="http://www.w3.org/1999/xlink" width="1073px" height="153px" viewBox="0 0 1073 153"> <title>Path 9 Copy</title> <g id="Main" stroke="none" stroke-width="1" fill="none" fill-rule="evenodd"> <path d="M408.871878,89.0191202 L391.012213,75.6038563 L387.97903,73.339047 L385.016094,71.1377927 L382.120409,68.9983865 L380.225835,67.6056328 L377.435581,65.5655137 L374.704592,63.582691 L372.915379,62.2917976 L370.27651,60.4006758 L367.68892,58.5622988 C367.404148,58.3609018 367.12027,58.1604498 366.837268,57.9609325 L365.149614,56.7749597 L363.482089,55.6109118 L361.016601,53.9048427 L359.395515,52.7933944 L356.995526,51.1638542 L355.415333,50.1018446 L353.849944,49.0587255 L352.298471,48.0339911 L350.760029,47.0271357 L349.233728,46.0376535 L346.965103,44.5848987 L345.465275,43.6366369 L343.974484,42.7039783 L342.491842,41.7864172 L341.016461,40.8834476 L339.547454,39.994564 L338.083934,39.1192606 L336.625014,38.2570317 C336.382194,38.1143883 336.13953,37.9722686 335.897001,37.830662 L334.443316,36.9870965 C334.201258,36.8475004 333.9593,36.7083965 333.717422,36.5697741 L332.266975,35.743734 C332.025346,35.6069956 331.783761,35.4707178 331.542201,35.3348899 L330.092997,34.5252373 L328.643511,33.7258777 C328.401858,33.5934807 328.160156,33.4614916 327.918386,33.3298997 L326.466815,32.5450311 L325.012744,31.769191 L323.555287,31.0018737 L322.093555,30.2425735 L320.626661,29.4907845 C320.3817,29.3660842 320.136486,29.2416758 319.891002,29.1175487 L318.414702,28.3760785 L316.931021,27.6408552 L315.439074,26.9113731 L313.937971,26.1871264 C313.435979,25.9465273 312.932313,25.7067164 312.426826,25.4676096 C280.122844,10.1870984 246.799996,2.17903828 209.266764,2.00296788 L138.361573,1.97308731 L90.498859,1.91010883 L62.259138,1.84408816 L46.3942634,1.79210682 L28.0279663,1.71118488 L13.9901014,1.6253467 L2.62847529,1.52835552 L-0.00568145136,1.49996772 L0.00568145136,0.50003228 L10.6358616,0.600047994 L22.622175,0.681296028 L38.3618659,0.760025823 L53.2304925,0.816147709 L77.8703714,0.884035149 L123.076978,0.958067112 L180.065808,0.99612807 L208,1 C246.203425,1 280.057437,9.049927 312.854424,24.5636404 L314.37017,25.2853437 C314.621926,25.4060064 314.873261,25.5268654 315.124192,25.6479314 L316.625094,26.3768954 L318.11721,27.111333 L319.601432,27.8517507 L321.078647,28.5986548 L322.549745,29.352552 L324.015615,30.1139486 L325.477147,30.8833511 L326.935229,31.6612661 C327.178005,31.7916561 327.420674,31.9224219 327.663255,32.053574 L329.11783,32.8452072 L330.57118,33.6466189 L332.024192,34.4583157 L333.477756,35.2808041 L334.932761,36.1145904 C335.175432,36.2545244 335.418199,36.3949503 335.661082,36.5358786 L337.119917,37.3875615 L338.582416,38.2518086 C338.826521,38.3969249 339.070815,38.5425859 339.315318,38.688802 L340.784981,39.572845 L342.260531,40.4707183 L343.742858,41.3829284 L345.23285,42.3099818 L346.731398,43.252385 L348.239389,44.2106444 C348.491558,44.3717038 348.744157,44.5334449 348.997205,44.6958784 L350.52103,45.6788718 L352.056523,46.6789875 L353.604572,47.6967322 L355.166067,48.7326121 L357.535465,50.3215437 L359.134464,51.4049779 L360.750021,52.50832 L363.206349,54.2017685 L365.704933,55.9428589 L367.395614,57.1308976 L369.107299,58.3413767 L370.840877,59.5748026 L372.597238,60.8316818 L374.37727,62.1125207 L377.093648,64.0798116 L379.868289,66.1038607 L382.704194,68.1863775 L386.585887,71.0569708 L389.576413,73.2825596 L392.638206,75.5723138 L406.382085,85.9041805 L409.886751,88.5292841 L413.771449,91.4235956 L416.500536,93.4431193 L419.172695,95.4077277 L420.923727,96.6876277 L422.651288,97.944125 L426.03892,100.388519 L427.700455,101.577219 L429.341445,102.744123 L430.962622,103.889633 L432.564718,105.014151 L434.148463,106.118078 L436.491277,107.736241 L438.79692,109.310334 L441.067862,110.841713 L442.563764,111.839573 L444.046073,112.819453 L445.51552,113.781755 L446.972837,114.726881 L448.418757,115.655233 L449.854009,116.567212 C450.09237,116.717866 450.330317,116.867855 450.567864,117.017187 L451.98849,117.90536 L453.400278,118.778165 L454.80396,119.636003 L456.200269,120.479277 L457.589937,121.308386 L458.973694,122.123735 C459.203868,122.258502 459.433827,122.392712 459.663585,122.526374 L461.039849,123.321833 L462.412032,124.104535 C462.64043,124.233944 462.868688,124.362839 463.096822,124.491227 L464.464256,125.255546 L465.829439,126.008112 L467.193102,126.749327 L468.555977,127.479592 L469.918796,128.199309 L471.282291,128.90888 L472.647193,129.608706 C472.874834,129.724554 473.102565,129.840013 473.3304,129.955091 L474.698785,130.641054 L476.070406,131.318276 L477.445996,131.98716 L478.826286,132.648108 C479.056767,132.757626 479.287474,132.866831 479.518423,132.97573 C505.116732,145.046106 530.760262,151.324299 558.813223,151.496364 L560,151.5 L1073,151.5 L1073,152.5 L560,152.5 C531.329022,152.5 505.179395,146.181249 479.091928,133.880221 L477.704078,133.220751 C477.473219,133.110207 477.242574,132.999342 477.012129,132.888146 L475.631722,132.216941 L474.255361,131.537409 L472.882312,130.849148 L471.51184,130.151755 L470.143213,129.444828 L468.775696,128.727965 L467.408556,128.000763 C467.18069,127.878679 466.952809,127.756147 466.724898,127.63316 L465.356948,126.889695 L463.98754,126.134885 L462.615941,125.368328 L461.241416,124.589622 L459.863234,123.798363 L458.480659,122.99415 L457.092957,122.176579 L455.699396,121.34525 L454.299242,120.499759 L452.89176,119.639703 L451.476217,118.764681 L450.05188,117.87429 L448.618014,116.968128 L447.173886,116.045791 L445.718762,115.106879 C445.475285,114.94899 445.231318,114.790393 444.986848,114.631081 L443.513855,113.66655 L442.028031,112.684436 L440.528644,111.684338 L439.014959,110.665852 L437.486243,109.628578 L435.941763,108.572111 L434.380783,107.49605 L432.006773,105.844339 L429.591515,104.146277 L427.13253,102.400507 L425.467693,101.209484 L423.781587,99.9962513 L421.210947,98.1338783 L418.588326,96.2192693 L416.809812,94.9131726 L414.095056,92.9084855 L412.252825,91.5410792 L408.871878,89.0191202 Z" id="Path-9-Copy" fill="#000000" fill-rule="nonzero" transform="translate(536.497159, 76.500016) scale(1, -1) translate(-536.497159, -76.500016) "></path> </g> </svg> 