<?xml version="1.0" encoding="UTF-8"?> <svg xmlns="http://www.w3.org/2000/svg" width="1279" height="635" viewBox="0 0 1279 635" fill="none"> <path d="M1135.25 309.988C1263.41 377.877 1289.58 467.145 1273.44 485.949C1260.2 501.384 1235.38 514.948 1194.71 514.948C1152.94 514.948 1085.29 511.994 1032.38 496.487C994.747 485.459 861.247 434.652 845.022 377.877C835.399 344.204 965.055 344.086 1166.48 471.988C1194.25 489.623 1226.96 526.619 1216.11 557.299C1202.88 594.709 1124.63 590.18 1091.3 588.674C1069 587.667 1046.63 587.278 1024.45 584.776C911.664 572.054 808.303 549.101 695.894 471.988C571.379 386.57 642.043 359.767 738.797 396.171C835.552 432.575 844.168 433.439 942.02 485.949C968.266 500.033 1008.34 526.788 1021.75 558.373C1024.05 563.789 1050.31 618.978 972.886 627.976C927.804 633.216 828.721 627.976 782.444 611.662C736.167 595.349 720.264 580.043 720.264 564.067C720.264 543.996 751.367 546.611 765.428 552.747C796.772 566.426 816.501 627.137 768.511 633.216C758.684 634.461 748.694 633.921 738.797 633.516C717.371 632.64 594.486 598.905 508 588.674C300 564.067 239 633.216 0.999878 633.216" stroke="#B4A3FD" stroke-linecap="round"></path> <path d="M795.014 422.109C796.167 427.541 799.129 441.202 799.129 441.202L803.327 422.027C809.087 420.792 821.926 417.994 821.926 417.994L803.244 413.961C802.01 408.283 799.129 395.198 799.129 395.198L795.097 413.879C789.83 415.031 775.839 418.076 775.839 418.076L795.014 422.109Z" fill="#100721"></path> <path d="M772.712 417.912L794.521 413.139L799.129 391.988L803.738 413.303L824.971 417.912L803.82 422.52L799.129 444.247L794.439 422.685L772.712 417.912ZM799.129 398.16L795.591 414.291L778.884 417.912L795.508 421.533L799.129 438.075L802.751 421.451L818.799 417.912L802.668 414.373L799.129 398.16Z" fill="#B4A3FD"></path> <path d="M793.698 418.159C790.9 422.521 783.822 433.466 783.822 433.466L799.212 423.59C803.903 426.553 814.108 433.219 814.108 433.219L804.561 418.159C807.442 413.632 814.272 403.098 814.272 403.098L799.212 412.727C795.015 410.011 783.74 402.769 783.74 402.769L793.698 418.159Z" fill="#100721"></path> <path d="M781.6 400.629L799.294 411.986L816.494 400.958L805.384 418.241L816.33 435.359L799.212 424.413L781.682 435.688L792.957 418.159L781.6 400.629ZM812.05 405.32L799.212 413.55L785.962 404.991L794.439 418.241L786.044 431.326L799.294 422.85L812.05 430.997L803.82 418.159L812.05 405.32Z" fill="#B4A3FD"></path> <path d="M1135.51 316.578L1139.05 333.284L1142.59 316.578L1150.82 321.927L1145.47 313.697L1162.17 310.159L1145.47 306.62L1150.82 298.39C1150.82 298.39 1146.62 301.188 1142.59 303.739L1139.05 287.033C1139.05 287.033 1136.91 297.073 1135.51 303.739L1127.28 298.39C1127.28 298.39 1130.08 302.587 1132.63 306.62L1115.92 310.159C1115.92 310.159 1125.96 312.298 1132.63 313.697L1127.28 321.927L1135.51 316.578Z" fill="#100721"></path> <path d="M1112.71 310.159L1131.48 306.208L1124.89 296.168L1134.93 302.752L1138.88 283.988L1142.83 302.752L1152.87 296.168L1146.29 306.208L1165.05 310.159L1146.29 314.109L1152.87 324.149L1142.83 317.565L1138.88 336.329L1134.93 317.565L1124.89 324.149L1131.48 314.109L1112.71 310.159ZM1133.7 307.114L1119.13 310.159L1133.7 313.204L1129.5 319.623L1135.92 315.426L1138.96 329.992L1142.01 315.426L1148.43 319.623L1144.23 313.204L1158.8 310.159L1144.23 307.114L1148.43 300.694L1142.01 304.892L1138.96 290.325L1135.92 304.892L1129.5 300.694L1133.7 307.114Z" fill="#B4A3FD"></path> <path fill-rule="evenodd" clip-rule="evenodd" d="M622.631 101.394C614.402 120.734 610.287 141.226 610.287 162.377C610.287 183.527 614.484 204.02 622.631 223.36C630.532 242.041 641.807 258.748 656.209 273.15C670.611 287.552 687.317 298.827 705.999 306.727C725.339 314.957 745.831 319.072 766.982 319.072C788.132 319.072 808.624 314.875 827.964 306.727C841.293 301.09 853.616 293.736 864.815 284.754L864.087 283.506C836.629 305.668 802.683 317.673 766.899 317.673C725.421 317.673 686.412 301.46 657.114 272.162C627.734 242.864 611.603 203.855 611.603 162.377C611.603 120.899 627.816 81.8897 657.114 52.5917C686.412 23.2114 725.421 7.08107 766.899 7.08107C808.377 7.08107 847.387 23.2937 876.685 52.5917C906.065 81.8897 922.195 120.899 922.195 162.377C922.195 194.264 912.613 224.692 894.871 250.371L895.917 251.417C901.983 242.655 907.134 233.286 911.332 223.36C919.562 204.02 923.677 183.527 923.677 162.377C923.677 141.226 919.479 120.734 911.332 101.394C903.431 82.7127 892.156 66.0063 877.754 51.6042C863.352 37.2021 846.646 25.9273 827.964 18.0267C808.624 9.7969 788.132 5.68201 766.982 5.68201C745.831 5.68201 725.339 9.87919 705.999 18.0267C687.317 25.9273 670.611 37.2021 656.209 51.6042C641.807 66.0063 630.532 82.7127 622.631 101.394Z" fill="url(#paint0_linear_1326_2010)"></path> <path d="M771.386 320.936C772.82 317.694 771.355 313.903 768.113 312.469C764.871 311.034 761.079 312.5 759.645 315.742C758.211 318.984 759.676 322.775 762.918 324.209C766.16 325.644 769.951 324.178 771.386 320.936Z" fill="#100721"></path> <path d="M758.505 318.331C758.505 316.85 758.999 315.451 759.822 314.216C760.892 312.735 762.537 311.665 764.43 311.418C766.323 311.089 768.134 311.583 769.697 312.653C771.179 313.723 772.249 315.369 772.496 317.261C772.825 319.154 772.331 320.965 771.261 322.528C770.191 324.01 768.545 325.08 766.652 325.327C764.76 325.656 762.949 325.162 761.385 324.092C759.904 323.022 758.834 321.376 758.587 319.483C758.505 319.072 758.505 318.66 758.505 318.331ZM771.261 318.331C771.261 318.002 771.261 317.755 771.179 317.426C770.932 315.945 770.109 314.546 768.874 313.723C767.64 312.817 766.159 312.488 764.595 312.735C763.114 312.982 761.714 313.805 760.892 315.039C759.986 316.274 759.657 317.755 759.904 319.319C760.151 320.8 760.974 322.199 762.208 323.022C763.443 323.927 764.924 324.257 766.488 324.01C767.969 323.763 769.368 322.94 770.191 321.705C770.85 320.718 771.261 319.566 771.261 318.331Z" fill="#B4A3FD"></path> <path d="M766.488 12.7596C763.031 13.3357 759.739 10.9491 759.163 7.41026C758.587 3.95375 760.974 0.661839 764.513 0.085755C767.969 -0.490329 771.261 1.89631 771.837 5.43511C772.331 8.97392 770.027 12.2658 766.488 12.7596Z" fill="#B4A3FD"></path> <path d="M607.488 168.22C606.172 167.315 605.349 165.916 605.102 164.352C605.02 164.023 605.02 163.694 605.02 163.447H616.87C616.87 164.681 616.459 165.916 615.718 166.903C614.813 168.22 613.414 169.043 611.85 169.29C610.369 169.537 608.805 169.208 607.488 168.22Z" fill="#100721"></path> <path d="M612.015 170.195C613.825 169.948 615.389 168.961 616.459 167.479C617.529 165.998 617.94 164.187 617.693 162.377C617.446 160.566 616.459 159.003 614.978 157.933C613.496 156.863 611.686 156.452 609.875 156.698C608.065 156.945 606.501 157.933 605.431 159.414C604.608 160.566 604.114 161.965 604.114 163.447C604.114 163.776 604.114 164.188 604.197 164.517C604.443 166.327 605.431 167.891 606.912 168.961C608.476 170.031 610.204 170.442 612.015 170.195ZM607.488 168.22C606.172 167.315 605.349 165.916 605.102 164.352C605.02 164.023 605.02 163.694 605.02 163.447H616.87C616.87 164.681 616.459 165.916 615.718 166.903C614.813 168.22 613.414 169.043 611.85 169.29C610.369 169.537 608.805 169.208 607.488 168.22Z" fill="#B4A3FD"></path> <path d="M925.899 158.591C927.215 159.497 928.038 160.896 928.285 162.459C928.367 162.788 928.368 163.035 928.368 163.365H916.434C916.434 162.13 916.846 160.896 917.586 159.908C918.492 158.591 919.891 157.768 921.454 157.521C923.018 157.274 924.582 157.686 925.899 158.591Z" fill="#100721"></path> <path d="M921.29 156.698C919.479 156.945 917.916 157.933 916.846 159.414C915.776 160.896 915.365 162.706 915.611 164.517C915.858 166.327 916.846 167.891 918.327 168.961C919.809 170.031 921.619 170.442 923.43 170.195C925.24 169.948 926.804 168.961 927.874 167.479C928.697 166.327 929.191 164.928 929.191 163.447C929.191 163.118 929.191 162.706 929.108 162.377C928.861 160.566 927.874 159.003 926.392 157.933C924.911 156.863 923.101 156.452 921.29 156.698ZM925.899 158.591C927.215 159.497 928.038 160.896 928.285 162.459C928.368 162.788 928.368 163.035 928.368 163.365H916.434C916.434 162.13 916.846 160.896 917.587 159.908C918.492 158.591 919.891 157.768 921.455 157.521C923.018 157.274 924.582 157.686 925.899 158.591Z" fill="#B4A3FD"></path> <path d="M650.777 274.878C649.707 272.903 649.872 270.434 651.188 268.623C652.094 267.307 653.493 266.484 655.056 266.237C656.62 265.99 658.184 266.401 659.501 267.307C661.064 268.459 661.969 270.269 661.969 272.08C661.969 272.985 661.723 273.973 661.311 274.878C660.9 274.302 660.406 273.808 659.83 273.314C656.949 271.257 652.999 271.833 650.942 274.713C650.777 274.713 650.777 274.796 650.777 274.878Z" fill="#100721"></path> <path d="M657.114 278.828C658.925 278.581 660.488 277.594 661.558 276.113C661.723 275.948 661.805 275.701 661.97 275.536C663.698 272.491 662.875 268.706 660.077 266.648C658.595 265.578 656.785 265.167 654.974 265.414C653.164 265.661 651.6 266.648 650.53 268.13C649.625 269.282 649.213 270.763 649.213 272.162C649.213 273.314 649.543 274.549 650.119 275.536C650.612 276.359 651.271 277.1 652.011 277.676C653.164 278.499 654.563 278.993 656.044 278.993C656.373 278.911 656.702 278.828 657.114 278.828ZM651.189 268.541C652.094 267.224 653.493 266.401 655.057 266.154C656.62 265.908 658.184 266.319 659.501 267.224C661.064 268.377 661.97 270.187 661.97 271.998C661.97 272.903 661.723 273.89 661.311 274.796C660.9 274.22 660.406 273.726 659.83 273.232C656.949 271.175 652.999 271.751 650.942 274.631C650.942 274.713 650.859 274.713 650.859 274.796C649.707 272.821 649.872 270.434 651.189 268.541Z" fill="#B4A3FD"></path> <path d="M650.119 51.3573C649.049 53.3324 649.213 55.8014 650.53 57.6119C651.435 58.9287 652.834 59.7517 654.398 59.9986C655.962 60.2455 657.525 59.834 658.842 58.9287C660.406 57.7765 661.311 55.966 661.311 54.1554C661.311 53.2501 661.064 52.2626 660.653 51.3573C660.241 51.9334 659.747 52.4272 659.171 52.921C656.291 54.9784 652.341 54.4023 650.283 51.5219C650.119 51.4396 650.119 51.3573 650.119 51.3573Z" fill="#100721"></path> <path d="M655.303 47.3247C653.904 47.3247 652.505 47.7362 651.271 48.6415C650.53 49.2176 649.872 49.9582 649.378 50.7812C648.802 51.8511 648.473 53.0033 648.473 54.1554C648.473 55.5545 648.884 56.9536 649.789 58.188C650.859 59.6694 652.423 60.6569 654.234 60.9038C656.044 61.1507 657.855 60.7392 659.336 59.6694C662.134 57.6119 662.957 53.7439 661.229 50.7812C661.064 50.5343 660.982 50.3697 660.817 50.2051C659.747 48.7238 658.184 47.7362 656.373 47.4893C656.044 47.3247 655.715 47.3247 655.303 47.3247ZM650.119 51.3573C650.119 51.4396 650.201 51.4396 650.201 51.5219C652.258 54.4023 656.291 54.9784 659.089 52.921C659.665 52.5095 660.159 51.9334 660.57 51.3573C661.064 52.2626 661.229 53.1679 661.229 54.1554C661.229 55.966 660.406 57.7765 658.76 58.9287C657.443 59.834 655.879 60.2455 654.316 59.9986C652.752 59.7517 651.353 58.9287 650.448 57.6119C649.213 55.8014 649.049 53.3324 650.119 51.3573Z" fill="#B4A3FD"></path> <path d="M870.841 55.1429C869.772 53.1678 869.936 50.6988 871.253 48.8883C872.158 47.5715 873.557 46.7485 875.121 46.5017C876.685 46.2548 878.248 46.6663 879.565 47.5715C881.129 48.7237 882.034 50.5342 882.034 52.3448C882.034 53.2501 881.787 54.2376 881.376 55.1429C880.964 54.5668 880.47 54.073 879.894 53.5793C877.014 51.5218 873.063 52.0979 871.006 54.9783C870.924 55.0606 870.924 55.1429 870.841 55.1429Z" fill="#100721"></path> <path d="M877.178 59.0932C878.989 58.8463 880.553 57.8588 881.622 56.3774C881.787 56.2128 881.869 55.9659 882.034 55.8013C883.762 52.7563 882.939 48.9706 880.141 46.9132C878.66 45.8433 876.849 45.4318 875.039 45.6787C873.228 45.9256 871.664 46.9132 870.595 48.3945C869.689 49.5467 869.278 51.0281 869.278 52.4271C869.278 53.5793 869.607 54.8137 870.183 55.8013C870.677 56.6243 871.335 57.365 872.076 57.9411C873.228 58.764 874.627 59.2578 876.109 59.2578C876.438 59.1755 876.849 59.1755 877.178 59.0932ZM871.335 48.8883C872.241 47.5715 873.64 46.7486 875.203 46.5017C876.767 46.2548 878.331 46.6663 879.647 47.5715C881.211 48.7237 882.116 50.5343 882.116 52.3448C882.116 53.2501 881.869 54.2377 881.458 55.1429C881.046 54.5669 880.553 54.0731 879.977 53.5793C877.096 51.5218 873.146 52.0979 871.088 54.9783C871.088 55.0606 871.006 55.0606 871.006 55.1429C869.854 53.1678 870.019 50.6989 871.335 48.8883Z" fill="#B4A3FD"></path> <defs> <linearGradient id="paint0_linear_1326_2010" x1="929.712" y1="20.988" x2="631.271" y2="84.1061" gradientUnits="userSpaceOnUse"> <stop stop-color="#B4A3FD" stop-opacity="0"></stop> <stop offset="0.230483" stop-color="#B4A3FD" stop-opacity="0"></stop> <stop offset="1" stop-color="#B4A3FD"></stop> </linearGradient> </defs> </svg> 