<?xml version="1.0" encoding="UTF-8"?> <svg xmlns="http://www.w3.org/2000/svg" width="109" height="120" viewBox="0 0 109 120" fill="none"> <path d="M97.1569 54.3655H97.0226V42.5233C97.0226 18.974 78.0484 0 54.4993 0C43.1959 0 32.4303 4.44072 24.4908 12.5143C16.5516 20.4535 11.9765 31.3532 11.9765 42.5228V54.365C5.38246 54.365 0 59.7472 0 66.3415C0 72.9358 5.38222 78.318 11.9765 78.318C12.6495 101.733 32.1616 120.303 55.5763 119.63C66.4761 119.361 76.838 114.92 84.5083 107.25C92.1792 99.5792 96.6189 89.2182 96.8885 78.318H97.0228C103.617 78.318 108.999 72.9358 108.999 66.3415C108.999 59.7482 103.751 54.365 97.1571 54.365L97.1569 54.3655ZM4.4399 66.342C4.4399 62.3047 7.80409 58.9405 11.8414 58.9405V73.7434C7.80409 73.7434 4.4399 70.5136 4.4399 66.342ZM92.3124 77.2417C92.3124 98.234 75.3572 115.19 54.3644 115.19C33.3721 115.19 16.551 98.2345 16.551 77.2417V42.5233C16.551 21.531 33.5062 4.57529 54.499 4.57529C75.4913 4.57529 92.447 21.5305 92.447 42.5233V77.2417H92.3124ZM97.1569 73.7432H97.0226V58.9403H97.1569C101.194 58.9403 104.558 62.3045 104.558 66.3417C104.558 70.5131 101.194 73.7432 97.1569 73.7432Z" fill="black"></path> <path d="M61.3603 89.3538C60.1494 89.3538 59.0728 90.4305 59.0728 91.6413C59.0728 94.1984 56.9195 96.3517 54.3625 96.3517C51.8054 96.3517 49.6521 94.1984 49.6521 91.6413C49.6521 90.4304 48.5755 89.3538 47.3646 89.3538C46.1546 89.3538 45.078 90.4305 45.078 91.6413C45.078 96.7551 49.2494 100.927 54.3634 100.927C59.4775 100.927 63.6488 96.7554 63.6488 91.6413C63.6479 90.4304 62.7064 89.3538 61.3603 89.3538Z" fill="black"></path> <path d="M51.9437 66.8826V83.4341C51.9437 84.645 53.0204 85.7217 54.2312 85.7217C55.4421 85.7217 56.5188 84.645 56.5188 83.4341V66.8826C56.5188 65.6717 55.4421 64.5951 54.2312 64.5951C53.0203 64.5951 51.9437 65.6708 51.9437 66.8826Z" fill="black"></path> <path d="M40.6384 38.8914L49.9237 47.2344C52.6149 49.5219 56.5178 49.5219 59.0739 47.2344L68.224 38.8914C70.5115 36.7381 71.8575 33.9127 71.9918 30.9522C72.1261 27.9917 70.9152 25.1663 68.897 23.013C66.8789 20.9948 64.7257 19.9181 62.438 19.9181C59.3432 19.9181 56.5168 21.129 54.4988 23.013C52.4807 21.1291 49.6544 19.9181 46.5596 19.9181C44.5414 19.9181 42.5223 20.7254 40.7736 22.3399C38.3519 24.4932 37.0058 27.4537 36.8717 30.5485C36.7356 33.6433 38.0816 36.6038 40.6386 38.8914H40.6384ZM43.5988 25.7041C44.2719 25.1662 45.2134 24.4932 46.2899 24.4932C48.847 24.4932 51.2687 25.8392 52.2112 27.723C52.749 28.7997 54.0951 29.3376 55.306 28.7997C55.7096 28.5303 56.1132 28.2618 56.3826 27.723C57.3251 25.7049 59.7468 24.4932 62.3038 24.4932C63.6499 24.4932 64.7256 25.4356 65.5337 26.2428C66.7446 27.5889 67.4176 29.2033 67.4176 30.8179C67.4176 32.5676 66.6103 34.3164 65.1301 35.5282L55.979 43.7359C55.1717 44.4089 53.8257 44.4089 53.0185 43.7359L43.7331 35.5273C42.2528 34.1812 41.3114 32.4325 41.3114 30.5485C41.3114 28.6637 42.1186 26.915 43.5989 25.7041L43.5988 25.7041Z" fill="black"></path> <path d="M48.0391 61.0911C48.0391 59.8802 46.9624 58.8035 45.7515 58.8035C44.5407 58.8035 43.464 59.8802 43.464 61.0911C43.464 63.6481 41.3107 65.8014 38.7537 65.8014C36.1966 65.8014 34.0433 63.6481 34.0433 61.0911C34.0433 59.8802 32.9667 58.8035 31.7558 58.8035C30.545 58.8035 29.4683 59.8802 29.4683 61.0911C29.4683 66.2049 33.6396 70.3764 38.7537 70.3764C43.8677 70.3764 48.0391 66.2051 48.0391 61.0911Z" fill="black"></path> <path d="M77.106 58.8035C75.8951 58.8035 74.8185 59.8802 74.8185 61.0911C74.8185 63.6481 72.6652 65.8014 70.1081 65.8014C67.5511 65.8014 65.3978 63.6481 65.3978 61.0911C65.3978 59.8802 64.3211 58.8035 63.1103 58.8035C61.8994 58.8035 60.8227 59.8802 60.8227 61.0911C60.8227 66.2049 64.9941 70.3765 70.1081 70.3765C75.2222 70.3765 79.3935 66.2051 79.3935 61.0911C79.3945 59.8802 78.3178 58.8035 77.106 58.8035Z" fill="black"></path> </svg> 