<?xml version="1.0" encoding="UTF-8"?> <svg xmlns="http://www.w3.org/2000/svg" width="142" height="112" viewBox="0 0 142 112" fill="none"> <path d="M59.5869 21.567C51.3755 11.2654 32.7139 8.87643 20.4718 11.7133C7.18456 14.6989 -0.428924 26.4937 0.0186929 39.7807C0.615418 54.7101 10.469 66.3551 21.5174 75.462C36.5958 87.8535 52.8692 99.0506 68.5451 110.845C72.4265 113.682 76.1589 107.262 72.2775 104.426C60.7815 95.6165 48.9878 86.8084 37.3426 78.1493C27.4889 70.8336 16.4419 63.2199 10.7682 51.8738C5.69135 41.7212 5.99021 26.6427 17.3363 20.8205C27.339 15.5947 47.1952 17.8349 54.5106 26.9419C57.3475 30.6742 62.572 25.2996 59.5864 21.5673L59.5869 21.567Z" fill="black"></path> <path d="M72.1295 108.307C82.7299 91.2875 98.405 78.4481 109.901 62.0257C118.411 49.9332 127.219 31.4204 120.351 16.6402C114.977 4.99525 101.242 -1.27485 88.7009 0.217296C73.4726 2.15844 61.8279 14.2512 55.8561 27.6875C53.9149 32.0165 60.3352 35.8989 62.2752 31.4198C67.5011 19.9239 76.9058 8.87664 90.1933 7.53219C105.123 6.03882 117.066 17.5349 114.678 32.4644C110.05 62.0247 80.6384 80.2386 65.5597 104.275C63.1708 108.755 69.5899 112.488 72.1289 108.307L72.1295 108.307Z" fill="black"></path> <path d="M28.2352 24.7057C17.486 27.3935 13.4548 42.0241 21.2184 49.7877C24.5029 53.2212 29.8775 47.9965 26.4442 44.5618C22.5628 40.5306 24.9508 33.2157 30.1766 31.8713C34.9535 30.8267 33.0124 23.511 28.2354 24.7054L28.2352 24.7057Z" fill="black"></path> <path d="M134.533 27.239C134.085 46.6475 126.173 64.7119 112.139 78.1484C108.705 81.4329 113.93 86.8075 117.365 83.3742C132.742 68.5938 141.401 48.5886 141.998 27.2395C142.147 22.4616 134.682 22.4616 134.533 27.2385V27.239Z" fill="black"></path> </svg> 