<?xml version="1.0" encoding="UTF-8"?> <svg xmlns="http://www.w3.org/2000/svg" width="116" height="116" viewBox="0 0 116 116" fill="none"> <path d="M111.751 91.2476L82.7227 62.2091C85.4355 56.537 86.9992 50.2073 86.9992 43.4996C87.0002 19.4751 67.523 0 43.4996 0C19.4751 0 0 19.4762 0 43.4996C0 67.523 19.4751 86.9992 43.4996 86.9992C50.2115 86.9992 56.536 85.4314 62.214 82.7227L91.2474 111.751C96.9054 117.415 106.091 117.415 111.752 111.751C117.416 106.086 117.416 96.901 111.752 91.2481L111.751 91.2476ZM9.66675 43.4991C9.66675 24.8069 24.8129 9.66519 43.498 9.66519C62.1852 9.66519 77.3293 24.8072 77.3293 43.4991C77.3293 62.1793 62.1842 77.3304 43.498 77.3304C24.8119 77.3324 9.66675 62.1801 9.66675 43.4991ZM104.915 104.916C103.033 106.805 99.9654 106.805 98.0809 104.916L70.6322 77.465C73.1527 75.4421 75.4467 73.1482 77.4673 70.6288L104.913 98.0828C106.803 99.96 106.803 103.028 104.913 104.916L104.915 104.916Z" fill="black"></path> </svg> 