<?xml version="1.0" encoding="UTF-8"?> <svg xmlns="http://www.w3.org/2000/svg" width="145" height="105" viewBox="0 0 145 105" fill="none"> <path d="M80.9162 104.962H80.1787C79.1954 104.716 78.2121 104.47 51.4157 74.2323C48.7116 77.4281 45.5159 81.3613 44.5326 82.0987C43.7951 82.5904 42.566 82.8362 41.8285 82.3446C39.8619 81.1154 39.8619 81.1154 43.7951 54.5663C44.041 52.8455 44.2868 50.8789 44.5326 49.404L2.25063 44.4875C1.02151 44.2416 0.284031 43.5042 0.0382056 42.275C-0.20762 41.0459 0.775682 40.0626 1.75898 39.8168L141.635 0.237485C142.618 -0.00834078 143.602 0.237485 144.339 1.22079C144.831 1.95826 145.077 3.18739 144.585 3.92487C144.585 3.92487 129.59 28.9991 114.35 54.0732C85.8341 100.288 83.1314 104.958 80.9176 104.958L80.9162 104.962ZM51.4171 67.5964C52.1546 67.5964 52.8921 67.8423 53.1379 68.3339C61.9876 78.1669 75.508 93.6539 80.4245 98.569C87.3076 88.4902 116.071 41.0459 136.964 6.1387L15.035 40.5543L47.7311 44.7333C48.9603 44.9791 49.9436 45.9624 49.9436 47.1915C49.9436 47.6832 49.6977 48.6665 48.7144 55.3038C47.977 59.9745 46.7478 67.595 46.0104 73.0032C47.2395 71.5282 48.2228 70.0533 49.4519 68.8242C49.9436 68.0867 50.681 67.595 51.4185 67.595L51.4171 67.5964Z" fill="black"></path> <path d="M51.4168 72.5101C50.6793 72.5101 49.9419 72.2642 49.4502 71.5268C48.7127 70.5435 48.9586 68.8227 49.9419 68.0852L121.231 14.9869L48.4669 49.4025C47.2378 49.8941 45.7628 49.4025 45.2712 48.1734C44.7795 46.9442 45.2712 45.4693 46.5003 44.9776L141.389 0.237405C142.618 -0.254246 143.847 -0.00842059 144.585 1.22071C145.322 2.44983 145.076 3.67896 143.847 4.41644L52.8918 72.2642C52.4001 72.5101 51.9085 72.5101 51.4168 72.5101Z" fill="black"></path> </svg> 