<?xml version="1.0" encoding="UTF-8"?> <svg xmlns="http://www.w3.org/2000/svg" width="113" height="113" viewBox="0 0 113 113" fill="none"> <path d="M58.9939 0.0944323C56.9972 44.688 44.6841 56.0028 0.0904976 54.0061C44.6841 56.0028 55.9988 68.3159 54.0021 112.91C55.9988 68.3159 68.312 57.0011 112.906 58.9979C91.2744 57.9995 77.6301 54.6716 69.3104 46.3519C68.9776 46.3519 68.9776 46.6847 68.6448 46.6847C74.635 52.6749 83.2874 56.3356 95.6006 58.3323C82.2891 59.3307 73.3038 62.3258 66.9809 67.9831C60.6579 73.6405 56.9972 82.293 54.6677 95.6045C53.0038 69.9799 43.0201 58.9979 17.3955 55.0044C30.707 54.0061 39.6922 51.011 46.0152 45.3536C52.3382 39.6962 55.9988 31.0437 58.3284 17.7322C58.9939 29.7125 61.6562 38.6978 66.9809 45.0208C67.3136 45.0208 67.3136 44.688 67.6464 44.688C59.9923 35.0371 57.9956 21.3929 58.9939 0.0944323Z" fill="#100721" stroke="#100721"></path> </svg> 