<?xml version="1.0" encoding="UTF-8"?> <svg xmlns="http://www.w3.org/2000/svg" width="537" height="574" viewBox="0 0 537 574" fill="none"> <path d="M470.805 413.522C471.293 414.01 471.781 414.01 472.269 414.498C472.756 414.986 473.244 414.986 474.22 415.473C494.707 378.889 506.414 337.915 507.877 294.502C506.414 294.99 505.438 295.478 503.975 295.965C502.511 337.915 490.804 378.401 470.805 413.522Z" fill="#100721"></path> <path d="M474.22 157.436C473.244 158.411 472.269 159.387 471.781 160.362C490.805 194.507 501.536 232.555 503.975 272.066C504.95 271.578 506.414 271.578 507.389 271.09C504.95 230.116 493.731 191.581 474.22 157.436Z" fill="#100721"></path> <path d="M364.955 516.442C365.931 517.418 366.906 517.906 368.37 518.881C407.881 497.906 440.562 467.176 464.464 431.08C463.488 430.104 462.513 429.616 461.537 429.128C437.636 465.225 404.954 495.468 364.955 516.442Z" fill="#100721"></path> <path d="M373.737 56.4636C339.104 36.9521 300.569 25.733 260.083 23.2941C260.083 23.7819 260.083 23.7819 260.083 24.2697C260.083 25.2453 260.083 26.2208 260.571 26.7086C300.569 29.1476 338.129 40.3667 372.274 59.8781C372.762 59.3904 372.762 58.9026 373.25 58.4148C373.25 57.927 373.737 57.4392 373.737 56.4636Z" fill="#100721"></path> <path d="M238.617 22.8014C188.862 23.777 141.059 38.4106 99.5972 65.7267C100.573 66.7022 101.061 67.6778 102.036 68.6534C143.01 41.8251 189.838 27.6793 238.617 26.7037C239.104 25.2403 239.104 24.2648 238.617 22.8014Z" fill="#100721"></path> <path d="M434.709 104.264C420.563 89.1423 404.466 75.972 387.394 65.2407C387.394 65.7285 386.906 65.7285 386.906 66.2163C386.418 67.1918 386.418 68.1674 385.931 69.143C402.515 79.8743 417.637 92.5568 431.783 107.19C441.05 116.946 449.343 127.19 456.66 137.921C457.635 136.945 458.123 135.97 459.099 134.994C452.27 123.775 443.977 114.019 434.709 104.264Z" fill="#100721"></path> <path d="M250.325 22.8038C252.276 22.8038 254.227 22.8038 256.178 22.8038C256.178 19.8771 257.154 17.4381 258.617 14.5114C252.276 18.4137 245.935 18.4137 239.106 14.9992C240.569 17.4381 241.545 19.8771 242.032 22.316C244.959 22.8038 247.886 22.8038 250.325 22.8038Z" fill="#100721"></path> <path d="M242.52 26.2191C242.52 28.658 241.545 31.5847 240.081 34.5114C246.423 30.6091 252.764 30.6091 259.593 34.0237C258.129 31.5847 257.154 29.1458 256.666 26.7068C254.715 26.7068 252.276 26.7068 250.325 26.7068C247.886 26.2191 244.959 26.2191 242.52 26.2191Z" fill="#100721"></path> <path d="M242.521 26.2188C244.96 26.2188 247.887 26.2188 250.326 26.2188C252.277 26.2188 254.716 26.2188 256.667 26.2188C256.667 25.2432 256.667 24.7554 256.667 23.7799C256.667 23.2921 256.667 22.8043 256.667 22.3165C254.716 22.3165 252.765 22.3165 250.814 22.3165C247.887 22.3165 245.448 22.3165 243.009 22.3165C242.521 23.7799 242.521 25.2432 242.521 26.2188Z" fill="#100721"></path> <path d="M271.788 45.2428C254.227 28.658 244.959 29.1458 228.862 46.7061C236.179 38.4137 240.569 32.5603 240.569 26.2191C240.081 26.2191 239.594 26.2191 238.618 26.2191C238.13 31.5847 234.228 37.4382 227.399 45.2428C226.911 45.7306 226.911 46.2183 226.911 46.7061C226.911 47.1939 226.911 47.6817 227.399 48.1695C227.887 48.6573 228.375 48.6573 228.862 48.6573C229.35 48.6573 229.838 48.6573 230.326 48.1695C245.935 31.0969 253.74 31.0969 270.324 46.7061C271.3 47.1939 272.275 47.1939 272.763 46.7061C273.251 46.2183 273.251 45.7306 273.251 45.2428C273.251 44.755 273.251 44.2672 272.763 43.7794C265.446 36.9504 261.544 31.5847 260.569 26.7068C260.081 26.7068 259.105 26.7068 258.617 26.7068C259.593 32.5603 263.983 38.4137 271.788 45.2428Z" fill="#100721"></path> <path d="M227.401 3.78035C244.961 20.3651 253.741 19.8773 270.326 2.31699C262.522 10.6094 258.619 16.9506 258.131 22.8041C258.619 22.8041 259.107 22.8041 260.083 22.8041C260.57 17.4384 263.985 11.5849 271.79 3.29256C272.277 2.80478 272.277 2.31699 272.277 1.8292C272.277 1.34141 272.277 0.853628 271.79 0.36584C270.814 -0.121947 269.838 -0.121947 269.351 0.36584C253.741 16.9506 245.937 17.4384 228.864 1.8292C227.889 1.34141 226.913 1.34141 226.425 1.8292C225.938 2.31699 225.938 2.80478 225.938 3.29256C225.938 3.78035 225.938 4.26814 226.425 4.75593C233.742 11.5849 238.132 16.9506 239.108 22.3163C239.596 22.3163 240.571 22.3163 241.059 22.3163C239.596 16.9506 235.205 11.0972 227.401 3.78035Z" fill="#100721"></path> <path d="M260.081 23.2941C259.593 23.2941 259.105 23.2941 258.13 23.2941C258.13 24.7575 258.13 25.733 258.617 27.1964C259.105 27.1964 260.081 27.1964 260.569 27.1964C260.569 26.2208 260.081 25.2453 260.081 24.7575C260.081 23.7819 260.081 23.7819 260.081 23.2941Z" fill="#100721"></path> <path d="M240.568 22.8014C240.08 22.8014 239.105 22.8014 238.617 22.8014C238.617 23.777 239.105 25.2403 238.617 26.2159C239.105 26.2159 239.593 26.2159 240.568 26.2159C240.568 25.2403 240.568 23.777 240.568 22.8014Z" fill="#100721"></path> <path d="M259.593 34.0237C252.764 30.6091 246.911 30.6091 240.082 34.5114C241.545 31.5847 242.521 29.1458 242.521 26.2191C242.033 26.2191 241.057 26.2191 240.569 26.2191C240.082 32.0725 236.179 38.4137 228.863 46.7061C245.447 29.1458 254.227 29.1458 271.788 45.2428C263.983 37.926 259.593 32.5603 258.618 26.7068C258.13 26.7068 257.154 26.7068 256.666 26.7068C257.154 29.1458 258.13 31.5847 259.593 34.0237Z" fill="#100721"></path> <path d="M227.4 3.78322C235.205 11.1 239.595 16.9535 240.57 22.8069C241.058 22.8069 242.034 22.8069 242.521 22.8069C242.034 20.368 241.058 17.9291 239.595 15.4901C246.424 18.9046 252.277 18.9046 259.106 15.0023C257.643 17.9291 256.667 20.8558 256.667 23.2947C257.155 23.2947 257.643 23.2947 258.618 23.2947C259.106 16.9535 263.008 10.6122 270.813 2.80765C253.741 19.8802 244.96 20.368 227.4 3.78322Z" fill="#100721"></path> <path d="M256.666 24.2648C256.666 25.2403 256.666 25.7281 256.666 26.7037C257.154 26.7037 258.13 26.7037 258.617 26.7037C258.617 25.2403 258.13 24.2648 258.13 22.8014C257.642 22.8014 257.154 22.8014 256.178 22.8014C256.666 23.2892 256.666 23.777 256.666 24.2648Z" fill="#100721"></path> <path d="M242.521 22.8014C242.034 22.8014 241.058 22.8014 240.57 22.8014C240.57 23.777 241.058 25.2403 240.57 26.2159C241.058 26.2159 242.034 26.2159 242.521 26.2159C242.521 25.2403 242.521 23.777 242.521 22.8014Z" fill="#100721"></path> <path d="M484.952 148.165C479.587 146.701 475.197 144.262 472.27 140.848C469.343 137.433 467.392 133.531 466.416 127.678C465.441 131.58 463.978 134.507 462.026 136.946C465.929 142.311 469.343 147.677 472.27 153.53C475.684 151.091 479.587 149.14 484.952 148.165Z" fill="#100721"></path> <path d="M459.098 140.363C455.683 143.29 451.781 145.241 445.927 146.216C456.659 149.143 462.512 155.484 464.463 166.703C465.439 162.801 467.39 159.387 469.341 156.46C466.414 151.094 463 145.729 459.098 140.363C459.585 140.363 459.098 140.363 459.098 140.363Z" fill="#100721"></path> <path d="M459.586 140.361C463.001 145.726 466.903 151.092 469.83 156.946C470.805 155.97 471.293 154.994 472.269 154.019C468.854 148.653 465.44 142.8 462.025 137.434C461.05 138.41 460.562 139.385 459.586 140.361Z" fill="#100721"></path> <path d="M463.975 186.213C465.438 155.97 457.634 147.19 426.903 145.726C442.513 146.214 452.268 144.751 458.122 138.897C457.634 138.41 457.634 137.922 457.146 137.434L456.658 137.922C451.293 142.8 442.513 144.751 426.903 143.775C425.928 143.775 424.952 144.751 424.952 145.726C424.952 146.702 425.928 147.678 426.903 147.678C456.658 149.141 463.487 156.458 462.024 186.213C462.024 187.188 463 188.164 463.975 188.164C464.951 188.164 465.926 187.188 465.926 186.213C466.414 174.018 467.877 165.726 471.78 160.36C471.292 159.872 471.292 159.384 470.804 158.897C466.414 164.262 464.463 173.042 463.975 186.213Z" fill="#100721"></path> <path d="M467.391 108.656C465.928 138.899 473.732 147.679 504.463 149.143C489.341 148.655 479.586 150.118 473.244 155.484C473.732 155.972 473.732 156.46 474.22 156.947C480.073 151.582 489.341 150.118 504.463 150.606C505.438 150.606 506.414 149.631 506.414 148.655C506.414 147.679 505.438 146.704 504.463 146.704C488.854 146.216 480.073 143.289 475.196 137.924C470.318 132.558 468.367 123.778 469.342 108.169C469.342 107.193 468.367 106.218 467.391 106.218C466.415 106.218 465.44 107.193 465.44 108.169C464.952 120.363 463.001 128.656 459.586 134.021C460.074 134.509 460.562 134.997 460.562 135.485C464.952 130.119 466.903 121.339 467.391 108.656Z" fill="#100721"></path> <path d="M461.05 135.972C460.562 135.485 460.074 134.997 460.074 134.509C459.586 135.485 458.611 136.46 457.635 137.436C458.123 137.924 458.123 138.411 458.611 138.899C459.098 137.924 460.074 136.948 461.05 135.972Z" fill="#100721"></path> <path d="M474.22 157.433C473.732 156.945 473.732 156.457 473.244 155.969C472.269 156.945 471.293 157.92 470.805 158.896C471.293 159.384 471.293 159.872 471.781 160.359C472.269 158.896 473.244 157.92 474.22 157.433Z" fill="#100721"></path> <path d="M464.952 166.7C462.513 155.969 457.147 149.628 446.416 146.213C452.269 145.238 456.172 143.287 459.586 140.36C459.098 139.872 459.098 139.384 458.611 138.897C452.757 144.75 442.514 146.701 427.392 145.726C457.635 147.189 465.927 155.481 464.464 186.212C464.952 173.042 466.903 164.261 471.293 158.408C470.805 157.92 470.805 157.432 470.318 156.945C467.391 159.384 465.927 162.798 464.952 166.7Z" fill="#100721"></path> <path d="M504.462 149.144C474.219 147.681 465.927 139.388 467.39 108.658C466.902 121.34 464.951 130.12 461.049 135.974C461.537 136.461 462.024 136.949 462.024 137.437C463.976 134.998 465.439 131.584 466.414 128.169C467.39 134.023 469.341 137.925 472.268 141.339C475.195 144.754 479.097 146.705 484.95 148.656C479.585 149.632 475.682 151.583 472.268 154.51C472.756 154.997 472.756 155.485 473.244 155.973C479.585 150.119 489.34 148.656 504.462 149.144Z" fill="#100721"></path> <path d="M462.025 137.435C461.537 136.947 461.05 136.459 461.05 135.972C460.074 136.947 459.586 137.923 458.611 138.898C459.098 139.386 459.099 139.874 459.586 140.362C460.562 139.386 461.05 138.41 462.025 137.435Z" fill="#100721"></path> <path d="M469.83 156.945C470.317 157.432 470.317 157.92 470.805 158.408C471.781 157.432 472.268 156.457 473.244 155.481C472.756 154.994 472.756 154.506 472.269 154.018C471.293 154.994 470.317 155.969 469.83 156.945Z" fill="#100721"></path> <path d="M360.078 522.786C359.59 522.786 358.615 522.299 358.615 521.811C358.127 520.835 358.615 519.86 359.59 519.372C360.566 518.884 361.053 518.396 362.029 518.396C361.541 517.908 361.053 517.421 361.053 517.421C357.151 513.031 354.712 507.665 353.737 500.348C349.834 514.494 342.03 521.811 327.396 524.25C334.713 526.201 340.079 529.128 343.981 533.03C347.883 537.42 350.322 542.786 351.298 550.102C355.2 535.957 363.005 528.64 377.638 526.201C372.76 524.737 368.37 523.274 365.444 520.835C363.98 521.323 363.005 522.299 361.541 522.786C360.566 522.786 360.566 522.786 360.078 522.786Z" fill="#100721"></path> <path d="M359.101 519.374C358.126 519.862 357.638 520.837 358.126 521.813C358.613 522.301 359.101 522.788 359.589 522.788C360.077 522.788 360.077 522.788 360.564 522.788C362.028 522.301 363.003 521.325 364.467 520.837C363.491 519.862 362.516 519.374 361.54 518.398C360.564 518.886 360.077 518.886 359.101 519.374Z" fill="#100721"></path> <path d="M398.613 527.174C361.542 525.71 351.298 534.978 349.835 572.05C351.298 534.978 342.03 524.735 304.958 523.272C342.03 524.735 352.274 515.467 353.737 478.395C352.761 497.907 355.2 510.101 363.005 517.418C363.493 516.93 363.981 516.93 364.956 516.443C364.468 515.955 363.493 515.467 363.005 514.491C357.152 507.662 354.713 496.931 355.688 478.395C355.688 477.42 354.713 476.444 353.737 476.444C352.761 476.444 351.786 477.42 351.786 478.395C350.322 514.004 340.567 522.784 304.958 521.32C303.983 521.32 303.007 522.296 303.007 523.272C303.007 524.247 303.983 525.223 304.958 525.223C323.982 526.198 334.226 529.125 340.567 535.954C346.42 542.783 348.859 553.514 347.884 572.05C347.884 573.026 348.859 574.001 349.835 574.001C350.81 574.001 351.786 573.026 351.786 572.05C353.249 536.442 363.005 527.662 398.613 529.125C399.589 529.125 400.565 528.149 400.565 527.174C400.565 526.198 399.589 525.223 398.613 525.223C384.468 524.735 374.712 522.784 368.371 518.881C367.883 519.369 366.907 519.369 366.419 519.857C373.736 524.247 383.98 526.686 398.613 527.174Z" fill="#100721"></path> <path d="M363.491 517.419C364.466 518.394 365.442 519.37 366.905 519.858C367.393 519.37 368.369 519.37 368.856 518.882C367.881 518.394 366.418 517.419 365.442 516.443C364.466 516.931 363.979 516.931 363.491 517.419Z" fill="#100721"></path> <path d="M353.735 478.399C352.272 515.471 341.54 524.739 304.956 523.276C342.028 524.739 351.296 534.982 349.833 572.054C351.296 534.982 362.028 525.715 398.612 527.178C383.978 526.69 373.734 524.739 366.418 519.861C365.93 520.349 364.954 520.349 364.467 520.837C367.881 523.276 371.783 524.739 376.661 526.202C362.028 528.641 354.223 535.958 350.321 550.104C348.857 542.299 346.418 536.934 343.004 533.031C339.102 528.641 333.736 525.715 326.419 524.251C341.053 521.812 348.857 514.495 352.76 500.35C354.223 508.154 356.662 513.52 360.076 517.422C360.564 517.91 360.564 518.398 361.052 518.398C361.54 517.91 362.028 517.91 363.003 517.422C355.199 510.105 352.76 497.911 353.735 478.399Z" fill="#100721"></path> <path d="M364.467 520.835C364.955 520.347 365.931 520.348 366.418 519.86C365.443 518.884 363.979 518.396 363.004 517.421C362.516 517.909 362.028 517.909 361.053 518.396C362.516 519.372 363.492 519.86 364.467 520.835Z" fill="#100721"></path> <path d="M99.5991 65.7256C99.1114 65.7256 99.1113 66.2134 98.6236 66.2134C99.5991 67.1889 100.087 68.1645 101.062 69.1401C101.55 69.1401 101.55 68.6523 102.038 68.6523C101.55 67.6767 100.575 66.7012 99.5991 65.7256Z" fill="#100721"></path> <path d="M86.4283 1.83006C83.5015 67.1935 65.4534 83.7783 0.0899386 80.8516C65.4534 83.7783 82.0382 101.826 79.1115 167.19C82.0382 101.826 100.086 85.2417 165.45 88.1684C133.744 86.705 113.744 81.8272 101.55 69.6325C101.062 69.6325 101.062 70.1203 100.574 70.1203C109.354 78.9004 122.037 84.2661 140.085 87.1928C120.573 88.6562 107.403 93.0463 98.1352 101.339C88.8672 109.631 83.5016 122.314 80.087 141.825C77.6481 104.265 63.0145 88.1684 25.4549 82.3149C44.9664 80.8516 58.1366 76.4615 67.4046 68.1691C76.6725 59.8767 82.0382 47.1943 85.4527 27.6828C86.4283 45.2431 90.3306 58.4134 98.1352 67.6813C98.623 67.6813 98.623 67.1935 99.1107 67.1935C87.8916 53.0477 84.9649 33.0484 86.4283 1.83006Z" fill="#100721" stroke="#100721"></path> <path d="M100.087 70.1177C100.575 70.1177 100.575 69.6299 101.062 69.6299C100.087 68.6543 99.5991 67.6787 98.6235 66.7032C98.1357 66.7032 98.1357 67.191 97.6479 67.191C98.6235 68.1665 99.5991 69.1421 100.087 70.1177Z" fill="#100721"></path> <path d="M536.168 301.329C513.242 286.208 511.291 276.452 526.412 254.014V253.526C526.412 253.038 526.412 252.55 525.925 252.55C525.437 252.062 524.461 252.55 524.461 253.038C518.12 262.794 512.754 268.159 507.389 271.086C507.389 271.574 507.389 272.062 507.389 272.55C513.242 270.111 519.096 263.769 525.437 254.014C509.828 277.427 512.267 287.671 535.68 303.28C523.974 295.476 515.193 292.061 507.877 294.012C507.877 294.5 507.877 294.988 507.877 295.476C515.193 293.524 523.486 296.939 535.193 304.744C535.68 305.231 536.656 304.743 536.656 304.256V303.768C536.656 302.305 536.656 301.817 536.168 301.329Z" fill="#100721"></path> <path d="M486.414 312.552C502.023 289.138 499.584 278.894 476.17 263.285C487.877 271.09 496.169 274.016 503.486 272.553C503.486 272.065 503.486 271.578 503.486 271.09C496.657 272.553 488.853 269.626 476.658 261.822C476.17 261.334 475.195 261.822 475.195 262.31V262.797C475.195 263.285 475.195 263.773 475.682 263.773C487.877 271.578 493.243 277.919 494.706 284.748C496.169 291.577 493.243 299.381 485.438 311.576V312.064C485.438 312.552 485.438 313.039 485.926 313.039H486.414C486.902 313.039 487.389 313.039 487.389 312.552C493.243 303.771 498.608 297.918 503.974 294.991C503.974 294.504 503.974 294.016 503.974 293.528C498.121 296.942 492.755 303.284 486.414 312.552Z" fill="#100721"></path> <path d="M507.389 272.061C507.389 271.574 507.389 271.086 507.389 270.598C506.414 271.086 504.951 271.573 503.975 271.573C503.975 272.061 503.975 272.549 503.975 273.037C504.951 272.549 506.414 272.549 507.389 272.061Z" fill="#100721"></path> <path d="M503.975 294.503C503.975 294.991 503.975 295.479 503.975 295.966C504.951 295.479 506.414 294.991 507.877 294.503C507.877 294.015 507.877 293.527 507.877 293.04C506.414 293.527 505.438 294.015 503.975 294.503Z" fill="#100721"></path> <path d="M517.144 266.211C512.754 277.43 514.218 285.234 522.998 294.014C517.632 291.576 512.754 291.088 507.877 292.063V292.551V293.039C515.193 291.576 523.974 294.502 535.68 302.307C512.267 286.698 510.315 276.454 525.437 253.04C519.096 262.796 513.242 268.65 507.389 271.576C507.389 272.064 507.389 272.552 507.389 273.04C510.803 272.064 513.73 269.625 517.144 266.211Z" fill="#100721"></path> <path d="M495.195 299.867C497.634 294.013 498.122 289.623 497.146 285.233C496.171 280.843 493.732 276.941 489.342 272.551C494.707 274.99 499.585 275.477 503.975 274.502C503.975 274.014 503.975 273.526 503.975 273.038C496.658 274.502 488.366 271.087 476.659 263.77C500.073 279.38 502.024 289.623 486.903 313.037C493.244 303.281 498.609 297.428 504.463 294.989C504.463 294.501 504.463 294.013 504.463 293.525C501.048 294.501 498.122 296.452 495.195 299.867Z" fill="#100721"></path> <path d="M507.877 292.062C506.414 292.55 505.438 292.55 503.975 293.038C503.975 293.525 503.975 294.013 503.975 294.501C504.951 294.013 506.414 293.525 507.877 293.038V292.55C507.877 292.062 507.877 292.062 507.877 292.062Z" fill="#100721"></path> <path d="M503.975 274.014C505.438 273.527 506.414 273.527 507.389 273.039C507.389 272.551 507.389 272.063 507.389 271.576C506.414 272.063 504.951 272.551 503.975 272.551C503.975 273.527 503.975 274.014 503.975 274.014Z" fill="#100721"></path> <path d="M465.439 412.548C464.951 417.914 462.512 421.816 458.122 424.743C460.073 424.743 462.024 425.231 463.975 426.207C465.926 423.28 467.878 419.865 469.829 416.939C467.878 415.475 466.414 414.012 465.439 412.548Z" fill="#100721"></path> <path d="M469.83 432.06C470.318 426.695 472.757 422.792 477.147 419.866C475.196 419.866 473.733 419.378 472.269 418.402C470.318 421.817 468.367 424.744 466.416 427.67C467.879 429.134 468.855 430.597 469.83 432.06Z" fill="#100721"></path> <path d="M472.268 418.398C471.78 417.91 470.805 417.91 470.317 417.423C469.829 416.935 469.341 416.935 468.854 416.447C466.902 419.374 464.951 422.788 463 425.715C463.976 426.203 464.951 426.691 465.927 427.666C468.366 424.739 470.317 421.813 472.268 418.398Z" fill="#100721"></path> <path d="M491.781 416.447C472.757 420.837 468.855 427.178 473.245 446.69C471.294 438.397 468.855 433.032 465.44 430.105C464.952 430.593 464.952 431.081 464.465 431.568C467.391 434.495 469.83 439.373 471.294 447.178C471.294 448.153 472.269 448.641 473.245 448.641H473.732C474.708 448.641 475.196 447.665 475.196 446.69V446.202C470.806 428.154 474.22 422.788 492.268 418.398C493.244 418.398 493.732 417.423 493.732 416.447V415.959C493.732 414.984 492.268 414.496 491.293 414.496C483 416.447 477.635 416.447 474.22 415.471C473.732 415.959 473.732 416.447 473.245 416.935C477.635 418.886 483.488 418.398 491.781 416.447Z" fill="#100721"></path> <path d="M443.489 428.155C462.513 423.765 466.415 417.423 462.025 397.912C463.976 406.692 466.415 412.058 470.317 414.984C470.805 414.497 470.805 414.009 471.293 413.521C468.366 411.082 465.927 405.716 463.976 397.424C463.976 396.448 463.001 395.961 461.537 395.961C460.562 395.961 460.074 396.936 460.074 397.912V398.4C464.464 416.448 461.05 421.813 443.001 426.203C442.026 426.203 441.538 427.179 441.538 428.155V428.642C441.538 429.618 442.514 430.106 443.977 430.106C452.269 428.155 457.635 427.667 461.537 429.618C462.025 429.13 462.025 428.642 462.513 428.155C458.123 425.716 451.782 425.716 443.489 428.155Z" fill="#100721"></path> <path d="M470.805 413.522C470.317 414.01 470.317 414.498 469.83 414.986C470.805 415.961 471.781 416.449 472.756 416.937C473.244 416.449 473.244 415.961 473.732 415.473C473.244 414.985 472.269 414.986 471.781 414.498C471.781 414.01 471.293 414.01 470.805 413.522Z" fill="#100721"></path> <path d="M462.513 427.666C462.025 428.154 462.025 428.642 461.538 429.129C462.513 429.617 463.489 430.105 464.464 431.08C464.952 430.593 464.952 430.105 465.44 429.617C464.464 428.642 463.489 428.154 462.513 427.666Z" fill="#100721"></path> <path d="M462.023 397.912C466.413 416.936 462.511 423.277 443.487 428.155C452.268 426.204 458.121 425.716 462.511 427.667C462.999 427.179 462.999 426.691 463.487 426.204C462.023 425.228 460.072 424.74 457.633 424.74C462.023 421.813 464.462 417.911 464.95 412.546C465.926 414.497 467.389 415.96 468.852 416.936C469.34 416.448 469.34 415.96 469.828 415.472C466.413 412.058 463.974 406.692 462.023 397.912Z" fill="#100721"></path> <path d="M477.634 419.865C473.244 422.791 470.805 426.694 470.317 432.059C469.342 430.596 468.366 429.132 466.903 428.157C466.415 428.645 466.415 429.132 465.927 429.62C469.342 432.547 471.78 438.4 473.732 446.205C469.342 427.181 473.244 420.84 492.268 415.962C483.975 417.913 478.122 418.401 473.732 416.45C473.244 416.938 473.244 417.426 472.756 417.913C473.732 419.377 475.683 419.865 477.634 419.865Z" fill="#100721"></path> <path d="M463.489 426.203C463.001 426.691 463.001 427.179 462.513 427.667C463.489 428.155 464.464 428.642 465.44 429.618C465.928 429.13 465.928 428.642 466.416 428.155C465.44 427.179 464.464 426.691 463.489 426.203Z" fill="#100721"></path> <path d="M470.318 417.424C470.806 417.911 471.782 417.911 472.269 418.399C472.757 417.911 472.757 417.424 473.245 416.936C472.269 416.448 470.806 415.96 470.318 414.985C469.831 415.472 469.831 415.96 469.343 416.448C469.343 416.936 469.831 417.424 470.318 417.424Z" fill="#100721"></path> <path d="M372.274 64.7537C376.664 64.7537 379.59 66.7048 382.517 70.1193C382.517 69.1437 382.517 67.6804 383.005 66.7048C380.566 65.2414 377.639 63.2903 375.2 61.8269C374.712 62.8025 373.737 63.7781 372.274 64.7537Z" fill="#100721"></path> <path d="M387.883 59.8763C383.493 59.8763 380.566 57.9251 377.64 54.5106C377.64 55.974 377.152 57.4373 377.152 58.4129C379.591 59.8763 382.517 61.3396 384.956 63.2908C385.444 61.8274 386.42 60.8519 387.883 59.8763Z" fill="#100721"></path> <path d="M375.199 61.8238C377.637 63.2871 380.564 64.7505 383.003 66.7017C383.003 65.7261 383.491 65.2383 383.979 64.2627C383.979 63.7749 384.466 63.7749 384.466 63.2871C382.028 61.8238 379.589 60.3604 376.662 58.4093C376.662 58.8971 376.174 59.3848 375.686 60.3604C376.174 60.8482 375.686 61.336 375.199 61.8238Z" fill="#100721"></path> <path d="M386.906 82.8056C381.541 66.7086 375.687 63.7819 359.59 69.1475C366.907 66.7086 371.297 64.2697 373.736 60.8551C373.248 60.3674 372.76 60.3674 372.273 59.8796C370.321 62.8063 365.931 64.7574 359.102 67.1964C358.127 67.6842 357.639 68.172 357.639 69.1475V69.6353C358.127 70.6109 359.102 71.0987 360.078 70.6109C375.199 65.733 380.077 68.172 384.955 83.2934C385.443 84.2689 385.931 84.7567 386.906 84.7567H387.394C388.37 84.2689 388.857 83.7811 388.857 82.8056V82.3178C386.906 76.4643 386.418 72.0743 386.906 68.6597C386.418 68.172 385.931 68.172 385.443 67.6842C383.979 71.0987 384.467 75.9765 386.906 82.8056Z" fill="#100721"></path> <path d="M373.247 41.826C378.613 57.923 384.466 60.8497 400.563 55.484C393.246 57.923 388.369 60.3619 386.417 64.2642C386.905 64.752 387.393 64.752 387.881 65.2398C389.832 62.3131 393.734 59.8741 401.051 57.4352C402.027 56.9474 402.514 56.4596 402.514 55.484V54.9963C402.027 54.0207 401.051 53.5329 400.075 54.0207C384.954 58.8986 380.076 56.4596 375.198 41.3382C374.71 40.3626 373.735 39.8749 372.759 40.3626C371.784 40.8504 371.296 41.3382 371.296 42.3138V42.8016C373.247 49.1428 374.223 53.5329 373.247 56.9474C373.735 57.4352 374.223 57.4352 374.71 57.923C376.662 53.5329 375.686 48.655 373.247 41.826Z" fill="#100721"></path> <path d="M375.2 57.4375C374.712 56.9497 374.225 56.9497 373.737 56.4619C373.737 56.9497 373.249 57.9253 373.249 58.413C373.249 58.9008 372.761 59.3886 372.274 59.8764C372.761 60.3642 373.249 60.3642 373.737 60.852C374.225 59.8764 375.2 58.9008 375.2 57.4375Z" fill="#100721"></path> <path d="M387.88 65.2387C387.392 64.7509 386.904 64.7509 386.416 64.2631C385.929 65.2387 385.441 66.2142 384.953 67.6776C385.441 68.1654 385.929 68.1654 386.416 68.6532C386.416 67.6776 386.904 66.702 387.392 65.7265C387.392 65.7265 387.392 65.2387 387.88 65.2387Z" fill="#100721"></path> <path d="M400.563 55.4873C384.466 60.853 378.613 57.9263 373.247 41.8293C375.686 48.6583 376.174 53.5362 375.198 57.4385C375.686 57.9263 376.174 57.9263 376.662 58.414C377.15 57.4385 377.15 55.9751 377.15 54.5117C379.588 57.9263 383.003 59.3896 387.393 59.8774C385.93 60.853 384.954 62.3163 384.466 63.2919C384.954 63.7797 385.442 63.7797 385.93 64.2675C388.369 60.3652 393.246 57.9263 400.563 55.4873Z" fill="#100721"></path> <path d="M382.516 70.1173C380.077 66.7028 376.663 65.2394 372.273 64.7516C373.248 63.7761 374.224 62.8005 375.199 61.8249C374.712 61.3371 374.224 61.3371 373.736 60.8493C371.297 64.2639 366.907 66.7028 359.59 69.1417C375.687 63.7761 381.541 66.7028 386.906 82.7998C384.955 76.4585 383.98 71.5807 384.955 67.6784C384.467 67.1906 383.98 67.1906 383.492 66.7028C383.004 67.6784 382.516 68.6539 382.516 70.1173Z" fill="#100721"></path> <path d="M376.174 60.3662C376.662 59.8784 376.662 59.3906 377.15 58.4151C376.662 57.9273 376.174 57.9273 375.686 57.4395C375.198 58.4151 374.711 59.8784 374.223 60.854C374.711 61.3418 375.198 61.3418 375.686 61.8296C375.686 61.3418 376.174 60.854 376.174 60.3662Z" fill="#100721"></path> <path d="M383.979 64.265C383.491 64.7528 383.491 65.7284 383.004 66.7039C383.491 67.1917 383.979 67.1917 384.467 67.6795C384.955 66.2161 385.443 65.2406 385.93 64.265C385.443 63.7772 384.955 63.7772 384.467 63.2894C384.467 63.2894 383.979 63.7772 383.979 64.265Z" fill="#100721"></path> <path d="M274.227 297.916V295.965V297.916C273.739 298.891 272.763 299.379 272.275 299.379H270.324H272.275C273.251 299.379 273.739 300.355 273.739 300.842V302.794V300.842C273.739 299.867 274.714 299.379 275.202 299.379H277.153H275.202C275.202 299.379 274.227 298.891 274.227 297.916Z" fill="#100721"></path> <path d="M291.301 297.916L277.643 295.965L275.692 282.306C275.692 281.331 274.716 280.843 273.741 280.843C272.765 280.843 272.277 281.331 271.79 282.306L270.326 296.452L256.668 297.916C255.693 297.916 255.205 298.891 255.205 299.867C255.205 300.842 255.693 301.33 256.668 301.818L270.326 303.769L272.277 317.427C272.277 318.403 273.253 318.891 274.228 318.891C275.204 318.891 275.692 318.403 276.18 317.427L278.131 303.769L291.789 301.818C292.764 301.818 293.252 300.842 293.252 299.867C293.252 298.891 292.277 298.403 291.301 297.916ZM276.18 301.818L274.228 316.939L272.277 301.818L257.156 299.867L272.277 297.916L274.228 282.794L276.18 297.916L291.301 299.867L276.18 301.818Z" fill="#100721"></path> <path d="M274.228 282.794L271.789 297.916L256.667 299.867L271.789 301.818L273.74 316.94L275.691 301.818L290.812 299.867L276.179 297.916L274.228 282.794ZM275.691 300.355C274.715 300.355 274.228 301.33 274.228 301.818V303.769V301.818C274.228 300.843 273.252 300.355 272.764 300.355H270.813H272.764C273.74 300.355 274.228 299.379 274.228 298.891V296.94V298.891C274.228 298.891 275.203 299.379 275.691 300.355H277.642H275.691Z" fill="#100721"></path> <path d="M300.079 251.576C297.641 252.552 296.665 254.991 297.641 256.942C298.616 259.381 301.055 260.356 303.006 259.381C305.445 258.405 306.421 255.966 305.445 254.015C304.957 251.576 302.518 250.601 300.079 251.576Z" fill="#100721"></path> <path d="M255.205 184.265C255.693 184.265 256.18 184.265 256.18 184.265C256.18 184.752 255.693 184.265 255.205 184.265Z" fill="#100721"></path> <path d="M252.276 188.163C251.788 188.163 251.3 188.163 251.3 188.163C251.3 188.163 251.3 188.163 250.812 188.163C250.324 188.163 250.324 188.163 249.837 188.163C249.837 188.163 249.837 188.163 249.349 188.163C248.861 188.163 248.861 188.163 248.373 188.163H247.885C247.398 188.163 247.398 188.163 246.91 188.163H246.422H245.934C245.447 188.163 245.447 188.163 244.959 188.163H244.471C243.983 188.163 243.495 188.163 243.008 188.163C188.375 188.163 143.499 232.552 143.499 287.672C143.499 342.304 187.888 387.181 243.008 387.181C243.495 387.181 243.983 387.181 244.471 387.181H244.959C245.447 387.181 245.447 387.181 245.934 387.181H246.422H246.91C247.398 387.181 247.398 387.181 247.885 387.181H248.373C248.861 387.181 248.861 387.181 249.349 387.181C249.349 387.181 249.349 387.181 249.837 387.181C250.324 387.181 250.324 387.181 250.812 387.181C250.812 387.181 250.812 387.181 251.3 387.181C251.788 387.181 252.276 387.181 252.276 387.181C252.763 387.181 253.251 387.181 253.251 387.181C257.153 386.693 260.568 386.205 264.47 385.229C223.984 370.596 196.18 331.573 196.18 288.16C196.18 244.747 223.984 205.724 264.47 191.09C261.056 189.139 256.666 188.651 252.276 188.163C252.763 188.163 252.763 188.163 252.276 188.163Z" fill="white"></path> <path d="M270.813 384.257C267.399 385.232 263.496 385.72 259.594 386.208C263.496 385.72 266.911 385.232 270.813 384.257Z" fill="#100721"></path> <path d="M257.154 386.204C256.666 386.204 256.666 386.204 256.178 386.204C256.178 386.692 256.666 386.692 257.154 386.204Z" fill="#100721"></path> <path d="M258.617 188.163C263.007 188.651 266.909 189.139 270.811 190.114C266.909 189.139 262.519 188.651 258.617 188.163Z" fill="#100721"></path> <path d="M278.127 188.161C273.249 186.698 268.372 185.722 263.006 185.234C267.884 185.722 273.249 186.698 278.127 188.161Z" fill="#100721"></path> <circle cx="245.934" cy="288.162" r="101.935" stroke="black"></circle> </svg> 