<?xml version="1.0" encoding="UTF-8"?> <svg xmlns="http://www.w3.org/2000/svg" width="477" height="501" viewBox="0 0 477 501" fill="none"> <path d="M238.443 501C237.642 501 236.841 500.6 236.841 499.799L219.219 309.17L93.068 453.343C92.6675 453.743 91.8666 454.144 91.0656 453.743C90.2646 453.343 90.2646 452.542 90.6651 451.741L188.783 287.143L2.15884 328.793C1.35788 328.793 0.556919 328.393 0.556919 327.992C0.156438 327.191 0.556919 326.39 1.35788 325.99L177.569 250.299L1.35788 174.608C0.156438 174.608 0.156438 173.807 0.156438 173.006C0.556919 172.205 1.35788 171.805 2.15884 172.205L189.183 214.656L90.6651 49.6581C90.2646 48.8571 90.2646 48.0561 91.0656 47.6557C91.8666 47.2552 92.6675 47.2552 93.068 48.0561L219.219 192.229L236.841 1.60036C236.841 0.799397 237.642 0.398916 238.443 0.398916C239.244 0.398916 240.044 0.799397 240.044 1.60036L257.265 192.229L383.417 48.0561C383.817 47.6557 384.618 47.2552 385.419 47.6557C386.22 48.0561 386.22 48.8571 385.82 49.6581L288.102 214.256L474.726 172.205C475.527 172.205 476.328 172.606 476.328 173.006C476.729 173.807 476.328 174.608 475.527 175.009L299.316 250.699L475.527 326.39C476.328 326.791 476.729 327.592 476.328 328.393C475.928 329.194 475.527 329.594 474.726 329.194L288.102 286.342L386.22 450.94C386.62 451.741 386.62 452.542 385.82 452.942C385.019 453.343 384.218 453.343 383.817 452.542L257.666 308.369L240.044 498.998C239.644 500.199 239.244 501 238.443 501ZM220.821 303.563H221.222C221.622 303.563 222.023 304.364 222.423 304.764L238.843 482.578L255.263 304.764C255.263 304.364 255.663 303.563 256.464 303.563C256.865 303.563 257.666 303.563 258.066 303.963L375.808 438.525L283.697 285.141C283.296 284.74 283.296 283.939 283.697 283.539C284.097 283.138 284.498 282.738 285.299 283.138L459.508 322.786L295.311 252.301C294.91 251.901 294.51 251.5 294.51 251.1C294.51 250.299 294.91 249.899 295.311 249.899L459.508 179.414L285.299 219.061C284.898 219.061 284.097 219.061 283.697 218.661C283.296 218.261 283.296 217.46 283.697 217.059L375.007 63.6749L257.265 196.635C256.865 197.035 256.064 197.436 255.663 197.035C255.263 197.035 254.862 196.234 254.462 195.834L238.443 18.0201L222.023 195.834C222.023 196.234 221.622 197.035 220.821 197.035C220.421 197.035 219.62 197.035 219.219 196.635L101.879 62.4735L193.188 215.858C193.589 216.258 193.589 217.059 193.188 217.46C192.788 217.86 192.387 218.261 191.586 217.86L17.3771 178.613L181.574 249.098C181.975 249.498 182.375 249.899 182.375 250.299C182.375 251.1 181.975 251.5 181.574 251.5L17.3771 321.985L191.586 282.337C191.987 282.337 192.788 282.337 193.188 282.738C193.589 283.138 193.589 283.939 193.188 284.34L101.879 437.724L219.62 303.162C219.62 303.563 220.421 303.563 220.821 303.563Z" fill="#100721"></path> <path d="M248.055 274.728C229.232 274.728 214.014 259.51 214.014 240.687C214.014 229.073 220.021 218.661 229.232 212.654C212.012 216.659 199.196 232.277 199.196 250.699C199.196 272.325 216.817 289.947 238.443 289.947C256.865 289.947 272.484 277.131 276.489 259.911C270.081 268.721 259.669 274.728 248.055 274.728Z" fill="white"></path> <path d="M188.383 97.718C187.582 97.718 187.181 97.3175 186.781 96.5166L181.975 82.0992C181.575 81.2983 181.975 80.4973 182.776 80.0968C183.577 79.6964 184.378 80.0968 184.778 80.8978L189.584 95.3151C189.985 96.1161 189.584 96.917 188.783 97.3175C188.783 97.718 188.383 97.718 188.383 97.718Z" fill="#100721"></path> <path d="M107.486 156.59C107.085 156.59 106.685 156.59 106.685 156.189L94.2701 147.379C93.4691 146.978 93.4691 145.777 93.8696 145.376C94.2701 144.575 95.4715 144.575 95.872 144.976L108.287 153.786C109.088 154.187 109.088 155.388 108.687 155.789C108.287 156.59 107.886 156.59 107.486 156.59Z" fill="#100721"></path> <path d="M76.249 251.901H61.0307C60.2297 251.901 59.4288 251.1 59.4288 250.299C59.4288 249.498 60.2297 248.697 61.0307 248.697H76.249C77.0499 248.697 77.8509 249.498 77.8509 250.299C77.8509 251.1 77.4504 251.901 76.249 251.901Z" fill="#100721"></path> <path d="M95.071 356.029C94.6706 356.029 94.2701 355.628 93.8696 355.228C93.4691 354.427 93.4691 353.626 94.2701 353.225L106.685 344.415C107.486 344.014 108.287 344.014 108.687 344.815C109.088 345.616 109.088 346.417 108.287 346.817L95.872 355.628C95.4715 356.029 95.4715 356.029 95.071 356.029Z" fill="#100721"></path> <path d="M183.577 420.506H183.177C182.376 420.106 181.975 419.305 182.376 418.504L187.182 404.087C187.582 403.286 188.383 402.885 189.184 403.286C189.985 403.686 190.386 404.487 189.985 405.288L185.179 419.705C184.779 420.106 184.378 420.506 183.577 420.506Z" fill="#100721"></path> <path d="M288.504 97.7164H288.104C287.303 97.316 286.902 96.515 287.303 95.714L292.108 81.2967C292.509 80.4958 293.31 80.0953 294.111 80.4958C294.912 80.8962 295.312 81.6972 294.912 82.4982L290.106 96.9155C289.706 97.316 288.905 97.7164 288.504 97.7164Z" fill="#100721"></path> <path d="M369.4 156.59C369 156.59 368.599 156.189 368.199 155.789C367.799 154.988 367.799 154.187 368.599 153.786L381.014 144.976C381.815 144.575 382.616 144.575 383.017 145.376C383.417 146.177 383.417 146.978 382.616 147.379L370.201 156.189C370.201 156.59 369.801 156.59 369.4 156.59Z" fill="#100721"></path> <path d="M415.455 251.901H400.237C399.436 251.901 398.635 251.1 398.635 250.299C398.635 249.498 399.436 248.697 400.237 248.697H415.455C416.256 248.697 417.057 249.498 417.057 250.299C417.057 251.1 416.256 251.901 415.455 251.901Z" fill="#100721"></path> <path d="M381.815 356.029C381.415 356.029 381.014 356.029 381.014 355.628L368.599 346.817C367.799 346.417 367.799 345.216 368.199 344.815C368.599 344.014 369.801 344.014 370.201 344.415L382.616 353.225C383.417 353.626 383.417 354.827 383.017 355.228C382.616 356.029 382.216 356.029 381.815 356.029Z" fill="#100721"></path> <path d="M293.309 420.504C292.509 420.504 292.108 420.104 291.708 419.303L286.902 404.885C286.501 404.084 286.902 403.283 287.703 402.883C288.504 402.482 289.305 402.883 289.705 403.684L294.511 418.101C294.911 418.902 294.511 419.703 293.71 420.104C293.31 420.504 293.309 420.504 293.309 420.504Z" fill="#100721"></path> <path d="M238.443 191.83C237.642 191.83 236.841 191.029 236.841 190.228V1.60192C236.841 0.800962 237.642 0 238.443 0C239.244 0 240.045 0.800962 240.045 1.60192V190.228C240.045 191.029 239.244 191.83 238.443 191.83Z" fill="#100721"></path> <path d="M203.2 203.445C202.8 203.445 202.399 203.045 201.999 202.644L91.0654 50.0611C90.665 49.2602 90.665 48.4592 91.4659 48.0587C92.2669 47.6582 93.0678 47.6582 93.4683 48.4592L204.402 201.042C204.802 201.843 204.802 202.644 204.001 203.045C203.601 203.045 203.2 203.445 203.2 203.445Z" fill="#100721"></path> <path d="M181.174 233.481H180.773L1.35788 175.011C0.556919 174.61 0.156438 173.809 0.156438 173.008C0.156438 172.207 1.35788 171.807 2.15884 172.207L181.574 230.678C182.375 231.078 182.776 231.879 182.375 232.68C182.375 233.081 181.975 233.481 181.174 233.481Z" fill="#100721"></path> <path d="M1.75903 328.796C0.958072 328.796 0.557591 328.396 0.157111 327.595C-0.24337 326.794 0.157111 325.993 0.958072 325.592L180.374 267.122C181.174 266.722 181.975 267.122 182.376 267.923C182.776 268.724 182.376 269.525 181.575 269.926L2.15951 328.796H1.75903Z" fill="#100721"></path> <path d="M92.2669 453.343C91.8664 453.343 91.4659 453.343 91.4659 452.943C90.665 452.542 90.665 451.341 91.0654 450.94L201.999 298.357C202.399 297.556 203.601 297.556 204.001 297.956C204.802 298.357 204.802 299.558 204.402 299.959L93.4683 452.542C93.0678 452.943 92.6674 453.343 92.2669 453.343Z" fill="#100721"></path> <path d="M238.443 501C237.642 501 236.841 500.199 236.841 499.398V310.371C236.841 309.57 237.642 308.769 238.443 308.769C239.244 308.769 240.045 309.57 240.045 310.371V498.998C240.045 500.199 239.244 501 238.443 501Z" fill="#100721"></path> <path d="M384.619 453.343C384.219 453.343 383.818 452.943 383.418 452.542L272.484 299.959C272.084 299.158 272.084 298.357 272.885 297.956C273.686 297.556 274.487 297.556 274.887 298.357L385.821 450.94C386.221 451.741 386.221 452.542 385.42 452.943C385.42 453.343 385.02 453.343 384.619 453.343Z" fill="#100721"></path> <path d="M475.127 328.795H474.727L295.311 270.324C294.511 269.924 294.11 269.123 294.511 268.322C294.911 267.521 295.712 267.121 296.513 267.521L475.928 325.991C476.729 326.392 477.13 327.193 476.729 327.994C476.329 328.394 475.928 328.795 475.127 328.795Z" fill="#100721"></path> <path d="M295.712 233.481C294.911 233.481 294.51 233.081 294.11 232.28C293.709 231.479 294.11 230.678 294.911 230.277L474.727 172.207C475.528 171.807 476.328 172.207 476.729 173.008C477.129 173.809 476.729 174.61 475.928 175.011L296.112 233.081C295.712 233.481 295.712 233.481 295.712 233.481Z" fill="#100721"></path> <path d="M273.686 203.443C273.285 203.443 272.885 203.443 272.885 203.042C272.084 202.642 272.084 201.441 272.484 201.04L383.418 48.0564C383.818 47.2554 385.02 47.2554 385.42 47.6559C386.221 48.0564 386.221 49.2578 385.821 49.6583L274.887 202.642C274.487 203.042 274.086 203.443 273.686 203.443Z" fill="#100721"></path> </svg> 