<?xml version="1.0" encoding="UTF-8"?> <svg xmlns="http://www.w3.org/2000/svg" width="94" height="123" viewBox="0 0 94 123" fill="none"> <path d="M34.4784 34.4094C34.4784 37.1295 32.2729 39.3349 29.5529 39.3349C26.8329 39.3349 24.6274 37.1295 24.6274 34.4094C24.6274 31.6894 26.8329 29.484 29.5529 29.484C32.2729 29.484 34.4784 31.6894 34.4784 34.4094Z" fill="black"></path> <path d="M68.956 63.9639C68.956 66.6839 66.7505 68.8894 64.0305 68.8894C61.3105 68.8894 59.105 66.6839 59.105 63.9639C59.105 61.2439 61.3105 59.0384 64.0305 59.0384C66.7505 59.0384 68.956 61.2439 68.956 63.9639Z" fill="black"></path> <path d="M49.2546 29.6107V4.92955C49.2546 3.57285 48.6906 2.25791 47.7011 1.32663C46.7237 0.400898 45.4769 -0.0597594 44.1181 0.00621375C19.3796 1.40249 0 21.9246 0 46.725C0 71.6943 19.6743 92.0985 44.3292 93.3903V118.069C44.3292 119.426 44.8932 120.741 45.8827 121.672C46.7942 122.534 47.9585 122.999 49.1898 122.999C49.2811 122.999 49.3723 122.997 49.4658 122.992C74.2043 121.599 93.584 101.077 93.584 76.2757C93.584 51.3064 73.9096 30.9023 49.2547 29.6104L49.2546 29.6107ZM4.92533 46.7246C4.92533 24.5324 22.2636 6.17245 44.3291 4.92842V76.055C37.3521 74.8775 32.0154 68.8098 32.0154 61.5007C32.0154 60.1418 30.9149 59.038 29.5527 59.038C28.1905 59.038 27.09 60.1418 27.09 61.5007C27.09 71.5287 34.6254 79.8139 44.3291 81.0323V88.5196C22.3865 87.2387 4.92533 68.9826 4.92533 46.7234V46.7246ZM49.2546 118.074V81.4252C56.2316 82.6027 61.5683 88.6704 61.5683 95.9796C61.5683 97.3385 62.6688 98.4423 64.031 98.4423C65.3932 98.4423 66.4937 97.3385 66.4937 95.9796C66.4937 85.9516 58.9583 77.6664 49.2546 76.4479V34.4829C71.1971 35.7638 88.6583 54.0199 88.6583 76.2791C88.6583 98.4713 71.3201 116.831 49.2546 118.075V118.074Z" fill="black"></path> </svg> 