<?xml version="1.0" encoding="UTF-8"?> <svg xmlns="http://www.w3.org/2000/svg" width="116" height="116" viewBox="0 0 116 116" fill="none"> <path d="M113.56 45.6127L64.5503 2.4597C60.8163 -0.820326 55.1829 -0.820326 51.4463 2.46226L2.43884 45.6131C0.180124 47.6027 -0.592404 50.7081 0.470493 53.5239C1.53431 56.3397 4.16611 58.1591 7.1762 58.1591H15.9337V105.379C15.9337 110.845 20.3807 115.291 25.8462 115.291H39.3317C43.2888 115.291 46.5084 112.071 46.5084 108.114V74.5596C46.5084 73.9686 46.9888 73.4882 47.5799 73.4882H68.4201C69.0112 73.4882 69.4916 73.9685 69.4916 74.5596V108.114C69.4916 112.071 72.7112 115.291 76.6682 115.291H90.1538C95.6193 115.291 100.066 110.844 100.066 105.379V58.1613H108.824C111.834 58.1613 114.466 56.3419 115.529 53.5261C116.592 50.7094 115.82 47.604 113.561 45.6135L113.56 45.6127ZM109.817 51.3679C109.719 51.6252 109.462 52.0553 108.823 52.0553H97.0125C95.326 52.0553 93.9598 53.4215 93.9598 55.1079V105.38C93.9598 107.48 92.2521 109.187 90.1526 109.187H76.667C76.0759 109.187 75.5956 108.707 75.5956 108.116V74.5589C75.5956 70.6018 72.3759 67.3822 68.4189 67.3822H47.5787C43.6216 67.3822 40.402 70.6018 40.402 74.5589V108.114C40.402 108.705 39.9216 109.185 39.3305 109.185L25.845 109.186C23.7455 109.186 22.0377 107.477 22.0377 105.379V55.1066C22.0377 53.4201 20.6715 52.054 18.9851 52.054H7.175C6.5362 52.054 6.27812 51.6238 6.18103 51.3666C6.08393 51.1102 5.9928 50.6162 6.47231 50.1946L55.4754 7.04601C56.9131 5.78458 59.0816 5.78288 60.5177 7.04345L109.523 50.1943C110.002 50.6167 109.912 51.1107 109.815 51.3671L109.817 51.3679Z" fill="black"></path> </svg> 