<?xml version="1.0" encoding="UTF-8"?> <svg xmlns="http://www.w3.org/2000/svg" width="121" height="160" viewBox="0 0 121 160" fill="none"> <path d="M75.3921 159.507V159.037H76.082V152.193H117.063V151.81H120.999V77.3646C120.999 64.7105 111.842 54.18 99.8173 52.0029C109.152 47.671 115.64 38.2411 115.64 27.2742C115.64 12.2117 103.43 0 88.3646 0C73.302 0 61.0904 12.2117 61.0904 27.2742C61.0904 38.2434 67.5782 47.6735 76.9156 52.0029C64.8821 54.1812 55.7178 64.7115 55.7178 77.3646V88.8902C54.7832 88.7431 53.8338 88.6454 52.8571 88.6454C51.1276 88.6454 49.4613 88.9001 47.8751 89.3488C45.5584 81.7597 38.4785 76.1988 30.1595 76.1988H18.5226C8.33575 76.1988 0 84.5336 0 94.7214V151.754H20.8655V152.194H29.6415V153.995H30.2719L30.2732 159.507L75.3921 159.507ZM68.9638 27.2755C68.9638 16.5782 77.667 7.87378 88.3656 7.87378C99.0629 7.87378 107.769 16.577 107.769 27.2755C107.769 37.9729 99.0654 46.6773 88.3669 46.6773C77.6695 46.6761 68.9638 37.9741 68.9638 27.2755ZM63.5909 77.3647C63.5909 67.482 71.6314 59.4416 81.5141 59.4416H95.2278C105.099 59.4416 113.128 67.482 113.128 77.3647V144.319L76.0837 144.318V138.834C76.0837 131.031 71.1089 124.14 64.0353 121.45C68.372 118.099 71.177 112.863 71.177 106.96C71.177 100.858 68.1803 95.4664 63.5913 92.1383L63.5909 77.3647ZM52.8579 96.5168C58.6175 96.5168 63.3017 101.202 63.3017 106.961C63.3017 112.72 58.6162 117.404 52.8579 117.404C47.0995 117.404 42.4141 112.719 42.4141 106.961C42.4141 101.204 47.0995 96.5168 52.8579 96.5168ZM45.475 128.475C45.9584 128.328 46.4752 128.223 47.0525 128.156L47.1094 128.151C47.4976 128.118 47.8684 128.099 48.2566 128.099H57.4728C57.8091 128.099 58.1466 128.111 58.4729 128.139C58.5793 128.155 58.7054 128.172 58.8747 128.197L59.075 128.233C64.282 129.009 68.2108 133.567 68.2108 138.838V151.636L37.5174 151.635V138.837C37.5174 134.043 40.7515 129.793 45.4752 128.475L45.475 128.475ZM29.6447 138.837V143.881H7.87572V94.7224C7.87572 88.8501 12.6539 84.0722 18.5259 84.0722H30.1628C35.5468 84.0722 40.0009 88.0937 40.7044 93.2884C36.9326 96.6437 34.5442 101.519 34.5442 106.964C34.5442 112.461 36.9771 117.379 40.8133 120.737V121.809C34.1302 124.741 29.6451 131.407 29.6451 138.838L29.6447 138.837Z" fill="black"></path> <path d="M24.342 74.981C37.1135 74.981 47.4646 64.6286 47.4646 51.8583C47.4646 39.0868 37.1123 28.7357 24.342 28.7357C11.5714 28.7357 1.22159 39.0893 1.22159 51.8583C1.22159 64.6299 11.5727 74.981 24.342 74.981ZM24.342 36.6078C32.7508 36.6078 39.5925 43.4492 39.5925 51.8583C39.5925 60.2675 32.7512 67.1088 24.342 67.1088C15.9331 67.1088 9.09148 60.2675 9.09148 51.8583C9.09148 43.4492 15.9341 36.6078 24.342 36.6078Z" fill="black"></path> </svg> 