<svg width="468" height="384" viewBox="0 0 468 384" fill="none" xmlns="http://www.w3.org/2000/svg">
<path d="M234 75.9688C196.18 75.9688 165.52 106.629 165.52 144.449C165.52 182.269 196.18 212.929 234 212.929C271.82 212.929 302.48 182.269 302.48 144.449C302.48 106.629 271.82 75.9688 234 75.9688ZM236.568 96.5139C250.611 95.666 266.062 105.251 268.24 123.049C268.689 126.634 265.833 130.305 262.248 130.754C258.663 131.201 254.992 128.346 254.545 124.761C253.184 113.646 245.273 109.736 237.425 110.209C233.501 110.445 229.94 111.993 227.473 114.596C225.005 117.2 223.317 120.887 223.728 126.901C223.897 129.588 224.076 131.745 224.263 134.176H240.848C244.466 134.126 247.803 137.408 247.803 141.026C247.803 144.644 244.466 147.923 240.848 147.873H225.12C225.204 150.67 225.192 153.41 225.012 156.111C224.664 161.392 223.181 166.572 221.052 171.841H261.393C265.011 171.791 268.348 175.07 268.348 178.689C268.348 182.307 265.011 185.589 261.393 185.536H210.033C207.556 185.541 205.094 184.086 203.933 181.899C202.774 179.711 202.968 176.885 204.36 174.836C209.311 167.473 210.859 162.058 211.315 155.149C211.461 152.944 211.411 150.47 211.315 147.874H203.185C199.598 148.041 196.182 144.931 196.015 141.346C195.847 137.761 198.955 134.344 202.542 134.176C205.134 134.171 207.826 134.176 210.46 134.176C210.3 131.995 210.185 130.206 210.032 127.756C209.402 118.532 212.392 110.593 217.522 105.181C222.653 99.7662 229.545 96.9362 236.567 96.5131L236.568 96.5139ZM103.888 178.69C96.5101 178.69 86.7676 182.456 86.7676 192.387V284.835L131.28 332.77V370.435H210.032V274.563L168.945 233.476C165.004 229.535 158.945 229.826 155.035 233.796L147.01 241.928C143.098 245.898 143.069 252.22 147.01 256.158L179.215 288.258C182.855 291.867 182.826 297.678 179.215 301.313L171.833 308.696C168.221 312.333 162.621 312.639 158.993 309.018L121.008 271.138V193.242C121.008 183.314 111.265 178.69 103.888 178.69ZM364.112 178.69C356.734 178.69 346.992 183.314 346.992 193.243V271.139L309.007 309.018C305.379 312.639 299.778 312.334 296.167 308.696L288.784 301.314C285.173 297.678 285.144 291.868 288.784 288.258L320.989 256.158C324.93 252.22 324.902 245.898 320.989 241.929L312.964 233.796C309.055 229.826 302.995 229.535 299.054 233.476L257.967 274.563V370.435H336.719V332.77L381.232 284.835V192.387C381.232 182.457 371.489 178.69 364.112 178.69Z" stroke="#B4A3FD" stroke-width="6"/>
<path d="M356 112C360.418 112 364 108.418 364 104C364 99.5817 360.418 96 356 96C351.582 96 348 99.5817 348 104C348 108.418 351.582 112 356 112Z" fill="#F1A17C"/>
<path d="M128 82C128 85.4286 131.429 88 136 88C140.571 88 144 85.4286 144 82C144 78.5714 140.571 76 136 76C131.429 76.8571 128 79.4286 128 82Z" fill="#F1A17C"/>
<path d="M408 40C412.571 40 416 36.5714 416 32C416 27.4286 412.571 24 408 24C403.429 24 400 27.4286 400 32C400 36.5714 404.571 40 408 40Z" fill="#F1A17C"/>
<path d="M8.00004 264C12.5715 264 16 260.571 16 256C16 251.429 12.5715 248 8.00004 248C3.42862 248 0 251.429 0 256C0 260.571 4.57148 264 8.00004 264Z" fill="#F1A17C"/>
<path d="M442.964 175.011C439.856 174 434.676 172.989 431.568 169.954C428.46 166.92 426.388 157.816 425.352 152.759C425.352 151.747 424.317 151.747 424.317 152.759C424.317 157.816 422.245 167.931 419.137 170.966C416.029 172.988 411.885 174 408.777 175.011C407.741 175.011 407.741 176.023 408.777 176.023C411.885 177.034 417.065 178.046 420.173 181.08C423.281 184.115 424.317 191.195 425.352 195.241C425.352 196.253 426.388 196.253 426.388 195.241C427.424 191.195 428.46 184.115 431.568 181.08C434.676 178.046 439.856 176.023 444 176.023C444 176.023 444 175.011 442.964 175.011Z" fill="#F1A17C"/>
<path d="M64.0816 124L72.5714 111L58.7755 119L54.5306 104L50.2857 119L36.4898 111L43.9184 124L28 128L43.9184 132L36.4898 145L50.2857 137L54.5306 152L58.7755 137L72.5714 145L64.0816 132L80 128L64.0816 124Z" fill="#F1A17C"/>
<path d="M452.082 284L460.571 271L446.776 279L442.531 264L438.286 279L424.49 271L431.918 284L416 288L431.918 292L424.49 305L438.286 297L442.531 312L446.776 297L460.571 305L452.082 292L468 288L452.082 284Z" fill="#F1A17C"/>
<path d="M268.465 0L264.744 17.1428L248 15.2381L262.884 23.8095L255.442 40L268.465 27.619L280.558 40L273.116 23.8095L288 15.2381L271.256 17.1428L268.465 0Z" fill="#F1A17C"/>
</svg>
