<?xml version="1.0" encoding="UTF-8"?> <svg xmlns="http://www.w3.org/2000/svg" width="324" height="249" viewBox="0 0 324 249" fill="none"> <path d="M292.208 143.709L275.008 112.261L257.812 143.709L226.361 160.908L257.812 178.108L275.008 209.559L292.208 178.108L323.659 160.908L292.208 143.709ZM284.794 170.695L275.008 188.588L265.224 170.695L247.328 160.908L265.224 151.122L275.008 133.229L284.794 151.122L302.69 160.908L284.794 170.695Z" fill="#F1A17C"></path> <path d="M216.508 30.3878L203.465 6.53988L190.425 30.3878L166.577 43.4303L190.425 56.4728L203.465 80.3208L216.508 56.4728L240.356 43.4303L216.508 30.3878ZM209.094 49.0566L203.465 59.3477L197.839 49.0566L187.545 43.4278L197.839 37.799L203.465 27.5079L209.094 37.799L219.388 43.4278L209.094 49.0566Z" fill="#F1A17C"></path> <path d="M260.798 83.2454H274.849V97.2972H284.908V83.2454L298.96 83.2429V73.1818L284.908 73.1844V59.1325H274.849V73.1844L260.798 73.1869V83.2454Z" fill="#F1A17C"></path> <path d="M109.681 43.4272H119.742V26.7454H136.424V16.6844H119.742V0H109.681V16.6844H92.9968V26.7454H109.681V43.4272Z" fill="#F1A17C"></path> <path d="M116.162 124.374C116.162 135.548 125.251 144.637 136.426 144.637C147.6 144.637 156.689 135.548 156.689 124.374C156.689 113.199 147.6 104.11 136.426 104.11C125.251 104.108 116.162 113.199 116.162 124.374ZM146.628 124.374C146.628 130 142.052 134.576 136.423 134.576C130.797 134.576 126.22 130 126.22 124.374C126.22 118.748 130.797 114.169 136.423 114.169C142.052 114.169 146.628 118.748 146.628 124.374Z" fill="#F1A17C"></path> <path d="M153.143 191.194C127.677 191.194 103.735 181.277 85.7269 163.269C57.295 134.837 49.7553 91.3301 66.9651 55.0083L72.9977 42.2766L60.266 48.3093C49.3592 53.4762 39.4694 60.4555 30.8752 69.0504C10.965 88.9605 0 115.431 0 143.587C0 171.743 10.965 198.215 30.8752 218.124C50.7853 238.034 77.2561 248.999 105.412 248.999C133.569 248.999 160.04 238.034 179.949 218.124C188.544 209.529 195.521 199.64 200.688 188.736L206.72 176.002L193.986 182.034C181.34 188.027 167.215 191.195 153.14 191.195L153.143 191.194ZM172.839 211.009C154.829 229.018 130.885 238.938 105.416 238.938C79.9475 238.938 56.0007 229.021 37.9936 211.009C19.9839 192.999 10.0637 169.055 10.0637 143.586C10.0637 118.118 19.9839 94.1707 37.9936 76.1636C42.4865 71.6706 47.3709 67.665 52.5959 64.1841C40.9621 101.218 50.6398 142.404 78.6196 170.384C98.5278 190.292 124.996 201.254 153.15 201.254C163.868 201.254 174.613 199.59 184.836 196.39C181.347 201.62 177.337 206.509 172.841 211.007L172.839 211.009Z" fill="#B4A3FD"></path> <path d="M36.2244 143.584H26.1634C26.1634 148.097 26.542 152.62 27.2917 157.028L37.2119 155.342C36.5556 151.487 36.225 147.532 36.225 143.584L36.2244 143.584Z" fill="#B4A3FD"></path> <path d="M40.0541 166.421L30.5533 169.733C34.4834 181.016 40.8166 191.074 49.3733 199.631C64.3414 214.599 84.2445 222.843 105.415 222.843V212.782C86.9326 212.782 69.5568 205.586 56.489 192.516C49.0102 185.043 43.4821 176.261 40.0541 166.422V166.421Z" fill="#B4A3FD"></path> </svg> 