<?xml version="1.0" encoding="UTF-8"?> <svg xmlns="http://www.w3.org/2000/svg" width="476" height="356" viewBox="0 0 476 356" fill="none"> <path d="M286.114 155.048C273.556 167.504 261.755 180.349 249.009 192.357C238.963 201.798 236.767 207.511 241.978 220.418C247.188 233.327 253.782 246.424 258.678 259.844C262.434 270.386 265.311 281.235 267.278 292.272C267.692 296.618 266.277 300.939 263.388 304.153C262.067 305.503 255.54 303.576 252.903 301.262C240.851 290.559 229.109 279.449 217.683 267.935C209.583 259.78 202.362 250.791 193.198 240.45L193.194 240.454C189.493 245.171 186.056 250.105 182.899 255.221C176.62 266.461 171.725 278.082 165.636 289.254H165.632C162.558 294.502 158.983 299.429 154.959 303.96C151.94 308.918 146.087 311.244 140.585 309.676C133.868 307.685 132.863 302.42 132.233 296.833C129.848 274.935 126.395 253.101 125.39 231.207C124.827 218.686 120.806 210.853 109.569 206.612C99.7116 202.888 89.9802 198.844 80.1222 195.119C75.7274 193.575 70.0159 192.805 71.2067 187.157C71.7703 184.331 76.4173 181.699 79.7438 180.223C96.2542 172.967 112.954 166.162 131.226 158.519C137.505 133.412 144.221 107.149 150.941 81.0133V81.0093C151.702 76.462 152.987 72.0195 154.773 67.783C156.467 64.6346 159.92 60.7202 162.872 60.5268C165.824 60.3334 169.652 64.0582 171.098 66.9486C181.145 87.5609 190.561 108.495 200.419 129.236C210.276 149.977 210.213 149.336 232.25 147.666C246.124 146.638 260.187 147.09 274.128 147.666L274.124 147.662C277.849 148.255 281.483 149.355 284.919 150.94L286.114 155.048ZM165.88 84.4121C164.193 87.8951 162.707 91.479 161.422 95.1357C156.275 115.623 151.064 135.783 146.165 156.335C144.092 165.002 141.392 170.654 130.844 171.94L130.848 171.936C118.267 174.032 106.518 179.704 96.9435 188.311L129.027 202.307V202.311C135.381 204.395 139.369 210.825 138.506 217.594C138.506 236.024 139.886 254.516 141.206 272.948C141.986 278.68 143.181 284.348 144.785 289.899L148.364 290.411C150.748 286.239 153.2 282.063 155.458 277.568C162.927 264.213 169.899 250.857 177.621 237.694C186.789 222.153 193.068 221.577 205.431 234.997C213.342 243.54 220.122 253.17 227.969 261.773C234.247 268.707 241.278 274.999 247.995 281.55L250.822 279.559C249.442 274.935 248.374 270.118 246.616 265.623C239.774 248.03 232.68 230.562 225.774 212.841C223.894 208.64 223.492 203.903 224.639 199.433C225.782 194.962 228.403 191.031 232.053 188.311C238.331 183.046 244.61 178.228 250.889 172.706C255.347 168.533 259.115 163.522 265.205 156.524H249.821C237.264 157.616 224.706 159.092 212.153 160.055C198.469 161.083 198.843 160.761 193.317 147.982C185.154 127.821 176.176 107.596 165.881 84.4121L165.88 84.4121Z" fill="#B4A3FD"></path> <path d="M269.606 212.327C276.826 200.77 297.416 198.714 330.883 206.611C380.041 218.168 422.545 241.159 448.664 288.482C437.491 293.876 436.612 293.94 431.275 285.785C397.115 233.387 346.889 214.572 287.996 213.738C281.843 213.609 275.753 212.839 269.602 212.327L269.606 212.327Z" fill="#F1A17C"></path> <path d="M432.399 196.338C425.43 201.925 420.472 199.547 414.757 196.725C401.762 190.303 388.579 184.268 375.205 178.745C356.894 171.456 336.966 169.501 317.632 173.093C312.043 173.992 305.642 175.661 301.496 169.175C304.007 161.725 310.412 163.14 315.433 162.753L315.436 162.757C349.514 158.677 383.982 165.688 413.941 182.788C420.346 186.001 428.005 187.67 432.399 196.337L432.399 196.338Z" fill="#F1A17C"></path> <path d="M368.923 303.378C361.955 305.047 356.366 305.563 353.729 299.012C343.745 276.215 323.781 265.943 303.061 256.696C299.419 255.091 294.019 254.704 296.782 249.246H296.786C299.305 246.585 302.963 245.404 306.518 246.097C332.007 254.317 353.354 268.378 366.538 293.102C367.724 296.42 368.524 299.867 368.922 303.378L368.923 303.378Z" fill="#F1A17C"></path> </svg> 