<?xml version="1.0" encoding="UTF-8"?> <svg xmlns="http://www.w3.org/2000/svg" width="320" height="330" viewBox="0 0 320 330" fill="none"> <path d="M226.04 164.051C222.416 164.051 219.527 166.937 219.527 170.505C219.527 174.073 222.416 177.015 226.04 177.015C229.608 177.015 232.494 174.073 232.494 170.505C232.494 166.937 229.608 164.051 226.04 164.051Z" fill="#F1A17C"></path> <path d="M264.587 177.015C268.155 177.015 271.041 174.073 271.041 170.505C271.041 166.937 268.152 164.051 264.587 164.051C260.963 164.051 258.074 166.937 258.074 170.505C258.074 174.073 260.96 177.015 264.587 177.015Z" fill="#F1A17C"></path> <path d="M245.282 190.023C248.211 190.023 250.583 187.645 250.583 184.722V178.856C250.583 175.93 248.208 173.555 245.282 173.555C242.353 173.555 239.98 175.932 239.98 178.856V184.722C239.98 187.648 242.356 190.023 245.282 190.023Z" fill="#F1A17C"></path> <path d="M255.5 206.88C257.851 205.136 258.341 201.811 256.597 199.462C254.855 197.114 251.532 196.618 249.179 198.365C246.34 200.471 244.226 200.474 241.39 198.365C239.039 196.618 235.716 197.114 233.972 199.462C232.228 201.813 232.718 205.136 235.069 206.88C238.365 209.325 241.827 210.547 245.283 210.547C248.741 210.547 252.203 209.325 255.499 206.88H255.5Z" fill="#F1A17C"></path> <path d="M58.5316 202.548C58.9869 201.749 59.7164 201.629 60.1131 201.629C60.5072 201.629 61.2367 201.749 61.692 202.548C62.7811 204.459 65.212 205.12 67.1157 204.033C69.0248 202.947 69.6878 200.519 68.5988 198.61C66.8389 195.518 63.6677 193.676 60.1133 193.676C56.556 193.676 53.3849 195.518 51.625 198.61C50.536 200.519 51.2016 202.944 53.1081 204.033C55.0092 205.117 57.4455 204.457 58.5318 202.548H58.5316Z" fill="#F1A17C"></path> <path d="M90.2737 204.033C92.1748 205.117 94.6057 204.454 95.6974 202.548C96.1527 201.749 96.8822 201.629 97.2789 201.629C97.673 201.629 98.4025 201.749 98.8579 202.548C99.9469 204.459 102.378 205.12 104.282 204.033C106.191 202.947 106.854 200.519 105.765 198.61C104.005 195.518 100.833 193.676 97.2791 193.676C93.7218 193.676 90.5507 195.518 88.7908 198.61C87.6991 200.519 88.3648 202.947 90.2739 204.033H90.2737Z" fill="#F1A17C"></path> <path d="M84.6574 221.708C86.2097 220.156 86.2097 217.64 84.6601 216.085C83.1078 214.527 80.5889 214.533 79.034 216.08C78.8742 216.239 78.5121 216.239 78.355 216.085C76.8028 214.527 74.2839 214.533 72.729 216.08C71.1767 217.632 71.1767 220.148 72.7263 221.703C76.0306 225.007 81.3502 225.005 84.6575 221.708H84.6574Z" fill="#F1A17C"></path> <path d="M67.439 227.521C65.9639 225.897 63.4504 225.782 61.8209 227.257C60.1967 228.738 60.0795 231.251 61.5573 232.876C70.7354 242.967 86.6493 242.967 95.8273 232.876C97.3051 231.251 97.1853 228.738 95.5637 227.257C93.9396 225.782 91.4261 225.899 89.9457 227.521C84.1039 233.941 73.2779 233.938 67.4384 227.521H67.439Z" fill="#F1A17C"></path> <path d="M116.782 257.682C116.452 258.172 116.245 258.707 115.949 259.216C112.626 257.672 109.721 256.511 106.617 255.542V249.247C114.216 242.431 120.138 232.933 123.505 221.859C131.482 221.079 137.788 214.388 137.788 206.211C137.788 200.678 134.899 195.814 130.564 192.989C133.982 185.494 135.78 177.328 135.78 168.946C135.78 144.232 120.132 123.155 98.2501 114.946C96.8921 104.309 87.9057 96.0547 76.8989 96.0547C65.588 96.0547 56.4126 104.769 55.457 115.83C34.7663 124.632 20.2204 145.126 20.2204 168.946C20.2204 177.959 22.4117 186.871 26.4402 194.893C22.3292 197.753 19.6158 202.494 19.6158 207.857C19.6158 216.196 26.1711 223 34.3743 223.551C37.8224 233.927 43.5606 242.798 50.7892 249.271V255.56C39.2152 259.109 29.1476 265.388 21.1011 273.437C7.47675 286.905 0 304.927 0 324.173C0 327.091 2.33246 329.474 5.3012 329.474H152.103C153.855 329.474 155.34 328.558 156.307 327.238C161.472 329.285 167.58 328.228 171.758 324.048L172.687 323.121C174.602 326.782 178.393 329.317 182.8 329.317C195.66 329.32 136.218 329.312 308.532 329.33C314.835 329.33 320 324.181 320 317.866V277.999C320 254.746 301.045 234.793 276.845 234.793H268.258C268.082 234.793 267.925 234.883 267.749 234.907C267.744 234.902 267.731 234.904 267.725 234.899C266.216 233.389 266.801 228.075 267.302 224.936C279.395 218.548 288.387 207.075 291.452 193.368C299.685 190.714 305.67 183.07 305.67 173.945C305.67 167.773 302.88 162.275 298.545 158.518V134.253C298.545 113.189 271.786 103.727 245.311 103.727C218.768 103.727 192.009 113.189 192.009 134.253V158.557C187.03 162.91 184.884 168.334 184.884 173.944C184.884 183.066 190.87 190.713 199.102 193.368C202.167 207.067 211.153 218.535 223.252 224.922C223.755 228.013 224.328 233.181 222.877 234.792H214.441C203.647 234.792 193.79 238.829 186.215 245.429C178.065 244.529 169.609 247.085 163.339 253.355C162.657 253.949 162.066 254.628 161.637 255.31C160.958 254.546 160.45 253.949 159.771 253.355C147.627 241.115 126.893 242.558 116.781 257.682L116.782 257.682ZM245.303 256.154L234.117 244.119C236.13 241.733 238.092 238.128 238.359 231.924C240.641 232.137 242.92 232.244 245.199 232.244C247.585 232.244 249.917 232.137 252.196 231.924C252.463 238.232 254.476 241.84 256.489 244.172L245.303 256.154ZM208.537 183.016V151.349L221.688 140.595C225.389 145.151 231.438 150.772 240.475 154.119C249.442 157.458 268.224 159.859 282.019 161.268V183.016C282.019 203.291 265.551 219.791 245.246 219.791C225.008 219.791 208.537 203.291 208.537 183.016ZM180.623 315.176L202.94 292.858C213.817 281.896 213.817 264.224 202.94 253.345C201.154 251.558 199.149 250.174 197.067 248.97C202.152 245.908 208.084 244.114 214.445 244.114H214.869C215.175 244.859 215.566 245.573 216.141 246.18L240.422 272.263C240.462 272.305 240.515 272.316 240.557 272.356V320.03L182.798 320.032C181.578 320.032 180.625 319.026 180.625 317.857L180.623 315.176ZM41.4281 202.878C42.1949 200.812 41.0926 190.7 45.7202 180.078C45.9199 179.735 46.1382 179.386 46.3512 179.04C50.4143 186.162 66.5498 187.355 77.2854 174.005C80.6083 181.511 95.0104 180.062 101.669 175.073C103.2 178.473 105.775 181.681 110.069 182.949C111.403 183.354 112.487 184.067 113.294 184.965C115.163 194.598 116.044 193.229 116.044 200.797C116.044 227.878 99.2914 249.914 78.6962 249.914C58.6332 249.914 42.264 228.991 41.4276 202.879L41.4281 202.878ZM96.0139 256.42V257.424C96.0139 266.967 88.2202 274.71 78.6775 274.71C69.1347 274.71 61.3949 266.967 61.3949 257.424V256.431C66.768 259.032 72.5885 260.516 78.6911 260.516C84.8071 260.516 90.6352 259.03 96.0139 256.42V256.42ZM10.8177 318.869C12.0372 304.502 18.2385 291.196 28.5774 280.964C32.976 276.513 38.1201 272.801 43.7381 269.885C48.5095 284.41 62.1869 294.698 77.8807 294.698C94.104 294.698 107.942 284.095 112.393 269.249C112.46 269.283 112.521 269.326 112.588 269.36C111.571 278.065 114.635 287.184 121.113 293.715L146.272 318.871L10.8177 318.869Z" fill="#B4A3FD"></path> <path d="M64.8763 36.7031C64.8203 36.7244 64.1706 36.9667 64.1387 36.9773C60.7759 38.2128 57.0239 36.5167 55.7704 33.1165C55.5654 32.5654 53.6137 27.2801 53.8187 27.8339C50.5517 18.9701 40.7131 14.4196 31.8336 17.7002C22.9568 20.9726 18.4192 30.8106 21.6999 39.6881C22.717 42.4439 25.771 43.8337 28.5082 42.8273C31.2559 41.8128 32.6591 38.7642 31.6447 36.0164C30.3907 32.6082 32.1506 28.8804 35.5055 27.6481C38.8178 26.4179 42.6067 28.0714 43.8738 31.5062C44.0788 32.0573 46.0279 37.3426 45.8229 36.7888C47.3325 40.8812 50.3067 44.1374 54.1782 46.0943C53.8587 46.6508 53.4806 47.162 53.209 47.7505C50.7967 52.9905 50.5651 58.8562 52.5647 64.2662C56.6251 75.2711 68.8971 81.2401 80.2932 77.0494C91.463 72.925 97.1981 60.4853 93.0764 49.3155C90.7785 43.0877 85.8607 38.1484 78.7438 36.0981C79.9766 32.5036 80.0991 28.5041 78.6853 24.6727C78.4829 24.1215 76.5285 18.8283 76.7336 19.3821C75.4981 16.0193 77.1942 12.2673 80.5944 11.0138C83.9679 9.76509 87.7139 11.4904 88.9627 14.872C89.9771 17.6225 93.0284 19.0203 95.7709 18.0112C98.5187 16.9967 99.9219 13.9481 98.9075 11.2003C95.6351 2.32823 85.7999 -2.21412 76.9224 1.06654C68.0429 4.34686 63.508 14.1721 66.7887 23.0544C66.991 23.6055 68.9427 28.8935 68.7377 28.3396C69.9758 31.7052 68.2478 35.4592 64.8769 36.7032L64.8763 36.7031ZM83.1281 52.985C85.2236 58.6697 82.3054 65.0014 76.6207 67.0995C70.9307 69.2055 64.6125 66.2953 62.5063 60.5947C60.4082 54.9234 63.2891 48.5947 69.0111 46.4803C74.709 44.3742 81.022 47.2818 83.1282 52.985H83.1281Z" fill="#F1A17C"></path> <path d="M259.759 54.8094C257.096 53.5953 253.949 54.7748 252.737 57.4374C251.523 60.1027 252.7 63.2472 255.368 64.4616C267.225 69.856 281.147 64.6054 286.515 52.7942C291.898 40.9646 286.682 27.0254 274.847 21.6474C268.737 18.865 261.681 18.5987 254.606 22.1293C252.889 15.4861 248.4 9.61263 241.682 6.55554C229.892 1.18774 215.911 6.41442 210.535 18.2202C205.152 30.058 210.368 43.9808 222.203 49.3725C224.911 50.5946 228.026 49.3751 229.224 46.7418C230.438 44.0765 229.261 40.9321 226.593 39.7204C220.097 36.7649 217.229 29.1102 220.187 22.613C223.137 16.1296 230.808 13.2543 237.292 16.2068C243.773 19.1543 246.651 26.8306 243.701 33.3115L225.177 74.0202C223.963 76.6854 225.14 79.8299 227.808 81.0416C230.46 82.2557 233.612 81.0842 234.829 78.4109L253.353 37.7022C256.303 31.2268 263.934 28.3299 270.458 31.2987C276.954 34.2568 279.822 41.9014 276.864 48.4034C273.916 54.8788 266.288 57.773 259.759 54.8096L259.759 54.8094Z" fill="#F1A17C"></path> </svg> 