<?xml version="1.0" encoding="UTF-8"?> <svg xmlns="http://www.w3.org/2000/svg" width="135" height="126" viewBox="0 0 135 126" fill="none"> <path d="M124.259 37.4694C124.259 31.9592 119.63 27.3674 114.074 27.3674C112.222 27.3674 110.556 27.7347 109.074 28.6531C101.667 20.3878 91.4816 14.5102 80.1853 12.4898C80.1853 7.16327 75.926 2.93878 70.5557 2.93878C65.1853 2.93878 60.926 7.16327 60.926 12.4898C49.2594 14.6939 38.889 20.5714 31.4816 29.0204C29.8149 27.9184 27.9631 27.3674 25.926 27.3674C20.3705 27.3674 15.7408 31.9592 15.7408 37.4694C15.7408 41.3265 17.9631 44.8163 21.2964 46.4694C19.6297 51.6123 18.5186 57.1225 18.5186 62.8163C18.5186 69.0612 19.6297 74.9388 21.6668 80.449C18.1483 82.1021 15.5557 85.5918 15.5557 89.6327C15.5557 95.1429 20.1853 99.7347 25.7408 99.7347C28.1483 99.7347 30.3705 98.8163 32.0371 97.5306C39.2594 105.429 49.0742 110.939 60.0001 113.143C60.0001 118.653 64.6297 123.061 70.1853 123.061C75.7409 123.061 80.3705 118.653 80.3705 113.143C91.1112 110.939 100.741 105.612 107.963 97.898C109.63 99 111.667 99.7347 113.704 99.7347C119.259 99.7347 123.889 95.1429 123.889 89.6327C123.889 85.7755 121.852 82.4694 118.704 80.8163C120.926 75.1225 122.037 69.0612 122.037 62.8163C122.037 56.9388 121.111 51.2449 119.074 45.9184C122.222 44.2653 124.259 41.1429 124.259 37.4694ZM117.778 45.7347C116.667 46.2857 115.37 46.6531 113.889 46.6531V37.6531V35.0816V28.4694C118.889 28.4694 122.963 32.5102 122.963 37.4694C122.963 40.5918 121.296 43.3469 118.889 45C118.704 45.3674 118.333 45.551 117.778 45.7347ZM25.926 28.4694C26.1112 28.4694 26.4816 28.4694 26.6668 28.4694C27.4075 29.0204 28.5186 30.1225 29.2594 31.5918C29.4446 31.9592 29.8149 32.5102 30.0001 32.8776C30.5557 34.1633 30.926 35.8163 30.926 37.6531C30.926 42.2449 27.9631 45.1837 26.6668 46.4694C26.4816 46.4694 26.1112 46.4694 25.926 46.4694C24.8149 46.4694 23.889 46.2857 22.9631 45.9184C22.5927 45.7347 22.0371 45.551 21.6668 45.3674C18.7038 44.0816 16.6668 40.9592 16.6668 37.4694C16.6668 32.5102 20.7408 28.4694 25.926 28.4694ZM25.926 99C20.926 99 16.852 94.9592 16.852 90C16.852 86.3265 19.0742 83.2041 22.2223 81.7347C22.5927 81.551 23.1483 81.3674 23.5186 81.1837C24.0742 81 25.0001 80.8163 25.926 80.8163V86.5102V89.2653V99ZM61.2964 113.694C61.2964 113.51 61.2964 113.51 61.2964 113.327C61.2964 112.959 61.2964 112.592 61.2964 112.225C61.852 107.816 65.7408 104.143 70.3705 104.143C75.0001 104.143 78.889 107.633 79.4446 112.225C79.4446 112.592 79.4446 112.959 79.4446 113.327C79.4446 113.51 79.4446 113.51 79.4446 113.694C79.2594 118.469 75.1853 122.327 70.3705 122.327C65.5557 122.327 61.4816 118.469 61.2964 113.694ZM113.889 99C113.704 99 113.333 99 113.148 99C112.408 98.449 111.296 97.3469 110.37 95.6939C110.185 95.3265 109.815 94.7755 109.63 94.4082C109.074 93.1225 108.704 91.4694 108.704 89.8163C108.704 85.2245 111.667 82.2857 112.963 81C113.148 81 113.519 81 113.704 81C114.815 81 116.111 81.1837 117.037 81.7347C117.408 81.9184 117.963 82.1021 118.333 82.2857C120.926 83.9388 122.778 86.6939 122.778 90C123.148 94.9592 119.074 99 113.889 99ZM120.926 63C120.926 69.0612 119.815 75.1225 117.778 80.449C116.667 79.898 115.37 79.7143 114.074 79.7143C108.519 79.7143 103.889 84.3061 103.889 89.8163C103.889 92.7551 105.185 95.5102 107.222 97.347C100.185 104.694 91.1112 109.837 80.7408 112.041C80.1853 107.082 75.7408 103.225 70.5557 103.225C65.3705 103.225 61.1112 107.082 60.3705 112.041C49.8149 109.837 40.3705 104.51 33.3334 96.7959C35.0001 94.9592 36.1112 92.5714 36.1112 89.8163C36.1112 84.3061 31.4816 79.7143 25.926 79.7143C25.0001 79.7143 23.889 79.898 22.9631 80.0816C20.926 74.7551 20.0001 68.8776 20.0001 63C20.0001 57.4898 20.926 52.1633 22.5927 47.2041C23.7038 47.5714 24.8149 47.7551 25.926 47.7551C31.4816 47.7551 36.1112 43.1633 36.1112 37.6531C36.1112 34.5306 34.8149 31.7755 32.5927 29.9388C39.8149 21.8571 49.6297 15.9796 60.926 13.7755C61.6668 18.3674 65.5557 21.8571 70.5557 21.8571C75.3705 21.8571 79.4446 18.3674 80.1853 13.7755C91.1112 15.7959 100.926 21.4898 108.148 29.3878C105.741 31.2245 104.074 34.1633 104.074 37.4694C104.074 42.9796 108.704 47.5714 114.259 47.5714C115.741 47.5714 117.222 47.2041 118.519 46.6531C120 51.7959 120.926 57.3061 120.926 63Z" fill="#B4A3FD"></path> <path d="M69.6297 66.1224C69.2593 66.1224 68.8889 66.4898 68.8889 66.8571C68.8889 67.2245 69.2593 67.5918 69.6297 67.5918C70 67.5918 70.3704 67.2245 70.3704 66.8571C70.5556 66.4898 70.1852 66.1224 69.6297 66.1224Z" fill="#F1A17C"></path> <path d="M98.7036 58.4082C98.3333 58.4082 97.9629 58.7755 97.9629 59.1429C97.9629 59.5102 98.3333 59.8776 98.7036 59.8776C99.074 59.8776 99.4444 59.5102 99.4444 59.1429C99.6296 58.7755 99.2592 58.4082 98.7036 58.4082Z" fill="#F1A17C"></path> <path d="M72.7779 29.2041C72.7779 28.8367 72.4075 28.4694 72.0371 28.4694C71.6668 28.4694 71.2964 28.8367 71.2964 29.2041C71.2964 29.5714 71.6668 29.9388 72.0371 29.9388C72.4075 29.9388 72.7779 29.5714 72.7779 29.2041Z" fill="#F1A17C"></path> <path d="M0.740741 49.7755C0.37037 49.7755 0 50.1429 0 50.5102C0 51.0612 0.37037 51.4286 0.740741 51.4286C1.11111 51.4286 1.48148 51.0612 1.48148 50.6939C1.66667 50.1429 1.2963 49.7755 0.740741 49.7755Z" fill="#F1A17C"></path> <path d="M121.111 7.89795C121.481 7.89795 121.852 7.5306 121.852 7.16325C121.852 6.79591 121.481 6.42856 121.111 6.42856C120.741 6.42856 120.37 6.79591 120.37 7.16325C120.37 7.5306 120.741 7.89795 121.111 7.89795Z" fill="#F1A17C"></path> <path d="M132.222 71.6327C131.852 71.6327 131.481 72 131.481 72.3674C131.481 72.7347 131.852 73.102 132.222 73.102C132.593 73.102 132.963 72.7347 132.963 72.3674C132.963 72 132.593 71.6327 132.222 71.6327Z" fill="#F1A17C"></path> <path d="M114.815 112.041C114.444 112.041 114.074 112.408 114.074 112.776C114.074 113.143 114.444 113.51 114.815 113.51C115.185 113.51 115.555 113.143 115.555 112.776C115.555 112.408 115.185 112.041 114.815 112.041Z" fill="#F1A17C"></path> <path d="M44.4444 111.122C44.074 111.122 43.7036 111.49 43.7036 111.857C43.7036 112.224 44.074 112.592 44.4444 112.592C44.8147 112.592 45.1851 112.224 45.1851 111.857C45.1851 111.49 44.8147 111.122 44.4444 111.122Z" fill="#F1A17C"></path> <path d="M49.0741 45.9184C49.7901 45.9184 50.3704 45.3427 50.3704 44.6326C50.3704 43.9226 49.7901 43.3469 49.0741 43.3469C48.3582 43.3469 47.7778 43.9226 47.7778 44.6326C47.7778 45.3427 48.3582 45.9184 49.0741 45.9184Z" fill="#F1A17C"></path> <path d="M48.8888 75.8571C49.6047 75.8571 50.1851 75.2815 50.1851 74.5714C50.1851 73.8613 49.6047 73.2857 48.8888 73.2857C48.1729 73.2857 47.5925 73.8613 47.5925 74.5714C47.5925 75.2815 48.1729 75.8571 48.8888 75.8571Z" fill="#F1A17C"></path> <path d="M95.1851 75.1224C95.1851 74.3878 94.6296 73.8367 93.8888 73.8367C93.1481 73.8367 92.5925 74.3878 92.5925 75.1224C92.5925 75.8571 93.1481 76.4082 93.8888 76.4082C94.6296 76.4082 95.1851 75.8571 95.1851 75.1224Z" fill="#F1A17C"></path> <path d="M91.852 31.4082C92.5927 31.4082 93.1483 30.8571 93.1483 30.1224C93.1483 29.3878 92.5927 28.8367 91.852 28.8367C91.1112 28.8367 90.5557 29.3878 90.5557 30.1224C90.5557 30.8571 91.1112 31.4082 91.852 31.4082Z" fill="#F1A17C"></path> <path d="M105.185 11.7551C105.926 11.7551 106.482 11.2041 106.482 10.4694C106.482 9.73471 105.926 9.18369 105.185 9.18369C104.444 9.18369 103.889 9.73471 103.889 10.4694C103.889 11.2041 104.444 11.7551 105.185 11.7551Z" fill="#F1A17C"></path> <path d="M43.3334 7.16326C44.0493 7.16326 44.6297 6.58762 44.6297 5.87754C44.6297 5.16746 44.0493 4.59183 43.3334 4.59183C42.6175 4.59183 42.0371 5.16746 42.0371 5.87754C42.0371 6.58762 42.6175 7.16326 43.3334 7.16326Z" fill="#F1A17C"></path> <path d="M33.1481 59.3265C33.8888 59.3265 34.4444 58.7755 34.4444 58.0408C34.4444 57.3061 33.8888 56.7551 33.1481 56.7551C32.4073 56.7551 31.8518 57.3061 31.8518 58.0408C31.6666 58.7755 32.4073 59.3265 33.1481 59.3265Z" fill="#F1A17C"></path> <path d="M10.7406 73.6531C11.4566 73.6531 12.0369 73.0774 12.0369 72.3674C12.0369 71.6573 11.4566 71.0816 10.7406 71.0816C10.0247 71.0816 9.44434 71.6573 9.44434 72.3674C9.44434 73.0774 10.0247 73.6531 10.7406 73.6531Z" fill="#F1A17C"></path> <path d="M96.2963 124.163C97.0122 124.163 97.5926 123.588 97.5926 122.878C97.5926 122.167 97.0122 121.592 96.2963 121.592C95.5804 121.592 95 122.167 95 122.878C95 123.588 95.5804 124.163 96.2963 124.163Z" fill="#F1A17C"></path> <path d="M133.704 52.7143C132.963 52.7143 132.407 53.2653 132.407 54C132.407 54.7347 132.963 55.2857 133.704 55.2857C134.445 55.2857 135 54.7347 135 54C135 53.2653 134.445 52.7143 133.704 52.7143Z" fill="#F1A17C"></path> <path d="M64.0741 88.8979C63.3334 88.8979 62.7778 89.449 62.7778 90.1837C62.7778 90.9184 63.3334 91.4694 64.0741 91.4694C64.8149 91.4694 65.3704 90.9184 65.3704 90.1837C65.3704 89.6326 64.8149 88.8979 64.0741 88.8979Z" fill="#F1A17C"></path> <path d="M30.5556 115.898C31.2715 115.898 31.8519 115.322 31.8519 114.612C31.8519 113.902 31.2715 113.327 30.5556 113.327C29.8396 113.327 29.2593 113.902 29.2593 114.612C29.2593 115.322 29.8396 115.898 30.5556 115.898Z" fill="#F1A17C"></path> <path d="M85.9259 88.3469L85 84.3061L84.2593 88.3469L80 87.7959L83.7037 89.8163L82.037 93.6735L85 90.9184L88.1481 93.6735L86.2963 89.8163L90 87.7959L85.9259 88.3469Z" fill="#F1A17C"></path> <path d="M93.1482 43.3469L88.8889 43.898L88.1482 39.6735L87.4075 43.898L83.1482 43.3469L86.8519 45.3673L85 49.0408L88.1482 46.2857L91.1112 49.0408L89.4445 45.3673L93.1482 43.3469Z" fill="#F1A17C"></path> <path d="M27.037 18.7347L29.2592 16.7143L31.2963 18.7347L30.1852 16.1633L32.5926 14.6939L29.8148 15.0612L29.2592 12.3061L28.7037 15.0612L25.7407 14.6939L28.3333 16.1633L27.037 18.7347Z" fill="#F1A17C"></path> <path d="M69.8149 47.2041L67.5926 48.4898L66.8519 45.9184L66.2963 48.4898L64.0741 47.2041L65.3704 49.4082L62.7778 49.9592L65.3704 50.6939L64.0741 52.898L66.2963 51.6122L66.8519 54.1837L67.5926 51.6122L69.8149 52.898L68.5186 50.6939L70.926 49.9592L68.5186 49.4082L69.8149 47.2041Z" fill="#F1A17C"></path> <path d="M36.2963 72.1837L37.7778 69.9796L35.3704 71.2653L34.8148 68.6939L34.0741 71.2653L31.8518 69.9796L33.1481 72.1837L30.7407 72.7347L33.1481 73.4694L31.8518 75.6735L34.0741 74.3878L34.8148 76.7755L35.3704 74.3878L37.7778 75.6735L36.2963 73.4694L38.8889 72.7347L36.2963 72.1837Z" fill="#F1A17C"></path> <path d="M128.333 27.551L128.889 30.1225L129.63 27.551L131.852 28.8367L130.556 26.6327L133.148 26.0816L130.556 25.3469L131.852 23.1429L129.63 24.4286L128.889 21.8571L128.333 24.4286L126.111 23.1429L127.408 25.3469L124.815 26.0816L127.408 26.6327L126.111 28.8367L128.333 27.551Z" fill="#F1A17C"></path> <path d="M12.5925 55.2857L13.8888 53.0816L11.6666 54.3673L10.9259 51.9796L10.3703 54.3673L8.1481 53.0816L9.4444 55.2857L6.85181 56.0204L9.4444 56.5714L8.1481 58.7755L10.3703 57.4898L10.9259 60.0612L11.6666 57.4898L13.8888 58.7755L12.5925 56.5714L15 56.0204L12.5925 55.2857Z" fill="#F1A17C"></path> <path d="M80.1851 65.5714C80.5554 65.7551 81.111 65.9388 81.4814 66.3061C81.8517 66.6735 81.8517 67.7755 82.0369 68.3265H82.2221C82.2221 67.7755 82.4073 66.6735 82.7777 66.3061C83.148 65.9388 83.7036 65.5714 84.074 65.5714V65.3878C83.7036 65.2041 83.148 65.0204 82.9628 64.6531C82.5925 64.2857 82.4073 63 82.4073 62.2653H82.2221C82.2221 63 82.0369 64.2857 81.4814 64.8367C80.9258 65.2041 80.5554 65.2041 80.1851 65.5714C80.1851 65.5714 80.1851 65.3878 80.1851 65.5714Z" fill="#F1A17C"></path> <path d="M130.741 65.0204C130.37 64.8367 129.815 64.653 129.63 64.2857C129.259 63.9184 129.074 62.6326 129.074 61.8979H128.889C128.889 62.6326 128.704 63.9184 128.148 64.4694C127.778 64.8367 127.407 65.0204 127.037 65.0204V65.2041C127.407 65.3877 127.963 65.5714 128.333 65.9388C128.704 66.3061 128.704 67.4082 128.889 67.9592H129.074C129.074 67.4082 129.259 66.3061 129.63 65.9388C129.815 65.3877 130.37 65.2041 130.741 65.0204C130.926 65.0204 130.926 65.2041 130.741 65.0204Z" fill="#F1A17C"></path> <path d="M103.889 114.796C103.518 114.612 102.963 114.429 102.778 114.061C102.407 113.694 102.222 112.408 102.222 111.673H102.037C102.037 112.408 101.852 113.694 101.296 114.245C100.926 114.612 100.555 114.796 100.185 114.796V114.98C100.555 115.163 101.111 115.347 101.481 115.714C101.852 116.082 101.852 117.184 102.037 117.735H102.222C102.222 117.184 102.407 116.082 102.778 115.714C102.963 115.347 103.518 115.163 103.889 114.796C103.889 114.98 103.889 114.98 103.889 114.796Z" fill="#F1A17C"></path> <path d="M51.1112 99.551C50.7408 99.3674 50.1852 99.1837 50.0001 98.8163C49.6297 98.449 49.4445 97.1633 49.4445 96.4286H49.2593C49.2593 97.1633 49.0741 98.449 48.5186 99C48.1482 99.3674 47.7778 99.551 47.4075 99.551V99.7347C47.7778 99.9184 48.3334 100.102 48.7038 100.469C49.0741 100.837 49.0741 101.939 49.2593 102.49H49.4445C49.4445 101.939 49.6297 100.837 50.0001 100.469C50.1852 100.102 50.7408 99.7347 51.1112 99.551C51.2964 99.551 51.2964 99.7347 51.1112 99.551Z" fill="#F1A17C"></path> <path d="M53.148 28.102C52.7777 27.9184 52.2221 27.7347 52.0369 27.3673C51.6666 27 51.4814 25.7143 51.4814 24.9796H51.2962C51.2962 25.7143 51.111 27 50.5554 27.551C50.1851 27.9184 49.8147 28.102 49.4443 28.102V28.2857C49.8147 28.4694 50.3703 28.6531 50.7406 29.0204C51.111 29.3877 51.111 30.4898 51.2962 31.0408H51.4814C51.4814 30.4898 51.6666 29.3877 52.0369 29.0204C52.0369 28.4694 52.7777 28.2857 53.148 28.102Z" fill="#F1A17C"></path> <path d="M53.148 123.061C52.7777 122.878 52.2221 122.694 52.0369 122.327C51.6666 121.959 51.4814 120.673 51.4814 119.939H51.2962C51.2962 120.673 51.111 121.959 50.5554 122.51C50.1851 122.878 49.8147 123.061 49.4443 123.061V123.245C49.8147 123.429 50.3703 123.612 50.7406 123.98C51.111 124.347 51.111 125.449 51.2962 126H51.4814C51.4814 125.449 51.6666 124.347 52.0369 123.98C52.0369 123.429 52.7777 123.245 53.148 123.061Z" fill="#F1A17C"></path> <path d="M56.8519 60.0612C56.4815 59.8776 55.926 59.6939 55.7408 59.3265C55.3704 58.9592 55.1852 57.6735 55.1852 56.9388H55C55 57.6735 54.8149 58.9592 54.2593 59.5102C53.8889 59.8776 53.5186 60.0612 53.1482 60.0612V60.2449C53.5186 60.4286 54.0741 60.6123 54.4445 60.9796C54.8149 61.3469 54.8149 62.449 55 63H55.1852C55.1852 62.449 55.3704 61.3469 55.7408 60.9796C55.926 60.6123 56.4815 60.4286 56.8519 60.0612C56.8519 60.0612 56.8519 60.2449 56.8519 60.0612Z" fill="#F1A17C"></path> <path d="M86.2964 3.30612C86.6668 3.4898 87.2223 3.67347 87.5927 4.04082C87.9631 4.40816 87.9631 5.5102 88.1482 6.06123H88.3334C88.3334 5.5102 88.5186 4.40816 88.889 4.04082C89.2594 3.67347 89.8149 3.30612 90.1853 3.30612V3.12245C89.8149 2.93878 89.2593 2.7551 89.0742 2.38776C88.7038 2.02041 88.5186 0.734694 88.5186 0H88.3334C88.3334 0.734694 88.1482 2.02041 87.5927 2.57143C87.0371 2.93878 86.6668 3.12245 86.2964 3.30612C86.2964 3.30612 86.2964 3.12245 86.2964 3.30612Z" fill="#F1A17C"></path> <path d="M113.889 61.8979C113.889 62.6326 113.704 63.9184 113.148 64.4694C112.778 64.8367 112.407 65.0204 112.037 65.0204V65.2041C112.407 65.3877 112.963 65.5714 113.333 65.9388C113.704 66.3061 113.704 67.4082 113.889 67.9592H114.074C114.074 67.4082 114.259 66.3061 114.63 65.9388C115 65.5714 115.556 65.2041 115.926 65.2041V65.0204C115.556 64.8367 115 64.653 114.815 64.2857C114.259 63.9184 114.074 62.6326 113.889 61.8979C113.889 61.7143 114.074 61.7143 113.889 61.8979Z" fill="#F1A17C"></path> <path d="M96.8519 96.4286C96.4815 96.2449 95.926 96.0612 95.7408 95.6939C95.3704 95.3265 95.1852 94.0408 95.1852 93.3061H95C95 94.0408 94.8149 95.3265 94.2593 95.8776C93.8889 96.2449 93.5186 96.4286 93.1482 96.4286V96.6122C93.5186 96.7959 94.0741 96.9796 94.4445 97.3469C94.8149 97.7143 94.8149 98.8163 95 99.3673H95.1852C95.1852 98.8163 95.3704 97.7143 95.7408 97.3469C95.926 96.9796 96.4815 96.7959 96.8519 96.4286C96.8519 96.4286 96.8519 96.6122 96.8519 96.4286Z" fill="#F1A17C"></path> <path d="M75.5555 80.449C75.1851 80.2653 74.6296 80.0816 74.4444 79.7143C74.074 79.347 73.8888 78.0612 73.8888 77.3265H73.7037C73.7037 78.0612 73.5185 79.3469 72.9629 79.898C72.5926 80.2653 72.2222 80.449 71.8518 80.449V80.6327C72.2222 80.8163 72.7777 81 73.1481 81.3674C73.5185 81.7347 73.5185 82.8367 73.7037 83.3878H73.8888C73.8888 82.8367 74.074 81.7347 74.4444 81.3674C74.4444 80.8163 75.1851 80.6327 75.5555 80.449Z" fill="#F1A17C"></path> <path d="M62.7779 39.6735C62.7779 39.1225 62.9631 38.0204 63.3334 37.6531C63.7038 37.2857 64.2594 36.9184 64.6297 36.9184V36.7347C64.2594 36.551 63.7038 36.3673 63.5186 36C63.1482 35.6327 62.9631 34.3469 62.9631 33.6122H62.7779C62.7779 34.3469 62.5927 35.6327 62.0371 36.1837C61.6668 36.551 61.2964 36.7347 60.926 36.7347V36.9184C61.2964 37.102 61.8519 37.2857 62.2223 37.6531C62.4075 38.0204 62.5927 39.1225 62.7779 39.6735C62.7779 39.8571 62.7779 39.8571 62.7779 39.6735Z" fill="#F1A17C"></path> </svg> 