<?xml version="1.0" encoding="UTF-8"?> <svg xmlns="http://www.w3.org/2000/svg" width="181" height="149" viewBox="0 0 181 149" fill="none"> <path d="M180.814 64.5187C180.814 64.3322 180.442 63.5863 179.884 63.5863C179.698 63.5863 179.512 63.5863 179.512 63.5863C178.21 63.5863 177.094 63.9592 175.977 64.3322C172.629 65.8239 170.769 69.1804 168.909 73.2827C168.909 71.791 168.723 70.4857 168.536 69.1804C168.35 68.0616 167.978 66.7563 167.606 65.6375C167.606 65.6375 167.606 65.6375 167.606 65.451C167.606 65.2645 167.606 64.8916 167.606 64.7051C167.42 63.2134 167.048 61.7216 166.304 60.6028C166.118 60.2298 165.932 60.0434 165.746 59.8569C165.188 59.2975 164.63 59.8569 164.63 60.4163V60.6028C162.956 61.7216 161.096 63.5863 160.165 66.3834C159.607 68.0616 159.607 69.9263 159.607 70.6722C159.607 71.9775 159.793 73.2827 159.979 74.588C159.607 75.5204 159.235 76.4527 159.049 77.3851C159.049 77.5716 158.863 77.758 158.863 77.9445C158.491 76.4527 158.119 74.961 157.561 73.6557C157.003 72.1639 156.259 70.8586 155.515 69.3669C155.515 68.9939 155.329 68.8075 155.143 68.4345C154.771 67.6886 154.399 66.7563 153.841 66.0104C153.655 65.6375 153.283 65.0781 152.911 64.7051C152.911 64.7051 152.725 64.5187 152.539 64.5187C152.353 64.3322 152.167 64.3322 152.167 64.3322C151.794 64.1457 151.422 64.3322 151.236 64.7051C150.678 65.0781 150.306 65.451 149.934 65.8239C149.19 66.9428 148.818 68.2481 149.004 70.2992C149.19 72.7233 149.934 75.1475 151.05 77.5716C150.864 78.8769 150.678 80.3686 150.492 81.6739C150.306 83.3521 150.306 85.2168 150.492 86.8951C149.934 87.4545 149.562 88.2004 149.19 88.7598C148.818 89.3192 148.632 90.0651 148.446 90.8109C147.888 90.9974 147.33 91.1839 146.958 91.3703C146.772 89.3192 146.4 87.268 146.214 85.2168V84.8439C146.028 82.7927 145.842 81.4874 145.47 79.8092C145.098 78.5039 144.726 77.3851 144.354 76.0798C144.354 75.7069 144.168 75.1475 143.982 74.7745C143.609 74.0286 142.679 71.418 142.121 71.418C141.935 71.418 141.935 71.418 141.935 71.418C141.749 71.6045 141.749 71.791 141.749 71.791C141.749 71.9775 141.749 71.9775 141.749 72.1639C141.377 72.3504 141.005 72.5369 140.819 72.9098C137.471 75.7069 139.331 82.2333 139.703 83.3521C139.331 84.471 139.145 85.5898 139.145 86.7086C138.959 88.3868 138.959 90.0651 139.331 91.7433C138.773 92.6756 138.401 93.7945 138.029 94.7268C137.843 95.4727 137.657 96.0321 137.657 96.778C137.471 96.9644 137.099 96.9644 136.913 97.1509C134.68 98.0833 133.564 98.2697 132.076 98.4562C130.588 98.6427 128.728 98.8292 125.379 99.948C121.659 101.067 117.008 102.559 112.172 106.101C110.311 107.593 107.521 109.458 105.661 113.001C103.429 116.917 103.057 120.833 102.871 123.07V123.257C102.684 127.173 101.94 131.275 101.382 135.004C100.951 137.887 102.195 138.442 102.684 135.004C103.243 131.088 103.801 127.173 104.173 123.07V122.884C104.359 120.646 104.545 117.103 106.777 113.374C108.637 110.204 111.056 108.339 112.916 106.847C117.566 103.304 122.217 101.999 125.751 100.88C129.1 99.948 130.774 99.7615 132.262 99.575C133.75 99.3885 135.052 99.2021 137.471 98.2697C140.075 97.1509 141.749 96.0321 143.237 95.0997C145.098 93.7944 146.586 92.8621 149.376 92.1162C151.05 91.7433 152.725 91.5568 154.585 91.5568C153.283 92.1162 152.353 92.6756 151.794 93.235C151.05 93.7944 150.492 94.1674 150.306 94.9133C150.12 95.4727 150.306 96.2186 150.306 96.5915C150.492 97.1509 150.492 97.5238 150.678 97.8968C151.236 98.6427 151.98 98.8291 152.167 99.0156C152.725 99.2021 153.469 99.2021 153.841 99.0156C154.957 98.8291 155.701 98.4562 156.631 98.0833C155.329 99.3886 153.841 100.321 151.05 102.186C147.702 104.423 146.772 104.796 145.842 104.983C144.912 105.169 144.54 105.356 143.982 105.356C143.609 105.356 143.237 105.356 142.679 105.542C140.261 106.101 138.773 107.034 134.308 110.577C133.75 110.95 133.006 111.509 132.448 112.069C131.146 113.187 129.658 114.12 128.17 115.239C127.798 115.425 127.798 115.798 127.984 116.171C128.17 116.357 128.356 116.357 128.542 116.357C128.728 116.357 128.728 116.357 128.914 116.171C130.402 115.052 131.89 114.12 133.192 113.001C133.936 112.441 134.494 112.069 135.052 111.509C139.517 108.153 140.819 107.22 143.051 106.847C143.609 106.661 143.981 106.661 144.354 106.661C144.912 106.661 145.47 106.474 146.4 106.288C147.33 105.915 148.446 105.542 151.794 103.304C154.957 101.253 156.631 100.134 158.119 98.4562C158.863 97.7103 159.421 96.778 159.979 96.0321C160.351 95.6591 160.538 95.4727 160.724 95.0997C160.91 94.5403 160.724 93.7945 160.724 93.608C160.538 92.8621 159.979 92.3027 159.421 91.7433C159.049 91.3703 158.863 91.1839 158.491 90.9974C158.119 90.8109 157.561 90.8109 157.189 90.8109C156.631 90.8109 155.887 90.6245 155.329 90.6245C156.073 89.8786 157.003 89.3192 157.933 88.7598C158.863 88.2004 159.979 87.8274 160.91 87.4545C161.468 88.0139 162.026 88.3868 162.584 88.5733H162.77C162.956 88.5733 163.328 88.3868 163.328 88.2003C163.514 87.8274 163.328 87.4545 162.956 87.4545C162.584 87.268 162.212 87.0815 161.84 86.8951C162.398 85.5898 163.142 84.2845 163.886 83.1657C165.002 81.301 166.49 79.4363 168.164 77.758C168.723 78.131 169.281 78.5039 170.025 78.5039C170.397 78.5039 170.583 78.131 170.583 77.9445C170.583 77.5716 170.211 77.3851 170.025 77.3851C169.653 77.3851 169.281 77.1986 168.909 76.8257V76.6392C170.955 71.791 172.815 67.6886 176.349 66.0104C176.908 65.6375 177.652 65.451 178.396 65.451C178.21 65.8239 178.21 66.1969 178.024 66.7563C177.652 68.0616 177.652 68.9939 177.466 70.1128C177.466 70.4857 177.28 70.8586 177.652 71.2316C177.28 72.5369 176.721 73.8422 176.163 75.3339C175.791 76.0798 175.233 77.5716 174.489 79.2498C173.559 81.1145 173.187 81.8604 172.629 82.7927C172.257 83.5386 171.699 84.2845 171.141 85.7762C170.583 87.0815 170.211 88.0139 170.025 88.5733C169.653 89.6921 169.281 90.438 168.35 91.5568C167.606 92.4892 166.862 93.0486 165.932 93.7945L165.746 93.9809C160.538 98.0833 157.933 100.134 156.073 102.559C153.097 106.474 151.794 109.085 151.608 109.085C151.608 109.271 151.422 109.458 151.422 109.458C151.05 110.39 150.678 111.136 149.934 111.882C149.376 112.441 148.818 112.628 148.074 113.001C147.516 113.187 146.958 113.56 146.028 113.933C144.912 114.493 144.354 114.866 143.609 115.425C143.423 115.611 143.237 115.611 143.051 115.798C141.191 117.103 139.331 118.222 137.285 119.154C133.564 121.206 129.844 123.257 125.937 126.8C123.333 129.224 122.403 130.529 121.845 132.207C121.287 133.699 120.915 135.191 120.729 139.107C120.543 144.141 120.915 147.684 121.101 147.684C121.101 148.942 122.5 149.942 122.217 147.498C122.217 147.498 121.845 143.955 122.031 139.107C122.217 135.377 122.403 133.886 122.961 132.58C123.519 131.275 124.449 129.97 126.867 127.732C130.588 124.189 134.308 122.324 137.843 120.273C139.889 119.154 141.749 118.036 143.795 116.73C143.982 116.544 144.168 116.544 144.354 116.357C145.098 115.984 145.656 115.425 146.586 115.052C147.33 114.679 148.074 114.306 148.632 114.12C149.376 113.747 150.12 113.56 150.864 112.814C151.794 111.882 152.353 110.95 152.725 110.017C152.725 109.831 152.911 109.831 152.911 109.644C152.911 109.644 154.213 107.034 157.189 103.304C159.049 101.067 161.654 99.0156 166.676 94.9133L166.862 94.7268C167.792 93.9809 168.537 93.4215 169.467 92.3027C170.397 90.9974 170.769 90.2515 171.327 88.9462C171.513 88.2004 171.885 87.268 172.443 86.1492C173.001 84.8439 173.559 84.098 173.931 83.3521C174.489 82.6063 174.861 81.6739 175.791 79.8092C176.535 78.131 177.094 76.6392 177.466 75.8933C178.024 74.588 178.396 73.2827 178.954 71.9775C179.14 71.791 179.326 71.6045 179.512 71.418C180.442 70.1128 181 68.4345 181 66.5698C181 65.2645 181 64.8916 180.814 64.5187ZM150.864 89.5056C151.05 89.1327 151.422 88.5733 151.608 88.2003C151.98 88.5733 152.539 88.7598 153.097 88.9462C153.469 88.9462 153.655 88.7598 153.655 88.3868C153.655 88.0139 153.469 87.6409 153.097 87.6409C152.725 87.6409 152.353 87.268 151.98 87.0815C151.794 85.4033 151.794 83.7251 151.98 81.8604C151.98 80.7415 152.166 79.4363 152.353 78.3174H152.539C153.097 78.3174 153.469 78.131 154.027 77.9445C154.399 77.758 154.585 77.3851 154.399 77.1986C154.213 76.8257 153.841 76.6392 153.655 76.8257C153.283 77.0121 152.911 77.1986 152.539 77.0121C151.422 74.7745 150.864 72.5369 150.678 70.2992C150.492 68.0616 150.864 67.1292 151.236 66.5698C151.422 66.3834 151.608 66.0104 151.98 65.8239C152.166 66.3834 152.539 66.9428 152.725 67.3157C153.097 68.2481 153.655 68.9939 154.213 69.7398C154.399 69.9263 154.399 69.9263 154.585 69.9263C155.329 71.2316 155.887 72.5369 156.445 73.8422C157.561 76.6392 158.305 79.6227 158.491 82.7927C158.491 83.3521 158.491 83.9115 158.677 84.4709C158.491 84.6574 158.305 85.0304 158.119 85.2168C157.747 85.7762 157.375 86.5221 157.003 87.268C155.701 88.0139 154.399 88.9462 153.469 90.2515C152.353 90.2515 151.422 90.438 150.306 90.6245C150.492 90.2515 150.678 89.8786 150.864 89.5056ZM142.493 94.1674C141.563 94.9133 140.447 95.4727 139.145 96.2186C139.145 95.8456 139.331 95.4727 139.331 95.2862C139.517 94.3539 139.889 93.608 140.261 92.8621C140.447 92.8621 140.447 92.8621 140.633 92.8621C141.005 92.8621 141.563 92.6756 141.935 92.4892C142.307 92.3027 142.307 91.9298 142.121 91.5568C141.935 91.1839 141.563 91.1839 141.191 91.3703C141.005 91.5568 140.819 91.5568 140.447 91.5568C140.261 90.0651 140.261 88.5733 140.447 87.0815C140.447 86.1492 140.633 85.2168 141.005 84.2845C141.191 84.2845 141.563 84.2845 141.749 84.098C142.121 83.9115 142.121 83.5386 142.121 83.1657C141.935 82.7927 141.563 82.7927 141.191 82.7927H141.005C140.633 81.301 139.145 76.0798 141.749 73.8422C141.935 73.6557 141.935 73.6557 142.121 73.4692C142.307 73.8422 142.307 74.2151 142.493 74.588C142.679 75.1474 143.051 75.5204 143.237 75.8933V76.0798C143.609 77.3851 144.168 78.6904 144.354 79.8092C144.726 81.4874 144.912 82.7927 145.098 84.8439V85.2168C145.284 87.268 145.656 89.5056 145.842 91.7433C144.726 92.6756 143.609 93.4215 142.493 94.1674ZM162.956 82.0468C162.212 83.3521 161.468 84.6574 160.91 85.9627C160.351 86.1492 159.607 86.3356 159.049 86.5221C159.049 86.3356 159.235 86.1492 159.421 86.1492C159.607 85.7762 159.793 85.5898 160.165 85.4033C160.351 85.2168 160.351 85.0304 160.351 84.8439C159.979 82.4198 160.165 79.9957 160.724 77.758C160.91 77.0121 161.282 76.0798 161.468 75.3339C161.654 75.3339 161.84 75.3339 162.026 75.3339C162.584 75.3339 163.328 75.1474 163.886 74.961C164.258 74.7745 164.258 74.4016 164.258 74.0286C164.072 73.6557 163.7 73.6557 163.328 73.6557C162.77 73.8421 162.212 74.0286 161.654 73.8422C161.468 72.7233 161.282 71.6045 161.282 70.4857C161.282 69.5533 161.282 68.0616 161.84 66.5698C162.584 64.3322 164.072 62.8404 165.374 61.7216C165.374 61.9081 165.56 62.0945 165.56 62.281C165.932 63.0269 166.118 63.7728 166.49 64.5187C166.49 64.7051 166.49 64.8916 166.49 64.8916C166.862 66.1969 167.234 67.6886 167.606 68.9939C167.978 71.2316 168.164 73.4692 167.978 75.7069C165.932 77.758 164.258 79.8092 162.956 82.0468Z" fill="#B4A3FD"></path> <path d="M140.075 98.8291C139.703 98.8291 139.331 99.0156 139.331 99.3885C139.145 101.44 140.261 103.677 141.935 104.796C142.121 104.796 142.121 104.983 142.307 104.983C142.493 104.983 142.679 104.796 142.865 104.61C143.051 104.237 143.051 103.864 142.679 103.677C141.377 102.745 140.447 101.067 140.633 99.3885C140.819 99.202 140.447 98.8291 140.075 98.8291Z" fill="#B4A3FD"></path> <path d="M145.097 102.745C145.47 102.745 145.842 102.372 145.656 101.999C145.47 100.507 144.911 99.2021 143.981 98.0832C143.795 97.8968 143.423 97.7103 143.051 98.0832C142.865 98.2697 142.679 98.6426 143.051 99.0156C143.795 99.9479 144.353 101.067 144.353 102.372C144.353 102.559 144.725 102.745 145.097 102.745Z" fill="#B4A3FD"></path> <path d="M38.5067 104.983C38.6927 104.983 38.6927 104.983 38.8787 104.796C40.7389 103.677 41.6691 101.44 41.483 99.3885C41.483 99.0156 41.111 98.8291 40.7389 98.8291C40.3669 98.8291 40.1809 99.202 40.1809 99.575C40.3669 101.253 39.4368 102.931 38.1346 103.864C37.7626 104.05 37.7626 104.423 37.9486 104.796C38.1346 104.796 38.3207 104.983 38.5067 104.983Z" fill="#B4A3FD"></path> <path d="M37.9486 98.0833C37.7625 97.8968 37.2045 97.8968 37.0184 98.0833C36.0883 99.2021 35.5303 100.694 35.3442 101.999C35.3442 102.372 35.5303 102.745 35.9023 102.745C36.2743 102.745 36.4604 102.559 36.4604 102.186C36.6464 101.067 37.0184 99.7615 37.7625 98.8291C38.1346 98.6427 38.1346 98.2697 37.9486 98.0833Z" fill="#B4A3FD"></path> <path d="M80.9198 144.887C80.5478 141.531 80.1757 138.174 79.6177 135.004C79.0596 131.088 78.5015 127.173 78.1295 123.257V123.07C77.9435 120.833 77.7574 116.917 75.3391 113.001C73.2929 109.644 70.6886 107.593 68.8284 106.101C63.9918 102.559 59.3412 101.067 55.6208 99.9479C52.0863 98.8291 50.4121 98.6426 48.9239 98.4562C47.4358 98.2697 46.3196 98.0832 44.0874 97.1509C43.9013 96.9644 43.5293 96.9644 43.3433 96.7779C43.1572 96.0321 43.1572 95.4727 42.9712 94.7268C42.5992 93.608 42.2271 92.6756 41.6691 91.7433C41.8551 90.065 41.8551 88.3868 41.8551 86.7086C41.6691 85.5897 41.483 84.4709 41.297 83.3521C41.6691 82.2333 43.5293 75.7068 40.1809 72.9098C39.8088 72.7233 39.6228 72.3504 39.2508 72.1639C39.2508 71.9774 39.2508 71.9774 39.2508 71.791C39.2508 71.791 39.2508 71.418 39.0647 71.418H38.8787C38.3207 71.418 37.2045 73.8421 37.0185 74.7745C36.8325 75.1474 36.6465 75.7068 36.6465 76.0798C36.2744 77.1986 35.9024 78.5039 35.5303 79.8092C35.1583 81.6739 34.9722 82.9792 34.7862 84.8439V85.2168C34.6002 87.268 34.2282 89.3191 34.0421 91.3703C33.4841 91.1838 33.112 90.9974 32.554 90.8109C32.3679 90.065 32.1819 89.5056 31.8099 88.7597C31.4378 88.0139 31.0658 87.4544 30.5077 86.895C30.6937 85.2168 30.6937 83.3521 30.5077 81.6739C30.5077 80.3686 30.3217 78.8768 29.9496 77.5715C31.0658 75.1474 31.8099 72.7233 31.9959 70.2992C32.1819 68.0616 31.9959 66.7563 31.0658 65.8239C30.6937 65.2645 30.3217 64.8916 29.7636 64.7051C29.7636 64.3322 29.2055 64.1457 28.8335 64.3322C28.6475 64.3322 28.4615 64.3322 28.4615 64.5186C28.2754 64.5186 28.2754 64.7051 28.0894 64.7051C27.7174 65.078 27.5313 65.451 27.1593 66.0104C26.7873 66.7563 26.4152 67.6886 25.8571 68.4345C25.6711 68.8074 25.4851 68.9939 25.4851 69.3668C24.741 70.6721 23.9969 72.1639 23.4388 73.6557C22.8808 74.9609 22.5087 76.4527 22.1367 77.9445C22.1367 77.758 22.1367 77.5715 21.9507 77.3851C21.7646 76.4527 21.3926 75.5204 21.0206 74.588C21.2066 73.2827 21.3926 71.9774 21.3926 70.6721C21.3926 69.7398 21.3926 68.0616 20.8345 66.3833C19.9044 63.5863 18.0442 61.7216 16.37 60.6028V60.4163C16.37 59.6704 15.8119 59.2975 15.2539 59.8569C14.8818 59.8569 14.6958 60.2298 14.5098 60.4163C13.7657 61.7216 13.3936 63.2133 13.2076 64.5186C13.2076 64.7051 13.2076 65.078 13.2076 65.2645C13.2076 65.2645 13.2076 65.2645 13.2076 65.451C12.8356 66.5698 12.4635 67.8751 12.2775 68.9939C12.0915 70.2992 11.9054 71.791 11.9054 73.0962C10.0452 68.9939 8.18499 65.6374 4.83659 64.1457C3.72045 63.5863 2.60432 63.3998 1.30216 63.3998C1.30216 63.3998 1.11614 63.2133 0.930113 63.3998C0.372045 63.3998 0 64.1457 0 64.3322C0 64.8916 0 65.2645 0 65.6374C0.186023 67.5021 0.558068 68.9939 1.48818 70.4857C1.6742 70.6721 1.86023 71.0451 2.04625 71.0451C2.60432 72.3504 3.16238 73.8421 3.72045 75.1474C4.0925 75.8933 4.65056 77.3851 5.39466 79.0633C6.32477 80.928 6.69681 81.8603 7.25488 82.6062C7.62693 83.3521 8.18499 84.098 8.74306 85.4033C9.30113 86.5221 9.48715 87.4544 9.8592 88.2003C10.4173 89.5056 10.6033 90.2515 11.7194 91.5568C12.6495 92.6756 13.3936 93.235 14.3237 93.9809L14.5098 94.1674C19.5324 98.0832 22.1367 100.134 23.9969 102.559C26.9733 106.288 28.2754 108.898 28.2754 108.898C28.2754 109.085 28.4615 109.271 28.4615 109.271C28.8335 110.204 29.3916 111.136 30.3217 112.068C31.0658 112.628 31.6238 113.001 32.554 113.374C33.112 113.56 33.6701 113.933 34.6002 114.306C35.5303 114.866 36.2744 115.238 36.8325 115.611C37.0185 115.798 37.2045 115.798 37.3905 115.984C39.2508 117.29 41.297 118.408 43.3433 119.527C46.8777 121.578 50.5981 123.443 54.3186 126.986C56.7369 129.224 57.481 130.529 58.0391 131.834C58.5971 133.14 58.9692 134.631 58.9692 138.361C58.9692 140.442 60.2713 140.442 60.2713 138.361C60.0853 134.445 59.7132 132.953 59.1552 131.461C58.5971 129.97 57.481 128.478 55.0627 126.054C51.1562 122.511 47.4358 120.46 43.7153 118.408C41.6691 117.29 39.8088 116.171 37.9486 115.052C37.7626 114.866 37.5766 114.866 37.3905 114.679C36.6465 114.12 36.0884 113.747 34.9722 113.187C34.0421 112.628 33.4841 112.441 32.926 112.255C32.1819 111.882 31.6238 111.696 31.0658 111.136C30.3217 110.39 29.9496 109.644 29.5776 108.712C29.5776 108.526 29.3916 108.339 29.3916 108.339C29.3916 108.153 28.0894 105.542 24.927 101.813C23.0668 99.3885 20.4625 97.3373 15.2539 93.235L15.0678 93.0485C14.1377 92.3027 13.3936 91.7433 12.6495 90.8109C11.7194 89.6921 11.5334 88.9462 10.9753 87.8274C10.7893 87.0815 10.4173 86.1492 9.8592 85.0303C9.11511 83.5386 8.74306 82.7927 8.37102 82.0468C7.81295 81.3009 7.4409 80.3686 6.51079 78.5039C5.7667 76.8257 5.20863 75.3339 4.83659 74.588C4.27852 73.2827 3.90647 71.9774 3.34841 70.4857C3.53443 70.1127 3.53443 69.7398 3.53443 69.3668C3.34841 68.248 3.34841 67.3157 2.97636 66.0104C2.79034 65.451 2.79034 65.078 2.60432 64.7051C3.34841 64.8916 3.90647 65.078 4.65056 65.2645C8.18499 66.7563 9.8592 71.0451 12.0915 75.8933V76.0798C11.9054 76.4527 11.3474 76.6392 10.9753 76.6392C10.6033 76.6392 10.4173 77.0121 10.4173 77.1986C10.4173 77.5715 10.7893 77.758 10.9753 77.758C11.7194 77.758 12.2775 77.3851 12.8356 77.0121C14.3237 78.8768 15.8119 80.7415 17.1141 82.7927C17.8582 83.9115 18.6023 85.2168 19.1603 86.5221C18.7883 86.7086 18.4162 87.0815 18.0442 87.0815C17.6721 87.268 17.4861 87.6409 17.6721 87.8274C17.6721 88.0139 18.0442 88.2003 18.2302 88.2003H18.4162C18.9743 88.0139 19.5324 87.6409 20.0904 87.0815C21.2066 87.4544 22.1367 87.8274 23.0668 88.3868C23.9969 88.9462 24.927 89.5056 25.6711 90.2515C25.113 90.2515 24.369 90.438 23.8109 90.438C23.4388 90.438 22.8808 90.438 22.5087 90.6244C22.1367 90.8109 21.9507 90.9974 21.5786 91.3703C21.0206 91.9297 20.4625 92.4891 20.2765 93.235C20.2765 93.4215 20.0904 93.9809 20.2765 94.7268C20.4625 95.0997 20.6485 95.4727 21.0206 95.6591C21.5786 96.5915 22.3227 97.3374 22.8808 98.0832C24.369 99.7615 26.2292 100.88 29.2055 102.931C32.554 105.169 33.6701 105.542 34.6002 105.915C35.5303 106.288 36.0884 106.288 36.6465 106.288C37.0185 106.288 37.3905 106.288 37.9486 106.474C40.1809 106.847 41.297 107.78 45.9476 111.136C46.5057 111.509 47.2497 112.068 47.8078 112.628C49.296 113.747 50.5981 114.679 52.0863 115.798C52.2723 115.798 52.2724 115.984 52.4584 115.984C52.6444 115.984 52.8304 115.984 53.0164 115.798C53.2025 115.425 53.2025 115.052 52.8304 114.866C51.3422 113.747 49.8541 112.814 48.5519 111.696C47.8078 111.136 47.2497 110.763 46.6917 110.204C42.0411 106.847 40.7389 105.729 38.3207 105.169C37.7626 104.983 37.3905 104.983 37.0185 104.983C36.4604 104.983 36.0884 104.796 35.1583 104.61C34.2282 104.423 33.298 103.864 29.9496 101.813C27.1593 99.9479 25.6711 99.0156 24.369 97.7103C25.113 98.0832 26.0432 98.4562 27.1593 98.6426C27.7174 98.8291 28.2754 98.8291 28.8335 98.6426C29.0195 98.6426 29.9496 98.2697 30.3217 97.5238C30.5077 97.1509 30.6937 96.778 30.6937 96.2185C30.6937 95.8456 30.8798 95.0997 30.6937 94.5403C30.5077 93.7944 29.9496 93.235 29.2055 92.8621C28.6475 92.4891 27.7174 91.9297 26.4152 91.1838C28.2754 91.1838 29.9496 91.3703 31.6238 91.7433C34.4142 92.4891 35.9024 93.4215 37.7626 94.7268C39.2508 95.6591 40.925 96.9644 43.5293 97.8968C45.9476 99.0156 47.2497 99.0156 48.7379 99.2021C50.2261 99.3885 51.9003 99.575 55.2487 100.507C58.9692 101.626 63.4337 102.931 68.0843 106.474C69.9445 107.966 72.3628 109.831 74.223 113.001C76.4553 116.73 76.6413 120.273 76.8273 122.511V122.697C77.0134 126.613 77.7574 130.715 78.3155 134.631C78.8736 137.801 79.2456 141.158 79.6177 144.514C79.6177 145.942 81.203 147.442 80.9198 144.887ZM24.555 74.0286C25.113 72.7233 25.6711 71.418 26.4152 70.1127C26.6012 70.1127 26.6012 69.9263 26.7873 69.9263C27.5313 69.3668 27.9034 68.4345 28.2754 67.5021C28.4615 66.9427 28.8335 66.3833 29.0195 66.0104C29.2055 66.1969 29.5776 66.3833 29.7636 66.7563C30.1357 67.3157 30.5077 68.248 30.3217 70.4857C30.1357 72.7233 29.5776 74.9609 28.4615 77.1986C28.0894 77.1986 27.7174 77.1986 27.3453 77.0121C26.9733 76.8256 26.6012 77.0121 26.6012 77.3851C26.4152 77.758 26.6012 78.1309 26.9733 78.1309C27.5313 78.3174 27.9034 78.5039 28.4615 78.5039H28.6475C28.8335 79.6227 29.0195 80.7415 29.0195 82.0468C29.2055 83.725 29.0195 85.4033 29.0195 87.268C28.8335 87.6409 28.2754 87.8274 27.9034 87.8274C27.5313 87.8274 27.3453 88.2003 27.3453 88.5733C27.3453 88.9462 27.7174 89.1327 27.9034 89.1327C28.4615 89.1327 29.0195 88.7597 29.3916 88.3868C29.7636 88.7597 29.9496 89.3191 30.1357 89.6921C30.3217 90.065 30.5077 90.438 30.6937 90.8109C29.5776 90.6244 28.6475 90.438 27.5313 90.438C26.4152 89.3191 25.2991 88.3868 23.9969 87.4544C23.6249 86.7086 23.2528 85.9627 22.8808 85.4033C22.6948 85.2168 22.5087 84.8439 22.3227 84.6574C22.3227 84.098 22.5087 83.5386 22.5087 82.9792C22.6948 79.8092 23.4388 77.0121 24.555 74.0286ZM13.2076 76.0798C13.0216 73.8421 13.2076 71.6045 13.5796 69.3668C13.7657 68.0616 14.1377 66.5698 14.6958 65.2645C14.6958 65.078 14.6958 64.8916 14.6958 64.8916C15.0678 64.1457 15.2539 63.3998 15.6259 62.6539C15.6259 62.4675 15.8119 62.281 15.8119 62.0945C17.1141 63.2133 18.6023 64.7051 19.3463 66.9427C19.9044 68.4345 19.9044 70.1127 19.9044 70.8586C19.9044 71.9774 19.7184 73.0962 19.5324 74.2151C18.9743 74.2151 18.4162 74.2151 17.8582 74.0286C17.4861 73.8421 17.1141 74.0286 16.9281 74.4015C16.742 74.7745 16.9281 75.1474 17.3001 75.3339C17.8582 75.1474 18.6023 75.1474 19.1603 75.1474C19.3464 75.1474 19.5324 75.1474 19.7184 75.1474C20.0904 75.8933 20.2765 76.8257 20.4625 77.5715C21.0206 79.8092 21.2066 82.2333 20.8345 84.6574C20.8345 84.8439 20.8345 85.0303 21.0206 85.2168C21.2066 85.4033 21.3926 85.7762 21.7646 85.9627C21.9507 86.1492 21.9507 86.3356 22.1367 86.3356C21.5786 86.1492 20.8345 85.9627 20.2765 85.7762C19.7184 84.4709 18.9743 83.1656 18.2302 81.8603C16.742 79.8092 15.0678 77.758 13.2076 76.0798ZM34.7862 91.9297C35.1583 89.6921 35.3443 87.4544 35.5303 85.4033V85.0303C35.7163 82.9792 35.9024 81.6739 36.2744 79.9956C36.6465 78.6903 37.0185 77.3851 37.3905 76.2662V76.0798C37.7626 75.7068 37.9486 75.1474 38.1346 74.7745C38.3207 74.4015 38.5067 74.0286 38.5067 73.6557C38.6927 73.6557 38.6927 73.8421 38.8787 74.0286C41.483 76.2662 39.9949 81.4874 39.6228 82.9792H39.4368C39.0647 82.7927 38.6927 82.9792 38.5067 83.3521C38.3207 83.725 38.5067 84.098 38.8787 84.2845C39.0647 84.4709 39.4368 84.4709 39.6228 84.4709C39.8088 85.4033 39.9949 86.3356 40.1809 87.268C40.3669 88.7597 40.3669 90.2515 40.1809 91.7433C39.9949 91.7433 39.6228 91.7433 39.4368 91.5568C39.0647 91.3703 38.6927 91.3703 38.5067 91.7433C38.3207 92.1162 38.3207 92.4891 38.6927 92.6756C39.0647 92.8621 39.6228 93.0485 39.9949 93.0485C40.1809 93.0485 40.1809 93.0485 40.3669 93.0485C40.739 93.7944 41.111 94.7268 41.297 95.4727C41.483 95.8456 41.483 96.0321 41.483 96.405C40.1809 95.6591 39.2508 95.0997 38.1346 94.3538C37.3905 93.4215 36.2744 92.6756 34.7862 91.9297Z" fill="#B4A3FD"></path> <path d="M139.517 21.6305C139.145 21.2576 138.773 21.0711 138.587 20.6982C137.842 20.1388 137.098 19.5794 136.168 19.0199C136.726 19.9523 137.284 20.6982 137.842 21.4441C138.215 21.817 138.401 22.1899 138.773 22.5629C138.215 22.5629 137.47 22.5629 136.912 22.7493C135.796 22.9358 134.68 22.9358 133.564 23.3088C134.68 23.4952 135.796 23.6817 136.912 23.8682C137.47 23.8682 138.215 23.8682 138.773 24.0546C138.401 24.4276 138.215 24.8005 137.842 25.1735C137.284 25.9193 136.726 26.6652 136.168 27.5976C137.098 27.0382 137.842 26.4787 138.587 25.9193C138.959 25.5464 139.331 25.3599 139.517 24.987C139.517 26.1058 139.517 27.2246 139.703 28.3435C139.889 30.0217 139.889 31.5134 140.261 33.1917C140.447 31.5134 140.633 30.0217 140.819 28.3435C140.819 27.2246 141.005 26.1058 141.005 24.987C141.377 25.3599 141.749 25.5464 141.935 25.9193C142.679 26.4787 143.423 27.0382 144.353 27.5976C143.795 26.6652 143.237 25.9193 142.679 25.1735C142.307 24.8005 142.121 24.4276 141.749 24.0546C142.307 24.0546 143.051 24.0546 143.609 23.8682C144.725 23.6817 145.841 23.6817 146.958 23.3088C145.841 23.1223 144.725 22.9358 143.609 22.7493C143.051 22.7493 142.307 22.7493 141.749 22.5629C142.121 22.1899 142.307 21.817 142.679 21.4441C143.237 20.6982 143.795 19.9523 144.353 19.0199C143.423 19.5794 142.679 20.1388 141.935 20.6982C141.563 21.0711 141.191 21.2576 141.005 21.6305C141.005 20.5117 141.005 19.3929 140.819 18.2741C140.633 16.5958 140.633 15.1041 140.261 13.4258C140.075 15.1041 139.889 16.5958 139.703 18.2741C139.517 19.3929 139.517 20.5117 139.517 21.6305Z" fill="#F1A17C"></path> <path d="M85.3484 92.4076L83.6742 95.9506L86.6506 93.34L89.4409 95.9506L87.7667 92.4076L91.3011 90.3565L87.3947 90.9159L86.6506 87L85.9065 90.9159L82 90.3565L85.3484 92.4076Z" fill="#F1A17C"></path> <path d="M141.395 53.17L142.511 51.1188L140.465 52.2376L139.906 50L139.162 52.2376L137.116 51.1188L138.418 53.17L136 53.7294L138.418 54.4753L137.116 56.5265L139.162 55.2212L139.906 57.6453L140.465 55.2212L142.511 56.5265L141.395 54.4753L143.627 53.7294L141.395 53.17Z" fill="#F1A17C"></path> <path d="M33.298 29.0893L30.8797 33.1917L34.9722 30.7676L36.0884 35.2429L37.2045 30.7676L41.297 33.1917L38.8787 29.0893L43.3433 27.9705L38.8787 26.6652L41.297 22.5629L37.2045 24.987L36.0884 20.5117L34.9722 24.987L30.8797 22.5629L33.298 26.6652L28.8335 27.784L33.298 29.0893ZM34.4142 26.2923L35.7163 27.0382L36.0884 25.5464L36.4604 27.0382L37.7626 26.2923L37.0185 27.5976L38.5067 27.9705L37.0185 28.3435L37.7626 29.6487L36.4604 28.9029L36.0884 30.3946L35.7163 28.9029L34.4142 29.6487L35.1583 28.3435L33.6701 27.9705L35.1583 27.5976L34.4142 26.2923Z" fill="#F1A17C"></path> <path d="M145.284 2.98351C146.003 2.98351 146.586 2.39911 146.586 1.67822C146.586 0.957325 146.003 0.372925 145.284 0.372925C144.564 0.372925 143.981 0.957325 143.981 1.67822C143.981 2.39911 144.564 2.98351 145.284 2.98351Z" fill="#F1A17C"></path> <path d="M31.2519 47.9228C31.971 47.9228 32.554 47.3384 32.554 46.6175C32.554 45.8967 31.971 45.3123 31.2519 45.3123C30.5327 45.3123 29.9497 45.8967 29.9497 46.6175C29.9497 47.3384 30.5327 47.9228 31.2519 47.9228Z" fill="#F1A17C"></path> <path d="M131.704 8.01822C131.704 7.64528 131.332 7.27234 130.96 7.27234C130.588 7.27234 130.216 7.64528 130.216 8.01822C130.216 8.39116 130.588 8.7641 130.96 8.7641C131.332 8.7641 131.704 8.39116 131.704 8.01822Z" fill="#F1A17C"></path> <path d="M40.9248 10.4423C40.9248 10.8152 41.2968 11.1882 41.6689 11.1882C42.0409 11.1882 42.413 10.8152 42.413 10.4423C42.413 10.0694 42.0409 9.69641 41.6689 9.69641C41.2968 9.69641 40.9248 10.0694 40.9248 10.4423Z" fill="#F1A17C"></path> <path d="M168.536 40.6505L167.42 42.8881L169.467 41.5828L170.025 44.0069L170.583 41.5828L172.815 42.8881L171.513 40.6505L173.931 40.091L171.513 39.5316L172.815 37.294L170.583 38.5993L170.025 36.1752L169.467 38.5993L167.42 37.294L168.536 39.5316L166.118 40.091L168.536 40.6505Z" fill="#F1A17C"></path> <path d="M39.4183 58.4753L38.3022 60.7129L40.3484 59.4076L40.9065 61.8317L41.4645 59.4076L43.6968 60.7129L42.3946 58.4753L44.8129 57.9159L42.3946 57.3565L43.6968 55.1188L41.4645 56.4241L40.9065 54L40.3484 56.4241L38.3022 55.1188L39.4183 57.3565L37 57.9159L39.4183 58.4753Z" fill="#F1A17C"></path> <path d="M7.99891 19.02L10.9753 16.2229L13.7656 19.02L12.0914 15.477L15.6258 13.4259L11.7194 13.9853L10.9753 10.0694L10.2312 13.9853L6.32471 13.4259L9.67311 15.477L7.99891 19.02Z" fill="#F1A17C"></path> <path d="M102.674 19.9506L105.651 17.1535L108.441 19.9506L106.767 16.4076L110.301 14.3565L106.395 14.9159L105.651 11L104.906 14.9159L101 14.3565L104.348 16.4076L102.674 19.9506Z" fill="#F1A17C"></path> <path d="M160.91 16.4094C161.654 16.4094 162.026 15.85 162.026 15.2906C162.026 14.5447 161.468 14.1718 160.91 14.1718C160.165 14.1718 159.793 14.7312 159.793 15.2906C159.793 15.85 160.352 16.4094 160.91 16.4094Z" fill="#F1A17C"></path> <path d="M149.562 43.0746C149.562 43.8205 150.12 44.1934 150.678 44.1934C151.422 44.1934 151.794 43.634 151.794 43.0746C151.794 42.3287 151.236 41.9558 150.678 41.9558C150.12 41.7693 149.562 42.3287 149.562 43.0746Z" fill="#F1A17C"></path> <path d="M27.1591 2.23764C27.9032 2.23764 28.2752 1.67823 28.2752 1.11882C28.2752 0.372937 27.7172 0 27.1591 0C26.415 0 26.043 0.559407 26.043 1.11882C26.043 1.8647 26.415 2.23764 27.1591 2.23764Z" fill="#F1A17C"></path> <path d="M7.25481 33.1917C7.9989 33.1917 8.37094 32.6323 8.37094 32.0729C8.37094 31.327 7.81288 30.954 7.25481 30.954C6.51072 30.954 6.13867 31.5135 6.13867 32.0729C6.13867 32.8187 6.69674 33.1917 7.25481 33.1917Z" fill="#F1A17C"></path> <path d="M130.116 75C129.372 75 129 75.5594 129 76.1188C129 76.8647 129.558 77.2376 130.116 77.2376C130.86 77.2376 131.232 76.6782 131.232 76.1188C131.232 75.5594 130.674 75 130.116 75Z" fill="#F1A17C"></path> <path d="M59.3855 42.5282L53.8187 45.8438V47.8495L59.3855 44.534V72H61.1047V42.5282H59.3855ZM75.8048 72.614C73.226 72.614 70.8519 71.5088 69.2555 69.7487C67.741 68.1523 66.8405 66.0238 66.8405 63.6497V50.8376C66.8405 48.4226 67.8229 46.2122 69.3783 44.6158C71.0156 42.9376 73.3079 41.9142 75.8048 41.9142C78.3017 41.9142 80.553 42.9376 82.1903 44.6158C83.7867 46.2122 84.7691 48.4226 84.7691 50.8376V63.6497C84.7691 65.9828 83.8686 68.1114 82.395 69.7078C80.7577 71.5088 78.3836 72.614 75.8048 72.614ZM75.8048 43.6334C73.3488 43.6334 71.1794 44.8614 69.8695 46.7443C69.0509 47.8905 68.5597 49.3231 68.5597 50.8376V63.6497C68.5597 65.1233 69.0099 66.515 69.7876 67.6611C71.0975 69.6259 73.3079 70.8948 75.8048 70.8948C78.3017 70.8948 80.5121 69.6259 81.822 67.6611C82.5997 66.515 83.0499 65.1233 83.0499 63.6497V50.8376C83.0499 49.2822 82.5587 47.8495 81.7401 46.7034C80.3893 44.8614 78.2198 43.6334 75.8048 43.6334ZM97.026 72.614C94.4472 72.614 92.0731 71.5088 90.4767 69.7487C88.9622 68.1523 88.0617 66.0238 88.0617 63.6497V50.8376C88.0617 48.4226 89.0441 46.2122 90.5995 44.6158C92.2368 42.9376 94.5291 41.9142 97.026 41.9142C99.5229 41.9142 101.774 42.9376 103.412 44.6158C105.008 46.2122 105.99 48.4226 105.99 50.8376V63.6497C105.99 65.9828 105.09 68.1114 103.616 69.7078C101.979 71.5088 99.6048 72.614 97.026 72.614ZM97.026 43.6334C94.57 43.6334 92.4006 44.8614 91.0907 46.7443C90.2721 47.8905 89.7809 49.3231 89.7809 50.8376V63.6497C89.7809 65.1233 90.2311 66.515 91.0089 67.6611C92.3187 69.6259 94.5291 70.8948 97.026 70.8948C99.5229 70.8948 101.733 69.6259 103.043 67.6611C103.821 66.515 104.271 65.1233 104.271 63.6497V50.8376C104.271 49.2822 103.78 47.8495 102.961 46.7034C101.611 44.8614 99.4411 43.6334 97.026 43.6334ZM112.271 60.8253H117.797L125.165 72H127.212L119.271 59.9657L126.147 49.8962H124.06L117.797 59.1061H112.271V42.5282H110.511L110.552 72H112.271V60.8253Z" fill="#F1A17C"></path> </svg> 