<?xml version="1.0" encoding="UTF-8"?> <svg xmlns="http://www.w3.org/2000/svg" width="1279" height="326" viewBox="0 0 1279 326" fill="none"> <path d="M1135.25 1C1263.41 68.8889 1289.58 158.157 1273.44 176.961C1260.2 192.396 1235.38 205.96 1194.71 205.96C1152.94 205.96 1085.29 203.006 1032.38 187.499C994.747 176.471 861.247 125.664 845.022 68.8889C835.399 35.2157 965.055 35.0983 1166.48 163C1194.25 180.635 1226.96 217.631 1216.11 248.311C1202.88 285.721 1124.63 281.192 1091.3 279.686C1069 278.679 1046.63 278.29 1024.45 275.788C911.664 263.067 808.303 240.113 695.894 163C571.379 77.5823 642.043 50.7793 738.797 87.1833C835.552 123.587 844.168 124.451 942.02 176.961C968.266 191.045 1008.34 217.8 1021.75 249.385C1024.05 254.801 1050.31 309.99 972.886 318.988C927.804 324.228 828.721 318.988 782.444 302.674C736.167 286.361 720.264 271.055 720.264 255.079C720.264 235.008 751.367 237.623 765.428 243.759C796.772 257.438 816.501 318.149 768.511 324.228C758.684 325.473 748.694 324.933 738.797 324.528C717.371 323.652 594.486 289.917 508 279.686C300 255.079 239 324.228 0.999878 324.228" stroke="#B4A3FD" stroke-linecap="round"></path> </svg> 