<?xml version="1.0" encoding="UTF-8"?> <svg xmlns="http://www.w3.org/2000/svg" width="119" height="126" viewBox="0 0 119 126" fill="none"> <g clip-path="url(#clip0_1504_1009)"> <path d="M59.5 125.1C59.3 125.1 59.1 125 59.1 124.8L54.7 77.2L23.2 113.2C23.1 113.3 22.9 113.4 22.7 113.3C22.5 113.2 22.5 113 22.6 112.8L47.1 71.7L0.5 82.1C0.3 82.1 0.1 82 0.1 81.9C0 81.7 0.1 81.5 0.3 81.4L44.3 62.5L0.3 43.6C0 43.6 0 43.4 0 43.2C0.1 43 0.3 42.9 0.5 43L47.2 53.6L22.6 12.4C22.5 12.2 22.5 12 22.7 11.9C22.9 11.8 23.1 11.8 23.2 12L54.7 48L59.1 0.399976C59.1 0.199976 59.3 0.0999756 59.5 0.0999756C59.7 0.0999756 59.9 0.199976 59.9 0.399976L64.2 48L95.7 12C95.8 11.9 96 11.8 96.2 11.9C96.4 12 96.4 12.2 96.3 12.4L71.9 53.5L118.5 43C118.7 43 118.9 43.1 118.9 43.2C119 43.4 118.9 43.6 118.7 43.7L74.7 62.6L118.7 81.5C118.9 81.6 119 81.8 118.9 82C118.8 82.2 118.7 82.3 118.5 82.2L71.9 71.5L96.4 112.6C96.5 112.8 96.5 113 96.3 113.1C96.1 113.2 95.9 113.2 95.8 113L64.3 77L59.9 124.6C59.8 124.9 59.7 125.1 59.5 125.1ZM55.1 75.8H55.2C55.3 75.8 55.4 76 55.5 76.1L59.6 120.5L63.7 76.1C63.7 76 63.8 75.8 64 75.8C64.1 75.8 64.3 75.8 64.4 75.9L93.8 109.5L70.8 71.2C70.7 71.1 70.7 70.9 70.8 70.8C70.9 70.7 71 70.6 71.2 70.7L114.7 80.6L73.7 63C73.6 62.9 73.5 62.8 73.5 62.7C73.5 62.5 73.6 62.4 73.7 62.4L114.7 44.8L71.2 54.7C71.1 54.7 70.9 54.7 70.8 54.6C70.7 54.5 70.7 54.3 70.8 54.2L93.6 15.9L64.2 49.1C64.1 49.2 63.9 49.3 63.8 49.2C63.7 49.2 63.6 49 63.5 48.9L59.5 4.49998L55.4 48.9C55.4 49 55.3 49.2 55.1 49.2C55 49.2 54.8 49.2 54.7 49.1L25.4 15.6L48.2 53.9C48.3 54 48.3 54.2 48.2 54.3C48.1 54.4 48 54.5 47.8 54.4L4.3 44.6L45.3 62.2C45.4 62.3 45.5 62.4 45.5 62.5C45.5 62.7 45.4 62.8 45.3 62.8L4.3 80.4L47.8 70.5C47.9 70.5 48.1 70.5 48.2 70.6C48.3 70.7 48.3 70.9 48.2 71L25.4 109.3L54.8 75.7C54.8 75.8 55 75.8 55.1 75.8Z" fill="#100721"></path> <path d="M61.9 68.6C57.2 68.6 53.4 64.8 53.4 60.1C53.4 57.2 54.9 54.6 57.2 53.1C52.9 54.1 49.7 58 49.7 62.6C49.7 68 54.1 72.4 59.5 72.4C64.1 72.4 68 69.2 69 64.9C67.4 67.1 64.8 68.6 61.9 68.6Z" fill="white"></path> <path d="M46.9998 24.4C46.7998 24.4 46.6998 24.3 46.5998 24.1L45.3998 20.5C45.2998 20.3 45.3998 20.1 45.5998 20C45.7998 19.9 45.9998 20 46.0998 20.2L47.2998 23.8C47.3998 24 47.2998 24.2 47.0998 24.3C47.0998 24.4 46.9998 24.4 46.9998 24.4Z" fill="#100721"></path> <path d="M26.7999 39.1C26.6999 39.1 26.5999 39.1 26.5999 39L23.4999 36.8C23.2999 36.7 23.2999 36.4 23.3999 36.3C23.4999 36.1 23.7999 36.1 23.8999 36.2L26.9999 38.4C27.1999 38.5 27.1999 38.8 27.0999 38.9C26.9999 39.1 26.8999 39.1 26.7999 39.1Z" fill="#100721"></path> <path d="M18.9998 62.9H15.1998C14.9998 62.9 14.7998 62.7 14.7998 62.5C14.7998 62.3 14.9998 62.1 15.1998 62.1H18.9998C19.1998 62.1 19.3998 62.3 19.3998 62.5C19.3998 62.7 19.2998 62.9 18.9998 62.9Z" fill="#100721"></path> <path d="M23.6999 88.9C23.5999 88.9 23.4999 88.8 23.3999 88.7C23.2999 88.5 23.2999 88.3 23.4999 88.2L26.5999 86C26.7999 85.9 26.9999 85.9 27.0999 86.1C27.1999 86.3 27.1999 86.5 26.9999 86.6L23.8999 88.8C23.7999 88.9 23.7999 88.9 23.6999 88.9Z" fill="#100721"></path> <path d="M45.7999 105H45.6999C45.4999 104.9 45.3999 104.7 45.4999 104.5L46.6999 100.9C46.7999 100.7 46.9999 100.6 47.1999 100.7C47.3999 100.8 47.4999 101 47.3999 101.2L46.1999 104.8C46.0999 104.9 45.9999 105 45.7999 105Z" fill="#100721"></path> <path d="M71.9999 24.4H71.8999C71.6999 24.3 71.5999 24.1 71.6999 23.9L72.8999 20.3C72.9999 20.1 73.1999 20 73.3999 20.1C73.5999 20.2 73.6999 20.4 73.5999 20.6L72.3999 24.2C72.2999 24.3 72.0999 24.4 71.9999 24.4Z" fill="#100721"></path> <path d="M92.1999 39.1C92.0999 39.1 91.9999 39 91.8999 38.9C91.7999 38.7 91.7999 38.5 91.9999 38.4L95.0999 36.2C95.2999 36.1 95.4999 36.1 95.5999 36.3C95.6999 36.5 95.6999 36.7 95.4999 36.8L92.3999 39C92.3999 39.1 92.2999 39.1 92.1999 39.1Z" fill="#100721"></path> <path d="M103.7 62.9H99.9C99.7 62.9 99.5 62.7 99.5 62.5C99.5 62.3 99.7 62.1 99.9 62.1H103.7C103.9 62.1 104.1 62.3 104.1 62.5C104.1 62.7 103.9 62.9 103.7 62.9Z" fill="#100721"></path> <path d="M95.2999 88.9C95.1999 88.9 95.0999 88.9 95.0999 88.8L91.9999 86.6C91.7999 86.5 91.7999 86.2 91.8999 86.1C91.9999 85.9 92.2999 85.9 92.3999 86L95.4999 88.2C95.6999 88.3 95.6999 88.6 95.5999 88.7C95.4999 88.9 95.3999 88.9 95.2999 88.9Z" fill="#100721"></path> <path d="M73.2 105C73 105 72.9 104.9 72.8 104.7L71.6 101.1C71.5 100.9 71.6 100.7 71.8 100.6C72 100.5 72.2 100.6 72.3 100.8L73.5 104.4C73.6 104.6 73.5 104.8 73.3 104.9C73.2 105 73.2 105 73.2 105Z" fill="#100721"></path> <path d="M59.4999 47.9C59.2999 47.9 59.0999 47.7 59.0999 47.5V0.4C59.0999 0.2 59.2999 0 59.4999 0C59.6999 0 59.8999 0.2 59.8999 0.4V47.5C59.8999 47.7 59.6999 47.9 59.4999 47.9Z" fill="#100721"></path> <path d="M50.7 50.8C50.6 50.8 50.5 50.7 50.4 50.6L22.7 12.5C22.6 12.3 22.6 12.1 22.8 12C23 11.9 23.2 11.9 23.3 12.1L51 50.2C51.1 50.4 51.1 50.6 50.9 50.7C50.8 50.7 50.7 50.8 50.7 50.8Z" fill="#100721"></path> <path d="M45.2 58.3H45.1L0.3 43.7C0.1 43.6 0 43.4 0 43.2C0 43 0.3 42.9 0.5 43L45.3 57.6C45.5 57.7 45.6 57.9 45.5 58.1C45.5 58.2 45.4 58.3 45.2 58.3Z" fill="#100721"></path> <path d="M0.399924 82.1C0.199924 82.1 0.0999238 82 -7.61561e-05 81.8C-0.100076 81.6 -7.61598e-05 81.4 0.199924 81.3L44.9999 66.7C45.1999 66.6 45.3999 66.7 45.4999 66.9C45.5999 67.1 45.4999 67.3 45.2999 67.4L0.499924 82.1H0.399924Z" fill="#100721"></path> <path d="M23 113.2C22.9 113.2 22.8 113.2 22.8 113.1C22.6 113 22.6 112.7 22.7 112.6L50.4 74.5C50.5 74.3 50.8 74.3 50.9 74.4C51.1 74.5 51.1 74.8 51 74.9L23.3 113C23.2 113.1 23.1 113.2 23 113.2Z" fill="#100721"></path> <path d="M59.4999 125.1C59.2999 125.1 59.0999 124.9 59.0999 124.7V77.5C59.0999 77.3 59.2999 77.1 59.4999 77.1C59.6999 77.1 59.8999 77.3 59.8999 77.5V124.6C59.8999 124.9 59.6999 125.1 59.4999 125.1Z" fill="#100721"></path> <path d="M96 113.2C95.9 113.2 95.8 113.1 95.7 113L68 74.9C67.9 74.7 67.9 74.5 68.1 74.4C68.3 74.3 68.5 74.3 68.6 74.5L96.3 112.6C96.4 112.8 96.4 113 96.2 113.1C96.2 113.2 96.1 113.2 96 113.2Z" fill="#100721"></path> <path d="M118.6 82.1H118.5L73.6999 67.5C73.4999 67.4 73.3999 67.2 73.4999 67C73.5999 66.8 73.7999 66.7 73.9999 66.8L118.8 81.4C119 81.5 119.1 81.7 119 81.9C118.9 82 118.8 82.1 118.6 82.1Z" fill="#100721"></path> <path d="M73.7998 58.3C73.5998 58.3 73.4998 58.2 73.3998 58C73.2998 57.8 73.3998 57.6 73.5998 57.5L118.5 43C118.7 42.9 118.9 43 119 43.2C119.1 43.4 119 43.6 118.8 43.7L73.8998 58.2C73.7998 58.3 73.7998 58.3 73.7998 58.3Z" fill="#100721"></path> <path d="M68.3 50.8C68.2 50.8 68.1 50.8 68.1 50.7C67.9 50.6 67.9 50.3 68 50.2L95.7 12C95.8 11.8 96.1 11.8 96.2 11.9C96.4 12 96.4 12.3 96.3 12.4L68.6 50.6C68.5 50.7 68.4 50.8 68.3 50.8Z" fill="#100721"></path> </g> <defs> <clipPath id="clip0_1504_1009"> <rect width="119" height="125.1" fill="white"></rect> </clipPath> </defs> </svg> 