<?xml version="1.0" encoding="UTF-8"?> <svg xmlns="http://www.w3.org/2000/svg" width="396" height="66" viewBox="0 0 396 66" fill="none"> <path d="M10.758 56H2.31L14.454 7.82H25.08L37.29 56H28.842L26.202 44.318H13.398L10.758 56ZM14.916 37.586H24.684L21.78 24.65C20.68 19.678 20.02 16.466 19.8 15.014C19.58 16.51 18.92 19.7 17.82 24.584L14.916 37.586ZM59.6382 56.66C54.9742 56.66 51.2562 55.384 48.4842 52.832C45.7122 50.236 44.3262 46.76 44.3262 42.404V21.416C44.3262 17.06 45.7122 13.606 48.4842 11.054C51.2562 8.458 54.9742 7.16 59.6382 7.16C62.6742 7.16 65.3362 7.754 67.6242 8.942C69.9562 10.086 71.7602 11.736 73.0362 13.892C74.3122 16.048 74.9502 18.556 74.9502 21.416H66.6342C66.6342 19.172 66.0182 17.434 64.7862 16.202C63.5982 14.97 61.8822 14.354 59.6382 14.354C57.3942 14.354 55.6562 14.97 54.4242 16.202C53.1922 17.39 52.5762 19.106 52.5762 21.35V42.404C52.5762 44.648 53.1922 46.386 54.4242 47.618C55.6562 48.85 57.3942 49.466 59.6382 49.466C61.8382 49.466 63.5542 48.85 64.7862 47.618C66.0182 46.386 66.6342 44.648 66.6342 42.404H74.9502C74.9502 45.264 74.3122 47.772 73.0362 49.928C71.7602 52.084 69.9562 53.756 67.6242 54.944C65.3362 56.088 62.6742 56.66 59.6382 56.66ZM103.106 56H94.7904V15.476H82.1844V7.82H115.712V15.476H103.106V56ZM123.805 56V7.82H139.843C143.011 7.82 145.805 8.436 148.225 9.668C150.645 10.9 152.515 12.638 153.835 14.882C155.155 17.126 155.815 19.722 155.815 22.67C155.815 25.618 155.155 28.214 153.835 30.458C152.515 32.702 150.645 34.44 148.225 35.672C145.805 36.904 143.011 37.52 139.843 37.52H132.055V56H123.805ZM139.843 30.128C142.131 30.128 143.957 29.446 145.321 28.082C146.729 26.718 147.433 24.914 147.433 22.67C147.433 20.382 146.751 18.578 145.387 17.258C144.023 15.894 142.175 15.212 139.843 15.212H132.055V30.128H139.843ZM178.097 56.66C173.477 56.66 169.803 55.384 167.075 52.832C164.391 50.236 163.049 46.76 163.049 42.404V21.416C163.049 17.06 164.391 13.606 167.075 11.054C169.803 8.458 173.477 7.16 178.097 7.16C182.717 7.16 186.369 8.458 189.053 11.054C191.781 13.606 193.145 17.038 193.145 21.35V42.404C193.145 46.76 191.781 50.236 189.053 52.832C186.369 55.384 182.717 56.66 178.097 56.66ZM178.097 49.466C180.341 49.466 182.035 48.872 183.179 47.684C184.323 46.452 184.895 44.692 184.895 42.404V21.416C184.895 19.128 184.323 17.39 183.179 16.202C182.035 14.97 180.341 14.354 178.097 14.354C175.853 14.354 174.159 14.97 173.015 16.202C171.871 17.39 171.299 19.128 171.299 21.416V42.404C171.299 44.692 171.871 46.452 173.015 47.684C174.203 48.872 175.897 49.466 178.097 49.466ZM198.993 56.33V48.806H200.643C203.723 48.806 205.285 45.924 205.329 40.16L205.725 7.82H232.323V56H224.073V15.476H213.843L213.513 40.16C213.469 45.396 212.369 49.4 210.213 52.172C208.101 54.944 205.087 56.33 201.171 56.33H198.993ZM257.245 56.66C252.625 56.66 248.951 55.384 246.223 52.832C243.539 50.236 242.197 46.76 242.197 42.404V21.416C242.197 17.06 243.539 13.606 246.223 11.054C248.951 8.458 252.625 7.16 257.245 7.16C261.865 7.16 265.517 8.458 268.201 11.054C270.929 13.606 272.293 17.038 272.293 21.35V42.404C272.293 46.76 270.929 50.236 268.201 52.832C265.517 55.384 261.865 56.66 257.245 56.66ZM257.245 49.466C259.489 49.466 261.183 48.872 262.327 47.684C263.471 46.452 264.043 44.692 264.043 42.404V21.416C264.043 19.128 263.471 17.39 262.327 16.202C261.183 14.97 259.489 14.354 257.245 14.354C255.001 14.354 253.307 14.97 252.163 16.202C251.019 17.39 250.447 19.128 250.447 21.416V42.404C250.447 44.692 251.019 46.452 252.163 47.684C253.351 48.872 255.045 49.466 257.245 49.466ZM291.936 56H283.686V7.82H312.528V15.476H291.936V56ZM321.346 56V7.82H328.87V31.382C328.87 35.43 328.606 40.556 328.078 46.76L341.344 7.82H351.442V56H343.918V33.164C343.918 29.116 344.226 23.748 344.842 17.06L331.444 56H321.346ZM368.444 35.672C365.716 34.66 363.56 32.966 361.976 30.59C360.436 28.17 359.666 25.354 359.666 22.142C359.666 19.282 360.304 16.774 361.58 14.618C362.9 12.462 364.748 10.79 367.124 9.602C369.5 8.414 372.272 7.82 375.44 7.82H390.62V56H382.37V36.86H376.496L368.18 56H359.138L368.444 35.672ZM382.37 29.666V15.014H375.44C373.152 15.014 371.326 15.674 369.962 16.994C368.642 18.314 367.982 20.118 367.982 22.406C367.982 24.65 368.642 26.432 369.962 27.752C371.326 29.028 373.152 29.666 375.44 29.666H382.37Z" fill="white"></path> <path d="M178 25L179.287 30.7131L185 32L179.287 33.2869L178 39L176.713 33.2869L171 32L176.713 30.7131L178 25Z" fill="#100721"></path> <path d="M257 25L258.287 30.7131L264 32L258.287 33.2869L257 39L255.713 33.2869L250 32L255.713 30.7131L257 25Z" fill="#100721"></path> <path fill-rule="evenodd" clip-rule="evenodd" d="M246.568 11.4161L246.568 11.4163C244.001 13.8572 242.697 17.1707 242.697 21.4159H241.697C241.697 16.9492 243.078 13.3547 245.879 10.6917C248.72 7.98813 252.528 6.65991 257.245 6.65991V7.65991C252.723 7.65991 249.183 8.92769 246.568 11.4161ZM263.054 48.371L263.048 48.3776C261.655 49.8238 259.66 50.4659 257.245 50.4659C254.865 50.4659 252.884 49.8193 251.456 48.391L251.443 48.3779L251.43 48.3644C250.061 46.8893 249.447 44.8519 249.447 42.4039V21.4159C249.447 18.9744 250.058 16.9509 251.437 15.5148C252.827 14.022 254.824 13.3539 257.245 13.3539C259.666 13.3539 261.664 14.022 263.054 15.5148C264.433 16.9509 265.043 18.9744 265.043 21.4159V42.4039C265.043 44.8519 264.43 46.8893 263.06 48.3644L263.054 48.371ZM262.327 16.2019C261.183 14.9699 259.489 14.3539 257.245 14.3539C255.001 14.3539 253.307 14.9699 252.163 16.2019C251.019 17.3899 250.447 19.1279 250.447 21.4159V42.4039C250.447 44.6919 251.019 46.4519 252.163 47.6839C253.351 48.8719 255.045 49.4659 257.245 49.4659C259.489 49.4659 261.183 48.8719 262.327 47.6839C263.471 46.4519 264.043 44.6919 264.043 42.4039V21.4159C264.043 19.1279 263.471 17.3899 262.327 16.2019Z" fill="#100721"></path> <path fill-rule="evenodd" clip-rule="evenodd" d="M189.398 53.1942L189.397 53.1944C186.599 55.8553 182.812 57.16 178.097 57.16V56.16C182.622 56.16 186.139 54.9128 188.708 52.4698C191.321 49.9832 192.645 46.6465 192.645 42.404H193.645C193.645 46.8735 192.24 50.4888 189.398 53.1942ZM183.905 48.3711L183.899 48.3776C182.506 49.8239 180.511 50.466 178.097 50.466C175.717 50.466 173.736 49.8194 172.308 48.3911L172.295 48.378L172.282 48.3645C170.912 46.8894 170.299 44.852 170.299 42.404V21.416C170.299 18.9745 170.909 16.951 172.288 15.5149C173.679 14.0221 175.676 13.354 178.097 13.354C180.518 13.354 182.515 14.0221 183.905 15.5149C185.284 16.951 185.895 18.9745 185.895 21.416V42.404C185.895 44.852 185.281 46.8894 183.912 48.3645L183.905 48.3711ZM183.179 16.202C182.035 14.97 180.341 14.354 178.097 14.354C175.853 14.354 174.159 14.97 173.015 16.202C171.871 17.39 171.299 19.128 171.299 21.416V42.404C171.299 44.692 171.871 46.452 173.015 47.684C174.203 48.872 175.897 49.466 178.097 49.466C180.341 49.466 182.035 48.872 183.179 47.684C184.323 46.452 184.895 44.692 184.895 42.404V21.416C184.895 19.128 184.323 17.39 183.179 16.202Z" fill="#100721"></path> </svg> 