<?xml version="1.0" encoding="UTF-8"?> <svg xmlns="http://www.w3.org/2000/svg" width="111" height="119" viewBox="0 0 111 119" fill="none"> <g clip-path="url(#clip0_1504_1054)"> <path d="M97.1001 85.7C97.2001 85.8 97.3001 85.8001 97.4001 85.9001C97.5001 86.0001 97.6001 86 97.8001 86.1C102 78.6 104.4 70.2 104.7 61.3C104.4 61.4 104.2 61.5 103.9 61.6C103.6 70.2 101.2 78.5 97.1001 85.7Z" fill="#100721"></path> <path d="M97.8 33.2C97.6 33.4 97.4 33.5999 97.3 33.7999C101.2 40.7999 103.4 48.6 103.9 56.7C104.1 56.6 104.4 56.6 104.6 56.5C104.1 48.1 101.8 40.2 97.8 33.2Z" fill="#100721"></path> <path d="M75.3999 106.8C75.5999 107 75.7999 107.1 76.0999 107.3C84.1999 103 90.8999 96.7 95.7999 89.3C95.5999 89.1 95.3999 89 95.1999 88.9C90.2999 96.3 83.5999 102.5 75.3999 106.8Z" fill="#100721"></path> <path d="M77.1999 12.5C70.0999 8.49995 62.1999 6.19995 53.8999 5.69995C53.8999 5.79995 53.8999 5.79995 53.8999 5.89995C53.8999 6.09995 53.8999 6.29995 53.9999 6.39995C62.1999 6.89995 69.8999 9.19995 76.8999 13.2C76.9999 13.1 76.9999 13 77.0999 12.9C77.0999 12.8 77.1999 12.7 77.1999 12.5Z" fill="#100721"></path> <path d="M49.5 5.59998C39.3 5.79998 29.5 8.79997 21 14.4C21.2 14.6 21.3 14.8 21.5 15C29.9 9.49998 39.5 6.59998 49.5 6.39998C49.6 6.09998 49.6 5.89998 49.5 5.59998Z" fill="#100721"></path> <path d="M89.7 22.3C86.8 19.2 83.5 16.5 80 14.3C80 14.4 79.9 14.4 79.9 14.5C79.8 14.7 79.8 14.9 79.7 15.1C83.1 17.3 86.2 19.9 89.1 22.9C91 24.9 92.7 27 94.2 29.2C94.4 29 94.5 28.8 94.7 28.6C93.3 26.3 91.6 24.3 89.7 22.3Z" fill="#100721"></path> <path d="M51.9001 5.60002C52.3001 5.60002 52.7001 5.60002 53.1001 5.60002C53.1001 5.00002 53.3001 4.50002 53.6001 3.90002C52.3001 4.70002 51.0001 4.70002 49.6001 4.00002C49.9001 4.50002 50.1001 5.00002 50.2001 5.50002C50.8001 5.60002 51.4001 5.60002 51.9001 5.60002Z" fill="#100721"></path> <path d="M50.3 6.30005C50.3 6.80005 50.1 7.40005 49.8 8.00005C51.1 7.20005 52.4 7.20005 53.8 7.90005C53.5 7.40005 53.3 6.90005 53.2 6.40005C52.8 6.40005 52.3 6.40005 51.9 6.40005C51.4 6.30005 50.8 6.30005 50.3 6.30005Z" fill="#100721"></path> <path d="M50.3 6.3C50.8 6.3 51.4 6.3 51.9 6.3C52.3 6.3 52.8 6.3 53.2 6.3C53.2 6.1 53.2 6 53.2 5.8C53.2 5.7 53.2 5.6 53.2 5.5C52.8 5.5 52.4 5.5 52 5.5C51.4 5.5 50.9 5.5 50.4 5.5C50.3 5.8 50.3 6.1 50.3 6.3Z" fill="#100721"></path> <path d="M56.3001 10.2C52.7001 6.80005 50.8001 6.90005 47.5001 10.5C49.0001 8.80005 49.9001 7.60005 49.9001 6.30005C49.8001 6.30005 49.7001 6.30005 49.5001 6.30005C49.4001 7.40005 48.6001 8.60005 47.2001 10.2C47.1001 10.3 47.1001 10.4 47.1001 10.5C47.1001 10.6 47.1001 10.7 47.2001 10.8C47.3001 10.9 47.4001 10.9 47.5001 10.9C47.6001 10.9 47.7001 10.9 47.8001 10.8C51.0001 7.30005 52.6001 7.30005 56.0001 10.5C56.2001 10.6 56.4001 10.6 56.5001 10.5C56.6001 10.4 56.6001 10.3 56.6001 10.2C56.6001 10.1 56.6001 10 56.5001 9.90005C55.0001 8.50005 54.2001 7.40005 54.0001 6.40005C53.9001 6.40005 53.7001 6.40005 53.6001 6.40005C53.8001 7.60005 54.7001 8.80005 56.3001 10.2Z" fill="#100721"></path> <path d="M47.1999 1.70005C50.7999 5.10005 52.5999 5.00005 55.9999 1.40005C54.3999 3.10005 53.5999 4.40005 53.4999 5.60005C53.5999 5.60005 53.6999 5.60005 53.8999 5.60005C53.9999 4.50005 54.6999 3.30005 56.2999 1.60005C56.3999 1.50005 56.3999 1.40005 56.3999 1.30005C56.3999 1.20005 56.3999 1.10005 56.2999 1.00005C56.0999 0.900049 55.8999 0.900049 55.7999 1.00005C52.5999 4.40005 50.9999 4.50005 47.4999 1.30005C47.2999 1.20005 47.0999 1.20005 46.9999 1.30005C46.8999 1.40005 46.8999 1.50005 46.8999 1.60005C46.8999 1.70005 46.8999 1.80005 46.9999 1.90005C48.4999 3.30005 49.3999 4.40005 49.5999 5.50005C49.6999 5.50005 49.8999 5.50005 49.9999 5.50005C49.6999 4.40005 48.7999 3.20005 47.1999 1.70005Z" fill="#100721"></path> <path d="M53.9 5.69995C53.8 5.69995 53.7 5.69995 53.5 5.69995C53.5 5.99995 53.5 6.19995 53.6 6.49995C53.7 6.49995 53.9 6.49995 54 6.49995C54 6.29995 53.9 6.09995 53.9 5.99995C53.9 5.79995 53.9 5.79995 53.9 5.69995Z" fill="#100721"></path> <path d="M49.9 5.59998C49.8 5.59998 49.6 5.59998 49.5 5.59998C49.5 5.79998 49.6 6.09998 49.5 6.29998C49.6 6.29998 49.7 6.29998 49.9 6.29998C49.9 6.09998 49.9 5.79998 49.9 5.59998Z" fill="#100721"></path> <path d="M53.8 7.90005C52.4 7.20005 51.2 7.20005 49.8 8.00005C50.1 7.40005 50.3 6.90005 50.3 6.30005C50.2 6.30005 50 6.30005 49.9 6.30005C49.8 7.50005 49 8.80005 47.5 10.5C50.9 6.90005 52.7 6.90005 56.3 10.2C54.7 8.70005 53.8 7.60005 53.6 6.40005C53.5 6.40005 53.3 6.40005 53.2 6.40005C53.3 6.90005 53.5 7.40005 53.8 7.90005Z" fill="#100721"></path> <path d="M47.2 1.7C48.8 3.2 49.7 4.4 49.9 5.6C50 5.6 50.2 5.6 50.3 5.6C50.2 5.1 49.9999 4.6 49.6999 4.1C51.0999 4.8 52.2999 4.8 53.6999 4C53.3999 4.6 53.1999 5.2 53.1999 5.7C53.2999 5.7 53.3999 5.7 53.5999 5.7C53.6999 4.4 54.4999 3.1 56.0999 1.5C52.5999 5 50.8 5.1 47.2 1.7Z" fill="#100721"></path> <path d="M53.2001 5.89998C53.2001 6.09998 53.2001 6.19998 53.2001 6.39998C53.3001 6.39998 53.5001 6.39998 53.6001 6.39998C53.6001 6.09998 53.5001 5.89998 53.5001 5.59998C53.4001 5.59998 53.3001 5.59998 53.1001 5.59998C53.2001 5.69998 53.2001 5.79998 53.2001 5.89998Z" fill="#100721"></path> <path d="M50.2999 5.59998C50.1999 5.59998 49.9999 5.59998 49.8999 5.59998C49.8999 5.79998 49.9999 6.09998 49.8999 6.29998C49.9999 6.29998 50.1999 6.29998 50.2999 6.29998C50.2999 6.09998 50.2999 5.79998 50.2999 5.59998Z" fill="#100721"></path> <path d="M100 31.3C98.9 31 98 30.5 97.4 29.8C96.8 29.1 96.4 28.3 96.2 27.1C96 27.9 95.7 28.5 95.3 29C96.1 30.1 96.8 31.2 97.4 32.4C98.1 31.9 98.9 31.5 100 31.3Z" fill="#100721"></path> <path d="M94.7 29.7C94 30.3 93.2 30.7 92 30.9C94.2 31.5 95.4 32.7999 95.8 35.0999C96 34.2999 96.4 33.6 96.8 33C96.2 31.9 95.5 30.8 94.7 29.7C94.7 29.7 94.8 29.7 94.7 29.7Z" fill="#100721"></path> <path d="M94.8 29.7C95.5 30.8 96.3 31.9 96.9 33.1C97.1 32.9 97.2 32.7 97.4 32.5C96.7 31.4 96 30.2 95.3 29.1C95.1 29.3 95 29.5 94.8 29.7Z" fill="#100721"></path> <path d="M95.7 39.1C96 32.9 94.4 31.1 88.1 30.8C91.3 30.9 93.3 30.6 94.5 29.4C94.4 29.3 94.4 29.2 94.3 29.1L94.2 29.2C93.1 30.2 91.3 30.6 88.1 30.4C87.9 30.4 87.7 30.6 87.7 30.8C87.7 31 87.9 31.2 88.1 31.2C94.2 31.5 95.6 33 95.3 39.1C95.3 39.3 95.5 39.5 95.7 39.5C95.9 39.5 96.1 39.3 96.1 39.1C96.2 36.6 96.5 34.9 97.3 33.8C97.2 33.7 97.2 33.6 97.1 33.5C96.2 34.6 95.8 36.4 95.7 39.1Z" fill="#100721"></path> <path d="M96.4 23.2C96.1 29.4 97.7 31.2 104 31.5C100.9 31.4 98.9 31.6999 97.6 32.7999C97.7 32.8999 97.7 32.9999 97.8 33.0999C99 31.9999 100.9 31.6999 104 31.7999C104.2 31.7999 104.4 31.6 104.4 31.4C104.4 31.2 104.2 31 104 31C100.8 30.9 99 30.3 98 29.2C97 28.1 96.6 26.3 96.8 23.1C96.8 22.9 96.6 22.7 96.4 22.7C96.2 22.7 96 22.9 96 23.1C95.9 25.6 95.5 27.3 94.8 28.4C94.9 28.5 95 28.6 95 28.7C95.9 27.6 96.3 25.8 96.4 23.2Z" fill="#100721"></path> <path d="M95.0999 28.8C94.9999 28.7 94.8999 28.6 94.8999 28.5C94.7999 28.7 94.5999 28.9 94.3999 29.1C94.4999 29.2 94.4999 29.3 94.5999 29.4C94.6999 29.2 94.8999 29 95.0999 28.8Z" fill="#100721"></path> <path d="M97.8001 33.2C97.7001 33.1 97.7001 33 97.6001 32.9C97.4001 33.1 97.2001 33.3 97.1001 33.5C97.2001 33.6 97.2001 33.7 97.3001 33.8C97.4001 33.5 97.6001 33.3 97.8001 33.2Z" fill="#100721"></path> <path d="M95.9 35.1C95.4 32.9 94.3 31.6 92.1 30.9C93.3 30.7 94.1 30.3 94.8 29.7C94.7 29.6 94.7 29.5 94.6 29.4C93.4 30.6 91.3 31 88.2 30.8C94.4 31.1 96.1 32.8 95.8 39.1C95.9 36.4 96.3 34.6 97.2 33.4C97.1 33.3 97.1 33.2 97 33.1C96.4 33.6 96.1 34.3 95.9 35.1Z" fill="#100721"></path> <path d="M104 31.5C97.8001 31.2 96.1001 29.5 96.4001 23.2C96.3001 25.8 95.9001 27.5999 95.1001 28.7999C95.2001 28.8999 95.3001 29 95.3001 29.1C95.7001 28.6 96.0001 27.9 96.2001 27.2C96.4001 28.4 96.8001 29.2 97.4001 29.9C98.0001 30.6 98.8001 31 100 31.4C98.9001 31.6 98.1001 32 97.4001 32.6C97.5001 32.7 97.5001 32.8 97.6001 32.9C98.9001 31.6999 100.9 31.4 104 31.5Z" fill="#100721"></path> <path d="M95.3001 29.1C95.2001 29 95.1001 28.9 95.1001 28.8C94.9001 29 94.8001 29.2 94.6001 29.4C94.7001 29.5 94.7001 29.6001 94.8001 29.7001C95.0001 29.5001 95.1001 29.3 95.3001 29.1Z" fill="#100721"></path> <path d="M96.8999 33.1C96.9999 33.2 96.9999 33.3 97.0999 33.4C97.2999 33.2 97.3999 33 97.5999 32.8C97.4999 32.7 97.4999 32.6 97.3999 32.5C97.1999 32.7 96.9999 32.9 96.8999 33.1Z" fill="#100721"></path> <path d="M74.4 108.1C74.3 108.1 74.1 108 74.1 107.9C74 107.7 74.1 107.5 74.3 107.4C74.5 107.3 74.6 107.2 74.8 107.2C74.7 107.1 74.6 107 74.6 107C73.8 106.1 73.3 105 73.1 103.5C72.3 106.4 70.7 107.9 67.7 108.4C69.2 108.8 70.3 109.4 71.1 110.2C71.9 111.1 72.4 112.2 72.6 113.7C73.4 110.8 75 109.3 78 108.8C77 108.5 76.1 108.2 75.5 107.7C75.2 107.8 75 108 74.7 108.1C74.5 108.1 74.5 108.1 74.4 108.1Z" fill="#100721"></path> <path d="M74.1999 107.4C73.9999 107.5 73.8999 107.7 73.9999 107.9C74.0999 108 74.1999 108.1 74.2999 108.1C74.3999 108.1 74.3999 108.1 74.4999 108.1C74.7999 108 74.9999 107.8 75.2999 107.7C75.0999 107.5 74.8999 107.4 74.6999 107.2C74.4999 107.3 74.3999 107.3 74.1999 107.4Z" fill="#100721"></path> <path d="M82.3 109C74.7 108.7 72.6 110.6 72.3 118.2C72.6 110.6 70.7 108.5 63.1 108.2C70.7 108.5 72.8 106.6 73.1 99C72.9 103 73.4 105.5 75 107C75.1 106.9 75.2 106.9 75.4 106.8C75.3 106.7 75.1 106.6 75 106.4C73.8 105 73.3 102.8 73.5 99C73.5 98.8 73.3 98.6 73.1 98.6C72.9 98.6 72.7 98.8 72.7 99C72.4 106.3 70.4 108.1 63.1 107.8C62.9 107.8 62.7 108 62.7 108.2C62.7 108.4 62.9 108.6 63.1 108.6C67 108.8 69.1 109.4 70.4 110.8C71.6 112.2 72.1 114.4 71.9 118.2C71.9 118.4 72.1 118.6 72.3 118.6C72.5 118.6 72.7 118.4 72.7 118.2C73 110.9 75 109.1 82.3 109.4C82.5 109.4 82.7 109.2 82.7 109C82.7 108.8 82.5 108.6 82.3 108.6C79.4 108.5 77.4 108.1 76.1 107.3C76 107.4 75.8 107.4 75.7 107.5C77.2 108.4 79.3 108.9 82.3 109Z" fill="#100721"></path> <path d="M75.1001 107C75.3001 107.2 75.5001 107.4 75.8001 107.5C75.9001 107.4 76.1001 107.4 76.2001 107.3C76.0001 107.2 75.7001 107 75.5001 106.8C75.3001 106.9 75.2001 106.9 75.1001 107Z" fill="#100721"></path> <path d="M73.1001 99C72.8001 106.6 70.6001 108.5 63.1001 108.2C70.7001 108.5 72.6001 110.6 72.3001 118.2C72.6001 110.6 74.8001 108.7 82.3001 109C79.3001 108.9 77.2001 108.5 75.7001 107.5C75.6001 107.6 75.4001 107.6 75.3001 107.7C76.0001 108.2 76.8001 108.5 77.8001 108.8C74.8001 109.3 73.2001 110.8 72.4001 113.7C72.1001 112.1 71.6001 111 70.9001 110.2C70.1001 109.3 69.0001 108.7 67.5001 108.4C70.5001 107.9 72.1001 106.4 72.9001 103.5C73.2001 105.1 73.7001 106.2 74.4001 107C74.5001 107.1 74.5001 107.2 74.6001 107.2C74.7001 107.1 74.8001 107.1 75.0001 107C73.4001 105.5 72.9001 103 73.1001 99Z" fill="#100721"></path> <path d="M75.3001 107.7C75.4001 107.6 75.6001 107.6 75.7001 107.5C75.5001 107.3 75.2001 107.2 75.0001 107C74.9001 107.1 74.8001 107.1 74.6001 107.2C74.9001 107.4 75.1001 107.5 75.3001 107.7Z" fill="#100721"></path> <path d="M21 14.4C20.9 14.4 20.9 14.5 20.8 14.5C21 14.7 21.1 14.9 21.3 15.1C21.4 15.1 21.4 15 21.5 15C21.4 14.8 21.2 14.6 21 14.4Z" fill="#100721"></path> <path d="M18.3001 1.30005C17.7001 14.7 14.0001 18.1 0.600098 17.5C14.0001 18.1 17.4001 21.8001 16.8001 35.2001C17.4001 21.8001 21.1001 18.4 34.5001 19C28.0001 18.7 23.9001 17.7 21.4001 15.2C21.3001 15.2 21.3001 15.3 21.2001 15.3C23.0001 17.1 25.6001 18.2 29.3001 18.8C25.3001 19.1 22.6001 20.0001 20.7001 21.7001C18.8001 23.4001 17.7001 26 17.0001 30C16.5001 22.3 13.5001 19 5.8001 17.8C9.8001 17.5 12.5001 16.6 14.4001 14.9C16.3001 13.2 17.4001 10.6 18.1001 6.60005C18.3001 10.2 19.1001 12.9 20.7001 14.8C20.8001 14.8 20.8001 14.7 20.9001 14.7C18.6001 11.8 18.0001 7.70005 18.3001 1.30005Z" fill="#100721" stroke="#100721"></path> <path d="M21.1001 15.3C21.2001 15.3 21.2001 15.2 21.3001 15.2C21.1001 15 21.0001 14.8 20.8001 14.6C20.7001 14.6 20.7001 14.7 20.6001 14.7C20.8001 14.9 21.0001 15.1 21.1001 15.3Z" fill="#100721"></path> <path d="M110.5 62.7C105.8 59.6 105.4 57.6 108.5 53V52.9C108.5 52.8 108.5 52.7 108.4 52.7C108.3 52.6 108.1 52.7 108.1 52.8C106.8 54.8 105.7 55.9 104.6 56.5C104.6 56.6 104.6 56.7 104.6 56.8C105.8 56.3 107 55 108.3 53C105.1 57.8 105.6 59.9 110.4 63.1C108 61.5 106.2 60.8 104.7 61.2C104.7 61.3 104.7 61.4 104.7 61.5C106.2 61.1 107.9 61.8 110.3 63.4C110.4 63.5 110.6 63.4 110.6 63.3V63.2C110.6 62.9 110.6 62.8 110.5 62.7Z" fill="#100721"></path> <path d="M100.3 65C103.5 60.2 103 58.1 98.2 54.9C100.6 56.5 102.3 57.1 103.8 56.8C103.8 56.7 103.8 56.6 103.8 56.5C102.4 56.8 100.8 56.2 98.3 54.6C98.2 54.5 98 54.6 98 54.7V54.8C98 54.9 98 55 98.1 55C100.6 56.6 101.7 57.9 102 59.3C102.3 60.7 101.7 62.3 100.1 64.8V64.9C100.1 65 100.1 65.1 100.2 65.1H100.3C100.4 65.1 100.5 65.1 100.5 65C101.7 63.2 102.8 62 103.9 61.4C103.9 61.3 103.9 61.2 103.9 61.1C102.7 61.8 101.6 63.1 100.3 65Z" fill="#100721"></path> <path d="M104.6 56.7C104.6 56.6 104.6 56.5 104.6 56.4C104.4 56.5 104.1 56.6 103.9 56.6C103.9 56.7 103.9 56.8 103.9 56.9C104.1 56.8 104.4 56.8 104.6 56.7Z" fill="#100721"></path> <path d="M103.9 61.3C103.9 61.4 103.9 61.5 103.9 61.6C104.1 61.5 104.4 61.4 104.7 61.3C104.7 61.2 104.7 61.1 104.7 61C104.4 61.1 104.2 61.2 103.9 61.3Z" fill="#100721"></path> <path d="M106.6 55.5C105.7 57.8 106 59.4001 107.8 61.2001C106.7 60.7001 105.7 60.6 104.7 60.8V60.9001V61C106.2 60.7 108 61.3001 110.4 62.9001C105.6 59.7001 105.2 57.6 108.3 52.8C107 54.8 105.8 56 104.6 56.6C104.6 56.7 104.6 56.8001 104.6 56.9001C105.3 56.7001 105.9 56.2 106.6 55.5Z" fill="#100721"></path> <path d="M102.1 62.4C102.6 61.2 102.7 60.3 102.5 59.4C102.3 58.5 101.8 57.7 100.9 56.8C102 57.3 103 57.4 103.9 57.2C103.9 57.1 103.9 57 103.9 56.9C102.4 57.2 100.7 56.5 98.3 55C103.1 58.2 103.5 60.3 100.4 65.1C101.7 63.1 102.8 61.9 104 61.4C104 61.3 104 61.2 104 61.1C103.3 61.3 102.7 61.7 102.1 62.4Z" fill="#100721"></path> <path d="M104.7 60.8C104.4 60.9 104.2 60.9 103.9 61C103.9 61.1 103.9 61.2 103.9 61.3C104.1 61.2 104.4 61.1 104.7 61V60.9001C104.7 60.8001 104.7 60.8 104.7 60.8Z" fill="#100721"></path> <path d="M103.9 57.1C104.2 57 104.4 57 104.6 56.9C104.6 56.8 104.6 56.7 104.6 56.6C104.4 56.7 104.1 56.8 103.9 56.8C103.9 57 103.9 57.1 103.9 57.1Z" fill="#100721"></path> <path d="M96 85.5C95.9 86.6 95.4 87.4 94.5 88C94.9 88 95.3 88.1 95.7 88.3C96.1 87.7 96.5 87 96.9 86.4C96.5 86.1 96.2 85.8 96 85.5Z" fill="#100721"></path> <path d="M96.9 89.5C97 88.4 97.5 87.6 98.4 87C98 87 97.7 86.9 97.4 86.7C97 87.4 96.6 88 96.2 88.6C96.5 88.9 96.7 89.2 96.9 89.5Z" fill="#100721"></path> <path d="M97.4 86.7C97.3 86.6 97.1 86.6 97 86.5C96.9 86.4 96.8 86.4 96.7 86.3C96.3 86.9 95.9 87.6 95.5 88.2C95.7 88.3 95.9 88.4 96.1 88.6C96.6 88 97 87.4 97.4 86.7Z" fill="#100721"></path> <path d="M101.4 86.3C97.5 87.2 96.7 88.5 97.6 92.5C97.2 90.8 96.7 89.7 96 89.1C95.9 89.2 95.9 89.3 95.8 89.4C96.4 90 96.9 91 97.2 92.6C97.2 92.8 97.4 92.9 97.6 92.9H97.7C97.9 92.9 98 92.7 98 92.5V92.4C97.1 88.7 97.8 87.6 101.5 86.7C101.7 86.7 101.8 86.5 101.8 86.3V86.2C101.8 86 101.5 85.9 101.3 85.9C99.6 86.3 98.5 86.3 97.8 86.1C97.7 86.2 97.7 86.3 97.6 86.4C98.5 86.8 99.7 86.7 101.4 86.3Z" fill="#100721"></path> <path d="M91.5001 88.7C95.4001 87.8 96.2001 86.5 95.3001 82.5C95.7001 84.3 96.2001 85.4 97.0001 86C97.1001 85.9 97.1001 85.8 97.2001 85.7C96.6001 85.2 96.1001 84.1 95.7001 82.4C95.7001 82.2 95.5001 82.1 95.2001 82.1C95.0001 82.1 94.9001 82.3 94.9001 82.5V82.6C95.8001 86.3 95.1001 87.4 91.4001 88.3C91.2001 88.3 91.1001 88.5 91.1001 88.7V88.8C91.1001 89 91.3001 89.1 91.6001 89.1C93.3001 88.7 94.4001 88.6 95.2001 89C95.3001 88.9 95.3001 88.8 95.4001 88.7C94.5001 88.2 93.2001 88.2 91.5001 88.7Z" fill="#100721"></path> <path d="M97.0999 85.7C96.9999 85.8 96.9999 85.9 96.8999 86C97.0999 86.2 97.2999 86.3 97.4999 86.4C97.5999 86.3 97.5999 86.2 97.6999 86.1C97.5999 86 97.3999 86 97.2999 85.9C97.2999 85.8 97.1999 85.8 97.0999 85.7Z" fill="#100721"></path> <path d="M95.4 88.6C95.3 88.7 95.3 88.8 95.2 88.9C95.4 89 95.6 89.1 95.8 89.3C95.9 89.2 95.9 89.1 96 89C95.8 88.8 95.6 88.7 95.4 88.6Z" fill="#100721"></path> <path d="M95.3 82.5C96.2 86.4 95.4 87.7 91.5 88.7C93.3 88.3 94.5 88.2 95.4 88.6C95.5 88.5 95.5 88.4 95.6 88.3C95.3 88.1 94.9 88 94.4 88C95.3 87.4 95.8 86.6 95.9 85.5C96.1 85.9 96.4 86.2 96.7 86.4C96.8 86.3 96.8 86.2 96.9 86.1C96.2 85.4 95.7 84.3 95.3 82.5Z" fill="#100721"></path> <path d="M98.5001 87C97.6001 87.6 97.1001 88.4 97.0001 89.5C96.8001 89.2 96.6001 88.9 96.3001 88.7C96.2001 88.8 96.2001 88.9 96.1001 89C96.8001 89.6 97.3001 90.8 97.7001 92.4C96.8001 88.5 97.6001 87.2 101.5 86.2C99.8001 86.6 98.6001 86.7 97.7001 86.3C97.6001 86.4 97.6001 86.5 97.5001 86.6C97.7001 86.9 98.1001 87 98.5001 87Z" fill="#100721"></path> <path d="M95.5999 88.3C95.4999 88.4 95.4999 88.5 95.3999 88.6C95.5999 88.7 95.7999 88.8 95.9999 89C96.0999 88.9 96.0999 88.8 96.1999 88.7C95.9999 88.5 95.7999 88.4 95.5999 88.3Z" fill="#100721"></path> <path d="M97 86.5C97.1 86.6 97.3 86.6 97.4 86.7C97.5 86.6 97.5 86.5 97.6 86.4C97.4 86.3 97.1 86.2 97 86C96.9 86.1 96.9 86.2 96.8 86.3C96.8 86.4 96.9 86.5 97 86.5Z" fill="#100721"></path> <path d="M76.8999 14.2C77.7999 14.2 78.3999 14.6 78.9999 15.3C78.9999 15.1 78.9999 14.8 79.0999 14.6C78.5999 14.3 77.9999 13.9 77.4999 13.6C77.3999 13.8 77.1999 14 76.8999 14.2Z" fill="#100721"></path> <path d="M80.0999 13.2C79.1999 13.2 78.5999 12.8 77.9999 12.1C77.9999 12.4 77.8999 12.7 77.8999 12.9C78.3999 13.2 78.9999 13.5 79.4999 13.9C79.5999 13.6 79.7999 13.4 80.0999 13.2Z" fill="#100721"></path> <path d="M77.5 13.6C78 13.9 78.6 14.2 79.1 14.6C79.1 14.4 79.2 14.3 79.3 14.1C79.3 14 79.4 14 79.4 13.9C78.9 13.6 78.4 13.3 77.8 12.9C77.8 13 77.7 13.1 77.6 13.3C77.7 13.4 77.6 13.5 77.5 13.6Z" fill="#100721"></path> <path d="M79.8999 17.9C78.7999 14.6 77.5999 14 74.2999 15.1C75.7999 14.6 76.6999 14.1 77.1999 13.4C77.0999 13.3 76.9999 13.3 76.8999 13.2C76.4999 13.8 75.5999 14.2 74.1999 14.7C73.9999 14.8 73.8999 14.9 73.8999 15.1V15.2C73.9999 15.4 74.1999 15.5 74.3999 15.4C77.4999 14.4 78.4999 14.9 79.4999 18C79.5999 18.2 79.6999 18.3 79.8999 18.3H79.9999C80.1999 18.2 80.2999 18.1 80.2999 17.9V17.8C79.8999 16.6 79.7999 15.7 79.8999 15C79.7999 14.9 79.6999 14.9 79.5999 14.8C79.2999 15.5 79.3999 16.5 79.8999 17.9Z" fill="#100721"></path> <path d="M77.1 9.5C78.2 12.8 79.4 13.4 82.7 12.3C81.2 12.8 80.2 13.3 79.8 14.1C79.9 14.2 80 14.2 80.1 14.3C80.5 13.7 81.3 13.2 82.8 12.7C83 12.6 83.1 12.5 83.1 12.3V12.2C83 12 82.8 11.9 82.6 12C79.5 13 78.5 12.5 77.5 9.4C77.4 9.2 77.2 9.1 77 9.2C76.8 9.3 76.7 9.4 76.7 9.6V9.7C77.1 11 77.3 11.9 77.1 12.6C77.2 12.7 77.3 12.7 77.4 12.8C77.8 11.9 77.6 10.9 77.1 9.5Z" fill="#100721"></path> <path d="M77.4999 12.7C77.3999 12.6 77.2999 12.6 77.1999 12.5C77.1999 12.6 77.0999 12.8 77.0999 12.9C77.0999 13 76.9999 13.1 76.8999 13.2C76.9999 13.3 77.0999 13.3 77.1999 13.4C77.2999 13.2 77.4999 13 77.4999 12.7Z" fill="#100721"></path> <path d="M80.1 14.3C80 14.2 79.9 14.2 79.8 14.1C79.7 14.3 79.6 14.5 79.5 14.8C79.6 14.9 79.7 14.9 79.8 15C79.8 14.8 79.9 14.6 80 14.4C80 14.4 80 14.3 80.1 14.3Z" fill="#100721"></path> <path d="M82.7001 12.3C79.4001 13.4 78.2001 12.8 77.1001 9.5C77.6001 10.9 77.7001 11.9 77.5001 12.7C77.6001 12.8 77.7001 12.8 77.8001 12.9C77.9001 12.7 77.9001 12.4 77.9001 12.1C78.4001 12.8 79.1001 13.1 80.0001 13.2C79.7001 13.4 79.5001 13.7 79.4001 13.9C79.5001 14 79.6001 14 79.7001 14.1C80.2001 13.3 81.2001 12.8 82.7001 12.3Z" fill="#100721"></path> <path d="M79 15.3C78.5 14.6 77.8 14.3 76.9 14.2C77.1 14 77.3 13.8 77.5 13.6C77.4 13.5 77.3 13.5 77.2 13.4C76.7 14.1 75.8 14.6 74.3 15.1C77.6 14 78.8 14.6 79.9 17.9C79.5 16.6 79.3 15.6 79.5 14.8C79.4 14.7 79.3 14.7 79.2 14.6C79.1 14.8 79 15 79 15.3Z" fill="#100721"></path> <path d="M77.7 13.3C77.8 13.2 77.8 13.1 77.9 12.9C77.8 12.8 77.7 12.8 77.6 12.7C77.5 12.9 77.4 13.2 77.3 13.4C77.4 13.5 77.5 13.5 77.6 13.6C77.6 13.5 77.7 13.4 77.7 13.3Z" fill="#100721"></path> <path d="M79.3001 14.1C79.2001 14.2 79.2001 14.4 79.1001 14.6C79.2001 14.7 79.3001 14.7 79.4001 14.8C79.5001 14.5 79.6001 14.3 79.7001 14.1C79.6001 14 79.5001 14 79.4001 13.9C79.4001 13.9 79.3001 14 79.3001 14.1Z" fill="#100721"></path> <path d="M56.8 62V61.6V62C56.7 62.2 56.5 62.3 56.4 62.3H56H56.4C56.6 62.3 56.7 62.5 56.7 62.6V63V62.6C56.7 62.4 56.9 62.3 57 62.3H57.4H57C57 62.3 56.8 62.2 56.8 62Z" fill="#100721"></path> <path d="M60.2999 62L57.4999 61.6L57.0999 58.8C57.0999 58.6 56.8999 58.5 56.6999 58.5C56.4999 58.5 56.3999 58.6 56.2999 58.8L55.9999 61.7L53.1999 62C52.9999 62 52.8999 62.2 52.8999 62.4C52.8999 62.6 52.9999 62.7 53.1999 62.8L55.9999 63.2L56.3999 66C56.3999 66.2 56.5999 66.3 56.7999 66.3C56.9999 66.3 57.0999 66.2 57.1999 66L57.5999 63.2L60.3999 62.8C60.5999 62.8 60.6999 62.6 60.6999 62.4C60.6999 62.2 60.4999 62.1 60.2999 62ZM57.1999 62.8L56.7999 65.9L56.3999 62.8L53.2999 62.4L56.3999 62L56.7999 58.9L57.1999 62L60.2999 62.4L57.1999 62.8Z" fill="#100721"></path> <path d="M56.8 58.9L56.3 62L53.2 62.4L56.3 62.8L56.7 65.9L57.1 62.8L60.2 62.4L57.2 62L56.8 58.9ZM57.1 62.5C56.9 62.5 56.8 62.7 56.8 62.8V63.2V62.8C56.8 62.6 56.6 62.5 56.5 62.5H56.1H56.5C56.7 62.5 56.8 62.3 56.8 62.2V61.8V62.2C56.8 62.2 57 62.3 57.1 62.5H57.5H57.1Z" fill="#100721"></path> <path d="M62.1001 52.5C61.6001 52.7 61.4001 53.2 61.6001 53.6C61.8001 54.1 62.3001 54.3 62.7001 54.1C63.2001 53.9 63.4001 53.4 63.2001 53C63.1001 52.5 62.6001 52.3 62.1001 52.5Z" fill="#100721"></path> <path d="M52.8999 38.7C52.9999 38.7 53.0999 38.7 53.0999 38.7C53.0999 38.8 52.9999 38.7 52.8999 38.7Z" fill="#100721"></path> <path d="M52.3 39.5C52.2 39.5 52.1 39.5 52.1 39.5C52.1 39.5 52.1 39.5 52 39.5C51.9 39.5 51.9 39.5 51.8 39.5C51.8 39.5 51.8 39.5 51.7 39.5C51.6 39.5 51.6 39.5 51.5 39.5H51.4C51.3 39.5 51.3 39.5 51.2 39.5H51.1H51C50.9 39.5 50.9 39.5 50.8 39.5H50.7C50.6 39.5 50.5 39.5 50.4 39.5C39.2 39.5 30 48.6 30 59.9C30 71.1 39.1 80.3 50.4 80.3C50.5 80.3 50.6 80.3 50.7 80.3H50.8C50.9 80.3 50.9 80.3 51 80.3H51.1H51.2C51.3 80.3 51.3 80.3 51.4 80.3H51.5C51.6 80.3 51.6 80.3 51.7 80.3C51.7 80.3 51.7 80.3 51.8 80.3C51.9 80.3 51.9 80.3 52 80.3C52 80.3 52 80.3 52.1 80.3C52.2 80.3 52.3 80.3 52.3 80.3C52.4 80.3 52.5 80.3 52.5 80.3C53.3 80.2 54 80.1 54.8 79.9C46.5 76.9 40.8 68.9 40.8 60C40.8 51.1 46.5 43.1 54.8 40.1C54.1 39.7 53.2 39.6 52.3 39.5C52.4 39.5 52.4 39.5 52.3 39.5Z" fill="white"></path> <path d="M56.1 79.7C55.4 79.9 54.6 80 53.8 80.1C54.6 80 55.3 79.9 56.1 79.7Z" fill="#100721"></path> <path d="M53.3001 80.1C53.2001 80.1 53.2001 80.1 53.1001 80.1C53.1001 80.2 53.2001 80.2 53.3001 80.1Z" fill="#100721"></path> <path d="M53.6001 39.5C54.5001 39.6 55.3001 39.7 56.1001 39.9C55.3001 39.7 54.4001 39.6 53.6001 39.5Z" fill="#100721"></path> <path d="M57.6 39.5C56.6 39.2 55.6 39 54.5 38.9C55.5 39 56.6 39.2 57.6 39.5Z" fill="#100721"></path> <circle cx="51" cy="60" r="20.5" stroke="black"></circle> </g> <defs> <clipPath id="clip0_1504_1054"> <rect width="111" height="119" fill="white"></rect> </clipPath> </defs> </svg> 