<?xml version="1.0" encoding="UTF-8"?> <svg xmlns="http://www.w3.org/2000/svg" width="609" height="188" viewBox="0 0 609 188" fill="none"> <path d="M95.8721 166.572L138.372 166.572" stroke="#100721"></path> <path d="M117.122 187.822L117.122 145.322" stroke="#100721"></path> <path d="M107.372 175.572L125.872 157.572" stroke="#100721"></path> <path d="M125.748 175.698L107.496 157.446" stroke="#100721"></path> <rect x="110.579" y="166.572" width="8.89951" height="8.89951" transform="rotate(-45 110.579 166.572)" fill="white" stroke="#100721"></rect> <path d="M95.8721 21.8221L138.372 21.8221" stroke="#100721"></path> <path d="M117.122 0.572144L117.122 43.0721" stroke="#100721"></path> <path d="M107.372 12.8219L125.872 30.8221" stroke="#100721"></path> <path d="M125.748 12.6961L107.496 30.9479" stroke="#100721"></path> <rect x="0.707107" width="8.89951" height="8.89951" transform="matrix(0.707107 0.707107 0.707107 -0.707107 110.079 21.3221)" fill="white" stroke="#100721"></rect> <path d="M142.307 100.536C138.781 100.536 136.057 97.8115 136.057 94.2859C136.057 90.7603 138.781 88.0359 142.307 88.0359C145.833 88.0359 148.557 90.7603 148.557 94.2859C148.557 97.8115 145.833 100.536 142.307 100.536Z" fill="white"></path> <path d="M564.701 128.095L564.7 128.095C558.867 126.676 553.336 123.52 548.586 118.929C535.002 105.342 535.003 83.3857 548.589 69.7999C553.169 65.2199 558.698 62.2172 564.707 60.6354C576.236 57.6347 588.874 60.7922 597.882 69.7999C611.468 83.3867 611.468 105.346 597.882 118.932C588.878 127.937 576.239 130.94 564.701 128.095Z" fill="#B4A3FD" stroke="#100721"></path> <path d="M582.653 69.7956L582.658 69.8001C592.078 79.2201 592.078 94.4484 582.658 103.868C576.379 110.148 567.75 112.189 559.741 110.149C555.656 109.048 551.887 107.007 548.585 103.864C539.169 94.4437 539.171 79.2187 548.589 69.8001C551.731 66.6581 555.655 64.463 559.727 63.5235L559.727 63.5236L559.738 63.5208C567.751 61.4782 576.538 63.5228 582.653 69.7956L582.653 69.7956Z" fill="white" stroke="#100721"></path> <path d="M545.872 73.0721L510.372 40.5721M533.372 79.0721L512.872 69.5721M533.372 108.572L512.872 118.072M544.872 115.072L510.372 146.572M538.372 94.5721L498.872 94.5721" stroke="#100721"></path> <path d="M87.1601 94.2861C87.1601 103.77 83.5262 112.619 76.8858 119.417L87.6601 94.2861L87.1601 94.2861Z" fill="#B4A3FD" stroke="#100721"></path> <path d="M2.37207 144.073L100.372 44.0725" stroke="#100721"></path> <path d="M100.372 144.073L2.37207 44.0725" stroke="#100721"></path> <path d="M58.8054 80.2868L58.9576 81.0073L59.5712 80.6001L76.1415 69.6008L65.4463 86.0001L65.0491 86.6091L65.76 86.762C73.2131 88.3648 82.5088 90.3282 89.9409 91.8907C93.657 92.672 96.9073 93.3531 99.2287 93.8389C99.7359 93.9451 100.199 94.0419 100.612 94.1284L65.7618 101.489L65.043 101.641L65.448 102.254C68.4117 106.74 71.4157 111.346 73.679 114.831C74.6857 116.381 75.5458 117.709 76.1904 118.706L59.7281 107.97L59.119 107.572L58.9661 108.283C57.3633 115.736 55.4 125.032 53.8374 132.464C53.0561 136.18 52.375 139.431 51.8892 141.752C51.7831 142.259 51.6862 142.722 51.5997 143.136L44.2391 108.285L44.0872 107.566L43.4742 107.971C38.9886 110.935 34.3824 113.939 30.8974 116.202C29.352 117.206 28.0272 118.064 27.0313 118.708L37.5976 102.573L37.9984 101.961L37.2827 101.81L2.41957 94.4463L37.2827 87.0829L37.9969 86.9321L37.5982 86.3206L26.8763 69.8805L43.3164 80.6023L43.9279 81.0011L44.0788 80.2868L51.4421 45.4237L58.8054 80.2868Z" fill="white" stroke="#100721"></path> <path d="M499.037 83.7283C504.868 83.7283 509.595 88.4551 509.595 94.286C509.595 100.117 504.868 104.844 499.037 104.844C493.206 104.844 488.479 100.117 488.479 94.286C488.479 88.4551 493.206 83.7283 499.037 83.7283Z" fill="white" stroke="black"></path> </svg> 