<?xml version="1.0" encoding="UTF-8"?> <svg xmlns="http://www.w3.org/2000/svg" width="1867" height="1867" viewBox="0 0 1867 1867" fill="none"> <path d="M935.422 929.653L930.934 937.347L140.408 440.463L144.896 432.77L935.422 929.653Z" fill="white"></path> <path d="M936.064 929.653L930.293 936.706L881.567 900.161L887.337 893.108L936.064 929.653ZM875.155 884.132L869.385 891.185L859.768 884.132L865.538 877.08L875.155 884.132ZM857.844 871.309L852.074 878.362L803.347 841.817L809.118 834.764L857.844 871.309ZM796.936 825.788L791.166 832.841L781.549 825.788L787.319 818.736L796.936 825.788ZM779.625 812.966L773.855 820.018L725.129 783.473L730.899 776.421L779.625 812.966ZM718.717 766.804L712.947 773.856L703.33 766.804L709.1 759.751L718.717 766.804ZM701.406 753.981L695.636 761.033L646.909 724.488L652.68 717.436L701.406 753.981ZM640.498 708.46L634.728 715.512L625.111 708.46L630.881 701.407L640.498 708.46ZM623.828 695.637L618.058 702.69L569.331 666.145L575.102 659.092L623.828 695.637ZM562.279 649.475L556.509 656.527L546.891 649.475L552.662 642.422L562.279 649.475ZM545.609 636.652L539.839 643.705L491.112 607.16L496.883 600.107L545.609 636.652ZM484.701 591.131L478.931 598.184L469.313 591.131L475.084 584.079L484.701 591.131ZM467.39 578.308L461.62 585.361L412.893 548.816L418.663 541.763L467.39 578.308ZM406.482 532.146L400.712 539.199L391.094 532.146L396.865 525.094L406.482 532.146ZM389.171 519.323L383.401 526.376L334.674 489.831L340.444 482.778L389.171 519.323ZM328.263 473.803L322.492 480.855L312.875 473.803L318.646 466.75L328.263 473.803ZM310.952 460.98L305.182 468.032L256.455 431.487L262.225 424.435L310.952 460.98ZM250.044 414.818L244.273 421.87L234.656 414.818L240.427 407.765L250.044 414.818ZM233.374 401.995L227.604 409.047L184.006 376.349L189.777 369.297L233.374 401.995Z" fill="white"></path> <path d="M936.064 930.294L930.294 936.706L232.734 316.723L238.504 309.671L936.064 930.294Z" fill="white"></path> <path d="M936.706 930.294L930.294 936.706L887.979 892.467L894.39 886.056L936.706 930.294ZM884.132 875.156L877.721 881.568L869.386 872.592L875.797 866.18L884.132 875.156ZM869.386 859.769L862.975 866.18L820.659 821.942L827.071 815.53L869.386 859.769ZM816.171 804.631L809.76 811.042L801.425 802.066L807.837 795.655L816.171 804.631ZM802.066 789.243L795.655 795.655L753.34 751.416L759.751 745.005L802.066 789.243ZM748.852 733.464L742.44 739.876L734.105 730.9L740.517 724.488L748.852 733.464ZM734.105 718.077L727.694 724.488L685.379 680.25L691.79 673.838L734.105 718.077ZM681.532 662.939L675.12 669.35L666.786 660.374L673.197 653.963L681.532 662.939ZM666.786 647.552L660.374 653.963L618.059 609.724L624.47 603.313L666.786 647.552ZM614.212 592.413L607.801 598.825L599.466 589.849L605.877 583.438L614.212 592.413ZM599.466 577.026L593.055 583.438L550.739 539.199L557.151 532.787L599.466 577.026ZM546.892 521.888L540.481 528.299L532.146 519.323L538.558 512.912L546.892 521.888ZM532.146 505.86L525.735 512.271L483.42 468.032L489.831 461.621L532.146 505.86ZM479.573 450.721L473.161 457.133L464.827 448.157L471.238 441.746L479.573 450.721ZM464.827 435.334L458.415 441.746L416.1 397.507L422.511 391.095L464.827 435.334ZM412.253 380.196L405.842 386.607L397.507 377.631L403.918 371.22L412.253 380.196ZM397.507 364.809L391.095 371.22L348.78 326.981L355.192 320.57L397.507 364.809ZM344.933 309.671L338.522 316.082L330.187 307.106L336.599 300.695L344.933 309.671ZM330.187 294.283L323.776 300.695L285.948 260.944L292.36 254.533L330.187 294.283Z" fill="white"></path> <path d="M936.707 930.935L929.654 936.706L343.652 209.653L351.346 203.883L936.707 930.935Z" fill="white"></path> <path d="M936.706 930.935L929.012 936.064L895.031 885.414L902.725 880.285L936.706 930.935ZM894.39 868.104L886.696 873.233L879.644 862.974L887.338 857.845L894.39 868.104ZM882.209 850.152L874.515 855.281L840.535 804.631L848.228 799.502L882.209 850.152ZM839.252 787.32L831.558 792.449L824.506 782.191L832.2 777.062L839.252 787.32ZM827.712 769.368L820.018 774.497L786.038 723.847L793.731 718.718L827.712 769.368ZM784.755 705.895L777.061 711.024L770.009 700.766L777.703 695.637L784.755 705.895ZM772.574 688.584L764.88 693.713L730.9 643.063L738.593 637.934L772.574 688.584ZM729.617 625.111L721.924 630.241L714.871 619.982L722.565 614.853L729.617 625.111ZM718.077 607.801L710.383 612.93L676.403 562.28L684.096 557.151L718.077 607.801ZM675.12 544.328L667.427 549.457L660.374 539.199L668.068 534.07L675.12 544.328ZM662.939 527.017L655.245 532.146L621.265 481.496L628.958 476.367L662.939 527.017ZM620.623 463.544L612.93 468.673L605.877 458.415L613.571 453.286L620.623 463.544ZM608.442 445.592L600.748 450.721L566.768 400.071L574.461 394.942L608.442 445.592ZM565.485 382.76L557.792 387.89L550.739 377.631L558.433 372.502L565.485 382.76ZM553.945 364.809L546.251 369.938L512.271 319.288L519.964 314.159L553.945 364.809ZM510.988 301.977L503.295 307.106L496.242 296.848L503.936 291.719L510.988 301.977ZM498.807 284.025L491.113 289.154L457.133 238.504L464.826 233.375L498.807 284.025ZM455.85 221.193L448.157 226.322L441.104 216.064L448.798 210.935L455.85 221.193ZM444.31 203.241L436.616 208.37L405.841 162.849L413.535 157.72L444.31 203.241Z" fill="white"></path> <path d="M937.347 931.576L929.012 936.064L471.238 122.458L479.573 117.97L937.347 931.576Z" fill="white"></path> <path d="M937.347 931.577L929.013 935.424L903.367 879.645L911.702 875.798L937.347 931.577ZM905.29 862.334L896.956 866.181L891.826 855.281L900.161 851.434L905.29 862.334ZM896.314 843.1L887.98 846.946L862.334 791.167L870.669 787.32L896.314 843.1ZM864.899 773.856L856.564 777.703L851.435 766.804L859.769 762.957L864.899 773.856ZM855.923 753.981L847.588 757.828L821.942 702.049L830.277 698.202L855.923 753.981ZM824.507 684.738L816.172 688.585L811.043 677.685L819.378 673.838L824.507 684.738ZM815.531 665.504L807.196 669.351L781.55 613.571L789.885 609.725L815.531 665.504ZM783.474 596.261L775.139 600.107L770.01 589.208L778.345 585.361L783.474 596.261ZM774.498 576.385L766.163 580.232L740.517 524.453L748.852 520.606L774.498 576.385ZM743.082 507.142L734.747 510.989L729.618 500.09L737.953 496.243L743.082 507.142ZM734.106 487.908L725.771 491.755L700.125 435.976L708.46 432.129L734.106 487.908ZM702.049 418.665L693.714 422.512L688.585 411.612L696.92 407.765L702.049 418.665ZM693.073 398.789L684.738 402.636L659.093 346.857L667.427 343.01L693.073 398.789ZM661.657 329.546L653.322 333.393L648.193 322.494L656.528 318.647L661.657 329.546ZM652.681 310.312L644.346 314.159L618.701 258.38L627.036 254.533L652.681 310.312ZM620.624 241.069L612.289 244.916L607.16 234.016L615.495 230.17L620.624 241.069ZM612.289 221.194L603.954 225.041L578.309 169.261L586.644 165.414L612.289 221.194ZM580.232 151.95L571.897 155.797L566.768 144.898L575.103 141.051L580.232 151.95ZM571.256 132.716L562.921 136.563L539.84 86.5542L548.175 82.7074L571.256 132.716Z" fill="white"></path> <path d="M937.346 932.218L929.011 935.424L611.646 57.0618L620.622 53.8561L937.346 932.218Z" fill="white"></path> <path d="M937.347 932.217L928.371 934.782L912.342 875.797L921.318 873.233L937.347 932.217ZM917.471 858.486L908.495 861.051L905.29 849.51L914.266 846.946L917.471 858.486ZM912.342 837.97L903.366 840.534L887.338 781.55L896.314 778.985L912.342 837.97ZM892.467 764.239L883.491 766.803L880.285 755.263L889.261 752.698L892.467 764.239ZM886.697 743.722L877.721 746.287L861.692 687.302L870.668 684.737L886.697 743.722ZM866.821 669.991L857.845 672.556L854.64 661.015L863.615 658.451L866.821 669.991ZM861.051 649.475L852.075 652.039L836.047 593.054L845.022 590.49L861.051 649.475ZM841.176 575.743L832.2 578.308L828.994 566.768L837.97 564.203L841.176 575.743ZM836.047 555.227L827.071 557.792L811.042 498.807L820.018 496.242L836.047 555.227ZM815.53 481.496L806.554 484.061L803.348 472.52L812.324 469.955L815.53 481.496ZM810.401 460.979L801.425 463.544L785.397 404.559L794.372 401.994L810.401 460.979ZM790.526 387.248L781.55 389.813L778.344 378.272L787.32 375.708L790.526 387.248ZM784.755 366.732L775.779 369.297L759.751 310.312L768.727 307.747L784.755 366.732ZM764.88 293.001L755.904 295.565L752.698 284.025L761.674 281.46L764.88 293.001ZM759.11 272.484L750.134 275.049L734.105 216.064L743.081 213.499L759.11 272.484ZM739.234 198.753L730.258 201.318L727.053 189.777L736.029 187.213L739.234 198.753ZM734.105 178.237L725.129 180.801L709.101 121.816L718.077 119.252L734.105 178.237ZM714.23 104.506L705.254 107.07L702.048 95.5296L711.024 92.9651L714.23 104.506ZM708.46 83.9892L699.484 86.5537L685.379 33.9801L694.355 31.4156L708.46 83.9892Z" fill="white"></path> <path d="M937.347 932.859L928.371 934.141L761.033 16.0286L770.009 14.7463L937.347 932.859Z" fill="white"></path> <path d="M937.989 932.859L929.013 933.5L923.243 872.592L932.219 871.951L937.989 932.859ZM930.295 857.204L921.319 857.845L920.037 845.664L929.013 845.023L930.295 857.204ZM928.372 836.047L919.396 836.688L913.626 775.78L922.602 775.138L928.372 836.047ZM920.678 759.751L911.702 760.392L910.42 748.211L919.396 747.569L920.678 759.751ZM918.755 738.593L909.779 739.235L904.009 678.326L912.985 677.685L918.755 738.593ZM911.061 662.939L902.085 663.58L900.803 651.398L909.779 650.757L911.061 662.939ZM909.138 641.781L900.162 642.422L894.392 581.514L903.367 580.873L909.138 641.781ZM901.444 565.486L892.468 566.127L891.186 553.945L900.162 553.304L901.444 565.486ZM899.521 544.328L890.545 544.969L884.774 484.061L893.75 483.42L899.521 544.328ZM891.827 468.673L882.851 469.315L881.569 457.133L890.545 456.492L891.827 468.673ZM889.903 447.516L880.928 448.157L875.157 387.249L884.133 386.607L889.903 447.516ZM882.21 371.22L873.234 371.861L871.952 359.68L880.928 359.038L882.21 371.22ZM880.286 350.063L871.31 350.704L865.54 289.795L874.516 289.154L880.286 350.063ZM873.234 274.408L864.258 275.049L862.976 262.867L871.952 262.226L873.234 274.408ZM870.669 252.609L861.693 253.25L855.923 192.342L864.899 191.701L870.669 252.609ZM863.617 176.955L854.641 177.596L853.359 165.414L862.335 164.773L863.617 176.955ZM861.052 155.797L852.076 156.438L846.306 95.5299L855.282 94.8887L861.052 155.797ZM854 79.5014L845.024 80.1426L843.742 67.961L852.717 67.3198L854 79.5014ZM851.435 58.3439L842.459 58.9849L837.33 4.48794L846.306 3.84695L851.435 58.3439Z" fill="white"></path> <path d="M937.988 933.5L928.371 933.5L914.266 0.000122093L923.883 0.000121772L937.988 933.5Z" fill="white"></path> <path d="M1000.82 2.56473L996.972 57.0616L987.996 56.4204L991.842 1.9235L1000.82 2.56473ZM996.331 66.0375L995.689 78.2191L986.713 77.5781L987.355 65.3964L996.331 66.0375ZM995.048 93.6067L991.202 154.515L982.225 153.874L986.072 92.9655L995.048 93.6067ZM989.919 163.491L989.278 175.673L980.302 175.031L980.943 162.85L989.919 163.491ZM987.996 191.06L984.149 251.968L975.173 251.327L979.02 190.419L987.996 191.06ZM983.508 260.944L982.867 273.126L973.891 272.485L974.532 260.303L983.508 260.944ZM981.584 288.513L977.738 349.422L968.762 348.78L972.608 287.872L981.584 288.513ZM976.455 358.397L975.814 370.579L966.838 369.938L967.479 357.756L976.455 358.397ZM975.173 385.966L971.326 446.875L962.35 446.234L966.197 385.325L975.173 385.966ZM970.044 455.851L969.403 468.032L960.427 467.391L961.068 455.21L970.044 455.851ZM968.12 483.42L964.274 544.328L955.298 543.687L959.145 482.779L968.12 483.42ZM963.632 553.304L962.991 565.486L954.015 564.845L954.656 552.663L963.632 553.304ZM961.709 580.873L957.862 641.781L948.886 641.14L952.733 580.232L961.709 580.873ZM957.221 650.757L956.58 662.939L947.604 662.298L948.245 650.116L957.221 650.757ZM955.298 678.326L951.451 739.235L942.475 738.594L946.322 677.685L955.298 678.326ZM950.168 748.211L949.527 760.392L940.551 759.751L941.193 747.569L950.168 748.211ZM948.245 775.78L944.398 836.688L935.422 836.047L939.269 775.138L948.245 775.78ZM943.757 845.664L943.116 857.846L934.14 857.204L934.781 845.023L943.757 845.664ZM941.834 873.233L937.987 934.141L929.011 933.5L932.858 872.592L941.834 873.233Z" fill="white"></path> <path d="M1077.76 11.5406L937.348 934.141L928.372 932.859L1068.78 10.2585L1077.76 11.5406Z" fill="white"></path> <path d="M1153.41 26.2866L1140.59 79.5012L1131.61 77.5778L1144.44 24.3631L1153.41 26.2866ZM1138.67 88.4771L1136.1 100.659L1127.13 98.7354L1129.69 86.5538L1138.67 88.4771ZM1132.25 115.405L1118.15 175.031L1109.17 173.108L1123.28 113.482L1132.25 115.405ZM1116.23 183.366L1113.66 195.548L1104.69 193.624L1107.25 181.442L1116.23 183.366ZM1109.81 210.294L1095.71 269.92L1086.73 267.996L1100.84 208.37L1109.81 210.294ZM1093.79 278.896L1091.22 291.077L1082.25 289.154L1084.81 276.972L1093.79 278.896ZM1087.37 305.183L1073.27 364.809L1064.29 362.885L1078.4 303.259L1087.37 305.183ZM1071.35 373.784L1068.78 385.966L1059.81 384.043L1062.37 371.861L1071.35 373.784ZM1064.94 400.071L1050.83 459.697L1041.85 457.774L1055.96 398.148L1064.94 400.071ZM1048.27 468.673L1045.7 480.855L1036.72 478.931L1039.29 466.75L1048.27 468.673ZM1041.85 495.601L1027.75 555.227L1018.77 553.304L1032.88 493.678L1041.85 495.601ZM1025.83 563.562L1023.26 575.744L1014.28 573.82L1016.85 561.638L1025.83 563.562ZM1019.41 590.49L1005.31 650.116L996.333 648.192L1010.44 588.566L1019.41 590.49ZM1003.39 658.451L1000.82 670.632L991.845 668.709L994.41 656.527L1003.39 658.451ZM996.974 685.379L982.869 745.005L973.893 743.081L987.998 683.455L996.974 685.379ZM980.946 753.339L978.381 765.521L969.405 763.598L971.97 751.416L980.946 753.339ZM974.534 780.267L960.429 839.893L951.453 837.97L965.558 778.344L974.534 780.267ZM957.865 848.869L955.3 861.051L946.324 859.128L948.889 846.946L957.865 848.869ZM951.453 875.156L937.348 934.782L928.372 932.859L942.477 873.233L951.453 875.156Z" fill="white"></path> <path d="M1227.78 48.0853L937.346 934.782L929.011 932.217L1219.45 44.8796L1227.78 48.0853Z" fill="white"></path> <path d="M1300.23 75.0136L1279.07 125.664L1270.74 121.817L1291.9 71.1669L1300.23 75.0136ZM1275.23 133.999L1270.74 145.539L1262.4 141.692L1266.89 130.152L1275.23 133.999ZM1264.97 159.644L1241.25 216.064L1232.91 212.218L1256.63 155.797L1264.97 159.644ZM1237.4 224.399L1232.91 235.94L1224.58 232.093L1229.06 220.553L1237.4 224.399ZM1227.14 249.404L1203.42 305.824L1195.08 301.977L1218.81 245.557L1227.14 249.404ZM1199.57 314.159L1195.08 325.699L1186.75 321.853L1191.24 310.312L1199.57 314.159ZM1188.67 339.163L1164.95 395.584L1156.62 391.737L1180.34 335.317L1188.67 339.163ZM1161.74 403.919L1157.26 415.459L1148.92 411.612L1153.41 400.072L1161.74 403.919ZM1150.85 429.564L1127.12 485.984L1118.79 482.138L1142.51 425.717L1150.85 429.564ZM1123.92 493.678L1119.43 505.219L1111.09 501.372L1115.58 489.831L1123.92 493.678ZM1113.02 519.324L1089.3 575.744L1080.96 571.897L1104.68 515.477L1113.02 519.324ZM1085.45 584.079L1080.96 595.619L1072.63 591.773L1077.11 580.232L1085.45 584.079ZM1075.19 609.083L1051.47 665.504L1043.13 661.657L1066.86 605.237L1075.19 609.083ZM1047.62 673.839L1043.13 685.379L1034.8 681.532L1039.29 669.992L1047.62 673.839ZM1036.72 699.484L1013 755.904L1004.67 752.058L1028.39 695.637L1036.72 699.484ZM1009.79 763.598L1005.31 775.139L996.972 771.292L1001.46 759.751L1009.79 763.598ZM998.895 789.244L975.173 845.664L966.838 841.817L990.56 785.397L998.895 789.244ZM971.967 853.999L967.479 865.539L959.145 861.693L963.632 850.152L971.967 853.999ZM961.068 879.003L937.346 935.424L929.011 931.577L952.733 875.157L961.068 879.003Z" fill="white"></path> <path d="M1370.12 108.353L937.346 935.424L929.011 931.577L1361.78 104.506L1370.12 108.353Z" fill="white"></path> <path d="M1436.79 147.462L1407.3 193.624L1399.61 188.495L1429.1 142.333L1436.79 147.462ZM1402.81 201.318L1396.4 211.576L1388.71 206.447L1395.12 196.189L1402.81 201.318ZM1388.07 225.04L1355.37 276.331L1347.68 271.202L1380.37 219.911L1388.07 225.04ZM1350.24 284.025L1343.83 294.283L1336.13 289.154L1342.55 278.896L1350.24 284.025ZM1335.49 307.106L1302.8 358.397L1295.1 353.268L1327.8 301.977L1335.49 307.106ZM1298.31 366.732L1291.9 376.99L1284.2 371.861L1290.61 361.603L1298.31 366.732ZM1283.56 389.813L1250.86 441.104L1243.17 435.975L1275.87 384.684L1283.56 389.813ZM1245.73 448.798L1239.32 459.056L1231.63 453.927L1238.04 443.669L1245.73 448.798ZM1230.99 471.879L1198.29 523.17L1190.6 518.041L1223.29 466.75L1230.99 471.879ZM1193.8 531.505L1187.39 541.763L1179.7 536.634L1186.11 526.376L1193.8 531.505ZM1179.06 554.586L1146.36 605.877L1138.66 600.748L1171.36 549.457L1179.06 554.586ZM1141.23 614.212L1134.82 624.47L1127.12 619.341L1133.53 609.083L1141.23 614.212ZM1126.48 637.293L1093.78 688.584L1086.09 683.455L1118.79 632.164L1126.48 637.293ZM1088.65 696.278L1082.24 706.536L1074.55 701.407L1080.96 691.149L1088.65 696.278ZM1074.55 719.359L1041.85 770.65L1034.16 765.521L1066.86 714.23L1074.55 719.359ZM1036.72 778.985L1030.31 789.243L1022.62 784.114L1029.03 773.856L1036.72 778.985ZM1021.98 802.066L989.278 853.357L981.584 848.228L1014.28 796.937L1021.98 802.066ZM984.149 861.051L977.738 871.309L970.044 866.18L976.455 855.922L984.149 861.051ZM969.403 884.773L936.705 936.064L929.011 930.935L961.709 879.644L969.403 884.773Z" fill="white"></path> <path d="M1500.27 192.342L936.706 936.064L929.654 930.935L1493.22 186.572L1500.27 192.342Z" fill="white"></path> <path d="M1559.89 241.71L1523.35 282.743L1516.3 276.331L1552.84 235.298L1559.89 241.71ZM1516.94 289.154L1508.6 298.13L1501.55 291.719L1509.88 282.743L1516.94 289.154ZM1498.98 309.671L1457.95 355.192L1450.9 348.78L1491.93 303.259L1498.98 309.671ZM1452.18 361.603L1443.85 370.579L1436.79 364.168L1445.13 355.192L1452.18 361.603ZM1433.59 382.12L1392.56 427.64L1385.5 421.229L1426.54 375.708L1433.59 382.12ZM1386.78 434.693L1378.45 443.669L1371.4 437.258L1379.73 428.282L1386.78 434.693ZM1368.19 455.21L1327.16 500.73L1320.11 494.319L1361.14 448.798L1368.19 455.21ZM1321.39 507.142L1313.05 516.118L1306 509.706L1314.34 500.73L1321.39 507.142ZM1303.44 527.658L1262.4 573.179L1255.35 566.768L1296.38 521.247L1303.44 527.658ZM1256.63 580.232L1248.3 589.208L1241.25 582.796L1249.58 573.82L1256.63 580.232ZM1238.04 600.107L1197.01 645.628L1189.95 639.217L1230.99 593.696L1238.04 600.107ZM1191.24 652.681L1182.9 661.657L1175.85 655.245L1184.18 646.269L1191.24 652.681ZM1172.64 673.197L1131.61 718.718L1124.56 712.307L1165.59 666.786L1172.64 673.197ZM1125.84 725.129L1117.51 734.105L1110.45 727.694L1118.79 718.718L1125.84 725.129ZM1107.89 745.646L1066.86 791.167L1059.8 784.755L1100.84 739.234L1107.89 745.646ZM1061.09 798.219L1052.75 807.195L1045.7 800.784L1054.03 791.808L1061.09 798.219ZM1042.49 818.736L1001.46 864.257L994.407 857.845L1035.44 812.325L1042.49 818.736ZM995.689 870.668L987.355 879.644L980.302 873.233L988.637 864.257L995.689 870.668ZM977.096 891.185L936.063 936.706L929.011 930.294L970.044 884.773L977.096 891.185Z" fill="white"></path> <path d="M1615.03 295.566L936.065 936.706L930.294 930.294L1608.62 289.154L1615.03 295.566Z" fill="white"></path> <path d="M1665.04 354.55L1622.08 388.531L1616.31 381.478L1659.27 347.498L1665.04 354.55ZM1615.67 394.301L1606.06 401.995L1600.29 394.942L1609.9 387.249L1615.67 394.301ZM1593.87 411.612L1546.43 449.439L1540.66 442.387L1588.1 404.56L1593.87 411.612ZM1539.38 455.21L1529.76 462.903L1523.99 455.851L1533.61 448.157L1539.38 455.21ZM1517.58 472.52L1470.13 510.348L1464.36 503.295L1511.81 465.468L1517.58 472.52ZM1463.08 516.118L1453.46 523.811L1447.69 516.759L1457.31 509.065L1463.08 516.118ZM1441.28 533.429L1393.84 571.256L1388.07 564.203L1435.51 526.376L1441.28 533.429ZM1386.79 577.026L1377.17 584.72L1371.4 577.667L1381.02 569.974L1386.79 577.026ZM1364.99 594.337L1317.54 632.164L1311.77 625.112L1359.22 587.284L1364.99 594.337ZM1310.49 637.934L1300.87 645.628L1295.1 638.576L1304.72 630.882L1310.49 637.934ZM1288.69 655.245L1241.25 693.072L1235.48 686.02L1282.92 648.193L1288.69 655.245ZM1234.19 698.843L1224.58 706.536L1218.81 699.484L1228.42 691.79L1234.19 698.843ZM1212.4 716.154L1164.95 753.981L1159.18 746.928L1206.63 709.101L1212.4 716.154ZM1157.9 759.751L1148.28 767.445L1142.51 760.392L1152.13 752.698L1157.9 759.751ZM1136.1 777.062L1088.66 814.889L1082.89 807.837L1130.33 770.009L1136.1 777.062ZM1081.6 821.3L1071.99 828.994L1066.22 821.942L1075.83 814.248L1081.6 821.3ZM1059.8 837.97L1012.36 875.797L1006.59 868.745L1054.03 830.918L1059.8 837.97ZM1005.31 882.209L995.691 889.902L989.92 882.85L999.537 875.156L1005.31 882.209ZM983.509 898.878L936.065 936.706L930.294 929.653L977.739 891.826L983.509 898.878Z" fill="white"></path> <path d="M1710.56 416.741L935.423 937.347L930.294 929.653L1705.43 409.689L1710.56 416.741Z" fill="white"></path> <path d="M1750.95 483.42L1702.87 510.348L1698.38 502.654L1746.47 475.726L1750.95 483.42ZM1695.17 514.194L1684.27 519.965L1679.79 512.271L1690.69 506.501L1695.17 514.194ZM1670.81 527.658L1617.6 557.151L1613.11 549.457L1666.32 519.965L1670.81 527.658ZM1609.9 561.639L1599 567.409L1594.52 559.715L1605.41 553.945L1609.9 561.639ZM1585.54 575.103L1532.32 604.595L1527.84 596.901L1581.05 567.409L1585.54 575.103ZM1524.63 609.083L1513.73 614.853L1509.24 607.16L1520.14 601.389L1524.63 609.083ZM1500.27 622.547L1447.05 652.04L1442.56 644.346L1495.78 614.853L1500.27 622.547ZM1439.36 657.169L1428.46 662.939L1423.97 655.245L1434.87 649.475L1439.36 657.169ZM1415 669.991L1361.78 699.484L1357.29 691.79L1410.51 662.298L1415 669.991ZM1354.09 704.613L1343.19 710.383L1338.7 702.69L1349.6 696.919L1354.09 704.613ZM1329.72 718.077L1276.51 747.569L1272.02 739.876L1325.24 710.383L1329.72 718.077ZM1268.82 752.057L1257.92 757.828L1253.43 750.134L1264.33 744.364L1268.82 752.057ZM1244.45 765.521L1191.24 795.014L1186.75 787.32L1239.96 757.828L1244.45 765.521ZM1183.54 799.502L1172.64 805.272L1168.16 797.578L1179.06 791.808L1183.54 799.502ZM1159.18 812.966L1105.97 842.458L1101.48 834.764L1154.69 805.272L1159.18 812.966ZM1098.27 846.946L1087.37 852.716L1082.89 845.023L1093.78 839.252L1098.27 846.946ZM1073.91 860.41L1020.69 889.902L1016.21 882.209L1069.42 852.716L1073.91 860.41ZM1012.36 894.391L1001.46 900.161L996.973 892.467L1007.87 886.697L1012.36 894.391ZM988.638 907.854L935.423 937.347L930.935 929.653L984.15 900.161L988.638 907.854Z" fill="white"></path> <path d="M1813.79 624.47L1762.49 643.063L1759.29 634.728L1810.58 616.135L1813.79 624.47ZM1753.52 645.628L1741.98 649.475L1738.77 641.14L1750.31 637.293L1753.52 645.628ZM1727.87 655.245L1670.17 675.761L1666.96 667.427L1724.67 646.91L1727.87 655.245ZM1661.83 678.326L1650.29 682.173L1647.09 673.838L1658.63 669.991L1661.83 678.326ZM1636.19 687.943L1578.49 708.46L1575.28 700.125L1632.98 679.608L1636.19 687.943ZM1570.15 711.665L1558.61 715.512L1555.41 707.177L1566.95 703.33L1570.15 711.665ZM1543.87 720.641L1486.16 741.158L1482.96 732.823L1540.66 712.306L1543.87 720.641ZM1477.83 744.363L1466.29 748.21L1463.08 739.875L1474.62 736.029L1477.83 744.363ZM1452.18 753.339L1394.48 773.856L1391.27 765.521L1448.98 745.005L1452.18 753.339ZM1386.14 777.062L1374.6 780.908L1371.4 772.574L1382.94 768.727L1386.14 777.062ZM1359.86 786.037L1302.16 806.554L1298.95 798.219L1356.65 777.703L1359.86 786.037ZM1293.82 809.76L1282.28 813.606L1279.07 805.272L1290.61 801.425L1293.82 809.76ZM1268.17 818.736L1210.47 839.252L1207.27 830.917L1264.97 810.401L1268.17 818.736ZM1202.14 842.458L1190.6 846.305L1187.39 837.97L1198.93 834.123L1202.14 842.458ZM1175.85 852.075L1118.15 872.591L1114.94 864.257L1172.64 843.74L1175.85 852.075ZM1109.81 875.156L1098.27 879.003L1095.07 870.668L1106.61 866.821L1109.81 875.156ZM1084.17 884.773L1026.47 905.29L1023.26 896.955L1080.96 876.438L1084.17 884.773ZM1018.13 908.495L1006.59 912.342L1003.38 904.007L1014.92 900.16L1018.13 908.495ZM991.843 917.471L934.141 937.988L930.935 929.653L988.638 909.136L991.843 917.471Z" fill="white"></path> <path d="M1836.22 698.201L934.14 937.988L932.217 929.012L1834.3 689.225L1836.22 698.201Z" fill="white"></path> <path d="M1852.9 773.856L1799.04 783.473L1797.12 774.497L1850.97 764.88L1852.9 773.856ZM1790.06 785.396L1777.88 787.32L1775.96 778.344L1788.14 776.42L1790.06 785.396ZM1763.14 789.884L1702.87 800.784L1700.95 791.808L1761.21 780.908L1763.14 789.884ZM1693.89 802.066L1681.71 803.989L1679.79 795.013L1691.97 793.09L1693.89 802.066ZM1666.97 807.195L1606.7 818.094L1604.77 809.119L1665.04 798.219L1666.97 807.195ZM1597.72 819.377L1585.54 821.3L1583.62 812.324L1595.8 810.401L1597.72 819.377ZM1570.79 824.506L1510.53 835.405L1508.6 826.429L1568.87 815.53L1570.79 824.506ZM1501.55 836.688L1489.37 838.611L1487.45 829.635L1499.63 827.712L1501.55 836.688ZM1474.62 841.176L1414.36 852.075L1412.43 843.099L1472.7 832.2L1474.62 841.176ZM1405.38 853.998L1393.2 855.922L1391.28 846.946L1403.46 845.022L1405.38 853.998ZM1378.45 858.486L1318.19 869.386L1316.26 860.41L1376.53 849.51L1378.45 858.486ZM1309.21 871.309L1297.03 873.233L1295.1 864.257L1307.29 862.333L1309.21 871.309ZM1282.28 875.797L1222.01 886.696L1220.09 877.72L1280.36 866.821L1282.28 875.797ZM1213.04 887.979L1201.5 890.543L1199.57 881.567L1211.76 879.644L1213.04 887.979ZM1186.11 893.108L1125.84 904.007L1123.92 895.031L1184.19 884.132L1186.11 893.108ZM1116.87 905.29L1104.69 907.213L1102.76 898.237L1114.94 896.314L1116.87 905.29ZM1089.94 910.419L1029.67 921.318L1027.75 912.342L1088.02 901.443L1089.94 910.419ZM1021.34 922.6L1009.16 924.524L1007.23 915.548L1019.41 913.624L1021.34 922.6ZM993.768 927.088L933.501 937.988L931.578 929.012L991.845 918.112L993.768 927.088Z" fill="white"></path> <path d="M1863.15 850.793L1808.66 855.922L1808.02 846.946L1862.51 841.817L1863.15 850.793ZM1799.68 856.563L1787.5 857.845L1786.86 848.869L1799.04 847.587L1799.68 856.563ZM1772.11 859.127L1711.2 864.898L1710.56 855.922L1771.47 850.151L1772.11 859.127ZM1702.23 865.539L1690.05 866.821L1689.4 857.845L1701.59 856.563L1702.23 865.539ZM1674.66 868.103L1613.75 873.874L1613.11 864.898L1674.02 859.127L1674.66 868.103ZM1604.77 875.156L1592.59 876.438L1591.95 867.462L1604.13 866.18L1604.77 875.156ZM1577.85 877.72L1516.94 883.491L1516.3 874.515L1577.2 868.745L1577.85 877.72ZM1507.96 884.132L1495.78 885.414L1495.14 876.438L1507.32 875.156L1507.96 884.132ZM1480.39 886.696L1419.48 892.467L1418.84 883.491L1479.75 877.72L1480.39 886.696ZM1410.51 893.108L1398.33 894.39L1397.69 885.414L1409.87 884.132L1410.51 893.108ZM1382.94 895.672L1322.03 901.443L1321.39 892.467L1382.3 886.696L1382.94 895.672ZM1313.06 902.084L1300.87 903.366L1300.23 894.39L1312.41 893.108L1313.06 902.084ZM1286.13 904.648L1225.22 910.419L1224.58 901.443L1285.49 895.672L1286.13 904.648ZM1216.24 911.701L1204.06 912.983L1203.42 904.007L1215.6 902.725L1216.24 911.701ZM1188.67 914.265L1127.77 920.036L1127.12 911.06L1188.03 905.29L1188.67 914.265ZM1118.79 920.677L1106.61 921.959L1105.97 912.983L1118.15 911.701L1118.79 920.677ZM1091.22 923.241L1030.31 929.012L1029.67 920.036L1090.58 914.265L1091.22 923.241ZM1021.34 929.653L1009.15 930.935L1008.51 921.959L1020.7 920.677L1021.34 929.653ZM994.409 932.217L933.5 937.988L932.859 929.012L993.768 923.241L994.409 932.217Z" fill="white"></path> <path d="M1866.36 927.729L1811.86 928.371L1811.86 919.395L1866.36 918.753L1866.36 927.729ZM1802.89 928.371L1790.7 928.371L1790.7 919.395L1802.89 919.395L1802.89 928.371ZM1775.32 929.012L1714.41 929.653L1714.41 920.677L1775.32 920.036L1775.32 929.012ZM1705.43 929.653L1693.25 929.653L1693.25 920.677L1705.43 920.677L1705.43 929.653ZM1677.86 929.653L1616.96 930.294L1616.96 921.318L1677.86 920.677L1677.86 929.653ZM1607.34 930.935L1595.16 930.935L1595.16 921.959L1607.34 921.959L1607.34 930.935ZM1579.77 930.935L1518.86 931.576L1518.86 922.6L1579.77 921.959L1579.77 930.935ZM1509.88 931.576L1497.7 931.576L1497.7 922.6L1509.88 922.6L1509.88 931.576ZM1482.32 932.217L1421.41 932.859L1421.41 923.883L1482.32 923.241L1482.32 932.217ZM1412.43 932.859L1400.25 932.859L1400.25 923.883L1412.43 923.883L1412.43 932.859ZM1384.86 932.859L1323.95 933.5L1323.95 924.524L1384.86 923.883L1384.86 932.859ZM1314.34 934.141L1302.16 934.141L1302.16 925.165L1314.34 925.165L1314.34 934.141ZM1287.41 934.141L1226.5 934.782L1226.5 925.806L1287.41 925.165L1287.41 934.141ZM1216.88 934.782L1204.7 934.782L1204.7 925.806L1216.88 925.806L1216.88 934.782ZM1189.31 935.423L1128.41 936.064L1128.41 927.088L1189.31 926.447L1189.31 935.423ZM1119.43 936.064L1107.25 936.064L1107.25 927.088L1119.43 927.088L1119.43 936.064ZM1091.86 936.705L1030.95 937.347L1030.95 928.371L1091.86 927.729L1091.86 936.705ZM1021.98 937.347L1009.8 937.347L1009.8 928.371L1021.98 928.371L1021.98 937.347ZM994.408 937.347L933.5 937.988L933.5 929.012L994.408 928.371L994.408 937.347Z" fill="white"></path> <path d="M1864.44 996.332L1863.79 1005.31L1809.3 1001.46L1809.94 992.485L1864.44 996.332ZM1800.96 991.202L1800.32 1000.18L1788.14 999.537L1788.78 990.561L1800.96 991.202ZM1773.39 989.279L1772.75 998.255L1711.84 993.767L1712.49 984.791L1773.39 989.279ZM1703.51 984.15L1702.87 993.126L1690.69 992.485L1691.33 983.509L1703.51 984.15ZM1675.94 982.226L1675.3 991.202L1614.39 986.714L1615.03 977.739L1675.94 982.226ZM1606.06 977.097L1605.42 986.714L1593.23 986.073L1593.87 977.097L1606.06 977.097ZM1578.49 975.174L1577.85 984.15L1516.94 979.662L1517.58 970.686L1578.49 975.174ZM1508.6 970.686L1507.96 979.662L1495.78 979.021L1496.42 970.045L1508.6 970.686ZM1481.03 968.121L1480.39 977.097L1419.48 972.609L1420.13 963.633L1481.03 968.121ZM1411.15 963.633L1410.51 972.609L1398.33 971.968L1398.97 962.992L1411.15 963.633ZM1384.22 961.71L1383.58 970.686L1322.67 966.198L1323.31 957.222L1384.22 961.71ZM1313.7 956.581L1313.06 965.557L1300.87 964.916L1301.51 955.94L1313.7 956.581ZM1286.77 954.657L1286.13 963.633L1225.22 959.145L1225.86 950.17L1286.77 954.657ZM1216.24 949.528L1215.6 958.504L1203.42 957.863L1204.06 948.887L1216.24 949.528ZM1189.32 947.605L1188.67 956.581L1127.77 952.093L1128.41 943.117L1189.32 947.605ZM1119.43 942.476L1118.79 951.452L1106.61 950.811L1107.25 941.835L1119.43 942.476ZM1091.86 940.552L1091.22 949.528L1030.31 945.04L1030.95 936.064L1091.86 940.552ZM1021.98 935.423L1021.34 944.399L1009.15 943.758L1009.8 934.782L1021.98 935.423ZM994.409 933.5L993.768 942.476L932.859 937.988L933.5 929.012L994.409 933.5Z" fill="white"></path> <path d="M1856.1 1072.63L1854.82 1081.6L1800.96 1073.27L1802.25 1064.29L1856.1 1072.63ZM1793.27 1063.01L1791.99 1071.99L1779.81 1070.06L1781.09 1061.09L1793.27 1063.01ZM1765.7 1058.52L1764.42 1067.5L1704.15 1057.88L1705.43 1048.9L1765.7 1058.52ZM1696.46 1048.26L1695.17 1057.24L1682.99 1055.32L1684.28 1046.34L1696.46 1048.26ZM1669.53 1043.78L1668.25 1052.75L1607.98 1043.13L1609.26 1034.16L1669.53 1043.78ZM1600.29 1032.88L1599 1041.85L1586.82 1039.93L1588.1 1030.95L1600.29 1032.88ZM1572.72 1029.03L1571.43 1038.01L1511.17 1028.39L1512.45 1019.41L1572.72 1029.03ZM1503.47 1018.13L1502.19 1027.11L1490.01 1025.18L1491.29 1016.21L1503.47 1018.13ZM1476.55 1013.64L1475.26 1022.62L1415 1013L1416.28 1004.03L1476.55 1013.64ZM1407.3 1002.74L1406.02 1011.72L1393.84 1009.8L1395.12 1000.82L1407.3 1002.74ZM1379.73 998.896L1378.45 1007.87L1318.18 998.255L1319.47 989.279L1379.73 998.896ZM1310.49 987.997L1309.21 996.973L1297.03 995.049L1298.31 986.073L1310.49 987.997ZM1283.56 983.509L1282.28 992.485L1222.01 982.867L1223.3 973.892L1283.56 983.509ZM1214.32 972.609L1213.04 981.585L1200.86 979.662L1202.14 970.686L1214.32 972.609ZM1187.39 968.762L1186.11 977.738L1125.84 968.121L1127.12 959.145L1187.39 968.762ZM1117.51 957.863L1116.23 966.839L1104.04 964.916L1105.33 955.94L1117.51 957.863ZM1090.58 953.375L1089.3 962.351L1029.03 952.734L1030.31 943.758L1090.58 953.375ZM1021.34 942.476L1020.05 951.452L1007.87 949.528L1009.15 940.552L1021.34 942.476ZM994.409 938.629L993.126 947.605L932.859 937.988L934.141 929.012L994.409 938.629Z" fill="white"></path> <path d="M1841.35 1148.92L1839.43 1157.9L1786.22 1145.08L1788.14 1136.1L1841.35 1148.92ZM1779.16 1133.54L1777.24 1142.51L1765.7 1139.95L1767.62 1130.97L1779.16 1133.54ZM1752.88 1127.12L1750.95 1136.1L1691.33 1121.99L1693.25 1113.02L1752.88 1127.12ZM1684.27 1111.1L1682.35 1120.07L1670.81 1117.51L1672.73 1108.53L1684.27 1111.1ZM1657.99 1104.68L1656.06 1113.66L1596.44 1099.56L1598.36 1090.58L1657.99 1104.68ZM1589.39 1088.01L1587.46 1096.99L1575.28 1094.43L1577.2 1085.45L1589.39 1088.01ZM1563.1 1081.6L1561.18 1090.58L1501.55 1076.47L1503.47 1067.5L1563.1 1081.6ZM1494.5 1064.93L1492.57 1073.91L1480.39 1071.34L1482.31 1062.37L1494.5 1064.93ZM1468.21 1058.52L1466.29 1067.5L1406.66 1053.39L1408.58 1044.42L1468.21 1058.52ZM1399.61 1041.85L1397.68 1050.83L1386.14 1048.26L1388.07 1039.29L1399.61 1041.85ZM1373.32 1035.44L1371.4 1044.42L1311.77 1030.31L1313.69 1021.34L1373.32 1035.44ZM1304.72 1018.77L1302.8 1027.75L1291.26 1025.18L1293.18 1016.21L1304.72 1018.77ZM1278.43 1012.36L1276.51 1021.34L1216.88 1007.23L1218.81 998.255L1278.43 1012.36ZM1209.83 995.69L1207.91 1004.67L1195.73 1002.1L1197.65 993.126L1209.83 995.69ZM1183.54 989.279L1181.62 998.255L1121.99 984.15L1123.92 975.174L1183.54 989.279ZM1114.94 973.25L1113.02 982.226L1101.48 979.662L1103.4 970.686L1114.94 973.25ZM1088.65 966.198L1086.73 975.174L1027.11 961.069L1029.03 952.093L1088.65 966.198ZM1020.05 950.169L1018.13 959.145L1006.59 956.581L1008.51 947.605L1020.05 950.169ZM993.766 943.758L991.843 952.734L932.217 938.629L934.14 929.653L993.766 943.758Z" fill="white"></path> <path d="M1820.84 1223.3L1817.63 1232.27L1765.7 1214.96L1768.26 1205.98L1820.84 1223.3ZM1759.93 1203.42L1757.36 1212.4L1745.82 1208.55L1748.39 1199.57L1759.93 1203.42ZM1733.64 1194.44L1731.08 1203.42L1673.37 1184.19L1675.94 1175.21L1733.64 1194.44ZM1666.96 1172.65L1664.4 1181.62L1652.86 1177.77L1655.42 1168.8L1666.96 1172.65ZM1641.32 1163.67L1638.75 1172.65L1581.05 1153.41L1583.61 1144.43L1641.32 1163.67ZM1574.64 1141.87L1572.07 1150.85L1560.53 1147L1563.1 1138.02L1574.64 1141.87ZM1548.35 1132.89L1545.79 1141.87L1488.09 1122.64L1490.65 1113.66L1548.35 1132.89ZM1481.67 1111.1L1479.11 1120.07L1467.57 1116.22L1470.13 1107.25L1481.67 1111.1ZM1456.03 1102.12L1453.46 1111.1L1395.76 1091.86L1398.33 1082.89L1456.03 1102.12ZM1389.35 1080.32L1386.14 1089.3L1374.6 1085.45L1377.17 1076.47L1389.35 1080.32ZM1363.06 1071.34L1360.5 1080.32L1302.8 1061.09L1305.36 1052.11L1363.06 1071.34ZM1296.38 1049.55L1293.82 1058.52L1282.28 1054.68L1284.84 1045.7L1296.38 1049.55ZM1270.74 1040.57L1268.17 1049.55L1210.47 1030.31L1213.04 1021.34L1270.74 1040.57ZM1204.06 1018.77L1201.5 1027.75L1189.95 1023.9L1192.52 1014.92L1204.06 1018.77ZM1177.77 1009.8L1175.21 1018.77L1117.51 999.537L1120.07 990.561L1177.77 1009.8ZM1111.09 987.997L1108.53 996.973L1096.99 993.126L1099.55 984.15L1111.09 987.997ZM1085.45 979.021L1082.88 987.997L1025.18 968.763L1027.75 959.787L1085.45 979.021ZM1018.77 957.222L1016.21 966.198L1004.67 962.351L1007.23 953.375L1018.77 957.222ZM992.484 948.246L989.919 957.222L932.217 937.988L934.781 929.012L992.484 948.246Z" fill="white"></path> <path d="M1734.92 1270.74L1731.08 1279.07L1719.54 1274.59L1723.38 1266.25L1734.92 1270.74ZM1709.28 1259.84L1705.43 1268.18L1649.01 1244.45L1652.86 1236.12L1709.28 1259.84ZM1645.17 1232.27L1641.32 1240.61L1629.78 1236.12L1633.62 1227.78L1645.17 1232.27ZM1619.52 1221.37L1615.67 1229.71L1559.25 1205.98L1563.1 1197.65L1619.52 1221.37ZM1555.41 1193.8L1551.56 1202.14L1540.02 1197.65L1543.87 1189.32L1555.41 1193.8ZM1529.76 1183.54L1525.91 1191.88L1469.49 1168.16L1473.34 1159.82L1529.76 1183.54ZM1465.65 1155.98L1461.8 1164.31L1450.26 1159.82L1454.11 1151.49L1465.65 1155.98ZM1440 1145.08L1436.15 1153.41L1379.73 1129.69L1383.58 1121.35L1440 1145.08ZM1375.25 1117.51L1371.4 1125.84L1359.86 1121.35L1363.7 1113.02L1375.25 1117.51ZM1350.24 1106.61L1346.39 1114.94L1289.97 1091.22L1293.82 1082.89L1350.24 1106.61ZM1285.49 1079.04L1281.64 1087.37L1270.1 1082.89L1273.94 1074.55L1285.49 1079.04ZM1260.48 1068.14L1256.63 1076.47L1200.21 1052.75L1204.06 1044.42L1260.48 1068.14ZM1195.73 1040.57L1191.88 1048.91L1180.34 1044.42L1184.19 1036.08L1195.73 1040.57ZM1170.72 1030.31L1166.87 1038.65L1110.45 1014.92L1114.3 1006.59L1170.72 1030.31ZM1105.97 1002.74L1102.12 1011.08L1090.58 1006.59L1094.43 998.255L1105.97 1002.74ZM1080.96 991.844L1077.12 1000.18L1020.69 976.456L1024.54 968.122L1080.96 991.844ZM1016.21 964.275L1012.36 972.61L1000.82 968.122L1004.67 959.787L1016.21 964.275ZM991.202 953.375L987.356 961.71L930.935 937.988L934.782 929.653L991.202 953.375Z" fill="white"></path> <path d="M1760.57 1365.63L1756.08 1373.96L1708 1348.32L1712.48 1339.98L1760.57 1365.63ZM1704.15 1336.14L1699.66 1344.47L1688.76 1338.7L1693.25 1330.37L1704.15 1336.14ZM1679.79 1323.31L1675.3 1331.65L1621.44 1303.44L1625.93 1295.1L1679.79 1323.31ZM1617.6 1290.62L1613.11 1298.95L1602.21 1293.18L1606.7 1284.84L1617.6 1290.62ZM1593.23 1277.79L1588.74 1286.13L1534.89 1257.92L1539.38 1249.58L1593.23 1277.79ZM1531.68 1244.45L1527.2 1252.79L1516.3 1247.02L1520.78 1238.68L1531.68 1244.45ZM1507.32 1231.63L1502.83 1239.97L1448.98 1211.76L1453.46 1203.42L1507.32 1231.63ZM1445.13 1198.93L1440.64 1207.27L1429.74 1201.5L1434.23 1193.16L1445.13 1198.93ZM1420.77 1186.11L1416.28 1194.44L1362.42 1166.23L1366.91 1157.9L1420.77 1186.11ZM1358.58 1153.41L1354.09 1161.75L1343.19 1155.98L1347.68 1147.64L1358.58 1153.41ZM1334.85 1140.59L1330.37 1148.92L1276.51 1120.71L1281 1112.38L1334.85 1140.59ZM1272.66 1107.89L1268.17 1116.23L1257.28 1110.45L1261.76 1102.12L1272.66 1107.89ZM1248.3 1095.07L1243.81 1103.4L1189.96 1075.19L1194.44 1066.86L1248.3 1095.07ZM1186.11 1062.37L1181.62 1070.7L1170.72 1064.93L1175.21 1056.6L1186.11 1062.37ZM1161.75 1049.55L1157.26 1057.88L1103.4 1029.67L1107.89 1021.34L1161.75 1049.55ZM1099.56 1016.85L1095.07 1025.18L1084.17 1019.41L1088.66 1011.08L1099.56 1016.85ZM1075.83 1003.38L1071.34 1011.72L1017.49 983.509L1021.98 975.174L1075.83 1003.38ZM1013.64 970.686L1009.15 979.021L998.255 973.251L1002.74 964.916L1013.64 970.686ZM989.279 957.864L984.791 966.198L930.935 937.988L935.423 929.653L989.279 957.864Z" fill="white"></path> <path d="M1722.1 1432.95L1716.97 1440.64L1670.81 1411.15L1675.94 1403.46L1722.1 1432.95ZM1668.25 1398.33L1663.12 1406.02L1652.86 1399.61L1657.99 1391.91L1668.25 1398.33ZM1645.17 1383.58L1640.04 1391.27L1588.75 1358.58L1593.87 1350.88L1645.17 1383.58ZM1586.18 1345.75L1581.05 1353.45L1570.79 1347.04L1575.92 1339.34L1586.18 1345.75ZM1563.1 1331.01L1557.97 1338.7L1506.68 1306L1511.81 1298.31L1563.1 1331.01ZM1503.47 1293.18L1498.34 1300.87L1488.09 1294.46L1493.22 1286.77L1503.47 1293.18ZM1480.39 1278.43L1475.26 1286.13L1423.97 1253.43L1429.1 1245.73L1480.39 1278.43ZM1421.41 1240.61L1416.28 1248.3L1406.02 1241.89L1411.15 1234.19L1421.41 1240.61ZM1398.33 1225.86L1393.2 1233.55L1341.91 1200.86L1347.04 1193.16L1398.33 1225.86ZM1339.34 1188.03L1334.21 1195.73L1323.95 1189.31L1329.08 1181.62L1339.34 1188.03ZM1316.26 1173.29L1311.13 1180.98L1259.84 1148.28L1264.97 1140.59L1316.26 1173.29ZM1256.63 1135.46L1251.51 1143.15L1241.25 1136.74L1246.38 1129.05L1256.63 1135.46ZM1233.55 1120.71L1228.42 1128.41L1177.13 1095.71L1182.26 1088.01L1233.55 1120.71ZM1174.57 1082.89L1169.44 1090.58L1159.18 1084.17L1164.31 1076.47L1174.57 1082.89ZM1151.49 1068.14L1146.36 1075.83L1095.07 1043.13L1100.2 1035.44L1151.49 1068.14ZM1092.5 1030.31L1087.37 1038.01L1077.12 1031.59L1082.24 1023.9L1092.5 1030.31ZM1069.42 1015.57L1064.29 1023.26L1013 990.561L1018.13 982.868L1069.42 1015.57ZM1010.44 977.739L1005.31 985.432L995.049 979.021L1000.18 971.327L1010.44 977.739ZM986.715 962.351L981.586 970.045L930.294 937.347L935.423 929.653L986.715 962.351Z" fill="white"></path> <path d="M1677.86 1496.42L1672.09 1503.47L1628.5 1470.13L1634.27 1463.08L1677.86 1496.42ZM1627.21 1457.95L1621.44 1465L1611.83 1457.31L1617.6 1450.26L1627.21 1457.95ZM1605.42 1441.28L1599.64 1448.34L1550.92 1411.15L1556.69 1404.1L1605.42 1441.28ZM1549.64 1398.33L1543.87 1405.38L1534.25 1397.69L1540.02 1390.63L1549.64 1398.33ZM1527.84 1381.66L1522.07 1388.71L1473.34 1351.52L1479.11 1344.47L1527.84 1381.66ZM1472.06 1339.34L1466.29 1346.39L1456.67 1338.7L1462.44 1331.65L1472.06 1339.34ZM1450.26 1322.67L1444.49 1329.72L1395.76 1292.54L1401.53 1285.49L1450.26 1322.67ZM1394.48 1279.72L1388.71 1286.77L1379.09 1279.07L1384.86 1272.02L1394.48 1279.72ZM1372.68 1263.05L1366.91 1270.1L1318.18 1232.91L1323.95 1225.86L1372.68 1263.05ZM1316.9 1220.73L1311.13 1227.78L1301.51 1220.09L1307.29 1213.04L1316.9 1220.73ZM1295.1 1204.06L1289.33 1211.11L1240.61 1173.93L1246.38 1166.87L1295.1 1204.06ZM1239.32 1161.1L1233.55 1168.16L1223.94 1160.46L1229.71 1153.41L1239.32 1161.1ZM1217.53 1144.43L1211.76 1151.49L1163.03 1114.3L1168.8 1107.25L1217.53 1144.43ZM1161.75 1102.12L1155.98 1109.17L1146.36 1101.48L1152.13 1094.43L1161.75 1102.12ZM1139.95 1085.45L1134.18 1092.5L1085.45 1055.32L1091.22 1048.26L1139.95 1085.45ZM1084.17 1043.13L1078.4 1050.19L1068.78 1042.49L1074.55 1035.44L1084.17 1043.13ZM1061.73 1026.47L1055.96 1033.52L1007.23 996.332L1013 989.279L1061.73 1026.47ZM1005.95 983.509L1000.18 990.561L990.562 982.868L996.332 975.815L1005.95 983.509ZM984.15 966.839L978.38 973.892L929.654 936.706L935.424 929.653L984.15 966.839Z" fill="white"></path> <path d="M1628.5 1556.05L1622.73 1563.1L930.294 936.706L936.065 930.294L1628.5 1556.05Z" fill="white"></path> <path d="M1574.64 1611.83L1568.23 1618.24L1531.04 1578.49L1537.45 1572.08L1574.64 1611.83ZM1531.04 1565.02L1524.63 1571.43L1516.3 1562.46L1522.71 1556.05L1531.04 1565.02ZM1512.45 1545.15L1506.04 1551.56L1464.36 1507.32L1470.78 1500.91L1512.45 1545.15ZM1464.36 1493.86L1457.95 1500.27L1449.62 1491.29L1456.03 1484.88L1464.36 1493.86ZM1445.77 1473.98L1439.36 1480.39L1397.69 1436.15L1404.1 1429.74L1445.77 1473.98ZM1397.69 1422.69L1391.27 1429.1L1382.94 1420.13L1389.35 1413.71L1397.69 1422.69ZM1379.09 1402.17L1372.68 1408.58L1331.01 1364.35L1337.42 1357.93L1379.09 1402.17ZM1331.01 1351.52L1324.6 1357.93L1316.26 1348.96L1322.67 1342.55L1331.01 1351.52ZM1311.77 1331.01L1305.36 1337.42L1263.69 1293.18L1270.1 1286.77L1311.77 1331.01ZM1264.33 1279.72L1257.92 1286.13L1249.58 1277.15L1255.99 1270.74L1264.33 1279.72ZM1245.09 1259.84L1238.68 1266.25L1197.01 1222.01L1203.42 1215.6L1245.09 1259.84ZM1197.01 1208.55L1190.6 1214.96L1182.26 1205.98L1188.67 1199.57L1197.01 1208.55ZM1178.42 1188.67L1172 1195.08L1130.33 1150.85L1136.74 1144.43L1178.42 1188.67ZM1130.33 1137.38L1123.92 1143.79L1115.58 1134.82L1122 1128.41L1130.33 1137.38ZM1111.74 1117.51L1105.33 1123.92L1063.65 1079.68L1070.06 1073.27L1111.74 1117.51ZM1063.65 1066.22L1057.24 1072.63L1048.91 1063.65L1055.32 1057.24L1063.65 1066.22ZM1045.06 1046.34L1038.65 1052.75L996.973 1008.51L1003.38 1002.1L1045.06 1046.34ZM996.973 995.049L990.561 1001.46L982.226 992.485L988.638 986.073L996.973 995.049ZM978.38 975.174L971.968 981.585L930.294 937.347L936.706 930.935L978.38 975.174Z" fill="white"></path> <path d="M1516.3 1662.48L1509.24 1668.25L929.654 936.706L936.706 930.935L1516.3 1662.48Z" fill="white"></path> <path d="M1454.1 1708L1446.41 1713.13L1416.28 1667.61L1423.97 1662.48L1454.1 1708ZM1418.84 1654.78L1411.15 1659.91L1404.1 1649.65L1411.79 1644.52L1418.84 1654.78ZM1403.45 1632.34L1395.76 1637.47L1361.78 1586.82L1369.47 1581.69L1403.45 1632.34ZM1364.99 1574L1357.29 1579.13L1350.24 1568.87L1357.93 1563.74L1364.99 1574ZM1349.6 1550.92L1341.91 1556.05L1307.92 1505.4L1315.62 1500.27L1349.6 1550.92ZM1310.49 1492.57L1302.8 1497.7L1295.74 1487.44L1303.44 1482.32L1310.49 1492.57ZM1295.1 1469.49L1287.41 1474.62L1253.43 1423.97L1261.12 1418.84L1295.1 1469.49ZM1256.63 1411.15L1248.94 1416.28L1241.89 1406.02L1249.58 1400.89L1256.63 1411.15ZM1241.25 1388.07L1233.55 1393.2L1199.57 1342.55L1207.27 1337.42L1241.25 1388.07ZM1202.14 1329.72L1194.44 1334.85L1187.39 1324.6L1195.08 1319.47L1202.14 1329.72ZM1187.39 1307.28L1179.7 1312.41L1145.72 1261.76L1153.41 1256.63L1187.39 1307.28ZM1148.28 1248.3L1140.59 1253.43L1133.53 1243.17L1141.23 1238.04L1148.28 1248.3ZM1132.89 1225.86L1125.2 1230.99L1091.22 1180.34L1098.91 1175.21L1132.89 1225.86ZM1094.42 1167.52L1086.73 1172.65L1079.68 1162.39L1087.37 1157.26L1094.42 1167.52ZM1079.04 1144.44L1071.34 1149.56L1037.36 1098.91L1045.06 1093.78L1079.04 1144.44ZM1039.93 1086.09L1032.23 1091.22L1025.18 1080.96L1032.88 1075.83L1039.93 1086.09ZM1024.54 1063.01L1016.85 1068.14L982.867 1017.49L990.56 1012.36L1024.54 1063.01ZM986.072 1004.67L978.379 1009.8L971.326 999.537L979.02 994.408L986.072 1004.67ZM970.685 981.585L962.991 986.715L929.011 936.064L936.705 930.935L970.685 981.585Z" fill="white"></path> <path d="M1388.07 1748.39L1380.37 1752.88L929.011 936.065L937.346 931.577L1388.07 1748.39Z" fill="white"></path> <path d="M1319.47 1783.65L1311.13 1787.5L1288.69 1737.49L1297.03 1733.64L1319.47 1783.65ZM1293.18 1725.31L1284.84 1729.15L1279.71 1718.26L1288.05 1714.41L1293.18 1725.31ZM1281.64 1700.3L1273.3 1704.15L1248.3 1648.37L1256.63 1644.52L1281.64 1700.3ZM1253.43 1636.19L1245.09 1640.04L1239.96 1629.14L1248.3 1625.29L1253.43 1636.19ZM1241.89 1611.18L1233.55 1615.03L1208.55 1559.25L1216.88 1555.41L1241.89 1611.18ZM1213.04 1547.07L1204.7 1550.92L1199.57 1540.02L1207.91 1536.17L1213.04 1547.07ZM1202.14 1522.07L1193.8 1525.91L1168.8 1470.13L1177.13 1466.29L1202.14 1522.07ZM1173.29 1457.95L1164.95 1461.8L1159.82 1450.9L1168.16 1447.05L1173.29 1457.95ZM1161.74 1432.95L1153.41 1436.79L1128.41 1381.02L1136.74 1377.17L1161.74 1432.95ZM1133.53 1368.83L1125.2 1372.68L1120.07 1361.78L1128.41 1357.93L1133.53 1368.83ZM1121.99 1343.83L1113.66 1347.68L1088.65 1291.9L1096.99 1288.05L1121.99 1343.83ZM1093.14 1279.72L1084.81 1283.56L1079.68 1272.66L1088.01 1268.82L1093.14 1279.72ZM1082.24 1254.71L1073.91 1258.56L1048.9 1202.78L1057.24 1198.93L1082.24 1254.71ZM1053.39 1190.6L1045.06 1194.44L1039.93 1183.54L1048.26 1179.7L1053.39 1190.6ZM1041.85 1165.59L1033.52 1169.44L1008.51 1113.66L1016.85 1109.81L1041.85 1165.59ZM1013.64 1101.48L1005.31 1105.33L1000.18 1094.43L1008.51 1090.58L1013.64 1101.48ZM1002.1 1076.47L993.766 1080.32L968.762 1024.54L977.096 1020.69L1002.1 1076.47ZM973.249 1012.36L964.915 1016.21L959.786 1005.31L968.12 1001.46L973.249 1012.36ZM962.35 987.355L954.015 991.202L929.011 935.423L937.346 931.576L962.35 987.355Z" fill="white"></path> <path d="M1247.66 1812.5L1238.68 1815.71L929.011 935.424L937.346 932.218L1247.66 1812.5Z" fill="white"></path> <path d="M1173.93 1835.58L1164.95 1838.15L1150.85 1784.93L1159.82 1782.37L1173.93 1835.58ZM1157.26 1774.03L1148.28 1776.6L1145.08 1765.06L1154.05 1762.49L1157.26 1774.03ZM1150.85 1747.11L1141.87 1749.67L1126.48 1690.69L1135.46 1688.12L1150.85 1747.11ZM1132.9 1679.15L1123.92 1681.71L1120.71 1670.17L1129.69 1667.61L1132.9 1679.15ZM1125.84 1652.86L1116.87 1655.42L1101.48 1596.44L1110.46 1593.87L1125.84 1652.86ZM1107.89 1584.9L1098.92 1587.46L1095.71 1575.92L1104.69 1573.36L1107.89 1584.9ZM1101.48 1558.61L1092.5 1561.18L1077.12 1502.19L1086.09 1499.63L1101.48 1558.61ZM1083.53 1490.65L1074.55 1493.22L1071.35 1481.67L1080.32 1479.11L1083.53 1490.65ZM1076.48 1463.72L1067.5 1466.29L1052.11 1407.3L1061.09 1404.74L1076.48 1463.72ZM1058.52 1395.76L1049.55 1398.33L1046.34 1386.79L1055.32 1384.22L1058.52 1395.76ZM1051.47 1369.48L1042.5 1372.04L1027.11 1313.05L1036.08 1310.49L1051.47 1369.48ZM1034.16 1301.51L1025.18 1304.08L1021.98 1292.54L1030.95 1289.97L1034.16 1301.51ZM1027.11 1274.59L1018.13 1277.15L1002.74 1218.17L1011.72 1215.6L1027.11 1274.59ZM1009.16 1207.27L1000.18 1209.83L996.974 1198.29L1005.95 1195.73L1009.16 1207.27ZM1002.1 1180.34L993.127 1182.9L977.74 1123.92L986.716 1121.35L1002.1 1180.34ZM984.793 1112.38L975.816 1114.94L972.611 1103.4L981.587 1100.84L984.793 1112.38ZM977.74 1086.09L968.764 1088.66L953.376 1029.67L962.353 1027.11L977.74 1086.09ZM959.788 1018.13L950.812 1020.69L947.606 1009.15L956.582 1006.59L959.788 1018.13ZM952.736 991.202L943.759 993.767L928.372 934.782L937.348 932.218L952.736 991.202Z" fill="white"></path> <path d="M1098.27 1852.25L1089.3 1854.18L928.372 934.141L937.348 932.859L1098.27 1852.25Z" fill="white"></path> <path d="M1021.34 1863.15L1012.36 1863.79L1007.23 1809.3L1016.21 1808.66L1021.34 1863.15ZM1015.57 1799.04L1006.59 1799.68L1005.31 1787.5L1014.28 1786.86L1015.57 1799.04ZM1013.64 1772.11L1004.67 1772.75L998.898 1711.84L1007.87 1711.2L1013.64 1772.11ZM1007.23 1702.23L998.256 1702.87L996.974 1690.69L1005.95 1690.05L1007.23 1702.23ZM1004.67 1674.66L995.692 1675.3L989.922 1615.03L998.898 1614.39L1004.67 1674.66ZM998.256 1604.77L989.28 1605.41L987.998 1593.23L996.974 1592.59L998.256 1604.77ZM995.692 1577.2L986.716 1577.85L980.946 1516.94L989.922 1516.3L995.692 1577.2ZM989.28 1507.32L980.304 1507.96L979.022 1495.78L987.998 1495.14L989.28 1507.32ZM986.716 1480.39L977.74 1481.03L971.97 1420.13L980.946 1419.48L986.716 1480.39ZM980.946 1410.51L971.97 1411.15L970.687 1398.97L979.663 1398.33L980.946 1410.51ZM978.381 1382.94L969.405 1383.58L963.635 1322.67L972.611 1322.03L978.381 1382.94ZM971.97 1313.06L962.994 1313.7L961.711 1301.51L970.687 1300.87L971.97 1313.06ZM969.405 1285.49L960.429 1286.13L954.659 1225.22L963.635 1224.58L969.405 1285.49ZM962.994 1215.6L954.018 1216.24L952.736 1204.06L961.711 1203.42L962.994 1215.6ZM960.429 1188.67L951.453 1189.31L945.683 1128.41L954.659 1127.77L960.429 1188.67ZM954.659 1118.79L945.683 1119.43L944.401 1107.25L953.376 1106.61L954.659 1118.79ZM952.094 1091.22L943.118 1091.86L937.348 1030.95L946.324 1030.31L952.094 1091.22ZM945.683 1021.34L936.707 1021.98L935.425 1009.8L944.401 1009.15L945.683 1021.34ZM943.118 993.767L934.142 994.408L928.372 933.5L937.348 932.859L943.118 993.767Z" fill="white"></path> <path d="M944.401 1867L935.425 1867L928.372 933.5L937.989 933.5L944.401 1867Z" fill="white"></path> <path d="M937.988 934.141L933.5 995.049L924.524 994.408L929.012 933.5L937.988 934.141ZM932.217 1009.8L931.576 1021.98L922.6 1021.34L923.241 1009.15L932.217 1009.8ZM930.294 1031.59L925.806 1092.5L916.83 1091.86L921.318 1030.95L930.294 1031.59ZM924.524 1107.25L923.883 1119.43L914.907 1118.79L915.548 1106.61L924.524 1107.25ZM922.6 1128.41L918.112 1189.31L909.136 1188.67L913.624 1127.77L922.6 1128.41ZM916.83 1204.7L916.189 1216.88L907.213 1216.24L907.854 1204.06L916.83 1204.7ZM915.548 1225.86L911.06 1286.77L902.084 1286.13L906.572 1225.22L915.548 1225.86ZM909.778 1302.16L909.136 1314.34L900.16 1313.7L900.802 1301.51L909.778 1302.16ZM907.854 1323.31L903.366 1384.22L894.39 1383.58L898.878 1322.67L907.854 1323.31ZM902.084 1399.61L901.443 1411.79L892.467 1411.15L893.108 1398.97L902.084 1399.61ZM900.802 1420.77L896.314 1481.67L887.338 1481.03L891.826 1420.13L900.802 1420.77ZM895.031 1497.06L894.39 1509.24L885.414 1508.6L886.055 1496.42L895.031 1497.06ZM893.108 1518.22L888.62 1579.13L879.644 1578.49L884.132 1517.58L893.108 1518.22ZM887.338 1594.52L886.696 1606.7L877.721 1606.06L878.362 1593.87L887.338 1594.52ZM886.055 1615.67L881.567 1676.58L872.591 1675.94L877.079 1615.03L886.055 1615.67ZM880.285 1691.33L879.644 1703.51L870.668 1702.87L871.309 1690.69L880.285 1691.33ZM878.362 1713.13L873.874 1774.03L864.898 1773.39L869.386 1712.48L878.362 1713.13ZM872.592 1788.78L871.95 1800.96L862.974 1800.32L863.615 1788.14L872.592 1788.78ZM871.309 1809.94L867.462 1864.44L858.486 1863.79L862.333 1809.3L871.309 1809.94Z" fill="white"></path> <path d="M937.348 934.141L789.886 1856.1L780.91 1854.82L928.372 932.859L937.348 934.141Z" fill="white"></path> <path d="M937.346 934.782L922.6 993.767L913.624 991.844L928.37 932.859L937.346 934.782ZM919.394 1008.51L916.188 1020.05L907.212 1018.13L910.418 1006.59L919.394 1008.51ZM914.265 1029.67L899.519 1088.66L890.543 1086.73L905.289 1027.75L914.265 1029.67ZM895.672 1103.4L892.466 1114.94L883.49 1113.02L886.696 1101.48L895.672 1103.4ZM890.543 1124.56L875.797 1183.54L866.821 1181.62L881.567 1122.64L890.543 1124.56ZM872.591 1198.29L869.385 1209.83L860.409 1207.91L863.615 1196.37L872.591 1198.29ZM867.462 1218.81L852.716 1277.79L843.74 1275.87L858.486 1216.88L867.462 1218.81ZM849.51 1293.18L846.304 1304.72L837.328 1302.8L840.534 1291.26L849.51 1293.18ZM844.381 1313.7L829.634 1372.68L820.659 1370.76L835.405 1311.77L844.381 1313.7ZM825.788 1388.07L822.582 1399.61L813.606 1397.69L816.812 1386.14L825.788 1388.07ZM820.659 1408.58L805.912 1467.57L796.936 1465.65L811.683 1406.66L820.659 1408.58ZM802.707 1482.96L799.501 1494.5L790.525 1492.57L793.731 1481.03L802.707 1482.96ZM797.577 1503.47L782.831 1562.46L773.855 1560.53L788.602 1501.55L797.577 1503.47ZM778.984 1577.85L775.779 1589.39L766.803 1587.46L770.009 1575.92L778.984 1577.85ZM773.855 1598.36L759.109 1657.35L750.133 1655.42L764.879 1596.44L773.855 1598.36ZM755.903 1672.73L752.698 1684.27L743.722 1682.35L746.927 1670.81L755.903 1672.73ZM750.774 1693.25L736.028 1752.24L727.052 1750.31L741.798 1691.33L750.774 1693.25ZM732.181 1766.98L728.975 1778.52L720 1776.6L723.205 1765.06L732.181 1766.98ZM727.052 1788.14L714.229 1841.35L705.253 1839.43L718.076 1786.22L727.052 1788.14Z" fill="white"></path> <path d="M937.345 934.782L639.856 1819.56L630.88 1816.99L929.011 932.217L937.345 934.782Z" fill="white"></path> <path d="M937.347 935.424L912.984 991.203L904.649 987.356L929.012 931.577L937.347 935.424ZM907.214 1005.31L902.084 1016.21L893.75 1012.36L898.879 1001.46L907.214 1005.31ZM898.879 1025.18L874.515 1080.96L866.181 1077.12L890.544 1021.34L898.879 1025.18ZM868.104 1095.07L862.975 1105.97L854.64 1102.12L859.769 1091.22L868.104 1095.07ZM859.769 1114.94L835.406 1170.72L827.071 1166.88L851.434 1111.1L859.769 1114.94ZM829.636 1184.83L824.507 1195.73L816.172 1191.88L821.301 1180.98L829.636 1184.83ZM821.301 1204.7L796.937 1260.48L788.603 1256.63L812.966 1200.86L821.301 1204.7ZM791.167 1274.59L786.038 1285.49L777.703 1281.64L782.832 1270.74L791.167 1274.59ZM782.832 1293.82L758.469 1349.6L750.134 1345.75L774.498 1289.97L782.832 1293.82ZM752.058 1364.35L746.929 1375.25L738.594 1371.4L743.723 1360.5L752.058 1364.35ZM743.723 1383.58L719.359 1439.36L711.025 1435.51L735.388 1379.73L743.723 1383.58ZM713.589 1453.46L708.46 1464.36L700.125 1460.52L705.254 1449.62L713.589 1453.46ZM705.254 1473.34L680.891 1529.12L672.556 1525.27L696.92 1469.49L705.254 1473.34ZM675.121 1543.22L669.992 1554.12L661.657 1550.28L666.786 1539.38L675.121 1543.22ZM666.786 1563.1L642.423 1618.88L634.088 1615.03L658.451 1559.25L666.786 1563.1ZM636.011 1632.98L630.882 1643.88L622.547 1640.04L627.676 1629.14L636.011 1632.98ZM627.676 1652.86L603.313 1708.64L594.978 1704.79L619.342 1649.01L627.676 1652.86ZM597.543 1722.74L592.414 1733.64L584.079 1729.8L589.208 1718.9L597.543 1722.74ZM589.208 1742.62L567.409 1792.63L559.074 1788.78L580.873 1738.77L589.208 1742.62Z" fill="white"></path> <path d="M937.347 936.065L497.525 1759.29L489.831 1754.8L929.012 931.577L937.347 936.065Z" fill="white"></path> <path d="M936.706 936.065L903.367 987.356L895.673 982.227L929.013 930.935L936.706 936.065ZM895.673 1000.18L889.262 1010.44L881.568 1005.31L887.98 995.049L895.673 1000.18ZM884.133 1018.13L850.794 1069.42L843.1 1064.29L876.439 1013L884.133 1018.13ZM842.459 1082.24L836.047 1092.5L828.354 1087.37L834.765 1077.12L842.459 1082.24ZM830.918 1100.2L797.579 1151.49L789.885 1146.36L823.225 1095.07L830.918 1100.2ZM789.885 1164.31L783.474 1174.57L775.78 1169.44L782.192 1159.18L789.885 1164.31ZM778.345 1182.26L745.005 1233.55L737.312 1228.42L770.651 1177.13L778.345 1182.26ZM736.671 1246.38L730.259 1256.63L722.565 1251.51L728.977 1241.25L736.671 1246.38ZM725.13 1264.33L691.791 1315.62L684.097 1310.49L717.436 1259.2L725.13 1264.33ZM684.097 1328.44L677.686 1338.7L669.992 1333.57L676.404 1323.31L684.097 1328.44ZM671.915 1346.39L638.576 1397.69L630.883 1392.56L664.222 1341.27L671.915 1346.39ZM630.883 1410.51L624.471 1420.77L616.777 1415.64L623.189 1405.38L630.883 1410.51ZM619.342 1428.46L586.003 1479.75L578.309 1474.62L611.648 1423.33L619.342 1428.46ZM577.668 1492.57L571.257 1502.83L563.563 1497.7L569.974 1487.45L577.668 1492.57ZM566.127 1510.53L532.788 1561.82L525.094 1556.69L558.434 1505.4L566.127 1510.53ZM525.094 1574.64L518.683 1584.9L510.989 1579.77L517.401 1569.51L525.094 1574.64ZM513.554 1592.59L480.215 1643.88L472.521 1638.75L505.86 1587.46L513.554 1592.59ZM471.88 1656.71L465.468 1666.96L457.775 1661.84L464.186 1651.58L471.88 1656.71ZM460.339 1674.66L430.847 1720.82L423.153 1715.69L452.646 1669.53L460.339 1674.66Z" fill="white"></path> <path d="M936.705 936.706L367.372 1675.94L360.319 1670.81L929.652 930.936L936.705 936.706Z" fill="white"></path> <path d="M936.706 936.706L895.673 981.585L888.62 975.174L929.653 930.294L936.706 936.706ZM885.415 993.126L877.08 1002.1L870.027 995.691L878.362 986.715L885.415 993.126ZM870.668 1009.15L829.635 1054.03L822.583 1047.62L863.616 1002.74L870.668 1009.15ZM819.377 1065.57L811.042 1074.55L803.99 1068.14L812.325 1059.16L819.377 1065.57ZM805.272 1080.96L764.239 1125.84L757.187 1119.43L798.22 1074.55L805.272 1080.96ZM753.34 1137.38L745.005 1146.36L737.953 1139.95L746.287 1130.97L753.34 1137.38ZM739.235 1153.41L698.202 1198.29L691.149 1191.88L732.182 1147L739.235 1153.41ZM687.943 1209.83L679.609 1218.81L672.556 1212.4L680.891 1203.42L687.943 1209.83ZM673.197 1225.22L632.164 1270.1L625.112 1263.69L666.145 1218.81L673.197 1225.22ZM621.906 1281.64L613.571 1290.62L606.519 1284.2L614.854 1275.23L621.906 1281.64ZM607.801 1297.67L566.768 1342.55L559.715 1336.14L600.748 1291.26L607.801 1297.67ZM556.51 1354.09L548.175 1363.06L541.122 1356.65L549.457 1347.68L556.51 1354.09ZM541.764 1369.48L500.731 1414.36L493.678 1407.94L534.711 1363.06L541.764 1369.48ZM490.472 1425.9L482.137 1434.87L475.085 1428.46L483.42 1419.48L490.472 1425.9ZM476.367 1441.92L435.334 1486.8L428.282 1480.39L469.315 1435.51L476.367 1441.92ZM425.076 1498.34L416.741 1507.32L409.689 1500.91L418.023 1491.93L425.076 1498.34ZM410.33 1514.37L369.297 1559.25L362.244 1552.84L403.277 1507.96L410.33 1514.37ZM359.039 1570.79L350.704 1579.77L343.651 1573.36L351.986 1564.38L359.039 1570.79ZM344.934 1586.18L308.389 1626.57L301.336 1620.16L337.881 1579.77L344.934 1586.18Z" fill="white"></path> <path d="M936.064 936.705L252.609 1572.72L246.197 1565.66L930.294 930.294L936.064 936.705Z" fill="white"></path> <path d="M936.066 937.347L887.98 975.174L882.21 968.121L930.295 930.294L936.066 937.347ZM875.798 984.15L866.181 991.844L860.411 984.791L870.028 977.097L875.798 984.15ZM859.129 997.614L811.043 1035.44L805.273 1028.39L853.359 990.561L859.129 997.614ZM799.503 1044.42L789.886 1052.11L784.115 1045.06L793.732 1037.36L799.503 1044.42ZM782.192 1057.88L734.106 1095.71L728.336 1088.66L776.422 1050.83L782.192 1057.88ZM722.566 1105.33L712.949 1113.02L707.178 1105.97L716.796 1098.27L722.566 1105.33ZM705.896 1118.15L657.811 1155.98L652.04 1148.92L700.126 1111.1L705.896 1118.15ZM645.629 1165.59L636.012 1173.29L630.242 1166.23L639.859 1158.54L645.629 1165.59ZM628.96 1178.42L580.874 1216.24L575.104 1209.19L623.189 1171.36L628.96 1178.42ZM568.692 1225.86L559.075 1233.55L553.305 1226.5L562.922 1218.81L568.692 1225.86ZM552.023 1238.68L503.937 1276.51L498.167 1269.46L546.252 1231.63L552.023 1238.68ZM492.397 1286.13L482.779 1293.82L477.009 1286.77L486.626 1279.07L492.397 1286.13ZM475.086 1298.95L427 1336.78L421.23 1329.72L469.316 1291.9L475.086 1298.95ZM415.46 1346.39L405.843 1354.09L400.072 1347.04L409.69 1339.34L415.46 1346.39ZM398.79 1359.86L350.705 1397.69L344.934 1390.63L393.02 1352.81L398.79 1359.86ZM338.523 1406.66L328.906 1414.35L323.136 1407.3L332.753 1399.61L338.523 1406.66ZM321.853 1420.13L273.768 1457.95L267.998 1450.9L316.083 1413.07L321.853 1420.13ZM261.586 1466.93L251.969 1474.62L246.199 1467.57L255.816 1459.88L261.586 1466.93ZM244.916 1480.39L201.96 1514.37L196.19 1507.32L239.146 1473.34L244.916 1480.39Z" fill="white"></path> <path d="M935.423 937.347L884.773 970.686L879.644 962.992L930.294 929.653L935.423 937.347ZM871.95 979.662L861.692 986.073L856.563 978.38L866.821 971.968L871.95 979.662ZM853.998 991.202L803.348 1024.54L798.219 1016.85L848.869 983.509L853.998 991.202ZM790.525 1033.52L780.267 1039.93L775.138 1032.24L785.396 1025.82L790.525 1033.52ZM772.574 1045.06L721.924 1078.4L716.794 1070.7L767.444 1037.36L772.574 1045.06ZM709.101 1086.73L698.842 1093.14L693.713 1085.45L703.972 1079.04L709.101 1086.73ZM691.149 1098.91L640.499 1132.25L635.37 1124.56L686.02 1091.22L691.149 1098.91ZM627.676 1140.59L617.418 1147L612.289 1139.31L622.547 1132.89L627.676 1140.59ZM609.724 1152.77L559.074 1186.11L553.945 1178.42L604.595 1145.08L609.724 1152.77ZM546.251 1194.44L535.993 1200.86L530.864 1193.16L541.122 1186.75L546.251 1194.44ZM528.299 1206.63L477.649 1239.96L472.52 1232.27L523.17 1198.93L528.299 1206.63ZM464.185 1248.3L453.927 1254.71L448.798 1247.02L459.056 1240.61L464.185 1248.3ZM446.874 1259.84L396.224 1293.18L391.095 1285.49L441.745 1252.15L446.874 1259.84ZM382.76 1302.16L372.502 1308.57L367.373 1300.87L377.631 1294.46L382.76 1302.16ZM365.45 1313.7L314.8 1347.04L309.67 1339.34L360.32 1306L365.45 1313.7ZM301.336 1356.01L291.077 1362.42L285.948 1354.73L296.206 1348.32L301.336 1356.01ZM283.384 1367.55L232.734 1400.89L227.605 1393.2L278.255 1359.86L283.384 1367.55ZM219.911 1409.87L209.652 1416.28L204.523 1408.58L214.782 1402.17L219.911 1409.87ZM201.959 1421.41L156.438 1451.54L151.309 1443.85L196.83 1413.71L201.959 1421.41Z" fill="white"></path> <path d="M935.422 937.347L881.567 966.839L877.079 958.504L930.934 929.012L935.422 937.347ZM868.103 974.533L857.203 980.303L852.715 971.968L863.615 966.198L868.103 974.533ZM849.51 984.15L795.654 1013.64L791.166 1005.31L845.022 975.815L849.51 984.15ZM782.831 1021.34L771.932 1027.11L767.444 1018.77L778.343 1013L782.831 1021.34ZM764.238 1031.59L710.382 1061.09L705.894 1052.75L759.75 1023.26L764.238 1031.59ZM696.918 1068.14L686.019 1073.91L681.531 1065.57L692.43 1059.8L696.918 1068.14ZM678.325 1078.4L624.469 1107.89L619.981 1099.56L673.837 1070.06L678.325 1078.4ZM611.647 1114.94L600.747 1120.71L596.259 1112.38L607.159 1106.61L611.647 1114.94ZM592.412 1125.2L538.557 1154.69L534.069 1146.36L587.924 1116.87L592.412 1125.2ZM525.734 1161.75L514.834 1167.52L510.347 1159.18L521.246 1153.41L525.734 1161.75ZM507.141 1172L453.285 1201.5L448.797 1193.16L502.653 1163.67L507.141 1172ZM439.821 1208.55L428.922 1214.32L424.434 1205.98L435.333 1200.21L439.821 1208.55ZM421.228 1218.81L367.372 1248.3L362.884 1239.96L416.74 1210.47L421.228 1218.81ZM354.549 1255.35L343.65 1261.12L339.162 1252.79L350.062 1247.02L354.549 1255.35ZM335.315 1265.61L281.46 1295.1L276.971 1286.77L330.827 1257.28L335.315 1265.61ZM268.637 1302.16L257.737 1307.93L253.249 1299.59L264.149 1293.82L268.637 1302.16ZM250.044 1312.41L196.188 1341.91L191.7 1333.57L245.556 1304.08L250.044 1312.41ZM182.724 1348.96L171.825 1354.73L167.337 1346.39L178.236 1340.62L182.724 1348.96ZM164.131 1359.22L116.045 1385.5L111.557 1377.17L159.643 1350.88L164.131 1359.22Z" fill="white"></path> <path d="M934.783 937.988L879.004 962.993L875.157 954.658L930.936 929.653L934.783 937.988ZM865.54 968.763L854.641 973.892L850.794 965.557L861.693 960.428L865.54 968.763ZM845.665 977.098L789.886 1002.1L786.039 993.767L841.818 968.763L845.665 977.098ZM775.781 1008.51L764.881 1013.64L761.034 1005.31L771.934 1000.18L775.781 1008.51ZM756.546 1016.85L700.767 1041.85L696.92 1033.52L752.7 1008.51L756.546 1016.85ZM686.662 1047.62L675.763 1052.75L671.916 1044.42L682.815 1039.29L686.662 1047.62ZM667.428 1056.6L611.649 1081.6L607.802 1073.27L663.581 1048.26L667.428 1056.6ZM597.544 1087.37L586.644 1092.5L582.797 1084.17L593.697 1079.04L597.544 1087.37ZM577.668 1096.35L521.889 1121.35L518.042 1113.02L573.822 1088.02L577.668 1096.35ZM508.425 1127.12L497.526 1132.25L493.679 1123.92L504.578 1118.79L508.425 1127.12ZM488.55 1135.46L432.771 1160.46L428.924 1152.13L484.703 1127.12L488.55 1135.46ZM418.666 1166.88L407.766 1172L403.919 1163.67L414.819 1158.54L418.666 1166.88ZM399.431 1175.21L343.652 1200.21L339.805 1191.88L395.584 1166.88L399.431 1175.21ZM329.547 1205.98L318.648 1211.11L314.801 1202.78L325.7 1197.65L329.547 1205.98ZM310.313 1214.96L254.534 1239.97L250.687 1231.63L306.466 1206.63L310.313 1214.96ZM240.429 1245.74L229.529 1250.86L225.682 1242.53L236.582 1237.4L240.429 1245.74ZM221.194 1254.71L165.415 1279.72L161.568 1271.38L217.348 1246.38L221.194 1254.71ZM151.31 1285.49L140.411 1290.62L136.564 1282.28L147.463 1277.15L151.31 1285.49Z" fill="white"></path> <path d="M934.783 937.988L877.08 957.863L873.874 949.528L931.577 929.653L934.783 937.988ZM862.334 962.992L850.793 966.839L847.588 958.504L859.128 954.657L862.334 962.992ZM842.459 970.045L784.756 989.92L781.55 981.585L839.253 961.71L842.459 970.045ZM770.651 995.049L759.11 998.896L755.905 990.561L767.445 986.714L770.651 995.049ZM750.135 1002.1L692.432 1021.98L689.226 1013.64L746.929 993.767L750.135 1002.1ZM678.327 1027.11L666.786 1030.95L663.581 1022.62L675.121 1018.77L678.327 1027.11ZM657.81 1034.16L600.108 1054.03L596.902 1045.7L654.605 1025.82L657.81 1034.16ZM586.003 1059.16L574.462 1063.01L571.256 1054.68L582.797 1050.83L586.003 1059.16ZM565.486 1066.22L507.783 1086.09L504.578 1077.76L562.28 1057.88L565.486 1066.22ZM493.678 1091.22L482.138 1095.07L478.932 1086.73L490.473 1082.89L493.678 1091.22ZM473.162 1098.27L415.459 1118.15L412.254 1109.81L469.956 1089.94L473.162 1098.27ZM401.354 1123.28L389.814 1127.12L386.608 1118.79L398.149 1114.94L401.354 1123.28ZM381.479 1130.33L323.776 1150.21L320.571 1141.87L378.273 1121.99L381.479 1130.33ZM309.03 1155.33L297.49 1159.18L294.284 1150.85L305.824 1147L309.03 1155.33ZM289.155 1162.39L231.452 1182.26L228.246 1173.93L285.949 1154.05L289.155 1162.39ZM216.706 1187.39L205.165 1191.24L201.96 1182.9L213.5 1179.06L216.706 1187.39ZM196.83 1194.44L139.128 1214.32L135.922 1205.98L193.625 1186.11L196.83 1194.44ZM125.023 1219.45L113.482 1223.29L110.277 1214.96L121.817 1211.11L125.023 1219.45ZM104.506 1226.5L52.5741 1244.45L49.3684 1236.12L101.301 1218.17L104.506 1226.5Z" fill="white"></path> <path d="M934.142 937.988L875.157 953.375L872.592 944.399L931.577 929.012L934.142 937.988ZM860.41 957.222L848.87 960.427L846.305 951.451L857.846 948.246L860.41 957.222ZM839.894 962.351L780.909 977.738L778.345 968.762L837.33 953.375L839.894 962.351ZM765.522 981.585L753.981 984.791L751.417 975.815L762.957 972.609L765.522 981.585ZM745.005 986.714L686.02 1002.1L683.456 993.126L742.441 977.738L745.005 986.714ZM671.274 1005.95L659.734 1009.15L657.169 1000.18L668.71 996.972L671.274 1005.95ZM650.758 1011.08L591.773 1026.46L589.208 1017.49L648.193 1002.1L650.758 1011.08ZM576.385 1030.31L564.845 1033.52L562.28 1024.54L573.821 1021.34L576.385 1030.31ZM555.869 1035.44L496.884 1050.83L494.32 1041.85L553.304 1026.46L555.869 1035.44ZM482.138 1054.03L470.597 1057.24L468.033 1048.26L479.573 1045.06L482.138 1054.03ZM461.621 1059.8L402.636 1075.19L400.072 1066.22L459.057 1050.83L461.621 1059.8ZM387.249 1078.4L375.709 1081.6L373.144 1072.63L384.685 1069.42L387.249 1078.4ZM366.733 1084.17L307.748 1099.55L305.183 1090.58L364.168 1075.19L366.733 1084.17ZM293.001 1102.76L281.461 1105.97L278.896 1096.99L290.437 1093.78L293.001 1102.76ZM272.485 1108.53L213.5 1123.92L210.936 1114.94L269.921 1099.55L272.485 1108.53ZM198.113 1127.12L186.572 1130.33L184.008 1121.35L195.548 1118.15L198.113 1127.12ZM177.596 1132.89L118.611 1148.28L116.047 1139.31L175.032 1123.92L177.596 1132.89ZM103.865 1151.49L92.3247 1154.69L89.7601 1145.72L101.301 1142.51L103.865 1151.49ZM83.3487 1157.26L30.1341 1170.72L27.5695 1161.75L80.7841 1148.28L83.3487 1157.26Z" fill="white"></path> <path d="M934.141 937.988L873.874 948.246L872.592 939.27L932.859 929.012L934.141 937.988ZM858.487 950.81L846.305 952.734L845.023 943.758L857.204 941.835L858.487 950.81ZM837.329 954.657L777.062 964.916L775.78 955.94L836.047 945.681L837.329 954.657ZM762.316 967.48L750.134 969.404L748.852 960.428L761.033 958.504L762.316 967.48ZM741.158 970.686L680.891 980.944L679.609 971.968L739.876 961.71L741.158 970.686ZM666.145 983.509L653.963 985.432L652.681 976.456L664.862 974.533L666.145 983.509ZM644.987 987.356L584.72 997.614L583.438 988.638L643.705 978.38L644.987 987.356ZM569.974 1000.18L557.792 1002.1L556.51 993.126L568.691 991.202L569.974 1000.18ZM548.816 1004.03L488.549 1014.28L487.267 1005.31L547.534 995.049L548.816 1004.03ZM473.803 1016.85L461.621 1018.77L460.339 1009.8L472.52 1007.87L473.803 1016.85ZM452.645 1020.05L392.378 1030.31L391.096 1021.34L451.363 1011.08L452.645 1020.05ZM377.632 1032.88L365.45 1034.8L364.168 1025.82L376.349 1023.9L377.632 1032.88ZM356.474 1036.72L296.207 1046.98L294.925 1038.01L355.192 1027.75L356.474 1036.72ZM281.461 1049.55L269.279 1051.47L267.997 1042.49L280.178 1040.57L281.461 1049.55ZM260.303 1052.75L200.036 1063.01L198.754 1054.03L259.021 1043.78L260.303 1052.75ZM184.649 1065.57L172.467 1067.5L171.185 1058.52L183.366 1056.6L184.649 1065.57ZM164.132 1069.42L103.865 1079.68L102.583 1070.7L162.85 1060.45L164.132 1069.42ZM88.4775 1082.24L76.2959 1084.17L75.0137 1075.19L87.1953 1073.27L88.4775 1082.24ZM67.32 1086.09L13.4642 1095.07L12.1819 1086.09L66.0376 1077.12L67.32 1086.09Z" fill="white"></path> <path d="M933.498 937.988L872.59 943.117L871.949 934.141L932.857 929.012L933.498 937.988ZM857.203 944.399L845.021 945.681L844.38 936.705L856.562 935.423L857.203 944.399ZM836.045 946.322L775.137 951.452L774.496 942.476L835.404 937.347L836.045 946.322ZM760.391 953.375L748.209 954.657L747.568 945.681L759.749 944.399L760.391 953.375ZM739.233 954.657L678.325 959.786L677.683 950.81L738.592 945.681L739.233 954.657ZM662.937 961.71L650.756 962.992L650.114 954.016L662.296 952.734L662.937 961.71ZM641.78 963.633L580.871 968.762L580.23 959.786L641.138 954.657L641.78 963.633ZM565.484 970.045L553.302 971.327L552.661 962.351L564.843 961.069L565.484 970.045ZM544.326 971.968L483.418 977.097L482.777 968.121L543.685 962.992L544.326 971.968ZM468.672 978.379L456.49 979.662L455.849 970.686L468.031 969.404L468.672 978.379ZM446.873 980.303L385.965 985.432L385.324 976.456L446.232 971.327L446.873 980.303ZM371.219 986.714L359.037 987.997L358.396 979.021L370.577 977.738L371.219 986.714ZM350.061 988.638L289.153 993.767L288.511 984.791L349.42 979.662L350.061 988.638ZM273.765 995.049L261.584 996.331L260.942 987.355L273.124 986.073L273.765 995.049ZM252.608 996.973L191.699 1002.1L191.058 993.126L251.966 987.997L252.608 996.973ZM176.312 1003.38L164.13 1004.67L163.489 995.69L175.671 994.408L176.312 1003.38ZM155.154 1005.31L94.246 1010.44L93.6048 1001.46L154.513 996.331L155.154 1005.31ZM79.4998 1011.72L67.3182 1013L66.677 1004.03L78.8586 1002.74L79.4998 1011.72ZM57.7011 1013.64L3.20415 1018.13L2.56297 1009.15L57.0599 1004.67L57.7011 1013.64Z" fill="white"></path> <path d="M932.859 937.988L871.951 937.988L871.951 929.012L932.859 929.012L932.859 937.988ZM856.563 938.629L844.381 938.629L844.381 929.653L856.563 929.653L856.563 938.629ZM835.405 938.629L774.497 938.629L774.497 929.653L835.405 929.653L835.405 938.629ZM759.11 938.629L746.928 938.629L746.928 929.653L759.11 929.653L759.11 938.629ZM737.952 938.629L677.044 938.629L677.044 929.653L737.952 929.653L737.952 938.629ZM661.656 939.27L649.475 939.27L649.475 930.294L661.656 930.294L661.656 939.27ZM640.499 939.27L579.591 939.27L579.591 930.294L640.499 930.294L640.499 939.27ZM564.203 939.27L552.022 939.27L552.022 930.294L564.203 930.294L564.203 939.27ZM542.405 939.27L481.496 939.27L481.496 930.294L542.405 930.294L542.405 939.27ZM466.109 939.912L453.927 939.912L453.927 930.936L466.109 930.936L466.109 939.912ZM444.951 939.912L384.043 939.912L384.043 930.936L444.951 930.936L444.951 939.912ZM368.656 939.912L356.474 939.912L356.474 930.936L368.656 930.936L368.656 939.912ZM347.498 939.912L286.59 939.912L286.59 930.936L347.498 930.936L347.498 939.912ZM271.202 939.912L259.021 939.912L259.021 930.936L271.202 930.936L271.202 939.912ZM249.403 940.553L188.495 940.553L188.495 931.577L249.403 931.577L249.403 940.553ZM173.108 940.553L160.926 940.553L160.926 931.577L173.108 931.577L173.108 940.553ZM151.95 940.553L91.0419 940.553L91.0419 931.577L151.95 931.577L151.95 940.553ZM75.6545 940.553L63.4728 940.553L63.4728 931.577L75.6545 931.577L75.6545 940.553ZM54.4969 941.194L0 941.194L-5.14892e-07 932.218L54.4969 932.218L54.4969 941.194Z" fill="white"></path> <path d="M933.498 929.012L932.857 937.988L871.949 932.859L872.59 923.883L933.498 929.012ZM857.203 923.241L856.562 932.217L844.38 930.935L845.021 921.959L857.203 923.241ZM836.045 921.318L835.404 930.294L774.496 925.165L775.137 916.189L836.045 921.318ZM760.391 914.907L759.749 923.883L747.568 922.6L748.209 913.624L760.391 914.907ZM738.592 913.624L737.951 922.6L677.042 917.471L677.683 908.495L738.592 913.624ZM662.937 907.213L662.296 916.189L650.114 914.907L650.756 905.931L662.937 907.213ZM641.78 905.931L641.138 914.907L580.23 909.777L580.871 900.802L641.78 905.931ZM565.484 899.519L564.843 908.495L552.661 907.213L553.302 898.237L565.484 899.519ZM544.326 897.596L543.685 906.572L482.777 901.443L483.418 892.467L544.326 897.596ZM468.031 891.826L467.39 900.802L455.208 899.519L455.849 890.543L468.031 891.826ZM446.873 889.902L446.232 898.878L385.324 893.749L385.965 884.773L446.873 889.902ZM370.577 884.132L369.936 893.108L357.755 891.826L358.396 882.85L370.577 884.132ZM349.42 882.208L348.779 891.184L287.87 886.055L288.511 877.079L349.42 882.208ZM273.124 876.438L272.483 885.414L260.301 884.132L260.942 875.156L273.124 876.438ZM251.966 874.515L251.325 883.491L190.417 878.362L191.058 869.386L251.966 874.515ZM176.312 868.745L175.671 877.721L163.489 876.438L164.13 867.462L176.312 868.745ZM154.513 866.821L153.872 875.797L92.9637 870.668L93.6048 861.692L154.513 866.821ZM78.8586 860.41L78.2175 869.386L66.0358 868.103L66.677 859.127L78.8586 860.41ZM57.701 859.127L57.0599 868.103L2.56296 863.615L3.20414 854.639L57.701 859.127Z" fill="white"></path> <path d="M934.142 929.012L932.86 937.988L872.592 928.371L873.875 919.395L934.142 929.012ZM858.487 916.83L857.205 925.806L845.023 923.883L846.306 914.907L858.487 916.83ZM837.33 912.983L836.047 922.6L775.78 912.983L777.062 904.007L837.33 912.983ZM762.316 900.802L761.034 909.777L748.852 907.854L750.135 898.878L762.316 900.802ZM741.159 897.596L739.876 906.572L679.609 896.955L680.891 887.979L741.159 897.596ZM666.145 885.414L664.863 894.39L652.681 892.467L653.964 883.491L666.145 885.414ZM644.988 881.567L643.705 890.543L583.438 880.926L584.72 871.95L644.988 881.567ZM569.333 869.386L568.051 878.362L555.869 876.438L557.151 867.462L569.333 869.386ZM548.176 865.539L546.893 874.515L486.626 864.898L487.908 855.922L548.176 865.539ZM473.162 853.357L471.88 862.333L459.698 860.41L460.98 851.434L473.162 853.357ZM452.004 850.151L450.722 859.127L390.455 849.51L391.737 840.534L452.004 850.151ZM376.991 837.97L375.709 846.946L363.527 845.022L364.809 836.046L376.991 837.97ZM355.833 834.123L354.551 843.099L294.284 833.482L295.566 824.506L355.833 834.123ZM280.179 821.941L278.897 830.917L266.715 828.994L267.997 820.018L280.179 821.941ZM259.662 818.094L258.38 827.07L198.113 817.453L199.395 808.477L259.662 818.094ZM184.008 805.913L182.726 814.889L170.544 812.965L171.826 803.989L184.008 805.913ZM162.85 802.707L161.568 811.683L101.301 802.066L102.583 793.09L162.85 802.707ZM87.8369 790.525L86.5546 799.501L74.3729 797.578L75.6552 788.602L87.8369 790.525ZM66.6792 786.679L65.397 795.655L11.5412 786.679L12.8235 777.703L66.6792 786.679Z" fill="white"></path> <path d="M934.14 929.012L932.217 937.988L873.232 923.241L875.155 914.265L934.14 929.012ZM860.409 910.419L858.485 919.395L846.945 916.189L848.868 907.213L860.409 910.419ZM839.251 905.29L837.328 914.265L778.343 899.519L780.266 890.543L839.251 905.29ZM765.52 886.696L763.597 895.672L752.056 892.467L753.98 883.491L765.52 886.696ZM745.004 881.567L743.08 890.543L684.095 875.797L686.019 866.821L745.004 881.567ZM670.631 862.974L668.708 871.95L657.167 868.745L659.091 859.769L670.631 862.974ZM650.115 857.845L648.192 866.821L589.207 852.075L591.13 843.099L650.115 857.845ZM576.384 839.252L574.46 848.228L562.92 845.022L564.843 836.046L576.384 839.252ZM555.226 834.123L553.303 843.099L494.318 828.353L496.241 819.377L555.226 834.123ZM481.495 815.53L479.572 824.506L468.031 821.3L469.954 812.324L481.495 815.53ZM460.337 810.401L458.414 819.377L399.429 804.631L401.353 795.655L460.337 810.401ZM386.606 791.808L384.683 800.784L373.142 797.578L375.066 788.602L386.606 791.808ZM366.09 786.679L364.166 795.655L305.182 780.908L307.105 771.932L366.09 786.679ZM291.718 768.085L289.794 777.062L278.254 773.856L280.177 764.88L291.718 768.085ZM271.201 762.956L269.278 771.932L210.293 757.186L212.216 748.21L271.201 762.956ZM197.47 744.363L195.547 753.339L184.006 750.134L185.93 741.158L197.47 744.363ZM176.312 739.234L174.389 748.21L115.404 733.464L117.327 724.488L176.312 739.234ZM102.581 720.641L100.658 729.617L89.1173 726.411L91.0408 717.435L102.581 720.641ZM82.0647 715.512L80.1414 724.488L26.9268 711.024L28.8502 702.048L82.0647 715.512Z" fill="white"></path> <path d="M934.782 929.012L931.576 937.988L873.874 918.112L877.079 909.136L934.782 929.012ZM862.333 904.648L859.128 913.624L847.587 909.777L850.793 900.802L862.333 904.648ZM842.458 897.596L839.252 906.572L781.55 886.696L784.755 877.72L842.458 897.596ZM770.009 873.233L766.803 882.208L755.263 878.362L758.469 869.386L770.009 873.233ZM749.493 866.18L746.287 875.156L688.584 855.281L691.79 846.305L749.493 866.18ZM677.685 841.817L674.479 850.793L662.939 846.946L666.144 837.97L677.685 841.817ZM657.168 834.764L653.963 843.74L596.26 823.865L599.466 814.889L657.168 834.764ZM585.361 810.401L582.155 819.377L570.615 815.53L573.82 806.554L585.361 810.401ZM564.844 803.348L561.639 812.324L503.936 792.449L507.142 783.473L564.844 803.348ZM492.395 778.985L489.19 787.961L477.649 784.114L480.855 775.138L492.395 778.985ZM472.52 771.932L469.314 780.908L411.612 761.033L414.817 752.057L472.52 771.932ZM400.071 746.928L396.866 755.904L385.325 752.057L388.531 743.081L400.071 746.928ZM380.196 740.517L376.99 749.492L319.288 729.617L322.493 720.641L380.196 740.517ZM307.747 715.512L304.541 724.488L293.001 720.641L296.206 711.665L307.747 715.512ZM287.872 709.101L284.666 717.435L226.963 697.56L230.169 688.584L287.872 709.101ZM215.423 684.096L212.217 693.072L200.677 689.225L203.882 680.249L215.423 684.096ZM194.906 677.044L191.701 686.02L133.998 666.144L137.204 657.168L194.906 677.044ZM123.099 652.68L119.893 661.656L108.352 657.809L111.558 648.833L123.099 652.68ZM102.582 645.628L99.3766 654.604L47.4442 636.652L50.6499 627.676L102.582 645.628Z" fill="white"></path> <path d="M934.781 929.653L930.934 937.988L875.155 913.624L879.002 905.29L934.781 929.653ZM864.897 898.878L861.05 907.213L850.151 902.084L853.997 893.749L864.897 898.878ZM845.663 890.543L841.816 898.878L786.037 874.515L789.883 866.18L845.663 890.543ZM775.778 859.769L771.931 868.103L761.032 862.974L764.879 854.639L775.778 859.769ZM755.903 851.434L752.056 859.769L696.277 835.405L700.124 827.07L755.903 851.434ZM686.019 820.659L682.172 828.994L671.272 823.865L675.119 815.53L686.019 820.659ZM666.143 812.324L662.296 820.659L606.517 796.296L610.364 787.961L666.143 812.324ZM596.259 781.549L592.412 789.884L581.513 784.755L585.36 776.42L596.259 781.549ZM577.025 773.215L573.178 781.549L517.399 757.186L521.246 748.851L577.025 773.215ZM507.141 742.44L503.294 750.775L492.394 745.646L496.241 737.311L507.141 742.44ZM487.265 734.105L483.418 742.44L427.639 718.077L431.486 709.742L487.265 734.105ZM417.381 703.972L413.534 712.306L402.635 707.177L406.482 698.842L417.381 703.972ZM398.147 694.996L394.3 703.33L338.521 678.967L342.368 670.632L398.147 694.996ZM328.262 664.862L324.416 673.197L313.516 668.068L317.363 659.733L328.262 664.862ZM308.387 655.886L304.54 664.221L248.761 639.857L252.608 631.523L308.387 655.886ZM238.503 625.752L234.656 634.087L223.757 628.958L227.604 620.623L238.503 625.752ZM218.628 616.777L214.781 625.111L159.001 600.748L162.848 592.413L218.628 616.777ZM148.743 586.643L144.896 594.978L133.997 589.849L137.844 581.514L148.743 586.643Z" fill="white"></path> <path d="M935.424 929.653L930.936 937.988L877.08 909.136L881.568 900.802L935.424 929.653ZM868.104 893.108L863.616 901.443L852.717 895.672L857.205 887.338L868.104 893.108ZM849.511 883.491L845.023 891.826L791.167 862.974L795.656 854.639L849.511 883.491ZM782.192 846.946L777.704 855.281L766.804 849.51L771.292 841.176L782.192 846.946ZM763.599 836.688L759.11 845.022L705.255 816.171L709.743 807.836L763.599 836.688ZM696.279 800.784L691.791 809.119L680.891 803.348L685.379 795.013L696.279 800.784ZM677.686 790.525L673.198 798.86L619.342 770.009L623.83 761.674L677.686 790.525ZM610.366 754.622L605.878 762.956L594.979 757.186L599.467 748.851L610.366 754.622ZM591.132 744.363L586.644 752.698L532.788 723.847L537.276 715.512L591.132 744.363ZM524.453 707.818L519.965 716.153L509.066 710.383L513.554 702.048L524.453 707.818ZM505.219 698.201L500.731 706.536L446.875 677.685L451.363 669.35L505.219 698.201ZM438.54 661.656L434.052 669.991L423.153 664.221L427.641 655.886L438.54 661.656ZM419.306 651.398L414.818 659.733L360.962 630.882L365.45 622.547L419.306 651.398ZM352.628 615.494L348.14 623.829L337.24 618.059L341.728 609.724L352.628 615.494ZM333.393 605.236L328.905 613.571L275.05 584.72L279.538 576.385L333.393 605.236ZM266.074 569.332L261.586 577.667L250.686 571.897L255.174 563.562L266.074 569.332ZM247.481 559.074L242.993 567.409L189.137 538.557L193.625 530.223L247.481 559.074ZM180.161 523.17L175.673 531.505L164.773 525.735L169.262 517.4L180.161 523.17ZM161.568 512.912L157.08 521.247L108.994 495.601L113.482 487.266L161.568 512.912Z" fill="white"></path> </svg> 