<?xml version="1.0" encoding="UTF-8"?> <svg xmlns="http://www.w3.org/2000/svg" width="449" height="513" viewBox="0 0 449 513" fill="none"> <path d="M221.634 491.401C227.445 490.483 232.803 494.457 233.723 500.28C234.64 506.091 230.667 511.449 224.844 512.368C219.033 513.286 213.675 509.312 212.755 503.489C211.838 497.678 215.812 492.32 221.634 491.401Z" fill="#B4A3FD" stroke="#100721"></path> <path d="M35.2012 411.661C39.954 415.188 41.0178 421.767 37.5014 426.507C33.9751 431.26 27.3956 432.323 22.656 428.807C17.9032 425.281 16.8394 418.701 20.3558 413.962C23.8821 409.209 30.4616 408.145 35.2012 411.661Z" fill="white" stroke="black"></path> <path d="M423.501 23.3613C428.254 26.8876 429.318 33.4671 425.802 38.2066C422.275 42.9595 415.696 44.0233 410.956 40.5069C406.203 36.9806 405.14 30.4011 408.656 25.6615C412.182 20.9087 418.762 19.8449 423.501 23.3613Z" fill="white" stroke="black"></path> <path d="M410.47 399.42C421.361 394.53 434.154 399.395 439.044 410.286C443.933 421.177 439.068 433.969 428.178 438.859C417.287 443.749 404.494 438.884 399.604 427.993C394.715 417.102 399.579 404.309 410.47 399.42Z" fill="#B4A3FD" stroke="black"></path> <path d="M428.287 425.683C424.601 430.651 417.71 431.773 412.742 428.087C407.774 424.401 406.652 417.51 410.338 412.542C414.024 407.574 420.915 406.452 425.883 410.138C430.851 413.824 431.973 420.715 428.287 425.683Z" fill="white"></path> <path d="M19.7627 12.3363C29.9647 6.13702 43.2607 9.38192 49.46 19.584C55.6593 29.786 52.4144 43.0819 42.2124 49.2812C32.0103 55.4805 18.7144 52.2357 12.5151 42.0336C6.31579 31.8316 9.56065 18.5356 19.7627 12.3363Z" fill="#B4A3FD" stroke="black"></path> <path d="M39.9864 37.3829C36.3006 42.3508 29.4095 43.4726 24.4416 39.7867C19.4737 36.1008 18.3519 29.2098 22.0378 24.2419C25.7236 19.2739 32.6147 18.1521 37.5826 21.838C42.5505 25.5239 43.6723 32.4149 39.9864 37.3829Z" fill="white"></path> </svg> 