<?xml version="1.0" encoding="UTF-8"?> <svg xmlns="http://www.w3.org/2000/svg" width="144" height="144" viewBox="0 0 144 144" fill="none"> <circle opacity="0.2" cx="72" cy="72" r="71.5" stroke="#F1A17C"></circle> <path d="M61.0535 92.7082L60.1972 85.0136L65.4128 79.2918L57.8301 77.7284L54.0001 71L50.1701 77.7284L42.5874 79.2918L47.803 85.0136L46.9467 92.7082L54.0001 89.516" stroke="#F1A17C" stroke-linecap="round"></path> <path d="M90.0001 89.516L97.0535 92.7082L96.1972 85.0136L101.413 79.2918L93.8301 77.7284L90.0001 71L86.1701 77.7284L78.5874 79.2918L83.803 85.0136L82.9467 92.7082" stroke="#F1A17C" stroke-linecap="round"></path> <path d="M72.0001 63.516L79.0535 66.7082L78.1972 59.0136L83.4128 53.2918L75.8301 51.7284L72.0001 45L68.1701 51.7284L60.5874 53.2918L65.803 59.0136L64.9467 66.7082" stroke="#F1A17C" stroke-linecap="round"></path> </svg> 