<?xml version="1.0" encoding="UTF-8"?> <svg xmlns="http://www.w3.org/2000/svg" xmlns:xlink="http://www.w3.org/1999/xlink" width="393px" height="76px" viewBox="0 0 393 76"> <title>Shape 1</title> <g id="About-Us" stroke="none" stroke-width="1" fill="none" fill-rule="evenodd"> <path d="M392.559871,0.259774208 L392.926167,1.19027289 C392.364802,1.41125687 391.81005,1.63531177 391.258312,1.86394617 L390.157785,2.32776794 L389.058893,2.8064836 L387.955236,3.30277503 C387.585845,3.47143279 387.214592,3.64346683 386.840412,3.81932414 L385.708022,4.35881281 C385.136369,4.63473902 384.555728,4.92027328 383.962499,5.21692415 L382.14145,6.14173517 L382.14145,6.14173517 L380.874791,6.79980106 L377.936048,8.36395328 L371.831223,11.647075 L370.358956,12.4192925 C370.141524,12.5321341 369.926064,12.6433909 369.712473,12.7530992 L368.452544,13.3930569 L367.232562,13.9975918 C363.427337,15.8577048 360.148943,17.2111995 356.694111,18.3069774 L352.476562,19.609018 L348.848535,20.7137742 L352.826584,44.1997064 C352.914872,44.7209195 352.239351,45.0047197 351.928906,44.5768395 L351.046845,43.372651 L350.219208,42.2650849 L349.63617,41.4992214 L348.911671,40.5663548 L348.409757,39.9341937 L347.798451,39.1831673 L347.256339,38.5392556 L346.897139,38.1280185 L346.681005,37.8885482 L346.392829,37.5821029 L346.149114,37.3398443 L346.012022,37.2144836 L345.895716,37.1183789 C345.78994,37.0369993 345.715959,36.9999411 345.675619,37.0085156 C345.682781,37.0069931 345.683191,37.0155456 345.677798,37.033349 L345.645155,37.1136886 L345.395235,37.6383128 L345.280243,37.8912458 L345.158897,38.1749695 L345.000435,38.5706873 L344.744882,39.2495676 L344.464434,40.038382 L344.155191,40.9456465 L342.773159,45.159571 L342.536376,45.8445805 L342.421692,46.1545798 L342.320651,46.4091994 L342.231989,46.6108696 C342.14908,46.7869055 342.080689,46.9004622 341.979215,46.9906463 C341.5999,47.3277585 341.167326,47.0619382 341.084909,46.6741962 L341.003531,46.3298404 L340.950448,46.1275497 L340.950448,46.1275497 L340.820737,45.6663431 L340.66129,45.1344359 L340.370719,44.2166119 L340.145639,43.5331537 L339.765944,42.4150035 L339.341729,41.2025777 L338.879707,39.9153166 L338.386596,38.5726604 L337.692356,36.7298822 L337.333961,35.7989233 L336.9707,34.8692646 L336.421041,33.4898145 L335.871628,32.1456901 L335.508805,31.2788327 L335.151066,30.4420758 L334.800401,29.6411794 L334.292017,28.5196734 L334.292017,28.5196734 L333.96774,27.8336285 L333.657499,27.2036044 L333.363285,26.635361 C333.05736,26.0616957 332.782455,25.6043264 332.549584,25.2951316 L331.242384,25.6236757 L329.806443,25.9724542 L328.359931,26.3148005 L326.897145,26.6520525 L325.412383,26.9855483 L323.899943,27.3166259 L322.354121,27.6466231 L320.769217,27.976878 L319.139526,28.3087285 L318.220922,28.4908629 C318.215652,28.5313311 318.205335,28.571603 318.189712,28.6107801 L318.109629,28.7762899 L318.069843,28.8963354 L318.049293,28.9783341 L318.004526,29.2052391 L317.904607,29.8832123 L317.679232,31.7538567 L316.629772,41.2259981 L316.34191,43.6998769 L316.123379,45.4409786 L315.958683,46.6479053 L315.800027,47.7078767 L315.679141,48.4383161 L315.679141,48.4383161 L315.561854,49.0727547 L315.470347,49.5110612 L315.425297,49.7071005 L315.425297,49.7071005 L315.336475,50.0528923 L315.336475,50.0528923 C315.251022,50.3586095 315.16611,50.5856389 315.068783,50.7473632 C314.86616,51.0840529 314.506292,51.2732628 314.135228,50.9937382 L314.055927,50.9278691 L313.895894,50.7748475 L313.684484,50.5546697 L313.211615,50.0320713 L312.57872,49.3054742 L310.57541,46.940594 L305.326754,40.6680741 L302.930521,37.8295068 L301.788682,36.4931973 L300.595067,35.1155074 L299.592256,33.9832712 L299.028753,33.364307 L298.660859,32.9711956 L298.24285,32.5416205 L298.064761,32.3672795 L297.907185,32.2198525 L297.795535,32.1237742 L295.277973,32.520115 L292.932576,32.8790867 L290.537698,33.2375898 L288.092576,33.595687 L285.596451,33.9534406 L284.197606,34.1480127 C284.219702,34.1923527 284.235531,34.2407552 284.243768,34.292261 L284.803861,37.8220314 L285.413929,41.7420266 L285.870619,44.7456171 L286.431032,48.5489223 L286.899341,51.883628 L287.227447,54.3690436 L287.520274,56.7637571 L287.677422,58.1678212 L287.771848,59.1297078 L287.823653,59.7622289 L287.848863,60.143449 L287.866443,60.4934642 L287.876247,60.8132716 L287.878131,61.1038685 L287.871949,61.3662521 L287.857558,61.6014197 L287.83481,61.8103685 L287.803563,61.9940958 C287.708774,62.4512931 287.521769,62.6500981 287.230175,62.6756093 C287.070704,62.6895612 286.886786,62.6397804 286.656784,62.5109943 L286.496385,62.4132649 L286.320906,62.2911209 L286.227067,62.2205792 L286.227067,62.2205792 L286.026298,62.0599278 L285.806888,61.8723478 L285.567412,61.6568337 L285.167459,61.2789861 L284.55066,60.6680341 L284.019183,60.1250541 L282.987943,59.0485725 L280.337792,56.2434502 L279.515135,55.3928794 L279.087715,54.9667616 L278.839003,54.7285399 L278.742421,54.6387832 L278.721807,54.6955513 C278.633943,54.9187973 278.520869,55.1728173 278.386921,55.4506258 L278.170887,55.8843068 L277.926795,56.3484316 L277.657898,56.8377612 L277.367449,57.3470565 L276.898481,58.1369747 L276.568383,58.6732634 L276.228117,59.2111811 L275.880936,59.7454889 L275.530094,60.2709476 L275.178842,60.7823182 L274.830433,61.2743617 L274.48812,61.7418389 L274.320267,61.964728 L274.320267,61.964728 L273.993197,62.3855328 L273.70216,62.7426673 C273.134089,63.4216644 272.655252,63.8806409 272.359404,63.9685886 L272.287254,63.9829454 L272.187016,63.9864014 C272.00902,63.9820147 271.861841,63.9161218 271.729866,63.7469428 L271.659294,63.644169 C271.63621,63.6063292 271.613535,63.5648239 271.591175,63.5194019 L271.524945,63.3711349 L271.460042,63.1978613 L271.395903,62.9980744 L271.299895,62.6453854 L271.202439,62.2245663 L271.066961,61.5487044 L270.958736,60.949139 L270.760129,59.7582837 L270.274986,56.6223913 L269.210622,49.6063774 L269.015518,48.3856265 L268.766576,46.8838778 L268.60345,45.9366547 L268.44236,45.032265 L268.20411,43.7553914 L268.047242,42.956882 L267.891716,42.2002435 L267.737332,41.4852009 L267.583892,40.8114792 L267.431198,40.1788033 L267.27905,39.5868984 L267.12725,39.0354894 C267.076686,38.8584051 267.026147,38.6880243 266.975599,38.5243012 L266.8239,38.053059 L266.671952,37.6214877 C266.595883,37.415574 266.519647,37.2244337 266.443131,37.0479122 C266.350638,36.8345316 266.418576,36.5920292 266.593669,36.4552011 L263.69999,36.8106096 L259.701128,37.2873046 L255.597613,37.7645377 L252.306723,38.1377759 C252.269935,38.2113771 252.215404,38.275052 252.148232,38.3227203 L252.129666,38.3326408 L252.073435,38.4379466 L251.98453,38.635269 L251.882345,38.8926699 L251.767495,39.2088534 L251.583592,39.7565018 L251.375555,40.4187436 L251.141703,41.2000387 L250.66613,42.8701615 L248.192762,51.9164713 L247.648573,53.8525256 L247.234873,55.2864199 L246.843345,56.6050462 L246.593814,57.4219578 L246.35289,58.1904372 L246.120074,58.9116035 L245.894867,59.5865759 L245.676771,60.2164735 L245.465286,60.8024157 L245.364824,61.0720756 L245.170013,61.5789854 L244.982437,62.0426945 L244.800999,62.4632185 L244.6246,62.8405729 C244.043782,64.0264888 243.528648,64.49317 242.896177,64.2432035 C242.632525,64.1390022 242.308797,63.8706699 241.899852,63.4189916 L241.668188,63.1543231 L241.353458,62.7712918 L241.353458,62.7712918 L241.00913,62.3290023 L240.554374,61.7181284 L240.224598,61.2612348 L239.687757,60.4996957 L239.063489,59.5944816 L238.258684,58.4051632 L234.073701,52.1093307 L232.94123,50.431586 L232.152051,49.2818507 L231.403564,48.2103595 L230.926858,47.5394104 L230.467758,46.9031007 L230.02607,46.3013762 L229.601603,45.7341823 L229.194165,45.201465 L228.803563,44.7031698 L228.429606,44.2392425 L228.072101,43.8096288 L227.730856,43.4142743 L227.40568,43.0531248 C226.771268,42.3649946 226.232114,41.8817683 225.781302,41.601491 C225.559817,41.4637901 225.483365,41.1811387 225.59838,40.9525987 L225.023909,41.0112454 L220.048162,41.497675 C216.525612,41.838567 213.027225,42.1340754 209.552577,42.385281 L210.128139,46.8898076 L210.765666,52.024101 L211.249093,56.0553839 L211.663075,59.6562495 L211.916263,61.9648064 L212.134023,64.0538114 L212.331909,66.0902223 L212.442,67.3222545 L212.532581,68.4337524 L212.582127,69.1078537 L212.623001,69.7284833 L212.66805,70.5592552 L212.694075,71.2696919 L212.703649,71.6779327 L212.706404,72.0371436 L212.700709,72.3499037 C212.67106,73.1726874 212.520007,73.4671816 212.080574,73.4973637 L212,73.5 L211.913157,73.5008275 C211.692974,73.5034258 211.550963,73.4946348 211.174774,73.1259358 L211.020544,72.968463 L210.836496,72.7683036 L210.458628,72.3336134 L209.975878,71.7547267 L209.369805,71.0110676 L205.58206,66.280209 L204.63778,65.1191005 L204.015081,64.3697631 L203.454841,63.7126314 L203.111231,63.3204659 L202.788155,62.9613262 L202.633414,62.7931467 C202.12761,62.247827 201.718731,61.8552098 201.417301,61.6274251 L201.33989,61.5709409 L201.228,61.498 L201.097146,61.6747279 L200.919145,61.9335734 L200.630483,62.3801131 L200.375674,62.7907971 L199.87843,63.618972 L199.030995,65.0785104 L198.008663,66.8856758 L196.248326,70.0649283 L194.808654,72.704909 L193.67687,74.7978436 L193.440236,75.2370499 C193.220624,75.6448999 192.612393,75.5606525 192.511906,75.1084652 L192.268372,73.9968198 L192.04053,72.9242927 L191.828385,71.8908546 L191.631939,70.8964765 L191.36671,69.478083 L191.36671,69.478083 L191.136818,68.1474103 L191.136818,68.1474103 L191.003191,67.3089803 L190.885276,66.5094645 L190.783075,65.7488337 C190.751628,65.5017676 190.722799,65.2611776 190.696591,65.0270586 L190.625825,64.3441103 L190.57078,63.6999594 L190.53146,63.0945768 C190.515731,62.8015727 190.505899,62.5230959 190.501966,62.2591298 L190.5,62 C190.5,61.6084801 190.494293,61.206688 190.483032,60.7966216 L190.45315,59.9660483 L190.40873,59.1169621 C190.391535,58.8312425 190.371953,58.5430294 190.350044,58.2529148 L190.257041,57.1572277 L190.257041,57.1572277 L190.142705,56.0506509 C190.092775,55.6067672 190.037853,55.1619349 189.978092,54.7181519 L189.852163,53.832577 C189.762669,53.2352308 189.664503,52.6422438 189.558046,52.0585645 L189.392189,51.190645 L189.392189,51.190645 L189.214179,50.3403984 C188.570207,47.3997933 187.708152,44.8521265 186.682929,43.413466 C181.313046,43.510748 176.000942,43.4987526 170.744958,43.3848129 C170.693958,43.4809989 170.610963,43.5602318 170.506593,43.6060959 L170.421048,43.6348129 C170.301392,43.6633962 170.160012,43.756046 169.997054,43.9119934 L169.852095,44.0611461 L169.775659,44.1473149 L169.775659,44.1473149 L169.614885,44.3427702 L169.443594,44.5689593 L169.261805,44.8257747 L169.06954,45.1131086 L168.866819,45.4308536 L168.653662,45.7789019 L168.43009,46.1571461 L168.075247,46.7808939 L167.697085,47.4719768 L167.295673,48.2300317 L167.015182,48.7724288 L166.423374,49.9456043 L165.790599,51.2359039 L165.117023,52.6424666 L164.402808,54.1644315 L163.45314,56.2278605 L158.884256,66.3104215 L157.67354,68.9232644 L157.04849,70.2283279 L156.600796,71.1231003 L156.279056,71.7292746 L156.047574,72.1348521 L155.882506,72.4016686 L155.768639,72.5716667 L155.661999,72.7183614 L155.594348,72.8043265 L155.497179,72.9171996 L155.373855,73.0412034 L155.255141,73.1398349 L155.109048,73.2355978 L154.990665,73.2967097 L154.836297,73.3625071 C154.283032,73.5811701 153.75289,73.1995974 153.174048,72.1694799 L153.014921,71.8724228 L152.853055,71.5429888 L152.688126,71.1809599 L152.519811,70.7861185 L152.347787,70.3582468 L152.171728,69.8971269 L151.991312,69.4025412 L151.806214,68.8742719 L151.519082,68.0182347 L151.219596,67.0851843 L150.906662,66.0743858 L150.578623,64.9812652 L150.352488,64.2072901 L149.883461,62.5537544 L149.640568,61.6741889 L149.138017,59.8094501 L148.746431,58.3184793 L148.065833,55.6574712 L147.496186,53.3701913 L146.752656,50.3129668 L145.814243,46.3536633 L144.825433,42.0772407 L144.825433,42.0772407 C144.817584,42.0429114 144.813473,42.0085996 144.812833,41.9747315 C130.874111,40.7588351 117.336368,38.8269829 104.165031,36.2712338 L103.906074,38.2384582 L103.461738,41.5247167 L103.117616,43.9930414 L102.783575,46.3185621 L102.380192,49.0246791 L102.068813,51.0289732 L101.69374,53.3336285 L101.404997,55.0168104 L101.126306,56.5573125 L100.990728,57.2740656 L100.841643,58.0355927 L100.680005,58.8276999 L100.522111,59.5653017 L100.367918,60.2484955 L100.217386,60.877379 L100.070471,61.4520498 L100.070471,61.4520498 L99.9271311,61.9726054 L99.7873236,62.4391434 L99.6510062,62.8517615 L99.6510062,62.8517615 C99.448131,63.4331505 99.2534406,63.844931 99.0475465,64.1037887 C98.7259946,64.5080556 98.2602674,64.6326869 97.8714316,64.2878862 C97.7541412,64.1838788 97.6381885,64.0376975 97.5213542,63.8450851 L97.3746916,63.5798286 L97.3746916,63.5798286 L97.2261473,63.2643585 L97.1659869,63.1236967 L97.1659869,63.1236967 L97.0440539,62.8169106 L96.887979,62.384466 L96.887979,62.384466 L96.7269398,61.8958948 L96.5257836,61.2329203 L96.3144271,60.4832694 L96.0912057,59.643749 L95.8544549,58.7111663 L95.4252835,56.9413837 L94.3048004,52.1600246 L93.9990136,50.9205798 L93.7980147,50.153411 L93.6144407,49.501805 L93.4731437,49.0435837 L93.4731437,49.0435837 L93.387386,48.7900399 L93.3229404,48.9278982 C93.1739943,49.2317079 92.9796008,49.5762663 92.7453528,49.9546732 L92.4454832,50.4245673 L92.109501,50.9243064 L91.7395542,51.4512407 L91.2326296,52.1441155 L91.2326296,52.1441155 L90.6801857,52.8701678 L90.0864173,53.6242225 L90.0864173,53.6242225 L89.4555192,54.4011044 L89.1937032,54.7170896 L89.1937032,54.7170896 L88.6553364,55.3562081 L88.0991129,56.0026496 L87.5471402,56.6312631 L87.239379,56.9762876 L86.6307734,57.6464008 C86.4298286,57.8649307 86.2310651,58.0783455 86.0352561,58.2858235 L85.4574657,58.8896251 L84.9020411,59.4528745 C84.4497948,59.9039827 84.0256783,60.3077128 83.6417717,60.6512241 C83.0624179,61.1696172 82.5788723,61.547863 82.2002955,61.7715631 C81.6135354,62.118278 81.1230042,62.2001335 80.8317767,61.6957126 L80.7995447,61.6244666 L80.7732835,61.5326548 L80.7451107,61.356187 L80.733824,61.2125822 L80.7281639,60.9580191 L80.7360606,60.6562095 L80.7575507,60.3068612 L80.807413,59.7666096 L80.860764,59.305202 L80.9278309,58.7952821 L81.0386529,58.0394207 L81.2116947,56.9715284 L81.4232446,55.7656346 L81.7281747,54.1344963 L82.2218954,51.6434546 L82.6579275,49.5350013 L83.2382851,46.8115076 L83.8962525,43.800569 L84.7438466,40.0027636 L85.6941153,35.8191353 L86.4760073,32.4195483 C85.2602422,32.1259108 84.0476142,31.8270536 82.8380929,31.5230534 C79.9087038,30.7867828 77.0621825,30.036364 74.2621187,29.264996 C74.3824092,29.4472071 74.3696755,29.69419 74.2175489,29.865745 L68.1447969,36.6799147 L64.8098322,40.3827742 L62.2191428,43.2290465 L60.7785536,44.7952341 L58.7593177,46.9608034 L57.636268,48.142889 L56.660394,49.1494812 L56.0248443,49.7894552 L55.6469392,50.1614337 L55.148655,50.6374977 L54.8463911,50.914473 L54.5688458,51.1563538 C54.354483,51.3368737 54.1816427,51.4651916 54.0443989,51.5444294 C53.565667,51.8208254 52.9968837,51.6061531 53.0840209,51.0111903 L53.1278194,50.8023401 L53.1437172,50.6837918 L53.1559227,50.5395975 L53.1673107,50.2753016 L53.1703984,49.953512 L53.1651905,49.5743546 L53.1453502,48.9797899 L53.110781,48.2837597 L53.0313343,47.0501188 L52.9398585,45.8489294 L52.7997951,44.2005869 L52.5616984,41.6533204 L52.1386489,37.5027379 L51.658106,33.0830178 L50.8321543,25.8702 L50.4235653,22.4156413 C50.4047048,22.2575053 50.4618361,22.1078194 50.5661772,22.0031607 L45.8529571,20.4778895 C43.2227952,19.6686089 40.4648976,18.6354439 37.1672393,17.2510195 L35.3490921,16.4751959 L25.1733708,11.9575431 L24.3350742,11.5895469 L21.8960599,10.5368051 L21.8960599,10.5368051 L20.3281569,9.87634742 C19.8127008,9.66156251 19.3041953,9.45208591 18.8019574,9.24773956 L17.3133628,8.64991321 L15.8582745,8.08180007 C10.8193203,6.14415586 6.32073451,4.7328619 1.57174992,3.64180289 L0.891534771,3.48809353 L1.10846523,2.51190647 C7.53776097,3.94063886 13.4401661,5.92317508 20.7022672,8.94885984 L22.2799309,9.61336575 C22.8132144,9.84030879 23.3541226,10.0727524 23.9033432,10.3108748 L35.6859337,15.5311928 L36.2128378,15.7592861 L36.8895093,16.0482236 L38.1981116,16.5976027 C38.6248523,16.7745466 39.0424542,16.9454078 39.4518817,17.1104863 L40.6566055,17.5886729 C42.4297995,18.2808297 44.0569904,18.8619554 45.626054,19.359369 L47.1218052,19.8327241 L58.6189602,23.563298 L60.0484676,24.0182822 C67.6061079,26.3986491 75.0303139,28.5295497 83.0818508,30.5532173 C84.3511125,30.8722326 85.6238054,31.1855702 86.8999645,31.4931407 C86.9938356,31.450291 87.1019773,31.4381294 87.2101978,31.463164 C87.3213626,31.4888796 87.4152169,31.5498193 87.4826963,31.6314629 C92.7187857,32.8868572 98.0140425,34.0435954 103.370087,35.0969967 C103.472465,34.9492471 103.65145,34.8637654 103.841511,34.8884681 C104.054847,34.9161959 104.219203,35.0745655 104.264587,35.2726731 C139.899568,42.1950497 178.225202,44.5403865 219.951838,40.502325 L224.924298,40.0162182 L232.161099,39.2901945 L236.840334,38.8080544 L242.529084,38.2072301 L248.043014,37.6081931 L252.330654,37.1300566 L257.538779,36.5335103 L260.584246,36.1760714 L266.500059,35.4620031 L270.316656,34.9863572 L274.033531,34.5108589 L277.652488,34.0353605 L281.175328,33.5597144 L284.603853,33.0837731 L287.939866,32.6073889 L291.185167,32.1304142 L293.560699,31.7722069 L295.886979,31.4135222 L298.164769,31.0542977 L301.127705,30.5743846 L304.00759,30.0932536 L306.114084,29.7315174 L308.852963,29.2479001 L310.855772,28.8841297 L312.815413,28.5193836 L315.530295,28.001303 L317.261779,27.6632124 L318.93716,27.3293984 L320.562138,26.9985233 L322.142411,26.6692496 L323.683678,26.3402396 L325.191637,26.0101556 L327.038428,25.5940024 L327.038428,25.5940024 L328.853211,25.1714685 L330.28947,24.8270915 L331.718066,24.4756212 L333.144696,24.1157198 L334.57506,23.7460497 L336.014856,23.3652733 L337.469783,22.9720529 L338.945539,22.5650508 L341.210694,21.9257811 L342.763455,21.4784728 L345.17083,20.7724734 L347.689181,20.0204168 L349.439233,19.4912289 L353.135742,18.3600737 L355.852957,17.5221105 C358.917931,16.5790417 361.8195,15.4407039 365.057025,13.929349 L366.214444,13.3801516 C366.800942,13.0975192 367.399731,12.8026191 368.013556,12.4944745 L369.262068,11.8602365 L369.902885,11.5293304 L369.902885,11.5293304 L371.702788,10.5825805 L378.408453,6.97397724 L380.08898,6.08281789 L380.08898,6.08281789 L381.689654,5.24957327 L382.921148,4.62114324 C383.123167,4.51906375 383.323659,4.4182763 383.52276,4.31872482 L384.701733,3.7357988 L385.853738,3.17984409 L386.985211,2.64816891 C387.734112,2.30121381 388.473617,1.96865054 389.212306,1.6468901 L390.320802,1.17190293 C390.875817,0.938011769 391.432787,0.709187787 391.995333,0.483916861 L392.559871,0.259774208 Z M188.958909,43.3701582 L187.859326,43.3926752 C189.739785,46.5663581 190.997743,52.9635942 191.378519,58.5871878 L191.431333,59.4684445 C191.469202,60.196491 191.491642,60.9074868 191.498069,61.5923156 L191.5,62 C191.5,62.2457059 191.505819,62.5062034 191.51746,62.7814761 L191.548502,63.3517168 L191.569845,63.6516031 L191.569845,63.6516031 L191.640184,64.4443575 L191.640184,64.4443575 L191.734788,65.2985496 L191.827945,66.0261003 L191.936636,66.7929057 L192.060866,67.5989364 L192.200635,68.4441635 L192.355946,69.3285576 L192.526803,70.2520898 L192.713207,71.2147307 L193.02197,72.7319573 L193.2,73.574 L195.424683,69.4856068 L196.710877,67.1567992 L197.963902,64.9304018 L198.630672,63.772848 L199.313722,62.6196554 L199.698652,61.9930133 L200.027621,61.4794962 L200.237823,61.1682889 L200.360643,60.9959023 L200.469659,60.8515091 L200.564913,60.7350452 L200.646447,60.6464466 C201.121155,60.1717383 201.678297,60.4260729 202.601303,61.3221156 L202.889464,61.6100923 L203.201278,61.9360475 L203.525033,62.2852928 L203.854953,62.6519263 L204.388066,63.2637393 L204.976123,63.9597506 L205.629321,64.751168 L206.10601,65.3373179 L209.415871,69.4636771 L210.891831,71.2723254 L211.483809,71.9733191 L211.691,72.208 L211.699337,71.89644 L211.698206,71.5180152 L211.68776,71.0786206 L211.656217,70.3409972 L211.605262,69.482157 L211.507123,68.1487085 L211.44511,67.4013614 L211.295197,65.74562 L211.17815,64.5433942 L210.921606,62.0680734 L210.722228,60.242025 L210.441117,57.761669 L209.988035,53.9199884 L209.385197,49.0021583 L208.553638,42.4563272 C201.936881,42.9191415 195.406286,43.2212542 188.958909,43.3701582 Z M145.849153,42.0651671 L146.765246,46.0287996 L147.532568,49.2761467 L148.266405,52.3131294 L148.690629,54.0343289 L149.370863,56.7346526 L149.890917,58.7433828 L150.389513,60.6174006 L150.866645,62.3566874 L151.097159,63.1758008 L151.432864,64.3413019 L151.756486,65.4309932 L152.024507,66.3054495 L152.283471,67.1235728 L152.654844,68.2449727 L152.654844,68.2449727 L152.890981,68.9219425 L153.117912,69.5423226 L153.335596,70.1060398 C153.442119,70.3737203 153.545158,70.6201248 153.644689,70.8452119 L153.743051,71.0631918 C153.974253,71.5648273 154.182531,71.9383223 154.360375,72.1780552 L154.500991,72.3533978 C154.522535,72.3824725 154.526855,72.3971377 154.51472,72.4090173 L154.557832,72.386106 L154.629069,72.3333497 L154.705252,72.2628765 L154.787426,72.1725933 L154.876635,72.0604068 L155.008329,71.8731351 L155.196917,71.5714954 L155.416651,71.1857551 L155.728252,70.5982093 L156.168417,69.7196981 L156.965586,68.053534 L157.881052,66.0829723 L160.560066,60.196306 L162.543226,55.8130629 L163.524197,53.6783349 L164.076398,52.4950366 L164.60241,51.383784 L165.264571,50.0126182 L165.732962,49.0659467 L166.032279,48.4732349 L166.462502,47.6410994 L166.737204,47.1239054 L167.131751,46.4037875 L167.383499,45.9604325 L167.62653,45.546143 L167.861111,45.1606503 L168.087506,44.8036858 L168.305983,44.474981 L168.412334,44.321142 L168.412334,44.321142 L168.61943,44.0343229 L168.81927,43.7750918 L169.059274,43.4894395 L169.059274,43.4894395 L169.190993,43.3481179 C161.28522,43.1461192 153.506568,42.7134816 145.849153,42.0651671 Z M87.4498037,32.6534661 L86.0757279,38.6574372 L84.7831902,44.4531015 L83.9574468,48.262445 L83.3278774,51.2534754 L82.9207125,53.2486554 L82.465165,55.5728892 L82.2314646,56.8279176 L82.0372476,57.929027 L81.8827136,58.87463 L81.7680625,59.6631389 L81.7051915,60.1797714 L81.6749344,60.5001106 L81.6628329,60.6815103 L81.6567327,60.9295678 L81.6915737,60.9106321 C81.9246168,60.7729276 82.2292244,60.5458006 82.5925446,60.2389981 L82.9749597,59.9059981 C83.1983189,59.7061411 83.4364877,59.4844655 83.6868032,59.2437783 L84.2028411,58.7378869 L84.746537,58.1862881 L85.0272774,57.8949078 L85.0272774,57.8949078 L85.6035846,57.2841047 L86.1957158,56.6400697 L86.4962361,56.3071497 L86.4962361,56.3071497 L87.0496554,55.6837256 L87.5429406,55.1169179 L88.0239507,54.5537195 L88.4909969,53.9963372 L89.1616904,53.1759975 L89.7914671,52.3811596 L90.1857724,51.8691138 L90.557671,51.3739199 L90.9054743,50.897785 L91.2274938,50.4429163 L91.5220408,50.0115209 L91.7874267,49.605806 L92.0219631,49.2279786 C92.3133614,48.7437813 92.5179912,48.3398366 92.6178409,48.039687 L92.6503323,47.9320408 C92.8613728,47.1444268 93.560203,46.9690412 93.98631,47.6698437 C94.1232112,47.895 94.2653772,48.2442025 94.4233217,48.7309854 L94.5628121,49.1822367 L94.6982846,49.6551834 L94.8964105,50.3947988 L95.0398911,50.9582541 L95.2766386,51.9243657 L96.4868968,57.0812673 L96.7443151,58.1376934 L96.9872244,59.1002297 L97.215962,59.9690806 L97.3607471,60.4963678 L97.4994835,60.9821682 L97.6322711,61.4265423 L97.7592097,61.8295506 L97.8803994,62.1912536 L97.99594,62.5117118 L98.1588775,62.9151973 L98.1588775,62.9151973 L98.2607326,63.132808 L98.3096667,63.2262221 L98.3096667,63.2262221 L98.3663934,63.3239322 L98.4126948,63.2394562 C98.4661095,63.1347975 98.5233407,63.0063858 98.583366,62.8551011 L98.7068389,62.5222951 L98.7712534,62.33233 L98.903257,61.911077 L99.039458,61.4348079 L99.039458,61.4348079 L99.179814,60.9036203 L99.3242827,60.3176118 L99.4728216,59.67688 L99.6253884,58.9815226 L99.7819406,58.231637 L99.9424359,57.4273209 L100.143829,56.3709084 L100.350938,55.2340436 L100.708815,53.1605118 L100.931154,51.8091541 L101.314401,49.3781906 L101.632406,47.2726147 L101.960546,45.0241255 L102.298814,42.6327453 L102.735886,39.4426144 L103.181799,36.0791574 C97.8791722,35.0363136 92.6359522,33.8924366 87.4498037,32.6534661 Z M251.035535,38.2807742 L250.3183,38.3620617 L245.972718,38.8410476 L241.516618,39.3210534 L236.948199,39.8022273 L231.076975,40.4055632 L226.481535,40.8647742 L226.497191,40.8757121 C226.68842,41.0079051 226.889723,41.1663098 227.101775,41.3513202 L227.390941,41.6138015 L227.693204,41.9080228 L227.849358,42.0671008 L227.849358,42.0671008 L228.254752,42.4999083 L228.254752,42.4999083 L228.682141,42.9832009 L229.040357,43.4064565 L229.413453,43.8624892 L229.801785,44.3515065 L230.20571,44.8737158 L230.625584,45.4293246 L231.061763,46.0185402 L231.514605,46.6415702 L231.984465,47.2986219 L232.721945,48.348444 L233.499723,49.4759819 L234.321056,50.6849467 L240.331589,59.6605904 L241.470952,61.3284561 L242.054953,62.1530784 L242.342669,62.5381584 L242.461482,62.6889622 L242.658086,62.919871 L242.812082,63.0735464 L242.918333,63.1573563 L242.956754,63.1821848 L243.066785,63.2381234 L243.066785,63.2381234 L243.153107,63.2719009 L243.204178,63.2223452 C243.266675,63.1540906 243.339113,63.056672 243.418599,62.9317075 L243.500327,62.7976211 C243.794433,62.2956006 244.138876,61.50785 244.527175,60.4560782 L244.735333,59.8792523 L244.950384,59.257911 L245.2869,58.2401679 L245.641542,57.1164416 L245.888815,56.3066856 L246.277156,54.9985555 L246.687808,53.5751241 L247.100682,52.1105513 L249.918588,41.8309826 L250.244535,40.697104 L250.456437,39.9814249 L250.645058,39.3725978 L250.814563,38.8628549 L250.919002,38.5742373 L251.035535,38.2807742 Z M283.258325,34.2798274 L282.18763,34.4300194 L278.684979,34.9062469 L275.086693,35.3822715 L271.390969,35.8582413 L267.596003,36.3343046 L267.106303,36.39275 C267.216303,36.4419913 267.308934,36.5309124 267.360643,36.6502046 L267.438795,36.8353514 L267.594141,37.2324902 L267.748403,37.6657419 L267.8252,37.8960298 L267.8252,37.8960298 L268.016445,38.5119816 L268.016445,38.5119816 L268.206985,39.1860061 L268.35921,39.7675411 L268.511501,40.3871048 L268.740562,41.3885924 L268.894021,42.1049042 L269.048351,42.8605859 L269.281979,44.0687648 L269.439489,44.9245473 L269.678965,46.2846736 L269.841092,47.2429516 L270.227082,49.6340622 L270.754164,53.0900841 L271.525486,58.1928656 L271.734463,59.4936058 L271.875718,60.3246738 L272.00589,61.0425182 L272.087485,61.4629003 L272.165608,61.8400424 L272.252854,62.2269716 L272.334971,62.5518796 L272.41082,62.8137267 L272.546556,62.6663629 L272.743067,62.4334717 L272.973089,62.1455986 L273.232524,61.8075758 L273.517273,61.4242354 L273.82324,61.0004095 L274.146326,60.5409301 L274.482433,60.0506295 L274.827464,59.5343395 L275.177322,58.9968925 L275.607327,58.3160243 L275.884026,57.8662919 L276.405451,56.9928539 L276.761738,56.3740409 L277.081729,55.7991623 L277.359592,55.2797828 L277.589493,54.8274672 L277.765599,54.4537801 L277.850236,54.2540489 C277.897442,54.1350181 277.925829,54.0449957 277.933091,53.9885504 L277.93454,53.9525834 C277.898099,53.5360643 278.261121,53.2397539 278.660815,53.3630898 C278.794466,53.4043314 278.921327,53.4850876 279.083586,53.6135149 L279.176329,53.6891633 L279.447394,53.9287802 L279.447394,53.9287802 L279.777075,54.2421937 L280.374843,54.8411448 L281.059951,55.5517187 L283.478002,58.1117474 L284.552496,59.2290717 L285.303914,59.9915601 L285.945209,60.6256517 L286.463488,61.1206177 L286.863663,61.481007 L286.865932,61.4508846 C286.868684,61.3653666 286.869806,61.2705157 286.869403,61.1664606 L286.862698,60.826811 L286.84605,60.4327073 L286.818475,59.9737336 L286.780323,59.4604687 L286.703267,58.5888895 L286.602416,57.5954488 L286.47777,56.4803229 L286.329331,55.2436881 L286.133695,53.7058412 L285.846845,51.5680937 L285.366291,48.1731489 L284.966639,45.4610168 L284.425023,41.8906176 L283.597608,36.5941999 L283.256314,34.4501712 C283.247014,34.3920139 283.248145,34.3345971 283.258325,34.2798274 Z M51.4138038,22.2776163 L52.2689221,29.5744787 L52.8039917,34.3322879 L53.2939405,38.920521 L53.5715164,41.6979308 L53.7953247,44.1198831 L53.9444201,45.9144165 L54.0541104,47.4504782 L54.1244405,48.7293056 L54.1494827,49.4395602 L54.1568054,49.8978058 L54.1556348,50.189239 L54.324862,50.0374276 L54.6221053,49.7597656 L54.9564749,49.4380202 L55.5275372,48.8728356 L56.418453,47.965347 L57.1835566,47.1694782 L58.5022571,45.7740632 L60.3230195,43.814489 L62.4133332,41.5339068 L65.1322775,38.5345061 L68.6117909,34.6591475 L73.4693459,29.202275 C73.5133678,29.1526311 73.5650567,29.1138204 73.6210528,29.0860446 C69.5220911,27.9510542 65.5186289,26.7685251 61.4942005,25.5183244 L58.8257603,24.6793905 L51.4138038,22.2776163 Z M317.118535,28.7087742 L314.83194,29.1541163 L313.000593,29.5020881 L311.037949,29.8673959 L309.032165,30.2317141 L306.98248,30.5951052 L304.179962,31.0782926 L301.29624,31.5600912 L299.036535,31.9257742 L299.400619,32.2997292 L300.054574,33.0040009 L300.66652,33.6840011 L301.545174,34.6821224 L302.553237,35.8474813 L304.188157,37.7653664 L312.394542,47.5481534 L313.611602,48.9702188 L314.221689,49.6624291 L314.362467,49.8174856 L314.373389,49.7836959 L314.455246,49.4639507 L314.455246,49.4639507 L314.540134,49.0800011 L314.627981,48.6327559 L314.71871,48.1231244 L314.851066,47.302614 L315.009458,46.2175011 L315.174839,44.9800265 L315.441833,42.8021132 L315.687388,40.6569126 L316.487258,33.3486741 L316.663841,31.8265212 L316.825516,30.5334336 L316.940256,29.7150045 L317.019885,29.2194186 L317.070657,28.9425493 L317.118535,28.7087742 Z M347.883535,21.0047742 L347.116036,21.2365735 L344.631043,21.9744547 L343.033635,22.4413318 L340.712148,23.1074269 L339.955367,23.3210021 L339.955367,23.3210021 L338.463103,23.7364712 L336.994483,24.1374803 L335.543803,24.5253673 L334.105361,24.9014702 L333.583623,25.0337031 C333.784597,25.3429882 334.006308,25.7280416 334.24429,26.1758681 L334.537393,26.7425592 L334.537393,26.7425592 L334.991161,27.6706323 L334.991161,27.6706323 L335.307575,28.3474439 L335.633249,29.0653178 L336.135633,30.2089669 L336.477478,31.00919 L336.996639,32.2546066 L337.344682,33.1081703 L337.865663,34.4118414 L338.380555,35.729579 L338.883975,37.0457184 L339.528049,38.7710102 L339.983759,40.0225025 L340.410048,41.220181 L340.80153,42.3483812 L341.040523,43.0541799 L341.260057,43.7174959 L341.458538,44.3336878 L341.713967,45.1654377 L341.748915,45.0680848 L343.199434,40.6500799 L343.490582,39.7884326 L343.75559,39.028746 L343.997885,38.3664179 L344.148488,37.9766811 L344.291535,37.6268057 L344.428041,37.3154281 L344.55902,37.0411846 L344.685489,36.8027115 L344.747349,36.6964628 L344.747349,36.6964628 L344.868955,36.5090888 C345.069707,36.2241454 345.26224,36.0740414 345.467707,36.030368 C345.771873,35.9657155 346.183995,36.1524049 346.729951,36.6088194 L346.955533,36.805814 L347.195759,37.0318408 L347.450997,37.2871612 L347.721614,37.5720366 L348.00798,37.8867284 L348.467861,38.4152439 L348.965246,39.0123171 L349.501377,39.6788304 L350.077495,40.4156662 L350.694843,41.2237068 L351.487342,42.2834606 L347.883535,21.0047742 Z" id="Shape-1" fill="#000000" fill-rule="nonzero"></path> </g> </svg> 