<?xml version="1.0" encoding="UTF-8"?> <svg xmlns="http://www.w3.org/2000/svg" xmlns:xlink="http://www.w3.org/1999/xlink" width="139px" height="116px" viewBox="0 0 139 116"> <title>Path 28 Copy</title> <g id="About-Us" stroke="none" stroke-width="1" fill="none" fill-rule="evenodd"> <g id="Main-1200-(4)-4" transform="translate(-416.000000, -140.000000)" fill="#000000" fill-rule="nonzero"> <g id="Group-3" transform="translate(371.000000, 40.000000)"> <g id="Tab-Copy-2" transform="translate(46.000000, 0.000000)"> <path d="M27.0438616,104.864897 C43.8316765,94.9761406 60.500423,100.600013 66.3104309,121.282448 L66.4831569,121.913797 L65.5168431,122.171164 C60.0485865,101.639949 43.9610359,96.0605337 27.5513991,105.726526 C10.9837008,115.485624 1.30205393,136.543394 6.13809994,158.11741 C6.67255718,160.501669 9.04453224,162.222976 13.4137394,163.929764 L14.2918975,164.2613 L17.6775227,165.470711 C22.4351944,167.190969 35.167783,167.050882 39.0310889,164.604518 L39.390462,164.368083 L39.8310233,164.063192 L40.3473276,163.694328 L41.3613643,162.949573 L42.0530306,162.432039 L43.3270709,161.466076 L45.32303,159.931451 L49.4684688,156.697172 L52.675024,154.169764 L64.2165299,144.993818 C66.1306874,143.522208 67.9806003,142.133432 69.7779304,140.82224 L71.3058936,139.717237 C75.0949679,137.001619 78.6578896,134.635356 82.1094051,132.56677 L82.7982568,132.157007 C83.471257,131.759703 84.1380683,131.375153 84.7986718,131.003507 L85.7849188,130.455735 L86.7618401,129.927433 C88.0581782,129.236059 89.3296098,128.596907 90.5759839,128.011181 L91.5060638,127.581923 C92.1229817,127.302455 92.7336258,127.036419 93.3379772,126.783965 L94.2397824,126.415491 C104.855241,122.176209 113.485136,122.240147 120.023938,127.45061 C122.728199,129.605508 125.327112,134.968891 126.048936,141.044902 C126.997418,149.028827 124.887634,157.662443 119.085158,166.247785 C107.999674,182.649863 90.8682316,187.249532 66.2465306,184.086051 L65.1973823,183.947717 L64.1485845,183.802299 L63.0964504,183.649238 L61.5039289,183.404092 L60.4273242,183.229474 L59.3344793,183.045256 L57.6566967,182.7497 L56.5071214,182.539029 L54.7269611,182.201172 L52.8687834,181.835417 L51.5805106,181.575149 L50.2483464,181.301082 L47.4375961,180.709315 L33.3817626,177.680802 L31.0819768,177.20893 L29.385631,176.888721 L28.3095363,176.704792 L26.0778632,176.349779 C19.9518878,175.385124 12.6246502,176.349619 7.60426741,179.021048 C1.70051814,182.162531 -0.598528512,187.230333 1.78462437,194.028858 C5.79848255,205.479366 17.6014437,211.629267 33.9577322,212.402633 C48.0814157,213.070436 64.145492,209.452957 74.1346179,203.641638 L74.9263772,203.175923 L75.9562137,202.553227 L76.7235014,202.075601 L77.238728,201.748148 L78.0252871,201.238102 L78.8381096,200.699041 L79.4000266,200.320005 L80.5866459,199.50518 L81.5444104,198.836035 L82.5725398,198.109181 L83.6820592,197.317447 L88.6705254,193.722127 L90.4343854,192.465933 L91.3909627,191.793717 L92.5714476,190.976915 L93.6682909,190.23462 L94.1938268,189.885843 L95.2160871,189.221891 L95.970928,188.744556 L96.4748703,188.43198 L97.4997348,187.810353 L97.7619617,187.654057 C103.151757,184.45212 108.414328,182.611211 112.851677,182.45039 L113.295,182.44 L116.82204,179.075013 L118.179527,177.761254 L119.077171,176.874609 L119.366162,176.582256 L119.517358,176.426733 C127.498587,168.154141 133.022498,159.917693 136.293927,150.102038 L136.523773,149.398212 L137.476227,149.702893 C134.184122,159.994243 128.506332,168.549866 120.237025,177.121053 L119.667427,177.698623 L118.736384,178.615186 L117.354047,179.951091 L114.699,182.485 L114.752249,182.48935 C115.231645,182.52833 115.698836,182.590029 116.152769,182.674927 L116.490716,182.742958 C122.274359,183.991257 125.482257,188.9727 125.43035,197.601747 C125.36406,208.621745 115.098986,216.162007 104.824321,215.384037 C100.134637,215.028946 96.7299548,212.764959 95.8862365,209.030624 C94.9508557,204.890587 97.1883479,199.343517 102.81867,192.723294 L103.244174,192.229748 L103.471383,191.97986 L103.890859,191.536642 L104.583541,190.82985 L105.634932,189.785529 L107.115876,188.3429 L109.348979,186.197739 L112.191,183.489 L112.139844,183.493144 C108.175306,183.806024 103.520273,185.464611 98.7228638,188.249421 L98.2727063,188.51379 L97.5019582,188.976348 L96.7484351,189.438505 L96.0007655,189.907735 L95.247578,190.39151 L94.7367721,190.725799 L93.4048061,191.618868 L92.2549154,192.410576 L90.6679325,193.525841 L88.8655703,194.812987 L85.4642928,197.268083 L83.5034429,198.674133 L81.4581602,200.117216 L80.2400221,200.95802 L79.3840336,201.537131 L78.5650924,202.080126 L77.7720951,202.594223 L76.7359315,203.247211 L75.96029,203.721952 L75.4377326,204.035314 L74.6374768,204.506006 C64.4759541,210.41762 48.2207419,214.078141 33.9105025,213.401517 C17.1905091,212.610954 5.01487572,206.266873 0.840924944,194.359662 C-1.71361169,187.072224 0.81345771,181.501789 7.13451567,178.138249 C12.358497,175.358482 19.9039861,174.365259 26.2334161,175.361952 L27.2452149,175.525705 L28.2860942,175.702877 L29.3612546,175.894268 L30.4758968,176.10068 L31.6352213,176.322911 L32.8444288,176.561765 L34.7631469,176.95296 L37.2823187,177.483828 L46.9091776,179.573628 L49.0695034,180.033026 L51.7726845,180.593739 L53.0565682,180.853145 L54.3002083,181.099328 L56.0982409,181.445028 L57.8263726,181.764116 L59.4969917,182.058473 L60.584904,182.241903 L61.6564318,182.415737 L62.7152456,182.580533 L64.2876572,182.812002 L65.8521098,183.026275 C66.0259545,183.049198 66.1998813,183.071837 66.3739665,183.094204 C90.6608427,186.214666 107.42558,181.713454 118.256639,165.687823 C123.925005,157.300911 125.976012,148.907825 125.055919,141.162872 C124.363127,135.33124 121.881164,130.209207 119.400745,128.232678 C112.686971,122.882789 103.514139,123.260421 91.9998726,128.456714 L91.0737385,128.88268 C90.9185511,128.955381 90.7629479,129.028936 90.6069294,129.10334 L89.6658352,129.559952 C89.0351187,129.871138 88.3977644,130.195858 87.7537902,130.533975 L86.7828662,131.051179 C86.6202188,131.139049 86.4571582,131.227751 86.2936847,131.317285 L85.3078909,131.864437 C84.6473948,132.235828 83.980301,132.620444 83.3066275,133.018145 C79.2109787,135.436 74.9612983,138.278533 70.3620006,141.633994 L68.8156843,142.771599 C68.2957504,143.157214 67.7712319,143.549283 67.2418606,143.947926 L65.6389199,145.163699 L64.5908546,145.970775 L54.8256406,153.743003 L49.2883472,158.109152 L46.3611139,160.391408 L43.997461,162.211052 L42.4403834,163.390289 L41.321054,164.221028 L40.392103,164.890274 L39.9371694,165.205199 L39.6801056,165.376136 C39.6404614,165.401928 39.6024408,165.426351 39.5660791,165.449376 C35.4814706,168.035876 22.8318852,168.22126 17.6193257,166.508243 L15.5267558,165.769182 L13.5766578,165.063146 L13.4489541,165.015021 C8.52891162,163.143761 5.81291904,161.238542 5.1623151,158.336142 C0.229318199,136.32962 10.1095366,114.839954 27.0438616,104.864897 Z M113.945557,183.445882 L113.694,183.441 L109.752385,187.195885 L107.149268,189.703 L106.240872,190.591341 L105.077699,191.750996 L104.461834,192.385446 L104.096702,192.777077 L103.903641,192.994303 C103.689341,193.2421 103.480074,193.488244 103.275802,193.732707 L102.677934,194.461031 C93.3506604,206.032709 95.4480746,213.67123 104.899823,214.386891 C114.640922,215.124461 124.367905,207.979456 124.430368,197.595732 C124.47965,189.403124 121.553126,184.858618 116.279742,183.72045 C115.542644,183.56136 114.76267,183.470604 113.945557,183.445882 Z" id="Path-28-Copy"></path> </g> </g> </g> </g> </svg> 