<?xml version="1.0" encoding="UTF-8"?> <svg xmlns="http://www.w3.org/2000/svg" xmlns:xlink="http://www.w3.org/1999/xlink" width="154px" height="62px" viewBox="0 0 154 62"> <title>Path Copy</title> <g id="About-Us" stroke="none" stroke-width="1" fill="none" fill-rule="evenodd"> <g id="Main-1200-(4)-4" transform="translate(-904.000000, -186.000000)" fill="#000000" fill-rule="nonzero"> <g id="Group-3" transform="translate(371.000000, 44.000000)"> <g id="Tab-Copy-3" transform="translate(492.000000, 0.000000)"> <path d="M155.275434,142.619983 L157.132884,142.68703 L158.843711,142.723751 L164.277331,142.804992 L166.152132,142.853726 L167.245709,142.894516 L168.631391,142.959486 L169.538774,143.011147 L170.41891,143.069643 L171.271664,143.135197 C171.411501,143.146723 171.550191,143.158552 171.687732,143.170689 L172.499167,143.247246 L173.282888,143.331416 C173.411191,143.346091 173.538335,143.361093 173.664315,143.376426 L174.406217,143.472433 C174.770168,143.52246 175.123602,143.575551 175.466444,143.631831 L176.137984,143.748679 C180.520474,144.556503 183.01113,145.946029 183.432768,148.21381 C183.694059,149.61916 182.563894,150.970806 180.231457,152.300132 L179.765056,152.55715 C179.203524,152.8567 178.581313,153.155215 177.9006,153.453056 L177.302856,153.708192 L176.676762,153.963049 C176.570068,154.005505 176.462205,154.047951 176.35318,154.090388 L175.685135,154.344921 C175.571486,154.387329 175.456689,154.429731 175.340748,154.472127 L174.631436,154.726449 L173.894995,154.980695 L172.740131,155.362029 L171.937198,155.616304 L171.108203,155.870678 L170.253449,156.125203 L168.923689,156.507383 L168.467887,156.634907 C167.121923,157.009032 165.677277,157.383601 164.210384,157.74494 L163.328191,157.960047 L161.50916,158.390486 L160.159543,158.699185 L158.837537,158.993081 L156.732332,159.443434 L155.550162,159.686013 L154.096469,159.972191 L152.812241,160.210521 L151.979591,160.354414 L151.494169,160.432399 L151.06917,160.495192 L124.820347,164.140279 L113.625277,165.674112 L101.976295,167.242048 L96.6231274,167.944058 L91.5849646,168.582018 L88.7526823,168.920353 L86.885332,169.124456 L86.0178697,169.207355 L85.7337846,169.231117 L85.3597025,169.257917 L85.0594573,169.272725 L84.8279561,169.275274 C84.7616806,169.274051 84.7060135,169.270741 84.6601063,169.2653 C84.558542,169.25326 84.4786152,169.233321 84.3875939,169.177131 C84.1071498,169.004006 84.0598734,168.631023 84.2739872,168.391539 C84.3751062,168.278438 84.4737733,168.233539 84.6671983,168.168891 L84.8445917,168.114376 L85.207837,168.018006 L85.515628,167.943717 L86.0772253,167.816687 L87.2845486,167.561601 L89.6525689,167.089997 L102.352346,164.662652 L105.119711,164.118256 L107.498416,163.635328 L109.201647,163.275359 L110.108252,163.0763 L111.188925,162.829018 L111.903,162.656 L110.561408,162.728845 L109.012364,162.835948 L107.738863,162.935756 L105.091301,163.164976 L101.980681,163.458804 L97.100101,163.952857 L90.8486839,164.622604 L82.9701294,165.503808 L76.5998016,166.236883 L67.5564026,167.300895 L65.3774549,167.56893 L63.890523,167.760906 L62.4996896,167.950242 L61.1778283,168.141539 L59.8978126,168.339403 L58.632516,168.548436 L57.7837665,168.69627 L56.9214651,168.852478 L56.4827208,168.934149 C54.9429442,169.223246 53.5067048,169.52785 52.1838726,169.84888 L51.2131665,170.092746 L50.2859134,170.342858 C48.6263468,170.807174 47.190521,171.303412 46.0040944,171.833959 C43.1911648,173.091845 42.0042514,174.431615 42.4743416,175.841886 C42.9180218,177.172927 44.6762938,178.193809 47.4930348,178.909153 L48.07042,179.048149 L48.6755757,179.179006 C48.7787239,179.200137 48.8830103,179.22093 48.9884252,179.241384 L49.634383,179.360047 C49.8541662,179.398248 50.0783882,179.435095 50.3069729,179.470591 L51.0057397,179.573024 C51.124357,179.589421 51.2440459,179.60548 51.3647972,179.621202 L52.1019755,179.711484 L52.8641924,179.793676 L53.6509924,179.867787 L54.4619204,179.933823 L55.2965209,179.991794 C55.4375683,180.000784 55.5795832,180.009438 55.722556,180.017757 C58.5457647,180.182025 61.5846022,180.20807 64.6659513,180.129264 L65.9599923,180.0901 L66.7780698,180.059027 L68.2771851,179.988492 L69.2553958,179.931334 L71.7267589,179.754068 L73.415683,179.623267 L75.6757406,179.422446 L77.9076851,179.189216 L82.3824838,178.654027 L92.0162937,177.403089 L108.47223,175.222386 L112.303537,174.72897 L115.176819,174.368734 L118.579918,173.955974 L121.830457,173.578718 L123.732908,173.366641 L126.240964,173.09755 L128.398161,172.876361 L130.517468,172.669351 L132.59962,172.476639 C132.94359,172.445718 133.286042,172.415397 133.626993,172.38568 L135.654792,172.21463 C135.989796,172.187334 136.323328,172.160646 136.655403,172.134568 L138.630507,171.985442 C138.956819,171.961815 139.281706,171.938803 139.605183,171.916408 L141.529245,171.789469 C142.165041,171.749639 142.795318,171.712299 143.4202,171.677467 L145.278783,171.580517 C146.200104,171.535824 147.109562,171.49682 148.00757,171.46357 L149.788443,171.40476 L151.53952,171.36141 C155.301771,171.284317 158.859388,171.316906 162.246049,171.4645 L163.647034,171.53189 L165.477593,171.631919 L166.667241,171.703766 L167.832288,171.779759 L168.972714,171.859911 L170.637146,171.98797 L171.715936,172.078583 L172.770039,172.173404 L173.799435,172.272448 L174.804105,172.375729 L176.264707,172.538626 L177.207479,172.652561 L178.125459,172.770782 L179.018627,172.893303 L179.886964,173.020139 L180.730451,173.151303 L181.54907,173.286809 L182.342801,173.426672 L183.111625,173.570905 L183.855523,173.719523 L184.574476,173.87254 L185.268464,174.029969 L185.937469,174.191826 L186.581472,174.358123 C186.686722,174.38621 186.790928,174.414482 186.894092,174.442941 L187.500556,174.615926 L188.081969,174.793387 C188.271597,174.853288 188.457046,174.913938 188.638314,174.975338 L189.16957,175.161793 C189.428923,175.256149 189.678861,175.3522 189.919373,175.449953 L190.387826,175.64773 C190.691745,175.781098 190.978893,175.917501 191.249247,176.056959 L191.642178,176.268439 C193.543816,177.337317 194.5,178.578532 194.5,180 C194.5,181.819469 193.201347,183.366613 190.762678,184.682318 L190.292107,184.926311 C189.969538,185.087178 189.629311,185.244468 189.271736,185.398262 L188.722402,185.626341 C188.534979,185.7015 188.343258,185.775795 188.147278,185.849235 L187.546597,186.067004 L186.920591,186.279709 C186.814159,186.314741 186.706681,186.349564 186.598163,186.38418 L185.934606,186.589399 C185.821944,186.623191 185.708252,186.656778 185.593533,186.690162 L184.892947,186.88803 L184.167965,187.081074 L183.418821,187.269351 L182.645745,187.452924 L181.848972,187.63185 L181.028733,187.806191 L180.18526,187.976005 L179.318786,188.141354 L178.429543,188.302296 C178.279452,188.328756 178.128421,188.355035 177.976457,188.381134 L177.053497,188.535579 L176.108349,188.685768 L175.141246,188.831761 L174.15242,188.973617 C169.583359,189.612655 164.587614,190.078433 159.463228,190.396256 L157.336678,190.519255 L155.821119,190.596037 L154.857245,190.640008 L153.492797,190.695339 L152.239922,190.738157 L150.770084,190.776248 L148.17316,190.825011 L145.61673,190.864208 L142.847039,190.896023 L140.300916,190.915123 L137.250567,190.925244 L132.326257,190.914046 L128.127439,190.881121 L123.048811,190.81847 L115.515339,190.692529 L107.648216,190.534265 L84.9739094,190.034605 L79.8210799,189.938784 L75.3233955,189.867776 L72.0945204,189.825928 L68.9651307,189.793841 L65.913378,189.7715 C62.7459643,189.753177 57.1311713,190.195091 53.0550953,190.998572 C50.3476952,191.532258 48.288648,192.209888 47.0722826,193.019414 C45.8050726,193.862778 45.5524148,194.732928 46.3392119,195.863642 C47.9073163,198.117183 51.5067729,199.590638 56.534596,200.38066 C59.7780862,200.89031 62.8910214,201.052395 66.2872188,201.046438 L67.7297282,201.036417 L69.8333544,201.034986 L71.901377,201.041935 L74.703482,201.06567 L77.5005,201.105834 L80.8632925,201.173837 L85.9615771,201.308979 L94.250496,201.578637 L107.932837,202.070239 L112.268201,202.215049 L117.091127,202.359041 L120.836048,202.454053 L122.979423,202.500097 L126.403946,202.558468 L129.03123,202.588551 L130.948212,202.601376 L132.205037,202.605272 L133.380769,202.605521 C135.330773,202.603149 137.235729,202.586824 139.13611,202.55639 L141.131563,202.519242 L143.891364,202.454105 L146.666387,202.381038 L150.224152,202.275292 L152.790985,202.189059 L155.27529,202.096307 L157.681087,201.996511 L160.012394,201.889145 L161.527199,201.813103 L163.011874,201.733306 L165.184996,201.606232 L166.599554,201.51637 L167.988149,201.422208 L170.024965,201.272563 L172.010061,201.11237 L173.947456,200.941101 L175.841167,200.758232 L177.695214,200.563237 L178.911193,200.426243 L180.11252,200.283471 L181.889642,200.058136 L183.059548,199.900235 L184.218968,199.736009 L185.369094,199.565304 L186.511116,199.387963 L187.646224,199.20383 C187.834899,199.172567 188.023335,199.141014 188.211558,199.109169 L189.338529,198.914557 L189.900464,198.814568 L190.077319,199.798805 L188.946761,199.998001 L187.811803,200.190048 L186.671249,200.375102 L185.523902,200.553321 L183.787528,200.808176 L182.029143,201.048534 L180.842663,201.200981 L179.64341,201.347376 L178.430187,201.487878 L177.201797,201.622643 L175.957045,201.751829 L174.694735,201.875591 L173.41367,201.994087 L172.112654,202.107474 L170.121105,202.268319 L168.077938,202.418551 L166.685156,202.513072 L165.266442,202.603268 L163.820599,202.689298 L162.346432,202.771316 L160.079456,202.887168 L156.946522,203.029066 L154.508862,203.126748 L152.839627,203.188 L150.266592,203.274469 L146.700458,203.380485 L142.970785,203.477051 L142.011693,203.499863 C139.145986,203.566898 136.31616,203.601942 133.385398,203.605538 L130.948195,203.601412 L128.378,203.582449 L125.723393,203.548636 L122.965984,203.500045 L119.346641,203.418637 L116.290687,203.337064 L111.396189,203.187464 L90.9127449,202.465504 L84.4465791,202.26593 L80.2271288,202.15975 L77.1989109,202.100903 L74.7143071,202.065879 L72.6842429,202.046918 L70.6603649,202.036733 L67.1519023,202.041506 C63.3675799,202.077434 59.9603234,201.931215 56.3793705,201.368539 C51.102294,200.539352 47.287999,198.977951 45.5183791,196.434811 C44.3847047,194.805595 44.8161462,193.319717 46.5182386,192.186926 C47.8701269,191.287206 50.0357236,190.574511 52.8616956,190.017452 C55.0184497,189.59231 57.5895401,189.267362 60.0150276,189.055993 L61.1221058,188.966551 C62.9432086,188.831085 64.6271828,188.764043 65.9191629,188.771517 L68.9736523,188.793877 L72.1056708,188.825989 L75.337084,188.867869 L79.8380411,188.938928 L91.7372333,189.177691 L106.121931,189.501239 L115.528252,189.692591 L123.05655,189.818464 L128.131263,189.881088 L132.326493,189.914006 L135.814737,189.925324 L138.347286,189.923152 L142.144638,189.902217 L144.21901,189.881607 L145.833971,189.861132 L149.093387,189.808549 L151.449793,189.760186 L153.028864,189.711537 L154.351377,189.660643 L155.774924,189.597103 L157.803038,189.492254 L159.401326,189.398174 C164.501976,189.081823 169.473149,188.618336 174.013906,187.983256 L174.992632,187.842653 L175.949501,187.69766 L176.884235,187.548296 L177.796555,187.394579 C177.946725,187.368598 178.095949,187.342436 178.244222,187.316094 L179.122395,187.155881 C179.266839,187.12882 179.41032,187.101579 179.552832,187.074158 L180.396232,186.907492 L181.216099,186.736546 L182.012154,186.561339 C182.14283,186.531783 182.272502,186.502051 182.401165,186.472143 L183.160979,186.290578 C183.28558,186.259965 183.40916,186.229177 183.531713,186.198214 L184.254658,186.010333 L184.952673,185.818264 L185.625481,185.622026 C185.735499,185.588973 185.844455,185.555747 185.952344,185.522349 L186.586815,185.319891 C187.208379,185.115368 187.791083,184.90466 188.33367,184.687849 L188.862837,184.469006 C191.8711,183.180596 193.5,181.685461 193.5,180 C193.5,178.659373 192.224497,177.459563 189.704028,176.423803 L189.259757,176.247856 L188.79113,176.075148 L188.29818,175.905707 L187.780941,175.739558 C187.692713,175.712142 187.603474,175.684865 187.513225,175.657726 L186.959617,175.496564 L186.381806,175.338759 L185.779827,175.184337 L185.153713,175.033324 L184.503498,174.885747 L183.829217,174.74163 C183.714833,174.717901 183.599448,174.694316 183.483062,174.670878 L182.408592,174.463885 L181.280203,174.264855 L180.498046,174.136636 C180.365696,174.115565 180.232351,174.094645 180.098011,174.073876 L179.28005,173.951073 L178.438261,173.831913 L177.57268,173.716423 L176.68334,173.604627 L175.304857,173.44392 L173.873109,173.291673 L172.889076,173.194919 L171.881455,173.101991 L170.850281,173.012914 L169.795587,172.927714 L168.717408,172.846417 L167.05618,172.731848 L164.75933,172.592994 L162.975433,172.499396 C159.377298,172.32239 155.582338,172.278596 151.549015,172.361478 L149.805733,172.404735 L148.032538,172.46339 C147.734472,172.474442 147.43513,172.486132 147.134495,172.498455 L145.315067,172.579991 L143.463907,172.676638 C143.152696,172.693999 142.840133,172.711984 142.526202,172.730592 L140.626085,172.849692 C139.987162,172.891869 139.342647,172.936517 138.692421,172.983616 L136.724483,173.132252 L134.721546,173.295485 C134.384766,173.3239 134.046497,173.352919 133.706725,173.382539 L131.649925,173.567453 L129.556309,173.766677 C129.204264,173.801067 128.850655,173.836049 128.495467,173.87162 L125.720906,174.157951 L123.841347,174.360746 L120.65791,174.719355 L118.030344,175.028624 L114.593734,175.448764 L111.684742,175.815863 L106.152429,176.53547 L85.9991616,179.20029 L80.9423595,179.840153 L78.7190505,180.104106 L76.5326425,180.342202 L74.6146231,180.525309 L73.1353491,180.649104 L69.8974313,180.890076 L69.0072455,180.948652 L67.9741752,181.005549 L66.820672,181.05812 L65.5691876,181.103719 L64.691518,181.128937 C61.5842678,181.208405 58.5184963,181.18213 55.6644694,181.016069 L54.7988584,180.96111 L53.9568037,180.898223 L53.1386547,180.827261 L52.3447607,180.748075 L51.5754711,180.660517 L50.8311355,180.56444 C50.7091784,180.547709 50.5882757,180.530617 50.4684345,180.513161 L49.7621848,180.404028 C48.8376592,180.252625 47.9820066,180.077517 47.1989541,179.87713 L46.6253355,179.722075 C43.8258873,178.922852 42.0604808,177.762581 41.5256584,176.158114 C40.8372576,174.092912 42.3687566,172.364178 45.5958714,170.921076 C48.0521327,169.822685 51.4864271,168.881027 55.7164553,168.062219 L56.7402229,167.869038 L57.608782,167.711683 L58.4634116,167.562803 L59.736929,167.352366 L60.5921166,167.218661 L61.46168,167.088621 L62.3537067,166.960872 L63.751556,166.770542 L65.7694576,166.511969 L68.0227829,166.237834 L74.4385844,165.481948 L82.7170693,164.525886 L91.7871978,163.513737 L95.7206897,163.091806 L99.7355348,162.676949 L103.650588,162.294689 L105.912962,162.088731 L108.504592,161.873959 L109.881513,161.773979 L111.074345,161.699999 L111.702624,161.667972 L112.605623,161.634993 L113.199607,161.626804 L113.454194,161.628723 L113.680702,161.634627 L113.968136,161.650913 L114.050065,161.658314 C114.634393,161.717085 114.913842,161.814029 114.92486,162.289452 C114.9331,162.645052 114.759593,162.791918 114.358965,162.964136 L114.116238,163.061528 L113.845425,163.156081 L113.522051,163.25752 L113.146171,163.365965 L112.484019,163.542038 L111.70403,163.734557 L110.615351,163.98732 L109.095788,164.321036 L107.70782,164.613188 L104.886056,165.184387 L102.043381,165.741236 L94.057,167.264 L100.898236,166.376087 L113.709483,164.653401 L138.189413,161.280253 L151.126408,159.476682 L151.561262,159.409544 L152.051323,159.328435 L152.881903,159.182012 L154.148328,158.944008 L155.201333,158.736296 L156.329027,158.506008 L157.519026,158.255359 L159.18121,157.893315 L160.902796,157.50426 L161.776693,157.301243 L162.654435,157.093442 L163.532352,156.881513 C165.139784,156.489594 166.729605,156.080169 168.200079,155.671434 L169.507396,155.300079 L170.349028,155.051984 L171.16624,154.803629 L171.958612,154.55515 L172.725723,154.306683 L173.467152,154.058365 L174.182479,153.81033 L174.871283,153.562716 C174.983851,153.52149 175.095295,153.480287 175.205608,153.43911 L175.85384,153.192382 L176.474499,152.946415 L177.067163,152.701346 L177.631412,152.45731 L178.166827,152.214443 C178.253636,152.17407 178.339226,152.133752 178.423589,152.093491 L178.914962,151.852634 L179.376448,151.613287 C181.534063,150.460311 182.62967,149.365019 182.449617,148.396603 C182.166593,146.874357 180.40782,145.776935 177.327676,145.03579 L176.753124,144.904947 L176.149656,144.781864 L175.51748,144.66645 C175.19425,144.610645 174.86033,144.557681 174.515839,144.507507 L173.812793,144.410864 L173.08176,144.32157 L172.322946,144.239532 L171.536558,144.16466 L170.722801,144.096861 L169.881882,144.036044 L169.014007,143.982117 L167.885347,143.923876 L166.312728,143.859694 L164.390685,143.807577 L160.779425,143.750446 L158.32465,143.715045 L157.100453,143.686514 L156.411992,143.662422 C144.728712,143.192233 132.392652,143.924468 118.808691,145.746369 L116.619584,146.046507 L115.531422,146.20069 L113.903452,146.437737 L112.819063,146.599946 L111.181793,146.851455 L109.520538,147.114769 L107.28735,147.481479 L105.023219,147.867776 L102.717059,148.275549 L100.357783,148.706682 L98.5467995,149.046499 L95.4355375,149.646583 L92.8503947,150.159124 L90.1677898,150.702575 L87.3766361,151.278822 L84.4658469,151.889754 L79.8510949,152.875312 L74.0455583,154.137626 L52.2308489,158.931009 L48.0360859,159.814023 L46.9259191,160.044572 L46.7228236,159.065413 L50.7937745,158.214348 L56.4733349,156.98803 L74.6136464,152.989563 L79.4955827,151.928968 L84.0551775,150.954482 L87.6343818,150.203803 L90.3683316,149.640912 L92.9987149,149.109538 L95.5361174,148.60788 L98.593243,148.019853 L101.542301,147.471927 L103.268465,147.160956 L106.087621,146.669875 L108.302849,146.299466 L109.947827,146.033578 L111.03913,145.861572 L112.127697,145.693507 C113.396612,145.499641 114.662643,145.313359 115.935247,145.133053 L117.02788,144.979931 L118.67576,144.755244 C131.858999,142.987088 143.87872,142.240776 155.275434,142.619983 Z" id="Path-Copy"></path> </g> </g> </g> </g> </svg> 