<?xml version="1.0" encoding="UTF-8"?> <svg xmlns="http://www.w3.org/2000/svg" xmlns:xlink="http://www.w3.org/1999/xlink" width="125px" height="113px" viewBox="0 0 125 113"> <title>Path 13 Copy</title> <g id="About-Us" stroke="none" stroke-width="1" fill="none" fill-rule="evenodd"> <g id="About_Us-1200-(4)" transform="translate(-172.000000, -51.000000)" fill="#000000" fill-rule="nonzero"> <g id="Tab" transform="translate(173.000000, 44.000000)"> <path d="M112.4,7.7 C124.999588,24.4994508 127.140272,61.6046443 115.379628,75.3253957 C113.814559,77.1513101 110.848427,78.4118187 106.801981,79.1416515 L106.498,79.194 L106.495851,79.4820973 C106.354887,87.7024336 102.626201,97.1598228 96.00992,104.532861 L95.6174017,104.96414 C87.1030679,114.188002 74.7405992,119.5 59,119.5 C43.1733174,119.5 29.1173651,114.760952 17.9532289,106.527401 C8.62492166,99.6477748 1.94406445,90.6508793 -0.361697933,82.5687493 L-0.48311747,82.1288313 L0.48311747,81.8711687 C2.60622712,89.8328298 9.22271577,98.8461078 18.5467711,105.722599 C29.5410423,113.830874 43.3896078,118.5 59,118.5 C74.4639463,118.5 86.5592827,113.302785 94.8825983,104.28586 C101.574434,97.0363713 105.352943,87.6094693 105.495796,79.4768692 L105.496,79.353 L105.413593,79.3653221 C101.068058,79.9866607 95.646894,80.0655737 89.485209,79.6383462 L88.1038923,79.5350899 C87.4072753,79.4793108 86.7018225,79.4173162 85.9879936,79.3491558 L84.5493038,79.2046291 C84.3077063,79.179176 84.065212,79.1530416 83.8218382,79.1262276 L82.3511764,78.957204 C82.1043522,78.9276792 81.8566826,78.8974785 81.6081844,78.8666039 L80.1073891,78.6732824 C79.8556449,78.6397191 79.6031062,78.6054854 79.34979,78.5705832 L77.8207,78.3531631 C77.5643422,78.3155944 77.3072409,78.2773608 77.0494133,78.2384643 L75.4938673,77.9971447 L73.9217055,77.7400025 L72.3337451,77.4671264 L70.7308033,77.1786048 C69.9257232,77.0304474 69.1153316,76.8764561 68.3000881,76.7166807 L66.6632681,76.3894326 C66.389432,76.3336108 66.1150908,76.27715 65.8402616,76.2200521 L64.1855663,75.8698334 C63.9088531,75.8101943 63.6316859,75.7499217 63.3540818,75.6890174 L61.68335,75.3160274 L60.0029486,74.9279671 C59.7221213,74.8620394 59.4409252,74.7954875 59.1593772,74.7283132 L57.4660038,74.3178133 L56.6287322,74.1100713 C55.761789,73.8933355 54.9017015,73.6733019 54.0488128,73.450095 L52.3527357,72.9994866 C52.0716898,72.9236923 51.7914693,72.8475545 51.5120868,72.771078 L49.8459497,72.3081901 L48.2005356,71.8373921 C47.9280607,71.7582789 47.6564748,71.6788453 47.3857904,71.5990959 L45.7726052,71.116847 L44.1816689,70.6272405 L42.6135918,70.1304971 C39.5007038,69.130021 36.5286336,68.0880501 33.7193542,67.0125392 L32.3283821,66.4720255 L30.9651523,65.9261427 C15.8995842,59.8012973 6.13712261,52.7135432 5.50225226,46.0474045 C4.49142714,35.4337408 8.26733729,24.5255559 15.3964466,17.3964466 C23.1258485,9.66704468 33.7485107,7.24669128 45.1755617,11.5318354 C67.9060935,20.0557848 104.980774,61.3304233 106.454669,78.0100187 L106.467,78.203 L106.751371,78.1537223 C110.345262,77.4981096 112.998826,76.4083703 114.451795,74.8623218 L114.620372,74.6746043 C125.934631,61.4746347 123.978778,25.4800385 111.967066,8.79951514 L111.6,8.3 L112.4,7.7 Z M44.8244383,12.4681646 C33.7685497,8.32220636 23.5585777,10.6485291 16.1035534,18.1035534 C9.18854507,25.0185617 5.51479692,35.6316119 6.49774774,45.9525955 C7.19804086,53.3056733 20.4819023,61.5714823 40.0512263,68.2240976 L41.5494874,68.7262167 L43.0713063,69.2218863 C43.3268719,69.3039468 43.5833935,69.3857283 43.8408583,69.4672257 L45.3968643,69.95276 L46.9748952,70.43123 L48.5743379,70.9023898 C48.8426619,70.9802936 49.1118526,71.0578825 49.3818971,71.1351515 L51.0123078,71.5948849 C52.6527601,72.0506968 54.3230309,72.4946212 56.0203607,72.9255515 L57.6960643,73.3445659 L59.3403637,73.7431943 C59.6137921,73.8084467 59.8868986,73.8731052 60.1596667,73.9371686 L61.7920794,74.3143945 L63.4155683,74.6772669 C63.6853617,74.7365457 63.95475,74.7952236 64.2237164,74.8532992 L65.8323204,75.1945136 L67.4300016,75.5212041 C67.9606527,75.6276727 68.4893501,75.7317093 69.0159605,75.8333025 L70.5893976,76.1307408 L72.1495134,76.4134508 C72.6672429,76.5052251 73.1826189,76.5945334 73.6955082,76.6813643 L75.2265826,76.9344132 C75.7343651,77.0162778 76.2395276,77.0956536 76.7419369,77.1725293 L78.2407717,77.3956446 C78.4891564,77.4315766 78.7368195,77.4668807 78.9837443,77.5015556 L80.4563006,77.7020417 L81.9103384,77.8873566 C82.3918424,77.9465921 82.8701268,78.0032877 83.3450582,78.0574321 L84.7596605,78.2122 L86.1533457,78.3515922 C86.8448257,78.417433 87.5281621,78.4774824 88.2029049,78.531702 L89.5407993,78.6323569 L90.8549783,78.7173975 C91.0719874,78.730266 91.287975,78.742481 91.5029246,78.7540412 L92.7800311,78.8155327 C97.4161005,79.012105 101.533597,78.8903552 104.955153,78.4351663 L105.477,78.362 L105.45502,78.0382343 C104.007487,61.9822045 67.9543943,21.6949972 45.5140756,12.7352216 L44.8244383,12.4681646 Z" id="Path-13-Copy"></path> </g> </g> </g> </svg> 