<?xml version="1.0" encoding="UTF-8"?> <svg xmlns="http://www.w3.org/2000/svg" xmlns:xlink="http://www.w3.org/1999/xlink" width="151px" height="104px" viewBox="0 0 151 104"> <title>Path 26 Copy</title> <g id="About-Us" stroke="none" stroke-width="1" fill="none" fill-rule="evenodd"> <g id="Main-1200-(4)-3" transform="translate(-536.000000, -209.000000)" fill="#000000" fill-rule="nonzero"> <g id="Group-3" transform="translate(371.000000, 44.000000)"> <g id="Tab-Copy" transform="translate(151.000000, 0.000000)"> <path d="M137.110596,165.623077 C145.371798,165.623077 149.944628,168.595563 150.98257,174.057374 C151.862434,178.687353 150.133792,184.940597 146.35335,192.046382 C144.861072,194.851294 143.085844,197.698279 141.175722,200.428546 L141.037,200.624 L141.256791,200.598813 C145.208576,200.145597 148.774461,199.892475 151.776759,199.865749 L152.30069,199.863388 C164.923045,199.863388 167.789697,208.44233 161.202255,217.52355 L160.999742,217.798884 C155.493371,225.1835 156.166218,232.283878 163.056688,239.272608 L163.351535,239.56784 L162.648465,240.278962 C155.237965,232.952369 154.331,225.307429 159.966041,217.517023 L160.198073,217.201116 C166.601118,208.613968 164.125299,200.863388 152.30069,200.863388 C152.051881,200.863388 151.794249,200.865772 151.528122,200.870506 L150.70458,200.89173 L149.83203,200.926859 L148.912438,200.975698 L147.947771,201.038047 L146.939993,201.113709 L145.891072,201.202486 C145.712932,201.218364 145.53316,201.23478 145.351796,201.25173 L144.244846,201.359808 L143.101667,201.480504 L141.924225,201.613623 L140.714487,201.758965 L140.178,201.825 L139.777443,202.374317 L139.186873,203.166121 L138.591265,203.947758 L137.9915,204.718286 C137.891241,204.845729 137.790846,204.97267 137.690332,205.099089 L137.085977,205.851187 C136.985064,205.975441 136.884068,206.099133 136.783009,206.222245 L136.176041,206.953792 C136.074802,207.074503 135.973536,207.194594 135.872261,207.314045 L135.264657,208.022921 C135.163421,208.139736 135.062214,208.255871 134.961053,208.371309 L134.35479,209.055394 L133.750519,209.721773 C133.650022,209.831309 133.549644,209.940067 133.449405,210.048029 L132.84977,210.686084 L132.254323,211.304078 L131.663944,211.901069 L131.079511,212.476114 C130.788927,212.757993 130.500903,213.031289 130.215932,213.295472 L129.650208,213.811531 C129.463088,213.979395 129.277471,214.143053 129.093505,214.302345 L128.546702,214.766974 C126.19994,216.722267 124.15677,217.913446 122.738913,217.995468 L122.585083,218 C122.288202,218 121.932902,218.067502 121.514405,218.204722 L121.225993,218.306555 L120.918542,218.429191 L120.591737,218.572775 L120.245264,218.737454 C120.185862,218.766666 120.125627,218.796764 120.064554,218.827749 L119.687988,219.024343 L119.290969,219.242397 L118.87318,219.482055 L118.434308,219.743464 L117.974038,220.026771 C117.895526,220.075821 117.816109,220.12579 117.735781,220.17668 L117.242824,220.493105 L116.727684,220.831791 L115.912689,221.381879 L115.340712,221.776856 L114.438988,222.412065 L113.483812,223.099003 L112.816807,223.585942 L111.408855,224.630033 L109.428765,226.133972 L97.0101406,235.761661 L91.4433049,240.038288 L88.4101516,242.339509 L87.4087464,243.087898 C85.2908164,244.659502 83.2375745,246.151061 81.2381709,247.567444 L79.5373283,248.763188 C75.035558,251.903351 70.7988698,254.658019 66.6976985,257.08532 L65.3770193,257.858179 L64.0704301,258.605005 C52.8076754,264.964231 43.1308713,268.372742 35,268.372742 C30.2754504,268.372742 27.941233,266.277142 28.2998769,262.545253 C28.6247083,259.165201 31.1751527,254.542655 35.5405114,249.317037 C44.9451049,238.059129 60.971314,225.901747 78.3469788,217.549361 C94.873776,209.60502 120.638496,203.226262 139.129594,200.8573 L139.686,200.787 L139.877198,200.521952 C141.857018,197.747387 143.709605,194.835475 145.260866,191.967494 L145.470518,191.576695 C149.153634,184.653844 150.827618,178.598322 150.000152,174.244069 C149.062111,169.307954 144.931735,166.623077 137.110596,166.623077 C117.156706,166.623077 83.2476499,182.829391 35.4566246,215.242761 L32.1766351,217.477877 C27.2243865,220.868224 22.1269539,224.428092 16.8844157,228.157482 L15.1315288,229.40689 L14.550356,228.59311 C73.3318741,186.613451 114.149485,165.623077 137.110596,165.623077 Z M138.796,202.006 L138.410759,202.057669 C132.925121,202.801187 126.700897,203.867124 120.438245,205.184962 C104.704107,208.495867 90.071221,213.023117 78.7802185,218.450639 C61.5296513,226.742892 45.6181254,238.813276 36.3079609,249.958147 C32.0606401,255.042465 29.596276,259.508996 29.2952908,262.640915 C28.9980599,265.733767 30.8236581,267.372742 35,267.372742 C43.5375837,267.372742 53.9368711,263.475866 66.1883656,256.224751 C71.5427403,253.055734 77.1352835,249.321698 83.2558797,244.892427 L85.0192407,243.607891 C85.3156125,243.390611 85.6132442,243.171726 85.9121673,242.951223 L87.3022178,241.920289 L89.3620045,240.366491 L95.0223268,236.031417 L109.294842,224.97277 L110.456628,224.093922 L111.55941,223.269868 L112.604765,222.499954 L113.911971,221.556487 L114.529513,221.119925 L115.123638,220.70655 L115.971941,220.129542 L116.50957,219.773289 L117.02542,219.439545 L117.519958,219.128116 L117.993653,218.838807 L118.446972,218.571425 L118.880383,218.325774 L119.294354,218.101662 L119.689354,217.898894 L120.065849,217.717275 L120.424309,217.556612 L120.7652,217.41671 C121.429726,217.157539 121.99165,217.021771 122.467818,217.002417 L122.585083,217 C123.695905,217 125.35626,216.086593 127.318617,214.517526 L127.815355,214.111749 C127.899146,214.041893 127.983425,213.970935 128.068175,213.898896 L128.582176,213.453818 C128.668737,213.377523 128.755732,213.300183 128.843144,213.221817 L129.372475,212.739452 C129.461483,212.657055 129.550872,212.573668 129.640624,212.489312 L130.183352,211.971673 C130.274485,211.883509 130.365945,211.794411 130.457715,211.704399 L131.011905,211.153501 C131.104841,211.059905 131.198051,210.965432 131.291516,210.870101 L131.855235,210.287956 L132.424231,209.6861 L132.997646,209.065426 L133.574619,208.426831 C133.67103,208.318954 133.767554,208.210369 133.864172,208.101092 L134.444873,207.437291 L135.026984,206.757805 C135.124072,206.6433 135.221183,206.528179 135.318299,206.41246 L135.900914,205.711126 L136.482791,204.996344 L137.063069,204.269009 L137.640891,203.530017 L138.215395,202.780262 L138.796,202.006 Z" id="Path-26-Copy"></path> </g> </g> </g> </g> </svg> 