<svg width="3079" height="2001" viewBox="0 0 3079 2001" fill="none" xmlns="http://www.w3.org/2000/svg">
<path fill-rule="evenodd" clip-rule="evenodd" d="M2239.79 591.857V1408.85H839.791V591.857H2239.79ZM1732.57 823.348C1731.98 823.353 1731.22 823.926 1730.31 825.03L1730.01 825.396C1729.87 825.588 1729.71 825.793 1729.56 826.011L1729.24 826.464L1728.91 826.952C1728.86 827.036 1728.8 827.121 1728.75 827.208L1728.41 827.747L1728.06 828.32L1727.7 828.926L1727.52 829.242L1727.15 829.898L1726.78 830.587C1726.71 830.704 1726.65 830.823 1726.59 830.943L1726.2 831.681L1725.8 832.451L1725.4 833.253L1724.99 834.087L1724.58 834.952L1724.15 835.849L1723.73 836.776L1723.07 838.225L1722.63 839.229L1721.95 840.791L1721.5 841.869L1720.8 843.542L1720.33 844.693L1719.62 846.475L1718.9 848.32L1718.41 849.585L1717.93 850.878L1717.43 852.199L1716.69 854.231L1716.19 855.619L1715.69 857.034L1714.93 859.206L1714.42 860.687L1713.91 862.193L1713.14 864.5C1713.05 864.759 1712.97 865.02 1712.88 865.281C1694.92 865.249 1676.96 865.326 1659 865.512C1634.48 865.76 1622.11 882.921 1619.9 893.018C1619.87 896.283 1623.76 896.251 1625.05 895.408L1625.13 895.351C1628.27 893 1633.37 891.432 1639.34 890.46L1640.44 890.29C1641.36 890.153 1642.3 890.03 1643.25 889.92L1644.4 889.794L1645.57 889.679C1646.54 889.589 1647.53 889.511 1648.53 889.445L1649.72 889.37L1650.93 889.307L1652.14 889.254C1652.54 889.238 1652.94 889.224 1653.35 889.212L1654.56 889.179C1654.97 889.17 1655.37 889.163 1655.78 889.157L1657.71 889.137L1660.41 889.119L1663.17 889.108L1665.98 889.104L1668.84 889.106L1671.74 889.115L1674.69 889.131L1677.67 889.152L1680.69 889.179L1685.28 889.229L1689.92 889.291L1696.19 889.389L1702.5 889.503L1705.68 889.566C1704.47 894.033 1703.32 898.514 1702.23 903.009L1700.95 906.85L1699.78 910.323L1697.86 915.985L1696.49 920.007L1695.49 922.923L1693.87 927.613L1692.72 930.931L1691.52 934.388L1690.26 937.971L1688.96 941.665L1687.62 945.458L1686.24 949.337L1684.82 953.289L1683.37 957.299L1681.9 961.356L1681.15 963.398L1679.64 967.5C1679.39 968.185 1679.14 968.871 1678.88 969.556L1677.35 973.673C1676.32 976.417 1675.29 979.156 1674.25 981.874L1672.69 985.932C1661.53 1014.86 1650.32 1040.25 1645.38 1040.3C1640.09 1040.36 1643.44 1018.72 1648.62 994.766L1649.31 991.629C1649.42 991.105 1649.54 990.579 1649.66 990.054L1650.37 986.895L1651.09 983.734L1651.82 980.58L1652.55 977.443L1653.29 974.331L1654.03 971.256L1655.13 966.73L1656.55 960.909L1660.32 945.641L1660.84 943.516L1661.55 940.605L1661.96 938.862L1662.33 937.288C1662.95 934.563 1663.31 932.741 1663.32 932.085V931.676L1663.3 931.244C1663.3 931.171 1663.29 931.096 1663.29 931.021L1663.25 930.558C1663.24 930.401 1663.22 930.24 1663.2 930.077L1663.14 929.579C1663.11 929.41 1663.09 929.238 1663.06 929.064L1662.97 928.536L1662.91 928.266L1662.8 927.719L1662.74 927.441L1662.6 926.878L1662.45 926.307C1662.43 926.211 1662.4 926.115 1662.37 926.018L1662.2 925.437L1662.11 925.144L1661.92 924.556C1661.89 924.457 1661.85 924.359 1661.82 924.261L1661.6 923.669C1661.56 923.569 1661.53 923.47 1661.49 923.373L1661.26 922.78C1659.02 917.359 1654.92 912.15 1648.73 912.21C1622.15 912.48 1595.46 964.788 1584.18 989.881L1583.32 991.804L1582.53 993.605L1581.81 995.276L1581.15 996.808L1580.57 998.192L1579.82 999.972L1578.97 1002.07L1578.6 1003.01L1583.43 980.007L1585.96 967.774L1589.05 952.58L1590.36 946.004L1591.47 940.303L1592.06 937.133L1592.47 934.795L1592.65 933.731L1592.76 933.009L1592.83 932.548L1592.89 932.044L1592.92 931.751L1592.93 931.598V931.535C1592.96 929.105 1591.69 926.997 1590.09 924.932L1589.67 924.394L1589.24 923.857L1588.76 923.276C1588.04 922.404 1587.31 921.526 1586.65 920.621C1586.32 920.183 1586.03 919.711 1585.76 919.22L1585.55 918.849L1584.64 917.134L1584.35 916.627L1584.15 916.29L1583.95 915.957L1583.73 915.627L1583.51 915.301L1583.27 914.981L1583.02 914.668C1581.35 912.652 1578.77 911.099 1573.65 911.154C1573.06 911.159 1572.38 911.95 1571.61 913.409L1571.38 913.866C1571.26 914.105 1571.14 914.358 1571.02 914.626L1570.78 915.181L1570.53 915.773C1570.49 915.875 1570.45 915.978 1570.4 916.083L1570.15 916.73L1569.89 917.413L1569.63 918.132L1569.36 918.884L1568.96 920.076L1568.68 920.912L1568.4 921.78L1568.12 922.679L1567.83 923.608L1567.4 925.058L1566.96 926.573L1566.52 928.15L1566.07 929.787L1565.61 931.482L1565 933.827L1564.22 936.888L1563.59 939.433L1563.27 940.736L1562.79 942.727L1562 946.134L1561.35 948.935L1560.55 952.519L1560.07 954.711C1560.01 954.956 1559.96 955.201 1559.91 955.447C1549.06 985.651 1519.59 1047.04 1501.16 1047.23H1501.08L1500.9 1047.22H1500.8L1500.58 1047.19L1500.35 1047.15C1500.31 1047.14 1500.27 1047.14 1500.23 1047.13L1499.97 1047.07C1499.88 1047.04 1499.79 1047.02 1499.69 1046.99L1499.4 1046.9C1499.3 1046.87 1499.2 1046.83 1499.1 1046.79L1498.78 1046.67L1498.44 1046.52L1498.1 1046.36L1497.93 1046.27L1497.57 1046.07C1493.07 1043.52 1486.4 1035.9 1485.42 1015.13C1485.26 1011.66 1485.21 1008.18 1485.28 1004.7C1511.84 1002.71 1546.2 971.339 1546.2 940.656C1546.2 926.839 1541.29 921.253 1536.56 919.219L1536.19 919.066L1535.82 918.927L1535.45 918.801L1535.26 918.744L1534.9 918.638C1534.78 918.606 1534.66 918.575 1534.54 918.545L1534.18 918.464L1533.82 918.394L1533.48 918.335L1533.13 918.287L1532.8 918.248L1532.47 918.219L1532.3 918.208C1529.24 915.528 1524.83 913.541 1518.48 913.612C1496.97 913.825 1467.89 938.385 1459.19 980.859L1457.77 984.564L1455.92 989.33L1454.27 993.511L1452.9 996.961L1451.85 999.593L1450.42 1003.14L1449.33 1005.82L1448.22 1008.5L1447.11 1011.18L1445.99 1013.84L1445.25 1015.6L1444.13 1018.21L1443.02 1020.77L1442.28 1022.45L1441.18 1024.92L1440.45 1026.53C1440.33 1026.8 1440.21 1027.06 1440.09 1027.32L1439.37 1028.88L1438.66 1030.39L1437.96 1031.87C1437.73 1032.35 1437.5 1032.83 1437.27 1033.3L1436.59 1034.68C1436.48 1034.9 1436.37 1035.13 1436.26 1035.35L1435.6 1036.65L1435.27 1037.28L1434.63 1038.5C1431.57 1044.24 1429.02 1047.88 1427.48 1047.88C1425.22 1047.88 1424.14 1041.64 1423.84 1032.71L1423.8 1031.19C1423.75 1028.89 1423.74 1026.43 1423.78 1023.87L1423.81 1022.15L1423.83 1021.28L1423.89 1019.52L1423.95 1017.75L1423.98 1016.85L1424.06 1015.05L1424.1 1014.14L1424.2 1012.33L1424.25 1011.41L1424.36 1009.59L1424.48 1007.76L1424.6 1005.94L1424.67 1005.04L1424.81 1003.23L1424.89 1002.33L1425.04 1000.54L1425.2 998.77L1425.37 997.02L1425.54 995.297L1425.63 994.445L1425.82 992.767L1425.91 991.94L1426.1 990.314L1426.2 989.516L1426.4 987.952L1426.6 986.434L1426.81 984.964C1426.92 984.243 1427.03 983.541 1427.14 982.861L1427.35 981.53L1427.57 980.262C1427.61 980.056 1427.65 979.853 1427.69 979.652L1430.53 974.366L1438.98 958.738L1443.23 950.841L1446.88 944.043L1449.09 939.897L1451.31 935.719L1452.79 932.922L1454.99 928.72L1456.46 925.92L1458.63 921.732L1460.06 918.955L1461.48 916.193L1462.87 913.452L1464.25 910.735L1464.92 909.386L1466.25 906.713L1467.56 904.075L1468.83 901.475C1477.18 884.28 1483.21 869.932 1483.28 863.888C1483.52 842.15 1454.51 827.722 1448.55 827.785C1447.27 827.763 1446 828.069 1444.86 828.674C1443.72 829.279 1442.76 830.164 1442.06 831.245C1434.54 836.489 1406.84 912.103 1400.16 975.473L1395.17 986.966L1393.57 990.615L1391.4 995.563L1389.74 999.31L1388.62 1001.81L1387.12 1005.15L1385.88 1007.89L1384.95 1009.93L1383.39 1013.29L1382.46 1015.28L1380.91 1018.55L1379.69 1021.1L1379.07 1022.35L1378.16 1024.2L1377.26 1026.01L1376.66 1027.19L1376.07 1028.36L1375.18 1030.06L1374.6 1031.17L1374.02 1032.25L1373.45 1033.31C1373.36 1033.48 1373.26 1033.65 1373.17 1033.83L1372.6 1034.84L1372.05 1035.83L1371.5 1036.8L1370.95 1037.73L1370.41 1038.63L1369.89 1039.5L1369.36 1040.34L1368.85 1041.15L1368.34 1041.92C1368.26 1042.04 1368.18 1042.17 1368.09 1042.29L1367.6 1043.01C1365.08 1046.62 1362.91 1048.74 1361.3 1048.76C1359.63 1048.78 1358.7 1047.55 1358.21 1045.1L1358.12 1044.62C1358.08 1044.38 1358.05 1044.12 1358.01 1043.86L1357.95 1043.31L1357.89 1042.74L1357.87 1042.44L1357.82 1041.82L1357.8 1041.5L1357.77 1040.84L1357.74 1040.15L1357.72 1039.43L1357.71 1038.68L1357.7 1037.91L1357.7 1036.27L1357.7 1034.97L1357.71 1033.6C1358.12 998.057 1365.1 970.671 1371.19 952.086L1371.84 950.128L1372.48 948.238L1373.11 946.416L1373.72 944.661L1374.32 942.975L1374.91 941.356L1375.75 939.057L1377.49 934.294L1377.93 933.088L1378.34 931.952L1378.53 931.41L1378.88 930.379C1379.67 928.053 1380.16 926.298 1380.23 925.123L1380.24 924.88L1380.23 924.768C1379.75 921.148 1354.13 919.095 1349.26 936.02L1349.11 936.539L1348.98 937.074L1349.04 936.632L1349.07 936.301L1349.1 935.736L1349.12 935.228L1349.13 934.853L1349.13 934.239L1349.12 933.798L1349.1 933.335L1349.08 933.096L1349.04 932.602L1348.99 932.09L1348.93 931.562L1348.85 931.019C1347.88 925.068 1343.95 916.899 1329.62 917.046C1306.06 917.285 1260.39 958.792 1260.39 1031.32C1260.39 1046.85 1263.25 1054.39 1266.81 1058.98L1267.15 1059.4L1267.49 1059.82L1267.84 1060.21L1268.19 1060.59L1268.54 1060.96L1268.9 1061.31C1268.96 1061.37 1269.02 1061.43 1269.08 1061.48L1269.44 1061.82L1269.8 1062.15L1269.98 1062.3L1270.34 1062.62L1270.7 1062.92L1271.42 1063.5L1272.49 1064.35L1273.36 1065.03L1273.76 1065.34C1274.48 1065.92 1275.18 1066.5 1275.83 1067.13L1277 1068.26L1277.82 1069.03L1278.59 1069.73L1279.08 1070.17L1279.56 1070.57L1280.03 1070.95C1282.82 1073.16 1285.15 1074 1289.53 1074.16L1290.28 1074.18H1291.9C1301.87 1074.08 1311.87 1062.37 1318.85 1051.86L1319.6 1050.71C1319.85 1050.33 1320.09 1049.96 1320.33 1049.58L1321.03 1048.47C1321.14 1048.29 1321.26 1048.11 1321.37 1047.92L1322.03 1046.84C1322.13 1046.67 1322.24 1046.49 1322.35 1046.31L1322.96 1045.27L1323.55 1044.27L1324.11 1043.29L1324.63 1042.36L1325.36 1041.04L1326.02 1039.83L1326.41 1039.09L1327.09 1037.78L1327.83 1036.32L1328.26 1035.44L1328.5 1037.15L1328.68 1038.36L1328.91 1039.82L1329.25 1041.84L1329.44 1042.93L1329.72 1044.46L1330.03 1046.04L1330.27 1047.25L1330.53 1048.47L1330.72 1049.28L1330.9 1050.09L1331.1 1050.9L1331.29 1051.69L1331.5 1052.48L1331.71 1053.25L1331.92 1054C1331.96 1054.13 1331.99 1054.25 1332.03 1054.37L1332.25 1055.1L1332.48 1055.79C1333.48 1058.77 1334.61 1060.98 1335.83 1061.39C1336.5 1061.62 1337.1 1062.02 1337.67 1062.54L1337.92 1062.76L1338.17 1063.01L1338.54 1063.39L1338.91 1063.8L1340.09 1065.12L1340.52 1065.59L1340.82 1065.91L1341.28 1066.38L1341.6 1066.7L1341.94 1067.02L1342.3 1067.33C1342.36 1067.38 1342.42 1067.44 1342.48 1067.49L1342.85 1067.8C1345.55 1069.96 1349.49 1071.79 1356.31 1071.72C1364.63 1071.64 1373.09 1059.52 1381.09 1043.91L1381.92 1042.28L1382.74 1040.63C1382.88 1040.36 1383.02 1040.08 1383.15 1039.8L1383.97 1038.12L1384.78 1036.42L1385.59 1034.71L1386.39 1032.98L1387.19 1031.24L1387.99 1029.5L1389.18 1026.86L1390.35 1024.22L1391.9 1020.7L1394.18 1015.44L1397.5 1007.74C1397.14 1012.38 1396.99 1018.03 1397.02 1023.78L1397.03 1024.73L1397.06 1026.85L1397.1 1028.66L1397.14 1030.46L1397.2 1032.24L1397.29 1034.43L1397.38 1036.14L1397.5 1038.23L1397.61 1039.84L1397.7 1041.02L1397.76 1041.78L1397.93 1043.63L1398.03 1044.68L1398.15 1045.7L1398.27 1046.67L1398.35 1047.29L1398.48 1048.17L1398.56 1048.73L1398.66 1049.27L1398.75 1049.79L1398.84 1050.27L1398.94 1050.74L1399.04 1051.17L1399.14 1051.58C1399.16 1051.64 1399.18 1051.7 1399.19 1051.77L1399.3 1052.13L1399.41 1052.46L1399.51 1052.76C1399.75 1053.38 1400.01 1053.77 1400.28 1053.91L1400.34 1053.93C1401.11 1054.19 1401.83 1054.89 1402.58 1055.86L1402.84 1056.21L1403.11 1056.58L1403.52 1057.18L1403.93 1057.81L1405.28 1059.89L1405.76 1060.63L1406.1 1061.12L1406.44 1061.62L1406.8 1062.13L1407.17 1062.63C1407.48 1063.05 1407.81 1063.47 1408.15 1063.88L1408.57 1064.37C1411.62 1067.89 1415.86 1070.91 1422.48 1070.84C1428.5 1070.78 1435.31 1062.69 1442.01 1051.01L1442.73 1049.75C1443.2 1048.9 1443.68 1048.03 1444.16 1047.14L1444.87 1045.8C1444.99 1045.58 1445.11 1045.35 1445.23 1045.12L1445.94 1043.75L1446.29 1043.06L1447 1041.65L1447.7 1040.23L1448.41 1038.79C1448.52 1038.55 1448.64 1038.31 1448.76 1038.06L1449.45 1036.6L1450.15 1035.12C1450.26 1034.87 1450.38 1034.63 1450.49 1034.38L1451.18 1032.88L1451.87 1031.37C1451.98 1031.12 1452.09 1030.86 1452.21 1030.61L1452.88 1029.08L1453.56 1027.55L1454.23 1026.01L1454.89 1024.46L1455.55 1022.91L1456.2 1021.35L1457.17 1019.02C1457.23 1019.77 1457.3 1020.51 1457.38 1021.25L1457.54 1022.7L1457.71 1024.13L1457.89 1025.54C1460.81 1046.69 1468.38 1059.31 1475.92 1059.24C1477.04 1059.22 1478.15 1060.15 1479.39 1061.43L1479.8 1061.87L1481.35 1063.56C1481.43 1063.65 1481.51 1063.73 1481.59 1063.81L1482.07 1064.32C1482.15 1064.4 1482.23 1064.49 1482.31 1064.57L1482.82 1065.07C1485.05 1067.23 1487.78 1069.16 1491.43 1069.12C1509.39 1068.94 1525.94 1049.91 1539.54 1027.44L1540.57 1025.73C1541.59 1024.01 1542.6 1022.27 1543.58 1020.53L1544.56 1018.78L1545.53 1017.02C1545.69 1016.73 1545.85 1016.44 1546.01 1016.14L1546.96 1014.38L1547.9 1012.62L1548.82 1010.85L1549.73 1009.09L1549.21 1012.23L1548.73 1015.23L1548.27 1018.1L1547.76 1021.52L1547.38 1024.11L1547.11 1025.97L1546.87 1027.77L1546.64 1029.51L1546.5 1030.63L1546.36 1031.72L1546.17 1033.31L1546 1034.84L1545.85 1036.31L1545.66 1038.19L1545.58 1039.09L1545.48 1040.39L1545.39 1041.65L1545.31 1042.85L1545.27 1043.62L1545.22 1044.74L1545.19 1045.82L1545.17 1046.84C1545.08 1054.5 1547.05 1061.93 1551.61 1063.82L1556.64 1065.9L1558.55 1066.68L1560.35 1067.39L1561.38 1067.79L1562.37 1068.16L1563.01 1068.39L1563.63 1068.6L1564.23 1068.81L1564.82 1069L1565.39 1069.17L1565.93 1069.33L1566.47 1069.48L1566.98 1069.61C1567.07 1069.63 1567.15 1069.65 1567.23 1069.67L1567.72 1069.77C1567.8 1069.79 1567.88 1069.81 1567.96 1069.82L1568.42 1069.9L1568.86 1069.97C1572.27 1070.39 1574.04 1069.18 1574.15 1065.39L1574.16 1065.15C1574.72 1016.17 1633.04 929.867 1637.75 929.814C1638.78 929.804 1638.19 932.467 1636.63 937.16L1636.18 938.489L1635.69 939.917L1635.15 941.439L1634.58 943.053L1631.58 951.375L1630.47 954.503L1629.71 956.679L1629.32 957.793L1628.53 960.071C1628.13 961.226 1627.73 962.405 1627.33 963.607L1626.52 966.04C1620.04 985.736 1613.23 1010.9 1612.95 1034.86V1036.75C1612.96 1037.06 1612.96 1037.38 1612.97 1037.69L1613 1038.62C1613.01 1038.78 1613.01 1038.93 1613.02 1039.09L1613.06 1040.01C1613.11 1040.77 1613.16 1041.53 1613.23 1042.28L1613.32 1043.17C1613.35 1043.46 1613.38 1043.76 1613.42 1044.05L1613.53 1044.91C1614.57 1052.52 1617.09 1058.63 1621.57 1060.68C1622.57 1061.13 1623.53 1061.61 1624.47 1062.11L1625.41 1062.6L1626.32 1063.11L1627.67 1063.87L1629.44 1064.86L1630.31 1065.35L1631.18 1065.81C1634.63 1067.66 1637.99 1069.07 1641.77 1069.02C1647.79 1068.97 1656.75 1056.03 1665.84 1038.27L1666.87 1036.24C1668.59 1032.82 1670.31 1029.25 1672.01 1025.56L1673.02 1023.34C1673.19 1022.97 1673.36 1022.59 1673.53 1022.22L1674.54 1019.96L1675.54 1017.69C1675.71 1017.31 1675.88 1016.93 1676.04 1016.55L1677.03 1014.25L1678.01 1011.93C1678.18 1011.55 1678.34 1011.16 1678.5 1010.78L1679.47 1008.45L1680.43 1006.12C1680.58 1005.73 1680.74 1005.34 1680.9 1004.95L1681.84 1002.62C1681.99 1002.23 1682.15 1001.84 1682.3 1001.45L1683.22 999.117L1683.67 997.952L1684.57 995.625C1684.72 995.238 1684.86 994.851 1685.01 994.465L1685.88 992.152L1686.73 989.851L1687.57 987.565C1687.84 986.805 1688.12 986.049 1688.38 985.296C1686.92 1000.43 1686.09 1015.63 1685.9 1030.83L1685.85 1034.93V1035.79L1685.84 1036.65V1038.11L1685.86 1039.51L1685.88 1040.55L1685.91 1041.57L1685.94 1042.24L1685.99 1043.22L1686.03 1043.86L1686.08 1044.48C1686.09 1044.58 1686.1 1044.68 1686.1 1044.78L1686.16 1045.37L1686.23 1045.95L1686.26 1046.23L1686.34 1046.77C1686.68 1048.97 1687.24 1050.55 1688.15 1050.96L1688.26 1051C1688.95 1051.24 1689.59 1051.82 1690.26 1052.62L1690.52 1052.96L1690.79 1053.32L1691.06 1053.7C1691.1 1053.76 1691.15 1053.83 1691.2 1053.89L1691.47 1054.3L1691.75 1054.73L1693.26 1057.06L1693.75 1057.8L1694.27 1058.56L1694.63 1059.06C1694.69 1059.15 1694.75 1059.23 1694.81 1059.32L1695.19 1059.83C1698.32 1063.98 1702.78 1068 1710.4 1067.92C1712.65 1067.92 1715.19 1066.52 1717.92 1064.03L1718.43 1063.55C1718.61 1063.39 1718.78 1063.22 1718.95 1063.05L1719.48 1062.52C1719.56 1062.43 1719.65 1062.34 1719.74 1062.25L1720.27 1061.68L1720.8 1061.09L1721.07 1060.79L1721.61 1060.17C1721.7 1060.06 1721.79 1059.96 1721.88 1059.85L1722.42 1059.19L1722.97 1058.51L1723.52 1057.82C1723.62 1057.7 1723.71 1057.58 1723.8 1057.46L1724.36 1056.73L1724.92 1055.98L1725.48 1055.21L1726.04 1054.42L1726.61 1053.61C1726.71 1053.48 1726.8 1053.34 1726.9 1053.2L1727.47 1052.37L1728.04 1051.51L1728.62 1050.64L1729.48 1049.31L1730.35 1047.94L1730.94 1047C1738.37 1062.27 1756.54 1069.69 1775.68 1067.19C1789.26 1065.42 1807.52 1054 1811.71 1036.17L1811.89 1035.37L1812.74 1031.85L1813.4 1029.11L1814.23 1025.74L1815.21 1021.83L1816.04 1018.58L1816.93 1015.09L1817.9 1011.39L1818.57 1008.82L1819.28 1006.19L1820 1003.49L1820.75 1000.74L1821.52 997.954L1822.31 995.128C1822.58 994.182 1822.85 993.231 1823.12 992.278L1823.94 989.412C1831.14 964.528 1840 938.87 1845.92 938.811C1850.52 938.765 1849.79 948.727 1847.23 963.632L1846.83 965.904L1846.41 968.246L1845.96 970.655L1845.5 973.127L1844.27 979.556L1842.97 986.293L1842.44 989.062L1841.91 991.866L1841.39 994.703L1840.86 997.568L1840.35 1000.45L1839.84 1003.37C1837.32 1017.97 1835.25 1033.21 1835.1 1046.96C1835.08 1048.21 1835.6 1049.82 1836.51 1051.57L1836.78 1052.07C1837.11 1052.67 1837.48 1053.27 1837.89 1053.89L1838.26 1054.41C1838.38 1054.59 1838.51 1054.77 1838.63 1054.94L1839.03 1055.48L1839.45 1056.01C1840.36 1057.16 1841.39 1058.3 1842.5 1059.39L1843.02 1059.88C1843.11 1059.97 1843.2 1060.05 1843.29 1060.13L1843.82 1060.61C1847.79 1064.13 1852.59 1066.8 1857.06 1066.75C1885.24 1066.47 1903.59 1017.19 1910.67 993.99L1911.19 992.258L1911.67 990.636L1912.11 989.132C1912.17 988.892 1912.24 988.657 1912.31 988.427L1912.67 987.115L1913.14 985.405L1913.39 984.45L1913.76 983.014L1913.97 982.163L1913.76 990L1913.55 997.633L1913.34 1005.1L1913.13 1012.4L1912.91 1019.55C1912.87 1020.72 1912.83 1021.9 1912.8 1023.06L1912.57 1029.96C1909.17 1129.97 1903.44 1177.73 1880.98 1177.97C1872.78 1178.04 1867.19 1171.71 1863.88 1164.66L1863.55 1163.94C1863.44 1163.7 1863.34 1163.46 1863.24 1163.22L1862.94 1162.49C1862.8 1162.13 1862.66 1161.76 1862.52 1161.4L1862.26 1160.68C1862.14 1160.31 1862.02 1159.95 1861.91 1159.59L1861.68 1158.88L1861.48 1158.16C1861.41 1157.93 1861.35 1157.69 1861.29 1157.46L1861.11 1156.76C1861.08 1156.65 1861.06 1156.54 1861.03 1156.42L1860.88 1155.74C1860.83 1155.51 1860.79 1155.29 1860.74 1155.07L1860.62 1154.41L1860.51 1153.77L1860.42 1153.14C1860.39 1152.93 1860.36 1152.73 1860.34 1152.53L1860.27 1151.94L1860.24 1151.65L1860.2 1151.09C1860.2 1151 1860.19 1150.9 1860.19 1150.81C1858.85 1126.43 1871.11 1117.77 1877.95 1114.84L1878.49 1114.62C1878.58 1114.58 1878.67 1114.55 1878.75 1114.51L1879.25 1114.32L1879.73 1114.16L1880.17 1114.01L1880.38 1113.95L1880.95 1113.78L1881.43 1113.65L1881.7 1113.58L1882.11 1113.5L1882.35 1113.45L1882.57 1113.34C1884.14 1112.45 1885.55 1110.61 1886.78 1108.37L1887.11 1107.75C1887.49 1107.01 1887.85 1106.24 1888.2 1105.45L1888.49 1104.77L1888.77 1104.08L1889.04 1103.39L1889.3 1102.7L1889.55 1102.01L1889.79 1101.32L1890.02 1100.64L1890.35 1099.63L1890.55 1098.98L1890.93 1097.72L1891.27 1096.54L1891.56 1095.46L1891.8 1094.5L1892.09 1093.33L1892.35 1092.2C1892.39 1088.94 1888.49 1088.97 1887.2 1089.81L1887.12 1089.87C1884.17 1092.08 1879.49 1093.6 1873.98 1094.58L1872.91 1094.76L1871.81 1094.93C1870.71 1095.1 1869.58 1095.24 1868.43 1095.37L1867.27 1095.49L1866.1 1095.6L1863.73 1095.78L1862.53 1095.85C1862.13 1095.87 1861.73 1095.9 1861.33 1095.91L1860.12 1095.97L1858.91 1096.01L1857.69 1096.04C1857.49 1096.04 1857.29 1096.05 1857.09 1096.05L1855.87 1096.07C1852.18 1096.11 1846.3 1096.04 1838.55 1095.9L1832.38 1095.77C1831.3 1095.75 1830.18 1095.73 1829.04 1095.7L1821.87 1095.54L1814.07 1095.36L1761.07 1094.05L1749.83 1093.78L1738.17 1093.5L1726.12 1093.22C1724.08 1093.18 1722.03 1093.13 1719.96 1093.08L1707.37 1092.81L1694.46 1092.54L1681.26 1092.27C1545.62 1089.63 1368.83 1088.44 1285.07 1100.46C1275.88 1101.78 1265.1 1112.31 1256.74 1122.49L1255.77 1123.69C1255.13 1124.49 1254.51 1125.28 1253.9 1126.06L1253 1127.23C1252.86 1127.42 1252.71 1127.61 1252.57 1127.8L1251.71 1128.94L1250.89 1130.06L1250.1 1131.15L1249.34 1132.21L1248.62 1133.24L1247.93 1134.24L1247.28 1135.19L1246.67 1136.1L1246.1 1136.97L1245.57 1137.78L1245.09 1138.54L1244.65 1139.25L1244.07 1140.19L1243.75 1140.74L1243.48 1141.22C1243.44 1141.29 1243.4 1141.36 1243.36 1141.43L1243.17 1141.8C1243 1142.13 1242.91 1142.35 1242.91 1142.43C1242.91 1142.85 1243.13 1143.51 1243.51 1144.19L1243.69 1144.51C1244.59 1146 1246.11 1147.5 1247.47 1147.07C1322.37 1123.29 1511.13 1120.08 1669.97 1119.83L1683.14 1119.82L1696.14 1119.81C1698.3 1119.81 1700.44 1119.81 1702.58 1119.82L1721.61 1119.83L1775.58 1119.92L1786.82 1119.93L1797.75 1119.94L1808.34 1119.93C1817.03 1119.92 1825.34 1119.9 1833.25 1119.86C1829.13 1126.6 1826.88 1134.35 1827.31 1142.07C1828.46 1163.29 1847.69 1190.19 1881.51 1189.85C1930.68 1189.35 1939.28 1078.66 1943.79 961.777L1944.08 954.229C1944.13 952.97 1944.17 951.71 1944.22 950.45L1944.49 942.888L1944.77 935.033L1944.78 934.447L1944.79 933.559V932.663L1944.78 932.063L1944.76 931.463L1944.74 930.862L1944.7 930.263C1944.7 930.163 1944.69 930.064 1944.68 929.964L1944.63 929.37L1944.58 928.779C1944.57 928.681 1944.55 928.583 1944.54 928.485L1944.47 927.903C1944.46 927.806 1944.44 927.71 1944.43 927.614L1944.35 927.042C1944.31 926.853 1944.28 926.665 1944.25 926.479L1944.14 925.925L1944.08 925.652L1943.95 925.115C1942.98 921.308 1941.05 918.452 1937.46 918.361L1937.2 918.359H1936.72C1932.55 918.329 1928.8 917.365 1925.53 916.098L1924.78 915.801L1924.05 915.495L1923.34 915.181C1923.22 915.128 1923.11 915.075 1922.99 915.022L1922.31 914.701C1922.2 914.647 1922.08 914.593 1921.97 914.539L1921.32 914.214L1920.68 913.889L1920.06 913.565L1919.46 913.244L1918.31 912.618L1916.02 911.352L1915.35 910.994L1914.93 910.779L1914.53 910.584L1914.15 910.411C1912.12 909.523 1911.07 909.715 1911.15 912.281L1911.16 912.52C1913.82 961.463 1876.55 1049.07 1865.12 1049.19C1863.95 1049.2 1864.38 1045.76 1865.65 1039.82L1865.97 1038.35L1866.31 1036.78L1866.89 1034.27L1868.66 1026.63L1869.39 1023.45L1870.15 1020.12L1870.66 1017.81L1871.18 1015.44L1871.7 1013.01L1872.22 1010.52C1872.3 1010.1 1872.39 1009.68 1872.48 1009.26L1872.99 1006.69C1876.67 988.117 1879.89 965.705 1878.72 944.259L1878.69 943.771L1878.63 942.798L1878.55 941.83C1878.54 941.669 1878.52 941.509 1878.51 941.348L1878.42 940.39C1878.34 939.602 1878.24 938.815 1878.13 938.03L1878 937.102C1877.81 935.897 1877.59 934.698 1877.34 933.505L1877.14 932.639C1875.53 925.771 1872.7 920.356 1868.4 918.465C1867.22 917.942 1866.06 917.382 1864.92 916.786L1863.96 916.284L1862.55 915.526L1860.25 914.278L1859.35 913.794L1858.9 913.558L1858.01 913.097C1854.59 911.367 1851.26 910.071 1847.64 910.107C1840.31 910.185 1831.17 929.377 1822.67 953.096L1821.8 955.523C1821.09 957.558 1820.38 959.622 1819.67 961.706L1818.83 964.215L1817.99 966.741L1817.17 969.279L1816.35 971.826L1815.53 974.379L1814.73 976.934L1813.94 979.488L1813.16 982.037L1812.39 984.578L1811.63 987.108L1810.88 989.623L1810.14 992.12L1809.42 994.595L1808.37 998.261L1807.68 1000.66L1807.01 1003.04L1806.68 1004.21L1806.21 1003.03L1805.72 1001.84L1804.98 1000.06L1804.22 998.26L1800.8 990.304L1800 988.423L1799.2 986.524L1798.67 985.246L1798.15 983.959C1798.06 983.743 1797.97 983.528 1797.89 983.311L1797.37 982.01L1796.86 980.697L1796.35 979.374C1795.85 978.046 1795.36 976.701 1794.89 975.338L1794.42 973.969C1794.27 973.511 1794.11 973.05 1793.96 972.587L1793.52 971.193C1790.02 959.986 1787.81 947.516 1789.05 932.963L1790.02 932.896L1790.96 932.823L1791.86 932.744L1792.73 932.66L1793.57 932.57C1793.98 932.523 1794.37 932.474 1794.76 932.422L1795.51 932.315L1796.24 932.201C1796.71 932.122 1797.17 932.038 1797.6 931.948L1798.24 931.81L1798.84 931.662L1799.42 931.506C1803.85 930.243 1805.76 928.107 1806.46 924.335L1806.54 923.844C1806.57 923.595 1806.61 923.338 1806.64 923.075L1806.69 922.538L1806.73 921.982L1806.76 921.408L1806.78 920.813L1806.79 920.198V919.563L1806.78 918.907L1806.76 917.883L1806.74 917.174L1806.71 916.442C1806.67 915.533 1806.88 914.592 1807.13 913.675L1807.43 912.569L1807.55 912.093L1807.59 911.885L1807.67 911.477L1807.72 911.177L1807.74 910.981L1807.75 910.788V910.505L1807.74 910.321L1807.72 910.14C1807.71 910.11 1807.71 910.081 1807.7 910.051L1807.66 909.877C1807.65 909.848 1807.65 909.819 1807.64 909.791L1807.58 909.623L1807.51 909.459C1807.39 909.189 1807.2 908.939 1806.94 908.712L1806.78 908.578L1806.6 908.45C1806.5 908.386 1806.39 908.326 1806.29 908.269L1806.06 908.155C1805.97 908.118 1805.89 908.082 1805.81 908.048L1805.54 907.948C1805.44 907.914 1805.34 907.883 1805.25 907.854L1804.93 907.766L1804.59 907.686L1804.23 907.613L1803.84 907.547L1803.43 907.488L1803.21 907.462L1802.76 907.415L1802.52 907.394L1802.03 907.359L1801.5 907.332L1800.95 907.313L1800.37 907.303L1799.76 907.301L1798.79 907.315L1798.1 907.336L1797.37 907.366L1796.62 907.405L1795.82 907.454C1791.49 907.743 1786.98 909.353 1782.97 911.562L1782.29 911.946L1781.62 912.341L1781.29 912.542L1780.63 912.952C1779.88 913.43 1779.16 913.931 1778.45 914.452L1777.86 914.896L1777.28 915.344C1777 915.57 1776.72 915.797 1776.45 916.026L1775.92 916.484C1775.4 916.944 1774.9 917.407 1774.44 917.87L1773.99 918.333C1771.49 920.955 1770.03 923.536 1770.25 925.413L1770.23 925.485L1769.98 926.109L1769.05 928.421L1768.21 930.51L1766.35 935.04L1764.51 939.504L1762.4 944.617L1760.04 950.289L1756.8 958.028L1754.72 962.949L1751.84 969.756L1749.6 974.995L1748.08 978.531L1746.55 982.088L1744.23 987.439L1742.68 990.999L1741.13 994.541L1740.35 996.301L1738.81 999.794L1737.27 1003.24L1735.75 1006.63L1734.25 1009.94C1734 1010.49 1733.76 1011.03 1733.51 1011.57L1732.04 1014.77C1731.56 1015.82 1731.08 1016.85 1730.61 1017.86L1729.21 1020.85C1722.53 1035.01 1717.19 1044.96 1715.4 1044.96C1714.18 1044.96 1713.33 1043.95 1712.75 1042.12L1712.63 1041.7C1712.57 1041.48 1712.52 1041.25 1712.46 1041.02L1712.36 1040.53C1712.35 1040.45 1712.33 1040.37 1712.31 1040.28L1712.23 1039.76C1712.21 1039.67 1712.2 1039.58 1712.18 1039.49L1712.11 1038.93L1712.04 1038.35L1711.98 1037.74L1711.92 1037.12L1711.87 1036.47L1711.83 1035.8L1711.8 1035.11L1711.77 1034.39L1711.75 1033.66L1711.73 1032.91L1711.72 1032.14V1029.71L1711.73 1028.87L1711.76 1027.14L1711.8 1025.8C1713.53 979.607 1722.21 933.934 1737.55 890.321L1773.27 891.283L1782.9 891.503L1787.67 891.586L1790.95 891.623L1792.74 891.632L1794.46 891.628L1794.8 891.625C1802.8 891.547 1811.91 885.005 1819.61 877.583L1820.65 876.566C1822.71 874.524 1824.66 872.435 1826.45 870.412L1827.33 869.407L1828.18 868.416L1829 867.443C1829.13 867.282 1829.26 867.122 1829.4 866.964L1830.17 866.022L1830.9 865.106L1831.26 864.659L1831.94 863.786L1832.59 862.947L1833.2 862.144L1833.76 861.381L1834.29 860.66L1834.77 859.985L1835.21 859.359L1835.6 858.785L1835.94 858.266C1836 858.185 1836.05 858.105 1836.1 858.029L1836.37 857.598L1836.59 857.231C1836.81 856.841 1836.93 856.586 1836.93 856.488C1836.94 856.192 1836.81 855.757 1836.6 855.268L1836.46 854.969C1836.33 854.703 1836.19 854.443 1836.04 854.191L1835.84 853.877L1835.62 853.569C1834.67 852.251 1833.38 851.189 1832.38 851.857L1831.14 852.686L1829.94 853.481C1829.75 853.611 1829.55 853.74 1829.36 853.867L1828.21 854.613L1827.09 855.328L1825.99 856.012C1816.05 862.14 1808.8 864.434 1792.04 865.206L1790.17 865.285C1789.53 865.309 1788.89 865.331 1788.22 865.351L1786.2 865.408L1784.08 865.454L1782.99 865.473L1780.74 865.506L1778.4 865.529L1775.95 865.546L1773.41 865.555L1770.76 865.557L1768 865.554L1763.64 865.54L1755.8 865.498L1747.16 865.441L1752.44 852.846L1753.26 850.843L1753.74 849.635L1754.1 848.705L1754.23 848.353L1754.32 848.081L1754.38 847.891C1754.38 847.874 1754.38 847.859 1754.39 847.846L1754.53 847.027L1754.57 846.814L1754.61 846.509L1754.63 846.314L1754.64 846.03V845.664L1754.62 845.484L1754.59 845.305L1754.56 845.125L1754.51 844.944L1754.45 844.76L1754.37 844.574L1754.29 844.382L1754.19 844.186L1754.07 843.983L1754.01 843.879L1753.87 843.665L1753.71 843.442L1753.54 843.209L1753.35 842.965L1753.14 842.709L1752.79 842.301L1752.39 841.861L1751.95 841.385L1751.28 840.689L1750.3 839.709L1749.17 838.592L1746.39 835.885C1746.13 835.644 1745.88 835.4 1745.64 835.152L1744.93 834.441C1744.81 834.324 1744.69 834.209 1744.58 834.094L1743.92 833.416L1742.99 832.442L1742.41 831.82L1741.59 830.928L1740.6 829.817L1738.15 827.016L1737.8 826.626L1737.46 826.258L1737.14 825.912L1736.83 825.588L1736.68 825.435L1736.38 825.144C1735.1 823.931 1734.02 823.334 1732.57 823.348ZM1264.25 811.857C1263.77 811.862 1263.14 812.502 1262.4 813.727L1262.13 814.183C1261.93 814.531 1261.74 814.884 1261.56 815.24L1261.27 815.839C1261.21 815.945 1261.16 816.05 1261.11 816.156L1260.8 816.824L1260.64 817.176L1260.32 817.913L1259.99 818.695L1259.65 819.522L1259.47 819.952L1259.12 820.844L1258.76 821.78L1258.39 822.758L1257.82 824.305L1257.24 825.946L1256.64 827.678L1256.23 828.883L1255.81 830.127L1255.39 831.41L1254.97 832.732L1254.53 834.092L1253.87 836.202L1253.2 838.395L1252.52 840.668L1251.82 843.022L1251.12 845.452L1250.4 847.959L1249.68 850.54L1249.2 852.301L1248.46 855.002L1247.97 856.842L1247.22 859.658L1246.47 862.541L1245.45 866.487L1245.2 867.491L1239.55 867.59L1233.74 867.703L1227.77 867.833L1223.18 867.941L1216.91 868.101L1212.1 868.234L1207.18 868.378L1203.85 868.48L1192.1 868.862L1190.08 868.939L1188.78 868.995L1187.53 869.057L1186.32 869.125L1185.14 869.202L1184 869.287C1183.63 869.317 1183.26 869.349 1182.9 869.383L1181.83 869.491C1168.84 870.894 1163.33 875.243 1154.24 893.089L1153.7 893.222L1153.05 893.396L1152.57 893.538L1152.21 893.649L1151.82 893.773L1151.4 893.911L1150.96 894.063L1150.26 894.318L1150.01 894.41L1149.51 894.606L1148.99 894.817L1148.73 894.929L1148.19 895.164L1147.91 895.287L1147.35 895.546C1147.17 895.635 1146.98 895.727 1146.79 895.822L1146.21 896.115C1146.02 896.215 1145.83 896.319 1145.63 896.425L1145.05 896.753C1139.98 899.67 1134.71 904.608 1134.79 912.52C1134.95 927.737 1169.02 951.268 1195.59 950.408C1207.81 950.003 1227.03 905.883 1207.17 916.27L1206.56 916.602C1185.69 928.208 1158.38 919.494 1158.33 915.573C1158.3 911.66 1178.75 896.478 1223.63 895.014L1225.07 894.968L1228.01 894.884L1231.01 894.809L1234.08 894.742L1237.2 894.68L1238.77 894.65L1238.43 896.211L1237.74 899.362C1237.51 900.418 1237.28 901.48 1237.05 902.549L1236.36 905.771L1235.68 909.029L1235 912.319L1234.32 915.641L1233.65 918.995L1232.99 922.378L1232.32 925.789L1231.67 929.227C1231.45 930.378 1231.23 931.533 1231.02 932.692L1230.37 936.181L1229.74 939.694C1229.63 940.283 1229.53 940.871 1229.42 941.459L1228.8 945.006L1228.18 948.572C1227.98 949.764 1227.77 950.96 1227.57 952.158L1226.97 955.763L1226.68 957.571L1226.1 961.201C1225.9 962.416 1225.71 963.63 1225.52 964.845L1224.96 968.504C1224.4 972.169 1223.86 975.853 1223.34 979.551L1222.83 983.254C1218.77 1012.9 1215.99 1043.32 1215.58 1071.73L1215.56 1073.51L1215.57 1074.18L1215.54 1077.19L1215.53 1078.21L1215.52 1080.19L1215.52 1081.9L1215.53 1083.14L1215.56 1084.33L1215.58 1085.11L1215.6 1085.87L1215.65 1086.97L1215.69 1087.69L1215.73 1088.38L1215.79 1089.06L1215.85 1089.72L1215.92 1090.36L1215.99 1090.98L1216.03 1091.28L1216.12 1091.87L1216.22 1092.44C1217.12 1097.42 1219.13 1100.12 1223.45 1100.09C1226.53 1103.93 1229.98 1106.34 1232.8 1107.72L1233.3 1107.96C1233.47 1108.04 1233.63 1108.11 1233.79 1108.18L1234.26 1108.38L1234.72 1108.56C1234.79 1108.58 1234.87 1108.61 1234.94 1108.64L1235.36 1108.78L1235.77 1108.91C1235.83 1108.93 1235.9 1108.95 1235.96 1108.96L1236.33 1109.06C1236.45 1109.09 1236.56 1109.12 1236.67 1109.14L1236.99 1109.2L1237.28 1109.25L1237.54 1109.28L1237.77 1109.29H1237.88C1238.8 1109.28 1239.41 1108.04 1239.81 1106.03L1239.9 1105.55L1239.98 1105.05L1240.06 1104.52L1240.13 1103.96L1240.19 1103.39L1240.24 1102.79L1240.29 1102.17L1240.34 1101.53L1240.38 1100.88L1240.42 1099.86L1240.46 1098.81L1240.49 1097.74L1240.51 1096.64L1240.53 1094.76L1240.54 1093.99V1092.84L1240.53 1091.67L1240.51 1088.96L1240.47 1084.49L1240.46 1083.54L1240.46 1082.61L1240.46 1081.12L1240.47 1080.24C1240.98 1033.53 1249.27 984.492 1258.77 942.93L1259.58 939.386L1260.4 935.88L1261.23 932.413C1261.51 931.265 1261.78 930.123 1262.06 928.988L1262.89 925.604L1263.72 922.264L1264.56 918.968L1265.39 915.719L1265.8 914.112L1266.63 910.935L1267.05 909.365L1267.87 906.263L1268.69 903.212L1269.51 900.215L1270.32 897.271L1270.72 895.821L1271.12 894.384L1275.02 894.382L1280.98 894.387L1294.83 894.433L1335.9 894.687L1341.53 894.709L1346 894.715L1350.02 894.707L1353.07 894.685L1354.88 894.663L1356.9 894.626L1358.3 894.588C1367.84 894.277 1378.81 884.007 1386.87 874.401L1387.76 873.337L1388.62 872.281L1389.04 871.758L1389.86 870.722L1390.65 869.702L1391.41 868.703L1392.14 867.727L1392.49 867.248L1393.17 866.313L1393.5 865.857L1394.13 864.97L1394.43 864.54L1395 863.709L1395.53 862.919L1396.03 862.173L1396.48 861.474L1396.9 860.827L1397.26 860.233L1397.43 859.958L1397.73 859.451L1397.98 859.007L1398.09 858.809L1398.27 858.464C1398.43 858.154 1398.51 857.949 1398.51 857.864C1398.51 857.531 1398.35 857.032 1398.09 856.478L1397.94 856.171C1397.86 856.016 1397.78 855.858 1397.68 855.699L1397.49 855.383L1397.39 855.226L1397.17 854.917L1396.95 854.617C1396.02 853.442 1394.87 852.593 1393.99 853.241C1380.54 863.178 1367.77 865.895 1340.78 866.679L1338.21 866.747L1335.55 866.804L1332.81 866.853L1329.97 866.892L1327.04 866.925L1324.01 866.951L1320.88 866.971L1314.31 866.999L1291.93 867.052L1285.66 867.075L1279.1 867.109L1280.08 863.935L1282.17 857.191L1286.7 842.837L1287.21 841.16L1287.45 840.317L1287.61 839.698L1287.66 839.474L1287.68 839.308L1287.69 839.231L1287.69 838.932L1287.68 838.639L1287.66 838.35L1287.65 838.206L1287.62 837.921L1287.58 837.637L1287.55 837.495L1287.49 837.212C1287.47 837.117 1287.45 837.022 1287.42 836.927L1287.34 836.641L1287.24 836.352L1287.13 836.058L1287.07 835.91L1286.93 835.61L1286.78 835.303L1286.61 834.989C1286.58 834.935 1286.55 834.882 1286.52 834.828L1286.33 834.502C1286.29 834.446 1286.26 834.391 1286.22 834.335L1286 833.993L1285.76 833.64L1285.5 833.275L1285.22 832.898L1284.91 832.506L1284.59 832.099L1284.24 831.676L1283.87 831.237L1283.47 830.779L1283.05 830.303L1282.37 829.551L1281.63 828.751L1280.83 827.9L1279.97 826.995L1279.04 826.032L1277.32 824.275L1276.6 823.538L1275.93 822.823L1275.29 822.131L1274.68 821.462L1274.1 820.816L1273.28 819.888L1272.53 819.012L1271.39 817.665L1269.85 815.803L1269.17 815.008L1268.85 814.643L1268.55 814.302L1268.25 813.982L1267.96 813.686L1267.68 813.411C1266.55 812.358 1265.55 811.842 1264.25 811.857ZM1334.29 932.813L1334.57 932.837L1334.9 932.885L1335.15 932.931L1335.44 932.993L1335.75 933.074L1336.09 933.176L1336.33 933.256L1336.58 933.348L1336.84 933.452L1336.97 933.508L1337.24 933.631L1337.52 933.767L1337.8 933.918L1338.08 934.083L1338.22 934.172L1338.51 934.361L1338.65 934.462L1338.94 934.677C1341.13 936.392 1343.26 939.681 1343.18 945.989C1343.12 951.699 1341.29 956.5 1339.27 960.589L1338.82 961.485C1338.74 961.633 1338.66 961.78 1338.59 961.925L1338.13 962.788L1337.24 964.446L1336.59 965.634L1336.18 966.4L1335.99 966.776L1335.61 967.512C1334.57 969.57 1333.85 971.394 1333.83 973.033C1333.43 1007.94 1309.76 1052.21 1296.63 1052.34C1295.6 1052.35 1294.74 1051.21 1294.06 1049.42L1293.89 1048.95L1293.81 1048.71L1293.66 1048.21C1293.54 1047.78 1293.42 1047.33 1293.32 1046.86L1293.19 1046.29L1293.14 1045.99L1293.03 1045.4L1292.92 1044.78L1292.83 1044.16C1292.82 1044.06 1292.8 1043.95 1292.79 1043.84L1292.71 1043.2L1292.67 1042.87L1292.61 1042.22L1292.58 1041.89L1292.53 1041.23L1292.49 1040.56L1292.46 1039.89L1292.43 1039.23L1292.42 1038.56L1292.42 1038.23L1292.42 1037.57C1293.16 973.45 1319.36 932.963 1334.29 932.813ZM1768.95 967.576C1769.6 972.016 1770.4 976.432 1771.26 980.783L1771.74 983.149L1771.98 984.327L1772.47 986.672L1773.46 991.311L1774.67 996.999L1775.14 999.235L1775.6 1001.44L1776.04 1003.63C1777.2 1009.42 1778.14 1014.92 1778.6 1020.01C1780 1035.71 1773.41 1051.76 1759.85 1051.76C1746.45 1051.76 1744.75 1040.12 1745.09 1032.44L1745.13 1031.76C1745.14 1031.65 1745.14 1031.54 1745.15 1031.43L1745.2 1030.79L1745.26 1030.18L1745.32 1029.59L1745.38 1029.04L1745.49 1028.28L1745.62 1027.41L1745.75 1026.7L1745.88 1026.02L1745.92 1025.83L1746.38 1025.92L1746.85 1025.99L1747.46 1026.08L1748.2 1026.18L1748.83 1026.25L1749.28 1026.29L1750 1026.34L1750.5 1026.38L1751.03 1026.4L1751.57 1026.42C1751.66 1026.42 1751.75 1026.42 1751.84 1026.43H1752.69L1753.26 1026.42C1753.46 1026.42 1753.65 1026.41 1753.85 1026.4C1759.48 1026.13 1766.84 1021.96 1766.84 1012.32C1766.84 1004.5 1762.34 999.421 1756.12 997.62L1757.38 994.797L1758.61 992.009L1759.81 989.265L1761.37 985.683L1762.49 983.064L1763.93 979.674L1765.3 976.415L1766.6 973.301L1768.11 969.639L1768.95 967.576ZM1485.96 992.98C1489.88 952.102 1509.45 924.747 1522.35 926.699C1532.33 929.938 1516.12 987.248 1485.96 992.98ZM1463.77 858.52C1466.54 858.52 1467.99 862.912 1467.23 868.653L1467.2 868.906L1467.12 869.434L1467.01 869.992L1466.96 870.281L1466.83 870.882L1466.68 871.512L1466.52 872.168L1466.34 872.851L1466.15 873.561L1465.94 874.296L1465.71 875.056L1465.35 876.242L1465.09 877.061L1464.67 878.333L1464.37 879.208L1463.9 880.56L1463.4 881.958L1462.87 883.399L1462.31 884.881L1461.53 886.918L1460.92 888.488L1460.28 890.092L1459.62 891.728L1458.71 893.955L1458.24 895.087L1457.52 896.806L1456.53 899.134L1455.51 901.498L1454.46 903.895L1453.39 906.317L1452.03 909.375L1450.91 911.839L1449.77 914.342L1448.9 916.222L1448.07 918L1447.43 919.377L1446.13 922.126L1444.83 924.861L1443.53 927.576L1442.22 930.264L1440.92 932.918L1440.27 934.229L1438.98 936.819L1437.71 939.356L1436.45 941.836C1436.04 942.642 1435.62 943.447 1435.21 944.25C1439.58 922.478 1444 905.271 1448.05 892.164L1448.73 890.018C1449.51 887.558 1450.27 885.251 1451.02 883.096L1451.65 881.285C1453.54 875.963 1455.31 871.63 1456.9 868.228L1457.42 867.128C1460.26 861.27 1462.49 858.52 1463.77 858.52Z" fill="black"/>
<path fill-rule="evenodd" clip-rule="evenodd" d="M3079 0.357666H0.577881V2000.35H3079V0.357666ZM2182.47 646.586H888.275V1354.13H2182.47V646.586Z" fill="black"/>
</svg>
