<?xml version="1.0" encoding="UTF-8"?> <svg xmlns="http://www.w3.org/2000/svg" xmlns:xlink="http://www.w3.org/1999/xlink" width="1400px" height="817px" viewBox="0 0 1400 817"> <title>Shape</title> <g id="About-Us" stroke="none" stroke-width="1" fill="none" fill-rule="evenodd"> <path d="M1400,0 L1400,817 L0,817 L0,0 L1400,0 Z M892.772261,231.490592 C892.188088,231.495916 891.424645,232.068598 890.512364,233.172409 L890.219364,233.538594 C890.070425,233.730471 889.917856,233.935494 889.761776,234.15352 L889.44497,234.606865 L889.44497,234.606865 L889.119014,235.094627 C889.063937,235.178775 889.008488,235.264346 888.952671,235.351335 L888.61339,235.890246 L888.61339,235.890246 L888.265493,236.462936 L888.265493,236.462936 L887.90919,237.069151 C887.849118,237.172967 887.788705,237.278168 887.727954,237.384751 L887.359446,238.040775 L887.359446,238.040775 L886.983065,238.729686 C886.919691,238.847231 886.855997,238.966136 886.791989,239.086395 L886.404201,239.824158 L886.404201,239.824158 L886.009073,240.594171 L886.009073,240.594171 L885.606819,241.396177 L885.606819,241.396177 L885.197651,242.229923 L885.197651,242.229923 L884.781783,243.095153 L884.781783,243.095153 L884.359428,243.991612 L884.359428,243.991612 L883.930799,244.919044 L883.930799,244.919044 L883.276557,246.367711 L883.276557,246.367711 L882.833173,247.371462 L882.833173,247.371462 L882.157798,248.93341 L882.157798,248.93341 L881.700992,250.011885 L881.700992,250.011885 L881.006481,251.684723 L881.006481,251.684723 L880.537583,252.836328 L880.537583,252.836328 L879.825933,254.617664 L879.825933,254.617664 L879.104957,256.462953 L879.104957,256.462953 L878.619481,257.728248 L878.619481,257.728248 L878.130393,259.021328 L878.130393,259.021328 L877.637906,260.341939 L877.637906,260.341939 L876.893268,262.373915 L876.893268,262.373915 L876.393214,263.762234 L876.393214,263.762234 L875.890508,265.17719 L875.890508,265.17719 L875.131938,267.34901 L875.131938,267.34901 L874.623529,268.829442 L874.623529,268.829442 L874.113212,270.335619 L874.113212,270.335619 L873.344624,272.642597 C873.25904,272.902082 873.173398,273.162613 873.087704,273.424185 C855.126883,273.392307 837.166032,273.469207 819.206161,273.654879 C794.690103,273.903319 782.320027,291.063433 780.105962,301.160749 C780.07087,304.425962 783.968368,304.393443 785.251934,303.550416 L785.331871,303.494312 C788.476005,301.142431 793.575506,299.574815 799.549066,298.602818 L800.644559,298.432612 C801.565095,298.296174 802.504191,298.173146 803.458088,298.062873 L804.609628,297.936627 L804.609628,297.936627 L805.773931,297.822372 C806.749101,297.732088 807.736061,297.654033 808.731052,297.587552 L809.928655,297.513288 L809.928655,297.513288 L811.132522,297.449883 L811.132522,297.449883 L812.34121,297.397084 C812.744749,297.381225 813.14885,297.367091 813.553273,297.354641 L814.767269,297.322301 C815.172095,297.313176 815.577003,297.305694 815.981751,297.299811 L817.917248,297.280224 L817.917248,297.280224 L820.618465,297.261897 L820.618465,297.261897 L823.375642,297.250805 L823.375642,297.250805 L826.18526,297.246688 L826.18526,297.246688 L829.043799,297.249284 L829.043799,297.249284 L831.947738,297.258333 L831.947738,297.258333 L834.893558,297.273575 L834.893558,297.273575 L837.877738,297.294748 L837.877738,297.294748 L840.896759,297.321592 L840.896759,297.321592 L845.482916,297.371921 L845.482916,297.371921 L850.127665,297.433542 L850.127665,297.433542 L856.391273,297.531749 L856.391273,297.531749 L862.709764,297.646382 L862.709764,297.646382 L865.88079,297.709206 L865.88079,297.709206 C864.715493,302.03029 863.568124,306.511085 862.438682,311.151591 L861.157187,314.992839 L861.157187,314.992839 L859.989055,318.465424 L859.989055,318.465424 L858.069849,324.127454 L858.069849,324.127454 L856.696316,328.15038 L856.696316,328.15038 L855.696046,331.065618 L855.696046,331.065618 L854.078273,335.755493 L854.078273,335.755493 L852.927057,339.074226 L852.927057,339.074226 L851.722118,342.53132 L851.722118,342.53132 L850.467256,346.113611 L850.467256,346.113611 L849.166274,349.807934 L849.166274,349.807934 L847.822975,353.601127 L847.822975,353.601127 L846.441161,357.480024 L846.441161,357.480024 L845.024634,361.431462 L845.024634,361.431462 L843.577196,365.442277 L843.577196,365.442277 L842.102649,369.499305 C841.854844,370.178596 841.606067,370.859264 841.356398,371.541034 L839.848318,375.642698 C839.595399,376.327783 839.341746,377.013422 839.087439,377.699341 L837.554381,381.816022 C836.527952,384.559791 835.493591,387.299264 834.456366,390.016889 L832.899016,394.074747 C821.731694,423.007183 810.526401,448.400649 805.581149,448.450248 C800.290879,448.503308 803.649768,426.869394 808.826989,402.908923 L809.51203,399.772042 C809.627734,399.24756 809.744158,398.722376 809.861231,398.196689 L810.570891,395.038126 L810.570891,395.038126 L811.292754,391.877044 L811.292754,391.877044 L812.02345,388.722989 L812.02345,388.722989 L812.759612,385.585509 L812.759612,385.585509 L813.497871,382.474151 L813.497871,382.474151 L814.234858,379.398462 L814.234858,379.398462 L815.330585,374.872695 L815.330585,374.872695 L816.755665,369.052291 L816.755665,369.052291 L820.528791,353.783774 L820.528791,353.783774 L821.04905,351.659036 L821.04905,351.659036 L821.753369,348.747658 L821.753369,348.747658 L822.167288,347.004482 L822.167288,347.004482 L822.532776,345.430638 C823.156384,342.706313 823.518836,340.88384 823.526724,340.227958 C823.528118,340.095457 823.52725,339.958981 823.524109,339.818774 L823.507855,339.387205 C823.504005,339.313492 823.499584,339.238907 823.494591,339.163481 L823.457748,338.701067 C823.443168,338.543725 823.426287,338.38326 823.407092,338.219914 L823.342557,337.721481 C823.318725,337.552618 823.292568,337.381119 823.264074,337.207226 L823.171574,336.678608 C823.154985,336.589389 823.13781,336.499633 823.120046,336.409369 L823.006392,335.861942 C822.986269,335.769771 822.965555,335.677153 822.944248,335.584119 L822.809286,335.021166 L822.809286,335.021166 L822.660034,334.449685 C822.633964,334.353809 822.607295,334.257638 822.580027,334.161203 L822.40921,333.579666 C822.379537,333.482296 822.349262,333.384722 822.318382,333.286976 L822.125847,332.698665 C822.092545,332.600348 822.058638,332.501919 822.024121,332.403409 L821.809713,331.811606 C821.772758,331.71289 821.735192,331.614153 821.697013,331.515425 L821.460578,330.923413 C819.225665,325.50213 815.129115,320.293103 808.933619,320.352749 C782.351221,320.622483 755.665273,372.93111 744.387164,398.023714 L743.52908,399.946722 L743.52908,399.946722 L742.736714,401.747978 L742.736714,401.747978 L742.011762,403.418815 L742.011762,403.418815 L741.355919,404.950568 L741.355919,404.950568 L740.770882,406.33457 L740.770882,406.33457 L740.029799,408.114584 L740.029799,408.114584 L739.172717,410.21975 L739.172717,410.21975 L738.801563,411.153366 L738.801563,411.153366 L743.631012,388.150373 L743.631012,388.150373 L746.165072,375.916406 L749.260018,360.722471 L749.260018,360.722471 L750.56825,354.146836 L750.56825,354.146836 L751.672146,348.446179 L751.672146,348.446179 L752.263082,345.275944 L752.263082,345.275944 L752.67745,342.937574 L752.67745,342.937574 L752.854277,341.873442 L752.854277,341.873442 L752.966249,341.152312 L752.966249,341.152312 L753.032232,340.691033 L753.032232,340.691033 L753.095246,340.186521 L753.095246,340.186521 L753.123122,339.89406 L753.123122,339.89406 L753.132193,339.741298 L753.132193,339.741298 L753.133817,339.677841 C753.16033,337.247617 751.891317,335.140317 750.297285,333.074906 L749.874716,332.536869 L749.874716,332.536869 L749.44123,331.999623 L748.965219,331.419009 C748.247413,330.547112 747.517982,329.669253 746.850177,328.764221 C746.528167,328.325683 746.239113,327.85375 745.962365,327.363032 L745.75679,326.9917 L744.840553,325.276917 L744.840553,325.276917 L744.556346,324.769534 L744.556346,324.769534 L744.358917,324.433271 L744.358917,324.433271 L744.153593,324.099683 L744.153593,324.099683 L743.939066,323.769696 L743.939066,323.769696 L743.714026,323.444236 C743.637115,323.336606 743.558234,323.229886 743.477164,323.124229 L743.227172,322.810602 C741.556713,320.794769 738.971132,319.241956 733.852633,319.296878 C733.268191,319.302202 732.582279,320.092951 731.81598,321.551579 L731.5837,322.009086 C731.466375,322.24774 731.347289,322.501157 731.226512,322.76894 L730.982727,323.323543 L730.982727,323.323543 L730.734562,323.91575 C730.692843,324.017546 730.650947,324.120879 730.608876,324.225735 L730.354377,324.873026 L730.354377,324.873026 L730.095813,325.556158 L730.095813,325.556158 L729.833312,326.274426 L729.833312,326.274426 L729.566999,327.027124 L729.566999,327.027124 L729.160661,328.219185 L729.160661,328.219185 L728.885374,329.054874 L728.885374,329.054874 L728.606718,329.922524 L728.606718,329.922524 L728.324821,330.821431 L728.324821,330.821431 L728.039807,331.75089 L728.039807,331.75089 L727.606722,333.200818 L727.606722,333.200818 L727.167339,334.71552 L727.167339,334.71552 L726.722084,336.292614 L726.722084,336.292614 L726.271385,337.929722 L726.271385,337.929722 L725.815668,339.624461 L725.815668,339.624461 L725.200978,341.969649 L725.200978,341.969649 L724.42268,345.030669 L724.42268,345.030669 L723.793328,347.576235 L723.793328,347.576235 L723.476761,348.879329 L723.476761,348.879329 L722.999904,350.869874 L722.999904,350.869874 L722.200843,354.277319 L722.200843,354.277319 L721.558865,357.077809 L721.558865,357.077809 L720.75464,360.662331 L720.75464,360.662331 L720.271929,362.853566 C720.218308,363.098607 720.164695,363.344158 720.111091,363.590202 C709.264864,393.793422 679.800776,455.18475 661.371155,455.379953 L661.28726,455.379504 L661.28726,455.379504 L661.103719,455.370767 C661.071418,455.3684 661.038274,455.365564 661.004307,455.362239 L660.79078,455.336267 L660.79078,455.336267 L660.558427,455.297612 C660.518185,455.290059 660.477197,455.281938 660.435482,455.273229 L660.176637,455.213755 C660.087554,455.191471 659.995721,455.166675 659.901294,455.139208 L659.610386,455.048631 C659.510925,455.015662 659.409026,454.979861 659.304843,454.94107 L658.985597,454.815569 L658.985597,454.815569 L658.65358,454.671171 L658.65358,454.671171 L658.309723,454.506921 C658.251479,454.477839 658.19278,454.44789 658.133646,454.417053 L657.773776,454.221234 C653.274814,451.670937 646.605766,444.045937 645.630681,423.27794 C645.468188,419.80225 645.420355,416.322235 645.48726,412.843455 C672.047069,410.855935 706.405405,379.481497 706.405405,348.799142 C706.405405,334.981967 701.491953,329.395486 696.768619,327.361835 L696.396212,327.20858 L696.396212,327.20858 L696.025154,327.069576 L696.025154,327.069576 L695.656001,326.944311 C695.594665,326.92455 695.533432,326.90534 695.472314,326.88667 L695.107066,326.781056 C694.985837,326.747956 694.865157,326.716933 694.74512,326.687901 L694.387034,326.606696 L694.387034,326.606696 L694.033364,326.536929 L694.033364,326.536929 L693.68467,326.478088 L693.68467,326.478088 L693.341509,326.429661 L693.341509,326.429661 L693.00444,326.391138 L693.00444,326.391138 L692.67402,326.362007 C692.619535,326.357906 692.565351,326.354174 692.511478,326.350803 C689.44585,323.671199 685.035649,321.683678 678.689262,321.754661 C657.176086,321.967609 628.097442,346.52769 619.402533,389.002077 L617.976309,392.707131 L617.976309,392.707131 L616.124264,397.472418 L616.124264,397.472418 L614.481486,401.654322 L614.481486,401.654322 L613.113084,405.103978 L613.113084,405.103978 L612.060258,407.736161 L612.060258,407.736161 L610.627332,411.286342 L610.627332,411.286342 L609.535004,413.966263 L609.535004,413.966263 L608.431189,416.64971 L608.431189,416.64971 L607.319153,419.326523 L607.319153,419.326523 L606.202163,421.986544 L606.202163,421.986544 L605.456363,423.745545 L605.456363,423.745545 L604.338372,426.355002 L604.338372,426.355002 L603.224136,428.920573 L603.224136,428.920573 L602.48501,430.601556 L602.48501,430.601556 L601.384288,433.07141 L601.384288,433.07141 L600.657196,434.679174 C600.53653,434.944338 600.416134,435.208063 600.29603,435.470286 L599.579061,437.025088 L599.579061,437.025088 L598.87005,438.540819 L598.87005,438.540819 L598.169966,440.014468 C597.9382,440.498337 597.708082,440.97469 597.479775,441.443027 L596.800446,442.823483 C596.688183,443.049384 596.576413,443.273154 596.465156,443.494733 L595.803933,444.797392 C595.694809,445.00995 595.586239,445.220191 595.478241,445.42805 L594.837302,446.64614 C591.774251,452.390656 589.227434,456.027672 587.688525,456.027672 C585.432869,456.027672 584.344732,449.782441 584.049812,440.853382 L584.007939,439.340966 C583.955954,437.036898 583.952246,434.577458 583.990965,432.018291 L584.022999,430.298016 C584.029365,430.009044 584.036238,429.718995 584.04361,429.427942 L584.093779,427.670215 L584.093779,427.670215 L584.155557,425.892098 C584.166799,425.59425 584.178509,425.295705 584.190679,424.996539 L584.269147,423.19471 C584.283123,422.893368 584.297542,422.591558 584.312397,422.289356 L584.40669,420.472058 C584.423255,420.168595 584.44024,419.864894 584.457636,419.56103 L584.566886,417.736507 L584.566886,417.736507 L584.685627,415.911747 L584.685627,415.911747 L584.813474,414.090415 C584.835519,413.787349 584.857927,413.484578 584.880691,413.18218 L585.021474,411.372859 C585.045627,411.072252 585.070119,410.77217 585.094943,410.472689 L585.247795,408.683623 L585.247795,408.683623 L585.408212,406.912641 L585.408212,406.912641 L585.57581,405.163406 L585.57581,405.163406 L585.750202,403.439582 C585.779812,403.154599 585.80969,402.870828 585.839826,402.588344 L586.023689,400.909508 C586.054829,400.632481 586.086213,400.356894 586.117831,400.082824 L586.310298,398.457219 C586.342824,398.189522 586.37557,397.923494 586.408526,397.659212 L586.60873,396.095082 L586.60873,396.095082 L586.813611,394.576514 L586.813611,394.576514 L587.022784,393.107174 C587.128379,392.385422 587.23544,391.683504 587.343748,391.003481 L587.561966,389.673239 L587.561966,389.673239 L587.783128,388.405049 C587.820213,388.199058 587.857404,387.995806 587.894693,387.795368 L590.737987,382.508927 L590.737987,382.508927 L599.184175,366.881037 L599.184175,366.881037 L603.441016,358.984005 L603.441016,358.984005 L607.086756,352.185611 L607.086756,352.185611 L609.298126,348.040297 L609.298126,348.040297 L611.516246,343.862157 L611.516246,343.862157 L612.994219,341.065314 L612.994219,341.065314 L615.203233,336.863156 L615.203233,336.863156 L616.666653,334.06309 L616.666653,334.06309 L618.841115,329.875282 L618.841115,329.875282 L620.27302,327.097571 L620.27302,327.097571 L621.687569,324.335964 L621.687569,324.335964 L623.082047,321.594554 L623.082047,321.594554 L624.453742,318.877432 C624.680308,318.42683 624.905812,317.97741 625.130197,317.529258 L626.462626,314.856243 L626.462626,314.856243 L627.765486,312.217747 L627.765486,312.217747 L629.036062,309.617864 C637.392927,292.42311 643.416616,278.075339 643.488327,272.031145 C643.73035,250.292635 614.714453,235.865363 608.762474,235.927473 C606.138557,235.885711 603.681073,237.196061 602.272666,239.387888 C594.752018,244.63175 567.044839,320.246274 560.366791,383.61625 L555.374717,395.109027 L555.374717,395.109027 L553.782198,398.757435 L553.782198,398.757435 L551.608863,403.705731 L551.608863,403.705731 L549.94939,407.453182 L549.94939,407.453182 L548.832474,409.957342 L547.331014,413.29738 L547.331014,413.29738 L546.089101,416.03455 L546.089101,416.03455 L545.156036,418.074211 L545.156036,418.074211 L543.600867,421.438366 L543.600867,421.438366 L542.669405,423.43013 L542.669405,423.43013 L541.123001,426.694236 L541.123001,426.694236 L539.894048,429.246474 L539.894048,429.246474 L539.283133,430.50013 L539.283133,430.50013 L538.372068,432.349694 L538.372068,432.349694 L537.468287,434.159118 L537.468287,434.159118 L536.870321,435.341418 L536.870321,435.341418 L536.276353,436.503351 L536.276353,436.503351 L535.393564,438.205852 L535.393564,438.205852 L534.810926,439.312446 L534.810926,439.312446 L534.233352,440.395136 L534.233352,440.395136 L533.661148,441.45291 C533.566244,441.627073 533.471578,441.800156 533.377154,441.972138 L532.813575,442.990643 L532.813575,442.990643 L532.256126,443.981706 L532.256126,443.981706 L531.705114,444.944316 L531.705114,444.944316 L531.160841,445.87746 L531.160841,445.87746 L530.623613,446.78013 L530.623613,446.78013 L530.093734,447.651313 L530.093734,447.651313 L529.57151,448.489999 L529.57151,448.489999 L529.057244,449.295177 L529.057244,449.295177 L528.551241,450.065836 C528.467612,450.191346 528.384341,450.315376 528.301433,450.437905 L527.808396,451.15489 C525.284089,454.764481 523.121145,456.890682 521.508616,456.906085 C519.836104,456.923558 518.913117,455.698049 518.420926,453.24438 L518.333611,452.769928 C518.2924,452.525509 518.2548,452.270304 518.220548,452.004326 L518.156432,451.458006 L518.156432,451.458006 L518.100779,450.882978 C518.092183,450.784749 518.08392,450.685324 518.07598,450.584705 L518.032146,449.966653 C518.025461,449.861256 518.01908,449.754665 518.012994,449.646881 L517.979927,448.985856 L517.979927,448.985856 L517.953456,448.296209 L517.953456,448.296209 L517.933113,447.577961 L517.933113,447.577961 L517.918432,446.831134 L517.918432,446.831134 L517.908945,446.055751 L517.908945,446.055751 L517.903687,444.4194 L517.903687,444.4194 L517.909906,443.117335 L517.909906,443.117335 L517.923086,441.751238 L517.923086,441.751238 C518.324665,406.199457 525.312547,378.814399 531.399879,360.228702 L532.048306,358.271077 L532.048306,358.271077 L532.687794,356.380967 L532.687794,356.380967 L533.316299,354.558544 L533.316299,354.558544 L533.931772,352.803983 L533.931772,352.803983 L534.532168,351.117455 L534.532168,351.117455 L535.11544,349.499134 L535.11544,349.499134 L535.953765,347.199919 L535.953765,347.199919 L537.703325,342.43668 L537.703325,342.43668 L538.140883,341.23123 L538.140883,341.23123 L538.546992,340.095197 C538.611943,339.911652 538.675498,339.731008 538.737615,339.553266 L539.092715,338.521682 C539.879422,336.196078 540.367524,334.440909 540.440039,333.266062 L540.449175,333.023195 L540.442405,332.910793 C539.962701,329.29124 514.339633,327.237588 509.464486,344.163252 L509.323153,344.681978 L509.193,345.217 L509.246194,344.774476 L509.246194,344.774476 L509.276098,344.443817 L509.276098,344.443817 L509.313132,343.879325 L509.313132,343.879325 L509.333091,343.371303 L509.333091,343.371303 L509.340237,342.995764 L509.340237,342.995764 L509.338467,342.381772 L509.338467,342.381772 L509.327065,341.941341 L509.327065,341.941341 L509.305969,341.478175 C509.301573,341.399189 509.296718,341.319332 509.291379,341.238642 L509.253305,340.744828 L509.253305,340.744828 L509.202286,340.232884 L509.202286,340.232884 L509.137024,339.704651 L509.137024,339.704651 L509.056218,339.16197 C508.091929,333.21132 504.162452,325.041506 489.830463,325.188458 C466.273535,325.428025 420.602854,366.935271 420.602854,439.470912 C420.602854,454.999159 423.457279,462.536152 427.014191,467.123719 L427.354999,467.551874 C427.469264,467.691727 427.584168,467.82877 427.699643,467.963162 L428.047708,468.358551 L428.047708,468.358551 L428.398781,468.739009 L428.398781,468.739009 L428.75245,469.105503 L428.75245,469.105503 L429.108301,469.459002 C429.167769,469.51689 429.22731,469.574276 429.286916,469.631181 L429.645266,469.967001 L429.645266,469.967001 L430.004766,470.292246 C430.064756,470.345626 430.124776,470.398605 430.184818,470.451205 L430.545268,470.7624 L430.545268,470.7624 L430.905835,471.065439 L430.905835,471.065439 L431.625666,471.65092 L431.625666,471.65092 L432.695963,472.492165 L432.695963,472.492165 L433.572113,473.175943 L433.968212,473.489557 C434.689898,474.065501 435.385812,474.649323 436.038558,475.281781 L437.211662,476.408424 L437.211662,476.408424 L438.027682,477.175378 L438.027682,477.175378 L438.798678,477.878092 L438.798678,477.878092 L439.291957,478.312056 L439.291957,478.312056 L439.77167,478.719232 L439.77167,478.719232 L440.240394,479.100325 C443.02493,481.310046 445.355289,482.149375 449.737184,482.303625 L450.486925,482.323107 C450.615191,482.325337 450.745148,482.327066 450.876848,482.328312 L451.68841,482.330086 C451.827302,482.329452 451.968045,482.328363 452.110693,482.326833 C462.079362,482.229231 472.080569,470.52047 479.062999,460.00235 L479.812597,458.860257 C480.058373,458.481545 480.300011,458.105022 480.537364,457.731305 L481.236419,456.619185 C481.350737,456.43544 481.463947,456.25255 481.57603,456.070592 L482.234868,454.990647 C482.342373,454.812726 482.448715,454.635891 482.553875,454.460219 L483.170515,453.420759 L483.170515,453.420759 L483.757922,452.412906 L483.757922,452.412906 L484.315217,451.440353 L484.315217,451.440353 L484.841518,450.506793 L484.841518,450.506793 L485.570932,449.187646 L485.570932,449.187646 L486.22566,447.977009 L486.22566,447.977009 L486.619185,447.236357 L486.619185,447.236357 L487.299171,445.931127 L487.299171,445.931127 L488.038284,444.46887 L488.038284,444.46887 L488.467962,443.58792 L488.467962,443.58792 L488.708621,445.298033 L488.708621,445.298033 L488.890831,446.510177 L488.890831,446.510177 L489.120929,447.96966 L489.120929,447.96966 L489.457634,449.985253 L489.457634,449.985253 L489.649834,451.078845 L489.649834,451.078845 L489.929926,452.604476 L489.929926,452.604476 L490.236371,454.1865 L490.236371,454.1865 L490.482927,455.396404 L490.482927,455.396404 L490.743367,456.615738 L490.743367,456.615738 L490.924508,457.429149 L490.924508,457.429149 L491.111523,458.239674 L491.111523,458.239674 L491.304291,459.044483 L491.304291,459.044483 L491.502694,459.840746 L491.502694,459.840746 L491.706611,460.625631 L491.706611,460.625631 L491.915924,461.396308 L491.915924,461.396308 L492.130514,462.149946 C492.166712,462.273975 492.203125,462.397177 492.23975,462.519491 L492.46203,463.242264 L492.46203,463.242264 L492.689289,463.940922 C493.684691,466.9121 494.816951,469.124301 496.042393,469.54104 C496.710782,469.767876 497.30403,470.168333 497.882151,470.683785 L498.129167,470.911563 L498.129167,470.911563 L498.37538,471.152396 L498.37538,471.152396 L498.745492,471.535882 L498.745492,471.535882 L499.119704,471.942974 L499.119704,471.942974 L500.302373,473.271276 L500.302373,473.271276 L500.728418,473.738182 L500.728418,473.738182 L501.024349,474.053167 L501.024349,474.053167 L501.488723,474.528652 L501.488723,474.528652 L501.813488,474.846151 L501.813488,474.846151 L502.151623,475.162861 L502.151623,475.162861 L502.504179,475.477757 C502.564199,475.530031 502.624862,475.582187 502.686193,475.634204 L503.062348,475.944455 C505.753865,478.102085 509.698193,479.937911 516.515766,479.86905 C524.834194,479.78671 533.303394,467.669533 541.302488,452.057537 L542.128278,450.430387 L542.128278,450.430387 L542.950562,448.780404 C543.087308,448.503621 543.223902,448.225974 543.360341,447.947507 L544.177078,446.267215 L544.177078,446.267215 L544.989926,444.569343 L544.989926,444.569343 L545.798734,442.855992 L545.798734,442.855992 L546.603347,441.129262 L546.603347,441.129262 L547.403614,439.391256 L547.403614,439.391256 L548.199381,437.644073 L548.199381,437.644073 L549.384261,435.01069 L549.384261,435.01069 L550.558158,432.368478 L550.558158,432.368478 L552.105378,428.844052 L552.105378,428.844052 L554.385207,423.588385 L554.385207,423.588385 L557.704535,415.886847 L557.704535,415.886847 C557.347869,420.524365 557.199008,426.180329 557.232435,431.92303 L557.239689,432.88079 L557.267617,435.001417 L557.267617,435.001417 L557.304307,436.809956 L557.304307,436.809956 L557.352615,438.606711 L557.352615,438.606711 L557.412361,440.38518 L557.412361,440.38518 L557.502858,442.572643 L557.502858,442.572643 L557.58769,444.286191 L557.58769,444.286191 L557.708981,446.371929 L557.708981,446.371929 L557.817997,447.987636 L557.817997,447.987636 L557.906633,449.1643 L557.906633,449.1643 L557.968955,449.930498 L557.968955,449.930498 L558.135907,451.776204 L558.135907,451.776204 L558.243611,452.831709 L558.243611,452.831709 L558.356873,453.844922 L558.356873,453.844922 L558.475617,454.8131 L558.475617,454.8131 L558.557788,455.432178 L558.557788,455.432178 L558.685503,456.319201 L558.685503,456.319201 L558.773586,456.881636 L558.773586,456.881636 L558.863993,457.419991 L558.863993,457.419991 L558.956704,457.933453 L558.956704,457.933453 L559.051696,458.42121 L559.051696,458.42121 L559.148947,458.882448 L559.148947,458.882448 L559.248433,459.316356 L559.248433,459.316356 L559.350134,459.722119 C559.367268,459.787356 559.384492,459.851386 559.401808,459.914193 L559.506788,460.276216 L559.506788,460.276216 L559.613927,460.608064 L559.613927,460.608064 L559.723201,460.908922 C559.962262,461.526623 560.216207,461.920388 560.484019,462.053011 L560.546067,462.078963 C561.315847,462.341765 562.03717,463.03653 562.783765,464.002965 L563.048439,464.355079 L563.048439,464.355079 L563.315932,464.728188 L563.315932,464.728188 L563.724033,465.32379 L563.724033,465.32379 L564.14253,465.957822 L564.14253,465.957822 L565.484701,468.037636 L565.484701,468.037636 L565.969089,468.772528 L565.969089,468.772528 L566.304393,469.269451 L566.304393,469.269451 L566.65044,469.770141 L566.65044,469.770141 L567.00795,470.273033 L567.00795,470.273033 L567.377644,470.776561 C567.690999,471.195998 568.017795,471.614465 568.35991,472.027885 L568.777919,472.521306 C571.828068,476.036382 576.066604,479.057504 582.686712,478.990637 C588.710401,478.931011 595.518375,470.835441 602.218067,459.158867 L602.935436,457.894305 C603.413352,457.0424 603.890552,456.173036 604.366712,455.287836 L605.080132,453.948364 C605.198891,453.723207 605.317576,453.49711 605.43618,453.270101 L606.146801,451.897282 C606.265064,451.66672 606.383236,451.435294 606.501313,451.203031 L607.208587,449.799606 L607.208587,449.799606 L607.913324,448.377299 L607.913324,448.377299 L608.615281,446.937328 C608.732029,446.695928 608.84865,446.453843 608.965141,446.211098 L609.66247,444.746913 L609.66247,444.746913 L610.356409,443.268108 C610.471769,443.020489 610.586978,442.772313 610.702031,442.523603 L611.390427,441.025149 L611.390427,441.025149 L612.074823,439.51512 C612.188542,439.262551 612.302084,439.009551 612.415444,438.756145 L613.093382,437.231034 L613.093382,437.231034 L613.766711,435.697391 L613.766711,435.697391 L614.435185,434.156433 L614.435185,434.156433 L615.098561,432.609378 L615.098561,432.609378 L615.756595,431.057445 L615.756595,431.057445 L616.409044,429.501849 L616.409044,429.501849 L617.376709,427.164254 L617.376709,427.164254 C617.441248,427.915963 617.51133,428.658839 617.586788,429.392735 L617.744821,430.848509 L617.744821,430.848509 L617.916892,432.280069 L617.916892,432.280069 L618.102705,433.687151 C621.023585,454.840938 628.583729,467.457603 636.129028,467.384934 C637.250265,467.371399 638.359822,468.29356 639.595659,469.579476 L640.012471,470.020802 L640.012471,470.020802 L641.561369,471.709673 C641.638959,471.793378 641.717151,471.877322 641.795969,471.961409 L642.276583,472.46685 C642.358001,472.551112 642.440093,472.635321 642.522882,472.719377 L643.028172,473.221103 C645.255663,475.380537 647.986495,477.304493 651.636443,477.269302 C669.602007,477.087053 686.152207,458.054975 699.749053,435.589393 L700.776022,433.876794 C701.797261,432.158094 702.801241,430.42184 703.787286,428.674785 L704.767328,426.924381 L704.767328,426.924381 L705.735264,425.168277 C705.895569,424.875201 706.055364,424.581951 706.214645,424.288557 L707.164142,422.526718 L707.164142,422.526718 L708.101158,420.762932 L708.101158,420.762932 L709.025545,418.9987 L709.025545,418.9987 L709.937151,417.235522 L709.937151,417.235522 L709.417884,420.373873 L709.417884,420.373873 L708.932317,423.378043 L708.932317,423.378043 L708.479989,426.251434 L708.479989,426.251434 L707.960618,429.664449 L707.960618,429.664449 L707.581391,432.256026 L707.581391,432.256026 L707.317826,434.120956 L707.317826,434.120956 L707.07192,435.919976 L707.07192,435.919976 L706.843479,437.654523 L706.843479,437.654523 L706.700792,438.775778 L706.700792,438.775778 L706.565723,439.869441 L706.565723,439.869441 L706.377277,441.459131 L706.377277,441.459131 L706.205648,442.989131 L706.205648,442.989131 L706.050642,444.460877 L706.050642,444.460877 L705.869486,446.335068 L705.869486,446.335068 L705.789716,447.235346 L705.789716,447.235346 L705.683409,448.54094 L705.683409,448.54094 L705.592946,449.79402 L705.592946,449.79402 L705.518133,450.996021 L705.518133,450.996021 L705.476855,451.769687 L705.476855,451.769687 L705.427692,452.889747 L705.427692,452.889747 L705.39366,453.962555 L705.39366,453.962555 L705.374565,454.989547 L705.374565,454.989547 C705.284927,462.646826 707.256968,470.073411 711.81059,471.963331 L716.844323,474.048299 L716.844323,474.048299 L718.756335,474.826105 L718.756335,474.826105 L720.558998,475.540438 L720.558998,475.540438 L721.588021,475.935739 L721.588021,475.935739 L722.577558,476.304267 L722.577558,476.304267 L723.21529,476.534354 L723.21529,476.534354 L723.835439,476.751453 L723.835439,476.751453 L724.437993,476.955128 L724.437993,476.955128 L725.022937,477.144944 L725.022937,477.144944 L725.590258,477.320466 L725.590258,477.320466 L726.139944,477.481257 L726.139944,477.481257 L726.671979,477.626882 L726.671979,477.626882 L727.186353,477.756904 C727.270609,477.77725 727.354128,477.796928 727.436911,477.815929 L727.924765,477.921732 C728.0046,477.937987 728.083697,477.953547 728.162057,477.968402 L728.623362,478.049005 L728.623362,478.049005 L729.066951,478.112263 C732.472306,478.538715 734.245814,477.328634 734.358625,473.539623 L734.36357,473.29426 C734.928291,424.316065 793.246928,338.009743 797.952935,337.956505 C798.988257,337.946745 798.395777,340.61029 796.835509,345.302702 L796.386483,346.632269 L796.386483,346.632269 L795.892443,348.059537 L795.892443,348.059537 L795.356363,349.581599 L795.356363,349.581599 L794.78122,351.195551 L794.78122,351.195551 L791.789439,359.517582 L791.789439,359.517582 L790.676642,362.646269 L790.676642,362.646269 L789.911361,364.822109 C789.78246,365.190551 789.652923,365.561853 789.522812,365.935955 L788.735755,368.21368 C788.339279,369.368857 787.938753,370.548145 787.535852,371.749907 L786.727377,374.182915 C780.242169,393.878971 773.434368,419.049845 773.158999,443.002311 C773.155413,443.319368 773.153638,443.635819 773.153699,443.951527 L773.159419,444.896278 C773.163179,445.210358 773.168802,445.523557 773.176314,445.835735 L773.204542,446.769068 C773.2102,446.924067 773.216336,447.078777 773.222955,447.233179 L773.268477,448.15577 C773.311276,448.921296 773.366289,449.678282 773.433925,450.424566 L773.521174,451.314833 C773.552294,451.609784 773.58546,451.902884 773.620698,452.193996 L773.732655,453.061227 C774.776976,460.666621 777.294788,466.778267 781.773233,468.822338 C782.772401,469.275445 783.738263,469.757577 784.678745,470.252748 L785.61106,470.751674 L785.61106,470.751674 L786.528216,471.255741 L786.528216,471.255741 L787.87938,472.013712 L787.87938,472.013712 L789.644313,473.00918 L789.644313,473.00918 L790.515048,473.492425 L790.515048,473.492425 L791.380312,473.961276 C794.832767,475.80315 798.196153,477.21429 801.977692,477.1717 C807.992238,477.115269 816.952772,464.17569 826.046152,446.418777 L827.076008,444.388414 C828.792876,440.971622 830.510694,437.394168 832.210567,433.710232 L833.228186,431.487525 C833.39738,431.115089 833.566356,430.741696 833.735097,430.367401 L834.744554,428.111236 L834.744554,428.111236 L835.747438,425.836017 C835.913987,425.455371 836.080224,425.074039 836.246131,424.692075 L837.237452,422.39315 L837.237452,422.39315 L838.219931,420.081671 C838.382891,419.695523 838.545444,419.308961 838.707572,418.922037 L839.675088,416.596605 L839.675088,416.596605 L840.631494,414.26512 C840.789919,413.87618 840.947843,413.487095 841.105248,413.097921 L842.04329,410.762235 C842.19854,410.372919 842.353234,409.983622 842.507351,409.594398 L843.424987,407.26036 C843.576723,406.871644 843.727846,406.48311 843.878335,406.09481 L844.773525,403.768274 C844.921407,403.381133 845.068619,402.994336 845.21514,402.607937 L846.085843,400.294751 L846.085843,400.294751 L846.939088,397.993718 L846.939088,397.993718 L847.773967,395.707436 C848.049099,394.94809 848.321018,394.191636 848.589574,393.438508 C847.124248,408.576358 846.295872,423.768005 846.106595,438.974032 L846.057369,443.074793 C846.05479,443.359784 846.052556,443.646238 846.050786,443.933639 L846.046997,444.798162 L846.048971,446.260311 L846.063603,447.660385 L846.063603,447.660385 L846.084679,448.697933 L846.084679,448.697933 L846.115877,449.718561 L846.115877,449.718561 L846.142951,450.386826 L846.142951,450.386826 L846.193951,451.36686 L846.193951,451.36686 L846.235446,452.002896 L846.235446,452.002896 L846.283393,452.623148 C846.291943,452.725116 846.300779,452.826358 846.309908,452.926839 L846.368265,453.520317 L846.368265,453.520317 L846.43405,454.093878 C846.445655,454.18772 846.457586,454.280664 846.469851,454.372674 L846.547511,454.913263 C846.888333,457.116764 847.448028,458.694015 848.353728,459.106985 L848.464081,459.150919 C849.150374,459.385218 849.798369,459.96308 850.460213,460.770813 L850.725812,461.105897 L850.725812,461.105897 L850.993631,461.463883 L850.993631,461.463883 L851.26441,461.843154 C851.309828,461.90805 851.3554,461.973765 851.401141,462.040267 L851.677752,462.448435 L851.677752,462.448435 L851.959177,462.873846 L851.959177,462.873846 L853.464476,465.202956 L853.464476,465.202956 L853.957012,465.947649 L853.957012,465.947649 L854.472896,466.703853 L854.472896,466.703853 L854.831025,467.21169 C854.891712,467.296463 854.952908,467.381282 855.01463,467.466111 L855.391384,467.974951 C858.521684,472.127158 862.986876,476.144112 870.604725,476.062593 C872.855893,476.062593 875.392386,474.665 878.124248,472.178228 L878.638739,471.69927 C878.810985,471.535412 878.983972,471.367376 879.157678,471.195235 L879.680932,470.666577 C879.768493,470.576441 879.856229,470.485297 879.944136,470.393155 L880.473616,469.828408 L880.473616,469.828408 L881.007082,469.240166 C881.096318,469.140193 881.185714,469.03926 881.275269,468.937376 L881.814467,468.314739 C881.904641,468.20909 881.994968,468.102509 882.085445,467.995006 L882.630078,467.338991 L882.630078,467.338991 L883.17817,466.661288 L883.17817,466.661288 L883.729589,465.96235 C883.821762,465.844116 883.914069,465.725015 884.006505,465.605058 L884.562668,464.875114 L884.562668,464.875114 L885.121828,464.125062 L885.121828,464.125062 L885.683855,463.355357 L885.683855,463.355357 L886.248615,462.566448 L886.248615,462.566448 L886.815977,461.758789 C886.910747,461.622642 887.00562,461.485732 887.100593,461.348069 L887.671612,460.51313 L887.671612,460.51313 L888.244904,459.66057 L888.244904,459.66057 L888.820337,458.79084 L888.820337,458.79084 L889.687213,457.45504 L889.687213,457.45504 L890.558165,456.08315 L890.558165,456.08315 L891.140845,455.149258 L891.140845,455.149258 C898.571855,470.419453 916.741525,477.837165 935.888252,475.335018 C949.465756,473.569407 967.725901,462.142217 971.916685,444.316382 L972.098641,443.521731 L972.098641,443.521731 L972.940774,439.997733 L972.940774,439.997733 L973.607702,437.255563 L973.607702,437.255563 L974.436944,433.891761 L974.436944,433.891761 L975.415953,429.978349 L975.415953,429.978349 L976.240945,426.725934 L976.240945,426.725934 L977.137828,423.235258 L977.137828,423.235258 L978.10131,419.536705 L978.10131,419.536705 L978.778016,416.97052 L978.778016,416.97052 L979.4804,414.334453 L979.4804,414.334453 L980.206893,411.637505 L980.206893,411.637505 L980.955927,408.888679 L980.955927,408.888679 L981.725934,406.096977 L981.725934,406.096977 L982.515344,403.271403 C982.781541,402.3249 983.05071,401.374252 983.32259,400.420959 L984.146103,397.554648 C991.349174,372.670529 1000.20827,347.012968 1006.12877,346.953587 C1010.72901,346.907448 1009.99971,356.869897 1007.4352,371.774458 L1007.03719,374.046575 L1007.03719,374.046575 L1006.61428,376.389024 L1006.61428,376.389024 L1006.16908,378.798004 L1006.16908,378.798004 L1005.70422,381.269717 L1005.70422,381.269717 L1004.47321,387.698515 L1004.47321,387.698515 L1003.17663,394.436267 L1003.17663,394.436267 L1002.6488,397.204576 L1002.6488,397.204576 L1002.11966,400.009018 L1002.11966,400.009018 L1001.59181,402.845792 L1001.59181,402.845792 L1001.06788,405.711101 L1001.06788,405.711101 L1000.5505,408.601143 L1000.5505,408.601143 L1000.04227,411.512118 C997.528433,426.112997 995.456446,441.356395 995.300475,455.104894 C995.287298,456.358896 995.800667,457.963887 996.713986,459.716165 L996.985707,460.220648 C997.315158,460.813476 997.687707,461.420514 998.098667,462.034217 L998.460216,462.561705 C998.583795,462.737961 998.7104,462.914585 998.839921,463.091401 L999.237128,463.62225 L999.237128,463.62225 L999.65118,464.153196 C1000.56607,465.302922 1001.59495,466.445897 1002.70779,467.533797 L1003.22726,468.031818 C1003.3148,468.114111 1003.40281,468.196034 1003.49127,468.277565 L1004.0274,468.761874 C1007.99751,472.276408 1012.79714,474.947097 1017.26184,474.900248 C1045.4439,474.615386 1063.79493,425.337206 1070.87762,402.133139 L1071.40019,400.400905 L1071.40019,400.400905 L1071.87817,398.77912 L1071.87817,398.77912 L1072.31141,397.275377 C1072.37988,397.035012 1072.44647,396.799881 1072.5112,396.570144 L1072.87705,395.257702 L1072.87705,395.257702 L1073.34121,393.548332 L1073.34121,393.548332 L1073.59402,392.592687 L1073.59402,392.592687 L1073.96309,391.157012 L1073.96309,391.157012 L1074.17316,390.306388 L1073.96557,398.142731 L1073.96557,398.142731 L1073.75737,405.775526 L1073.75737,405.775526 L1073.5465,413.244899 L1073.5465,413.244899 L1073.33195,420.551182 L1073.33195,420.551182 L1073.11271,427.694708 C1073.07572,428.87175 1073.0385,430.042026 1073.00101,431.20554 L1072.77283,438.105551 C1069.37561,538.117438 1063.64579,585.880791 1041.18629,586.112692 C1032.98887,586.191217 1027.39379,579.860808 1024.0844,572.807038 L1023.75572,572.087433 C1023.64877,571.846882 1023.54445,571.60572 1023.44272,571.36417 L1023.14533,570.638577 C1023.00053,570.27542 1022.86155,569.911887 1022.72836,569.548727 L1022.46968,568.823123 C1022.34418,568.460791 1022.22444,568.09933 1022.11042,567.739486 L1021.88998,567.022177 L1021.88998,567.022177 L1021.6847,566.310511 C1021.6188,566.074377 1021.55541,565.839405 1021.49452,565.605817 L1021.31936,564.909423 C1021.29141,564.794123 1021.26409,564.679225 1021.23738,564.564755 L1021.08461,563.883304 C1021.03616,563.658017 1020.99019,563.434667 1020.94667,563.213476 L1020.82349,562.5566 L1020.82349,562.5566 L1020.71499,561.914004 L1020.71499,561.914004 L1020.62111,561.287017 C1020.59224,561.08077 1020.5658,560.877347 1020.54177,560.676968 L1020.47688,560.085186 C1020.46727,559.988151 1020.45826,559.891933 1020.44985,559.79656 L1020.40652,559.234669 C1020.40049,559.142783 1020.39506,559.051796 1020.39022,558.961737 C1019.0576,534.581041 1031.31605,525.912017 1038.15393,522.98863 L1038.6961,522.763993 C1038.78435,522.728587 1038.87153,522.69418 1038.95757,522.660749 L1039.45988,522.471671 L1039.45988,522.471671 L1039.9328,522.304823 L1039.9328,522.304823 L1040.37409,522.159026 C1040.44487,522.136415 1040.51425,522.114632 1040.58216,522.093652 L1041.15273,521.925859 L1041.15273,521.925859 L1041.63691,521.79746 L1041.63691,521.79746 L1041.90795,521.731778 L1041.90795,521.731778 L1042.31571,521.642907 L1042.31571,521.642907 L1042.55775,521.598117 L1042.77254,521.483738 C1044.34058,520.600982 1045.75208,518.759282 1046.98303,516.514167 L1047.31425,515.892278 C1047.6954,515.156046 1048.05806,514.384086 1048.40144,513.594291 L1048.69104,512.913375 L1048.69104,512.913375 L1048.97108,512.226228 L1048.97108,512.226228 L1049.24146,511.535354 L1049.24146,511.535354 L1049.50209,510.843259 L1049.50209,510.843259 L1049.75284,510.152446 L1049.75284,510.152446 L1049.9936,509.465419 L1049.9936,509.465419 L1050.22428,508.784684 L1050.22428,508.784684 L1050.55115,507.780853 L1050.55115,507.780853 L1050.75613,507.126801 L1050.75613,507.126801 L1051.13458,505.866367 L1051.13458,505.866367 L1051.47029,504.686191 L1051.47029,504.686191 L1051.7624,503.606306 L1051.7624,503.606306 L1052.01004,502.646746 L1052.01004,502.646746 L1052.29622,501.476842 L1052.29622,501.476842 L1052.55242,500.347614 L1052.55242,500.347614 C1052.59628,497.082401 1048.69038,497.11492 1047.40646,497.957948 L1047.32651,498.014052 C1044.37293,500.223394 1039.69605,501.742872 1034.19002,502.725541 L1033.11423,502.909073 L1033.11423,502.909073 L1032.01916,503.079446 C1030.91495,503.24332 1029.78399,503.387826 1028.63278,503.514071 L1027.47506,503.634271 L1027.47506,503.634271 L1026.30527,503.742545 C1025.52171,503.810806 1024.73107,503.871281 1023.93527,503.924298 L1022.73794,503.998272 C1022.3377,504.021092 1021.93641,504.04209 1021.53431,504.061305 L1020.32582,504.113644 L1020.32582,504.113644 L1019.1139,504.155537 L1019.1139,504.155537 L1017.90001,504.187229 C1017.69761,504.191675 1017.49519,504.195706 1017.29278,504.199328 L1016.07862,504.216182 L1016.07862,504.216182 C1012.38552,504.253803 1006.50898,504.187391 998.751685,504.043441 L992.585799,503.921354 C991.500954,503.898722 990.387905,503.874981 989.247242,503.850183 L982.076635,503.689138 L982.076635,503.689138 L974.271686,503.505226 L974.271686,503.505226 L921.273673,502.195952 L921.273673,502.195952 L910.037179,501.923946 L910.037179,501.923946 L898.379168,501.647701 L898.379168,501.647701 L886.328017,501.369702 C884.288306,501.323361 882.233398,501.27705 880.163881,501.230821 L867.576226,500.954846 L867.576226,500.954846 L854.666371,500.683327 L854.666371,500.683327 L841.462695,500.418746 C705.827894,497.772532 529.038048,496.587207 445.28026,508.608248 C436.086873,509.92507 425.308072,520.454753 416.950978,530.641286 L415.979205,531.837542 C415.339127,532.633222 414.714913,533.424486 414.108495,534.206723 L413.212459,535.372733 C413.065425,535.565748 412.919563,535.758054 412.774905,535.94958 L411.921631,537.088797 L411.921631,537.088797 L411.098677,538.205829 L411.098677,538.205829 L410.307494,539.297218 L410.307494,539.297218 L409.549531,540.359508 L409.549531,540.359508 L408.826239,541.389239 L408.826239,541.389239 L408.139067,542.382954 L408.139067,542.382954 L407.489466,543.337195 L407.489466,543.337195 L406.878885,544.248505 L406.878885,544.248505 L406.308774,545.113424 L406.308774,545.113424 L405.780584,545.928497 L405.780584,545.928497 L405.295764,546.690264 L405.295764,546.690264 L404.855765,547.395268 L404.855765,547.395268 L404.282976,548.338779 L404.282976,548.338779 L403.961371,548.886747 L403.961371,548.886747 L403.689662,549.365849 C403.648615,549.439769 403.609708,549.510675 403.572971,549.578495 L403.378823,549.947815 C403.211194,550.278957 403.123206,550.493833 403.123206,550.576883 C403.123206,551.000716 403.341915,551.652437 403.714568,552.337371 L403.896823,552.655144 C404.793859,554.142472 406.322857,555.644937 407.67702,555.217389 C482.575144,531.43954 671.339587,528.222312 830.177596,527.976852 L843.341741,527.962899 L843.341741,527.962899 L856.348845,527.960442 C858.502582,527.960865 860.649005,527.961673 862.787729,527.962818 L881.817966,527.98097 L881.817966,527.98097 L935.790076,528.06848 L935.790076,528.06848 L947.029951,528.080146 L947.029951,528.080146 L957.955605,528.084081 L957.955605,528.084081 L968.548546,528.078025 C977.23223,528.068186 985.550076,528.045582 993.453927,528.004323 C989.330569,534.747698 987.089613,542.493706 987.510912,550.213095 C988.667246,571.43698 1007.89465,598.339495 1041.71515,598 C1090.88298,597.498579 1099.48035,486.80264 1103.99764,369.920164 L1104.28378,362.37181 C1104.33065,361.112665 1104.37714,359.853064 1104.42329,358.593135 L1104.69653,351.030669 L1104.69653,351.030669 L1104.97345,343.17595 L1104.97345,343.17595 L1104.98847,342.590176 L1104.98847,342.590176 L1105,341.702141 L1105,341.702141 L1105,340.806145 L1105,340.806145 L1104.98633,340.206218 L1104.98633,340.206218 L1104.96813,339.60549 L1104.96813,339.60549 L1104.94201,339.005058 L1104.94201,339.005058 L1104.90757,338.406017 C1104.90111,338.306354 1104.89428,338.206794 1104.88709,338.10736 L1104.83935,337.512459 L1104.83935,337.512459 L1104.78223,336.921686 C1104.7719,336.823629 1104.76117,336.72579 1104.75002,336.628191 L1104.67803,336.045666 C1104.66517,335.94912 1104.65188,335.852861 1104.63815,335.75691 L1104.55034,335.185097 C1104.51925,334.99585 1104.48631,334.808022 1104.45146,334.621794 L1104.34109,334.068097 C1104.32172,333.976675 1104.30184,333.8857 1104.28146,333.795193 L1104.15306,333.257958 C1103.1884,329.450698 1101.2571,326.594441 1097.66099,326.503478 L1097.40739,326.501641 L1096.9206,326.502395 C1092.75966,326.472242 1089.00443,325.507837 1085.73316,324.241382 L1084.98688,323.944049 L1084.98688,323.944049 L1084.258,323.637719 L1084.258,323.637719 L1083.54672,323.324119 C1083.42966,323.271342 1083.31333,323.218334 1083.19776,323.165132 L1082.5133,322.843863 C1082.40073,322.790024 1082.28891,322.736062 1082.17786,322.682012 L1081.5207,322.35696 L1081.5207,322.35696 L1080.882,322.031543 L1080.882,322.031543 L1080.26198,321.707488 L1080.26198,321.707488 L1079.66086,321.386522 L1079.66086,321.386522 L1078.51614,320.760762 L1078.51614,320.760762 L1076.2288,319.49477 L1076.2288,319.49477 L1075.55762,319.137174 L1075.55762,319.137174 L1075.13615,318.921702 L1075.13615,318.921702 L1074.7357,318.726583 L1074.7357,318.726583 L1074.3565,318.553546 C1072.3297,317.665728 1071.27654,317.858168 1071.35704,320.423513 L1071.36748,320.663299 C1074.02974,369.606002 1036.75816,457.216635 1025.32928,457.331982 C1024.15278,457.343073 1024.58417,453.907612 1025.85059,447.968895 L1026.17016,446.496024 L1026.17016,446.496024 L1026.51943,444.929925 L1026.51943,444.929925 L1027.09381,442.412315 L1027.09381,442.412315 L1028.86505,434.77944 L1028.86505,434.77944 L1029.59624,431.600286 L1029.59624,431.600286 L1030.3515,428.263532 L1030.3515,428.263532 L1030.86442,425.956302 L1030.86442,425.956302 L1031.38211,423.586272 L1031.38211,423.586272 L1031.90218,421.15634 L1031.90218,421.15634 L1032.42226,418.669403 C1032.50882,418.250324 1032.59527,417.828991 1032.68157,417.405464 L1033.19723,414.838453 C1036.87437,396.259777 1040.0953,373.847496 1038.9274,352.401524 L1038.89947,351.913412 L1038.89947,351.913412 L1038.8351,350.940545 L1038.8351,350.940545 L1038.75931,349.972905 C1038.74572,349.812117 1038.73165,349.651584 1038.71709,349.491326 L1038.62396,348.533211 C1038.54149,347.737773 1038.44683,346.950122 1038.33971,346.172602 L1038.20516,345.24459 C1038.01773,344.014126 1037.7981,342.811996 1037.54512,341.6478 L1037.3491,340.781916 C1035.73067,333.914145 1032.90089,328.4984 1028.61004,326.608116 C1027.40949,326.07949 1026.25145,325.51136 1025.12505,324.929074 L1024.16707,324.427095 L1024.16707,324.427095 L1022.75584,323.668888 L1022.75584,323.668888 L1020.45974,322.420795 L1020.45974,322.420795 L1019.55646,321.93736 C1019.40649,321.857885 1019.25678,321.779008 1019.10731,321.700803 L1018.21302,321.240224 C1014.79376,319.510111 1011.46484,318.2136 1007.84086,318.24988 C1000.51079,318.328405 991.374052,337.519453 982.871801,361.239162 L982.009447,363.66638 C981.292801,365.701124 980.581305,367.764841 979.876446,369.848656 L979.033896,372.358313 L979.033896,372.358313 L978.198288,374.883855 L978.198288,374.883855 L977.370193,377.421874 L977.370193,377.421874 L976.55018,379.96896 L976.55018,379.96896 L975.738821,382.521707 L975.738821,382.521707 L974.936686,385.076705 L974.936686,385.076705 L974.144345,387.630546 L974.144345,387.630546 L973.36237,390.179821 L973.36237,390.179821 L972.59133,392.721122 L972.59133,392.721122 L971.831796,395.25104 L971.831796,395.25104 L971.084339,397.766168 L971.084339,397.766168 L970.349529,400.263096 L970.349529,400.263096 L969.627936,402.738416 L969.627936,402.738416 L968.571579,406.403425 L968.571579,406.403425 L967.885527,408.809813 L967.885527,408.809813 L967.214689,411.182664 C967.104183,411.575155 966.994334,411.966107 966.885154,412.355448 L966.410827,411.174237 L966.410827,411.174237 L965.926445,409.988773 L965.926445,409.988773 L965.183074,408.201823 L965.183074,408.201823 L964.422362,406.403302 L964.422362,406.403302 L961.002848,398.446673 L961.002848,398.446673 L960.203162,396.566139 L960.203162,396.566139 L959.406201,394.666422 L959.406201,394.666422 L958.877974,393.388694 L958.877974,393.388694 L958.353305,392.10155 C958.266209,391.886222 958.1793,391.670486 958.092598,391.454336 L957.575028,390.152401 L957.575028,390.152401 L957.063363,388.84016 L957.063363,388.84016 L956.558543,387.517257 C956.057458,386.188904 955.568048,384.844025 955.094538,383.481016 L954.626485,382.111905 C954.472338,381.653481 954.320115,381.192983 954.169971,380.730352 L953.725934,379.336001 C950.226053,368.129047 948.014154,355.659284 949.253313,341.106371 L950.225282,341.038478 L950.225282,341.038478 L951.162377,340.965524 L951.162377,340.965524 L952.065198,340.887158 L952.065198,340.887158 L952.934347,340.803024 L952.934347,340.803024 L953.770426,340.712771 C954.180298,340.666056 954.577993,340.616912 954.963851,340.565143 L955.719882,340.458042 L955.719882,340.458042 L956.444946,340.343585 C956.918133,340.264749 957.371076,340.180772 957.804576,340.091183 L958.440345,339.952533 L958.440345,339.952533 L959.047551,339.805111 L959.047551,339.805111 L959.626795,339.648564 C964.056262,338.385618 965.967406,336.250269 966.660348,332.477915 L966.742291,331.987387 C966.780054,331.737617 966.813079,331.481045 966.841705,331.217473 L966.893189,330.680934 L966.893189,330.680934 L966.933542,330.125372 L966.933542,330.125372 L966.963365,329.550434 L966.963365,329.550434 L966.983258,328.955767 L966.983258,328.955767 L966.993823,328.341016 L966.993823,328.341016 L966.99566,327.705829 L966.99566,327.705829 L966.989372,327.049851 L966.989372,327.049851 L966.966017,326.02613 L966.966017,326.02613 L966.942043,325.31663 L966.942043,325.31663 L966.912046,324.585103 L966.912046,324.585103 C966.871728,323.675891 967.088507,322.734784 967.334796,321.817585 L967.635233,320.711815 L967.635233,320.711815 L967.753509,320.236148 L967.753509,320.236148 L967.800024,320.028174 L967.800024,320.028174 L967.87819,319.61947 L967.87819,319.61947 L967.921044,319.319959 L967.921044,319.319959 L967.940786,319.123949 L967.940786,319.123949 L967.952646,318.931072 C967.953927,318.899197 967.95485,318.867459 967.955401,318.835862 L967.954121,318.648007 L967.954121,318.648007 L967.943203,318.463715 L967.943203,318.463715 L967.921944,318.283158 C967.9175,318.253386 967.912596,318.223777 967.907217,318.194334 L967.86913,318.019704 C967.861794,317.990941 967.853954,317.962352 967.845594,317.93394 L967.789098,317.765624 L967.789098,317.765624 L967.719451,317.601732 C967.592022,317.332361 967.406871,317.082145 967.149358,316.85467 L966.98605,316.720944 L966.98605,316.720944 L966.804673,316.592848 C966.70935,316.530236 966.606988,316.4698 966.497191,316.411637 L966.267567,316.298371 C966.187643,316.261645 966.104298,316.225958 966.017415,316.191339 L965.746032,316.090712 C965.651955,316.058256 965.554222,316.026897 965.452716,315.996663 L965.136764,315.909364 L965.136764,315.909364 L964.797473,315.828988 L964.797473,315.828988 L964.434141,315.755707 C964.308946,315.732482 964.179626,315.710467 964.046066,315.689693 L963.632544,315.631119 C963.561464,315.621986 963.489295,315.61317 963.416021,315.604675 L962.963012,315.557583 C962.885263,315.550385 962.806381,315.543515 962.726351,315.536977 L962.232274,315.501754 L962.232274,315.501754 L961.709941,315.47466 L961.709941,315.47466 L961.158649,315.455867 L961.158649,315.455867 L960.577695,315.445547 L960.577695,315.445547 L959.966377,315.443872 L959.966377,315.443872 L958.990929,315.457947 L958.990929,315.457947 L958.300625,315.478639 L958.300625,315.478639 L957.577498,315.50858 L957.577498,315.50858 L956.820845,315.547941 L956.820845,315.547941 L956.029964,315.596895 L956.029964,315.596895 C951.694162,315.885706 947.181572,317.49622 943.174752,319.704487 L942.49295,320.088768 L942.49295,320.088768 L941.821822,320.483949 C941.710899,320.550676 941.600452,320.617823 941.490499,320.685374 L940.836813,321.095387 C940.081371,321.579069 939.35162,322.08087 938.653021,322.594998 L938.061978,323.038563 L938.061978,323.038563 L937.486958,323.487355 C937.203581,323.712923 936.926498,323.940147 936.65614,324.168572 L936.124518,324.626886 C935.602117,325.086531 935.107761,325.549762 934.644889,326.012931 L934.192638,326.475945 C931.690799,329.098043 930.236741,331.679134 930.456175,333.555566 L930.431122,333.627717 L930.431122,333.627717 L930.188724,334.251495 L930.188724,334.251495 L929.259704,336.564134 L929.259704,336.564134 L928.411062,338.653384 L928.411062,338.653384 L926.558127,343.182512 L926.558127,343.182512 L924.720021,347.646472 L924.720021,347.646472 L922.603165,352.759766 L922.603165,352.759766 L920.242157,358.432007 L920.242157,358.432007 L917.000261,366.170631 L917.000261,366.170631 L914.926067,371.091789 L914.926067,371.091789 L912.040179,377.89856 L912.040179,377.89856 L909.804461,383.138128 L909.804461,383.138128 L908.288139,386.674031 L908.288139,386.674031 L906.756186,390.231041 L906.756186,390.231041 L904.43841,395.581414 L904.43841,395.581414 L902.886302,399.141759 L902.886302,399.141759 L901.3337,402.683665 C901.075132,403.271819 900.816723,403.858734 900.558564,404.444174 L899.013329,407.937239 L899.013329,407.937239 L897.478412,411.383621 L897.478412,411.383621 L895.958136,414.772022 L895.958136,414.772022 L894.456826,418.091142 C894.208429,418.637928 893.961002,419.181356 893.714635,419.721192 L892.249884,422.915208 C891.766357,423.964254 891.287792,424.997045 890.814911,426.0117 L889.41404,428.999367 C882.732546,443.158568 877.3976,453.1085 875.606539,453.1085 C874.383515,453.1085 873.532238,452.091969 872.958611,450.262579 L872.83567,449.842751 C872.776447,449.626229 872.720565,449.399858 872.667896,449.163918 L872.566803,448.679361 C872.550656,448.596502 872.534855,448.512601 872.519398,448.427668 L872.430725,447.905763 C872.416619,447.816742 872.402846,447.72671 872.389401,447.635676 L872.312632,447.077542 L872.312632,447.077542 L872.243513,446.495875 L872.243513,446.495875 L872.181813,445.891173 L872.181813,445.891173 L872.127303,445.263932 L872.127303,445.263932 L872.079755,444.614649 L872.079755,444.614649 L872.038937,443.94382 L872.038937,443.94382 L872.004621,443.251943 L872.004621,443.251943 L871.976577,442.539514 L871.976577,442.539514 L871.954577,441.807029 L871.954577,441.807029 L871.938389,441.054985 L871.938389,441.054985 L871.927786,440.283879 L871.927786,440.283879 L871.921848,439.092566 L871.921848,439.092566 L871.927183,437.861157 L871.927183,437.861157 L871.93662,437.01877 L871.93662,437.01877 L871.968574,435.284758 L871.968574,435.284758 L872.003082,433.94312 L872.003082,433.94312 C873.734829,387.766979 882.414672,342.104734 897.756147,298.463399 L933.479907,299.42627 L933.479907,299.42627 L943.108365,299.646024 L943.108365,299.646024 L947.874344,299.729088 L947.874344,299.729088 L951.151227,299.766305 L951.151227,299.766305 L952.940453,299.775009 L954.667329,299.770669 C954.783008,299.769805 954.8966,299.768819 955.008088,299.76771 C963.002743,299.689629 972.114993,293.147519 979.815117,285.726178 L980.856143,284.709251 C982.91974,282.666597 984.86975,280.577427 986.654856,278.555032 L987.533429,277.549923 L987.533429,277.549923 L988.383094,276.559091 L988.383094,276.559091 L989.202423,275.585681 C989.336371,275.425073 989.468995,275.265322 989.600266,275.106494 L990.371421,274.165119 L990.371421,274.165119 L991.108676,273.249035 C991.228648,273.098637 991.347148,272.949424 991.464147,272.801461 L992.147882,271.929213 L992.147882,271.929213 L992.794155,271.090123 L992.794155,271.090123 L993.40154,270.287338 L993.40154,270.287338 L993.968612,269.524004 L993.968612,269.524004 L994.493946,268.803269 L994.493946,268.803269 L994.976116,268.12828 L994.976116,268.12828 L995.413696,267.502184 L995.413696,267.502184 L995.805261,266.928127 L995.805261,266.928127 L996.149386,266.409256 C996.202707,266.327551 996.253993,266.248277 996.303212,266.171499 L996.573504,265.741309 L996.573504,265.741309 L996.792791,265.374173 C997.018319,264.983852 997.136804,264.728692 997.138059,264.631179 C997.141873,264.334788 997.019488,263.900222 996.807079,263.411321 L996.66912,263.11213 C996.545634,262.858489 996.40145,262.595455 996.241092,262.333509 L996.041187,262.020366 L996.041187,262.020366 L995.82749,261.712292 C994.874095,260.394097 993.581137,259.332004 992.584437,259.999545 L991.348401,260.828549 L991.348401,260.828549 L990.149611,261.624126 C989.952721,261.753974 989.757236,261.882457 989.563082,262.009589 L988.413555,262.756279 L988.413555,262.756279 L987.292466,263.471213 L987.292466,263.471213 L986.196292,264.155056 C976.251473,270.283163 969.003106,272.576769 952.24146,273.349115 L950.374591,273.427448 C949.73933,273.451621 949.090903,273.473894 948.428722,273.494378 L946.400331,273.550573 L946.400331,273.550573 L944.285895,273.596702 C943.926123,273.603588 943.562619,273.610082 943.195309,273.616199 L940.945201,273.648477 L940.945201,273.648477 L938.600241,273.672357 L938.600241,273.672357 L936.156907,273.688505 L936.156907,273.688505 L933.611677,273.697589 L933.611677,273.697589 L930.961028,273.700276 L930.961028,273.700276 L928.201437,273.697234 L928.201437,273.697234 L923.850079,273.683388 L923.850079,273.683388 L916.003205,273.641118 L916.003205,273.641118 L907.365366,273.583896 L907.365366,273.583896 L912.64609,260.989356 L912.64609,260.989356 L913.466008,258.986189 L913.466008,258.986189 L913.949207,257.777409 L913.949207,257.777409 L914.306466,256.848197 L914.306466,256.848197 L914.434207,256.496281 L914.434207,256.496281 L914.526068,256.223678 L914.526068,256.223678 L914.580587,256.033529 C914.584515,256.017099 914.587725,256.002253 914.590207,255.989012 L914.73841,255.169699 L914.73841,255.169699 L914.772051,254.957001 L914.772051,254.957001 L914.812675,254.652024 L914.812675,254.652024 L914.832194,254.456626 L914.832194,254.456626 L914.848405,254.172901 L914.848405,254.172901 L914.849495,253.988539 L914.849495,253.988539 L914.842007,253.80684 L914.842007,253.80684 L914.825251,253.6268 L914.825251,253.6268 L914.79854,253.447418 C914.7879,253.387622 914.775485,253.32777 914.761182,253.267692 L914.712489,253.086621 L914.712489,253.086621 L914.651772,252.903203 L914.651772,252.903203 L914.578341,252.716435 L914.578341,252.716435 L914.491507,252.525316 L914.491507,252.525316 L914.390581,252.328844 L914.390581,252.328844 L914.274873,252.126018 C914.254318,252.091628 914.233119,252.056932 914.211261,252.021909 L914.072088,251.807672 L914.072088,251.807672 L913.916411,251.584576 L913.916411,251.584576 L913.74354,251.351618 L913.74354,251.351618 L913.552786,251.107798 L913.552786,251.107798 L913.343459,250.852113 L913.343459,250.852113 L912.993137,250.444148 L912.993137,250.444148 L912.59715,250.003851 L912.59715,250.003851 L912.153171,249.527842 L912.153171,249.527842 L911.482525,248.831768 L911.482525,248.831768 L910.51002,247.851732 L910.51002,247.851732 L909.378358,246.734927 L909.378358,246.734927 L906.594477,244.028395 C906.337953,243.780216 906.087842,243.535759 905.843893,243.295022 L905.130274,242.583964 C905.014334,242.467313 904.899871,242.351591 904.786854,242.236797 L904.125851,241.559174 L904.125851,241.559174 L903.196103,240.584479 L903.196103,240.584479 L902.61524,239.962479 L902.61524,239.962479 L901.79862,239.071124 L901.79862,239.071124 L900.803923,237.960278 L900.803923,237.960278 L898.35048,235.158505 L898.35048,235.158505 L898.003096,234.768732 L898.003096,234.768732 L897.669263,234.400959 L897.669263,234.400959 L897.347468,234.055165 L897.347468,234.055165 L897.036202,233.731331 C896.985118,233.679188 896.934409,233.627958 896.884045,233.577642 L896.585739,233.286709 C895.308798,232.073479 894.222028,231.477332 892.772261,231.490592 Z M424.457298,220 C423.974237,220.004924 423.349992,220.645178 422.604864,221.869837 L422.336892,222.326253 C422.154941,222.646596 421.96643,222.998959 421.771624,223.382676 L421.474725,223.981682 C421.424466,224.085408 421.373822,224.191073 421.322797,224.298665 L421.012105,224.967277 C420.959572,225.082541 420.906666,225.199712 420.853391,225.31878 L420.529352,226.05587 L420.529352,226.05587 L420.196662,226.837986 L420.196662,226.837986 L419.85552,227.664627 C419.79797,227.806084 419.740076,227.949374 419.681842,228.094489 L419.328395,228.986979 L419.328395,228.986979 L418.966992,229.922742 L418.966992,229.922742 L418.597831,230.901278 L418.597831,230.901278 L418.029977,232.448184 L418.029977,232.448184 L417.445785,234.088511 L417.445785,234.088511 L416.845923,235.820568 L416.845923,235.820568 L416.437641,237.0254 L416.437641,237.0254 L416.02289,238.269748 L416.02289,238.269748 L415.601869,239.553112 L415.601869,239.553112 L415.174776,240.874992 L415.174776,240.874992 L414.74181,242.234886 L414.74181,242.234886 L414.081783,244.344908 L414.081783,244.344908 L413.409656,246.537646 L413.409656,246.537646 L412.7261,248.811408 L412.7261,248.811408 L412.031783,251.164505 L412.031783,251.164505 L411.327375,253.595246 L411.327375,253.595246 L410.613546,256.101941 L410.613546,256.101941 L409.890965,258.6829 L409.890965,258.6829 L409.404712,260.443962 L409.404712,260.443962 L408.669032,263.144937 L408.669032,263.144937 L408.174666,264.984444 L408.174666,264.984444 L407.427746,267.80074 L407.427746,267.80074 L406.674975,270.683974 L406.674975,270.683974 L405.663336,274.629493 C405.578693,274.963008 405.49397,275.297689 405.409173,275.633527 L399.758718,275.73264 L399.758718,275.73264 L393.948716,275.846266 L393.948716,275.846266 L387.975468,275.975665 L387.975468,275.975665 L383.386178,276.083825 L383.386178,276.083825 L377.118356,276.243865 L377.118356,276.243865 L372.303889,276.376455 L372.303889,276.376455 L367.390318,276.520403 L367.390318,276.520403 L364.058776,276.62294 L364.058776,276.62294 L352.306525,277.004513 L352.306525,277.004513 L350.286587,277.08166 L350.286587,277.08166 L348.992648,277.138028 L348.992648,277.138028 L347.739331,277.199802 L347.739331,277.199802 L346.525329,277.268232 L346.525329,277.268232 L345.349331,277.34457 L345.349331,277.34457 L344.210032,277.430064 C343.836236,277.460227 343.468338,277.492125 343.10612,277.525965 L342.03629,277.633523 C329.046492,279.037093 323.534146,283.385569 314.453255,301.231732 L313.904497,301.364958 L313.904497,301.364958 L313.26283,301.539127 L313.26283,301.539127 L312.7773,301.680978 L312.7773,301.680978 L312.415663,301.791787 L312.415663,301.791787 L312.025868,301.915969 L312.025868,301.915969 L311.609806,302.05385 L311.609806,302.05385 L311.169366,302.205756 L311.169366,302.205756 L310.467128,302.460624 C310.386527,302.490778 310.305107,302.521549 310.222907,302.552946 L309.720666,302.748881 L309.720666,302.748881 L309.201605,302.960144 C309.113798,302.99665 309.025368,303.033808 308.936356,303.071625 L308.395605,303.306492 C308.304419,303.346972 308.212729,303.388125 308.120574,303.429958 L307.562384,303.68916 C307.374672,303.778314 307.185415,303.870241 306.994929,303.964993 L306.4201,304.257784 C306.22747,304.358243 306.033927,304.461583 305.839784,304.567857 L305.255871,304.89554 C300.185168,307.812698 294.922093,312.750481 295,320.663299 C295.163106,335.880256 329.225636,359.411084 355.803373,358.550417 C368.014252,358.146347 387.235915,314.026019 367.379837,324.413264 L366.766129,324.744815 C345.898348,336.350518 318.585577,327.637368 318.540758,323.715563 C318.504903,319.802631 338.960348,304.621165 383.842213,303.157143 L385.282386,303.110782 L385.282386,303.110782 L388.21759,303.026579 L388.21759,303.026579 L391.22056,302.951958 L391.22056,302.951958 L394.284843,302.884791 L394.284843,302.884791 L397.403985,302.822947 C397.928055,302.812965 398.454142,302.803116 398.982111,302.793356 L398.636442,304.354284 L398.636442,304.354284 L397.946213,307.504528 C397.716422,308.560817 397.486945,309.623246 397.257859,310.691617 L396.571857,313.914348 L396.571857,313.914348 L395.888682,317.171518 L395.888682,317.171518 L395.20881,320.461924 L395.20881,320.461924 L394.532717,323.784363 L394.532717,323.784363 L393.860879,327.137632 L393.860879,327.137632 L393.193772,330.520527 L393.193772,330.520527 L392.531871,333.931845 L392.531871,333.931845 L391.875653,337.370384 C391.657914,338.520966 391.441201,339.675885 391.225593,340.834939 L390.582168,344.324309 L390.582168,344.324309 L389.945853,347.837289 C389.840419,348.424686 389.735301,349.013017 389.63051,349.602257 L389.005752,353.148397 L389.005752,353.148397 L388.389294,356.71514 C388.185244,357.907354 387.982656,359.102802 387.781611,360.301282 L387.18318,363.905622 C387.084239,364.507794 386.985703,365.110675 386.887583,365.714239 L386.303921,369.343617 C386.111081,370.556007 385.919981,371.77093 385.730701,372.988183 L385.168398,376.646735 C384.611712,380.311878 384.072115,383.996195 383.551749,387.694271 L383.037873,391.396733 C378.979415,421.04991 376.197414,451.468169 375.788279,479.87943 L375.765808,481.652495 L375.774772,482.326833 L375.743937,485.332878 C375.740919,485.677043 375.738201,486.017827 375.735874,486.355195 L375.72732,488.338134 L375.731188,490.046526 L375.731188,490.046526 L375.743219,491.282886 L375.743219,491.282886 L375.764544,492.480168 L375.764544,492.480168 L375.784576,493.256396 L375.784576,493.256396 L375.809717,494.014879 L375.809717,494.014879 L375.857866,495.119006 L375.857866,495.119006 L375.897494,495.832472 L375.897494,495.832472 L375.943602,496.527667 L375.943602,496.527667 L375.996581,497.204443 L375.996581,497.204443 L376.056823,497.862647 L376.056823,497.862647 L376.124719,498.50213 L376.124719,498.50213 L376.200662,499.122742 C376.214011,499.224596 376.227712,499.325658 376.241772,499.425924 L376.330518,500.017946 L376.330518,500.017946 L376.428288,500.590722 C377.332935,505.564784 379.339684,508.268506 383.662937,508.235588 C386.734391,512.081086 390.188174,514.487939 393.005691,515.871003 L393.510729,516.11128 C393.676587,516.187673 393.839881,516.260399 394.000384,516.329548 L394.473295,516.526362 L394.473295,516.526362 L394.928103,516.702275 C395.00232,516.729883 395.075726,516.756644 395.148293,516.782568 L395.573393,516.928169 L395.573393,516.928169 L395.976989,517.054255 C396.042387,517.073674 396.106833,517.092303 396.170297,517.110154 L396.539084,517.208006 C396.657937,517.237571 396.772639,517.264115 396.882964,517.287729 L397.200577,517.349875 L397.200577,517.349875 L397.490563,517.395001 C397.582469,517.407267 397.669544,517.416789 397.751561,517.423658 L397.98221,517.43721 C398.018047,517.43721 398.052563,517.43721 398.085729,517.43721 C399.010975,517.427691 399.622336,516.191816 400.022534,514.177393 L400.111186,513.69891 L400.111186,513.69891 L400.192622,513.19401 L400.192622,513.19401 L400.267121,512.663916 L400.267121,512.663916 L400.334965,512.109852 L400.334965,512.109852 L400.396435,511.533042 L400.396435,511.533042 L400.45181,510.934709 L400.45181,510.934709 L400.501372,510.316076 L400.501372,510.316076 L400.5454,509.678368 L400.5454,509.678368 L400.584175,509.022808 L400.584175,509.022808 L400.633104,508.008673 L400.633104,508.008673 L400.671792,506.961253 L400.671792,506.961253 L400.701186,505.884678 L400.701186,505.884678 L400.722233,504.783078 L400.722233,504.783078 L400.741335,502.902683 L400.741335,502.902683 L400.744202,502.138556 L400.744264,500.983364 L400.740082,499.821042 L400.740082,499.821042 L400.719138,497.104427 L400.676645,492.633912 C400.674316,492.315491 400.672318,491.999935 400.670752,491.68769 L400.667455,490.761341 L400.669403,489.268888 L400.669403,489.268888 L400.676274,488.386997 L400.676274,488.386997 C401.184522,441.674044 409.47588,392.63507 418.973795,351.072839 L419.790704,347.528902 L419.790704,347.528902 L420.612601,344.022956 L420.612601,344.022956 L421.438568,340.556375 C421.714466,339.407562 421.990889,338.265537 422.267684,337.130531 L423.099027,333.746794 L423.099027,333.746794 L423.931679,330.406537 L423.931679,330.406537 L424.764719,327.111132 L424.764719,327.111132 L425.597225,323.861951 C425.735881,323.324349 425.874476,322.78873 426.012991,322.255122 L426.842974,319.077848 C426.981093,318.552402 427.119095,318.029025 427.25696,317.507745 L428.082346,314.405465 L428.082346,314.405465 L428.903519,311.354896 L428.903519,311.354896 L429.719558,308.357409 L429.719558,308.357409 L430.529542,305.414376 C430.663983,304.928485 430.798134,304.44492 430.931975,303.963709 L431.33255,302.52717 L435.229197,302.524949 L435.229197,302.524949 L441.193005,302.530276 L441.193005,302.530276 L455.037095,302.575941 L455.037095,302.575941 L496.107439,302.830227 L496.107439,302.830227 L501.735635,302.852082 L501.735635,302.852082 L506.211786,302.858159 L506.211786,302.858159 L510.228457,302.84943 L510.228457,302.84943 L513.276043,302.828265 L513.276043,302.828265 L515.092175,302.806308 L515.092175,302.806308 L517.107006,302.769212 L517.107006,302.769212 L518.505735,302.731246 L518.505735,302.731246 C528.046291,302.419808 539.014009,292.149752 547.082708,282.543655 L547.96708,281.479583 L547.96708,281.479583 L548.826273,280.424213 C548.9673,280.249224 549.107223,280.074731 549.246015,279.900804 L550.064967,278.864561 L550.064967,278.864561 L550.855443,277.845115 L550.855443,277.845115 L551.616124,276.845705 L551.616124,276.845705 L552.345692,275.86957 C552.464621,275.709 552.582198,275.549535 552.698397,275.391242 L553.378822,274.45609 C553.489395,274.302755 553.598535,274.150728 553.706213,274.000075 L554.334528,273.11319 C554.436251,272.968305 554.536459,272.82493 554.635122,272.683131 L555.20836,271.851801 L555.20836,271.851801 L555.743232,271.061555 L555.743232,271.061555 L556.238418,270.315631 L556.238418,270.315631 L556.6926,269.617267 L556.6926,269.617267 L557.104459,268.969701 L557.104459,268.969701 L557.472676,268.37617 C557.530336,268.281932 557.586122,268.190079 557.640007,268.100681 L557.94029,267.594277 L557.94029,267.594277 L558.193634,267.150004 C558.231873,267.081316 558.268101,267.015351 558.302291,266.952178 L558.482755,266.607174 C558.638321,266.296743 558.717469,266.091652 558.717469,266.006473 C558.717469,265.674212 558.560556,265.174761 558.302697,264.620845 L558.152125,264.313985 C558.072026,264.158532 557.984934,264.000552 557.891855,263.842332 L557.698012,263.52625 C557.664474,263.473742 557.630345,263.421377 557.595663,263.369239 L557.381228,263.05982 L557.381228,263.05982 L557.155304,262.759923 C556.231015,261.584803 555.073939,260.735804 554.19968,261.383712 C540.746774,271.321317 527.976782,274.037519 500.991892,274.82157 L498.419959,274.889576 L498.419959,274.889576 L495.762007,274.947229 L495.762007,274.947229 L493.01531,274.995497 L493.01531,274.995497 L490.177138,275.03535 L490.177138,275.03535 L487.244764,275.067756 L487.244764,275.067756 L484.215461,275.093683 L484.215461,275.093683 L481.0865,275.1141 L481.0865,275.1141 L474.518693,275.142276 L474.518693,275.142276 L452.139792,275.195283 L452.139792,275.195283 L445.869411,275.218397 L445.869411,275.218397 L439.310353,275.251994 L439.310353,275.251994 L440.283981,272.077799 L440.283981,272.077799 L442.380553,265.333664 L442.380553,265.333664 L446.909335,250.980247 L446.909335,250.980247 L447.417008,249.3032 L447.417008,249.3032 L447.658061,248.459424 L447.658061,248.459424 L447.817509,247.840567 L447.817509,247.840567 L447.865642,247.616959 L447.865642,247.616959 L447.892188,247.451353 L447.892188,247.451353 L447.897696,247.373464 L447.897696,247.373464 L447.897583,247.075281 L447.897583,247.075281 L447.889318,246.781964 L447.889318,246.781964 L447.872221,246.492545 C447.868598,246.444579 447.864578,246.396736 447.860147,246.348994 L447.828524,246.063608 L447.828524,246.063608 L447.786366,245.7797 C447.778423,245.732451 447.770014,245.685224 447.761123,245.637998 L447.701883,245.354494 C447.680135,245.259889 447.656346,245.165128 447.630405,245.070049 L447.546006,244.783697 L447.546006,244.783697 L447.448007,244.49447 L447.448007,244.49447 L447.335724,244.201399 C447.315782,244.15218 447.295217,244.10276 447.274014,244.05312 L447.13903,243.752471 L447.13903,243.752471 L446.988061,243.445559 L446.988061,243.445559 L446.820424,243.131417 C446.791058,243.078404 446.760969,243.02505 446.730143,242.971333 L446.536228,242.644533 C446.502397,242.589289 446.4678,242.533643 446.432424,242.477575 L446.210699,242.135939 L446.210699,242.135939 L445.969581,241.783202 L445.969581,241.783202 L445.708389,241.418398 L445.708389,241.418398 L445.426443,241.040558 L445.426443,241.040558 L445.123061,240.648715 L445.123061,240.648715 L444.797561,240.241901 L444.797561,240.241901 L444.449263,239.81915 L444.449263,239.81915 L444.077485,239.379492 L444.077485,239.379492 L443.681546,238.921961 L443.681546,238.921961 L443.260764,238.445588 L443.260764,238.445588 L442.581522,237.693586 L442.581522,237.693586 L441.842552,236.893748 L441.842552,236.893748 L441.041555,236.042809 L441.041555,236.042809 L440.176231,235.137503 L440.176231,235.137503 L439.244282,234.174565 L439.244282,234.174565 L437.524612,232.418104 L437.524612,232.418104 L436.813052,231.680694 L436.813052,231.680694 L436.136735,230.966052 L436.136735,230.966052 L435.494191,230.274159 L435.494191,230.274159 L434.883945,229.604996 L434.883945,229.604996 L434.304527,228.958543 L434.304527,228.958543 L433.489979,228.031404 L433.489979,228.031404 L432.736509,227.155257 L432.736509,227.155257 L431.60296,225.808154 L431.60296,225.808154 L430.056044,223.946296 L430.056044,223.946296 L429.380678,223.150509 L429.380678,223.150509 L429.062364,222.786334 L429.062364,222.786334 L428.755,222.444614 L428.755,222.444614 L428.457113,222.125328 L428.457113,222.125328 L428.167232,221.828458 L428.167232,221.828458 L427.883883,221.553985 C426.76159,220.50086 425.760743,219.984805 424.457298,220 Z M494.494769,340.955646 L494.778129,340.980136 L494.778129,340.980136 L495.110498,341.02754 L495.110498,341.02754 L495.360951,341.073621 L495.360951,341.073621 L495.645328,341.135867 L495.645328,341.135867 L495.960069,341.216679 L495.960069,341.216679 L496.301617,341.31846 L496.301617,341.31846 L496.542451,341.399149 L496.542451,341.399149 L496.792562,341.490938 L496.792562,341.490938 L497.050896,341.594537 C497.094578,341.612827 497.138559,341.631639 497.182817,341.650988 L497.451509,341.773637 L497.451509,341.773637 L497.725788,341.909876 L497.725788,341.909876 L498.004599,342.060417 L498.004599,342.060417 L498.286888,342.225972 C498.334168,342.254855 498.381548,342.284393 498.429008,342.314601 L498.714537,342.50401 C498.762225,342.536958 498.809947,342.570606 498.857683,342.604968 L499.14408,342.819833 C501.338298,344.534686 503.467282,347.824224 503.392728,354.131732 C503.325279,359.842073 501.498169,364.643268 499.476127,368.731522 L499.024212,369.628367 C498.94857,369.775911 498.872819,369.922498 498.79704,370.068137 L498.342653,370.930672 L498.342653,370.930672 L497.447061,372.589395 L497.447061,372.589395 L496.801926,373.777267 L496.801926,373.777267 L496.391637,374.543332 C496.324841,374.669319 496.25889,374.794468 496.193865,374.918788 L495.815447,375.654849 C494.77832,377.71264 494.054481,379.53677 494.034496,381.176213 C493.640088,416.08205 469.96663,460.357628 456.843592,460.490855 C455.812326,460.500903 454.943668,459.359849 454.26785,457.562089 L454.10293,457.099254 C454.076119,457.01993 454.049647,456.939537 454.023516,456.858112 L453.870845,456.357451 C453.747063,455.930383 453.631923,455.479283 453.5257,455.008623 L453.402529,454.434727 C453.38272,454.337608 453.363272,454.239778 453.344187,454.141274 L453.234053,453.542429 L453.234053,453.542429 L453.132741,452.929099 L453.132741,452.929099 L453.040356,452.302999 C453.025709,452.19768 453.011437,452.091901 452.997544,451.985697 L452.918747,451.343663 C452.906377,451.235903 452.89439,451.12779 452.882788,451.01936 L452.817815,450.365253 C452.807762,450.255696 452.798099,450.145893 452.788827,450.03588 L452.737913,449.373565 L452.737913,449.373565 L452.696504,448.707923 L452.696504,448.707923 L452.664704,448.040673 L452.664704,448.040673 L452.642619,447.373529 L452.642619,447.373529 L452.630353,446.70821 C452.629133,446.597571 452.627935,446.487079 452.627935,446.376771 L452.630595,445.717407 L452.630595,445.717407 C453.365629,381.593238 479.566885,341.106371 494.494769,340.955646 Z M929.156421,375.719403 C929.806775,380.159232 930.607375,384.57476 931.469508,388.92572 L931.945331,391.292325 C932.025474,391.685611 932.105993,392.078304 932.186819,392.470371 L932.674951,394.815043 L932.674951,394.815043 L933.660634,399.453624 L933.660634,399.453624 L934.877406,405.141691 L934.877406,405.141691 L935.349081,407.377987 L935.349081,407.377987 L935.807366,409.589859 L935.807366,409.589859 L936.249061,411.775855 C937.401954,417.569385 938.343768,423.07141 938.801495,428.158014 C940.208815,443.854106 933.611441,459.905112 920.05814,459.905112 C906.65328,459.905112 904.957853,448.266706 905.298661,440.585358 L905.334367,439.908469 C905.341139,439.797555 905.348301,439.687627 905.35582,439.578735 L905.404961,438.938247 L905.404961,438.938247 L905.461129,438.325137 L905.461129,438.325137 L905.522781,437.741895 L905.522781,437.741895 L905.588372,437.191008 L905.588372,437.191008 L905.690768,436.430792 L905.690768,436.430792 L905.826676,435.553646 L905.826676,435.553646 L905.950554,434.850727 L905.950554,434.850727 L906.086797,434.166578 L906.086797,434.166578 L906.128358,433.978611 L906.128358,433.978611 L906.585714,434.063112 L906.585714,434.063112 L907.055539,434.14028 L907.055539,434.14028 L907.667625,434.230048 L907.667625,434.230048 L908.406604,434.3241 L908.406604,434.3241 L909.034865,434.392451 L909.034865,434.392451 L909.485355,434.435027 L909.485355,434.435027 L910.203761,434.491807 L910.203761,434.491807 L910.708344,434.523422 L910.708344,434.523422 L911.231202,434.548834 L911.231202,434.548834 L911.770413,434.567003 C911.861538,434.56937 911.953264,434.571392 912.045552,434.573047 L912.605692,434.578405 C912.700065,434.578507 912.794919,434.578198 912.890215,434.577459 L913.466962,434.567666 C913.660762,434.56256 913.856008,434.555554 914.052378,434.546474 C919.681659,434.280289 927.049922,430.110044 927.049922,420.465243 C927.049922,412.648253 922.541119,407.564103 916.329189,405.762912 L917.588482,402.939483 L917.588482,402.939483 L918.819389,400.152224 L918.819389,400.152224 L920.020044,397.407727 L920.020044,397.407727 L921.570628,393.826312 L921.570628,393.826312 L922.69343,391.207233 L922.69343,391.207233 L924.133433,387.816972 L924.133433,387.816972 L925.504161,384.557431 L925.504161,384.557431 L926.801185,381.444237 L926.801185,381.444237 L928.312078,377.782354 L928.312078,377.782354 L929.156421,375.719403 L929.156421,375.719403 Z M646.16851,401.122406 C650.085701,360.245133 669.653728,332.890102 682.561634,334.842131 C692.53837,338.080726 676.331777,395.390537 646.16851,401.122406 Z M623.983047,266.663064 C626.752868,266.663064 628.196044,271.055131 627.443083,276.795872 L627.407802,277.048603 L627.407802,277.048603 L627.323701,277.576698 L627.323701,277.576698 L627.221814,278.134448 C627.203368,278.229842 627.184195,278.326446 627.164301,278.424245 L627.036335,279.025292 L627.036335,279.025292 L626.891384,279.654416 L626.891384,279.654416 L626.729767,280.310985 L626.729767,280.310985 L626.551804,280.994369 L626.551804,280.994369 L626.357814,281.703937 L626.357814,281.703937 L626.148119,282.439059 L626.148119,282.439059 L625.923038,283.199102 L625.923038,283.199102 L625.557268,284.384517 L625.557268,284.384517 L625.295122,285.204107 L625.295122,285.204107 L624.875253,286.475884 L624.875253,286.475884 L624.578042,287.351077 L624.578042,287.351077 L624.107075,288.703301 L624.107075,288.703301 L623.606889,290.100956 L623.606889,290.100956 L623.078564,291.541911 L623.078564,291.541911 L622.52318,293.024038 L622.52318,293.024038 L621.742442,295.060572 L621.742442,295.060572 L621.128119,296.630486 L621.128119,296.630486 L620.490337,298.234476 L620.490337,298.234476 L619.830174,299.870411 L619.830174,299.870411 L618.917011,302.09767 L618.917011,302.09767 L618.44703,303.229601 L618.44703,303.229601 L617.726207,304.948598 L617.726207,304.948598 L616.737203,307.276672 L616.737203,307.276672 L615.718652,309.641352 L615.718652,309.641352 L614.673114,312.03759 L614.673114,312.03759 L613.603147,314.46034 L613.603147,314.46034 L612.235237,317.518372 L612.235237,317.518372 L611.119666,319.982322 L611.119666,319.982322 L609.975044,322.484535 L609.107358,324.364841 L608.281013,326.142904 L607.637102,327.520137 L607.637102,327.520137 L606.342012,330.268876 L606.342012,330.268876 L605.040158,333.00421 L605.040158,333.00421 L603.735055,335.719211 L603.735055,335.719211 L602.430216,338.406951 L602.430216,338.406951 L601.129154,341.060501 C600.912821,341.499526 600.696791,341.936837 600.481138,342.372291 L599.192332,344.96157 L599.192332,344.96157 L597.916088,347.499342 L597.916088,347.499342 L596.65592,349.978678 C596.238933,350.794614 595.825212,351.599657 595.415341,352.392651 C599.791121,330.620779 604.21337,313.4141 608.263452,300.30731 L608.934948,298.160727 C609.714173,295.700483 610.478446,293.394273 611.224692,291.238677 L611.859845,289.427827 C613.751626,284.105455 615.518387,279.77251 617.107798,276.370831 L617.630961,275.271349 C620.471443,269.413025 622.69629,266.663064 623.983047,266.663064 Z" id="Shape" fill="#000000"></path> </g> </svg> 