<svg xmlns="http://www.w3.org/2000/svg" width="2001" height="2001" fill="none"><path fill="#000" fill-rule="evenodd" d="M1700.71 591.673v816.997H300.715V591.673H1700.71Zm-507.22 231.491c-.59.005-1.35.578-2.26 1.682l-.3.366c-.14.192-.3.397-.45.615l-.32.453-.33.488c-.05.084-.11.169-.16.256l-.34.539-.35.573-.36.606-.18.316-.37.656-.37.689c-.07.117-.13.236-.19.356l-.39.738-.4.77-.4.802-.41.834-.41.865-.43.897-.42.927-.66 1.449-.44 1.004-.68 1.562-.45 1.078-.7 1.673-.47 1.151-.71 1.782-.72 1.845-.49 1.265-.48 1.293-.5 1.321-.74 2.032-.5 1.388-.5 1.415-.76 2.172-.51 1.481-.51 1.506-.77 2.307c-.09.259-.17.52-.26.781-17.96-.032-35.92.045-53.88.231-24.52.248-36.89 17.409-39.1 27.506-.03 3.265 3.86 3.233 5.15 2.39l.08-.057c3.14-2.351 8.24-3.919 14.21-4.891l1.1-.17c.92-.137 1.86-.26 2.81-.37l1.15-.126 1.17-.115c.97-.09 1.96-.168 2.96-.234l1.19-.075 1.21-.063 1.21-.053c.4-.016.8-.03 1.21-.042l1.21-.033c.41-.009.81-.016 1.22-.022l1.93-.02 2.7-.018 2.76-.011 2.81-.004 2.86.002 2.9.009 2.95.016 2.98.021 3.02.027 4.59.05 4.64.062 6.27.098 6.31.114 3.18.063a542.656 542.656 0 0 0-3.45 13.443l-1.28 3.841-1.17 3.473-1.92 5.662-1.37 4.022-1 2.916-1.62 4.69-1.15 3.318-1.2 3.457-1.26 3.583-1.3 3.694-1.34 3.793-1.38 3.879-1.42 3.952-1.45 4.01-1.47 4.057-.75 2.042-1.51 4.102c-.25.685-.5 1.371-.76 2.056l-1.53 4.117c-1.03 2.744-2.06 5.483-3.1 8.201l-1.56 4.058c-11.16 28.932-22.37 54.322-27.31 54.372-5.29.06-1.94-21.58 3.24-45.538l.69-3.137c.11-.524.23-1.05.35-1.575l.71-3.159.72-3.161.73-3.154.73-3.137.74-3.112.74-3.075 1.1-4.526 1.42-5.821 3.77-15.268.52-2.125.71-2.911.41-1.743.37-1.574c.62-2.725.98-4.547.99-5.203v-.409l-.02-.432c0-.073-.01-.148-.01-.223l-.04-.463c-.01-.157-.03-.318-.05-.481l-.06-.498c-.03-.169-.05-.341-.08-.515l-.09-.528-.06-.27-.11-.547-.06-.278-.14-.563-.15-.571c-.02-.096-.05-.192-.08-.289l-.17-.581-.09-.293-.19-.588c-.03-.099-.07-.197-.1-.295l-.22-.592a3.42 3.42 0 0 0-.11-.296l-.23-.593c-2.24-5.421-6.34-10.63-12.53-10.57-26.58.27-53.27 52.578-64.55 77.671l-.86 1.923-.79 1.801-.72 1.671-.66 1.532-.58 1.384-.75 1.78-.85 2.102-.37.94 4.83-23.007 2.53-12.233 3.09-15.194 1.31-6.576 1.11-5.701.59-3.17.41-2.338.18-1.064.11-.722.07-.461.06-.504.03-.293.01-.153v-.063c.03-2.43-1.24-4.538-2.84-6.603l-.42-.538-.43-.537-.48-.581c-.72-.872-1.45-1.75-2.11-2.655-.33-.438-.62-.91-.89-1.401l-.21-.371-.91-1.715-.29-.507-.2-.337-.2-.333-.22-.33-.22-.326-.24-.32-.25-.313c-1.67-2.016-4.25-3.569-9.37-3.514-.59.005-1.27.796-2.04 2.255l-.23.457c-.12.239-.24.492-.36.76l-.24.555-.25.592c-.04.102-.08.205-.13.31l-.25.647-.26.683-.26.719-.27.752-.4 1.192-.28.836-.28.868-.28.899-.29.929-.43 1.45-.44 1.515-.44 1.577-.45 1.637-.46 1.695-.61 2.345-.78 3.061-.63 2.545-.32 1.303-.48 1.991-.79 3.407-.65 2.801-.8 3.584-.48 2.192c-.06.245-.11.49-.16.736-10.85 30.204-40.314 91.597-58.744 91.787h-.084l-.183-.01h-.1l-.213-.03-.233-.04c-.04-.01-.081-.01-.123-.02l-.259-.06c-.089-.03-.18-.05-.275-.08l-.291-.09c-.099-.03-.201-.07-.305-.11l-.32-.12-.332-.15-.343-.16-.176-.09-.36-.2c-4.499-2.55-11.168-10.17-12.143-30.94-.163-3.47-.211-6.95-.144-10.43 26.56-1.99 60.918-33.365 60.918-64.048 0-13.817-4.91-19.403-9.637-21.437l-.372-.153-.371-.139-.369-.126-.184-.057-.365-.106a12.845 12.845 0 0 0-.362-.093l-.358-.081-.354-.07-.348-.059-.344-.048-.337-.039-.33-.029-.163-.011c-3.065-2.68-7.475-4.667-13.822-4.596-21.513.213-50.592 24.773-59.287 67.247l-1.426 3.705-1.852 4.766-1.643 4.181-1.368 3.45-1.053 2.632-1.433 3.551-1.092 2.68-1.104 2.68-1.112 2.68-1.117 2.66-.746 1.76-1.118 2.61-1.114 2.56-.739 1.68-1.101 2.47-.727 1.61c-.121.27-.241.53-.361.79l-.717 1.56-.709 1.51-.7 1.48c-.232.48-.462.96-.69 1.43l-.68 1.38c-.112.22-.224.45-.335.67l-.661 1.3-.326.63-.641 1.22c-3.063 5.74-5.61 9.38-7.149 9.38-2.255 0-3.343-6.24-3.638-15.17l-.042-1.52c-.052-2.3-.056-4.76-.017-7.32l.032-1.72.02-.87.051-1.76.061-1.77.036-.9.078-1.8.043-.91.095-1.81.05-.92.11-1.82.118-1.83.128-1.82.068-.9.14-1.81.074-.9.153-1.79.16-1.774.168-1.75.174-1.723.09-.852.184-1.678.094-.827.192-1.626.098-.798.201-1.564.204-1.518.21-1.47c.105-.721.212-1.423.321-2.103l.218-1.331.221-1.268c.037-.206.074-.409.112-.61l2.843-5.286 8.446-15.628 4.257-7.897 3.646-6.798 2.211-4.146 2.218-4.178 1.478-2.797 2.209-4.202 1.463-2.8 2.175-4.188 1.432-2.777 1.414-2.762 1.395-2.741 1.372-2.717.676-1.349 1.332-2.673 1.303-2.638 1.271-2.6c8.357-17.195 14.38-31.543 14.452-37.587.242-21.738-28.774-36.166-34.726-36.103a7.567 7.567 0 0 0-6.49 3.46c-7.52 5.244-35.227 80.858-41.905 144.228l-4.992 11.493-1.593 3.649-2.173 4.948-1.66 3.747-1.117 2.504-1.501 3.34-1.242 2.74-.933 2.04-1.555 3.36-.932 1.99-1.546 3.27-1.229 2.55-.611 1.25-.911 1.85-.904 1.81-.598 1.18-.594 1.17-.883 1.7-.582 1.11-.578 1.08-.572 1.06c-.095.17-.19.34-.284.52l-.564 1.01-.557.99-.551.97-.544.93-.538.9-.529.87-.523.84-.514.81-.506.77c-.084.12-.167.25-.25.37l-.493.72c-2.524 3.61-4.687 5.73-6.3 5.75-1.672.02-2.595-1.21-3.087-3.66l-.088-.48c-.041-.24-.078-.5-.113-.76l-.064-.55-.055-.57-.025-.3-.044-.62-.019-.32-.033-.66-.027-.69-.02-.72-.015-.75-.009-.77-.005-1.64.006-1.3.013-1.37c.402-35.547 7.389-62.933 13.477-81.518l.648-1.958.64-1.89.628-1.822.616-1.755.6-1.686.583-1.619.839-2.299 1.749-4.763.438-1.206.406-1.136.19-.542.356-1.031c.786-2.326 1.274-4.081 1.347-5.256l.009-.243-.007-.112c-.479-3.62-26.103-5.673-30.978 11.252l-.141.519-.13.535.053-.442.03-.331.037-.565.02-.508.007-.375-.002-.614-.011-.441-.021-.463-.015-.239-.038-.494-.051-.512-.065-.528-.081-.543c-.964-5.951-4.894-14.12-19.226-13.973-23.557.239-69.227 41.746-69.227 114.278 0 15.53 2.854 23.07 6.411 27.66l.341.42.344.42.349.39.351.38.353.37.356.35c.06.06.119.12.179.17l.358.34.36.33.18.15.36.32.361.3.72.58 1.07.85.876.68.396.31c.722.58 1.418 1.16 2.07 1.79l1.174 1.13.816.77.771.7.493.44.48.4.468.38c2.785 2.21 5.115 3.05 9.497 3.21l.75.02h1.624c9.968-.1 19.969-11.81 26.952-22.32l.749-1.15c.246-.38.488-.75.725-1.13l.699-1.11c.115-.18.228-.36.34-.55l.659-1.08c.107-.17.214-.35.319-.53l.616-1.04.588-1 .557-.98.526-.93.73-1.32.654-1.21.394-.74.68-1.31.739-1.46.43-.88.24 1.71.183 1.21.23 1.46.336 2.02.193 1.09.28 1.53.306 1.58.247 1.21.26 1.22.181.81.187.81.193.81.199.79.203.79.21.77.214.75c.037.13.073.25.11.37l.222.73.227.69c.996 2.98 2.128 5.19 3.353 5.6.669.23 1.262.63 1.84 1.15l.247.22.246.25.37.38.375.41 1.182 1.32.426.47.296.32.465.47.324.32.338.32.353.31c.06.05.121.11.182.16l.376.31c2.692 2.16 6.636 3.99 13.454 3.92 8.318-.08 16.787-12.2 24.786-27.81l.826-1.63.822-1.65c.137-.27.274-.55.41-.83l.817-1.68.813-1.7.809-1.71.804-1.73.8-1.74.796-1.74 1.185-2.64 1.174-2.64 1.547-3.52 2.28-5.26 3.319-7.7c-.356 4.64-.505 10.29-.472 16.04l.008.95.027 2.12.037 1.81.048 1.8.06 1.78.091 2.19.085 1.71.121 2.09.109 1.61.088 1.18.063.76.167 1.85.107 1.05.114 1.02.118.97.083.62.127.88.088.56.091.54.093.52.095.48.097.47.099.43.102.41c.017.06.034.12.052.19l.105.36.107.33.109.3c.239.62.493 1.01.761 1.15l.062.02c.77.26 1.491.96 2.238 1.93l.264.35.268.37.408.6.418.63 1.343 2.08.484.74.335.49.346.5.358.51.369.5c.314.42.641.84.983 1.25l.418.49c3.05 3.52 7.288 6.54 13.909 6.47 6.023-.06 12.831-8.15 19.531-19.83l.717-1.26c.478-.85.955-1.72 1.432-2.61l.713-1.34c.119-.22.237-.45.356-.68l.711-1.37.354-.69.707-1.41.705-1.42.702-1.44c.117-.24.234-.48.35-.73l.697-1.46.694-1.48c.116-.25.231-.49.346-.74l.688-1.5.685-1.51c.113-.25.227-.51.34-.76l.678-1.53.674-1.53.668-1.54.663-1.55.658-1.55.653-1.56.968-2.33c.064.75.134 1.49.21 2.23l.158 1.45.172 1.43.186 1.41c2.92 21.15 10.481 33.77 18.026 33.7 1.121-.02 2.231.91 3.466 2.19l.417.44 1.549 1.69c.078.09.156.17.235.25l.48.51c.082.08.164.17.247.25l.505.5c2.228 2.16 4.958 4.09 8.608 4.05 17.966-.18 34.516-19.21 48.109-41.68l1.03-1.71c1.02-1.72 2.03-3.46 3.01-5.2l.98-1.75.97-1.76c.16-.29.32-.58.48-.88l.95-1.76.94-1.76.92-1.77.91-1.76-.52 3.14-.48 3-.46 2.87-.51 3.42-.38 2.59-.27 1.86-.24 1.8-.23 1.74-.14 1.12-.14 1.09-.19 1.59-.17 1.53-.15 1.47-.19 1.88-.08.9-.1 1.3-.09 1.26-.08 1.2-.04.77-.05 1.12-.03 1.08-.02 1.02c-.09 7.66 1.88 15.09 6.44 16.98l5.03 2.08 1.91.78 1.8.71 1.03.4.99.37.64.23.62.21.6.21.59.19.57.17.54.16.54.15.51.13c.09.02.17.04.25.06l.49.1c.08.02.16.04.24.05l.46.08.44.07c3.41.42 5.18-.79 5.29-4.58l.01-.24c.56-48.98 58.88-135.287 63.59-135.34 1.03-.01.44 2.653-1.12 7.346l-.45 1.329-.49 1.428-.54 1.522-.57 1.614-3 8.322-1.11 3.128-.76 2.176-.39 1.114-.79 2.278c-.4 1.155-.8 2.334-1.2 3.536l-.81 2.433c-6.48 19.696-13.29 44.864-13.57 68.824v1.89c.01.31.01.63.02.94l.03.93c.01.16.01.31.02.47l.04.92c.05.76.1 1.52.17 2.27l.09.89c.03.29.06.59.1.88l.11.86c1.04 7.61 3.56 13.72 8.04 15.77 1 .45 1.96.93 2.9 1.43l.94.49.91.51 1.35.76 1.77.99.87.49.87.46c3.45 1.85 6.81 3.26 10.59 3.21 6.02-.05 14.98-12.99 24.07-30.75l1.03-2.03c1.72-3.42 3.44-6.99 5.14-10.68l1.01-2.22c.17-.37.34-.75.51-1.12l1.01-2.26 1-2.27c.17-.38.34-.76.5-1.14l.99-2.3.98-2.32c.17-.38.33-.77.49-1.15l.97-2.33.96-2.33c.15-.39.31-.78.47-1.17l.94-2.33c.15-.39.31-.78.46-1.17l.92-2.337.45-1.165.9-2.327c.15-.387.29-.774.44-1.16l.87-2.313.85-2.301.84-2.286c.27-.76.55-1.516.81-2.269a545.26 545.26 0 0 0-2.48 45.538l-.05 4.1v.86l-.01.86v1.46l.02 1.4.02 1.04.03 1.02.03.67.05.98.04.64.05.62c.01.1.02.2.02.3l.06.59.07.58.03.28.08.54c.34 2.2.9 3.78 1.81 4.19l.11.04c.69.24 1.33.82 2 1.62l.26.34.27.36.27.38c.04.06.09.13.14.19l.27.41.28.43 1.51 2.33.49.74.52.76.36.5c.06.09.12.17.18.26l.38.51c3.13 4.15 7.59 8.17 15.21 8.09 2.25 0 4.79-1.4 7.52-3.89l.51-.48c.18-.16.35-.33.52-.5l.53-.53c.08-.09.17-.18.26-.27l.53-.57.53-.59.27-.3.54-.62c.09-.11.18-.21.27-.32l.54-.66.55-.68.55-.69c.1-.12.19-.24.28-.36l.56-.73.56-.75.56-.77.56-.79.57-.81c.1-.13.19-.27.29-.41l.57-.83.57-.86.58-.87.86-1.33.87-1.37.59-.94c7.43 15.27 25.6 22.69 44.74 20.19 13.58-1.77 31.84-13.19 36.03-31.02l.18-.8.85-3.52.66-2.74.83-3.37.98-3.91.83-3.25.89-3.49.97-3.7.67-2.57.71-2.63.72-2.7.75-2.75.77-2.79.79-2.826c.27-.946.54-1.897.81-2.85l.82-2.866c7.2-24.884 16.06-50.542 21.98-50.601 4.6-.046 3.87 9.916 1.31 24.821l-.4 2.272-.42 2.342-.45 2.409-.46 2.472-1.23 6.429-1.3 6.737-.53 2.769-.53 2.804-.52 2.837-.53 2.865-.51 2.886-.51 2.92c-2.52 14.6-4.59 29.84-4.74 43.59-.02 1.25.5 2.86 1.41 4.61l.27.5c.33.6.7 1.2 1.11 1.82l.37.52c.12.18.25.36.37.53l.4.54.42.53c.91 1.15 1.94 2.29 3.05 3.38l.52.49c.09.09.18.17.27.25l.53.48c3.97 3.52 8.77 6.19 13.24 6.14 28.18-.28 46.53-49.56 53.61-72.764l.52-1.732.48-1.622.44-1.504c.06-.24.13-.475.2-.705l.36-1.312.47-1.71.25-.955.37-1.436.21-.851-.21 7.837-.21 7.633-.21 7.471-.21 7.3-.22 7.15c-.04 1.17-.08 2.35-.11 3.51l-.23 6.9c-3.4 100.01-9.13 147.77-31.59 148.01-8.2.07-13.79-6.26-17.1-13.31l-.33-.72c-.11-.24-.21-.48-.31-.72l-.3-.73c-.14-.36-.28-.73-.42-1.09l-.26-.72c-.12-.37-.24-.73-.35-1.09l-.23-.71-.2-.72c-.07-.23-.13-.47-.19-.7l-.18-.7a4.18 4.18 0 0 0-.08-.34l-.15-.68c-.05-.23-.09-.45-.14-.67l-.12-.66-.11-.64-.09-.63c-.03-.21-.06-.41-.08-.61l-.07-.59-.03-.29-.04-.56c0-.09-.01-.19-.01-.28-1.34-24.38 10.92-33.04 17.76-35.97l.54-.22c.09-.04.18-.07.26-.11l.5-.19.48-.16.44-.15.21-.06.57-.17.48-.13.27-.07.41-.08.24-.05.22-.11c1.57-.89 2.98-2.73 4.21-4.97l.33-.62c.38-.74.74-1.51 1.09-2.3l.29-.68.28-.69.27-.69.26-.69.25-.69.24-.69.23-.68.33-1.01.2-.65.38-1.26.34-1.18.29-1.08.24-.96.29-1.17.26-1.13c.04-3.26-3.86-3.23-5.15-2.39l-.08.06c-2.95 2.21-7.63 3.73-13.14 4.71l-1.07.18-1.1.17c-1.1.17-2.23.31-3.38.44l-1.16.12-1.17.11-2.37.18-1.2.07c-.4.02-.8.05-1.2.06l-1.21.06-1.21.04-1.22.03c-.2 0-.4.01-.6.01l-1.22.02c-3.69.04-9.57-.03-17.32-.17l-6.17-.13c-1.08-.02-2.2-.04-3.34-.07l-7.17-.16-7.8-.18-53-1.31-11.24-.27-11.66-.28-12.05-.28c-2.04-.04-4.09-.09-6.16-.14l-12.59-.27-12.91-.27-13.2-.27c-135.64-2.64-312.427-3.83-396.185 8.19-9.193 1.32-19.972 11.85-28.329 22.03l-.972 1.2c-.64.8-1.264 1.59-1.871 2.37l-.896 1.17c-.147.19-.293.38-.437.57l-.854 1.14-.822 1.12-.792 1.09-.758 1.06-.723 1.03-.687 1-.65.95-.61.91-.57.87-.529.81-.484.76-.44.71-.573.94-.322.55-.271.48c-.042.07-.08.14-.117.21l-.194.37c-.168.33-.256.55-.256.63 0 .42.219 1.08.591 1.76l.183.32c.897 1.49 2.426 2.99 3.78 2.56 74.898-23.78 263.662-26.99 422.498-27.24l13.17-.01 13-.01c2.16 0 4.3 0 6.44.01l19.03.01 53.97.09 11.24.01 10.93.01 10.59-.01c8.69-.01 17-.03 24.91-.07-4.12 6.74-6.37 14.49-5.94 22.21 1.15 21.22 20.38 48.12 54.2 47.78 49.17-.5 57.77-111.19 62.28-228.077l.29-7.548c.05-1.259.09-2.519.14-3.779l.27-7.562.28-7.855.01-.586.01-.888v-.896l-.01-.6-.02-.6-.02-.601-.04-.599c0-.1-.01-.199-.02-.299l-.05-.594-.05-.591a2.963 2.963 0 0 0-.04-.294l-.07-.582a2.827 2.827 0 0 0-.04-.289l-.08-.572c-.04-.189-.07-.377-.1-.563l-.11-.554-.06-.273-.13-.537c-.97-3.807-2.9-6.663-6.49-6.754l-.26-.002h-.48c-4.17-.03-7.92-.994-11.19-2.261l-.75-.297-.73-.306-.71-.314c-.12-.053-.23-.106-.35-.159l-.68-.321c-.11-.054-.23-.108-.34-.162l-.65-.325-.64-.325-.62-.324-.6-.321-1.15-.626-2.29-1.266-.67-.358-.42-.215-.4-.195-.38-.173c-2.03-.888-3.08-.696-3 1.87l.01.239c2.66 48.943-34.61 136.554-46.04 136.674-1.17.01-.74-3.43.53-9.37l.32-1.47.34-1.57.58-2.51 1.77-7.64.73-3.18.76-3.33.51-2.31.52-2.37.52-2.43.52-2.49c.08-.42.17-.84.26-1.26l.51-2.57c3.68-18.577 6.9-40.989 5.73-62.435l-.03-.488-.06-.973-.08-.968a7.826 7.826 0 0 0-.04-.482l-.09-.958a58.95 58.95 0 0 0-.29-2.36l-.13-.928a62.7 62.7 0 0 0-.66-3.597l-.2-.866c-1.61-6.868-4.44-12.283-8.74-14.174a62.962 62.962 0 0 1-3.48-1.679l-.96-.502-1.41-.758-2.3-1.248-.9-.484-.45-.236-.89-.461c-3.42-1.73-6.75-3.026-10.37-2.99-7.33.078-16.47 19.27-24.97 42.989l-.87 2.427c-.71 2.035-1.42 4.099-2.13 6.183l-.84 2.509-.84 2.526-.82 2.538-.82 2.547-.82 2.553-.8 2.555-.79 2.554-.78 2.549-.77 2.541-.76 2.53-.75 2.515-.74 2.497-.72 2.475-1.05 3.666-.69 2.403-.67 2.38-.33 1.17-.47-1.18-.49-1.19-.74-1.785-.76-1.799-3.42-7.956-.8-1.881-.8-1.899-.53-1.278-.52-1.287c-.09-.216-.18-.431-.26-.648l-.52-1.301-.51-1.313-.51-1.323c-.5-1.328-.99-2.673-1.46-4.036l-.47-1.369c-.15-.458-.31-.919-.46-1.382l-.44-1.394c-3.5-11.207-5.71-23.677-4.47-38.23l.97-.067.94-.073.9-.079.87-.084.84-.09c.41-.047.8-.096 1.19-.148l.75-.107.73-.114c.47-.079.93-.163 1.36-.253l.64-.138.6-.148.58-.156c4.43-1.263 6.34-3.399 7.04-7.171l.08-.491c.03-.249.07-.506.1-.769l.05-.537.04-.556.03-.574.02-.595.01-.615v-.635l-.01-.656-.02-1.024-.02-.709-.03-.732c-.04-.909.17-1.85.42-2.767l.3-1.106.12-.476.04-.208.08-.408.05-.3.02-.196.01-.193V910.321l-.01-.184-.02-.181c-.01-.03-.01-.059-.02-.089l-.04-.174a.263.263 0 0 0-.02-.086l-.06-.168-.07-.164c-.12-.27-.31-.52-.57-.747l-.16-.134-.18-.128a4.59 4.59 0 0 0-.31-.181l-.23-.114a5.076 5.076 0 0 0-.25-.107l-.27-.1a5.216 5.216 0 0 0-.29-.094l-.32-.088-.34-.08-.36-.073-.39-.066-.41-.059-.22-.026-.45-.047-.24-.021-.49-.035-.53-.027-.55-.019-.58-.01-.61-.002-.97.014-.69.021-.73.03-.75.039-.8.049c-4.33.289-8.84 1.899-12.85 4.108l-.68.384-.67.395-.33.201-.66.41a44 44 0 0 0-2.18 1.5l-.59.444-.58.448c-.28.226-.56.453-.83.682l-.53.458c-.52.46-1.02.923-1.48 1.386l-.45.463c-2.5 2.622-3.96 5.203-3.74 7.08l-.02.072-.25.624-.93 2.312-.84 2.089-1.86 4.53-1.84 4.464-2.11 5.113-2.36 5.672-3.24 7.739-2.08 4.921-2.88 6.807-2.24 5.239-1.52 3.536-1.53 3.557-2.32 5.351-1.55 3.56-1.55 3.542-.78 1.76-1.54 3.493-1.54 3.45-1.52 3.39-1.5 3.31c-.25.55-.49 1.09-.74 1.63l-1.47 3.2c-.48 1.05-.96 2.08-1.43 3.09l-1.4 2.99c-6.68 14.16-12.02 24.11-13.81 24.11-1.22 0-2.07-1.01-2.65-2.84l-.12-.42c-.06-.22-.11-.45-.17-.68l-.1-.49c-.01-.08-.03-.16-.05-.25l-.08-.52c-.02-.09-.03-.18-.05-.27l-.07-.56-.07-.58-.06-.61-.06-.62-.05-.65-.04-.67-.03-.69-.03-.72-.02-.73-.02-.75-.01-.77V1029.53l.01-.84.03-1.73.04-1.34a460.5 460.5 0 0 1 25.75-135.483l35.72.962 9.63.22 4.77.083 3.28.037 1.79.009 1.72-.004.34-.003c8-.078 17.11-6.62 24.81-14.042l1.04-1.017c2.06-2.042 4.01-4.131 5.8-6.154l.88-1.005.85-.991.82-.973c.13-.161.26-.321.4-.479l.77-.942.73-.916.36-.447.68-.873.65-.839.61-.803.56-.763.53-.721.48-.675.44-.626.39-.574.34-.519c.06-.081.11-.161.16-.237l.27-.431.22-.367c.22-.39.34-.645.34-.743.01-.296-.12-.731-.33-1.22l-.14-.299a8.428 8.428 0 0 0-.42-.778l-.2-.314-.22-.308c-.95-1.318-2.24-2.38-3.24-1.712l-1.24.829-1.2.795c-.19.13-.39.259-.58.386l-1.15.746-1.12.715-1.1.684c-9.94 6.128-17.19 8.422-33.95 9.194l-1.87.079c-.64.024-1.28.046-1.95.066l-2.02.057-2.12.046-1.09.019-2.25.033-2.34.023-2.45.017-2.54.009-2.65.002-2.76-.003-4.36-.014-7.84-.042-8.64-.057 5.28-12.595.82-2.003.48-1.208.36-.93.13-.352.09-.272.06-.19c0-.017 0-.032.01-.045l.14-.819.04-.213.04-.305.02-.195.01-.284v-.366l-.02-.18-.03-.179-.03-.18-.05-.181-.06-.184-.08-.186-.08-.192-.1-.196-.12-.203-.06-.104-.14-.214-.16-.223-.17-.233-.19-.244-.21-.256-.35-.408-.4-.44-.44-.476-.67-.696-.98-.98-1.13-1.117-2.78-2.707a40.85 40.85 0 0 1-.75-.733l-.71-.711c-.12-.117-.24-.232-.35-.347l-.66-.678-.93-.974-.58-.622-.82-.892-.99-1.111-2.45-2.801-.35-.39-.34-.368-.32-.346-.31-.324-.15-.153-.3-.291c-1.28-1.213-2.36-1.81-3.81-1.796Zm-468.318-11.491c-.483.005-1.107.645-1.852 1.87l-.268.456a26.18 26.18 0 0 0-.566 1.057l-.296.599a23.82 23.82 0 0 0-.152.317l-.311.668-.159.352-.324.737-.333.782-.341.827-.173.43-.354.892-.361.936-.369.978-.568 1.547-.584 1.641-.6 1.732-.409 1.205-.414 1.244-.421 1.283-.427 1.322-.433 1.36-.66 2.11-.672 2.193-.684 2.273-.694 2.354-.705 2.43-.714 2.507-.722 2.581-.486 1.761-.736 2.701-.495 1.84-.746 2.816-.753 2.883-1.012 3.946-.254 1.004-5.65.099-5.81.113-5.974.13-4.589.108-6.268.16-4.814.133-4.914.144-3.331.102-11.753.382-2.02.077-1.294.056-1.253.062-1.214.068-1.176.077-1.139.085c-.374.03-.742.062-1.104.096l-1.07.108c-12.99 1.403-18.502 5.752-27.583 23.598l-.549.133-.641.174-.486.142-.362.111-.389.124-.416.138-.441.152-.702.255-.244.092-.502.196-.52.211-.265.112-.541.235-.275.123-.558.259c-.187.089-.377.181-.567.276l-.575.293c-.193.1-.386.204-.58.31l-.584.328c-5.071 2.917-10.334 7.855-10.256 15.767.163 15.217 34.225 38.748 60.803 37.888 12.211-.405 31.433-44.525 11.577-34.138l-.614.332c-20.868 11.606-48.181 2.892-48.225-1.029-.036-3.913 20.419-19.095 65.301-20.559l1.44-.046 2.935-.084 3.003-.075 3.065-.067 3.119-.062 1.578-.03-.346 1.561-.69 3.151c-.23 1.056-.459 2.118-.688 3.187l-.686 3.222-.683 3.258-.68 3.29-.676 3.322-.672 3.354-.667 3.383-.662 3.411-.657 3.438c-.217 1.151-.434 2.306-.65 3.465l-.643 3.489-.636 3.513a923.41 923.41 0 0 0-.316 1.765l-.624 3.547-.617 3.566c-.204 1.192-.406 2.388-.608 3.586l-.598 3.605-.296 1.808-.583 3.63a959.3 959.3 0 0 0-.573 3.644l-.563 3.659c-.556 3.665-1.096 7.349-1.616 11.047l-.514 3.703c-4.059 29.65-6.841 60.07-7.25 88.48l-.022 1.78.009.67-.031 3.01-.008 1.02-.009 1.98.004 1.71.012 1.24.021 1.19.02.78.026.76.048 1.1.039.72.046.69.053.68.061.66.068.64.075.62.042.3.088.59.098.57c.905 4.98 2.912 7.68 7.235 7.65 3.071 3.84 6.525 6.25 9.343 7.63l.505.24c.165.08.329.15.489.22l.473.2.455.18c.074.02.148.05.22.08l.425.14.404.13c.065.02.13.04.193.05l.369.1c.119.03.233.06.344.08l.317.06.29.05.261.03.231.01h.104c.925-.01 1.536-1.25 1.936-3.26l.089-.48.081-.5.075-.53.068-.56.061-.57.056-.6.049-.62.044-.64.039-.65.049-1.02.039-1.05.029-1.07.021-1.1.019-1.88.003-.77v-1.15l-.004-1.17-.021-2.71-.043-4.47-.005-.95-.004-.93.002-1.49.007-.88c.508-46.71 8.8-95.752 18.298-137.314l.817-3.544.821-3.506.826-3.467c.276-1.148.553-2.29.83-3.425l.831-3.384.833-3.34.833-3.296.832-3.249.416-1.607.83-3.177.414-1.57.825-3.102.821-3.051.816-2.997.81-2.944.403-1.45.4-1.437 3.897-.002 5.964.005 13.844.046 41.07.254 5.628.022 4.477.006 4.016-.008 3.048-.022 1.816-.022 2.015-.037 1.399-.038c9.54-.311 20.508-10.581 28.577-20.187l.884-1.064.859-1.056.42-.523.819-1.036.79-1.02.761-.999.73-.976.352-.479.681-.935.327-.456.628-.887.301-.43.573-.831.535-.79.495-.746.454-.699.412-.647.369-.594.167-.275.3-.507.253-.444.109-.198.181-.345c.155-.31.234-.515.234-.6 0-.333-.157-.832-.414-1.386l-.151-.307c-.08-.155-.167-.313-.26-.472l-.194-.316-.103-.157-.214-.309-.226-.3c-.924-1.175-2.081-2.024-2.955-1.376-13.453 9.937-26.223 12.654-53.208 13.438l-2.572.068-2.658.057-2.747.049-2.838.039-2.932.033-3.03.026-3.129.02-6.567.028-22.379.053-6.271.023-6.559.034.974-3.174 2.096-6.744 4.529-14.354.508-1.677.241-.843.159-.619.048-.224.027-.166.006-.077-.001-.299-.008-.293-.017-.289-.012-.144-.032-.285-.042-.284-.025-.142-.059-.283a7.428 7.428 0 0 0-.072-.285l-.084-.286-.098-.289-.112-.294-.062-.148-.135-.3-.151-.307-.168-.314a9.016 9.016 0 0 0-.09-.161l-.194-.326a7.6 7.6 0 0 0-.104-.167l-.221-.342-.242-.353-.261-.365-.282-.377-.303-.392-.326-.407-.348-.423-.372-.439-.396-.458-.42-.476-.68-.752-.739-.8-.801-.851-.865-.905-.932-.963-1.72-1.757-.711-.737-.676-.715-.643-.692-.61-.669-.58-.646-.814-.928-.754-.876-1.133-1.347-1.547-1.862-.675-.795-.319-.365-.307-.341-.298-.32-.29-.296-.283-.275c-1.123-1.053-2.123-1.569-3.427-1.554Zm70.038 120.956.283.024.332.048.251.046.284.062.315.081.341.102.241.08.25.092.259.104.132.056.268.123.275.136.278.151.283.165.142.089.285.189.144.101.286.215c2.194 1.715 4.323 5.004 4.249 11.312-.068 5.71-1.895 10.511-3.917 14.6l-.452.896c-.076.148-.151.295-.227.44l-.455.863-.895 1.658-.645 1.188-.411.766-.197.376-.379.736c-1.037 2.058-1.761 3.882-1.781 5.521-.394 34.911-24.068 79.181-37.191 79.311-1.031.01-1.899-1.13-2.575-2.92l-.165-.47-.08-.24-.152-.5c-.124-.43-.239-.88-.345-1.35l-.124-.57-.058-.3-.11-.59-.101-.62-.093-.62a26.08 26.08 0 0 0-.043-.32l-.078-.64-.036-.33-.065-.65-.029-.33-.051-.66-.042-.67-.031-.67-.023-.66-.012-.67-.002-.33.002-.66c.735-64.124 26.937-104.611 41.865-104.761Zm434.66 34.763c.65 4.44 1.45 8.856 2.31 13.207l.48 2.366.24 1.178.49 2.345.99 4.639 1.21 5.688.47 2.236.46 2.209.44 2.19c1.16 5.79 2.1 11.29 2.56 16.38 1.4 15.7-5.19 31.75-18.75 31.75-13.4 0-15.1-11.64-14.76-19.32l.04-.68c.01-.11.01-.22.02-.33l.05-.64.06-.61.06-.59.06-.55.11-.76.13-.87.13-.71.13-.68.04-.19.46.09.47.07.61.09.74.1.63.07.45.04.72.05.5.04.53.02.54.02c.09 0 .18 0 .27.01H1213.61l.57-.01c.2 0 .39-.01.59-.02 5.63-.27 12.99-4.44 12.99-14.08 0-7.82-4.5-12.903-10.72-14.704l1.26-2.823 1.23-2.788 1.2-2.744 1.56-3.582 1.12-2.619 1.44-3.39 1.37-3.259 1.3-3.114 1.51-3.662.84-2.063Zm-282.987 25.404c3.918-40.878 23.486-68.233 36.393-66.281 9.977 3.239-6.229 60.549-36.393 66.281Zm-22.185-134.46c2.77 0 4.213 4.392 3.46 10.133l-.035.253-.084.528-.102.558-.058.289-.128.601-.145.63-.161.656-.178.683-.194.71-.21.735-.225.76-.366 1.186-.262.819-.42 1.272-.297.875-.471 1.352-.5 1.398-.529 1.441-.555 1.482-.781 2.037-.614 1.57-.638 1.604-.66 1.636-.913 2.227-.47 1.132-.721 1.719-.989 2.328-1.019 2.364-1.045 2.397-1.07 2.422-1.368 3.058-1.115 2.464-1.145 2.503-.868 1.88-.826 1.778-.644 1.377-1.295 2.749-1.302 2.735-1.305 2.715-1.305 2.688-1.301 2.654-.648 1.311-1.289 2.59-1.276 2.537-1.26 2.48a572.4 572.4 0 0 1-1.241 2.414c4.376-21.772 8.798-38.979 12.848-52.086l.672-2.146c.779-2.46 1.543-4.767 2.29-6.922l.635-1.811c1.891-5.322 3.658-9.655 5.248-13.057l.523-1.1c2.84-5.858 5.065-8.608 6.352-8.608Z" clip-rule="evenodd"/><path fill="#000" fill-rule="evenodd" d="M2000.71.173H.715V2000.17H2000.71V.173Zm-428.52 646.228H429.238v707.549H1572.19V646.401Z" clip-rule="evenodd"/></svg>