<?xml version="1.0" encoding="UTF-8"?> <svg xmlns="http://www.w3.org/2000/svg" xmlns:xlink="http://www.w3.org/1999/xlink" width="1269px" height="36px" viewBox="0 0 1269 36"> <title>Path 15 Copy</title> <g id="About-Us" stroke="none" stroke-width="1" fill="none" fill-rule="evenodd"> <path d="M124,0.5 L1269,0.5 L1269,1.5 L124,1.5 C109.309536,1.5 97.5469266,4.55844101 81.6517374,11.6170579 L79.9629912,12.3748853 C79.3947846,12.6324463 78.8211852,12.8949729 78.2418881,13.1625056 L75.2078552,14.5815573 L66.2931797,18.8296083 L63.9743936,19.9211623 L61.7541137,20.9514668 L60.32373,21.6060204 L58.9297425,22.2359192 L57.5691976,22.84219 L56.2391415,23.4258597 L54.9366206,23.9879551 C54.7216643,24.0798969 54.5077322,24.1709825 54.2947628,24.2612334 L53.0280065,24.7928928 L51.781401,25.3055452 C51.5751486,25.3894604 51.3696127,25.4726264 51.1647319,25.5550646 L49.9428146,26.0411317 L48.733664,26.5107589 L47.5343263,26.964973 C47.3350903,27.0394479 47.1361402,27.1133235 46.9374143,27.186621 L45.7472578,27.6196409 C45.5491828,27.6907118 45.3512091,27.7612475 45.1532749,27.8312694 L43.9656539,28.2454055 C43.5696107,28.3815095 43.1732338,28.5157293 42.776031,28.6482359 L41.5814525,29.0407876 L40.3789647,29.4240874 L39.1656139,29.7991622 L37.9384465,30.1670388 C26.3971727,33.5743035 14.4756591,35.3943136 1.17700951,35.4955328 L0,35.5 L0,34.5 C13.6768282,34.5 25.8652583,32.6886691 37.6553035,29.2079612 L38.2667367,29.026065 L39.4786732,28.6571239 L40.6784879,28.280464 L41.8691233,27.8950607 L43.0535215,27.4998894 C43.2505648,27.4331566 43.4474709,27.3659741 43.6443011,27.2983205 L44.8248602,26.8865761 C45.0216315,26.8169531 45.2184494,26.7468163 45.4153752,26.6761444 L46.5987153,26.2455216 C46.7963179,26.1726241 46.9941509,26.0991488 47.1922758,26.0250743 L48.3850168,25.5732678 L49.587703,25.1060581 L50.8032765,24.6224205 L52.0346795,24.1213306 L53.2848544,23.6017638 L54.5567433,23.0626954 L55.8532885,22.5031009 L57.1774323,21.9219556 L58.5321167,21.3182351 L60.6278435,20.3680844 L62.0717521,19.7034432 L64.3151068,18.6571086 L74.9873874,13.5797963 L76.9463614,12.661094 L77.8254557,12.2533341 L79.558278,11.460401 C96.1498594,3.94036016 108.215297,0.613473743 123.221173,0.502858242 L124,0.5 Z" id="Path-15-Copy" fill="#000000" fill-rule="nonzero"></path> </g> </svg> 