<?xml version="1.0" encoding="UTF-8"?> <svg xmlns="http://www.w3.org/2000/svg" xmlns:xlink="http://www.w3.org/1999/xlink" width="283px" height="252px" viewBox="0 0 283 252"> <title>illustration 2</title> <g id="About-Us" stroke="none" stroke-width="1" fill="none" fill-rule="evenodd"> <g id="About_Us-1200-(4)" transform="translate(-207.000000, -935.000000)"> <g id="illustration-2" transform="translate(208.000000, 935.000000)"> <g id="Group" transform="translate(79.680000, 89.800000)"> <g fill-rule="nonzero" id="Path"> <path d="M188.8608,120.6144 L28.5408,120.6144 C23.8464,120.6144 19.368,116.808 18.5376,112.1136 L0.336,8.8656 C-0.4944,4.1712 2.64,0.3648 7.3392,0.3648 L167.6592,0.3648 C172.3584,0.3648 176.8368,4.1712 177.6624,8.8656 L195.8688,112.1136 C196.6944,116.808 193.5552,120.6144 188.8608,120.6144 Z" fill="#7835FF"></path> <g transform="translate(74.880000, 76.320000)"> <path d="M36.144,69.6 L49.0704,0.1248 L17.1264,0.1248 L4.3536,69.36 C3.70912631,72.8484241 4.64887404,76.4428097 6.91825809,79.1694093 C9.18764215,81.8960088 12.5517433,83.4720002 16.0992,83.4720002 L61.296,83.4720002 L61.296,79.7616 L44.6112,79.7616 C42.0565769,79.7606271 39.6342551,78.6254411 37.9989163,76.6628491 C36.3635775,74.7002572 35.6840537,72.1128767 36.144,69.6 L36.144,69.6 Z" fill="#7835FF"></path> <g fill="#FFFFFF"> <path d="M12.2448,82.9920001 C8.83896592,82.9920001 5.60897743,81.4797049 3.42898041,78.8629666 C1.24898338,76.2462284 0.344384756,72.7961349 0.96,69.4464 L13.6656,0.5808 L17.1456,0.5808 L4.32,69.4896 C3.82643209,72.1459194 4.53991761,74.8841483 6.26700238,76.9618443 C7.99408714,79.0395402 10.555815,80.2414177 13.2576,80.2416 L29.4672,80.2416 L29.4672,82.9920001 L12.2448,82.9920001 Z"></path> <path d="M17.712,0.12 L13.2528,0.12 L0.48,69.36 C-0.162834339,72.8489783 0.778180847,76.4431907 3.04827107,79.1695245 C5.31836128,81.8958583 8.68269571,83.472 12.2304,83.472 L60.94,83.38 L60.94,79.6696 L13.2672,79.7616 C10.7119863,79.7623365 8.2885605,78.6276218 6.65284368,76.6645762 C5.01712686,74.7015305 4.33826577,72.1131493 4.8,69.6 L17.7264,0.1248 L17.712,0.12 Z" stroke="#000000" stroke-width="1.3"></path> </g> </g> <path d="M194.0832,120.6144 L33.7632,120.6144 C29.0688,120.6144 24.5904,116.808 23.7648,112.1136 L5.568,8.8656 C4.7376,4.1712 7.872,0.3648 12.5712,0.3648 L172.8912,0.3648 C177.5856,0.3648 182.064,4.1712 182.8896,8.8656 L201.096,112.1136 C201.9168,116.808 198.7776,120.6144 194.0832,120.6144 Z" stroke="#000000" stroke-width="1.3" fill="#FFFFFF" stroke-linecap="round" stroke-linejoin="round"></path> </g> <g transform="translate(20.160000, 15.840000)" fill-rule="nonzero" id="Path"> <path d="M90.072,57.3072 L13.6944,57.3072 C11.3602203,57.223272 9.38953138,55.5465972 8.9328,53.256 L0.2592,4.0656 C0.0272602348,3.06380746 0.274497706,2.01112547 0.928157397,1.21732866 C1.58181709,0.423531858 2.56751942,-0.0210540634 3.5952,0.0144 L79.968,0.0144 C82.3033267,0.0978852682 84.275643,1.7742548 84.7344,4.0656 L93.408,53.28 C93.6312578,54.2783071 93.3799702,55.3237395 92.7273945,56.1115252 C92.0748189,56.8993108 91.0944159,57.340768 90.072,57.3072 L90.072,57.3072 Z" fill="#7835FF"></path> <path d="M40.2864,36.1152 L37.2864,21.288 C37.0656,20.208 38.2704,19.488 39.4704,19.9872 L56.3424,27.0048 C57.5712,27.5136 57.8544,28.9248 56.8464,29.4768 L42.9696,37.2912 C42.4626654,37.5390504 41.8723673,37.5513531 41.3555462,37.3248394 C40.8387251,37.0983257 40.4477128,36.6559316 40.2864,36.1152 L40.2864,36.1152 Z" fill="#FFFFFF"></path> </g> <g transform="translate(31.200000, 80.160000)"> <g fill-rule="nonzero"> <ellipse id="Oval" stroke="#000000" stroke-width="1.3" fill="#FFFFFF" stroke-linecap="round" stroke-linejoin="round" transform="translate(11.676258, 11.911422) rotate(-47.520000) translate(-11.676258, -11.911422) " cx="11.6762582" cy="11.911422" rx="7.4256" ry="8.856"></ellipse> <ellipse id="Oval" fill="#000000" transform="translate(11.491504, 10.886643) rotate(-47.520000) translate(-11.491504, -10.886643) " cx="11.491504" cy="10.8866425" rx="3" ry="3.576"></ellipse> <path d="M13.104,20.0256 C15.2175774,20.0811129 17.2340386,19.1386752 18.5472,17.4816 C16.9975411,15.4583497 14.6194104,14.2401968 12.072,14.1648 C9.79175027,14.0849237 7.69128936,15.397237 6.7632,17.4816 C8.49670639,19.0731021 10.7512096,19.9776341 13.104,20.0256 Z" id="Path" fill="#000000"></path> </g> <g transform="translate(25.440000, 8.160000)" id="Path" stroke="#000000" stroke-linecap="round" stroke-linejoin="round" stroke-width="1.3"> <line x1="0.3696" y1="0.48" x2="57.6912" y2="0.48"></line> <line x1="1.5264" y1="7.032" x2="33.8256" y2="7.032"></line> </g> </g> </g> <g id="Group" transform="translate(194.400000, 105.640000)"> <g fill-rule="nonzero" id="Path"> <path d="M27.432,17.4096 L4.2432,17.4096 C3.53649857,17.3830424 2.94058297,16.8745277 2.8032,16.1808 L0.168,1.2432 C0.0976289947,0.939177817 0.172743377,0.619721574 0.371221204,0.378914352 C0.569699032,0.13810713 0.868934593,0.00337576469 1.1808,0.0144 L24.3696,0.0144 C25.0749572,0.0443904491 25.6690384,0.551339712 25.8096,1.2432 L28.44,16.1808 C28.5101234,16.4839772 28.4355854,16.802531 28.2382269,17.0431205 C28.0408683,17.2837099 27.7430363,17.4190928 27.432,17.4096 L27.432,17.4096 Z" fill="#000000"></path> <path d="M12.3168,10.9776 L11.4048,6.4752 C11.3376,6.144 11.7072,5.928 12.0672,6.0768 L17.1936,8.208 C17.568,8.3664 17.6496,8.7888 17.3424,8.9616 L13.1328,11.3328 C12.9788849,11.4076344 12.7999356,11.4113924 12.6430145,11.3430856 C12.4860934,11.2747788 12.3669068,11.141244 12.3168,10.9776 L12.3168,10.9776 Z" fill="#FFFFFF"></path> </g> <line x1="31.2192" y1="6.0288" x2="56.5872" y2="6.0288" id="Path" stroke="#000000" stroke-width="1.3" stroke-linecap="round" stroke-linejoin="round"></line> <line x1="32.1696" y1="11.3952" x2="42.9264" y2="11.3952" id="Path" stroke="#000000" stroke-width="1.3" stroke-linecap="round" stroke-linejoin="round"></line> </g> <g id="Group" transform="translate(198.720000, 129.640000)"> <g fill-rule="nonzero" id="Path"> <path d="M27.3072,17.4 L4.1136,17.4 C3.40757281,17.3717174 2.81258041,16.8639905 2.6736,16.1712 L0.0384,1.2336 C-0.0319710053,0.929577817 0.0431433769,0.610121574 0.241621204,0.369314352 C0.440099032,0.12850713 0.739334593,-0.00622423531 1.0512,0.0048 L24.24,0.0048 C24.9467014,0.031357647 25.542617,0.53987229 25.68,1.2336 L28.32,16.1712 C28.390371,16.4752222 28.3152566,16.7946784 28.1167788,17.0354856 C27.918301,17.2762929 27.6190654,17.4110242 27.3072,17.4 Z" fill="#000000"></path> <path d="M12.1872,10.968 L11.2752,6.4608 C11.2128,6.1344 11.5776,5.9184 11.9424,6.0672 L17.064,8.1984 C17.4384,8.352 17.544,8.7792 17.2176,8.952 L13.0032,11.3232 C12.8492849,11.3980344 12.6703356,11.4017924 12.5134145,11.3334856 C12.3564934,11.2651788 12.2373068,11.131644 12.1872,10.968 L12.1872,10.968 Z" fill="#FFFFFF"></path> </g> <line x1="31.0944" y1="6.0192" x2="56.4624" y2="6.0192" id="Path" stroke="#000000" stroke-width="1.3" stroke-linecap="round" stroke-linejoin="round"></line> <line x1="32.04" y1="11.3856" x2="42.7968" y2="11.3856" id="Path" stroke="#000000" stroke-width="1.3" stroke-linecap="round" stroke-linejoin="round"></line> </g> <g id="Group" transform="translate(202.560000, 153.160000)"> <g fill-rule="nonzero" id="Path"> <path d="M27.6576,17.8704 L4.4688,17.8704 C3.76130968,17.8416129 3.16583432,17.331489 3.0288,16.6368 L0.3936,1.704 C0.323533314,1.39953242 0.398607864,1.07978475 0.596856691,0.838315804 C0.795105517,0.596846855 1.09411707,0.460954091 1.4064,0.4704 L24.6,0.4704 C25.3074903,0.49918708 25.9029657,1.00931098 26.04,1.704 L28.6752,16.6368 C28.7455128,16.9421126 28.6698613,17.2627615 28.4704937,17.5044477 C28.2711261,17.7461339 27.9707121,17.8813757 27.6576,17.8704 Z" fill="#000000"></path> <path d="M12.5424,11.4336 L11.6304,6.9312 C11.5632,6.6048 11.928,6.384 12.2928,6.5376 L17.4144,8.6688 C17.7888,8.8224 17.8944,9.2448 17.568,9.4176 L13.3536,11.8176 C13.1964381,11.8917554 13.0143285,11.8916414 12.8572595,11.8172892 C12.7001906,11.7429371 12.5846672,11.6021597 12.5424,11.4336 Z" fill="#FFFFFF"></path> </g> <line x1="31.4448" y1="6.4896" x2="56.8128" y2="6.4896" id="Path" stroke="#000000" stroke-width="1.3" stroke-linecap="round" stroke-linejoin="round"></line> <line x1="32.3952" y1="11.8512" x2="43.152" y2="11.8512" id="Path" stroke="#000000" stroke-width="1.3" stroke-linecap="round" stroke-linejoin="round"></line> </g> <g id="Group" transform="translate(206.880000, 177.160000)"> <g fill-rule="nonzero" id="Path"> <path d="M27.528,17.856 L4.32,17.856 C3.61329857,17.8294424 3.01738297,17.3209277 2.88,16.6272 L0.2496,1.6896 C0.179228995,1.38557782 0.254343377,1.06612157 0.452821204,0.825314352 C0.651299032,0.58450713 0.950534593,0.449775765 1.2624,0.4608 L24.48,0.4608 C25.1853572,0.490790449 25.7794384,0.997739712 25.92,1.6896 L28.5504,16.6272 C28.6234078,16.9331798 28.5479414,17.2556734 28.3467449,17.497487 C28.1455485,17.7393006 27.8421543,17.8721512 27.528,17.856 Z" fill="#000000"></path> <path d="M12.4128,11.424 L11.5008,6.9216 C11.4336,6.5952 11.7984,6.3744 12.1632,6.528 L17.28,8.64 C17.6496,8.7936 17.76,9.216 17.4288,9.3888 L13.2192,11.76 C13.0687892,11.8321188 12.8947611,11.8366711 12.7407856,11.7725147 C12.58681,11.7083582 12.4675019,11.5815824 12.4128,11.424 Z" fill="#FFFFFF"></path> </g> <line x1="31.3152" y1="6.4752" x2="56.6832" y2="6.4752" id="Path" stroke="#000000" stroke-width="1.3" stroke-linecap="round" stroke-linejoin="round"></line> <line x1="32.2656" y1="11.8416" x2="43.0224" y2="11.8416" id="Path" stroke="#000000" stroke-width="1.3" stroke-linecap="round" stroke-linejoin="round"></line> </g> <g id="Group" transform="translate(61.000000, 0.000000)"> <path d="M195.8928,37.92 L11.3808,37.92 C8.41966283,37.8151258 5.9185545,35.6894817 5.3376,32.784 L0.48,5.1936 C1.11022302e-16,2.3568 1.872,0.0576 4.7088,0.0576 L189.2208,0.0576 C192.181937,0.162474229 194.683045,2.28811832 195.264,5.1936 L200.1264,32.7744 C200.64,35.6112 198.72,37.92 195.8928,37.92 Z" id="Path" fill="#7835FF" fill-rule="nonzero"></path> <path d="M40.5024,30.24 L17.1264,30.24 C15.6254986,30.1886939 14.3572401,29.1112705 14.064,27.6384 L11.016,10.3584 C10.8661812,9.71522044 11.0244112,9.03895442 11.4440331,8.52901026 C11.863655,8.01906611 12.4968094,7.73360503 13.1568,7.7568 L36.5376,7.7568 C38.0360074,7.81202147 39.300775,8.88816601 39.5952,10.3584 L42.648,27.6384 C42.7980739,28.2824269 42.6392692,28.9596013 42.2185251,29.4697652 C41.7977811,29.9799291 41.1632184,30.2647349 40.5024,30.24 L40.5024,30.24 Z" id="Path" stroke="#000000" stroke-width="1.3" fill="#FFFFFF" fill-rule="nonzero"></path> <g transform="translate(18.720000, 13.440000)" fill="#000000" fill-rule="nonzero"> <path d="M7.8048,6.456 C8.0544,7.88 7.952,8.9696 7.4976,9.7248 C7.0432,10.48 6.2432,10.856 5.0976,10.8528 C4.05992937,10.8869687 3.05540953,10.4848125 2.328,9.744 C1.53107696,8.85401307 1.01943023,7.74544515 0.8592,6.5616 L0.5232,4.6704 C0.2672,3.2304 0.3728,2.1392 0.84,1.3968 C1.3072,0.6544 2.1072,0.2816 3.24,0.2784 C4.27622962,0.24440052 5.27920313,0.646634688 6.0048,1.3872 C6.80235192,2.27544283 7.31560272,3.3821921 7.4784,4.5648 L7.8048,6.456 Z M5.4048,4.3728 C5.32356865,3.70791076 5.09034466,3.07065086 4.7232,2.5104 C4.44432083,2.13175012 3.99812033,1.9131298 3.528,1.9248 C3.12227034,1.88789545 2.73743499,2.11109996 2.568,2.4816 C2.39371447,3.0452199 2.37382314,3.64527527 2.5104,4.2192 L2.952,6.7248 C3.03629458,7.39046131 3.26569375,8.02950186 3.624,8.5968 C3.90049744,8.98878703 4.35403284,9.21735447 4.8336,9.2064 C5.24864367,9.24825968 5.64088729,9.00899108 5.7936,8.6208 C5.95419084,8.03291256 5.96573882,7.41427119 5.8272,6.8208 L5.4048,4.3728 Z" id="Shape"></path> <polygon id="Path" points="14.88 10.7136 12.8352 10.7136 11.448 2.8368 9.144 3.5952 8.8512 1.9344 12.8448 0.408 13.0608 0.408"></polygon> </g> <line x1="52.2816" y1="13.6848" x2="165.0096" y2="13.6848" id="Path" stroke="#000000" stroke-width="1.3" stroke-linecap="round" stroke-linejoin="round"></line> <line x1="54.1296" y1="24.1536" x2="107.088" y2="24.1536" id="Path" stroke="#000000" stroke-width="1.3" stroke-linecap="round" stroke-linejoin="round"></line> </g> <g id="Group" transform="translate(0.000000, 44.680000)"> <path d="M195.84,37.968 L11.3136,37.968 C8.3559874,37.8548151 5.86135942,35.7293207 5.28,32.8272 L0.4176,5.2512 C-0.0624,2.4144 1.8144,0.1152 4.6512,0.1152 L189.1632,0.1152 C192.124337,0.220074229 194.625445,2.34571832 195.2064,5.2512 L200.0688,32.8272 C200.5584,35.664 198.6672,37.968 195.84,37.968 Z" id="Path" stroke="#000000" stroke-width="1.3" fill="#FFFFFF" fill-rule="nonzero" stroke-linecap="round" stroke-linejoin="round"></path> <path d="M40.44,30.2928 L17.0592,30.2928 C15.5601189,30.2393123 14.2944215,29.1623766 14.0016,27.6912 L10.9488,10.3872 C10.798666,9.74446391 10.9569327,9.06848119 11.3767874,8.55919552 C11.7966421,8.04990986 12.4300277,7.76561488 13.0896,7.7904 L36.48,7.7904 C37.978766,7.84294319 39.2456052,8.91717515 39.5424,10.3872 L42.5904,27.6912 C42.7407332,28.336076 42.5813546,29.0141622 42.1594867,29.524547 C41.7376189,30.0349317 41.1016453,30.3190797 40.44,30.2928 Z" id="Path" fill="#7B4CFF" fill-rule="nonzero"></path> <g transform="translate(18.720000, 13.440000)" fill="#FFFFFF" fill-rule="nonzero"> <path d="M7.7376,6.5136 C7.9872,7.9344 7.8848,9.0224 7.4304,9.7776 C6.976,10.5328 6.176,10.9104 5.0304,10.9104 C3.99272937,10.9445687 2.98820953,10.5424125 2.2608,9.8016 C1.46411575,8.91090659 0.951065308,7.80291817 0.7872,6.6192 L0.4512,4.6992 C0.2016,3.2656 0.3072,2.176 0.768,1.4304 C1.248,0.6816 2.0256,0.312 3.168,0.312 C4.20464203,0.278345726 5.20837199,0.678446059 5.9376,1.416 C6.73365817,2.304676 7.2452476,3.41144791 7.4064,4.5936 L7.7376,6.5136 Z M5.3376,4.4304 C5.25934953,3.76554589 5.02765485,3.12797469 4.6608,2.568 C4.38192083,2.18935012 3.93572033,1.9707298 3.4656,1.9824 C3.05987034,1.94549545 2.67503499,2.16869996 2.5056,2.5392 C2.33108062,3.10278057 2.31118719,3.70289902 2.448,4.2768 L2.8896,6.7776 C2.97389458,7.44326131 3.20329375,8.08230186 3.5616,8.6496 C3.83702101,9.04340611 4.29073913,9.2738661 4.7712,9.264 C5.18520406,9.2955079 5.57254473,9.05729339 5.7312,8.6736 C5.88742344,8.08655389 5.89731219,7.47015524 5.76,6.8784 L5.3376,4.4304 Z" id="Shape"></path> <path d="M16.92,10.7664 L9.864,10.7664 L9.6192,9.3696 L12.3216,5.8224 C12.6354617,5.41865387 12.8997503,4.97871011 13.1088,4.512 C13.2547722,4.17873137 13.3030466,3.81084667 13.248,3.4512 C13.1922235,3.04333708 13.0032244,2.66533897 12.7104,2.376 C12.4264887,2.10678786 12.0452545,1.96469148 11.6544,1.9824 C11.2570409,1.95225667 10.8734596,2.13491441 10.6464,2.4624 C10.426386,2.84271801 10.3627077,3.29362881 10.4688,3.72 L8.4192,3.72 C8.3040219,3.14509129 8.35394672,2.54932173 8.5632,2.0016 C8.76400753,1.48554519 9.13708877,1.05480594 9.6192,0.7824 C10.1616348,0.476092133 10.7772979,0.323420962 11.4,0.3408 C12.3275919,0.301694155 13.2421381,0.569983545 14.0016,1.104 C14.688716,1.62908072 15.1420726,2.40306225 15.264,3.2592 C15.3535233,3.77986094 15.3106059,4.31467783 15.1392,4.8144 C14.8952725,5.47872565 14.5486608,6.10068305 14.112,6.6576 L12.192,9.1248 L16.6176,9.1248 L16.92,10.7664 Z" id="Path"></path> </g> <line x1="52.2192" y1="13.7424" x2="164.9472" y2="13.7424" id="Path" stroke="#000000" stroke-width="1.3" stroke-linecap="round" stroke-linejoin="round"></line> <line x1="54.0624" y1="24.2064" x2="107.0208" y2="24.2064" id="Path" stroke="#000000" stroke-width="1.3" stroke-linecap="round" stroke-linejoin="round"></line> </g> </g> </g> </g> </svg> 