<?xml version="1.0" encoding="UTF-8"?> <svg xmlns="http://www.w3.org/2000/svg" xmlns:xlink="http://www.w3.org/1999/xlink" width="230px" height="229px" viewBox="0 0 230 229"> <title>illustration 1</title> <defs> <rect id="path-1" x="0" y="0" width="214" height="145" rx="9"></rect> </defs> <g id="About-Us" stroke="none" stroke-width="1" fill="none" fill-rule="evenodd"> <g id="About_Us-1200-(4)" transform="translate(-962.000000, -484.000000)"> <g id="illustration-1" transform="translate(1077.500000, 599.000000) scale(-1, 1) translate(-1077.500000, -599.000000) translate(963.000000, 485.000000)"> <g id="Group-11" transform="translate(0.000000, 83.000000)"> <g id="Group-6"> <mask id="mask-2" fill="white"> <use xlink:href="#path-1"></use> </mask> <use id="Rectangle" fill="#7835FF" xlink:href="#path-1"></use> <g id="Group-7" mask="url(#mask-2)" fill-rule="nonzero"> <g transform="translate(59.500000, 36.258483)"> <path d="M6.045,22.5665167 C-4.675,57.0065167 23.87,48.1715167 2.215,112.566517 C1.49153949,114.719604 0.5,118.241517 -2.84217094e-14,120.241517 C1,120.241517 6.73242227,120.191517 9.28,120.191517 L77.68,120.191517 C82.6484368,120.191517 84,120.241517 87,120.241517 C87.4592623,118.885648 85.82234,113.618849 85.39,112.116517 C67.72,50.5565167 89.575,49.0165167 92.1,22.0565167 C93.78,4.08151667 65.92,1.47151667 65.92,1.47151667 L29.23,0.00128110333 C24.6346039,-0.0146540782 20.0742941,0.801864992 15.77,2.41151667" id="Path" stroke="none" fill="#FFFFFF" transform="translate(46.086518, 60.120758) scale(-1, 1) translate(-46.086518, -60.120758) "></path> <path d="M11.045,22.5665167 C0.325,57.0065167 26.655,55.8465167 5,120.241517 M92,120.241517 C88.7643376,108.968886 85.2440088,91.5838184 84.2976341,83.8116968" id="Shape" stroke="#000000" stroke-width="1.3" fill="none" transform="translate(48.500000, 71.404017) scale(-1, 1) translate(-48.500000, -71.404017) "></path> </g> </g> </g> <line x1="11" y1="27" x2="214" y2="27" id="Path-8" stroke="#000000" stroke-width="1.3"></line> <g id="Group-10" transform="translate(11.000000, 9.500000)" fill="#FFFFFF" stroke="#000000" stroke-width="1.3"> <circle id="Oval" cx="4" cy="4" r="3.35"></circle> <circle id="Oval-Copy-3" cx="18" cy="4" r="3.35"></circle> <circle id="Oval-Copy-4" cx="32" cy="4" r="3.35"></circle> </g> </g> <g id="Group-4" transform="translate(139.000000, 124.000000) scale(-1, 1) translate(-139.000000, -124.000000) translate(49.500000, 42.000000)"> <path d="M102,44.675 C102,44.675 90.285,28.945 103.93,21.985 C103.93,21.985 109.285,12.74 126.39,14.155 C141.775,15.43 157.695,29.565 151.285,52.1 C140.175,91.175 87.065,67.915 102,44.675 Z" id="Path" fill="#000000" fill-rule="nonzero"></path> <circle id="Oval" fill="#000000" fill-rule="nonzero" cx="150.22" cy="14.01" r="13.63"></circle> <path d="M8.55938302,134.963514 C8.55938302,134.963514 18.7975766,123.258544 31.5757801,111.046359 C44.8619856,98.3269582 50.6063156,93.9180861 55.9207978,89.431181 C60.766355,85.373458 67.7220744,83.6567291 64.0097523,93.0987382 C58.8906555,106.169288 55.2174104,98.6781073 51.6613966,108.627332 C47.8318433,119.317871 34.7019461,141.206165 25.0889857,147.1757" id="Path" stroke="#000000" stroke-width="1.3" fill="#FFFFFF" stroke-linecap="round" stroke-linejoin="round" transform="translate(36.809383, 116.675700) scale(-1, 1) rotate(19.000000) translate(-36.809383, -116.675700) "></path> <path d="M65.5,122.535 C65.5,122.535 84.815,86.88 87.79,83.14 C88.8715717,81.7784921 91.245976,79.8321195 93.5,79.5 C100.9888,78.3965619 111.683201,84.4454591 107.79,98.235 C103.885,112.075 86.88,141.49 81.705,146.13 C76.53,150.77 66.705,151.51 58.425,146.535 C52.905,143.218333 44.4933333,137.518333 33.19,129.435 L44.72,110.14 L65.5,122.535 Z" id="Path" stroke="#000000" stroke-width="1.3" fill="#FFFFFF" fill-rule="nonzero"></path> <path d="M139.735,78.57 C137.125,77.88 135.325,75.945 135.18,73.265 L134,51.59 L113.54,53.045 L113.5,71.385 C113.5,74.48 111.07,76.47 108,76.885 L102.425,77.725" id="Path" stroke="#000000" stroke-width="1.3" fill="#FFFFFF" fill-rule="nonzero" stroke-linecap="round" stroke-linejoin="round"></path> <path d="M68.5,116.75 C75.1666667,105.083333 80.1666667,96.1666667 83.5,90 C88.5,80.75 92,79.75 95.25,78.75 C98.5,77.75 108,76.6 108,76.6 C108.233333,76.6 108.433333,76.5666667 108.6,76.5 C109.4,80.05 115.5,82.8 122.9,82.8 C129.95,82.8 135.8,80.3 137.05,76.95 C137.15,77 151.75,80 155.75,81.75 C159.75,83.5 165,86 167.75,92" id="Path" stroke="#000000" stroke-width="1.3" fill="#FFFFFF" stroke-linecap="round" stroke-linejoin="round"></path> <polygon id="Path" stroke="#000000" stroke-width="1.3" fill="#FFFFFF" fill-rule="nonzero" points="83.055 163.115 110.19 151.44 97.85 105.385 70.71 117.06"></polygon> <polygon id="Path" stroke="#000000" stroke-width="1.3" fill="#FFFFFF" fill-rule="nonzero" points="83.055 163.115 68.79 156.155 56.45 110.1 70.71 117.06"></polygon> <path d="M86.95,132.25 C93.7169946,132.236082 100.422161,132.099609 102.775414,131.7 C108.625414,130.75 122.425414,121.05 125.525414,128.7 C126.925414,132.15 125.125414,139.05 121.475414,141.8 C116.875414,145.3 104.025414,144.8 104.025414,144.8 C104.025414,144.8 98.9811082,148.69713 91.7,153.25" id="Path" stroke="#000000" stroke-width="1.3" fill="#FFFFFF" stroke-linejoin="round" transform="translate(106.475000, 139.515872) scale(-1, 1) translate(-106.475000, -139.515872) "></path> <path d="M146.245,112.56 C147.328379,118.146614 148.600189,124.931029 150.060432,132.913247 C150.3586,134.543059 149.279075,136.105987 147.649259,136.404141 C147.267806,136.473922 146.876443,136.469089 146.49683,136.389907 L126.05,132.125 L126.05,132.125 L121.165,153.335 C139.165,158.668333 151.988333,161.335 159.635,161.335 C171.105,161.335 177.765,156.915 177.635,145.42 C177.534873,136.566433 176.366942,105.42248 167.551747,91.5768559" id="Path" stroke="#000000" stroke-width="1.3" fill="#FFFFFF" fill-rule="nonzero"></path> <path d="M100.855,51.5 C100.855,51.5 96.705,50.805 96.17,44.56 C95.67,38.965 100.215,38.74 102.67,40.72 L100.855,51.5 Z" id="Path" stroke="#000000" stroke-width="1.3" fill="#FFFFFF" fill-rule="nonzero"></path> <path d="M133.595,45.09 C133.595,45.09 141.04,36.88 143.99,43.305 C145.905,47.48 143.35,55.255 136.82,54.12 C136.36,59.51 133.57,65.685 126.6,70.405 C116.485,77.26 101.215,75.57 99.57,54.835 C98.46,40.9 102.735,28.645 102.735,28.645 C102.735,28.645 113.67,45.675 133.595,45.09 Z" id="Path" stroke="#000000" stroke-width="1.3" fill="#FFFFFF" fill-rule="nonzero"></path> <path d="M105.976901,50.152361 C105.976901,52.1050332 105.28594,53.6508987 104.441433,53.6508987 C103.596925,53.6508987 102.905965,52.0236719 102.982738,50.152361 C102.982738,48.1996889 103.673699,46.6538234 104.518206,46.6538234 C105.362714,46.572462 105.976901,48.1996889 105.976901,50.152361 L105.976901,50.152361 Z" id="Path" fill="#000000" fill-rule="nonzero"></path> <path d="M119.476901,52.152361 C119.476901,54.1050332 118.78594,55.6508987 117.941433,55.6508987 C117.096925,55.6508987 116.405965,54.0236719 116.482738,52.152361 C116.482738,50.1996889 117.173699,48.6538234 118.018206,48.6538234 C118.862714,48.572462 119.476901,50.1996889 119.476901,52.152361 L119.476901,52.152361 Z" id="Path-Copy" fill="#000000" fill-rule="nonzero"></path> <path d="M132.955,47 C132.955,47 133.755,44.74 135.265,43.625" id="Path" stroke="#000000" stroke-width="1.3" stroke-linecap="round" stroke-linejoin="round"></path> </g> <g id="Group-5" transform="translate(76.000000, 0.000000)"> <path d="M16.4421892,0 C7.3609257,0.00168729234 0,7.38018516 0,16.48144 C0,25.5822005 7.36141886,32.9598245 16.4421892,32.9598245 L28.4472282,32.9598245 L34.1728784,40.4 L39.6973076,32.9598245 L105.954762,32.9598245 C110.31603,32.960635 114.498948,31.2248823 117.583116,28.1344979 C120.667284,25.0441135 122.4,20.8523088 122.4,16.48144 C122.4,7.37899204 115.037216,0 105.954762,0 L16.4421892,0 Z" id="Path" stroke="#000000" stroke-width="1.3" fill="#FFFFFF" fill-rule="nonzero" stroke-linecap="round" stroke-linejoin="round"></path> <polygon id="Star" fill="#7835FF" points="17.804 21.488 12.3963757 24.3309563 13.42914 18.3094782 9.05428005 14.0450437 15.1001878 13.1665218 17.804 7.688 20.5078122 13.1665218 26.5537199 14.0450437 22.17886 18.3094782 23.2116243 24.3309563"></polygon> <polygon id="Star-Copy" fill="#7835FF" points="39.404 21.488 33.9963757 24.3309563 35.02914 18.3094782 30.6542801 14.0450437 36.7001878 13.1665218 39.404 7.688 42.1078122 13.1665218 48.1537199 14.0450437 43.77886 18.3094782 44.8116243 24.3309563"></polygon> <polygon id="Star-Copy-2" fill="#7835FF" points="61.004 21.488 55.5963757 24.3309563 56.62914 18.3094782 52.2542801 14.0450437 58.3001878 13.1665218 61.004 7.688 63.7078122 13.1665218 69.7537199 14.0450437 65.37886 18.3094782 66.4116243 24.3309563"></polygon> <polygon id="Star-Copy-3" fill="#7835FF" points="82.604 21.488 77.1963757 24.3309563 78.22914 18.3094782 73.8542801 14.0450437 79.9001878 13.1665218 82.604 7.688 85.3078122 13.1665218 91.3537199 14.0450437 86.97886 18.3094782 88.0116243 24.3309563"></polygon> <polygon id="Star-Copy-4" fill="#7835FF" points="104.204 21.488 98.7963757 24.3309563 99.82914 18.3094782 95.4542801 14.0450437 101.500188 13.1665218 104.204 7.688 106.907812 13.1665218 112.95372 14.0450437 108.57886 18.3094782 109.611624 24.3309563"></polygon> </g> </g> </g> </g> </svg> 