<?xml version="1.0" encoding="UTF-8"?> <svg xmlns="http://www.w3.org/2000/svg" xmlns:xlink="http://www.w3.org/1999/xlink" width="342px" height="292px" viewBox="0 0 342 292"> <title>Group 157</title> <g id="About-Us" stroke="none" stroke-width="1" fill="none" fill-rule="evenodd"> <g id="About_Us-1200-(4)" transform="translate(-176.000000, -1786.000000)"> <g id="Group-157" transform="translate(176.000000, 1786.000000)"> <polygon id="Path" stroke="#000000" stroke-width="1.3" fill="#FFFFFF" stroke-linecap="round" stroke-linejoin="round" transform="translate(135.118703, 108.158631) rotate(36.000000) translate(-135.118703, -108.158631) " points="133.484798 99.6371878 127.1 116.680074 143.137406 113.311716 141.377816 100.341024"></polygon> <polygon id="Path" stroke="#000000" stroke-width="1.3" stroke-linecap="round" stroke-linejoin="round" transform="translate(152.995747, 103.849536) rotate(42.000000) translate(-152.995747, -103.849536) " points="151.286431 100.807959 154.705063 105.081249 152.191363 106.891113"></polygon> <path d="M142.280187,88.7294736 C145.799367,86.9698836 150.776493,89.7349536 153.441015,94.9634496 C156.055263,100.191946 155.351427,105.872908 151.882521,107.632498 C148.363341,109.392088 143.386215,106.627018 140.721693,101.398522 C138.057171,96.1700256 138.761007,90.4890636 142.280187,88.7294736 L142.280187,88.7294736 Z" id="Path" stroke="#000000" stroke-width="1.3" fill="#FFFFFF" stroke-linecap="round" stroke-linejoin="round" transform="translate(147.063132, 98.180986) rotate(34.000000) translate(-147.063132, -98.180986) "></path> <path d="M151.297532,99.6959301 C151.64945,100.45004 151.699724,101.153876 151.347806,101.304698 C150.995888,101.45552 150.442874,101.003054 150.090956,100.299218 C149.739038,99.5451081 149.688764,98.8412721 150.040682,98.6904501 C150.342326,98.5396281 150.945614,98.9920941 151.297532,99.6959301 L151.297532,99.6959301 Z" id="Path" fill="#000000" fill-rule="nonzero" transform="translate(150.694244, 99.997574) rotate(45.000000) translate(-150.694244, -99.997574) "></path> <path d="M144.492822,96.4411811 C144.492822,96.4411811 144.758706,93.3579825 142.323843,93.9614591 C141.289452,94.2175191 140.10542,95.9883281 141.900133,98.2038041 C141.900133,98.2038041 139.703976,102.516877 135.341459,100.324649 C135.341459,100.324649 133.437381,91.8966066 138.905016,87.1310085 C138.905016,87.1310085 130.707166,84.4580954 133.602085,77.2956181 C134.471445,75.1449758 138.016992,72.2549683 142.477086,74.5837393 C144.684704,75.7366644 147.87825,79.1862711 144.778352,84.2766922 C144.778352,84.2766922 156.785669,84.8457873 154.988992,96.5777246 C154.988992,96.5777246 148.9909,99.0423843 144.492822,96.4411811" id="Fill-24" fill="#000000"></path> <g id="Group-8" transform="translate(226.708809, 82.542439)"> <polygon id="Path" stroke="#000000" stroke-width="1.3" fill="#FFFFFF" stroke-linecap="round" stroke-linejoin="round" transform="translate(12.018703, 30.438597) rotate(28.000000) translate(-12.018703, -30.438597) " points="10.384798 21.917154 4 38.96004 20.037406 35.591682 18.277816 22.62099"></polygon> <polygon id="Path" stroke="#000000" stroke-width="1.3" stroke-linecap="round" stroke-linejoin="round" transform="translate(30.056917, 25.908856) rotate(28.000000) translate(-30.056917, -25.908856) " points="28.3476008 22.8672793 31.7662328 27.1405693 29.2525328 28.9504333"></polygon> <path d="M18.5020483,11.8602193 C22.0212283,10.1006293 26.9983543,12.8656993 29.6628763,18.0941953 C32.2771243,23.3226913 31.5732883,29.0036533 28.1043823,30.7632433 C24.5852023,32.5228333 19.6080763,29.7577633 16.9435543,24.5292673 C14.2790323,19.3007713 14.9828683,13.6198093 18.5020483,11.8602193 L18.5020483,11.8602193 Z" id="Path" stroke="#000000" stroke-width="1.092" fill="#FFFFFF" stroke-linecap="round" stroke-linejoin="round" transform="translate(23.284993, 21.311731) rotate(28.000000) translate(-23.284993, -21.311731) "></path> <path d="M36.947526,6.85949233 C39.813144,10.7808643 39.310404,15.9590863 35.891772,18.4727863 C32.47314,20.9864863 27.345192,19.8301843 24.529848,15.9088123 C21.66423,11.9874403 22.16697,6.80921833 25.585602,4.29551833 C29.054508,1.83209233 34.132182,2.98839433 36.947526,6.85949233 L36.947526,6.85949233 Z" id="Path" fill="#000000" fill-rule="nonzero" transform="translate(30.738687, 11.401468) rotate(28.000000) translate(-30.738687, -11.401468) "></path> <path d="M28.2048292,22.6219706 C28.5567472,23.3760806 28.6070212,24.0799166 28.2551032,24.2307386 C27.9031852,24.3815606 27.3501712,23.9290946 26.9982532,23.2252586 C26.6463352,22.4711486 26.5960612,21.7673126 26.9479792,21.6164906 C27.2496232,21.4656686 27.8529112,21.9181346 28.2048292,22.6219706 L28.2048292,22.6219706 Z" id="Path" fill="#000000" fill-rule="nonzero" transform="translate(27.601541, 22.923615) rotate(28.000000) translate(-27.601541, -22.923615) "></path> <path d="M13.0285576,9.3884354 C15.5422576,7.1763794 19.0111636,6.9752834 20.7707536,8.9862434 C22.5303436,10.9972034 21.9773296,14.4158354 19.4636296,16.6278914 C16.9499296,18.8399474 13.4810236,19.0410434 11.7214336,17.0300834 C9.91156958,15.0191234 10.5148576,11.6004914 13.0285576,9.3884354 L13.0285576,9.3884354 Z" id="Path" fill="#000000" fill-rule="nonzero" transform="translate(16.235162, 13.008163) rotate(28.000000) translate(-16.235162, -13.008163) "></path> <path d="M19.760648,8.64745754 C22.626266,6.63649754 26.547638,7.23978554 28.558598,10.0551295 C30.569558,12.8704735 29.815448,16.7918455 26.94983,18.8028055 C24.084212,20.8137655 20.16284,20.2104775 18.15188,17.3951335 C16.191194,14.5797895 16.89503,10.6584175 19.760648,8.64745754 L19.760648,8.64745754 Z" id="Path" fill="#000000" fill-rule="nonzero" transform="translate(23.366246, 13.725132) rotate(28.000000) translate(-23.366246, -13.725132) "></path> <path d="M18.6084036,7.21267134 C19.9658016,6.05636934 22.5800496,6.96130134 24.4401876,9.17335734 C26.3003256,11.3854133 26.7527916,14.1002093 25.3953936,15.2565113 C24.0379956,16.4128133 21.4237476,15.5078813 19.5636096,13.2958253 C17.7034716,11.0837693 17.2510056,8.31869934 18.6084036,7.21267134 L18.6084036,7.21267134 Z" id="Path" fill="#000000" fill-rule="nonzero" transform="translate(22.001899, 11.234591) rotate(28.000000) translate(-22.001899, -11.234591) "></path> <path d="M17.8038785,12.4829255 C20.3678525,12.8348435 22.1274425,15.6501875 21.7252505,18.7671755 C21.3230585,21.8841635 18.8596325,24.1464935 16.2956585,23.7945755 C13.7316845,23.4426575 11.9720945,20.6273135 12.3742865,17.5103255 C12.7764785,14.3933375 15.2399045,12.1310075 17.8038785,12.4829255 L17.8038785,12.4829255 Z" id="Path" fill="#000000" fill-rule="nonzero" transform="translate(17.049768, 18.138751) rotate(28.000000) translate(-17.049768, -18.138751) "></path> </g> <path d="M261.040905,161.815535 L267.788512,162.659027 C268.51216,162.749728 269.191276,163.057197 269.73614,163.541812 L274.816738,168.062155 L263.987887,167.7095 C255.109195,166.575021 250.072703,165.920136 248.878411,165.744845 C247.086973,165.481908 239.533225,163.941099 238.281289,157.371774 C237.446666,152.992224 236.301404,147.488038 234.845505,140.859215 L245.651107,133.000595 L247.943205,156.249012 L261.040905,161.815535 Z" id="Fill-32" stroke="#000000" stroke-width="1.3" fill="#FFFFFF" stroke-linejoin="round"></path> <path d="M341.909936,249.552214 C341.909936,272.79048 323.071841,291.628575 299.833575,291.628575 C276.595308,291.628575 257.757213,272.79048 257.757213,249.552214 C257.757213,226.314274 276.595308,207.475852 299.833575,207.475852 C323.071841,207.475852 341.909936,226.314274 341.909936,249.552214" id="Fill-36" fill="#7835FF"></path> <path d="M84.8675733,249.552214 C84.8675733,272.79048 66.0291514,291.628575 42.791212,291.628575 C19.5529452,291.628575 0.714850776,272.79048 0.714850776,249.552214 C0.714850776,226.314274 19.5529452,207.475852 42.791212,207.475852 C66.0291514,207.475852 84.8675733,226.314274 84.8675733,249.552214" id="Fill-44" fill="#7835FF"></path> <path d="M106.025336,246.869379 C106.025336,246.869379 102.254508,255.490612 105.849172,260.621636 C107.86982,263.50575 113.182574,268.149212 111.294868,273.61259 L87.9767053,255.171683 L97.3910046,241.688911 L106.025336,246.869379 Z" id="Fill-56" stroke="#000000" stroke-width="1.3" fill="#FFFFFF" stroke-linejoin="round"></path> <polygon id="Path" stroke="#000000" stroke-width="1.3" fill="#FFFFFF" stroke-linecap="round" stroke-linejoin="round" transform="translate(191.848583, 256.745786) rotate(82.000000) translate(-191.848583, -256.745786) " points="172.423583 257.449904 190.471174 276.695786 211.273583 245.799957 199.724538 246.738781 181.535674 236.795786"></polygon> <path d="M206.030565,167.054615 C220.009827,175.649972 240.554518,174.960786 238.281289,199.69351 C236.765804,216.181994 223.286875,234.990482 197.844502,256.118975 L180.817492,246.2957 C197.026439,222.739844 206.066117,209.066277 207.936526,205.275 C210.742139,199.588084 182.127262,188.28712 182.127262,178.842545 C182.127262,169.39797 192.051303,158.459258 206.030565,167.054615 Z" id="Fill-62" stroke="#000000" stroke-width="1.3" fill="#FFFFFF" stroke-linejoin="round"></path> <path d="M144.336108,228.205156 C144.336108,228.205156 141.547608,237.153832 145.142272,242.284856 C147.16292,245.16897 152.475674,249.812432 150.587968,255.27581 L127.269805,237.817231 L135.701777,223.024689 L144.336108,228.205156 Z" id="Fill-78" stroke="#000000" stroke-width="1.3" fill="#FFFFFF" stroke-linejoin="round"></path> <path d="M174.71344,181.483827 L175.842789,184.448819 C177.141099,187.856513 180.9653,189.555939 184.364808,188.236346 L202.729421,181.106613 C204.485167,180.424878 205.2504,178.36199 204.364014,176.700219 C203.783785,175.612128 202.62071,174.964119 201.390181,175.043688 L177.877517,176.560729 C175.434469,176.718229 173.842116,179.196314 174.71344,181.483827" id="Fill-82" stroke="#000000" stroke-width="1.3" fill="#FFFFFF"></path> <path d="M85.3216378,181.483827 L86.4513144,184.448819 C87.7492965,187.856513 91.5734974,189.555939 94.9730055,188.236346 L113.337618,181.106613 C115.093037,180.424878 115.858598,178.36199 114.972211,176.700219 C114.391983,175.612128 113.228907,174.964119 111.998378,175.043688 L88.4857147,176.560729 C86.0426662,176.718229 84.4499859,179.196314 85.3216378,181.483827" id="Fill-84" stroke="#000000" stroke-width="1.3" fill="#FFFFFF"></path> <polygon id="Path" stroke="#000000" stroke-width="1.3" fill="#FFFFFF" stroke-linecap="round" stroke-linejoin="round" transform="translate(231.223583, 239.420786) rotate(90.000000) translate(-231.223583, -239.420786) " points="211.798583 240.124904 229.846174 259.370786 250.648583 228.474957 239.099538 229.413781 220.910674 219.470786"></polygon> <path d="M170.607412,207.561602 C170.607412,207.561602 194.644256,238.579053 212.267633,232.166661 C233.092062,224.565216 221.222025,172.875903 232.232238,177.249919 C262.941236,189.522643 264.137234,192.070613 264.137234,192.070613 L277.242375,165.921716 C277.242375,165.921716 267.070611,152.897738 232.232238,144.088394 C212.267633,139.040078 199.311972,185.286106 199.311972,185.286106 L170.607412,207.561602 Z" id="Path" stroke="#000000" stroke-width="1.3" fill="#FFFFFF" stroke-linecap="round" stroke-linejoin="round" transform="translate(223.924893, 188.371429) rotate(90.000000) translate(-223.924893, -188.371429) "></path> <path d="M207.012892,116.301191 L211.92453,120.557943 L185.318892,150.531375 C185.318892,150.531375 227.010217,163.758508 227.010217,163.758508 L234.518062,141.841706 L235.172947,146.098458 L247.28832,136.930068 L244.996222,116.628633 C244.996222,116.628633 243.195289,117.119797 240.575749,114.500257 C238.283651,112.20816 237.465045,108.115128 237.465045,108.115128 L224.281228,106.417994 C222.130585,106.141305 219.95604,106.708108 218.214045,107.999214 L207.012892,116.301191 Z" id="Fill-92" stroke="#000000" stroke-width="1.3" fill="#FFFFFF" stroke-linejoin="round"></path> <polygon id="Fill-114" stroke="#000000" stroke-width="1.3" fill="#FFFFFF" stroke-linejoin="round" points="117.948532 165.744845 142.50672 207.330042 109.76247 254.809205 92.7354599 244.98593 117.948532 207.657485 94.0452299 177.532775"></polygon> <path d="M102.558735,144.788525 C102.558735,144.788525 82.4210211,171.802531 95.6824424,180.479757 C102.547148,184.971341 121.527669,186.124701 134.230658,186.375047 C141.307492,186.514514 146.169673,187.697308 144.995743,191.789014 C144.213123,194.516819 139.454138,206.136864 130.71879,226.64915 C130.71879,226.64915 150.692782,236.144982 150.692782,236.144982 L164.6522,198.552775 C174.432364,176.714168 167.533752,169.768738 148.237062,164.852233 L128.426692,159.523437 L127.280644,153.465751 L102.558735,144.788525 Z" id="Fill-118" stroke="#000000" stroke-width="1.3" fill="#FFFFFF"></path> <path d="M144.307654,124.978253 L150.529061,139.385723 L164.609089,160.014601 L168.434927,160.97106 C169.359624,161.202235 170.204426,161.680628 170.878303,162.354505 L174.432364,165.908566 L160.024894,164.271353 L144.314202,145.266918 C143.98807,144.872677 143.687805,144.458463 143.414063,144.026566 L136.121591,132.509431 L144.307654,124.978253 Z" id="Fill-122" stroke="#000000" stroke-width="1.3" fill="#FFFFFF"></path> <polygon id="Fill-130" fill="#000000" points="223.450899 28.662843 208.149838 52.4983649 199.335414 45.6652948 210.145928 28.030224"></polygon> <path d="M218.984387,17.7488242 L212.454201,35.7470287 C211.108412,36.046966 210.235123,36.7359051 209.668975,37.556476 C209.195493,38.2441052 208.937796,39.0247281 208.803217,39.7490309 C208.598238,40.8515298 208.673877,41.9893925 208.951876,43.0755193 C211.050455,51.2642013 207.913883,54.04779 205.090019,54.1391465 C203.155489,54.2052899 199.258596,51.5032344 197.761856,50.2776171 C178.946028,34.8724298 162.653799,33.4254614 162.653799,33.4254614 L176.654257,0.000130977 C196.806706,5.51917431 212.303577,17.3477072 212.303577,17.3477072 C213.955197,18.4639587 215.238772,18.89782 216.21848,18.9708397 C218.135983,19.1237553 218.893685,17.9066515 218.984387,17.7488242" id="Fill-132" fill="#7835FF"></path> <path d="M256.963558,35.5487295 C256.963558,35.5487295 250.07777,40.9256628 245.919578,28.0021622 C245.919578,28.0021622 241.770881,10.2469201 233.696476,4.75014286 C233.696476,4.75014286 226.645002,-1.0233233 222.729117,6.40274516 L211.641914,35.9956885 C211.641914,35.9956885 223.797235,32.2363212 229.04974,56.4978458 C229.04974,56.4978458 231.469835,70.6889041 246.621254,67.4642504 L256.963558,35.5487295 Z" id="Fill-134" fill="#7835FF"></path> <line x1="211.6775" y1="180.7575" x2="259.61" y2="28.875" id="Path-2" stroke="#000000" stroke-width="1.3"></line> <path d="M197.956467,119.099753 C192.789564,117.392652 189.079993,123.17053 193.028036,132.310082 C197.373534,142.395105 202.460946,147.201248 208.157788,149.459873 C211.178439,150.667975 216.371839,148.960875 221.141287,139.611218 C223.526012,134.93639 223.473018,131.364611 225.248313,127.897885 C225.61927,127.162518 229.302344,126.374626 230.309228,122.435164 C230.918657,120.01896 227.129595,121.253325 222.890085,122.435164 C214.755525,124.693789 213.907623,136.354596 211.443408,134.122234 C209.562126,132.415134 208.714224,128.475672 205.667076,125.061472 C203.229358,122.408901 200.579664,119.966434 197.956467,119.099753 L197.956467,119.099753 Z" id="Path" stroke="#000000" stroke-width="1.3" fill="#FFFFFF" stroke-linecap="round" stroke-linejoin="round" transform="translate(210.873935, 134.301327) rotate(76.000000) translate(-210.873935, -134.301327) "></path> <path d="M209.285436,122.213614 C214.664186,129.350833 228.478839,118.853559 228.478839,118.853559 L217.192658,106.850054 C217.192658,106.850054 205.492727,117.161946 209.285436,122.213614 L209.285436,122.213614 Z" id="Path" stroke="#000000" stroke-width="1.3" fill="#FFFFFF" stroke-linecap="round" stroke-linejoin="round" transform="translate(218.503839, 115.775054) rotate(166.000000) translate(-218.503839, -115.775054) "></path> <path d="M133.793125,160.965652 C133.793125,160.965652 95.1374207,150.531375 95.1374207,150.531375 L125.696903,107.566728 C126.773861,106.397431 128.148792,105.522832 129.689409,105.131538 C131.735597,104.611559 134.468105,104.776918 136.867276,107.80838 C141.412833,113.552049 148.237062,129.56235 148.237062,129.56235 L139.396114,140.04051 L137.309323,137.05096 L133.793125,160.965652 Z" id="Fill-144" stroke="#000000" stroke-width="1.3" fill="#FFFFFF" stroke-linejoin="round"></path> <path d="M285.776307,177.037006 L289.744322,192.675653 C290.098796,194.072698 291.356258,195.050948 292.797571,195.050948 L307.723448,195.050948 C309.231802,195.050948 310.528469,193.981691 310.815776,192.500952 L313.850141,176.862305 C314.181514,175.154459 313.065662,173.501346 311.357817,173.169972 C311.160119,173.131613 310.959198,173.112301 310.757812,173.112301 L288.829556,173.112301 C287.089859,173.112301 285.679556,174.522604 285.679556,176.262301 C285.679556,176.523549 285.712056,176.783782 285.776307,177.037006 Z" id="Fill-154" stroke="#000000" stroke-width="1.3" fill="#FFFFFF"></path> <line x1="93.3920207" y1="188.335902" x2="98.225" y2="205.275" id="Path-3" stroke="#000000" stroke-width="1.3"></line> <polyline id="Path-4" stroke="#000000" stroke-width="1.3" points="140.757948 200.87283 85.0805984 207.280795 42.9462445 249.078895"></polyline> <circle id="Oval" stroke="#000000" stroke-width="1.3" fill="#FFFFFF" cx="43.1" cy="249.375" r="5.125"></circle> <circle id="Oval-Copy" stroke="#000000" stroke-width="1.3" fill="#FFFFFF" cx="118.7" cy="250.95" r="11.95"></circle> <circle id="Oval-Copy-2" stroke="#000000" stroke-width="1.3" fill="#FFFFFF" cx="205.85" cy="250.95" r="11.95"></circle> <line x1="42.9462445" y1="244.108618" x2="118.7" y2="239.150249" id="Path-5" stroke="#000000" stroke-width="1.3"></line> <line x1="42.791212" y1="254.622086" x2="118.7" y2="262.832363" id="Path-6" stroke="#000000" stroke-width="1.3"></line> <line x1="118.175" y1="251.475" x2="137.075" y2="245.175" id="Path-7" stroke="#000000" stroke-width="1.3"></line> <line x1="118.7" y1="239.150249" x2="205.703122" y2="239.150249" id="Path-10" stroke="#000000" stroke-width="1.3"></line> <line x1="118.7" y1="262.832363" x2="205.325" y2="262.832363" id="Path-11" stroke="#000000" stroke-width="1.3"></line> <line x1="205.325" y1="251.475" x2="225.275" y2="247.275" id="Path-17" stroke="#000000" stroke-width="1.3"></line> <line x1="261.706316" y1="216.509949" x2="287.582293" y2="203.280339" id="Path-19" stroke="#000000" stroke-width="1.3"></line> <line x1="268.207929" y1="187.103693" x2="282.739734" y2="185.867344" id="Path-20" stroke="#000000" stroke-width="1.3"></line> <line x1="164.6522" y1="198.552775" x2="228.409443" y2="191.789014" id="Path-21" stroke="#000000" stroke-width="1.3"></line> <polyline id="Path-22" stroke="#000000" stroke-width="1.3" points="273.256245 167.003935 278.302916 168.062155 299.988607 249.552214"></polyline> <circle id="Oval" stroke="#000000" stroke-width="1.3" fill="#FFFFFF" cx="299.825" cy="249.375" r="5.125"></circle> <line x1="280.488304" y1="176.714168" x2="286.036292" y2="176.714168" id="Path-23" stroke="#000000" stroke-width="1.3"></line> <line x1="284.721154" y1="191.789014" x2="289.364616" y2="191.789014" id="Path-24" stroke="#000000" stroke-width="1.3"></line> <line x1="184.353622" y1="188.335902" x2="187.475" y2="195.825" id="Path-25" stroke="#000000" stroke-width="1.3"></line> </g> </g> </g> </svg> 