<?xml version="1.0" encoding="UTF-8"?> <svg xmlns="http://www.w3.org/2000/svg" xmlns:xlink="http://www.w3.org/1999/xlink" width="301px" height="213px" viewBox="0 0 301 213"> <title>illustration 2</title> <g id="About-Us" stroke="none" stroke-width="1" fill="none" fill-rule="evenodd"> <g id="About_Us-1200-(4)" transform="translate(-880.000000, -1394.000000)"> <g id="illustration-2" transform="translate(881.000000, 1394.000000)"> <polygon id="Path" stroke="#000000" stroke-width="1.3" fill="#FFFFFF" stroke-linecap="round" stroke-linejoin="round" points="57.15675 30.74295 49.5558 51.0321 68.64795 47.02215 66.5532 31.58085"></polygon> <polygon id="Path" stroke="#000000" stroke-width="1.3" stroke-linecap="round" stroke-linejoin="round" points="73.4958 22.4238 77.5656 27.51105 74.5731 29.66565"></polygon> <path d="M60.14925,13.74555 C64.33875,11.6508 70.2639,14.94255 73.43595,21.16695 C76.54815,27.39135 75.71025,34.1544 71.5806,36.24915 C67.3911,38.3439 61.46595,35.05215 58.2939,28.82775 C55.12185,22.60335 55.95975,15.8403 60.14925,13.74555 L60.14925,13.74555 Z" id="Path" stroke="#000000" stroke-width="1.3" fill="#FFFFFF" stroke-linecap="round" stroke-linejoin="round"></path> <path d="M75.5307,5.00745 C78.94215,9.67575 78.34365,15.8403 74.27385,18.8328 C70.20405,21.8253 64.09935,20.44875 60.74775,15.78045 C57.3363,11.11215 57.9348,4.9476 62.0046,1.9551 C66.13425,-0.97755 72.1791,0.399 75.5307,5.00745 L75.5307,5.00745 Z" id="Path" fill="#000000" fill-rule="nonzero"></path> <path d="M71.99955,23.92005 C72.4185,24.8178 72.47835,25.6557 72.0594,25.83525 C71.64045,26.0148 70.9821,25.47615 70.56315,24.63825 C70.1442,23.7405 70.08435,22.9026 70.5033,22.72305 C70.8624,22.5435 71.5806,23.08215 71.99955,23.92005 L71.99955,23.92005 Z" id="Path" fill="#000000" fill-rule="nonzero"></path> <path d="M49.97475,15.90015 C52.96725,13.26675 57.0969,13.02735 59.19165,15.42135 C61.2864,17.81535 60.62805,21.88515 57.63555,24.51855 C54.64305,27.15195 50.5134,27.39135 48.41865,24.99735 C46.26405,22.60335 46.98225,18.53355 49.97475,15.90015 L49.97475,15.90015 Z" id="Path" fill="#000000" fill-rule="nonzero"></path> <path d="M57.39615,10.9326 C60.8076,8.5386 65.4759,9.2568 67.8699,12.6084 C70.2639,15.96 69.36615,20.6283 65.9547,23.0223 C62.54325,25.4163 57.87495,24.6981 55.48095,21.3465 C53.1468,17.9949 53.9847,13.3266 57.39615,10.9326 L57.39615,10.9326 Z" id="Path" fill="#000000" fill-rule="nonzero"></path> <path d="M54.8226,10.3341 C56.43855,8.95755 59.55075,10.03485 61.7652,12.66825 C63.97965,15.30165 64.5183,18.53355 62.90235,19.9101 C61.2864,21.28665 58.1742,20.20935 55.95975,17.57595 C53.7453,14.94255 53.20665,11.6508 54.8226,10.3341 L54.8226,10.3341 Z" id="Path" fill="#000000" fill-rule="nonzero"></path> <path d="M58.4136,18.41385 C61.46595,18.8328 63.5607,22.1844 63.0819,25.8951 C62.6031,29.6058 59.67045,32.29905 56.6181,31.8801 C53.56575,31.46115 51.471,28.10955 51.9498,24.39885 C52.4286,20.68815 55.36125,17.9949 58.4136,18.41385 L58.4136,18.41385 Z" id="Path" fill="#000000" fill-rule="nonzero"></path> <path d="M57.9348,25.1769 C59.79015,24.27915 62.18415,25.35645 63.3213,27.5709 C64.45845,29.8452 63.9198,32.41875 62.06445,33.3165 C60.2091,34.21425 57.8151,33.1968 56.67795,30.9225 C55.5408,28.6482 56.07945,26.07465 57.9348,25.1769 L57.9348,25.1769 Z" id="Path" stroke="#000000" stroke-width="1.3" fill="#FFFFFF" stroke-linecap="round" stroke-linejoin="round"></path> <path d="M62.8425,130.2735 C62.8425,130.2735 100.48815,146.7921 130.473,137.75475 C165.9042,127.0416 169.07625,120.099 188.5275,123.51045 C230.72175,130.872 245.9835,136.9767 245.9835,136.9767 L268.54695,99.92955 C268.54695,99.92955 241.4349,79.81995 182.96145,65.6355 C151.00155,57.9747 89.71515,115.9095 89.71515,115.9095 L62.8425,130.2735 L62.8425,130.2735 Z" id="Path" stroke="#000000" stroke-width="1.3" fill="#FFFFFF" stroke-linecap="round" stroke-linejoin="round"></path> <polygon id="Path" stroke="#000000" stroke-width="1.3" fill="#FFFFFF" stroke-linecap="round" stroke-linejoin="round" points="226.77165 115.49055 257.355 142.4829 292.60665 99.1515 273.0357 100.4682 242.21295 86.52315"></polygon> <path d="M36.3888,94.90215 C36.3888,94.90215 29.38635,123.27105 50.69295,157.6848 C57.456,168.63735 65.835,165.1062 69.84495,165.40545 C73.8549,165.7047 63.8001,95.26125 63.8001,95.26125 C63.8001,95.26125 36.3888,95.62035 36.3888,94.90215 L36.3888,94.90215 Z" id="Path" stroke="#000000" stroke-width="1.3" fill="#FFFFFF" stroke-linecap="round" stroke-linejoin="round"></path> <path d="M76.18905,65.7552 C80.4384,54.20415 58.0545,35.77035 46.02465,55.04205 C35.37135,71.9796 34.41375,98.73255 34.41375,98.73255 C34.41375,98.73255 56.8575,98.25375 62.1243,92.86725 C69.36615,85.5057 71.3412,78.9222 76.18905,65.7552 L76.18905,65.7552 Z" id="Path" stroke="#000000" stroke-width="1.3" fill="#FFFFFF" stroke-linecap="round" stroke-linejoin="round"></path> <path d="M62.8425,124.5279 C62.8425,124.5279 100.48815,141.0465 130.473,132.00915 C165.9042,121.296 169.1361,104.11905 187.86915,110.2836 C240.1182,127.58025 242.1531,131.17125 242.1531,131.17125 L264.71655,94.1241 C264.71655,94.1241 241.37505,74.07435 182.9016,59.94975 C151.0614,52.2291 89.775,110.1639 89.775,110.1639 L62.8425,124.5279 L62.8425,124.5279 Z" id="Path" stroke="#000000" stroke-width="1.3" fill="#FFFFFF" stroke-linecap="round" stroke-linejoin="round"></path> <polygon id="Path" stroke="#000000" stroke-width="1.3" fill="#7835FF" stroke-linecap="round" stroke-linejoin="round" points="166.5027 1.53615 157.22595 6.92265 153.51525 60.3687 162.792 54.92235"></polygon> <polygon id="Path" stroke="#000000" stroke-width="1.3" fill="#FFFFFF" stroke-linecap="round" stroke-linejoin="round" points="164.8269 58.0944 163.1511 55.2216 116.88705 82.1541 118.56285 85.08675"></polygon> <path d="M48.29895,47.74035 C48.29895,47.74035 31.66065,87.78 61.5258,127.0416 L115.8696,95.0817 C115.8696,95.0817 82.05435,55.99965 71.7003,44.9274 L48.29895,47.74035 L48.29895,47.74035 Z" id="Path" stroke="#000000" stroke-width="1.3" fill="#FFFFFF" stroke-linecap="round" stroke-linejoin="round"></path> <path d="M68.04945,57.79515 C56.3787,53.9049 47.9997,67.0719 56.91735,87.8997 C66.73275,110.8821 78.22395,121.83465 91.0917,126.98175 C97.9146,129.73485 109.6452,125.8446 120.4182,104.538 C125.8047,93.8847 125.685,85.7451 129.69495,77.8449 C130.53285,76.1691 138.852,74.3736 141.1263,65.3961 C142.50285,59.8899 133.9443,62.70285 124.3683,65.3961 C105.99435,70.5432 104.07915,97.1166 98.5131,92.02935 C94.26375,88.1391 92.34855,79.1616 85.4658,71.3811 C79.9596,65.33625 73.9746,59.7702 68.04945,57.79515 L68.04945,57.79515 Z" id="Path" stroke="#000000" stroke-width="1.3" fill="#FFFFFF" stroke-linecap="round" stroke-linejoin="round"></path> <path d="M69.36615,55.40115 C57.39615,52.5882 43.8102,58.27395 48.5982,80.4783 C51.41115,93.6453 62.42355,104.95695 62.42355,104.95695 L91.15155,75.39105 C91.0917,75.4509 79.30125,57.7353 69.36615,55.40115 L69.36615,55.40115 Z" id="Path" stroke="#000000" stroke-width="1.3" fill="#FFFFFF" stroke-linecap="round" stroke-linejoin="round"></path> <path d="M45.8451,146.61255 C47.1618,144.2784 46.38375,141.34575 44.0496,140.02905 C41.71545,138.71235 38.7828,139.4904 37.4661,141.82455 L0.9576,205.086 C-0.3591,207.42015 0.41895,210.3528 2.7531,211.6695 C5.08725,212.9862 8.0199,212.20815 9.3366,209.874 L45.8451,146.61255 L45.8451,146.61255 Z" id="Path" stroke="#000000" stroke-width="1.3" fill="#FFFFFF" stroke-linecap="round" stroke-linejoin="round"></path> <path d="M245.80395,140.8071 C247.12065,138.47295 246.3426,135.5403 244.00845,134.2236 C241.6743,132.9069 238.74165,133.68495 237.42495,136.0191 L197.56485,205.086 C196.24815,207.42015 197.0262,210.3528 199.36035,211.6695 C201.6945,212.9862 204.62715,212.20815 205.94385,209.874 L245.80395,140.8071 L245.80395,140.8071 Z" id="Path" stroke="#000000" stroke-width="1.3" fill="#FFFFFF" stroke-linecap="round" stroke-linejoin="round"></path> <path d="M125.9244,148.40805 C124.6077,146.0739 125.38575,143.14125 127.7199,141.82455 C130.05405,140.50785 132.9867,141.2859 134.3034,143.62005 L169.79445,205.086 C171.11115,207.42015 170.3331,210.3528 167.99895,211.6695 C165.6648,212.9862 162.73215,212.20815 161.41545,209.874 L125.9244,148.40805 L125.9244,148.40805 Z" id="Path" stroke="#000000" stroke-width="1.3" fill="#FFFFFF" stroke-linecap="round" stroke-linejoin="round"></path> <path d="M250.2927,141.58515 C248.976,139.251 249.75405,136.31835 252.0882,135.00165 C254.42235,133.68495 257.355,134.463 258.6717,136.79715 L298.11285,205.086 C299.42955,207.42015 298.6515,210.3528 296.31735,211.6695 C293.9832,212.9862 291.05055,212.20815 289.73385,209.874 L250.2927,141.58515 L250.2927,141.58515 Z" id="Path" stroke="#000000" stroke-width="1.3" fill="#FFFFFF" stroke-linecap="round" stroke-linejoin="round"></path> <path d="M5.7456,90.11415 C5.3865,120.87705 23.04225,147.2709 51.17175,162.7122 C94.0842,186.23325 141.18615,179.5899 160.81695,168.39795 C185.2956,154.51275 179.9091,122.67255 140.46795,130.9917 C74.4534,144.81705 45.486,110.8821 43.5708,82.45335 C41.71545,54.08445 6.04485,64.4385 5.7456,90.11415 L5.7456,90.11415 Z" id="Path" fill="#7835FF"></path> <path d="M298.83105,152.6574 C298.83105,140.8071 289.1952,131.2311 277.40475,131.2311 L215.1009,131.2311 C203.2506,131.2311 193.6746,140.86695 193.6746,152.6574 C193.6746,164.5077 203.31045,174.0837 215.1009,174.0837 L277.40475,174.0837 C289.25505,174.0837 298.83105,164.5077 298.83105,152.6574 L298.83105,152.6574 Z" id="Path" fill="#7835FF"></path> </g> </g> </g> </svg> 