<?xml version="1.0" encoding="UTF-8"?> <svg xmlns="http://www.w3.org/2000/svg" xmlns:xlink="http://www.w3.org/1999/xlink" width="258px" height="278px" viewBox="0 0 258 278"> <title>illustration 4</title> <g id="About-Us" stroke="none" stroke-width="1" fill="none" fill-rule="evenodd"> <g id="About_Us-1200-(4)" transform="translate(-922.000000, -2241.000000)"> <g id="illustration-4" transform="translate(922.000000, 2241.000000)"> <g id="Group" transform="translate(0.000000, 0.435982)"> <polygon id="Path" fill="#7835FF" points="0.216862673 237.952568 72.5405641 182.327292 115.479373 192.574053 206.344833 99.7568295 244.350017 128.16584 248.68727 0 116.617902 34.643812 155.653183 65.4925272 93.8473217 151.044852 60.287823 144.43054"></polygon> <path d="M42.3424369,227.217865 L14.2045051,236.163451 C14.2045051,236.163451 25.9150894,265.006186 31.0113622,271.132557 C33.9390083,274.656575 44.7279263,272.813242 44.7279263,272.813242 L39.6316535,267.174813 L57.3059613,247.44031 L42.3424369,227.217865 L42.3424369,227.217865 Z" id="Path" fill="#FFFFFF"></path> <path d="M42.3424369,227.217865 L14.2045051,236.163451 C14.2045051,236.163451 25.9150894,265.006186 31.0113622,271.132557 C33.9390083,274.656575 44.7279263,272.813242 44.7279263,272.813242 L39.6316535,267.174813 L57.3059613,247.44031 L42.3424369,227.217865 L42.3424369,227.217865 Z" id="Path" stroke="#000000" stroke-width="1.3" stroke-linecap="round" stroke-linejoin="round"></path> <path d="M162.321711,159.014555 C162.321711,159.014555 175.008177,204.88101 131.41878,234.645412 C105.286828,252.428151 51.6675318,256.006385 51.6675318,256.006385 L34.2100866,228.247963 C34.2100866,228.247963 107.401239,206.182186 118.515451,186.23082 C129.629663,166.279454 148.171421,153.809851 148.171421,153.809851 L162.321711,159.014555 L162.321711,159.014555 Z" id="Path" stroke="#000000" stroke-width="1.3" fill="#FFFFFF" stroke-linecap="round" stroke-linejoin="round"></path> <polygon id="Path" fill="#FFFFFF" points="183.032096 248.849917 172.460041 275.957751 218.543359 276.445692 211.38689 267.71697 211.495322 250.855897"></polygon> <polygon id="Path" stroke="#000000" stroke-width="1.3" stroke-linecap="round" stroke-linejoin="round" points="183.032096 248.849917 172.460041 275.957751 218.543359 276.445692 211.38689 267.71697 211.495322 250.855897"></polygon> <path d="M164.924063,163.026514 C164.924063,163.026514 223.205906,156.954359 240.392273,177.068372 C249.880015,188.128369 245.325899,211.278459 216.971104,256.331679 L176.634647,253.512465 C176.634647,253.512465 205.694245,217.621692 197.887189,205.856892 C193.061994,198.537777 170.020335,205.097873 155.382105,195.826994 C134.834367,182.815233 134.725935,167.634846 134.725935,167.634846" id="Path" stroke="#000000" stroke-width="1.3" fill="#FFFFFF" stroke-linecap="round" stroke-linejoin="round"></path> <polygon id="Path" stroke="#000000" stroke-width="1.3" fill="#FFFFFF" stroke-linecap="round" stroke-linejoin="round" points="125.400841 100.190555 127.677899 117.431137 139.659561 107.347023 132.340446 97.2086931"></polygon> <polygon id="Path" stroke="#000000" stroke-width="1.3" fill="#FFFFFF" stroke-linecap="round" stroke-linejoin="round" points="133.750053 88.1004608 138.575248 90.1606562 137.274072 92.817224"></polygon> <path d="M121.063587,87.0161475 C123.232214,83.9258544 128.707996,84.0342857 133.262112,87.2330101 C137.816229,90.4317346 139.767993,95.5280074 137.653582,98.6183005 C135.484955,101.708594 130.009172,101.600162 125.455056,98.4014378 C120.846724,95.2027134 118.89496,90.1064406 121.063587,87.0161475 L121.063587,87.0161475 Z" id="Path" stroke="#000000" stroke-width="1.3" fill="#FFFFFF" stroke-linecap="round" stroke-linejoin="round"></path> <path d="M128.653781,75.0344848 C132.828387,77.0404645 134.725935,81.6487963 132.991034,85.2812461 C131.201917,88.9136959 126.430938,90.2690876 122.256332,88.2631078 C118.081725,86.2571281 116.184177,81.6487963 117.919078,78.0163465 C119.708195,74.3838968 124.53339,73.0285051 128.653781,75.0344848 L128.653781,75.0344848 Z" id="Path" fill="#000000" fill-rule="nonzero"></path> <path d="M133.316328,89.7811465 C133.966916,90.2148719 134.29221,90.8654599 134.075347,91.1365382 C133.858485,91.4076166 133.207897,91.2991853 132.557309,90.8654599 C131.906721,90.4317346 131.581427,89.7811465 131.798289,89.5100682 C131.960936,89.1847742 132.66574,89.2932055 133.316328,89.7811465 L133.316328,89.7811465 Z" id="Path" fill="#000000" fill-rule="nonzero"></path> <path d="M114.666138,92.3834986 C115.750452,89.4016369 118.623882,87.6667355 121.009371,88.5884018 C123.394861,89.4558525 124.479174,92.654577 123.340645,95.6364387 C122.256332,98.6183005 119.382901,100.353202 116.997412,99.4315355 C114.611923,98.5640848 113.527609,95.3653604 114.666138,92.3834986 L114.666138,92.3834986 Z" id="Path" fill="#000000" fill-rule="nonzero"></path> <path d="M118.02751,86.0944811 C119.545548,83.1126194 123.123782,81.865659 126.051429,83.329482 C128.979075,84.7933051 130.171819,88.4257548 128.653781,91.4076166 C127.135742,94.3894783 123.557508,95.6364387 120.629862,94.1726157 C117.702216,92.7087926 116.509471,89.0763429 118.02751,86.0944811 L118.02751,86.0944811 Z" id="Path" fill="#000000" fill-rule="nonzero"></path> <path d="M115.967314,86.6366378 C116.563687,85.0643834 119.166039,84.6306581 121.768391,85.6607558 C124.370743,86.6908535 125.942997,88.8052645 125.346625,90.3233032 C124.750253,91.8955576 122.1479,92.3292829 119.545548,91.2991853 C116.943196,90.3233032 115.370942,88.2088922 115.967314,86.6366378 L115.967314,86.6366378 Z" id="Path" fill="#000000" fill-rule="nonzero"></path> <path d="M121.605744,90.9738912 C123.937018,90.1064406 126.702017,91.6786949 127.732114,94.4979097 C128.762212,97.3171244 127.732114,100.298986 125.400841,101.166437 C123.069567,102.033888 120.304568,100.461633 119.27447,97.6424184 C118.244372,94.8774194 119.27447,91.8413419 121.605744,90.9738912 L121.605744,90.9738912 Z" id="Path" fill="#000000" fill-rule="nonzero"></path> <path d="M129.79231,100.190555 C128.870643,101.545947 126.756232,101.708594 125.075547,100.515849 C123.449076,99.3773198 122.852704,97.3171244 123.774371,95.9617327 C124.696037,94.606341 126.702017,94.281047 128.328487,95.4737917" id="Path" stroke="#000000" stroke-width="1.3" fill="#FFFFFF" stroke-linecap="round" stroke-linejoin="round"></path> <path d="M148.713578,98.8351631 C148.713578,98.8351631 162.918083,82.5704627 180.646606,65.6009585 C199.079934,47.9266507 207.049637,41.8002802 214.422968,35.5654783 C221.145711,29.9270488 230.7961,27.5415594 225.645611,40.6617512 C218.543359,58.824 213.447086,48.4145917 208.51346,62.2395871 C203.200324,77.0946802 184.98386,107.50967 171.646806,115.804667" id="Path" stroke="#000000" stroke-width="1.3" fill="#FFFFFF" stroke-linecap="round" stroke-linejoin="round"></path> <path d="M138.358385,122.52741 C151.044852,139.225836 183.628468,114.666138 183.628468,114.666138 L157.008575,86.5824221 C157.008575,86.5824221 129.4128,110.708394 138.358385,122.52741 L138.358385,122.52741 Z" id="Path" stroke="#000000" stroke-width="1.3" fill="#FFFFFF" stroke-linecap="round" stroke-linejoin="round"></path> <path d="M122.202116,109.353003 C122.202116,109.353003 130.280251,139.822208 121.605744,172.947982 L181.405626,162.213279 C181.405626,162.213279 176.526216,121.28045 142.099266,105.341043 L122.202116,109.353003 L122.202116,109.353003 Z" id="Path" stroke="#000000" stroke-width="1.3" fill="#FFFFFF" stroke-linecap="round" stroke-linejoin="round"></path> <path d="M99.9736922,128.979075 C99.9736922,128.979075 81.703012,148.06299 91.8413419,157.659163 C104.419377,169.532394 117.431137,157.550732 117.431137,157.550732" id="Path" stroke="#000000" stroke-width="1.3" fill="#FFFFFF" stroke-linecap="round" stroke-linejoin="round"></path> <path d="M131.798289,113.256531 C147.68348,126.973095 120.033489,155.761615 120.033489,155.761615 L94.768988,129.683878 C94.768988,129.683878 99.1062415,125.292409 105.015749,120.792509 C113.473394,114.286629 125.183978,107.563886 131.798289,113.256531 L131.798289,113.256531 Z" id="Path" stroke="#000000" stroke-width="1.3" fill="#FFFFFF" stroke-linecap="round" stroke-linejoin="round"></path> <path d="M97.1544774,136.135543 C110.491532,124.858684 130.117604,110.545747 138.30417,104.690455 C143.020933,101.329084 146.165441,99.2688885 146.761814,98.8893788 C154.352007,94.4979097 163.46024,92.2208516 157.496516,105.015749 C148.008774,125.238194 145.135344,112.009571 139.496914,125.563488 C131.852505,144.05103 120.141921,161.237397 105.828984,162.755436" id="Path" stroke="#000000" stroke-width="1.3" fill="#FFFFFF" stroke-linecap="round" stroke-linejoin="round"></path> </g> </g> </g> </g> </svg> 