<?xml version="1.0" encoding="UTF-8"?> <svg xmlns="http://www.w3.org/2000/svg" xmlns:xlink="http://www.w3.org/1999/xlink" width="1269px" height="23px" viewBox="0 0 1269 23"> <title>Path 14 Copy</title> <g id="About-Us" stroke="none" stroke-width="1" fill="none" fill-rule="evenodd"> <path d="M1169,0.5 C1190.07156,0.5 1207.56323,3.86539881 1228.44723,10.6308352 L1230.0725,11.1639205 L1241.14093,14.9090807 L1246.21584,16.6062426 L1249.43919,17.6630931 L1251.08641,18.1842508 L1251.26994,18.2402185 C1258.2974,20.3687294 1263.65806,21.4304069 1268.51585,21.4966873 L1269,21.5 L1269,22.5 C1264.39096,22.5 1259.40118,21.6211443 1253.06444,19.8111846 L1251.6856,19.4090655 L1250.58892,19.0772495 L1249.0965,18.6032297 L1245.77644,17.5140405 L1236.56052,14.4180982 L1229.34411,11.9750787 C1208.41777,5.10862167 1191.02423,1.63244529 1170.20496,1.50371327 L1169,1.5 L0.37878418,1.5 L0.37878418,0.5 L1169,0.5 Z" id="Path-14-Copy" fill="#000000" fill-rule="nonzero" transform="translate(634.689392, 11.500000) scale(1, -1) translate(-634.689392, -11.500000) "></path> </g> </svg> 