<?xml version="1.0" encoding="UTF-8"?> <svg xmlns="http://www.w3.org/2000/svg" xmlns:xlink="http://www.w3.org/1999/xlink" width="391px" height="166px" viewBox="0 0 391 166"> <title>Path 3</title> <g id="About-Us" stroke="none" stroke-width="1" fill="none" fill-rule="evenodd" stroke-linecap="round"> <g id="Main-1200-(4)-3" transform="translate(-516.000000, -668.000000)" stroke="#000000"> <g id="Group-10" transform="translate(120.000000, 260.458934)"> <path d="M469.185349,408.541066 C404.246654,442.9046 390.987168,488.089639 399.162386,497.607693 C405.873009,505.420583 418.449075,512.28629 439.056585,512.28629 C460.22005,512.28629 494.494832,510.791144 521.306587,502.941651 C540.373308,497.359619 608.015701,471.642829 616.2368,442.9046 C621.11269,425.860112 555.417898,425.800713 453.358336,490.541066 C439.28666,499.467278 422.715719,518.193918 428.21246,533.723014 C434.915159,552.659118 474.563888,550.366595 491.453049,549.604377 C502.751334,549.094479 514.086356,548.897585 525.324954,547.63121 C582.470357,541.192016 634.841375,529.573666 691.797156,490.541066 C754.886633,447.304957 719.082663,433.73801 670.058878,452.164704 C621.035092,470.591399 616.669578,471.028408 567.089199,497.607693 C553.791139,504.73658 533.487026,518.279213 526.690024,534.266758 C525.524599,537.008008 512.222584,564.943364 551.450328,569.498092 C574.29247,572.150291 624.496274,569.498092 647.944041,561.240463 C671.391809,552.982833 679.449301,545.235755 679.449301,537.149083 C679.449301,526.989577 663.689909,528.313397 656.565689,531.419238 C640.684042,538.342925 630.687629,569.073122 655.003554,572.150291 C659.9825,572.780374 665.04437,572.507311 670.058878,572.302389 C680.914968,571.858747 753.064819,565.901089 787,549.604377" id="Path-3"></path> </g> </g> </g> </svg> 