<?xml version="1.0" encoding="UTF-8"?> <svg xmlns="http://www.w3.org/2000/svg" xmlns:xlink="http://www.w3.org/1999/xlink" width="2536px" height="62px" viewBox="0 0 2536 62"> <title>Long line 1</title> <g id="About-Us" stroke="none" stroke-width="1" fill="none" fill-rule="evenodd"> <path d="M0,0.5 L899.326209,0.500977702 L902.92049,0.508676733 L908.258412,0.534556777 C908.847967,0.538386211 909.436344,0.542533292 910.023546,0.546997707 L913.532692,0.577589717 L917.013832,0.615782787 L920.467151,0.661561952 L923.892835,0.714912245 L927.291071,0.775818699 L930.662043,0.844266349 L934.005939,0.920240228 L937.322943,1.00372537 L940.613243,1.09470681 L943.877023,1.19316958 L947.11447,1.29909871 C947.65186,1.31737493 948.188161,1.33596163 948.723376,1.35485849 L951.921672,1.47195911 L955.094099,1.59648867 L958.240843,1.72843222 L961.36209,1.86777479 L964.458027,2.01450141 L967.528838,2.16859711 L970.574711,2.33004692 L973.595831,2.49883589 L976.592383,2.67494905 L979.564554,2.85837142 C980.057895,2.88955009 980.550227,2.92103268 981.041555,2.95281889 L983.977503,3.14717703 L986.889534,3.34880697 L989.777835,3.55769375 L992.642591,3.7738224 L995.483989,3.99717796 L998.302213,4.22774545 L1001.09745,4.46550991 L1003.86989,4.71045639 L1006.61971,4.9625699 L1009.3471,5.22183548 L1012.05225,5.48823817 L1014.73534,5.76176301 L1017.39656,6.04239501 L1020.0361,6.33011923 L1022.65413,6.62492069 L1025.25085,6.92678442 L1027.82645,7.23569547 L1030.3811,7.55163885 L1032.91499,7.87459962 L1035.42832,8.2045628 L1037.92126,8.54151342 L1040.394,8.88543652 L1042.84673,9.23631713 L1045.27964,9.59414029 L1047.6929,9.95889102 C1078.47825,14.67511 1102.90234,20.6861686 1129.37045,29.3365608 L1132.26639,30.2907747 L1134.87466,31.1646267 L1138.15038,32.2847595 L1143.60001,34.169944 L1167.93727,42.656119 L1170.21464,43.4269841 C1170.59239,43.5539363 1170.96925,43.6801274 1171.34525,43.8055598 L1173.5911,44.5490669 C1173.96375,44.6714733 1174.33559,44.7931256 1174.70665,44.914026 L1176.92376,45.630425 L1179.12327,46.3288908 C1179.48846,46.4438135 1179.85296,46.5579936 1180.21681,46.6714335 L1182.39223,47.3432077 C1183.83755,47.7851596 1185.27319,48.2153412 1186.70082,48.6339005 L1188.83646,49.2530413 C1189.19146,49.3547848 1189.54602,49.4558065 1189.90016,49.5561088 L1192.02009,50.1493078 C1192.72518,50.3441753 1193.42878,50.5361836 1194.1311,50.725351 L1196.23444,51.2843496 C1197.28439,51.5596062 1198.33193,51.8285128 1199.37776,52.0911317 L1201.46732,52.6080046 C1213.29758,55.4896545 1224.96717,57.5690455 1237.49216,58.9371273 L1239.71154,59.1711881 C1247.51189,59.9646874 1255.66136,60.4888717 1264.39937,60.7651712 L1266.91216,60.8373872 C1270.706,60.9356491 1274.61212,60.9887559 1278.64937,60.9983947 L1280,61 L2536,61 L2536,62 L1280,62 C1271.39266,62 1263.37944,61.8063882 1255.78301,61.4033359 L1253.39779,61.2690758 C1233.63293,60.0919167 1216.62519,57.4527998 1199.143,53.0632583 L1197.04265,52.5280928 C1194.2386,51.8032869 1191.41909,51.0333747 1188.57089,50.2171747 L1186.42916,49.5963273 C1184.99747,49.1766184 1183.55779,48.7452637 1182.10844,48.3021155 L1179.92699,47.6285297 C1179.19728,47.4010404 1178.46496,47.1705842 1177.7298,46.9371428 L1175.51566,46.2278441 C1175.14515,46.1081289 1174.77388,45.9876627 1174.40183,45.8664433 L1172.15991,45.1300692 C1171.78462,45.0058276 1171.4085,44.880828 1171.03151,44.7550683 L1168.75902,43.9913697 L1164.40825,42.4910678 L1141.21707,34.4018437 L1135.27839,32.3579774 L1133.4038,31.7241445 L1131.95164,31.2399497 L1129.06104,30.2874894 L1126.18667,29.3559447 C1100.86103,21.2185337 1077.15254,15.4836814 1047.54147,10.947359 L1045.10694,10.579445 L1042.65235,10.2185878 L1040.17753,9.86480299 L1037.68227,9.51810595 L1035.16638,9.17851221 L1032.62968,8.84603727 L1030.07198,8.52069663 L1027.49307,8.20250578 L1024.89278,7.89148023 L1022.2709,7.58763547 L1019.62725,7.290987 L1016.96163,7.00155031 L1014.27386,6.7193409 C1013.82404,6.67290913 1013.37329,6.62677914 1012.92161,6.58095127 L1010.20024,6.30961184 L1007.45624,6.04553843 L1004.68941,5.78874655 L1001.89956,5.53925168 L999.086507,5.29706933 C998.61572,5.25731584 998.143957,5.21786769 997.671215,5.17872519 L994.822985,4.94754067 L991.951067,4.72370741 L989.055268,4.50724091 C988.570634,4.47177791 988.084998,4.43662251 987.598354,4.40177503 L984.666376,4.19638772 L981.710039,3.9984059 L978.729151,3.80784508 L975.723522,3.62472075 C975.220511,3.5948206 974.716462,3.56523095 974.211369,3.53595212 L969.637271,3.28084357 L966.556267,3.1201217 L963.449755,2.96689832 L960.317543,2.82118891 L957.159439,2.68300898 C956.630921,2.66060731 956.101315,2.63852001 955.570619,2.61674741 L952.37332,2.48989075 L949.149651,2.37060231 L945.899421,2.25889759 L942.622438,2.15479208 L939.318511,2.05830128 C938.7656,2.04285489 938.211559,2.02772644 937.656383,2.01291623 L934.31168,1.92787655 L930.939553,1.85049033 L927.539812,1.78077305 L924.112264,1.71874022 L920.656719,1.66440734 L917.172984,1.61778989 L913.660868,1.57890339 L910.12018,1.54776332 L906.550729,1.52438518 L902.952321,1.50878448 L899.324767,1.5009767 L0,1.5 L0,0.5 Z" id="Long-line-1" fill="#000000" fill-rule="nonzero"></path> </g> </svg> 