<?xml version="1.0" encoding="UTF-8"?> <svg xmlns="http://www.w3.org/2000/svg" xmlns:xlink="http://www.w3.org/1999/xlink" width="2536px" height="63px" viewBox="0 0 2536 63"> <title>Long line 3</title> <g id="About-Us" stroke="none" stroke-width="1" fill="none" fill-rule="evenodd"> <path d="M1365.7019,0.770617231 L1796.71155,1.00482933 L2536.00035,1.50000012 L2536.00035,2.49999988 L1547.70414,1.85784447 L1300.44013,1.75183027 L1280,1.75 C1279.07307,1.75 1278.15089,1.75150612 1277.23341,1.75451663 L1274.49501,1.76805962 L1271.78449,1.79061857 L1269.10153,1.82218314 L1266.44582,1.86274293 L1263.81706,1.91228757 L1261.21492,1.9708067 L1258.63909,2.03828994 L1256.08926,2.11472691 L1253.56512,2.20010725 L1251.06635,2.29442057 C1250.65199,2.3108833 1250.23867,2.3277178 1249.82638,2.34492386 L1247.36509,2.45261722 C1246.95693,2.47130865 1246.5498,2.49037122 1246.14368,2.50980469 L1243.71915,2.63085474 L1241.31874,2.76079628 L1238.94214,2.89961895 L1236.58904,3.04731236 L1234.25911,3.20386614 L1231.95205,3.36926993 L1229.66755,3.54351334 C1229.28866,3.57328997 1228.9107,3.60343449 1228.53366,3.63394667 L1226.2824,3.82143007 L1224.05292,4.01772717 L1221.84489,4.22282759 L1219.65801,4.43672095 C1219.29527,4.47310201 1218.9334,4.50984902 1218.5724,4.54696175 L1216.41665,4.77402508 C1215.70147,4.8511746 1214.98969,4.92978529 1214.28126,5.00985543 L1212.16592,5.25444241 L1210.07032,5.50777566 L1207.99414,5.76984481 L1205.93707,6.04063947 L1203.89879,6.32014928 L1201.879,6.60836386 C1201.5439,6.65712444 1201.20954,6.7062473 1200.87594,6.7557322 L1198.88329,7.05698449 L1196.90834,7.36691561 L1194.95078,7.6855152 L1193.01029,8.01277289 L1191.08656,8.34867829 C1190.76732,8.40538259 1190.44877,8.46244678 1190.13089,8.51987064 L1188.23172,8.86872817 L1186.34852,9.22620748 L1184.481,9.5922982 L1182.62882,9.96698996 L1180.85315,10.337001 L1179.16265,10.6978536 L1177.49696,11.0618286 L1175.85389,11.4295266 C1175.58181,11.4911532 1175.31059,11.55296 1175.04017,11.6149594 L1173.42696,11.9893682 C1173.15959,12.0521883 1172.89293,12.1152262 1172.62694,12.1784942 L1171.03868,12.5609651 L1169.46433,12.9495614 L1167.90171,13.3448838 L1166.34863,13.747533 C1166.09046,13.8152851 1165.83259,13.8833676 1165.57499,13.9517928 L1164.03214,14.3665582 L1162.49338,14.7901519 C1162.23714,14.8615199 1161.98098,14.9332808 1161.72486,15.0054471 L1160.18815,15.4434093 L1158.65009,15.8917013 C1158.39351,15.9673109 1158.13678,16.0433758 1157.87987,16.1199087 L1156.33567,16.5848216 L1154.78467,17.0615659 L1153.22467,17.550742 L1151.6535,18.0529508 L1150.06898,18.5687927 L1148.46892,19.0988685 L1146.85115,19.6437786 C1146.57992,19.7358665 1146.30787,19.8285976 1146.03494,19.9219843 L1144.3865,20.4902722 L1142.7149,21.0748961 L1141.01794,21.6764565 L1139.29346,22.2955541 L1137.53927,22.9327895 L1134.8475,23.9239648 L1132.07662,24.9593286 L1129.21926,26.0409079 L1126.26806,27.1707299 L1123.21567,28.3508216 L1113.63412,32.0909129 L1111.12269,33.0652853 L1108.66502,34.011 L1106.25797,34.9288517 L1103.89843,35.8196351 L1101.58325,36.684145 L1099.30933,37.5231761 L1097.07352,38.3375232 L1094.8727,39.127981 C1094.14458,39.3875737 1093.42177,39.6433173 1092.70375,39.8953443 L1090.56353,40.6404078 C1090.20905,40.7627709 1089.85563,40.8842379 1089.50322,41.0048255 L1087.40025,41.7179294 C1086.35425,42.069337 1085.3161,42.4131272 1084.28403,42.7497471 L1082.22749,43.4135589 C1081.20275,43.7408171 1080.18293,44.061203 1079.16626,44.3751637 L1077.13661,44.9946507 C1074.09688,45.911428 1071.07498,46.7730606 1068.02341,47.5916188 L1065.98412,48.1310753 C1065.64333,48.2199653 1065.30205,48.3083567 1064.9602,48.3962659 L1062.90186,48.9180684 L1060.82692,49.4290949 L1058.73224,49.9301403 C1058.38131,50.0128602 1058.02942,50.0951974 1057.67652,50.1771684 L1055.54637,50.6647322 C1053.04574,51.2287387 1050.48885,51.7764235 1047.85337,52.3134657 L1045.57462,52.7713137 L1043.45717,53.1853392 L1041.51957,53.5535266 L1039.56536,53.9144669 L1037.59432,54.268149 L1035.60621,54.6145618 C1035.27342,54.6716909 1034.93992,54.7285166 1034.60569,54.7850388 L1032.59155,55.1205268 L1030.55977,55.4487176 C1030.21966,55.5028074 1029.8788,55.5565927 1029.53719,55.6100732 L1027.47852,55.9272975 L1025.40163,56.2371969 L1023.30629,56.5397603 C1022.95551,56.5895755 1022.60396,56.6390847 1022.25163,56.6882874 L1020.12818,56.9798258 L1017.98571,57.2640004 L1015.82398,57.5407999 L1013.64276,57.8102134 L1011.44182,58.0722296 L1009.22094,58.3268374 L1006.97987,58.5740258 L1004.7184,58.8137835 L1002.43628,59.0460996 L1000.13329,59.2709627 L997.809199,59.4883619 L995.463773,59.698286 L993.096783,59.9007238 C992.700475,59.933839 992.303259,59.9666418 991.905129,59.9991319 L989.50536,60.1903196 C989.10356,60.2215583 988.700837,60.252484 988.297187,60.2830963 L985.86412,60.4630088 L983.408564,60.6353905 L980.930291,60.8002303 L978.429069,60.9575172 L975.904667,61.10724 L973.356855,61.2493875 L970.785401,61.3839488 C970.354843,61.4057428 969.92329,61.4272203 969.490737,61.448381 L966.883389,61.5715419 L964.251823,61.6870886 L961.595808,61.79501 L958.915113,61.895295 L956.209508,61.9879325 C955.756485,62.0027342 955.302415,62.0172167 954.847292,62.03138 L952.103889,62.1125253 C951.644537,62.1254102 951.184124,62.1379754 950.722644,62.1502204 L947.940923,62.2198486 L945.133369,62.2817848 L942.299751,62.3360178 L939.439837,62.3825365 L936.553398,62.4213299 L933.640203,62.4523867 C933.152428,62.4569175 932.663528,62.4611255 932.1735,62.4650105 L929.219737,62.4844417 L926.238641,62.4961086 L923.22998,62.5 L0,62.5 L0,61.5 L924.735949,61.4990285 L927.727151,61.4912607 L932.162549,61.4650681 L936.536952,61.4214601 C937.019637,61.4156487 937.501207,61.4095155 937.981667,61.4030607 L940.851139,61.3604749 L943.694195,61.3101827 L946.511064,61.2521954 L949.301978,61.1865243 L952.067166,61.1131805 L954.806861,61.0321754 L957.521292,60.9435202 L960.210689,60.8472261 L962.875285,60.7433045 L965.515309,60.6317665 C965.953278,60.6125428 966.390233,60.5930021 966.826178,60.5731449 L969.429777,60.4502035 L972.00938,60.3196739 L974.565219,60.1815673 L977.097525,60.0358951 C977.517627,60.0109865 977.936759,59.9857632 978.354924,59.9602254 L980.852361,59.8032257 L983.326841,59.6386885 L985.778594,59.4666249 L988.207851,59.2870464 L990.614843,59.099964 L992.9998,58.9053891 L995.362953,58.703333 L997.704533,58.4938068 C998.093011,58.4582638 998.4806,58.4224101 998.867305,58.3862459 L1001.17696,58.1655358 L1003.46561,57.9373837 L1005.7335,57.7018011 C1006.10977,57.6619187 1006.48517,57.6217272 1006.85973,57.5812268 L1009.0969,57.3345193 L1011.31389,57.0804093 L1013.51091,56.818908 L1015.68821,56.5500268 L1017.84601,56.2737769 L1019.98454,55.9901694 L1022.10403,55.6992158 L1024.20472,55.4009271 C1024.55328,55.3506017 1024.90107,55.2999712 1025.24809,55.2490357 L1027.321,54.9397657 L1029.37568,54.6231889 L1031.41237,54.2993165 L1033.43129,53.9681598 L1035.43267,53.6297301 L1037.41674,53.2840385 L1039.38374,52.9310963 L1041.33389,52.5709149 C1041.65753,52.510282 1041.98047,52.449348 1042.30272,52.388113 L1044.22804,52.0170937 L1045.37963,51.790507 L1047.65205,51.3339343 L1049.88606,50.8721669 C1050.25537,50.7947286 1050.62321,50.7170408 1050.98964,50.6390868 L1053.17191,50.1680372 L1055.32359,49.6898061 C1057.46101,49.2077193 1059.55723,48.7136682 1061.62631,48.2040766 L1063.68686,47.6891723 C1064.37104,47.5157225 1065.05273,47.3404136 1065.73244,47.163113 L1067.76618,46.6251039 C1068.44246,46.4436876 1069.11729,46.2601472 1069.79119,46.0743503 L1071.8106,45.5100576 C1075.17336,44.5578455 1078.52582,43.5459089 1081.93306,42.4576913 L1083.9845,41.7954745 C1085.01402,41.4596568 1086.04965,41.1166758 1087.09314,40.7660845 L1089.19112,40.0546223 C1089.89428,39.8139976 1090.60146,39.569858 1091.31318,39.3220712 L1093.46244,38.5676364 L1095.64204,37.7905233 C1096.00801,37.6590705 1096.37537,37.5266396 1096.74419,37.3932141 L1098.97515,36.5805934 L1101.24424,35.7433076 C1101.62578,35.6016604 1102.00903,35.4589524 1102.39407,35.3151669 L1104.72624,34.4393934 L1107.10436,33.536968 L1109.53156,32.6070959 L1122.85596,27.4177529 L1126.91086,25.8525431 L1129.83588,24.7367981 L1132.66953,23.6686534 L1134.51151,22.9819999 L1136.31833,22.3149999 L1138.96744,21.3500354 L1140.69595,20.72954 L1142.39694,20.1265947 L1144.07261,19.5405989 L1145.72515,18.9709515 L1147.35672,18.4170516 C1147.62703,18.3260139 1147.89655,18.2356073 1148.16533,18.1458193 L1149.76957,17.6144141 L1151.35831,17.0972542 C1151.62193,17.0122147 1151.88499,16.9277436 1152.14755,16.8438285 L1153.71713,16.34691 L1155.27668,15.8627345 L1156.82838,15.3907013 L1158.3744,14.9302093 L1159.91694,14.4806577 C1160.17386,14.4066107 1160.43072,14.3329946 1160.68758,14.2597968 L1162.22898,13.8255291 C1162.48598,13.7539543 1162.74307,13.6827728 1163.00028,13.6119721 L1164.54546,13.1916363 L1166.09589,12.7798373 L1167.65374,12.3759742 L1169.22122,11.9794461 L1170.80049,11.5896522 L1172.39374,11.2059914 L1174.00316,10.827863 L1175.63093,10.454666 L1177.27923,10.0857995 L1178.95025,9.72066266 L1180.64617,9.35865454 L1181.50416,9.17863598 C1182.42519,8.98647965 1183.35179,8.79755331 1184.28415,8.61186271 L1186.15659,8.2447975 L1188.04468,7.88637109 L1189.94874,7.53659364 C1190.26743,7.47901871 1190.5868,7.42180458 1190.90685,7.36495146 L1192.83545,7.02816656 L1194.78079,6.70005609 L1196.7432,6.38063022 L1198.72298,6.06989913 L1200.72045,5.76787301 L1202.73593,5.47456204 L1204.76971,5.1899764 C1205.11022,5.14327314 1205.45151,5.09693385 1205.79358,5.05095876 L1207.85543,4.7794802 L1209.93637,4.51675242 L1212.03673,4.2627856 L1214.15682,4.01758993 L1216.29695,3.78117558 L1218.45742,3.55355273 L1220.63856,3.33473157 L1222.84068,3.12472228 L1225.0641,2.92353503 L1227.30911,2.73118001 L1229.57605,2.5476674 L1231.86521,2.37300739 L1234.17693,2.20721014 C1234.56411,2.1803164 1234.95224,2.15379236 1235.34133,2.12763824 L1237.68745,1.97515424 L1240.05689,1.83155847 L1242.44998,1.6968611 C1242.85081,1.67515364 1243.25264,1.65381737 1243.65548,1.6328525 L1246.08462,1.51152183 L1248.53817,1.39911501 L1251.01647,1.29564224 L1253.51982,1.20111368 L1256.04853,1.11553952 L1258.60292,1.03892995 C1259.0308,1.0269093 1259.45978,1.0152626 1259.88984,1.00399006 L1262.48333,0.940846449 L1265.10328,0.886692869 C1265.54216,0.878417008 1265.98216,0.870516155 1266.42328,0.862990524 L1269.08351,0.822341084 L1271.77098,0.790707131 L1274.48601,0.768098846 L1277.22891,0.754526408 C1277.68841,0.753017888 1278.14907,0.751886286 1278.61091,0.751131814 L1365.7019,0.770617231 Z" id="Long-line-3" fill="#000000" fill-rule="nonzero"></path> </g> </svg> 