<?xml version="1.0" encoding="UTF-8"?> <svg xmlns="http://www.w3.org/2000/svg" xmlns:xlink="http://www.w3.org/1999/xlink" width="342px" height="144px" viewBox="0 0 342 144"> <title>Shape</title> <g id="About-Us" stroke="none" stroke-width="1" fill="none" fill-rule="evenodd"> <g id="Group-Copy" fill="#000000"> <path d="M170.782609,0.5 C263.860496,0.5 339.538151,31.7577845 341.042397,70.814112 L341.065217,72 L340.065217,72 C340.065217,33.1831214 264.301232,1.5 170.782609,1.5 C77.2639859,1.5 1.5,33.1831214 1.5,72 C1.5,110.42871 75.7562825,141.865624 167.982434,142.49052 L170.782609,142.5 L170.782609,143.5 C76.7645404,143.5 0.5,111.607556 0.5,72 C0.5,32.3924442 76.7645404,0.5 170.782609,0.5 Z M170.782609,10.5 C241.02842,10.5 298.021739,34.3335697 298.021739,64 C298.021739,93.6664303 241.02842,117.5 170.782609,117.5 C101.239255,117.5 44.6846699,94.1407184 43.5605325,64.8882251 L43.5434783,64 L44.5434783,64 C44.5434783,92.8757531 101.036242,116.5 170.782609,116.5 C240.528975,116.5 297.021739,92.8757531 297.021739,64 C297.021739,35.4130044 241.653181,11.9730101 172.87098,11.5070689 L170.782609,11.5 L170.782609,10.5 Z M170.782609,23.6272727 C215.935483,23.6272727 252.586957,38.9542526 252.586957,58.1272727 C252.586957,77.1085626 216.664847,92.3203485 172.134616,92.6226861 L170.782609,92.6272727 L170.782609,91.6272727 C215.436037,91.6272727 251.586957,76.5096156 251.586957,58.1272727 C251.586957,39.7449298 215.436037,24.6272727 170.782609,24.6272727 C126.575714,24.6272727 90.7021295,39.4440885 89.9890785,57.5767937 L89.9782609,58.1272727 L88.9782609,58.1272727 C88.9782609,38.9542526 125.629735,23.6272727 170.782609,23.6272727 Z M170.323261,45.5015719 L170.782609,45.5 C171.089434,45.5 171.395085,45.5021013 171.699485,45.5062714 L172.608852,45.5249554 C173.51431,45.5497806 174.407804,45.592932 175.287235,45.653531 L176.1619,45.7199133 L176.1619,45.7199133 L177.026722,45.7977322 C177.313304,45.8255563 177.598168,45.8552539 177.881235,45.8867925 L178.724972,45.9868988 L178.724972,45.9868988 L179.557466,46.0978561 L179.557466,46.0978561 L180.37825,46.219469 L180.37825,46.219469 L181.186857,46.3515425 L181.186857,46.3515425 L181.98282,46.4938812 C182.114401,46.5184489 182.245436,46.5434362 182.375915,46.568839 L183.152038,46.7262095 C183.536686,46.8073554 183.916154,46.8921677 184.290182,46.9805367 L185.030903,47.1619843 L185.030903,47.1619843 L185.756647,47.3527211 C185.87633,47.3852738 185.995369,47.4182054 186.113756,47.4515119 L186.816158,47.6558164 L186.816158,47.6558164 L187.502415,47.8689221 C188.06744,48.0501231 188.615161,48.2402887 189.144362,48.4389103 L189.770437,48.6812828 C190.695982,49.0508322 191.559949,49.4471207 192.355248,49.8671835 L192.875197,50.1507149 C196.272664,52.0639714 198.282609,54.4338284 198.282609,57 C198.282609,59.5661716 196.272664,61.9360286 192.875197,63.8492851 L192.355248,64.1328165 C191.559949,64.5528793 190.695982,64.9491678 189.770437,65.3187172 L189.144362,65.5610897 C188.615161,65.7597113 188.06744,65.9498769 187.502415,66.1310779 L186.816158,66.3441836 L186.816158,66.3441836 L186.113756,66.5484881 C185.995369,66.5817946 185.87633,66.6147262 185.756647,66.6472789 L185.030903,66.8380157 L185.030903,66.8380157 L184.290182,67.0194633 C183.916154,67.1078323 183.536686,67.1926446 183.152038,67.2737905 L182.375915,67.431161 C182.245436,67.4565638 182.114401,67.4815511 181.98282,67.5061188 L181.186857,67.6484575 L181.186857,67.6484575 L180.37825,67.780531 L180.37825,67.780531 L179.557466,67.9021439 L179.557466,67.9021439 L178.724972,68.0131012 L178.724972,68.0131012 L177.881235,68.1132075 C177.598168,68.1447461 177.313304,68.1744437 177.026722,68.2022678 L176.1619,68.2800867 L176.1619,68.2800867 L175.287235,68.346469 C174.407804,68.407068 173.51431,68.4502194 172.608852,68.4750446 L171.699485,68.4937286 C171.395085,68.4978987 171.089434,68.5 170.782609,68.5 C170.475784,68.5 170.170133,68.4978987 169.865733,68.4937286 L168.956365,68.4750446 C168.050908,68.4502194 167.157413,68.407068 166.277983,68.346469 L165.403318,68.2800867 L165.403318,68.2800867 L164.538495,68.2022678 C164.251913,68.1744437 163.96705,68.1447461 163.683982,68.1132075 L162.840245,68.0131012 L162.840245,68.0131012 L162.007752,67.9021439 L162.007752,67.9021439 L161.186968,67.780531 L161.186968,67.780531 L160.378361,67.6484575 L160.378361,67.6484575 L159.582397,67.5061188 C159.450816,67.4815511 159.319781,67.4565638 159.189303,67.431161 L158.41318,67.2737905 C158.028532,67.1926446 157.649063,67.1078323 157.275036,67.0194633 L156.534315,66.8380157 L156.534315,66.8380157 L155.808571,66.6472789 C155.449521,66.5496208 155.096263,66.4485524 154.749059,66.3441836 L154.062802,66.1310779 C153.497778,65.9498769 152.950057,65.7597113 152.420855,65.5610897 L151.79478,65.3187172 C146.550026,63.2246037 143.282609,60.2718687 143.282609,57 C143.282609,53.7281313 146.550026,50.7753963 151.79478,48.6812828 L152.420855,48.4389103 C152.950057,48.2402887 153.497778,48.0501231 154.062802,47.8689221 L154.749059,47.6558164 C155.096263,47.5514476 155.449521,47.4503792 155.808571,47.3527211 L156.534315,47.1619843 L156.534315,47.1619843 L157.275036,46.9805367 C157.524387,46.921624 157.776157,46.8642921 158.030268,46.8085735 L158.799544,46.6462899 C159.058258,46.5938303 159.319235,46.5430166 159.582397,46.4938812 L160.378361,46.3515425 L160.378361,46.3515425 L161.186968,46.219469 L161.186968,46.219469 L162.007752,46.0978561 L162.007752,46.0978561 L162.840245,45.9868988 L162.840245,45.9868988 L163.683982,45.8867925 C163.96705,45.8552539 164.251913,45.8255563 164.538495,45.7977322 L165.403318,45.7199133 L165.403318,45.7199133 L166.277983,45.653531 C167.157413,45.592932 168.050908,45.5497806 168.956365,45.5249554 L169.865733,45.5062714 C170.017933,45.5041863 170.170445,45.5026185 170.323261,45.5015719 L170.323261,45.5015719 Z" id="Shape"></path> </g> </g> </svg> 