<?xml version="1.0" encoding="UTF-8"?> <svg xmlns="http://www.w3.org/2000/svg" xmlns:xlink="http://www.w3.org/1999/xlink" width="321px" height="253px" viewBox="0 0 321 253"> <title>Group 166</title> <g id="Main" stroke="none" stroke-width="1" fill="none" fill-rule="evenodd"> <g id="404" transform="translate(-540.000000, -93.000000)"> <g id="Group-3" transform="translate(386.000000, 93.000000)"> <g id="Group-166" transform="translate(155.000000, 0.000000)"> <path d="M222.296676,29.217678 L217.831236,28.246218 L216.818196,23.790018 C216.782496,23.632098 216.642216,23.520378 216.480096,23.520378 C216.318396,23.520378 216.177696,23.632098 216.141996,23.790018 L215.124336,28.266798 L210.657216,29.326038 C210.499716,29.363418 210.388836,29.504958 210.390497,29.666658 C210.391776,29.828778 210.505176,29.967798 210.663516,30.002238 L215.129376,30.973698 L216.141996,35.429898 C216.177696,35.587818 216.318396,35.699958 216.480096,35.699958 C216.642216,35.699958 216.782496,35.587818 216.818196,35.429898 L217.835436,30.953118 L222.302976,29.893878 C222.460476,29.856498 222.571356,29.715378 222.569695,29.553258 C222.567996,29.391558 222.454596,29.252118 222.296676,29.217678" id="Fill-1" fill="#7835FF"></path> <path d="M54.716676,6.117678 L50.251236,5.146218 L49.238196,0.690018 C49.202496,0.532098 49.062216,0.420378 48.900096,0.420378 C48.738396,0.420378 48.597696,0.532098 48.561996,0.690018 L47.544336,5.166798 L43.077216,6.226038 C42.919716,6.263418 42.808836,6.404958 42.8104972,6.566658 C42.811776,6.728778 42.925176,6.867798 43.083516,6.902238 L47.549376,7.873698 L48.561996,12.329898 C48.597696,12.487818 48.738396,12.599958 48.900096,12.599958 C49.062216,12.599958 49.202496,12.487818 49.238196,12.329898 L50.255436,7.853118 L54.722976,6.793878 C54.880476,6.756498 54.991356,6.615378 54.9896948,6.453258 C54.987996,6.291558 54.874596,6.152118 54.716676,6.117678" id="Fill-3" fill="#7835FF"></path> <path d="M230.408556,10.087182 L228.098556,9.584862 L227.574816,7.279902 C227.556336,7.198422 227.484096,7.140462 227.400096,7.140462 C227.316516,7.140462 227.243856,7.198422 227.224956,7.279902 L226.698696,9.595362 L224.388696,10.143042 C224.307216,10.162782 224.249676,10.235862 224.250507,10.319442 C224.251356,10.403022 224.309736,10.475262 224.391636,10.492902 L226.701216,10.995642 L227.224956,13.300182 C227.243856,13.382082 227.316516,13.439622 227.400096,13.439622 C227.484096,13.439622 227.556336,13.382082 227.574816,13.300182 L228.101076,10.984722 L230.411916,10.437042 C230.493396,10.417722 230.550516,10.344642 230.549685,10.261062 C230.548836,10.177062 230.490456,10.104822 230.408556,10.087182" id="Fill-5" fill="#7835FF"></path> <path d="M101.402532,72.78264 L98.015232,72.04596 L97.246632,68.66496 C97.219332,68.54526 97.113072,68.46042 96.990012,68.46042 C96.867372,68.46042 96.760692,68.54526 96.733392,68.66496 L95.961852,72.0615 L92.572872,72.86496 C92.453172,72.8931 92.369172,73.00062 92.370418,73.12326 C92.371692,73.24632 92.457792,73.35174 92.577492,73.37778 L95.965212,74.11446 L96.733392,77.49546 C96.760692,77.61516 96.867372,77.7 96.990012,77.7 C97.113072,77.7 97.219332,77.61516 97.246632,77.49546 L98.018592,74.09892 L101.407572,73.29546 C101.526852,73.26732 101.610852,73.1598 101.609606,73.03716 C101.608752,72.9141 101.522652,72.80868 101.402532,72.78264" id="Fill-7" fill="#7835FF"></path> <path d="M125.130474,20.79 C125.130474,31.57602 116.386494,40.32 105.600474,40.32 C94.814454,40.32 86.070474,31.57602 86.070474,20.79 C86.070474,10.00398 94.814454,1.26 105.600474,1.26 C116.386494,1.26 125.130474,10.00398 125.130474,20.79" id="Fill-11" stroke="#000000" stroke-width="1.3"></path> <path d="M183.510474,43.68 C183.510474,43.68 178.470474,29.82 165.030474,33.6 C165.030474,33.6 163.350474,13.44 141.510474,12.18 C119.670474,10.92 112.950474,28.14 112.950474,28.14 C112.950474,28.14 94.470474,18.06 81.870474,33.6 C81.870474,33.6 67.590474,33.6 64.650474,43.68 L183.510474,43.68 Z" id="Fill-15" stroke="#000000" stroke-width="1.3" fill="#FFFFFF"></path> <path d="M257.010474,69.72 C257.010474,69.72 254.462334,62.7123 247.666734,64.6233 C247.666734,64.6233 246.817494,54.43032 235.774854,53.7936 C224.732214,53.15604 221.334834,61.86264 221.334834,61.86264 C221.334834,61.86264 211.991094,56.76636 205.620534,64.6233 C205.620534,64.6233 198.400314,64.6233 196.913934,69.72 L257.010474,69.72 Z" id="Fill-19" stroke="#000000" stroke-width="1.3" fill="#FFFFFF"></path> <polygon id="Fill-23" fill="#4F3CC9" points="84.077322 109.736676 82.602282 125.628216 87.202542 126.055356 88.677582 110.163816"></polygon> <polygon id="Fill-25" fill="#4F3CC9" points="47.117322 105.956676 45.642282 121.848216 50.242542 122.275356 51.717582 106.383816"></polygon> <path d="M78.28527,221.47524 C77.30709,221.47524 76.26465,221.42106 75.16173,221.31312 C72.40443,221.04222 70.28301,220.5945 68.67735,219.9435 C67.03263,219.28074 65.80833,218.5554 64.93683,217.72758 C64.00653,216.84726 63.38367,215.66706 63.08715,214.22142 C62.66547,212.48682 62.61801,210.03738 62.94225,206.73366 L64.43451,191.54226 L29.15745,188.07768 C22.29969,187.404 18.33321,184.98606 17.36889,180.89064 C17.02407,179.2434 16.98333,177.20094 17.23701,174.61626 C17.48691,172.07148 17.81199,170.22978 18.23073,168.98532 L33.86103,124.90716 C34.63131,122.81682 35.26257,121.27962 35.79639,120.1935 C36.40245,118.95912 37.46715,117.83016 38.96067,116.8377 C40.51467,115.80744 42.40383,115.39416 44.57775,115.60668 C46.56477,115.80198 48.73155,116.35134 51.01845,117.23922 C57.70191,119.77854 60.86283,123.43044 60.40503,128.09076 C60.25215,129.64896 59.73681,131.5755 58.83045,133.98084 L58.78551,134.10054 L58.71747,134.20848 C58.71537,134.21226 58.71285,134.21562 58.71117,134.21856 L47.75295,164.9151 L66.86547,166.7925 L70.35651,131.2458 C70.56693,129.1038 70.78953,127.5561 71.03733,126.5145 C71.30949,125.36874 71.90127,124.16418 72.84711,122.83236 C73.88241,121.37202 75.48723,120.43836 77.61747,120.05658 C79.52973,119.71596 81.98253,119.6895 84.91035,119.97678 C87.86421,120.267 90.25989,120.82266 92.03061,121.62864 C93.96555,122.51232 95.30955,123.80298 96.02691,125.46408 C96.67959,126.98406 97.02651,128.38434 97.05927,129.62838 C97.08993,130.78212 97.00299,132.38316 96.79257,134.52264 L89.43165,209.47164 C89.06415,213.21216 88.33251,215.88924 87.19473,217.65576 C85.99101,219.5235 84.29505,220.69152 82.15347,221.12706 C81.01191,221.3589 79.71831,221.47524 78.28527,221.47524 L78.28527,221.47524 Z" id="Path" stroke="#000000" stroke-width="1.3" fill="#FFFFFF"></path> <polygon id="Fill-95" fill="#4F3CC9" points="273.604968 105.536676 275.080008 121.428216 270.479748 121.855356 269.004708 105.963816"></polygon> <polygon id="Fill-97" fill="#4F3CC9" points="236.644968 109.316676 238.120008 125.208216 233.519748 125.635356 232.044708 109.743816"></polygon> <path d="M278.645724,218.545866 C277.148844,218.545866 275.880024,218.430786 274.805664,218.199786 C273.074004,217.828086 271.744704,217.325346 270.742164,216.661746 C269.669064,215.946486 268.854264,214.891446 268.315824,213.523506 C267.598464,211.877526 267.130164,209.472186 266.884044,206.170986 L265.742904,190.951446 L230.396964,193.599546 C224.161224,194.067846 220.009524,192.702846 218.061984,189.538566 C217.873824,189.231546 217.702044,188.901006 217.550844,188.553666 L217.534044,188.513346 C217.317744,187.964406 217.129164,187.362126 216.973764,186.723306 C216.678084,185.508666 216.463464,184.051266 216.337044,182.392686 C216.147624,179.841186 216.150984,177.971346 216.347544,176.673546 L224.167104,130.561326 C224.560224,128.415126 224.928984,126.746886 225.266244,125.585586 C225.652644,124.261746 226.507344,122.966466 227.805984,121.734186 C229.161744,120.453186 230.951364,119.721126 233.126544,119.556486 C235.130364,119.409906 237.358884,119.579166 239.753304,120.060906 C246.771084,121.412886 250.513284,124.466706 250.866504,129.135006 C250.931184,130.006086 250.903464,131.024586 250.783344,132.163206 C250.699764,132.979266 250.570404,133.869666 250.400304,134.805846 C250.381404,134.925126 250.354104,135.067926 250.326384,135.210726 L250.303704,135.328326 L250.259184,135.439206 C250.255824,135.447606 250.252464,135.455586 250.249524,135.463566 L250.249524,135.463986 L244.732824,167.584746 L263.883564,166.148766 L261.209844,130.534446 C261.048564,128.383626 261.002784,126.819546 261.069984,125.752326 C261.138864,124.585986 261.514764,123.297006 262.218684,121.816926 C262.987704,120.202026 264.407304,119.005866 266.438004,118.260786 C268.258284,117.597606 270.670344,117.149466 273.610344,116.927286 C276.619644,116.704266 279.006924,116.837826 280.911204,117.334266 C282.971304,117.872706 284.517744,118.912626 285.507684,120.425466 C286.427064,121.837506 286.992804,123.120186 287.238924,124.349946 C287.466984,125.469666 287.656824,127.062726 287.818104,129.215226 L293.450304,204.315006 C293.732544,208.060566 293.471724,210.823746 292.653144,212.762466 C291.788784,214.809126 290.319204,216.251406 288.285984,217.048986 C286.462344,217.762146 284.154864,218.228346 281.427804,218.434146 C280.422744,218.508486 279.497484,218.545866 278.645724,218.545866 L278.645724,218.545866 Z" id="Path" stroke="#000000" stroke-width="1.3" fill="#FFFFFF"></path> <path d="M186.450474,251.79 L186.450474,251.79 C184.478994,251.79 182.880474,250.19148 182.880474,248.22 L182.880474,226.2624 C182.880474,220.70118 180.291594,215.40246 175.955094,212.08824 C175.343154,211.62078 174.944154,211.3755 174.940374,211.3734 L178.627134,205.25862 C178.743474,205.32834 179.370534,205.71264 180.290334,206.4153 C186.382854,211.07142 190.020474,218.49114 190.020474,226.2624 L190.020474,248.22 C190.020474,250.19148 188.421954,251.79 186.450474,251.79" id="Fill-125" stroke="#000000" stroke-width="1.3" fill="#FFFFFF"></path> <path d="M135.420474,216.51 L135.420474,239.82 C135.420474,243.41562 138.334854,246.33 141.930474,246.33 C145.526094,246.33 148.440474,243.41562 148.440474,239.82 L148.440474,216.51 L135.420474,216.51 Z" id="Fill-129" stroke="#000000" stroke-width="1.3" fill="#FFFFFF"></path> <path d="M176.580474,216.51 L176.580474,239.82 C176.580474,243.41562 173.666094,246.33 170.070474,246.33 C166.474854,246.33 163.560474,243.41562 163.560474,239.82 L163.560474,216.51 L176.580474,216.51 Z" id="Fill-136" stroke="#000000" stroke-width="1.3" fill="#FFFFFF"></path> <path d="M146.130474,131.46 C146.130474,131.46 156.420474,128.73 165.660474,131.25 C165.660474,131.25 170.700474,122.85 175.320474,120.75 C175.320474,120.75 183.300474,150.15 184.560474,193.83 C184.560474,193.83 187.290474,228.06 156.000474,227.01 C156.000474,227.01 125.550474,228.9 127.860474,190.05 C127.860474,190.05 129.120474,136.29 136.050474,120.96 C136.050474,120.96 144.030474,126.42 146.130474,131.46 Z" id="Fill-140" stroke="#000000" stroke-width="1.3" fill="#FFFFFF"></path> <path d="M148.8,187.2 L148.8,210 C148.8,213.313708 146.113708,216 142.8,216 C139.486292,216 136.8,213.313708 136.8,210 L136.8,183.6" id="Path" stroke="#000000" stroke-width="1.3" fill="#FFFFFF" stroke-linecap="round"></path> <path d="M175.2,183.6 L175.2,210 C175.2,213.313708 172.513708,216 169.2,216 C165.886292,216 163.2,213.313708 163.2,210 L163.2,187.2" id="Path-Copy" stroke="#000000" stroke-width="1.3" fill="#FFFFFF" stroke-linecap="round"></path> <polygon id="Fill-159" fill="#4F3CC9" points="134.24187 109.010286 136.65225 124.787166 141.21891 124.089546 138.80895 108.312666"></polygon> <polygon id="Fill-160" fill="#4F3CC9" points="173.2206 124.95 177.8406 124.95 177.8406 108.99 173.2206 108.99"></polygon> <path d="M0,109.2 C79.2,117.6 198,124.8 319.2,109.2" id="Path-2" stroke="#000000" stroke-width="1.3"></path> <polygon id="Fill-91" fill="#7835FF" points="46.482618 105.561078 42.624498 121.047738 47.107578 122.164518 50.965698 106.677858"></polygon> <polygon id="Fill-93" fill="#7835FF" points="83.442618 109.341078 79.584498 124.827738 84.067578 125.944518 87.925698 110.457858"></polygon> <polygon id="Fill-121" fill="#7835FF" points="274.239504 105.141078 278.097624 120.627738 273.614544 121.744518 269.756424 106.257858"></polygon> <polygon id="Fill-123" fill="#7835FF" points="237.279504 108.921078 241.137624 124.407738 236.654544 125.524518 232.796424 110.037858"></polygon> <polygon id="Fill-161" fill="#7835FF" points="177.129036 109.220286 174.718656 124.997166 170.151996 124.299546 172.561956 108.522666"></polygon> <polygon id="Fill-162" fill="#7835FF" points="133.5306 124.74 138.1506 124.74 138.1506 108.78 133.5306 108.78"></polygon> <line x1="140.4" y1="206.4" x2="140.4" y2="214.8" id="Path-3" stroke="#000000" stroke-width="1.3" stroke-linecap="round"></line> <line x1="144" y1="206.4" x2="144" y2="214.8" id="Path-4" stroke="#000000" stroke-width="1.3" stroke-linecap="round"></line> <line x1="168" y1="206.4" x2="168" y2="214.8" id="Path-3-Copy" stroke="#000000" stroke-width="1.3" stroke-linecap="round"></line> <line x1="171.6" y1="206.4" x2="171.6" y2="214.8" id="Path-4-Copy" stroke="#000000" stroke-width="1.3" stroke-linecap="round"></line> <g id="Group-5" transform="translate(140.400000, 140.400000)" stroke="#000000" stroke-linecap="round" stroke-width="1.3"> <path d="M0,2.4 C3.6,3.6 6,2.4 8.4,2.66453526e-16" id="Path-38"></path> <path d="M22.8,2.4 C26.4,3.6 28.8,2.4 31.2,0" id="Path-38" transform="translate(27.000000, 1.435383) scale(-1, 1) translate(-27.000000, -1.435383) "></path> <circle id="Oval" fill="#000000" cx="4.8" cy="8.4" r="1.2"></circle> <circle id="Oval-Copy" fill="#000000" cx="26.4" cy="8.4" r="1.2"></circle> <path d="M6,24 C12,24 15.6,21.6 15.6,14.4" id="Path-39"></path> <path d="M15.6,24 C21.6,24 25.2,21.6 25.2,14.4" id="Path-39" transform="translate(20.400000, 19.200000) scale(-1, 1) translate(-20.400000, -19.200000) "></path> </g> <path d="M129.004332,170.671273 C137.620973,174.490424 146.619529,176.4 156,176.4 C165.422996,176.4 174.460606,174.473072 183.11283,170.619216" id="Path-40" stroke="#000000" stroke-width="1.3" stroke-linecap="round"></path> <circle id="Oval" stroke="#000000" stroke-width="1.3" fill="#FFFFFF" stroke-linecap="round" cx="156" cy="180.6" r="4.2"></circle> <rect id="Rectangle" fill="#000000" x="152.4" y="152.4" width="7.2" height="4.8" rx="2.4"></rect> <line x1="139.2" y1="244.8" x2="139.2" y2="235.2" id="Path-35" stroke="#000000" stroke-width="1.3" stroke-linecap="round"></line> <line x1="142.8" y1="246" x2="142.8" y2="236.4" id="Path-36" stroke="#000000" stroke-width="1.3" stroke-linecap="round"></line> <line x1="172.8" y1="244.8" x2="172.8" y2="235.2" id="Path-35-Copy" stroke="#000000" stroke-width="1.3" stroke-linecap="round"></line> <line x1="169.2" y1="246" x2="169.2" y2="236.4" id="Path-36-Copy" stroke="#000000" stroke-width="1.3" stroke-linecap="round"></line> <g id="Group-4" transform="translate(116.400000, 156.000000)" stroke="#000000" stroke-linecap="round" stroke-width="1.3"> <path d="M0,6 C4.8,2.4 10.8,0 21.6,0" id="Path-37"></path> <path d="M6,9.6 C9.46666667,6.72 13.8,4.8 21.6,4.8" id="Path-37-Copy"></path> </g> <g id="Group-4-Copy" transform="translate(184.600000, 161.000000) scale(-1, 1) translate(-184.600000, -161.000000) translate(173.600000, 156.000000)" stroke="#000000" stroke-linecap="round" stroke-width="1.3"> <path d="M0,6 C4.8,2.4 10.8,0 21.6,0" id="Path-37"></path> <path d="M6,9.6 C9.46666667,6.72 13.8,4.8 21.6,4.8" id="Path-37-Copy"></path> </g> </g> </g> </g> </g> </svg> 